# Blender 4.0.2
# www.blender.org
mtllib 1_sapling.mtl
o grapefruit_1_sapling
v -0.002500 0.000000 0.482500
v 0.035000 -0.035000 0.055000
v 0.045000 -0.000000 0.055000
v 0.035000 0.035000 0.055000
v 0.000000 0.045000 0.052500
v -0.035000 0.035000 0.052500
v -0.045000 0.000000 0.052500
v -0.000000 -0.045000 0.052500
v -0.035000 -0.035000 0.052500
v -0.002500 0.200000 0.455000
v -0.002500 0.175000 0.365000
v 0.115000 0.117500 0.365000
v 0.132500 0.135000 0.455000
v -0.137500 0.135000 0.452500
v -0.120000 0.117500 0.365000
v 0.132500 -0.135000 0.455000
v 0.115000 -0.117500 0.365000
v -0.002500 -0.172500 0.365000
v -0.002500 -0.200000 0.455000
v -0.120000 0.117500 0.552500
v -0.157500 0.155000 0.445000
v -0.002500 0.222500 0.445000
v -0.002500 0.167500 0.552500
v 0.172500 -0.000000 0.365000
v 0.197500 -0.000000 0.455000
v -0.137500 -0.135000 0.452500
v -0.120000 -0.117500 0.365000
v -0.177500 0.000000 0.365000
v -0.202500 0.000000 0.452500
v 0.152500 0.155000 0.445000
v 0.112500 0.117500 0.552500
v -0.170000 0.000000 0.552500
v -0.225000 0.000000 0.445000
v -0.120000 -0.117500 0.552500
v -0.157500 -0.155000 0.445000
v 0.222500 -0.000000 0.447500
v 0.162500 -0.000000 0.552500
v -0.002500 -0.167500 0.552500
v -0.002500 -0.222500 0.445000
v 0.112500 -0.117500 0.552500
v 0.152500 -0.155000 0.445000
v -0.002500 0.200000 0.540000
v -0.002500 0.000000 0.620000
v -0.137500 0.135000 0.540000
v -0.202500 0.000000 0.540000
v 0.197500 -0.000000 0.540000
v 0.132500 0.135000 0.540000
v -0.137500 -0.135000 0.540000
v -0.002500 -0.200000 0.540000
v 0.132500 -0.135000 0.540000
v -0.107500 0.107500 0.000000
v -0.060000 0.035000 0.000000
v -0.042500 0.040000 0.040000
v -0.035000 0.060000 0.000000
v -0.000000 -0.072500 0.000000
v -0.052500 -0.052500 0.000000
v -0.052500 0.052500 0.000000
v 0.000000 0.072500 0.000000
v -0.072500 0.000000 0.000000
v 0.052500 0.052500 0.000000
v 0.072500 -0.000000 0.000000
v 0.052500 -0.052500 0.000000
v 0.090000 0.027500 0.010000
v 0.052500 -0.000000 0.035000
v 0.080000 -0.000000 0.045000
v 0.062500 0.027500 0.000000
v 0.062500 -0.027500 0.000000
v 0.090000 -0.027500 0.010000
v 0.107500 -0.000000 0.027500
v 0.107500 0.027500 0.000000
v 0.107500 -0.027500 0.000000
v 0.125000 -0.000000 0.010000
v 0.160000 -0.000000 0.000000
v -0.062500 -0.027500 0.000000
v -0.062500 -0.062500 0.007500
v -0.027500 -0.062500 0.000000
v -0.107500 -0.107500 0.000000
v 0.170000 -0.060000 0.357500
v 0.180000 -0.057500 0.352500
v 0.172500 -0.052500 0.357500
v 0.177500 -0.065000 0.352500
v 0.105000 0.007500 0.315000
v 0.012500 -0.015000 0.285000
v 0.105000 -0.007500 0.315000
v 0.012500 0.015000 0.285000
v 0.012500 -0.015000 0.257500
v 0.120000 -0.007500 0.300000
v 0.120000 0.007500 0.300000
v 0.012500 0.015000 0.257500
v 0.125000 -0.000000 0.320000
v 0.135000 -0.000000 0.307500
v 0.125000 0.027500 0.325000
v 0.135000 0.020000 0.325000
v 0.130000 0.027500 0.312500
v 0.135000 0.020000 0.307500
v -0.122500 0.067500 0.385000
v -0.117500 0.062500 0.390000
v -0.117500 0.067500 0.390000
v -0.122500 0.062500 0.385000
v -0.002500 0.015000 0.320000
v -0.060000 0.052500 0.347500
v -0.017500 0.002500 0.320000
v -0.052500 0.060000 0.347500
v -0.065000 0.060000 0.335000
v -0.017500 0.002500 0.292500
v -0.002500 0.015000 0.292500
v -0.057500 0.065000 0.335000
v -0.065000 0.065000 0.355000
v -0.070000 0.072500 0.342500
v -0.057500 0.077500 0.357500
v -0.050000 0.077500 0.357500
v -0.052500 0.080000 0.345000
v -0.057500 0.077500 0.342500
vn 0.9561 -0.2732 0.1062
vn 0.9561 0.2732 0.1062
vn -0.2734 0.9568 0.0985
vn -0.9572 0.2735 0.0946
vn 0.2666 -0.9584 0.1018
vn 0.2666 0.9584 0.1018
vn -0.9572 -0.2735 0.0946
vn -0.2734 -0.9568 0.0985
vn -0.7672 -0.5026 0.3985
vn 0.4860 0.7418 0.4620
vn -0.2454 -0.8588 0.4498
vn -0.3270 -0.8584 0.3952
vn -0.2540 0.8890 0.3810
vn -0.3197 0.8393 0.4396
vn -0.8890 -0.2540 0.3810
vn -0.8393 -0.3197 0.4396
vn -0.8584 0.3270 0.3952
vn -0.8588 0.2454 0.4498
vn 0.3293 0.8645 0.3798
vn 0.2148 0.8652 0.4532
vn 0.8948 0.2557 0.3661
vn 0.8466 0.3225 0.4233
vn 0.8645 -0.3293 0.3798
vn 0.8666 -0.2476 0.4333
vn 0.3197 -0.8393 0.4396
vn 0.2322 -0.9031 0.3612
vn -0.2063 0.7972 0.5674
vn -0.2063 -0.7972 0.5674
vn 0.3746 0.6556 0.6556
vn 0.4033 0.6600 0.6338
vn 0.4103 -0.6448 0.6448
vn 0.3643 -0.6789 0.6375
vn 0.5774 0.5774 0.5774
vn 0.5774 -0.5774 0.5774
vn 0.2433 0.4645 0.8515
vn 0.2433 -0.4645 0.8515
vn -0.8752 0.1013 0.4729
vn 0.1013 -0.8752 0.4729
vn 0.1963 -0.3491 0.9163
vn -0.3491 0.1963 0.9163
vn 0.4729 -0.1576 0.8669
vn -0.3085 -0.0000 0.9512
vn 0.0499 -0.9975 0.0499
vn 0.0808 -0.9967 -0.0000
vn 0.0610 0.9963 0.0610
vn 0.0696 0.9976 -0.0000
vn -0.4527 0.1509 0.8788
vn -0.3415 0.3218 0.8831
vn -0.6199 -0.7678 -0.1620
vn -0.4018 -0.8228 -0.4018
vn 0.6389 0.7366 0.2219
vn 0.5253 0.7399 0.4202
vn -0.2425 -0.0000 0.9701
vn -0.2988 -0.1707 0.9389
vn -0.1330 -0.1773 0.9751
vn -0.4851 0.7276 -0.4851
vn -0.7619 0.5715 -0.3048
vn 0.8944 -0.4472 -0.0000
vn 0.7809 -0.0000 0.6247
vn 0.8320 0.5547 -0.0000
vn 0.5834 0.7779 0.2334
vn 0.3677 -0.0000 -0.9300
vn 0.5639 -0.1880 -0.8041
vn 0.5237 -0.2262 -0.8213
vn 0.4472 -0.0000 -0.8944
vn -0.0300 0.5405 -0.8408
vn -0.7071 -0.0000 0.7071
vn 0.2474 -0.2969 0.9223
vn 0.2679 -0.2679 0.9255
vn -0.7710 -0.6369 -0.0000
vn -0.7775 -0.6255 -0.0643
vn 0.6690 0.7433 -0.0000
vn 0.6811 0.7319 0.0203
vn 0.5441 -0.2609 0.7975
vn 0.5547 -0.0000 0.8321
vn -0.3592 -0.8566 -0.3703
vn -0.0990 -0.9901 0.0990
vn 0.3058 0.8654 0.3969
vn -0.0525 0.9972 0.0525
vn 0.3665 -0.3665 0.8552
vn -0.0000 -0.4961 0.8682
vn 0.3570 -0.3845 0.8513
vn 0.9352 0.0652 -0.3480
vn 0.9594 -0.1693 -0.2257
vn -0.8575 0.5145 -0.0000
vn -0.3034 0.7586 0.5766
vn -0.4472 0.8944 -0.0000
vn -0.0000 0.9806 0.1961
vn -0.3201 0.3841 -0.8661
vn -0.2757 0.4136 -0.8677
vn -0.6292 -0.0000 -0.7772
vn -0.6393 0.1911 -0.7448
vn -0.2744 0.4116 -0.8690
vn -0.2016 0.5039 -0.8399
vn 0.1690 0.5071 -0.8452
vn -0.4230 -0.8718 0.2470
vn 0.4206 -0.8720 0.2503
vn -0.4147 0.8725 0.2584
vn 0.3592 -0.8329 -0.4210
vn -0.8718 -0.4230 0.2470
vn 0.8703 0.4222 0.2536
vn 0.4121 0.8727 0.2619
vn -0.3613 -0.8303 -0.4244
vn 0.8329 -0.3592 -0.4210
vn 0.8329 0.3592 -0.4210
vn -0.8165 -0.3637 -0.4484
vn 0.3592 0.8329 -0.4210
vn -0.3613 0.8303 -0.4244
vn -0.8165 0.3637 -0.4484
vn 0.1760 -0.3656 -0.9140
vn 0.3656 -0.1760 -0.9140
vn -0.3656 -0.1760 -0.9140
vn -0.1760 -0.3656 -0.9140
vn 0.3656 0.1760 -0.9140
vn 0.1760 0.3656 -0.9140
vn -0.1760 0.3656 -0.9140
vn -0.3656 0.1760 -0.9140
vn -0.8718 0.4230 0.2470
vn 0.8703 -0.4222 0.2536
s 0
usemtl tex_32767
f 1//1 2//1 3//1
f 1//2 3//2 4//2
f 1//3 5//3 6//3
f 1//4 6//4 7//4
f 1//5 8//5 2//5
f 1//6 4//6 5//6
f 1//7 7//7 9//7
f 1//8 9//8 8//8
f 51//9 52//9 53//9
f 51//10 53//10 54//10
f 9//11 55//11 8//11
f 9//12 56//12 55//12
f 5//13 57//13 6//13
f 5//14 58//14 57//14
f 7//15 56//15 9//15
f 7//16 59//16 56//16
f 59//17 6//17 57//17
f 59//18 7//18 6//18
f 58//19 4//19 60//19
f 58//20 5//20 4//20
f 3//21 60//21 4//21
f 3//22 61//22 60//22
f 61//23 2//23 62//23
f 61//24 3//24 2//24
f 62//25 8//25 55//25
f 62//26 2//26 8//26
f 63//27 64//27 65//27
f 63//27 66//27 64//27
f 65//28 67//28 68//28
f 65//28 64//28 67//28
f 63//29 69//29 70//29
f 63//30 65//30 69//30
f 65//31 71//31 69//31
f 65//32 68//32 71//32
f 72//33 70//33 69//33
f 71//34 72//34 69//34
f 73//35 70//35 72//35
f 73//36 72//36 71//36
f 74//37 75//37 9//37
f 76//38 9//38 75//38
f 75//39 77//39 76//39
f 74//40 77//40 75//40
f 78//41 79//41 80//41
f 78//41 81//41 79//41
f 82//42 83//42 84//42
f 82//42 85//42 83//42
f 84//43 86//43 87//43
f 84//44 83//44 86//44
f 88//45 85//45 82//45
f 88//46 89//46 85//46
f 80//47 84//47 78//47
f 80//48 90//48 84//48
f 78//49 87//49 81//49
f 78//50 84//50 87//50
f 79//51 90//51 80//51
f 79//52 91//52 90//52
f 90//53 82//53 84//53
f 90//54 92//54 82//54
f 90//55 93//55 92//55
f 92//56 88//56 82//56
f 94//57 88//57 92//57
f 90//58 95//58 93//58
f 90//59 91//59 95//59
f 94//60 93//60 95//60
f 94//61 92//61 93//61
f 87//62 89//62 88//62
f 87//62 86//62 89//62
f 81//63 91//63 79//63
f 81//64 87//64 91//64
f 91//65 87//65 88//65
f 88//65 95//65 91//65
f 95//66 88//66 94//66
f 96//67 97//67 98//67
f 99//67 97//67 96//67
f 100//68 101//68 102//68
f 100//69 103//69 101//69
f 102//70 104//70 105//70
f 102//71 101//71 104//71
f 106//72 103//72 100//72
f 106//73 107//73 103//73
f 108//74 97//74 101//74
f 108//75 98//75 97//75
f 101//76 99//76 104//76
f 101//77 97//77 99//77
f 109//78 98//78 108//78
f 109//79 96//79 98//79
f 103//80 108//80 101//80
f 110//81 103//81 111//81
f 110//82 108//82 103//82
f 107//83 111//83 103//83
f 107//84 112//84 111//84
f 113//85 108//85 110//85
f 109//86 108//86 113//86
f 110//87 112//87 113//87
f 111//88 112//88 110//88
f 105//89 107//89 106//89
f 105//90 104//90 107//90
f 109//91 99//91 96//91
f 104//92 99//92 109//92
f 104//93 109//93 107//93
f 113//94 107//94 109//94
f 107//95 113//95 112//95
usemtl tex_65
f 10//96 11//96 12//96 13//96
f 14//97 15//97 11//97 10//97
f 16//98 17//98 18//98 19//98
f 20//99 21//99 22//99 23//99
f 13//100 12//100 24//100 25//100
f 26//101 27//101 28//101 29//101
f 19//102 18//102 27//102 26//102
f 23//103 22//103 30//103 31//103
f 32//104 33//104 21//104 20//104
f 34//105 35//105 33//105 32//105
f 31//106 30//106 36//106 37//106
f 38//107 39//107 35//107 34//107
f 40//108 41//108 39//108 38//108
f 37//109 36//109 41//109 40//109
f 42//110 43//110 44//110
f 44//111 43//111 45//111
f 46//112 43//112 47//112
f 47//113 43//113 42//113
f 45//114 43//114 48//114
f 48//115 43//115 49//115
f 49//116 43//116 50//116
f 50//117 43//117 46//117
f 25//118 24//118 17//118 16//118
f 29//119 28//119 15//119 14//119
