# Blender 4.0.2
# www.blender.org
mtllib 4_mature_partial.mtl
o grapefruit_4_partial
v -0.010000 0.000000 1.930000
v 0.140000 -0.140000 0.220000
v 0.180000 -0.000000 0.220000
v 0.140000 0.140000 0.220000
v 0.000000 0.180000 0.210000
v -0.140000 0.140000 0.210000
v -0.180000 0.000000 0.210000
v -0.000000 -0.180000 0.210000
v -0.140000 -0.140000 0.210000
v -0.010000 0.800000 1.820000
v -0.010000 0.700000 1.460000
v 0.460000 0.470000 1.460000
v 0.530000 0.540000 1.820000
v -0.550000 0.540000 1.810000
v -0.480000 0.470000 1.460000
v -0.810000 0.000000 1.810000
v -0.710000 0.000000 1.460000
v 0.530000 -0.540000 1.820000
v 0.460000 -0.470000 1.460000
v -0.010000 -0.690000 1.460000
v -0.010000 -0.800000 1.820000
v 0.790000 -0.000000 1.820000
v 0.690000 -0.000000 1.460000
v -0.480000 -0.470000 1.460000
v -0.550000 -0.540000 1.810000
v -0.010000 0.670000 2.210000
v -0.010000 0.890000 1.780000
v 0.610000 0.620000 1.780000
v 0.450000 0.470000 2.210000
v -0.480000 0.470000 2.210000
v -0.630000 0.620000 1.780000
v -0.480000 -0.470000 2.210000
v -0.630000 -0.620000 1.780000
v -0.900000 0.000000 1.780000
v -0.680000 0.000000 2.210000
v 0.890000 -0.000000 1.790000
v 0.650000 -0.000000 2.210000
v -0.010000 -0.670000 2.210000
v -0.010000 -0.890000 1.780000
v 0.450000 -0.470000 2.210000
v 0.610000 -0.620000 1.780000
v -0.010000 0.800000 2.160000
v -0.010000 0.000000 2.480000
v -0.550000 0.540000 2.160000
v -0.810000 0.000000 2.160000
v 0.790000 -0.000000 2.160000
v 0.530000 0.540000 2.160000
v -0.550000 -0.540000 2.160000
v -0.010000 -0.800000 2.160000
v 0.530000 -0.540000 2.160000
v -0.430000 0.430000 0.000000
v -0.240000 0.140000 0.000000
v -0.170000 0.160000 0.160000
v -0.140000 0.240000 0.000000
v -0.000000 -0.290000 0.000000
v -0.210000 -0.210000 0.000000
v -0.210000 0.210000 0.000000
v 0.000000 0.290000 0.000000
v -0.290000 0.000000 0.000000
v 0.210000 0.210000 0.000000
v 0.290000 -0.000000 0.000000
v 0.210000 -0.210000 0.000000
v 0.360000 0.110000 0.040000
v 0.210000 -0.000000 0.140000
v 0.320000 -0.000000 0.180000
v 0.250000 0.110000 0.000000
v 0.250000 -0.110000 0.000000
v 0.360000 -0.110000 0.040000
v 0.430000 -0.000000 0.110000
v 0.430000 0.110000 0.000000
v 0.430000 -0.110000 0.000000
v 0.500000 -0.000000 0.040000
v 0.640000 -0.000000 0.000000
v -0.250000 -0.110000 0.000000
v -0.250000 -0.250000 0.030000
v -0.110000 -0.250000 0.000000
v -0.430000 -0.430000 0.000000
v 0.680000 -0.240000 1.430000
v 0.720000 -0.230000 1.410000
v 0.690000 -0.210000 1.430000
v 0.710000 -0.260000 1.410000
v 0.420000 0.030000 1.260000
v 0.050000 -0.060000 1.140000
v 0.420000 -0.030000 1.260000
v 0.050000 0.060000 1.140000
v 0.050000 -0.060000 1.030000
v 0.480000 -0.030000 1.200000
v 0.480000 0.030000 1.200000
v 0.050000 0.060000 1.030000
v 0.500000 -0.000000 1.280000
v 0.540000 -0.000000 1.230000
v 0.500000 0.110000 1.300000
v 0.540000 0.080000 1.300000
v 0.520000 0.110000 1.250000
v 0.540000 0.080000 1.230000
v -0.490000 0.270000 1.540000
v -0.470000 0.250000 1.560000
v -0.470000 0.270000 1.560000
v -0.490000 0.250000 1.540000
v -0.010000 0.060000 1.280000
v -0.240000 0.210000 1.390000
v -0.070000 0.010000 1.280000
v -0.210000 0.240000 1.390000
v -0.260000 0.240000 1.340000
v -0.070000 0.010000 1.170000
v -0.010000 0.060000 1.170000
v -0.230000 0.260000 1.340000
v -0.260000 0.260000 1.420000
v -0.280000 0.290000 1.370000
v -0.230000 0.310000 1.430000
v -0.200000 0.310000 1.430000
v -0.210000 0.320000 1.380000
v -0.230000 0.310000 1.370000
v -0.840000 -0.020000 1.670000
v -0.820000 0.000000 1.700000
v -0.820000 -0.020000 1.710000
v -0.800000 -0.080000 1.690000
v -0.820000 -0.070000 1.690000
v -0.790000 -0.050000 1.720000
v -0.780000 -0.060000 1.720000
v -0.820000 -0.060000 1.690000
v -0.810000 -0.040000 1.720000
v -0.770000 -0.080000 1.660000
v -0.780000 -0.080000 1.680000
v -0.760000 -0.070000 1.710000
v -0.750000 -0.060000 1.690000
v -0.800000 0.020000 1.660000
v -0.820000 -0.010000 1.640000
v -0.800000 -0.010000 1.630000
v -0.760000 0.000000 1.640000
v -0.740000 -0.020000 1.650000
v -0.820000 0.020000 1.670000
v -0.840000 -0.020000 1.660000
v -0.830000 -0.010000 1.650000
v -0.740000 -0.040000 1.660000
v -0.760000 -0.060000 1.640000
v -0.770000 -0.070000 1.650000
v -0.740000 -0.050000 1.680000
v -0.770000 0.010000 1.640000
v -0.790000 -0.020000 1.620000
v -0.810000 -0.070000 1.660000
v -0.820000 -0.060000 1.660000
v -0.830000 -0.040000 1.650000
v -0.830000 -0.040000 1.660000
v -0.800000 -0.040000 1.630000
v -0.820000 -0.030000 1.640000
v -0.810000 -0.040000 1.630000
v -0.800000 0.020000 1.720000
v -0.800000 0.000000 1.730000
v -0.760000 -0.040000 1.730000
v -0.780000 -0.030000 1.740000
v -0.780000 -0.020000 1.740000
v -0.730000 -0.040000 1.710000
v -0.750000 -0.040000 1.720000
v -0.760000 0.030000 1.670000
v -0.780000 0.030000 1.680000
v -0.730000 0.000000 1.680000
v -0.740000 0.020000 1.670000
v -0.790000 0.030000 1.700000
v -0.730000 -0.030000 1.700000
v -0.730000 -0.020000 1.690000
v -0.750000 0.030000 1.670000
v -0.750000 -0.010000 1.720000
v -0.740000 -0.010000 1.710000
v -0.760000 0.000000 1.730000
v -0.750000 -0.010000 1.730000
v -0.770000 0.020000 1.710000
v -0.770000 0.020000 1.720000
v -0.770000 0.010000 1.730000
v -0.740000 0.010000 1.700000
v -0.740000 0.020000 1.700000
v -0.760000 0.030000 1.700000
v -0.750000 0.020000 1.700000
v -0.740000 0.000000 1.710000
v -0.730000 0.000000 1.700000
v -0.240000 -0.140000 2.440000
v -0.240000 -0.170000 2.440000
v -0.280000 -0.210000 2.410000
v -0.280000 -0.200000 2.430000
v -0.240000 -0.210000 2.430000
v -0.240000 -0.220000 2.410000
v -0.280000 -0.190000 2.430000
v -0.240000 -0.190000 2.440000
v -0.240000 -0.120000 2.360000
v -0.240000 -0.110000 2.390000
v -0.280000 -0.120000 2.390000
v -0.280000 -0.130000 2.360000
v -0.240000 -0.140000 2.340000
v -0.280000 -0.150000 2.350000
v -0.240000 -0.170000 2.330000
v -0.240000 -0.120000 2.410000
v -0.240000 -0.130000 2.420000
v -0.280000 -0.140000 2.420000
v -0.280000 -0.130000 2.410000
v -0.240000 -0.190000 2.340000
v -0.280000 -0.190000 2.350000
v -0.280000 -0.200000 2.360000
v -0.240000 -0.210000 2.350000
v -0.280000 -0.140000 2.350000
v -0.300000 -0.190000 2.400000
v -0.300000 -0.180000 2.410000
v -0.300000 -0.150000 2.400000
v -0.300000 -0.160000 2.370000
v -0.300000 -0.150000 2.390000
v -0.300000 -0.150000 2.370000
v -0.300000 -0.180000 2.370000
v -0.300000 -0.150000 2.380000
v -0.200000 -0.150000 2.430000
v -0.200000 -0.170000 2.440000
v -0.200000 -0.210000 2.410000
v -0.200000 -0.200000 2.430000
v -0.200000 -0.190000 2.430000
v -0.200000 -0.130000 2.360000
v -0.200000 -0.120000 2.390000
v -0.200000 -0.170000 2.340000
v -0.200000 -0.150000 2.350000
v -0.200000 -0.130000 2.410000
v -0.200000 -0.140000 2.420000
v -0.200000 -0.190000 2.350000
v -0.180000 -0.180000 2.410000
v -0.180000 -0.150000 2.400000
v -0.180000 -0.160000 2.410000
v -0.180000 -0.170000 2.360000
v -0.180000 -0.160000 2.370000
v -0.180000 -0.150000 2.390000
v -0.180000 -0.180000 2.370000
v -0.180000 -0.150000 2.380000
v 0.110000 -0.750000 1.550000
v 0.080000 -0.730000 1.560000
v 0.120000 -0.740000 1.560000
v 0.130000 -0.680000 1.540000
v 0.140000 -0.670000 1.530000
v 0.120000 -0.690000 1.560000
v 0.160000 -0.710000 1.480000
v 0.160000 -0.700000 1.500000
v 0.150000 -0.670000 1.500000
v 0.140000 -0.670000 1.470000
v 0.060000 -0.750000 1.470000
v 0.090000 -0.770000 1.470000
v 0.080000 -0.730000 1.450000
v 0.110000 -0.750000 1.450000
v 0.120000 -0.740000 1.450000
v 0.100000 -0.710000 1.440000
v 0.060000 -0.750000 1.530000
v 0.070000 -0.740000 1.540000
v 0.100000 -0.760000 1.540000
v 0.090000 -0.770000 1.530000
v 0.120000 -0.690000 1.450000
v 0.140000 -0.720000 1.460000
v 0.150000 -0.710000 1.460000
v 0.140000 -0.680000 1.460000
v 0.070000 -0.740000 1.460000
v 0.100000 -0.760000 1.460000
v 0.120000 -0.760000 1.520000
v 0.120000 -0.760000 1.510000
v 0.130000 -0.750000 1.530000
v 0.130000 -0.760000 1.530000
v 0.120000 -0.760000 1.480000
v 0.120000 -0.760000 1.490000
v 0.060000 -0.700000 1.550000
v 0.080000 -0.680000 1.560000
v 0.110000 -0.650000 1.520000
v 0.110000 -0.660000 1.540000
v 0.100000 -0.670000 1.550000
v 0.110000 -0.650000 1.480000
v 0.120000 -0.650000 1.500000
v 0.050000 -0.710000 1.470000
v 0.040000 -0.720000 1.500000
v 0.080000 -0.680000 1.450000
v 0.060000 -0.700000 1.450000
v 0.050000 -0.710000 1.530000
v 0.050000 -0.710000 1.540000
v 0.110000 -0.660000 1.460000
v 0.100000 -0.670000 1.460000
v 0.090000 -0.660000 1.500000
v 0.080000 -0.660000 1.490000
v 0.080000 -0.660000 1.510000
v 0.050000 -0.690000 1.510000
v 0.050000 -0.680000 1.520000
v 0.060000 -0.680000 1.530000
v 0.070000 -0.670000 1.530000
v 0.050000 -0.690000 1.500000
v 0.080000 -0.660000 1.480000
v 0.080000 -0.660000 1.530000
v 0.050000 -0.690000 1.490000
v -0.150000 0.810000 2.000000
v -0.130000 0.830000 2.010000
v -0.120000 0.800000 2.010000
v -0.140000 0.790000 2.010000
v -0.130000 0.750000 1.980000
v -0.130000 0.760000 2.000000
v -0.100000 0.770000 2.000000
v -0.100000 0.760000 1.980000
v -0.140000 0.770000 2.000000
v -0.110000 0.780000 2.010000
v -0.130000 0.750000 1.940000
v -0.130000 0.750000 1.960000
v -0.090000 0.750000 1.960000
v -0.100000 0.760000 1.940000
v -0.140000 0.850000 1.940000
v -0.140000 0.860000 1.960000
v -0.160000 0.830000 1.960000
v -0.160000 0.830000 1.940000
v -0.130000 0.830000 1.920000
v -0.150000 0.810000 1.920000
v -0.140000 0.790000 1.920000
v -0.120000 0.800000 1.910000
v -0.140000 0.850000 1.980000
v -0.130000 0.840000 2.000000
v -0.160000 0.820000 1.990000
v -0.160000 0.830000 1.980000
v -0.110000 0.780000 1.920000
v -0.130000 0.760000 1.930000
v -0.100000 0.770000 1.930000
v -0.130000 0.840000 1.930000
v -0.160000 0.820000 1.930000
v -0.150000 0.770000 1.980000
v -0.160000 0.800000 1.980000
v -0.170000 0.810000 1.970000
v -0.160000 0.790000 1.990000
v -0.160000 0.800000 1.940000
v -0.160000 0.790000 1.940000
v -0.170000 0.810000 1.960000
v -0.150000 0.780000 1.980000
v -0.170000 0.810000 1.950000
v -0.100000 0.840000 2.000000
v -0.090000 0.810000 2.010000
v -0.070000 0.780000 1.980000
v -0.080000 0.780000 2.000000
v -0.080000 0.790000 2.000000
v -0.070000 0.770000 1.960000
v -0.100000 0.850000 1.940000
v -0.110000 0.860000 1.960000
v -0.090000 0.810000 1.920000
v -0.100000 0.840000 1.920000
v -0.100000 0.850000 1.980000
v -0.100000 0.850000 1.990000
v -0.080000 0.780000 1.930000
v -0.080000 0.790000 1.920000
v -0.100000 0.850000 1.930000
v -0.070000 0.800000 1.960000
v -0.070000 0.800000 1.950000
v -0.070000 0.810000 1.980000
v -0.070000 0.800000 1.970000
v -0.080000 0.840000 1.970000
v -0.080000 0.840000 1.980000
v -0.080000 0.830000 1.980000
v -0.070000 0.820000 1.990000
v -0.070000 0.820000 1.940000
v -0.080000 0.830000 1.940000
v -0.080000 0.840000 1.960000
v -0.080000 0.840000 1.940000
v -0.070000 0.810000 1.950000
v -0.070000 0.810000 1.940000
v -0.080000 0.840000 1.950000
v 0.850000 0.100000 1.960000
v 0.870000 0.090000 1.930000
v 0.820000 0.040000 1.980000
v 0.840000 0.050000 1.980000
v 0.850000 0.030000 1.960000
v 0.830000 0.020000 1.960000
v 0.840000 0.060000 1.980000
v 0.860000 0.040000 1.960000
v 0.780000 0.040000 1.960000
v 0.800000 0.040000 1.970000
v 0.810000 0.010000 1.950000
v 0.790000 0.020000 1.940000
v 0.810000 0.110000 1.890000
v 0.830000 0.110000 1.900000
v 0.820000 0.120000 1.930000
v 0.800000 0.110000 1.920000
v 0.790000 0.080000 1.900000
v 0.780000 0.100000 1.920000
v 0.770000 0.080000 1.930000
v 0.780000 0.060000 1.900000
v 0.850000 0.110000 1.910000
v 0.860000 0.100000 1.920000
v 0.840000 0.110000 1.950000
v 0.840000 0.110000 1.940000
v 0.780000 0.040000 1.920000
v 0.790000 0.030000 1.930000
v 0.800000 0.100000 1.890000
v 0.790000 0.110000 1.920000
v 0.790000 0.070000 1.970000
v 0.800000 0.070000 1.970000
v 0.810000 0.070000 1.980000
v 0.820000 0.070000 1.980000
v 0.820000 0.100000 1.960000
v 0.830000 0.090000 1.970000
v 0.830000 0.100000 1.970000
v 0.790000 0.090000 1.950000
v 0.780000 0.080000 1.950000
v 0.810000 0.100000 1.950000
v 0.790000 0.100000 1.950000
v 0.780000 0.080000 1.960000
v 0.790000 0.070000 1.960000
v 0.820000 0.080000 1.980000
v 0.800000 0.100000 1.950000
v 0.840000 0.010000 1.930000
v 0.860000 0.020000 1.930000
v 0.870000 0.030000 1.930000
v 0.810000 0.010000 1.910000
v 0.830000 0.010000 1.920000
v 0.820000 0.080000 1.870000
v 0.840000 0.090000 1.880000
v 0.800000 0.050000 1.880000
v 0.800000 0.070000 1.870000
v 0.860000 0.080000 1.890000
v 0.870000 0.080000 1.900000
v 0.800000 0.020000 1.900000
v 0.800000 0.030000 1.890000
v 0.810000 0.080000 1.870000
v 0.840000 0.020000 1.900000
v 0.830000 0.020000 1.890000
v 0.850000 0.030000 1.900000
v 0.850000 0.020000 1.900000
v 0.850000 0.060000 1.880000
v 0.860000 0.050000 1.890000
v 0.820000 0.040000 1.880000
v 0.820000 0.050000 1.870000
v 0.830000 0.050000 1.870000
v 0.820000 0.030000 1.880000
v 0.830000 0.060000 1.870000
vn 0.9561 -0.2732 0.1062
vn 0.9561 0.2732 0.1062
vn -0.2734 0.9568 0.0985
vn -0.9572 0.2735 0.0946
vn 0.2666 -0.9584 0.1018
vn 0.2666 0.9584 0.1018
vn -0.9572 -0.2735 0.0946
vn -0.2734 -0.9568 0.0985
vn -0.7672 -0.5026 0.3985
vn 0.4860 0.7418 0.4620
vn -0.2454 -0.8588 0.4498
vn -0.3270 -0.8584 0.3952
vn -0.2540 0.8890 0.3810
vn -0.3197 0.8393 0.4396
vn -0.8890 -0.2540 0.3810
vn -0.8393 -0.3197 0.4396
vn -0.8584 0.3270 0.3952
vn -0.8588 0.2454 0.4498
vn 0.3293 0.8645 0.3798
vn 0.2148 0.8652 0.4532
vn 0.8948 0.2557 0.3661
vn 0.8466 0.3225 0.4233
vn 0.8645 -0.3293 0.3798
vn 0.8666 -0.2476 0.4333
vn 0.3197 -0.8393 0.4396
vn 0.2322 -0.9031 0.3612
vn -0.2063 0.7972 0.5674
vn -0.2063 -0.7972 0.5674
vn 0.3746 0.6556 0.6556
vn 0.4033 0.6600 0.6338
vn 0.4103 -0.6448 0.6448
vn 0.3643 -0.6789 0.6375
vn 0.5774 0.5774 0.5774
vn 0.5774 -0.5774 0.5774
vn 0.2433 0.4645 0.8515
vn 0.2433 -0.4645 0.8515
vn -0.8752 0.1013 0.4729
vn 0.1013 -0.8752 0.4729
vn 0.1963 -0.3491 0.9163
vn -0.3491 0.1963 0.9163
vn 0.4729 -0.1576 0.8669
vn -0.3085 -0.0000 0.9512
vn 0.0499 -0.9975 0.0499
vn 0.0808 -0.9967 -0.0000
vn 0.0610 0.9963 0.0610
vn 0.0696 0.9976 -0.0000
vn -0.4527 0.1509 0.8788
vn -0.3415 0.3218 0.8831
vn -0.6199 -0.7678 -0.1620
vn -0.4018 -0.8228 -0.4018
vn 0.6389 0.7366 0.2219
vn 0.5253 0.7399 0.4202
vn -0.2425 -0.0000 0.9701
vn -0.2988 -0.1707 0.9389
vn -0.1330 -0.1773 0.9751
vn -0.4851 0.7276 -0.4851
vn -0.7619 0.5715 -0.3048
vn 0.8944 -0.4472 -0.0000
vn 0.7809 -0.0000 0.6247
vn 0.8320 0.5547 -0.0000
vn 0.5834 0.7779 0.2334
vn 0.3677 -0.0000 -0.9300
vn 0.5639 -0.1880 -0.8041
vn 0.5237 -0.2262 -0.8213
vn 0.4472 -0.0000 -0.8944
vn -0.0300 0.5405 -0.8408
vn -0.7071 -0.0000 0.7071
vn 0.2474 -0.2969 0.9223
vn 0.2679 -0.2679 0.9255
vn -0.7710 -0.6369 -0.0000
vn -0.7775 -0.6255 -0.0643
vn 0.6690 0.7433 -0.0000
vn 0.6811 0.7319 0.0203
vn 0.5441 -0.2609 0.7975
vn 0.5547 -0.0000 0.8321
vn -0.3592 -0.8566 -0.3703
vn -0.0990 -0.9901 0.0990
vn 0.3058 0.8654 0.3969
vn -0.0525 0.9972 0.0525
vn 0.3665 -0.3665 0.8552
vn -0.0000 -0.4961 0.8682
vn 0.3570 -0.3845 0.8513
vn 0.9352 0.0652 -0.3480
vn 0.9594 -0.1693 -0.2257
vn -0.8575 0.5145 -0.0000
vn -0.3034 0.7586 0.5766
vn -0.4472 0.8944 -0.0000
vn -0.0000 0.9806 0.1961
vn -0.3201 0.3841 -0.8661
vn -0.2757 0.4136 -0.8677
vn -0.6292 -0.0000 -0.7772
vn -0.6393 0.1911 -0.7448
vn -0.2744 0.4116 -0.8690
vn -0.2016 0.5039 -0.8399
vn 0.1690 0.5071 -0.8452
vn -0.4230 -0.8718 0.2470
vn 0.4206 -0.8720 0.2503
vn 0.8703 -0.4222 0.2536
vn -0.4147 0.8725 0.2584
vn -0.8718 0.4230 0.2470
vn -0.8718 -0.4230 0.2470
vn 0.4121 0.8727 0.2619
vn -0.3613 -0.8303 -0.4244
vn 0.3592 -0.8329 -0.4210
vn 0.8329 0.3592 -0.4210
vn -0.8165 -0.3637 -0.4484
vn 0.3592 0.8329 -0.4210
vn -0.3613 0.8303 -0.4244
vn -0.8165 0.3637 -0.4484
vn 0.1760 -0.3656 -0.9140
vn 0.3656 -0.1760 -0.9140
vn -0.3656 -0.1760 -0.9140
vn -0.1760 -0.3656 -0.9140
vn 0.3656 0.1760 -0.9140
vn 0.1760 0.3656 -0.9140
vn -0.1760 0.3656 -0.9140
vn -0.3656 0.1760 -0.9140
vn 0.8329 -0.3592 -0.4210
vn 0.8703 0.4222 0.2536
vn -0.5398 0.8397 -0.0600
vn -0.7253 0.6594 0.1978
vn -0.0000 0.8944 -0.4472
vn 0.5455 0.8182 0.1818
vn 0.8944 0.4472 -0.0000
vn 0.7071 -0.0000 0.7071
vn 0.4472 -0.0000 0.8944
vn 1.0000 -0.0000 -0.0000
vn 0.8018 -0.2673 -0.5345
vn 0.0921 0.5523 -0.8285
vn 0.4083 0.4082 -0.8165
vn -0.6396 0.6396 -0.4264
vn -0.7663 -0.2873 0.5747
vn -0.9503 0.2592 0.1728
vn 0.1924 -0.9623 0.1924
vn -0.9631 0.1204 0.2408
vn -0.5145 -0.5145 0.6860
vn -0.5523 -0.0921 -0.8285
vn -0.8847 0.1474 -0.4423
vn -0.9300 -0.3487 -0.1162
vn -0.0000 -0.9487 -0.3162
vn -0.4423 -0.8847 -0.1474
vn -0.9487 -0.3162 -0.0000
vn 0.2182 0.8729 -0.4364
vn 0.1562 0.3123 -0.9370
vn 0.2308 -0.9231 0.3077
vn 0.1741 -0.6963 -0.6963
vn 0.2673 0.5345 0.8018
vn 0.2182 -0.8729 -0.4364
vn 0.7804 0.5203 -0.3468
vn -0.5766 -0.5406 -0.6126
vn 0.7845 -0.5883 -0.1961
vn 0.7276 -0.4851 -0.4851
vn 0.7454 -0.5963 0.2981
vn 0.7276 0.4851 0.4851
vn 0.7071 -0.0000 -0.7071
vn -0.1455 -0.1940 -0.9701
vn -0.2182 0.8729 -0.4364
vn -0.2683 -0.3578 0.8944
vn -0.1741 -0.6963 -0.6963
vn -0.2182 -0.8729 -0.4364
vn -0.2182 0.4364 0.8729
vn -0.6965 -0.3980 0.5970
vn -0.7276 -0.4851 -0.4851
vn -0.7845 -0.5883 -0.1961
vn -0.6965 0.3980 0.5970
vn -0.8001 -0.5819 0.1455
vn -0.7071 -0.0000 -0.7071
vn -0.9023 -0.3509 0.2506
vn 0.0643 0.2571 0.9642
vn 0.3244 0.4867 -0.8111
vn -0.3162 -0.0000 0.9487
vn 0.3244 0.4867 0.8111
vn -0.8642 -0.3143 0.3928
vn -0.4472 -0.0000 0.8944
vn 0.3333 0.6667 -0.6667
vn -0.3810 0.8890 -0.2540
vn -0.5773 0.5774 -0.5774
vn -0.1162 0.9300 -0.3487
vn -0.3810 0.8890 0.2540
vn -0.4256 -0.6810 -0.5959
vn -0.4256 -0.5959 -0.6810
vn -0.5185 -0.8296 0.2074
vn 0.2425 -0.0000 0.9701
vn -0.1111 -0.4444 0.8889
vn 0.2822 -0.9407 0.1881
vn 0.6985 -0.5433 -0.4657
vn 0.3468 -0.7804 -0.5203
vn 0.3015 -0.9045 0.3015
vn 0.9503 -0.2592 0.1728
vn 0.4851 -0.4851 0.7276
vn 0.2933 -0.0733 -0.9532
vn -0.2857 0.8571 -0.4286
vn 0.7715 -0.6172 0.1543
vn 0.7715 -0.6172 -0.1543
vn -0.1361 0.9526 -0.2722
vn 0.4216 -0.5270 0.7379
vn -0.2294 0.6883 0.6882
vn 0.5970 -0.3980 -0.6965
vn 0.7442 0.2481 0.6202
vn 0.8018 0.2673 -0.5345
vn 0.7379 0.5270 -0.4216
vn 0.8165 0.4083 -0.4083
vn -0.0976 -0.1952 -0.9759
vn -0.3015 0.3015 -0.9045
vn -0.0000 -0.8944 0.4472
vn -0.0976 -0.1952 0.9759
vn -0.2075 0.1383 0.9684
vn -0.2075 0.1383 -0.9684
vn 0.2294 -0.6882 0.6882
vn -0.9487 -0.0000 -0.3162
vn -1.0000 -0.0000 -0.0000
vn -0.4472 -0.8944 -0.0000
vn -0.6667 -0.3333 0.6667
vn -0.9526 0.2722 0.1361
vn -0.8285 0.0921 -0.5523
vn -0.6883 -0.2294 0.6882
vn -0.8944 -0.0000 -0.4472
vn 0.4616 0.6594 -0.5934
vn 0.1383 -0.9684 0.2075
vn 0.8018 -0.2673 0.5345
vn -0.5494 -0.8242 -0.1374
vn 0.1978 0.6594 -0.7253
vn 0.7804 -0.3468 0.5203
vn -0.6172 -0.7715 -0.1543
vn 0.3145 0.1048 -0.9435
vn -0.9603 -0.2788 -0.0000
vn 0.6965 -0.5970 -0.3980
vn -0.0000 -0.0000 -1.0000
vn -0.4082 0.8165 -0.4082
vn -0.1978 -0.6594 0.7253
vn 0.8412 -0.0765 0.5353
vn 0.7845 0.5883 0.1961
vn -0.4616 -0.6594 0.5934
vn -0.1596 0.9577 -0.2394
vn 0.2673 -0.5345 0.8018
vn -0.2063 0.9283 0.3094
vn -0.6882 0.6882 0.2294
vn 0.3841 0.5121 0.7682
vn 0.4066 -0.5630 -0.7195
vn -0.0000 -0.0000 1.0000
vn 0.3015 0.3015 0.9045
s 0
usemtl tex_32767
f 1//1 2//1 3//1
f 1//2 3//2 4//2
f 1//3 5//3 6//3
f 1//4 6//4 7//4
f 1//5 8//5 2//5
f 1//6 4//6 5//6
f 1//7 7//7 9//7
f 1//8 9//8 8//8
f 51//9 52//9 53//9
f 51//10 53//10 54//10
f 9//11 55//11 8//11
f 9//12 56//12 55//12
f 5//13 57//13 6//13
f 5//14 58//14 57//14
f 7//15 56//15 9//15
f 7//16 59//16 56//16
f 59//17 6//17 57//17
f 59//18 7//18 6//18
f 58//19 4//19 60//19
f 58//20 5//20 4//20
f 3//21 60//21 4//21
f 3//22 61//22 60//22
f 61//23 2//23 62//23
f 61//24 3//24 2//24
f 62//25 8//25 55//25
f 62//26 2//26 8//26
f 63//27 64//27 65//27
f 63//27 66//27 64//27
f 65//28 67//28 68//28
f 65//28 64//28 67//28
f 63//29 69//29 70//29
f 63//30 65//30 69//30
f 65//31 71//31 69//31
f 65//32 68//32 71//32
f 72//33 70//33 69//33
f 71//34 72//34 69//34
f 73//35 70//35 72//35
f 73//36 72//36 71//36
f 74//37 75//37 9//37
f 76//38 9//38 75//38
f 75//39 77//39 76//39
f 74//40 77//40 75//40
f 78//41 79//41 80//41
f 78//41 81//41 79//41
f 82//42 83//42 84//42
f 82//42 85//42 83//42
f 84//43 86//43 87//43
f 84//44 83//44 86//44
f 88//45 85//45 82//45
f 88//46 89//46 85//46
f 80//47 84//47 78//47
f 80//48 90//48 84//48
f 78//49 87//49 81//49
f 78//50 84//50 87//50
f 79//51 90//51 80//51
f 79//52 91//52 90//52
f 90//53 82//53 84//53
f 90//54 92//54 82//54
f 90//55 93//55 92//55
f 92//56 88//56 82//56
f 94//57 88//57 92//57
f 90//58 95//58 93//58
f 90//59 91//59 95//59
f 94//60 93//60 95//60
f 94//61 92//61 93//61
f 87//62 89//62 88//62
f 87//62 86//62 89//62
f 81//63 91//63 79//63
f 81//64 87//64 91//64
f 91//65 87//65 88//65
f 88//65 95//65 91//65
f 95//66 88//66 94//66
f 96//67 97//67 98//67
f 99//67 97//67 96//67
f 100//68 101//68 102//68
f 100//69 103//69 101//69
f 102//70 104//70 105//70
f 102//71 101//71 104//71
f 106//72 103//72 100//72
f 106//73 107//73 103//73
f 108//74 97//74 101//74
f 108//75 98//75 97//75
f 101//76 99//76 104//76
f 101//77 97//77 99//77
f 109//78 98//78 108//78
f 109//79 96//79 98//79
f 103//80 108//80 101//80
f 110//81 103//81 111//81
f 110//82 108//82 103//82
f 107//83 111//83 103//83
f 107//84 112//84 111//84
f 113//85 108//85 110//85
f 109//86 108//86 113//86
f 110//87 112//87 113//87
f 111//88 112//88 110//88
f 105//89 107//89 106//89
f 105//90 104//90 107//90
f 109//91 99//91 96//91
f 104//92 99//92 109//92
f 104//93 109//93 107//93
f 113//94 107//94 109//94
f 107//95 113//95 112//95
usemtl tex_65
f 10//96 11//96 12//96 13//96
f 14//97 15//97 11//97 10//97
f 16//98 17//98 15//98 14//98
f 18//99 19//99 20//99 21//99
f 22//100 23//100 19//100 18//100
f 13//101 12//101 23//101 22//101
f 21//102 20//102 24//102 25//102
f 26//103 27//103 28//103 29//103
f 30//104 31//104 27//104 26//104
f 32//105 33//105 34//105 35//105
f 29//106 28//106 36//106 37//106
f 38//107 39//107 33//107 32//107
f 40//108 41//108 39//108 38//108
f 37//109 36//109 41//109 40//109
f 42//110 43//110 44//110
f 44//111 43//111 45//111
f 46//112 43//112 47//112
f 47//113 43//113 42//113
f 45//114 43//114 48//114
f 48//115 43//115 49//115
f 49//116 43//116 50//116
f 50//117 43//117 46//117
f 35//118 34//118 31//118 30//118
f 25//119 24//119 17//119 16//119
usemtl rsc_f08838
f 123//120 124//120 125//120 126//120
f 135//121 136//121 137//121 138//121
f 124//122 117//122 120//122 125//122
f 118//123 117//123 141//123 142//123
f 133//124 114//124 144//124 143//124
f 128//125 134//125 143//125 146//125
f 140//126 129//126 147//126 145//126
f 142//127 121//127 118//127
f 148//128 149//128 116//128 115//128
f 150//129 120//129 119//129 151//129
f 152//130 151//130 119//130 122//130
f 153//131 126//131 125//131 154//131
f 130//132 131//132 157//132 158//132
f 135//133 138//133 160//133 161//133
f 127//134 156//134 159//134 132//134
f 131//135 135//135 161//135 157//135
f 139//136 130//136 158//136 162//136
f 154//137 163//137 164//137 153//137
f 150//138 166//138 163//138 154//138
f 157//139 170//139 171//139 158//139
f 156//140 172//140 167//140 159//140
f 158//141 171//141 173//141 162//141
f 161//142 175//142 170//142 157//142
f 162//140 173//140 155//140
f 178//143 179//143 180//143 181//143
f 182//144 183//144 180//144 179//144
f 184//145 185//145 186//145 187//145
f 191//146 192//146 193//146 194//146
f 195//147 196//147 197//147 198//147
f 185//148 191//148 194//148 186//148
f 179//149 178//149 200//149 201//149
f 169//150 168//150 167//150 172//150 173//150 171//150 170//150 175//150 174//150 164//150 163//150 166//150 165//150
f 186//151 194//151 202//151 204//151
f 189//125 199//125 205//125 203//125
f 194//152 193//152 202//152
f 199//153 187//153 207//153 205//153
f 196//154 206//154 197//154
f 201//155 182//155 179//155
f 208//156 209//156 177//156 176//156
f 210//157 181//157 180//157 211//157
f 188//158 190//158 215//158 216//158
f 191//159 217//159 218//159 192//159
f 185//160 214//160 217//160 191//160
f 190//161 195//161 219//161 215//161
f 215//162 223//162 224//162 216//162
f 218//163 221//163 222//163 208//163
f 214//164 225//164 221//164 217//164
f 219//165 226//165 223//165 215//165
f 213//166 227//166 225//166 214//166
f 211//167 212//167 220//167
f 234//168 235//168 236//168 237//168
f 240//169 241//169 242//169 243//169
f 244//170 245//170 246//170 247//170
f 248//171 249//171 250//171 251//171
f 252//172 238//172 239//172 253//172
f 250//173 234//173 237//173 251//173
f 243//174 242//174 249//174 248//174
f 246//175 245//175 229//175 228//175
f 247//176 246//176 254//176 255//176
f 228//177 230//177 256//177 257//177
f 246//178 228//178 257//178 254//178
f 253//179 239//179 259//179 258//179
f 262//180 232//180 231//180 263//180
f 264//181 263//181 231//181 233//181
f 265//182 237//182 236//182 266//182
f 240//183 243//183 269//183 270//183
f 243//184 248//184 274//184 269//184
f 262//185 277//185 275//185 266//185
f 271//127 278//127 279//127 272//127
f 260//186 280//186 281//186 261//186
f 261//187 281//187 284//187 264//187
f 265//188 276//188 283//188 273//188
f 267//189 285//189 282//189 268//189
f 274//190 273//190 283//190
f 286//191 287//191 288//191 289//191
f 290//192 291//192 292//192 293//192
f 300//193 301//193 302//193 303//193
f 301//194 308//194 311//194 302//194
f 297//195 290//195 293//195 298//195
f 315//196 300//196 303//196 316//196
f 313//197 296//197 299//197 314//197
f 310//198 309//198 287//198 286//198
f 306//199 305//199 321//199 322//199
f 302//58 311//58 319//58 323//58
f 310//200 286//200 318//200
f 289//201 294//201 324//201 320//201
f 303//58 302//58 323//58 325//58
f 294//202 291//202 317//202 324//202
f 326//203 327//203 288//203 287//203
f 330//204 329//204 292//204 295//204
f 300//205 332//205 333//205 301//205
f 304//206 307//206 334//206 335//206
f 307//207 312//207 339//207 334//207
f 327//208 330//208 295//208 288//208
f 315//209 304//209 335//209 340//209
f 329//210 343//210 344//210 328//210
f 328//211 344//211 341//211 331//211
f 336//212 345//212 346//212 337//212
f 334//213 349//213 350//213 335//213
f 338//214 353//214 354//214 339//214
f 327//215 348//215 343//215 330//215
f 339//216 354//216 349//216 334//216
f 329//217 330//217 343//217
f 364//218 365//218 366//218 367//218
f 368//219 369//219 370//219 371//219
f 372//220 373//220 374//220 375//220
f 376//221 377//221 378//221 379//221
f 365//222 358//222 361//222 366//222
f 382//223 383//223 373//223 372//223
f 378//224 377//224 357//224 356//224
f 365//225 364//225 384//225 385//225
f 341//226 344//226 343//226 348//226 347//226 346//226 345//226 351//226 355//226 352//226 350//226 349//226 354//226 353//226 342//226
f 374//227 373//227 391//227 392//227
f 383//140 371//140 398//140 394//140
f 362//228 359//228 387//228 397//228
f 399//229 361//229 360//229 400//229
f 401//131 400//131 360//131 363//131
f 368//230 404//230 405//230 369//230
f 372//231 375//231 406//231 407//231
f 380//232 381//232 410//232 411//232
f 369//233 405//233 408//233 376//233
f 403//234 366//234 361//234 399//234
f 382//235 412//235 404//235 368//235
f 410//232 381//232 367//232 402//232
f 403//236 413//236 414//236 402//236
f 400//237 415//237 416//237 399//237
f 408//67 417//67 418//67 409//67
f 406//238 419//238 420//238 407//238
f 389//239 397//239 387//239 386//239 385//239 384//239 396//239 395//239 392//239 391//239 394//239 398//239 393//239 388//239 390//239
f 407//240 420//240 421//240 412//240
f 412//240 421//240 423//240 404//240
f 411//241 422//241 419//241 406//241
