# Blender 4.0.2
# www.blender.org
mtllib 1_seedling.mtl
o herb_1_seedling
v 0.010000 -0.020000 0.028000
v 0.006000 -0.020000 0.092000
v 0.034000 -0.020000 0.080000
v 0.050000 -0.020000 0.064000
v -0.092000 -0.020000 0.008000
v -0.116000 -0.020000 0.058000
v -0.072000 -0.020000 0.028000
v -0.064000 -0.020000 0.010000
v 0.038000 -0.020000 0.014000
v 0.102000 -0.020000 0.064000
v 0.064000 -0.020000 0.010000
v 0.002000 -0.020000 0.150000
v 0.036000 -0.020000 0.124000
v -0.084000 -0.020000 0.088000
v -0.084000 -0.020000 0.152000
v -0.062000 -0.020000 0.120000
v -0.068000 -0.020000 0.078000
v 0.060000 -0.020000 0.098000
v 0.066000 -0.020000 0.146000
v 0.004000 -0.020000 0.204000
v 0.012000 -0.020000 -0.002000
v -0.034000 -0.020000 0.026000
v -0.030000 -0.020000 0.002000
v -0.040000 -0.020000 0.154000
v -0.038000 -0.020000 0.130000
v -0.042000 -0.020000 0.086000
v 0.012000 -0.020000 0.028000
v 0.052000 -0.020000 0.064000
v 0.036000 -0.020000 0.080000
v 0.058000 -0.020000 0.002000
v 0.038000 -0.020000 0.124000
v 0.004000 -0.020000 0.150000
v -0.066000 -0.020000 0.078000
v -0.032000 -0.020000 0.026000
v -0.044000 -0.020000 -0.002000
v -0.012000 -0.020000 0.028000
v -0.006000 -0.018000 0.092000
v -0.010000 -0.046000 0.080000
v -0.012000 -0.062000 0.062000
v 0.004000 0.084000 0.012000
v 0.004000 0.104000 0.064000
v -0.006000 0.062000 0.032000
v 0.004000 0.056000 0.014000
v 0.004000 -0.048000 0.012000
v 0.004000 -0.114000 0.062000
v 0.004000 -0.074000 0.008000
v -0.004000 -0.018000 0.150000
v -0.004000 -0.050000 0.122000
v 0.004000 0.072000 0.092000
v 0.004000 0.070000 0.156000
v 0.004000 0.050000 0.122000
v -0.008000 0.056000 0.082000
v 0.004000 -0.072000 0.096000
v 0.004000 -0.080000 0.144000
v 0.004000 -0.020000 -0.002000
v -0.014000 0.024000 0.028000
v 0.004000 0.022000 0.002000
v 0.004000 0.026000 0.156000
v 0.000000 0.024000 0.130000
v -0.006000 0.030000 0.088000
v 0.020000 -0.020000 0.028000
v 0.020000 -0.062000 0.062000
v 0.018000 -0.046000 0.080000
v 0.014000 -0.018000 0.092000
v 0.014000 0.062000 0.032000
v 0.004000 -0.068000 0.000000
v 0.012000 -0.050000 0.122000
v 0.012000 -0.018000 0.150000
v 0.016000 0.056000 0.082000
v 0.022000 0.024000 0.028000
v 0.008000 0.024000 0.130000
v 0.014000 0.030000 0.088000
v 0.004000 0.036000 0.000000
vn -0.0000 1.0000 -0.0000
vn -0.0000 -1.0000 -0.0000
vn 0.9935 -0.0816 -0.0790
vn 0.9478 -0.2300 0.2208
vn 0.9529 0.1831 0.2417
vn 0.9967 -0.0129 -0.0803
vn 0.9771 -0.1717 -0.1259
vn 0.8985 0.2755 -0.3418
vn 0.9533 -0.2804 -0.1122
vn 0.9340 0.3570 -0.0147
vn 0.9791 0.1406 -0.1469
vn 0.8758 0.2730 0.3981
vn 0.8065 -0.2122 0.5518
vn 0.9971 -0.0620 -0.0437
vn 0.9689 -0.0984 -0.2271
vn 0.9940 -0.0949 -0.0542
vn 0.8547 -0.0043 0.5191
vn 0.9766 -0.1576 -0.1465
vn 0.9943 -0.0665 -0.0835
vn 0.9934 0.0167 -0.1132
vn -0.9935 -0.0816 -0.0790
vn -0.9478 -0.2300 0.2208
vn -0.9529 0.1831 0.2417
vn -1.0000 -0.0000 -0.0000
vn -0.9967 -0.0129 -0.0803
vn -0.9771 -0.1717 -0.1259
vn -0.8985 0.2755 -0.3418
vn -0.9533 -0.2804 -0.1122
vn -0.9340 0.3570 -0.0147
vn -0.9791 0.1406 -0.1469
vn -0.8758 0.2730 0.3981
vn -0.8065 -0.2122 0.5518
vn -0.9971 -0.0620 -0.0437
vn -0.9689 -0.0984 -0.2271
vn -0.9940 -0.0949 -0.0542
vn -0.8547 -0.0043 0.5191
vn -0.9766 -0.1576 -0.1465
vn -0.9943 -0.0665 -0.0835
vn 1.0000 -0.0000 -0.0000
vn -0.9934 0.0167 -0.1132
s 0
usemtl rsc_209828
f 1//1 2//1 3//1 4//1
f 5//1 6//1 7//1 8//1
f 9//1 4//1 10//1 11//1
f 2//1 12//1 13//1 3//1
f 14//1 15//1 16//1 17//1
f 4//1 3//1 18//1 10//1
f 6//1 14//1 17//1 7//1
f 3//1 13//1 19//1 18//1
f 12//1 20//1 19//1 13//1
f 21//1 1//1 4//1 9//1
f 8//1 7//1 22//1 23//1
f 16//1 15//1 24//1 25//1
f 17//1 16//1 25//1 26//1
f 7//1 17//1 26//1 22//1
f 23//1 22//1 1//1 21//1
f 25//1 24//1 20//1 12//1
f 26//1 25//1 12//1 2//1
f 22//1 26//1 2//1 1//1
f 27//2 28//2 29//2 2//2
f 5//2 8//2 7//2 6//2
f 9//2 11//2 10//2 28//2
f 30//2 11//2 9//2 21//2
f 2//2 29//2 31//2 32//2
f 14//2 33//2 16//2 15//2
f 28//2 10//2 18//2 29//2
f 6//2 7//2 33//2 14//2
f 29//2 18//2 19//2 31//2
f 32//2 31//2 19//2 20//2
f 21//2 9//2 28//2 27//2
f 8//2 23//2 34//2 7//2
f 16//2 25//2 24//2 15//2
f 33//2 26//2 25//2 16//2
f 5//2 35//2 23//2 8//2
f 7//2 34//2 26//2 33//2
f 23//2 21//2 27//2 34//2
f 25//2 32//2 20//2 24//2
f 26//2 2//2 32//2 25//2
f 35//1 30//1 21//1 23//1
f 34//2 27//2 2//2 26//2
f 36//3 37//3 38//3 39//3
f 40//4 41//4 42//4 43//4
f 44//5 39//5 45//5 46//5
f 37//6 47//6 48//6 38//6
f 49//7 50//7 51//7 52//7
f 39//8 38//8 53//8 45//8
f 41//9 49//9 52//9 42//9
f 38//10 48//10 54//10 53//10
f 47//11 20//11 54//11 48//11
f 55//12 36//12 39//12 44//12
f 43//13 42//13 56//13 57//13
f 51//14 50//14 58//14 59//14
f 52//15 51//15 59//15 60//15
f 42//16 52//16 60//16 56//16
f 57//17 56//17 36//17 55//17
f 59//18 58//18 20//18 47//18
f 60//19 59//19 47//19 37//19
f 56//20 60//20 37//20 36//20
f 61//21 62//21 63//21 64//21
f 40//22 43//22 65//22 41//22
f 44//23 46//23 45//23 62//23
f 66//24 46//24 44//24 55//24
f 64//25 63//25 67//25 68//25
f 49//26 69//26 51//26 50//26
f 62//27 45//27 53//27 63//27
f 41//28 65//28 69//28 49//28
f 63//29 53//29 54//29 67//29
f 68//30 67//30 54//30 20//30
f 55//31 44//31 62//31 61//31
f 43//32 57//32 70//32 65//32
f 51//33 71//33 58//33 50//33
f 69//34 72//34 71//34 51//34
f 40//24 73//24 57//24 43//24
f 65//35 70//35 72//35 69//35
f 57//36 55//36 61//36 70//36
f 71//37 68//37 20//37 58//37
f 72//38 64//38 68//38 71//38
f 73//39 66//39 55//39 57//39
f 70//40 61//40 64//40 72//40
