# Blender 4.0.2
# www.blender.org
mtllib 3_growing.mtl
o herb_3_growing
v 0.035000 -0.070000 0.098000
v 0.021000 -0.070000 0.322000
v 0.119000 -0.070000 0.280000
v 0.175000 -0.070000 0.224000
v -0.322000 -0.070000 0.028000
v -0.406000 -0.070000 0.203000
v -0.252000 -0.070000 0.098000
v -0.224000 -0.070000 0.035000
v 0.133000 -0.070000 0.049000
v 0.357000 -0.070000 0.224000
v 0.224000 -0.070000 0.035000
v 0.007000 -0.070000 0.525000
v 0.126000 -0.070000 0.434000
v -0.294000 -0.070000 0.308000
v -0.294000 -0.070000 0.532000
v -0.217000 -0.070000 0.420000
v -0.238000 -0.070000 0.273000
v 0.210000 -0.070000 0.343000
v 0.231000 -0.070000 0.511000
v 0.014000 -0.070000 0.714000
v 0.042000 -0.070000 -0.007000
v -0.119000 -0.070000 0.091000
v -0.105000 -0.070000 0.007000
v -0.140000 -0.070000 0.539000
v -0.133000 -0.070000 0.455000
v -0.147000 -0.070000 0.301000
v 0.042000 -0.070000 0.098000
v 0.182000 -0.070000 0.224000
v 0.126000 -0.070000 0.280000
v 0.203000 -0.070000 0.007000
v 0.133000 -0.070000 0.434000
v 0.014000 -0.070000 0.525000
v -0.231000 -0.070000 0.273000
v -0.112000 -0.070000 0.091000
v -0.154000 -0.070000 -0.007000
v -0.042000 -0.070000 0.098000
v -0.021000 -0.063000 0.322000
v -0.035000 -0.161000 0.280000
v -0.042000 -0.217000 0.217000
v 0.014000 0.294000 0.042000
v 0.014000 0.364000 0.224000
v -0.021000 0.217000 0.112000
v 0.014000 0.196000 0.049000
v 0.014000 -0.168000 0.042000
v 0.014000 -0.399000 0.217000
v 0.014000 -0.259000 0.028000
v -0.014000 -0.063000 0.525000
v -0.014000 -0.175000 0.427000
v 0.014000 0.252000 0.322000
v 0.014000 0.245000 0.546000
v 0.014000 0.175000 0.427000
v -0.028000 0.196000 0.287000
v 0.014000 -0.252000 0.336000
v 0.014000 -0.280000 0.504000
v 0.014000 -0.070000 -0.007000
v -0.049000 0.084000 0.098000
v 0.014000 0.077000 0.007000
v 0.014000 0.091000 0.546000
v 0.000000 0.084000 0.455000
v -0.021000 0.105000 0.308000
v 0.070000 -0.070000 0.098000
v 0.070000 -0.217000 0.217000
v 0.063000 -0.161000 0.280000
v 0.049000 -0.063000 0.322000
v 0.049000 0.217000 0.112000
v 0.014000 -0.238000 0.000000
v 0.042000 -0.175000 0.427000
v 0.042000 -0.063000 0.525000
v 0.056000 0.196000 0.287000
v 0.077000 0.084000 0.098000
v 0.028000 0.084000 0.455000
v 0.049000 0.105000 0.308000
v 0.014000 0.126000 0.000000
vn -0.0000 1.0000 -0.0000
vn -0.0000 -1.0000 -0.0000
vn -0.0000 0.0624 0.9981
vn 0.9935 -0.0816 -0.0790
vn 0.9478 -0.2300 0.2208
vn 0.9529 0.1831 0.2417
vn 0.9967 -0.0129 -0.0803
vn 0.9771 -0.1717 -0.1259
vn 0.8985 0.2755 -0.3418
vn 0.9533 -0.2804 -0.1122
vn 0.9340 0.3570 -0.0147
vn 0.9791 0.1406 -0.1469
vn 0.8758 0.2730 0.3981
vn 0.8065 -0.2122 0.5518
vn 0.9971 -0.0620 -0.0437
vn 0.9689 -0.0984 -0.2271
vn 0.9940 -0.0949 -0.0542
vn 0.8547 -0.0043 0.5191
vn 0.9766 -0.1576 -0.1465
vn 0.9943 -0.0665 -0.0835
vn 0.9934 0.0167 -0.1132
vn -0.9935 -0.0816 -0.0790
vn -0.9478 -0.2300 0.2208
vn -0.9529 0.1831 0.2417
vn -1.0000 -0.0000 -0.0000
vn -0.9967 -0.0129 -0.0803
vn -0.9771 -0.1717 -0.1259
vn -0.8985 0.2755 -0.3418
vn -0.9533 -0.2804 -0.1122
vn -0.9340 0.3570 -0.0147
vn -0.9791 0.1406 -0.1469
vn -0.8758 0.2730 0.3981
vn -0.8065 -0.2122 0.5518
vn -0.9971 -0.0620 -0.0437
vn -0.9689 -0.0984 -0.2271
vn -0.9940 -0.0949 -0.0542
vn -0.8547 -0.0043 0.5191
vn -0.9766 -0.1576 -0.1465
vn -0.9943 -0.0665 -0.0835
vn 1.0000 -0.0000 -0.0000
vn -0.9934 0.0167 -0.1132
s 0
usemtl rsc_209828
f 1//1 2//1 3//1 4//1
f 5//1 6//1 7//1 8//1
f 9//1 4//1 10//1 11//1
f 2//1 12//1 13//1 3//1
f 14//1 15//1 16//1 17//1
f 4//1 3//1 18//1 10//1
f 6//1 14//1 17//1 7//1
f 3//1 13//1 19//1 18//1
f 12//1 20//1 19//1 13//1
f 21//1 1//1 4//1 9//1
f 8//1 7//1 22//1 23//1
f 16//1 15//1 24//1 25//1
f 17//1 16//1 25//1 26//1
f 7//1 17//1 26//1 22//1
f 23//1 22//1 1//1 21//1
f 25//1 24//1 20//1 12//1
f 26//1 25//1 12//1 2//1
f 22//1 26//1 2//1 1//1
f 27//2 28//2 29//2 2//2
f 5//2 8//2 7//2 6//2
f 9//2 11//2 10//2 28//2
f 30//2 11//2 9//2 21//2
f 2//2 29//2 31//2 32//2
f 14//2 33//2 16//2 15//2
f 28//2 10//2 18//2 29//2
f 6//2 7//2 33//2 14//2
f 29//2 18//2 19//2 31//2
f 32//2 31//2 19//2 20//2
f 21//2 9//2 28//2 27//2
f 8//2 23//2 34//2 7//2
f 16//2 25//2 24//2 15//2
f 33//2 26//2 25//2 16//2
f 5//2 35//2 23//2 8//2
f 7//2 34//2 26//2 33//2
f 23//2 21//2 27//2 34//2
f 25//2 32//2 20//2 24//2
f 26//2 2//2 32//2 25//2
f 35//3 30//3 21//3 23//3
f 34//2 27//2 2//2 26//2
f 36//4 37//4 38//4 39//4
f 40//5 41//5 42//5 43//5
f 44//6 39//6 45//6 46//6
f 37//7 47//7 48//7 38//7
f 49//8 50//8 51//8 52//8
f 39//9 38//9 53//9 45//9
f 41//10 49//10 52//10 42//10
f 38//11 48//11 54//11 53//11
f 47//12 20//12 54//12 48//12
f 55//13 36//13 39//13 44//13
f 43//14 42//14 56//14 57//14
f 51//15 50//15 58//15 59//15
f 52//16 51//16 59//16 60//16
f 42//17 52//17 60//17 56//17
f 57//18 56//18 36//18 55//18
f 59//19 58//19 20//19 47//19
f 60//20 59//20 47//20 37//20
f 56//21 60//21 37//21 36//21
f 61//22 62//22 63//22 64//22
f 40//23 43//23 65//23 41//23
f 44//24 46//24 45//24 62//24
f 66//25 46//25 44//25 55//25
f 64//26 63//26 67//26 68//26
f 49//27 69//27 51//27 50//27
f 62//28 45//28 53//28 63//28
f 41//29 65//29 69//29 49//29
f 63//30 53//30 54//30 67//30
f 68//31 67//31 54//31 20//31
f 55//32 44//32 62//32 61//32
f 43//33 57//33 70//33 65//33
f 51//34 71//34 58//34 50//34
f 69//35 72//35 71//35 51//35
f 40//25 73//25 57//25 43//25
f 65//36 70//36 72//36 69//36
f 57//37 55//37 61//37 70//37
f 71//38 68//38 20//38 58//38
f 72//39 64//39 68//39 71//39
f 73//40 66//40 55//40 57//40
f 70//41 61//41 64//41 72//41
