# OGRS RSC model extracted from .ob3
# vertices: 78  faces: 78
mtllib 4_mature.mtl

o herb
v 0.05 -0.1 0.14
v 0.03 -0.1 0.46
v 0.17 -0.1 0.4
v 0.25 -0.1 0.32
v -0.46 -0.1 0.04
v -0.58 -0.1 0.29
v -0.36 -0.1 0.14
v -0.32 -0.1 0.05
v 0.19 -0.1 0.07
v 0.51 -0.1 0.32
v 0.32 -0.1 0.05
v 0.01 -0.1 0.75
v 0.18 -0.1 0.62
v -0.42 -0.1 0.44
v -0.42 -0.1 0.76
v -0.31 -0.1 0.6
v -0.34 -0.1 0.39
v 0.3 -0.1 0.49
v 0.33 -0.1 0.73
v 0.02 -0.1 1.02
v 0.06 -0.1 -0.01
v -0.17 -0.1 0.13
v -0.15 -0.1 0.01
v -0.2 -0.1 0.77
v -0.19 -0.1 0.65
v -0.21 -0.1 0.43
v 0.06 -0.1 0.14
v 0.26 -0.1 0.32
v 0.18 -0.1 0.4
v 0.29 -0.1 0.01
v 0.19 -0.1 0.62
v 0.02 -0.1 0.75
v -0.33 -0.1 0.39
v -0.16 -0.1 0.13
v -0.22 -0.1 -0.01
v -0.06 -0.1 0.14
v -0.03 -0.09 0.46
v -0.05 -0.23 0.4
v -0.06 -0.31 0.31
v 0.02 0.42 0.06
v 0.02 0.52 0.32
v -0.03 0.31 0.16
v 0.02 0.28 0.07
v 0.02 -0.24 0.06
v 0.02 -0.5700000000000001 0.31
v 0.02 -0.37 0.04
v -0.02 -0.09 0.75
v -0.02 -0.25 0.61
v 0.02 0.36 0.46
v 0.02 0.35000000000000003 0.78
v 0.02 0.25 0.61
v -0.04 0.28 0.41000000000000003
v 0.02 -0.36 0.48
v 0.02 -0.4 0.72
v 0.02 -0.1 -0.01
v -0.07 0.12 0.14
v 0.02 0.11 0.01
v 0.02 0.13 0.78
v 0.0 0.12 0.65
v -0.03 0.15 0.44
v 0.1 -0.1 0.14
v 0.1 -0.31 0.31
v 0.09 -0.23 0.4
v 0.07 -0.09 0.46
v 0.07 0.31 0.16
v 0.02 -0.34 0.0
v 0.06 -0.25 0.61
v 0.06 -0.09 0.75
v 0.08 0.28 0.41000000000000003
v 0.11 0.12 0.14
v 0.04 0.12 0.65
v 0.07 0.15 0.44
v 0.02 0.18 0.0
v 0.0 0.0 0.0
v 0.0 0.0 0.0
v 0.0 0.0 0.0
v 0.0 0.0 0.0
v 0.0 0.0 0.0

usemtl rsc_209828
f 1 2 3 4
f 5 6 7 8
f 9 4 10 11
f 2 12 13 3
f 14 15 16 17
f 4 3 18 10
f 6 14 17 7
f 3 13 19 18
f 12 20 19 13
f 21 1 4 9
f 8 7 22 23
f 16 15 24 25
f 17 16 25 26
f 7 17 26 22
f 23 22 1 21
f 25 24 20 12
f 26 25 12 2
f 22 26 2 1
f 27 28 29 2
f 5 8 7 6
f 9 11 10 28
f 30 11 9 21
f 2 29 31 32
f 14 33 16 15
f 28 10 18 29
f 6 7 33 14
f 29 18 19 31
f 32 31 19 20
f 21 9 28 27
f 8 23 34 7
f 16 25 24 15
f 33 26 25 16
f 5 35 23 8
f 7 34 26 33
f 23 21 27 34
f 25 32 20 24
f 26 2 32 25
f 35 30 21 23
f 34 27 2 26
f 36 37 38 39
f 40 41 42 43
f 44 39 45 46
f 37 47 48 38
f 49 50 51 52
f 39 38 53 45
f 41 49 52 42
f 38 48 54 53
f 47 20 54 48
f 55 36 39 44
f 43 42 56 57
f 51 50 58 59
f 52 51 59 60
f 42 52 60 56
f 57 56 36 55
f 59 58 20 47
f 60 59 47 37
f 56 60 37 36
f 61 62 63 64
f 40 43 65 41
f 44 46 45 62
f 66 46 44 55
f 64 63 67 68
f 49 69 51 50
f 62 45 53 63
f 41 65 69 49
f 63 53 54 67
f 68 67 54 20
f 55 44 62 61
f 43 57 70 65
f 51 71 58 50
f 69 72 71 51
f 40 73 57 43
f 65 70 72 69
f 57 55 61 70
f 71 68 20 58
f 72 64 68 71
f 73 66 55 57
f 70 61 64 72
