# Blender 4.0.2
# www.blender.org
mtllib stage_1.mtl
o cabbage_green_stage1
v -0.030000 0.000000 0.042500
v -0.035000 -0.022500 0.030000
v -0.040000 0.002500 0.030000
v 0.015000 0.035000 0.030000
v 0.000000 0.042500 0.017500
v 0.000000 0.035000 0.030000
v 0.042500 0.025000 0.000000
v 0.047500 0.005000 0.017500
v 0.042500 0.025000 0.017500
v 0.022500 0.040000 0.017500
v 0.050000 0.002500 0.000000
v -0.000000 -0.042500 0.027500
v -0.022500 -0.040000 0.012500
v -0.000000 -0.047500 0.015000
v -0.042500 -0.022500 0.015000
v -0.047500 0.000000 0.017500
v -0.032500 0.022500 0.030000
v -0.022500 0.040000 0.017500
v -0.015000 0.035000 0.030000
v -0.020000 -0.035000 0.030000
v -0.040000 0.025000 0.017500
v -0.000000 -0.045000 0.000000
v -0.042500 0.025000 0.000000
v -0.025000 -0.037500 0.000000
v 0.000000 0.042500 0.000000
v -0.025000 0.035000 0.000000
v -0.050000 0.002500 0.000000
v -0.027500 0.017500 0.040000
v -0.017500 -0.027500 0.040000
v -0.012500 0.027500 0.040000
v -0.000000 -0.032500 0.040000
v -0.002500 -0.007500 0.050000
v -0.000000 -0.010000 0.050000
v -0.005000 -0.007500 0.050000
v -0.007500 -0.002500 0.050000
v -0.007500 0.002500 0.050000
v -0.002500 0.005000 0.050000
v 0.000000 0.007500 0.050000
v 0.025000 -0.040000 0.015000
v 0.025000 -0.035000 0.030000
v 0.040000 0.002500 0.030000
v 0.045000 -0.022500 0.015000
v 0.037500 -0.022500 0.030000
v 0.032500 0.022500 0.030000
v 0.025000 -0.037500 0.000000
v 0.027500 0.035000 0.000000
v 0.027500 0.017500 0.040000
v 0.032500 -0.000000 0.042500
v 0.017500 -0.027500 0.040000
v 0.027500 -0.017500 0.045000
v 0.012500 0.027500 0.040000
v 0.000000 0.030000 0.040000
v 0.002500 -0.007500 0.050000
v 0.007500 -0.002500 0.050000
v 0.005000 -0.007500 0.050000
v 0.007500 0.002500 0.050000
v 0.005000 0.005000 0.050000
v -0.035000 -0.060000 0.017500
v -0.060000 -0.052500 0.032500
v -0.060000 -0.037500 0.020000
v -0.005000 -0.077500 0.020000
v -0.045000 -0.082500 0.025000
v 0.035000 -0.057500 0.015000
v 0.062500 -0.050000 0.025000
v 0.045000 -0.077500 0.035000
v 0.015000 -0.075000 0.025000
v -0.000000 -0.062500 0.017500
v 0.065000 0.002500 0.012500
v 0.070000 0.030000 0.025000
v 0.055000 0.030000 0.015000
v 0.070000 -0.025000 0.022500
v 0.085000 0.005000 0.037500
v 0.030000 0.052500 0.015000
v 0.005000 0.070000 0.025000
v 0.035000 0.062500 0.035000
v 0.055000 0.047500 0.030000
v -0.025000 0.062500 0.015000
v -0.005000 0.070000 0.030000
v 0.000000 0.057500 0.015000
v -0.055000 0.050000 0.027500
v -0.055000 0.035000 0.015000
v -0.072500 0.002500 0.012500
v -0.070000 0.025000 0.030000
v -0.087500 0.002500 0.040000
v -0.072500 -0.022500 0.027500
v -0.057500 -0.027500 0.017500
v -0.042500 -0.052500 0.000000
v -0.025000 -0.080000 0.015000
v -0.000000 -0.062500 0.002500
v -0.077500 -0.062500 0.022500
v -0.065000 -0.075000 0.022500
v -0.060000 -0.037500 0.000000
v -0.082500 -0.010000 0.017500
v -0.067500 0.002500 0.005000
v 0.040000 -0.055000 -0.002500
v 0.005000 -0.087500 0.015000
v 0.055000 -0.072500 0.012500
v 0.072500 -0.057500 0.012500
v 0.057500 -0.040000 -0.002500
v 0.080000 -0.017500 0.012500
v 0.062500 0.042500 0.002500
v 0.085000 0.022500 0.012500
v 0.075000 0.002500 0.007500
v 0.045000 0.055000 0.000000
v 0.005000 0.080000 0.005000
v 0.002500 0.065000 0.000000
v 0.062500 0.072500 0.020000
v 0.077500 0.062500 0.020000
v -0.062500 0.040000 0.000000
v -0.087500 0.012500 0.025000
v -0.085000 0.057500 0.030000
v -0.047500 0.052500 0.000000
v -0.017500 0.082500 0.012500
v -0.070000 0.072500 0.030000
v 0.042500 -0.022500 0.000000
v 0.067500 -0.000000 0.007500
v -0.000000 -0.065000 0.002500
v -0.042500 -0.022500 0.000000
v -0.002500 0.065000 0.000000
v -0.067500 0.002500 0.002500
v -0.057500 0.035000 0.015000
v -0.000000 -0.067500 0.010000
v 0.055000 -0.030000 0.017500
v 0.052500 0.037500 0.015000
v 0.022500 -0.045000 0.032500
v -0.022500 -0.045000 0.032500
v 0.002500 -0.057500 0.037500
v 0.037500 -0.040000 0.035000
v 0.055000 -0.032500 0.037500
v 0.052500 -0.002500 0.037500
v 0.052500 0.010000 0.035000
v 0.027500 0.042500 0.035000
v 0.050000 0.032500 0.035000
v 0.020000 0.047500 0.032500
v 0.002500 0.057500 0.032500
v -0.012500 0.047500 0.032500
v -0.050000 0.012500 0.032500
v -0.045000 0.040000 0.035000
v -0.020000 0.047500 0.032500
v -0.030000 -0.040000 0.035000
v -0.047500 -0.005000 0.035000
v -0.027500 -0.017500 0.040000
v 0.057500 -0.027500 0.012500
v 0.000000 0.060000 0.017500
v -0.030000 0.075000 0.035000
v -0.055000 -0.027500 0.037500
vn 0.7863 0.1573 -0.5976
vn -0.0000 0.8575 0.5145
vn -0.9701 -0.2425 -0.0000
vn 0.1002 0.9016 0.4208
vn -0.9448 -0.3149 -0.0900
vn -0.3310 -0.8761 0.3505
vn 0.8107 0.2395 -0.5343
vn 0.4819 -0.6747 -0.5590
vn -0.1002 0.9016 0.4208
vn -0.6113 -0.7336 0.2969
vn 0.7915 -0.2968 -0.5343
vn -0.2966 -0.9420 -0.1570
vn 0.9490 -0.2847 -0.1356
vn -0.6597 -0.7513 -0.0183
vn -0.2799 0.9329 -0.2266
vn 0.6458 -0.7535 0.1230
vn 0.9681 0.2269 -0.1059
vn 0.7873 -0.2952 -0.5413
vn -0.5155 -0.6186 0.5929
vn -0.0000 0.8000 0.6000
vn 0.4411 -0.6616 -0.6064
vn -0.2100 -0.7635 0.6108
vn -0.3763 -0.3763 0.8466
vn 0.3283 0.1642 -0.9302
vn 0.1684 -0.3369 -0.9264
vn -0.2821 0.2821 0.9169
vn -0.0000 -0.4472 0.8944
vn 0.3290 -0.1794 -0.9271
vn 0.2453 -0.9197 0.3066
vn -0.8909 0.0891 -0.4454
vn -0.4819 -0.6747 -0.5590
vn 0.6882 -0.6882 0.2294
vn -0.7915 -0.2968 -0.5343
vn 0.2838 -0.9459 -0.1576
vn 0.6534 -0.7467 -0.1245
vn 0.1104 0.9939 -0.0000
vn -0.5990 -0.7987 0.0570
vn -0.9825 0.1034 -0.1551
vn -0.7896 -0.3019 -0.5342
vn 0.4472 -0.7155 0.5367
vn 0.1761 0.8805 0.4402
vn -0.4411 -0.6616 -0.6064
vn -0.8592 0.1769 -0.4801
vn 0.2015 -0.7051 0.6799
vn 0.3763 -0.3763 0.8466
vn -0.1782 0.0891 -0.9800
vn -0.3015 -0.3015 -0.9045
vn 0.1752 0.3505 0.9200
vn -0.2873 -0.0000 -0.9578
vn -0.0000 -0.0000 1.0000
vn -0.5467 -0.5360 -0.6432
vn -0.0843 -0.2812 -0.9559
vn 0.4137 -0.5319 -0.7388
vn 0.0105 -0.5052 -0.8630
vn -0.5345 -0.2673 0.8018
vn -0.7822 0.0823 0.6175
vn 0.3613 0.7948 -0.4877
vn -0.4428 -0.7528 0.4871
vn 0.1568 0.7838 -0.6009
vn 0.5061 -0.5521 0.6626
vn 0.7945 -0.4254 0.4334
vn 0.5965 0.4129 0.6882
vn 0.1859 -0.0676 0.9802
vn -0.1947 0.0144 0.9808
vn -0.2288 -0.0991 -0.9684
vn -0.2011 -0.0905 -0.9754
vn 0.0493 -0.1642 -0.9852
vn 0.0698 0.0399 -0.9968
vn 0.2584 -0.1107 0.9597
vn 0.1787 0.0447 0.9829
vn 0.0939 0.1408 0.9856
vn -0.0205 -0.1842 -0.9827
vn -0.0928 0.1083 0.9898
vn 0.0183 -0.1644 -0.9862
vn -0.1784 0.2804 0.9432
vn 0.1188 0.5644 0.8169
vn -0.2472 0.2662 0.9317
vn 0.4101 0.0342 -0.9114
vn 0.3083 0.1156 -0.9442
vn 0.1195 0.2688 -0.9558
vn -0.0593 -0.1037 0.9928
vn -0.0000 -0.1961 0.9806
vn -0.2107 0.1264 -0.9693
vn -0.1091 0.1528 -0.9822
vn 0.2808 0.3370 0.8986
vn -0.4834 -0.0967 -0.8701
vn -0.3015 -0.9045 0.3015
vn 0.8805 0.1761 -0.4402
vn 0.5721 -0.6674 -0.4767
vn -0.6058 -0.7357 0.3029
vn 0.8508 -0.2552 -0.4594
vn -0.2848 -0.9493 -0.1329
vn 0.9336 -0.3112 -0.1778
vn -0.6508 -0.7593 -0.0000
vn -0.1104 0.9939 -0.0000
vn 0.4949 -0.8661 -0.0707
vn 0.9578 0.2873 -0.0000
vn 0.7459 -0.1974 -0.6362
vn -0.5298 -0.5298 0.6623
vn -0.1761 0.8805 0.4402
vn 0.4767 -0.6674 -0.5721
vn 0.7342 0.1977 -0.6495
vn -0.2156 -0.7546 0.6198
vn -0.1081 -0.3785 0.9193
vn 0.3317 0.1797 -0.9261
vn 0.2166 -0.3249 -0.9206
vn -0.0810 0.4048 0.9108
vn -0.2821 -0.2821 0.9169
vn 0.3162 -0.0000 -0.9487
vn 0.2683 -0.8944 0.3578
vn -0.8616 0.1231 -0.4924
vn -0.5054 -0.6738 -0.5391
vn 0.6255 -0.7148 0.3127
vn -0.7485 -0.1871 -0.6362
vn 0.6470 -0.7548 -0.1078
vn 0.2580 0.9459 -0.1966
vn -0.5547 -0.8321 -0.0000
vn -0.9459 0.2838 0.1576
vn -0.7873 -0.2952 -0.5413
vn 0.4851 -0.4851 0.7276
vn -0.4767 -0.6674 -0.5721
vn -0.8165 0.0816 -0.5715
vn 0.1693 -0.7696 0.6157
vn 0.1081 -0.3785 0.9193
vn -0.2817 -0.0563 -0.9578
vn -0.2166 -0.3249 -0.9206
vn 0.0810 0.4048 0.9108
vn -0.3004 -0.2185 -0.9285
vn -0.0000 -0.0000 -1.0000
vn -0.5248 -0.0500 -0.8497
vn -0.2885 -0.6011 -0.7453
vn 0.3818 -0.1956 -0.9033
vn 0.1931 -0.6438 -0.7404
vn -0.7654 -0.1458 0.6269
vn -0.6359 0.1590 0.7552
vn 0.0755 0.5739 -0.8155
vn -0.4657 -0.6985 0.5433
vn 0.0674 0.8536 -0.5166
vn 0.5057 -0.6691 0.5446
vn 0.8165 -0.4082 0.4082
vn 0.8438 0.2761 0.4602
vn -0.1890 0.0687 0.9796
vn -0.1210 0.0363 0.9920
vn 0.1854 0.2383 -0.9533
vn -0.2023 -0.1167 -0.9724
vn -0.0658 -0.0376 -0.9971
vn 0.1319 -0.1507 -0.9797
vn 0.1787 -0.0447 0.9829
vn 0.2764 0.0132 0.9609
vn 0.0926 0.1235 0.9880
vn -0.0830 -0.0000 -0.9965
vn -0.0916 0.0999 0.9908
vn -0.0226 -0.1129 -0.9934
vn -0.1260 0.5356 0.8350
vn 0.1925 0.1924 0.9623
vn -0.2649 0.2649 0.9272
vn 0.4991 -0.0499 -0.8651
vn 0.2593 0.0288 -0.9654
vn 0.2036 0.2851 -0.9366
vn 0.0792 -0.1188 0.9898
vn -0.1785 0.0669 -0.9817
vn -0.1489 0.1718 -0.9738
vn 0.2571 0.3327 0.9073
vn -0.3542 0.0142 -0.9351
vn 0.0700 0.5116 0.8563
vn 0.4082 0.4082 0.8165
vn -0.6297 -0.0210 -0.7766
vn -0.1328 0.5770 0.8059
vn -0.3550 0.4141 0.8381
vn 0.6299 -0.1181 -0.7677
vn 0.4190 0.0175 -0.9078
vn -0.0717 -0.3046 0.9498
vn 0.3184 0.4776 -0.8188
vn -0.7620 0.1132 -0.6376
vn 0.3503 -0.6366 0.6871
vn -0.4544 0.5453 -0.7044
vn 0.1336 -0.0111 -0.9910
vn 0.2860 0.0953 -0.9535
vn 0.0940 0.2193 -0.9711
vn 0.0702 -0.0819 0.9942
vn 0.1312 -0.0291 0.9909
vn -0.2738 -0.0821 -0.9583
vn 0.0424 0.1413 0.9891
vn -0.0453 -0.0604 -0.9971
vn 0.2197 0.5712 0.7909
vn 0.3874 0.4520 0.8035
vn -0.7049 -0.1335 -0.6966
vn -0.0115 0.4837 0.8752
vn 0.4834 0.0967 -0.8701
vn 0.5720 0.2535 -0.7801
vn -0.2749 -0.5914 0.7580
vn 0.4351 0.4537 -0.7777
vn -0.7346 0.0528 -0.6765
vn 0.1375 -0.4950 0.8580
vn -0.5145 0.5145 -0.6860
vn 0.1806 -0.0662 -0.9813
vn 0.3777 -0.1133 -0.9190
vn -0.0372 0.1239 0.9916
vn -0.0914 0.1066 -0.9901
vn -0.0460 0.0537 0.9975
vn -0.1413 0.0471 -0.9889
s 0
usemtl rsc_209058
f 1//1 2//1 3//1
f 4//2 5//2 6//2
f 7//3 8//3 9//3
f 4//4 10//4 5//4
f 7//5 11//5 8//5
f 12//6 13//6 14//6
f 3//7 15//7 16//7
f 17//8 18//8 19//8
f 19//9 5//9 18//9
f 2//10 13//10 20//10
f 3//11 21//11 17//11
f 13//12 22//12 14//12
f 16//13 23//13 21//13
f 15//14 24//14 13//14
f 18//15 25//15 26//15
f 21//16 26//16 18//16
f 15//17 27//17 16//17
f 28//18 3//18 17//18
f 29//19 2//19 20//19
f 30//20 6//20 19//20
f 28//21 19//21 30//21
f 31//22 20//22 12//22
f 32//23 31//23 33//23
f 34//24 1//24 35//24
f 36//25 30//25 37//25
f 38//26 30//26 37//26
f 34//27 29//27 32//27
f 36//28 1//28 28//28
f 12//29 39//29 40//29
f 41//30 42//30 43//30
f 10//31 44//31 4//31
f 39//32 43//32 40//32
f 44//33 8//33 41//33
f 22//34 39//34 14//34
f 45//35 42//35 39//35
f 10//36 25//36 5//36
f 46//37 9//37 10//37
f 11//38 42//38 8//38
f 47//39 41//39 48//39
f 49//40 43//40 50//40
f 51//41 6//41 52//41
f 4//42 47//42 51//42
f 41//43 50//43 48//43
f 31//44 40//44 49//44
f 31//45 53//45 33//45
f 54//46 50//46 55//46
f 51//47 56//47 57//47
f 51//48 38//48 57//48
f 53//27 50//27 55//27
f 56//49 48//49 54//49
f 54//50 57//50 35//50
f 58//51 59//51 60//51
f 58//52 61//52 62//52
f 63//53 64//53 65//53
f 63//54 66//54 67//54
f 68//55 69//55 70//55
f 68//56 71//56 72//56
f 73//57 74//57 75//57
f 73//58 76//58 75//58
f 77//59 78//59 79//59
f 77//60 80//60 81//60
f 82//61 83//61 84//61
f 82//62 85//62 86//62
f 16//63 86//63 15//63
f 16//64 121//64 82//64
f 13//65 122//65 58//65
f 13//66 60//66 15//66
f 39//67 67//67 14//67
f 39//68 123//68 63//68
f 42//69 68//69 8//69
f 8//70 70//70 9//70
f 10//71 124//71 73//71
f 5//72 73//72 10//72
f 18//73 81//73 21//73
f 18//74 79//74 5//74
f 12//75 125//75 40//75
f 12//76 126//76 127//76
f 43//77 128//77 129//77
f 43//78 130//78 129//78
f 44//79 131//79 41//79
f 44//80 132//80 133//80
f 6//81 134//81 135//81
f 6//82 136//82 19//82
f 17//83 137//83 138//83
f 17//84 139//84 19//84
f 2//85 140//85 20//85
f 2//86 141//86 3//86
f 12//87 20//87 13//87
f 3//88 2//88 15//88
f 17//89 21//89 18//89
f 19//2 6//2 5//2
f 2//90 15//90 13//90
f 3//91 16//91 21//91
f 13//92 24//92 22//92
f 16//93 27//93 23//93
f 15//94 118//94 24//94
f 18//95 5//95 25//95
f 21//96 23//96 26//96
f 15//97 118//97 27//97
f 28//98 1//98 3//98
f 29//99 142//99 2//99
f 30//100 52//100 6//100
f 28//101 17//101 19//101
f 1//102 142//102 2//102
f 31//103 29//103 20//103
f 32//104 29//104 31//104
f 34//105 142//105 1//105
f 36//106 28//106 30//106
f 38//107 52//107 30//107
f 34//108 142//108 29//108
f 36//109 35//109 1//109
f 12//110 14//110 39//110
f 41//111 8//111 42//111
f 10//112 9//112 44//112
f 39//113 42//113 43//113
f 44//114 9//114 8//114
f 22//34 45//34 39//34
f 45//115 115//115 42//115
f 10//116 46//116 25//116
f 46//117 7//117 9//117
f 11//118 115//118 42//118
f 47//119 44//119 41//119
f 49//120 40//120 43//120
f 51//20 4//20 6//20
f 4//121 44//121 47//121
f 41//122 43//122 50//122
f 31//123 12//123 40//123
f 31//124 49//124 53//124
f 54//125 48//125 50//125
f 51//126 47//126 56//126
f 51//127 52//127 38//127
f 53//27 49//27 50//27
f 56//128 47//128 48//128
f 57//50 38//50 37//50
f 37//50 36//50 35//50
f 35//50 34//50 55//50
f 34//129 32//129 53//129
f 32//50 33//50 53//50
f 53//50 55//50 34//50
f 55//50 54//50 35//50
f 54//50 56//50 57//50
f 57//50 37//50 35//50
f 58//130 62//130 59//130
f 58//131 122//131 61//131
f 63//132 123//132 64//132
f 63//133 65//133 66//133
f 68//134 72//134 69//134
f 68//135 143//135 71//135
f 73//136 144//136 74//136
f 73//137 124//137 76//137
f 77//138 145//138 78//138
f 77//139 145//139 80//139
f 82//140 121//140 83//140
f 82//141 84//141 85//141
f 16//142 82//142 86//142
f 16//143 21//143 121//143
f 13//144 14//144 122//144
f 13//145 58//145 60//145
f 39//146 63//146 67//146
f 39//147 42//147 123//147
f 42//148 143//148 68//148
f 8//149 68//149 70//149
f 10//150 9//150 124//150
f 5//151 144//151 73//151
f 18//152 77//152 81//152
f 18//153 77//153 79//153
f 12//154 127//154 125//154
f 12//155 20//155 126//155
f 43//156 40//156 128//156
f 43//157 41//157 130//157
f 44//158 133//158 131//158
f 44//159 4//159 132//159
f 6//82 4//82 134//82
f 6//160 135//160 136//160
f 17//161 3//161 137//161
f 17//162 138//162 139//162
f 2//163 146//163 140//163
f 2//164 146//164 141//164
usemtl rsc_003808
f 87//165 88//165 89//165
f 87//166 90//166 91//166
f 92//167 93//167 94//167
f 95//168 96//168 97//168
f 95//169 98//169 99//169
f 99//170 100//170 98//170
f 101//171 102//171 103//171
f 104//172 105//172 106//172
f 101//173 107//173 108//173
f 109//174 110//174 111//174
f 112//175 113//175 114//175
f 109//176 114//176 112//176
f 7//177 104//177 101//177
f 46//50 106//50 25//50
f 7//178 103//178 11//178
f 115//179 116//179 99//179
f 45//180 99//180 115//180
f 45//181 117//181 95//181
f 118//182 94//182 27//182
f 118//50 87//50 24//50
f 24//183 89//183 22//183
f 23//129 112//129 26//129
f 26//50 119//50 112//50
f 23//184 120//184 109//184
f 87//185 91//185 88//185
f 87//186 92//186 90//186
f 92//187 90//187 93//187
f 95//188 117//188 96//188
f 95//169 97//169 98//169
f 99//189 116//189 100//189
f 101//190 108//190 102//190
f 104//191 107//191 105//191
f 101//192 104//192 107//192
f 109//193 120//193 110//193
f 112//194 119//194 113//194
f 109//195 111//195 114//195
f 7//129 46//129 104//129
f 46//50 104//50 106//50
f 7//196 101//196 103//196
f 115//197 11//197 116//197
f 45//180 95//180 99//180
f 45//198 22//198 117//198
f 118//199 92//199 94//199
f 118//50 92//50 87//50
f 24//200 87//200 89//200
f 23//129 109//129 112//129
f 26//50 25//50 119//50
f 23//201 27//201 120//201
