# Blender 4.0.2
# www.blender.org
mtllib 4_mature_partial.mtl
o orange_4_partial
v -0.010000 0.000000 1.930000
v 0.140000 -0.140000 0.220000
v 0.180000 -0.000000 0.220000
v 0.140000 0.140000 0.220000
v 0.000000 0.180000 0.210000
v -0.140000 0.140000 0.210000
v -0.180000 0.000000 0.210000
v -0.000000 -0.180000 0.210000
v -0.140000 -0.140000 0.210000
v -0.010000 0.800000 1.820000
v -0.010000 0.700000 1.460000
v 0.460000 0.470000 1.460000
v 0.530000 0.540000 1.820000
v -0.550000 0.540000 1.810000
v -0.480000 0.470000 1.460000
v -0.810000 0.000000 1.810000
v -0.710000 0.000000 1.460000
v 0.530000 -0.540000 1.820000
v 0.460000 -0.470000 1.460000
v -0.010000 -0.690000 1.460000
v -0.010000 -0.800000 1.820000
v 0.790000 -0.000000 1.820000
v 0.690000 -0.000000 1.460000
v -0.480000 -0.470000 1.460000
v -0.550000 -0.540000 1.810000
v -0.010000 0.670000 2.210000
v -0.010000 0.890000 1.780000
v 0.610000 0.620000 1.780000
v 0.450000 0.470000 2.210000
v -0.480000 0.470000 2.210000
v -0.630000 0.620000 1.780000
v -0.480000 -0.470000 2.210000
v -0.630000 -0.620000 1.780000
v -0.900000 0.000000 1.780000
v -0.680000 0.000000 2.210000
v 0.890000 -0.000000 1.790000
v 0.650000 -0.000000 2.210000
v -0.010000 -0.670000 2.210000
v -0.010000 -0.890000 1.780000
v 0.450000 -0.470000 2.210000
v 0.610000 -0.620000 1.780000
v -0.010000 0.800000 2.160000
v -0.010000 0.000000 2.480000
v -0.550000 0.540000 2.160000
v -0.810000 0.000000 2.160000
v 0.790000 -0.000000 2.160000
v 0.530000 0.540000 2.160000
v -0.550000 -0.540000 2.160000
v -0.010000 -0.800000 2.160000
v 0.530000 -0.540000 2.160000
v -0.430000 0.430000 0.000000
v -0.240000 0.140000 0.000000
v -0.170000 0.160000 0.160000
v -0.140000 0.240000 0.000000
v -0.000000 -0.290000 0.000000
v -0.210000 -0.210000 0.000000
v -0.210000 0.210000 0.000000
v 0.000000 0.290000 0.000000
v -0.290000 0.000000 0.000000
v 0.210000 0.210000 0.000000
v 0.290000 -0.000000 0.000000
v 0.210000 -0.210000 0.000000
v 0.360000 0.110000 0.040000
v 0.210000 -0.000000 0.140000
v 0.320000 -0.000000 0.180000
v 0.250000 0.110000 0.000000
v 0.250000 -0.110000 0.000000
v 0.360000 -0.110000 0.040000
v 0.430000 -0.000000 0.110000
v 0.430000 0.110000 0.000000
v 0.430000 -0.110000 0.000000
v 0.500000 -0.000000 0.040000
v 0.640000 -0.000000 0.000000
v -0.250000 -0.110000 0.000000
v -0.250000 -0.250000 0.030000
v -0.110000 -0.250000 0.000000
v -0.430000 -0.430000 0.000000
v 0.680000 -0.240000 1.430000
v 0.720000 -0.230000 1.410000
v 0.690000 -0.210000 1.430000
v 0.710000 -0.260000 1.410000
v 0.420000 0.030000 1.260000
v 0.050000 -0.060000 1.140000
v 0.420000 -0.030000 1.260000
v 0.050000 0.060000 1.140000
v 0.050000 -0.060000 1.030000
v 0.480000 -0.030000 1.200000
v 0.480000 0.030000 1.200000
v 0.050000 0.060000 1.030000
v 0.500000 -0.000000 1.280000
v 0.540000 -0.000000 1.230000
v 0.500000 0.110000 1.300000
v 0.540000 0.080000 1.300000
v 0.520000 0.110000 1.250000
v 0.540000 0.080000 1.230000
v -0.490000 0.270000 1.540000
v -0.470000 0.250000 1.560000
v -0.470000 0.270000 1.560000
v -0.490000 0.250000 1.540000
v -0.010000 0.060000 1.280000
v -0.240000 0.210000 1.390000
v -0.070000 0.010000 1.280000
v -0.210000 0.240000 1.390000
v -0.260000 0.240000 1.340000
v -0.070000 0.010000 1.170000
v -0.010000 0.060000 1.170000
v -0.230000 0.260000 1.340000
v -0.260000 0.260000 1.420000
v -0.280000 0.290000 1.370000
v -0.230000 0.310000 1.430000
v -0.200000 0.310000 1.430000
v -0.210000 0.320000 1.380000
v -0.230000 0.310000 1.370000
v -0.840000 -0.020000 1.670000
v -0.820000 0.000000 1.700000
v -0.820000 -0.020000 1.710000
v -0.830000 -0.040000 1.690000
v -0.800000 -0.080000 1.690000
v -0.820000 -0.070000 1.690000
v -0.790000 -0.050000 1.720000
v -0.780000 -0.060000 1.720000
v -0.770000 -0.080000 1.660000
v -0.780000 -0.080000 1.680000
v -0.760000 -0.070000 1.710000
v -0.750000 -0.060000 1.690000
v -0.780000 0.020000 1.640000
v -0.800000 0.020000 1.660000
v -0.820000 -0.010000 1.640000
v -0.800000 -0.010000 1.630000
v -0.760000 0.000000 1.640000
v -0.780000 -0.020000 1.620000
v -0.740000 -0.020000 1.650000
v -0.820000 0.020000 1.670000
v -0.820000 0.010000 1.680000
v -0.840000 -0.020000 1.660000
v -0.830000 -0.010000 1.650000
v -0.740000 -0.040000 1.660000
v -0.770000 -0.070000 1.650000
v -0.740000 -0.050000 1.680000
v -0.770000 0.010000 1.640000
v -0.790000 -0.020000 1.620000
v -0.790000 -0.070000 1.650000
v -0.830000 -0.050000 1.660000
v -0.830000 -0.040000 1.660000
v -0.800000 -0.040000 1.630000
v -0.790000 -0.060000 1.640000
v -0.810000 -0.040000 1.630000
v -0.800000 0.020000 1.720000
v -0.760000 -0.040000 1.730000
v -0.780000 -0.030000 1.740000
v -0.780000 -0.020000 1.740000
v -0.730000 -0.040000 1.710000
v -0.750000 -0.040000 1.720000
v -0.780000 0.030000 1.680000
v -0.730000 0.000000 1.680000
v -0.740000 0.020000 1.670000
v -0.790000 0.030000 1.700000
v -0.800000 0.030000 1.710000
v -0.730000 -0.030000 1.700000
v -0.730000 -0.020000 1.690000
v -0.750000 0.030000 1.670000
v -0.750000 -0.010000 1.720000
v -0.740000 -0.010000 1.710000
v -0.760000 0.000000 1.730000
v -0.750000 -0.010000 1.730000
v -0.770000 0.020000 1.720000
v -0.740000 0.020000 1.700000
v -0.750000 0.020000 1.700000
v -0.740000 0.000000 1.710000
v -0.280000 -0.150000 2.430000
v -0.240000 -0.140000 2.440000
v -0.240000 -0.170000 2.440000
v -0.280000 -0.170000 2.440000
v -0.280000 -0.210000 2.410000
v -0.280000 -0.200000 2.430000
v -0.240000 -0.210000 2.430000
v -0.240000 -0.220000 2.410000
v -0.280000 -0.190000 2.430000
v -0.240000 -0.190000 2.440000
v -0.280000 -0.210000 2.370000
v -0.280000 -0.210000 2.390000
v -0.240000 -0.230000 2.390000
v -0.240000 -0.220000 2.360000
v -0.240000 -0.120000 2.360000
v -0.240000 -0.110000 2.390000
v -0.280000 -0.120000 2.390000
v -0.280000 -0.130000 2.360000
v -0.240000 -0.140000 2.340000
v -0.280000 -0.150000 2.350000
v -0.280000 -0.170000 2.340000
v -0.240000 -0.170000 2.330000
v -0.240000 -0.120000 2.410000
v -0.280000 -0.130000 2.410000
v -0.240000 -0.190000 2.340000
v -0.280000 -0.190000 2.350000
v -0.280000 -0.200000 2.360000
v -0.240000 -0.210000 2.350000
v -0.240000 -0.130000 2.350000
v -0.280000 -0.140000 2.350000
v -0.300000 -0.190000 2.380000
v -0.300000 -0.180000 2.410000
v -0.300000 -0.170000 2.410000
v -0.300000 -0.160000 2.410000
v -0.300000 -0.150000 2.370000
v -0.300000 -0.180000 2.370000
v -0.300000 -0.150000 2.380000
v -0.200000 -0.150000 2.430000
v -0.200000 -0.170000 2.440000
v -0.200000 -0.210000 2.410000
v -0.200000 -0.200000 2.430000
v -0.200000 -0.190000 2.430000
v -0.200000 -0.210000 2.370000
v -0.200000 -0.210000 2.390000
v -0.200000 -0.130000 2.360000
v -0.200000 -0.120000 2.390000
v -0.200000 -0.170000 2.340000
v -0.200000 -0.150000 2.350000
v -0.200000 -0.130000 2.410000
v -0.200000 -0.140000 2.420000
v -0.200000 -0.200000 2.360000
v -0.200000 -0.190000 2.350000
v -0.200000 -0.140000 2.350000
v -0.180000 -0.190000 2.390000
v -0.180000 -0.190000 2.380000
v -0.180000 -0.180000 2.410000
v -0.180000 -0.190000 2.400000
v -0.180000 -0.150000 2.400000
v -0.180000 -0.170000 2.360000
v -0.180000 -0.160000 2.370000
v -0.180000 -0.150000 2.390000
v -0.180000 -0.150000 2.370000
v -0.180000 -0.180000 2.370000
v -0.180000 -0.150000 2.380000
v 0.110000 -0.750000 1.550000
v 0.080000 -0.730000 1.560000
v 0.100000 -0.710000 1.560000
v 0.150000 -0.710000 1.540000
v 0.130000 -0.680000 1.540000
v 0.140000 -0.670000 1.530000
v 0.140000 -0.720000 1.550000
v 0.120000 -0.690000 1.560000
v 0.160000 -0.710000 1.480000
v 0.160000 -0.700000 1.500000
v 0.150000 -0.670000 1.500000
v 0.140000 -0.670000 1.470000
v 0.060000 -0.750000 1.470000
v 0.060000 -0.750000 1.500000
v 0.090000 -0.770000 1.500000
v 0.090000 -0.770000 1.470000
v 0.080000 -0.730000 1.450000
v 0.110000 -0.750000 1.450000
v 0.120000 -0.740000 1.450000
v 0.100000 -0.710000 1.440000
v 0.060000 -0.750000 1.530000
v 0.070000 -0.740000 1.540000
v 0.100000 -0.760000 1.540000
v 0.090000 -0.770000 1.530000
v 0.120000 -0.690000 1.450000
v 0.140000 -0.720000 1.460000
v 0.150000 -0.710000 1.460000
v 0.140000 -0.680000 1.460000
v 0.070000 -0.740000 1.460000
v 0.100000 -0.760000 1.460000
v 0.150000 -0.740000 1.490000
v 0.150000 -0.740000 1.520000
v 0.120000 -0.760000 1.520000
v 0.120000 -0.760000 1.510000
v 0.130000 -0.760000 1.530000
v 0.130000 -0.750000 1.480000
v 0.120000 -0.770000 1.500000
v 0.140000 -0.740000 1.480000
v 0.150000 -0.740000 1.480000
v 0.140000 -0.740000 1.530000
v 0.060000 -0.700000 1.550000
v 0.080000 -0.680000 1.560000
v 0.110000 -0.650000 1.520000
v 0.110000 -0.660000 1.540000
v 0.110000 -0.650000 1.480000
v 0.120000 -0.650000 1.500000
v 0.050000 -0.710000 1.470000
v 0.040000 -0.720000 1.500000
v 0.080000 -0.680000 1.450000
v 0.060000 -0.700000 1.450000
v 0.050000 -0.710000 1.530000
v 0.050000 -0.710000 1.540000
v 0.110000 -0.660000 1.460000
v 0.100000 -0.670000 1.460000
v 0.050000 -0.710000 1.460000
v 0.090000 -0.660000 1.500000
v 0.080000 -0.660000 1.490000
v 0.080000 -0.660000 1.520000
v 0.080000 -0.660000 1.510000
v 0.050000 -0.690000 1.510000
v 0.050000 -0.680000 1.520000
v 0.070000 -0.670000 1.480000
v 0.050000 -0.680000 1.480000
v 0.080000 -0.660000 1.480000
v 0.050000 -0.690000 1.490000
v -0.150000 0.810000 2.000000
v -0.130000 0.830000 2.010000
v -0.120000 0.800000 2.010000
v -0.140000 0.790000 2.010000
v -0.130000 0.750000 1.980000
v -0.130000 0.760000 2.000000
v -0.100000 0.770000 2.000000
v -0.100000 0.760000 1.980000
v -0.140000 0.770000 2.000000
v -0.110000 0.780000 2.010000
v -0.130000 0.750000 1.940000
v -0.130000 0.750000 1.960000
v -0.090000 0.750000 1.960000
v -0.100000 0.760000 1.940000
v -0.140000 0.850000 1.940000
v -0.140000 0.860000 1.960000
v -0.160000 0.830000 1.960000
v -0.160000 0.830000 1.940000
v -0.130000 0.830000 1.920000
v -0.150000 0.810000 1.920000
v -0.140000 0.790000 1.920000
v -0.120000 0.800000 1.910000
v -0.140000 0.850000 1.980000
v -0.130000 0.840000 2.000000
v -0.160000 0.820000 1.990000
v -0.160000 0.830000 1.980000
v -0.130000 0.760000 1.930000
v -0.100000 0.770000 1.930000
v -0.150000 0.770000 1.950000
v -0.150000 0.770000 1.960000
v -0.150000 0.770000 1.970000
v -0.150000 0.770000 1.980000
v -0.160000 0.800000 1.980000
v -0.170000 0.810000 1.970000
v -0.160000 0.790000 1.990000
v -0.160000 0.800000 1.940000
v -0.160000 0.790000 1.940000
v -0.170000 0.810000 1.960000
v -0.150000 0.780000 1.980000
v -0.100000 0.840000 2.000000
v -0.090000 0.810000 2.010000
v -0.080000 0.780000 2.000000
v -0.080000 0.790000 2.000000
v -0.070000 0.770000 1.940000
v -0.100000 0.850000 1.940000
v -0.110000 0.860000 1.960000
v -0.090000 0.810000 1.920000
v -0.100000 0.840000 1.920000
v -0.100000 0.850000 1.980000
v -0.080000 0.780000 1.930000
v -0.080000 0.790000 1.920000
v -0.100000 0.850000 1.930000
v -0.070000 0.800000 1.960000
v -0.070000 0.800000 1.950000
v -0.070000 0.810000 1.980000
v -0.070000 0.800000 1.970000
v -0.080000 0.840000 1.970000
v -0.080000 0.840000 1.980000
v -0.080000 0.830000 1.980000
v -0.070000 0.820000 1.990000
v -0.070000 0.820000 1.940000
v -0.080000 0.830000 1.940000
v -0.080000 0.840000 1.960000
v -0.080000 0.840000 1.940000
v -0.070000 0.810000 1.950000
v -0.070000 0.810000 1.940000
v -0.080000 0.840000 1.950000
v 0.850000 0.100000 1.960000
v 0.870000 0.090000 1.930000
v 0.870000 0.060000 1.950000
v 0.850000 0.080000 1.970000
v 0.850000 0.030000 1.960000
v 0.830000 0.020000 1.960000
v 0.840000 0.060000 1.980000
v 0.860000 0.040000 1.960000
v 0.780000 0.040000 1.960000
v 0.800000 0.040000 1.970000
v 0.810000 0.010000 1.950000
v 0.790000 0.020000 1.940000
v 0.830000 0.110000 1.900000
v 0.820000 0.120000 1.930000
v 0.790000 0.080000 1.900000
v 0.780000 0.100000 1.920000
v 0.770000 0.080000 1.930000
v 0.780000 0.060000 1.900000
v 0.850000 0.110000 1.910000
v 0.860000 0.100000 1.920000
v 0.840000 0.110000 1.950000
v 0.840000 0.110000 1.940000
v 0.780000 0.040000 1.920000
v 0.770000 0.060000 1.940000
v 0.780000 0.050000 1.950000
v 0.790000 0.030000 1.930000
v 0.790000 0.070000 1.970000
v 0.800000 0.070000 1.970000
v 0.810000 0.070000 1.980000
v 0.820000 0.070000 1.980000
v 0.820000 0.100000 1.960000
v 0.830000 0.090000 1.970000
v 0.830000 0.100000 1.970000
v 0.790000 0.090000 1.950000
v 0.780000 0.080000 1.950000
v 0.810000 0.100000 1.950000
v 0.790000 0.100000 1.950000
v 0.780000 0.080000 1.960000
v 0.790000 0.070000 1.960000
v 0.820000 0.080000 1.980000
v 0.800000 0.100000 1.950000
v 0.880000 0.070000 1.910000
v 0.880000 0.050000 1.920000
v 0.840000 0.010000 1.930000
v 0.860000 0.020000 1.930000
v 0.870000 0.030000 1.930000
v 0.810000 0.010000 1.910000
v 0.830000 0.010000 1.920000
v 0.820000 0.080000 1.870000
v 0.840000 0.090000 1.880000
v 0.800000 0.050000 1.880000
v 0.800000 0.070000 1.870000
v 0.860000 0.080000 1.890000
v 0.870000 0.080000 1.900000
v 0.800000 0.020000 1.900000
v 0.800000 0.030000 1.890000
v 0.810000 0.080000 1.870000
v 0.840000 0.020000 1.900000
v 0.830000 0.020000 1.890000
v 0.850000 0.030000 1.900000
v 0.850000 0.020000 1.900000
v 0.850000 0.060000 1.880000
v 0.860000 0.050000 1.890000
v 0.860000 0.040000 1.900000
v 0.820000 0.040000 1.880000
v 0.820000 0.050000 1.870000
v 0.840000 0.060000 1.880000
v 0.830000 0.050000 1.870000
v 0.820000 0.030000 1.890000
v 0.820000 0.030000 1.880000
v 0.860000 0.030000 1.900000
v 0.830000 0.060000 1.870000
vn 0.9561 -0.2732 0.1062
vn 0.9561 0.2732 0.1062
vn -0.2734 0.9568 0.0985
vn -0.9572 0.2735 0.0946
vn 0.2666 -0.9584 0.1018
vn 0.2666 0.9584 0.1018
vn -0.9572 -0.2735 0.0946
vn -0.2734 -0.9568 0.0985
vn -0.7672 -0.5026 0.3985
vn 0.4860 0.7418 0.4620
vn -0.2454 -0.8588 0.4498
vn -0.3270 -0.8584 0.3952
vn -0.2540 0.8890 0.3810
vn -0.3197 0.8393 0.4396
vn -0.8890 -0.2540 0.3810
vn -0.8393 -0.3197 0.4396
vn -0.8584 0.3270 0.3952
vn -0.8588 0.2454 0.4498
vn 0.3293 0.8645 0.3798
vn 0.2148 0.8652 0.4532
vn 0.8948 0.2557 0.3661
vn 0.8466 0.3225 0.4233
vn 0.8645 -0.3293 0.3798
vn 0.8666 -0.2476 0.4333
vn 0.3197 -0.8393 0.4396
vn 0.2322 -0.9031 0.3612
vn -0.2063 0.7972 0.5674
vn -0.2063 -0.7972 0.5674
vn 0.3746 0.6556 0.6556
vn 0.4033 0.6600 0.6338
vn 0.4103 -0.6448 0.6448
vn 0.3643 -0.6789 0.6375
vn 0.5774 0.5774 0.5774
vn 0.5774 -0.5774 0.5774
vn 0.2433 0.4645 0.8515
vn 0.2433 -0.4645 0.8515
vn -0.8752 0.1013 0.4729
vn 0.1013 -0.8752 0.4729
vn 0.1963 -0.3491 0.9163
vn -0.3491 0.1963 0.9163
vn 0.4729 -0.1576 0.8669
vn -0.3085 -0.0000 0.9512
vn 0.0499 -0.9975 0.0499
vn 0.0808 -0.9967 -0.0000
vn 0.0610 0.9963 0.0610
vn 0.0696 0.9976 -0.0000
vn -0.4527 0.1509 0.8788
vn -0.3415 0.3218 0.8831
vn -0.6199 -0.7678 -0.1620
vn -0.4018 -0.8228 -0.4018
vn 0.6389 0.7366 0.2219
vn 0.5253 0.7399 0.4202
vn -0.2425 -0.0000 0.9701
vn -0.2988 -0.1707 0.9389
vn -0.1330 -0.1773 0.9751
vn -0.4851 0.7276 -0.4851
vn -0.7619 0.5715 -0.3048
vn 0.8944 -0.4472 -0.0000
vn 0.7809 -0.0000 0.6247
vn 0.8320 0.5547 -0.0000
vn 0.5834 0.7779 0.2334
vn 0.3677 -0.0000 -0.9300
vn 0.5639 -0.1880 -0.8041
vn 0.5237 -0.2262 -0.8213
vn 0.4472 -0.0000 -0.8944
vn -0.0300 0.5405 -0.8408
vn -0.7071 -0.0000 0.7071
vn 0.2474 -0.2969 0.9223
vn 0.2679 -0.2679 0.9255
vn -0.7710 -0.6369 -0.0000
vn -0.7775 -0.6255 -0.0643
vn 0.6690 0.7433 -0.0000
vn 0.6811 0.7319 0.0203
vn 0.5441 -0.2609 0.7975
vn 0.5547 -0.0000 0.8321
vn -0.3592 -0.8566 -0.3703
vn -0.0990 -0.9901 0.0990
vn 0.3058 0.8654 0.3969
vn -0.0525 0.9972 0.0525
vn 0.3665 -0.3665 0.8552
vn -0.0000 -0.4961 0.8682
vn 0.3570 -0.3845 0.8513
vn 0.9352 0.0652 -0.3480
vn 0.9594 -0.1693 -0.2257
vn -0.8575 0.5145 -0.0000
vn -0.3034 0.7586 0.5766
vn -0.4472 0.8944 -0.0000
vn -0.0000 0.9806 0.1961
vn -0.3201 0.3841 -0.8661
vn -0.2757 0.4136 -0.8677
vn -0.6292 -0.0000 -0.7772
vn -0.6393 0.1911 -0.7448
vn -0.2744 0.4116 -0.8690
vn -0.2016 0.5039 -0.8399
vn 0.1690 0.5071 -0.8452
vn -0.4230 -0.8718 0.2470
vn 0.4206 -0.8720 0.2503
vn 0.8703 -0.4222 0.2536
vn -0.4147 0.8725 0.2584
vn -0.8718 0.4230 0.2470
vn -0.8718 -0.4230 0.2470
vn 0.4121 0.8727 0.2619
vn -0.3613 -0.8303 -0.4244
vn 0.3592 -0.8329 -0.4210
vn 0.8329 0.3592 -0.4210
vn -0.8165 -0.3637 -0.4484
vn 0.3592 0.8329 -0.4210
vn -0.3613 0.8303 -0.4244
vn -0.8165 0.3637 -0.4484
vn 0.1760 -0.3656 -0.9140
vn 0.3656 -0.1760 -0.9140
vn -0.3656 -0.1760 -0.9140
vn -0.1760 -0.3656 -0.9140
vn 0.3656 0.1760 -0.9140
vn 0.1760 0.3656 -0.9140
vn -0.1760 0.3656 -0.9140
vn -0.3656 0.1760 -0.9140
vn 0.8329 -0.3592 -0.4210
vn 0.8703 0.4222 0.2536
vn 0.8889 -0.1111 -0.4444
vn 0.3889 0.5834 -0.7130
vn -0.5398 0.8397 -0.0600
vn 0.4685 -0.6247 0.6247
vn -0.0000 -0.4472 0.8944
vn -0.7603 0.6082 0.2281
vn 0.9487 0.3162 -0.0000
vn -0.3974 0.4586 0.7948
vn -0.0000 0.4472 0.8944
vn 0.4472 -0.0000 0.8944
vn -0.0000 0.7071 0.7071
vn -0.7663 -0.2873 0.5747
vn 0.1924 -0.9623 0.1924
vn -0.3468 0.5203 -0.7804
vn -0.9631 0.1204 0.2408
vn -0.5145 -0.5145 0.6860
vn -0.5523 -0.0921 -0.8285
vn -0.3162 -0.0000 -0.9487
vn -0.8847 0.1474 -0.4423
vn -0.4423 -0.8847 -0.1474
vn -0.0000 -0.7071 -0.7071
vn -0.8729 -0.2182 -0.4364
vn -0.4472 -0.0000 -0.8944
vn 0.1455 -0.1940 -0.9701
vn 0.2182 0.8729 -0.4364
vn 0.1562 0.3123 -0.9370
vn 0.3651 0.9129 0.1826
vn 0.2308 -0.9231 0.3077
vn 0.2683 -0.3578 0.8944
vn 0.2182 -0.8729 -0.4364
vn 0.1204 0.2408 -0.9631
vn 0.2182 -0.4364 0.8729
vn 0.7845 -0.1961 -0.5883
vn 0.7454 -0.5963 0.2981
vn 0.7276 0.4851 0.4851
vn 0.7071 -0.0000 -0.7071
vn -0.1455 -0.1940 -0.9701
vn -0.1562 0.3123 -0.9370
vn -0.3651 0.9129 0.1826
vn -0.2308 -0.9231 0.3077
vn -0.2673 0.5345 0.8018
vn -0.3419 0.9117 -0.2279
vn -0.3333 0.6667 0.6667
vn -0.1204 0.2408 -0.9631
vn -0.2182 -0.4364 0.8729
vn -0.7071 0.7071 -0.0000
vn -0.7276 -0.4851 -0.4851
vn -0.6965 0.3980 0.5970
vn -0.7276 0.4851 0.4851
vn -0.8001 -0.5819 0.1455
vn -0.7071 -0.0000 -0.7071
vn -0.6667 -0.3333 -0.6667
vn -0.9023 -0.3509 0.2506
vn 0.3244 0.4867 0.8111
vn -0.8642 -0.3143 0.3928
vn -0.3810 0.8890 -0.2540
vn -0.1162 0.9300 -0.3487
vn -0.2357 0.9428 -0.2357
vn -0.2981 0.5963 0.7454
vn -0.6985 0.5433 0.4657
vn -0.9045 0.3015 0.3015
vn -0.7379 0.4216 -0.5270
vn 0.2425 -0.0000 -0.9701
vn 0.8979 0.3848 0.2138
vn 0.2425 -0.0000 0.9701
vn 0.7684 0.3293 -0.5488
vn -0.0851 -0.3405 0.9364
vn 0.8979 0.3848 -0.2138
vn -0.5185 -0.8296 -0.2074
vn 0.6667 0.3333 -0.6667
vn 0.3015 -0.9045 -0.3015
vn 0.2822 -0.9407 0.1881
vn 1.0000 -0.0000 -0.0000
vn 0.3468 -0.7804 0.5203
vn 0.3015 -0.9045 0.3015
vn -0.2857 0.8571 -0.4286
vn 0.7715 -0.6172 0.1543
vn -0.1361 0.9526 -0.2722
vn 0.5970 -0.3980 -0.6965
vn 0.7071 0.7071 -0.0000
vn 0.6882 0.6882 -0.2294
vn 0.8083 -0.1155 -0.5773
vn 0.7442 0.2481 0.6202
vn 0.7379 0.5270 -0.4216
vn -0.0976 -0.1952 -0.9759
vn -0.3015 0.3015 -0.9045
vn -0.0976 -0.1952 0.9759
vn -0.0000 -0.8944 -0.4472
vn -0.2481 0.6202 0.7442
vn -0.2075 0.1383 -0.9684
vn -0.6667 -0.3333 0.6667
vn -0.5271 -0.8433 -0.1054
vn -0.4472 -0.8944 -0.0000
vn -0.6883 -0.2294 0.6882
vn -0.8242 -0.1374 0.5494
vn -0.5270 -0.8433 0.1054
vn -0.8944 -0.0000 -0.4472
vn 0.4616 0.6594 -0.5934
vn 0.7845 0.5884 -0.1961
vn -0.2741 -0.9593 0.0685
vn 0.9428 0.2357 0.2357
vn -0.6172 -0.7715 -0.1543
vn -0.9603 -0.2788 -0.0000
vn -0.3015 -0.3015 -0.9045
vn 0.6965 -0.5970 -0.3980
vn 0.0921 -0.8285 -0.5523
vn 0.9045 -0.3015 -0.3015
vn 0.4472 -0.8944 -0.0000
vn -0.4082 0.8165 -0.4082
vn 0.8412 -0.0765 0.5353
vn -0.6965 -0.5970 0.3980
vn -0.4616 -0.6594 0.5934
vn -0.1596 0.9577 -0.2394
vn 0.7926 0.3658 0.4878
vn -0.8890 0.2540 -0.3810
vn -0.6882 0.6882 0.2294
vn -0.1562 0.9370 0.3123
vn 0.4066 -0.5630 -0.7195
vn -0.0000 -0.0000 1.0000
vn -0.0000 0.8944 0.4472
vn 0.2481 0.6202 0.7442
s 0
usemtl tex_32767
f 1//1 2//1 3//1
f 1//2 3//2 4//2
f 1//3 5//3 6//3
f 1//4 6//4 7//4
f 1//5 8//5 2//5
f 1//6 4//6 5//6
f 1//7 7//7 9//7
f 1//8 9//8 8//8
f 51//9 52//9 53//9
f 51//10 53//10 54//10
f 9//11 55//11 8//11
f 9//12 56//12 55//12
f 5//13 57//13 6//13
f 5//14 58//14 57//14
f 7//15 56//15 9//15
f 7//16 59//16 56//16
f 59//17 6//17 57//17
f 59//18 7//18 6//18
f 58//19 4//19 60//19
f 58//20 5//20 4//20
f 3//21 60//21 4//21
f 3//22 61//22 60//22
f 61//23 2//23 62//23
f 61//24 3//24 2//24
f 62//25 8//25 55//25
f 62//26 2//26 8//26
f 63//27 64//27 65//27
f 63//27 66//27 64//27
f 65//28 67//28 68//28
f 65//28 64//28 67//28
f 63//29 69//29 70//29
f 63//30 65//30 69//30
f 65//31 71//31 69//31
f 65//32 68//32 71//32
f 72//33 70//33 69//33
f 71//34 72//34 69//34
f 73//35 70//35 72//35
f 73//36 72//36 71//36
f 74//37 75//37 9//37
f 76//38 9//38 75//38
f 75//39 77//39 76//39
f 74//40 77//40 75//40
f 78//41 79//41 80//41
f 78//41 81//41 79//41
f 82//42 83//42 84//42
f 82//42 85//42 83//42
f 84//43 86//43 87//43
f 84//44 83//44 86//44
f 88//45 85//45 82//45
f 88//46 89//46 85//46
f 80//47 84//47 78//47
f 80//48 90//48 84//48
f 78//49 87//49 81//49
f 78//50 84//50 87//50
f 79//51 90//51 80//51
f 79//52 91//52 90//52
f 90//53 82//53 84//53
f 90//54 92//54 82//54
f 90//55 93//55 92//55
f 92//56 88//56 82//56
f 94//57 88//57 92//57
f 90//58 95//58 93//58
f 90//59 91//59 95//59
f 94//60 93//60 95//60
f 94//61 92//61 93//61
f 87//62 89//62 88//62
f 87//62 86//62 89//62
f 81//63 91//63 79//63
f 81//64 87//64 91//64
f 91//65 87//65 88//65
f 88//65 95//65 91//65
f 95//66 88//66 94//66
f 96//67 97//67 98//67
f 99//67 97//67 96//67
f 100//68 101//68 102//68
f 100//69 103//69 101//69
f 102//70 104//70 105//70
f 102//71 101//71 104//71
f 106//72 103//72 100//72
f 106//73 107//73 103//73
f 108//74 97//74 101//74
f 108//75 98//75 97//75
f 101//76 99//76 104//76
f 101//77 97//77 99//77
f 109//78 98//78 108//78
f 109//79 96//79 98//79
f 103//80 108//80 101//80
f 110//81 103//81 111//81
f 110//82 108//82 103//82
f 107//83 111//83 103//83
f 107//84 112//84 111//84
f 113//85 108//85 110//85
f 109//86 108//86 113//86
f 110//87 112//87 113//87
f 111//88 112//88 110//88
f 105//89 107//89 106//89
f 105//90 104//90 107//90
f 109//91 99//91 96//91
f 104//92 99//92 109//92
f 104//93 109//93 107//93
f 113//94 107//94 109//94
f 107//95 113//95 112//95
usemtl tex_65
f 10//96 11//96 12//96 13//96
f 14//97 15//97 11//97 10//97
f 16//98 17//98 15//98 14//98
f 18//99 19//99 20//99 21//99
f 22//100 23//100 19//100 18//100
f 13//101 12//101 23//101 22//101
f 21//102 20//102 24//102 25//102
f 26//103 27//103 28//103 29//103
f 30//104 31//104 27//104 26//104
f 32//105 33//105 34//105 35//105
f 29//106 28//106 36//106 37//106
f 38//107 39//107 33//107 32//107
f 40//108 41//108 39//108 38//108
f 37//109 36//109 41//109 40//109
f 42//110 43//110 44//110
f 44//111 43//111 45//111
f 46//112 43//112 47//112
f 47//113 43//113 42//113
f 45//114 43//114 48//114
f 48//115 43//115 49//115
f 49//116 43//116 50//116
f 50//117 43//117 46//117
f 35//118 34//118 31//118 30//118
f 25//119 24//119 17//119 16//119
usemtl rsc_f8a010
f 114//120 115//120 116//120 117//120
f 118//121 119//121 120//121 121//121
f 122//122 123//122 124//122 125//122
f 126//123 127//123 128//123 129//123
f 133//58 134//58 135//58 136//58
f 140//124 126//124 129//124 141//124
f 138//125 122//125 125//125 139//125
f 114//126 117//126 143//126 144//126
f 423//127 426//127 425//127 436//127 429//127 428//127 427//127 432//127 437//127 433//127 431//127 430//127 435//127 434//127 424//127
f 141//128 145//128 131//128
f 141//129 129//129 147//129 145//129
f 122//130 138//130 146//130 142//130
f 130//131 132//131 155//131 156//131
f 127//132 154//132 157//132 133//132
f 153//133 124//133 121//133 149//133
f 132//134 137//134 160//134 155//134
f 140//135 130//135 156//135 161//135
f 153//136 162//136 163//136 152//136
f 150//137 164//137 165//137 149//137
f 149//138 165//138 162//138 153//138
f 156//139 167//139 168//139 161//139
f 166//140 148//140 158//140
f 152//141 163//141 169//141 159//141
f 150//142 151//142 164//142
f 170//143 171//143 172//143 173//143
f 174//144 175//144 176//144 177//144
f 178//145 179//145 176//145 175//145
f 180//146 181//146 182//146 183//146
f 184//147 185//147 186//147 187//147
f 188//148 189//148 190//148 191//148
f 185//149 192//149 193//149 186//149
f 173//150 172//150 179//150 178//150
f 198//151 199//151 189//151 188//151
f 170//152 173//152 202//152 203//152
f 199//153 187//153 206//153 204//153
f 180//154 196//154 205//154 200//154
f 195//154 205//154 196//154
f 201//155 178//155 175//155
f 207//156 208//156 172//156 171//156
f 211//157 210//157 176//157 179//157
f 212//158 183//158 182//158 213//158
f 184//159 214//159 215//159 185//159
f 194//160 197//160 220//160 221//160
f 213//161 182//161 177//161 209//161
f 220//162 197//162 183//162 212//162
f 208//163 211//163 179//163 172//163
f 198//164 188//164 217//164 222//164
f 209//165 226//165 223//165 213//165
f 217//67 229//67 231//67 222//67
f 227//166 219//166 218//166
f 221//167 232//167 228//167 216//167
f 212//168 224//168 232//168 220//168
f 214//169 233//169 230//169 215//169
f 210//170 211//170 225//170
f 240//171 241//171 238//171 237//171
f 242//172 243//172 244//172 245//172
f 262//173 246//173 249//173 263//173
f 260//174 242//174 245//174 261//174
f 262//173 263//173 251//173 250//173
f 257//175 256//175 266//175 267//175
f 256//176 234//176 268//176 266//176
f 248//177 257//177 267//177 270//177
f 260//178 259//178 271//178 272//178
f 259//179 252//179 269//179 271//179
f 242//180 260//180 272//180 264//180
f 240//181 237//181 265//181 273//181
f 274//182 275//182 236//182 235//182
f 246//183 280//183 281//183 247//183
f 250//184 253//184 282//184 283//184
f 254//185 284//185 285//185 255//185
f 258//186 261//186 286//186 287//186
f 247//187 281//187 284//187 254//187
f 279//188 244//188 239//188 276//188
f 285//189 274//189 235//189 255//189
f 277//190 291//190 292//190 276//190
f 276//191 292//191 289//191 279//191
f 284//192 293//192 294//192 285//192
f 288//192 296//192 298//192 280//192
f 287//193 297//193 295//193 282//193
f 278//194 290//194 297//194 286//194
f 303//195 304//195 305//195 306//195
f 313//196 314//196 315//196 316//196
f 310//197 303//197 306//197 311//197
f 323//198 322//198 300//198 299//198
f 310//199 309//199 327//199 328//199
f 304//200 303//200 329//200 330//200
f 299//201 302//201 333//201 331//201
f 319//202 318//202 334//202 335//202
f 315//58 324//58 332//58 336//58
f 302//203 307//203 337//203 333//203
f 325//154 327//154 309//154
f 338//204 339//204 301//204 300//204
f 341//205 340//205 305//205 308//205
f 317//206 320//206 345//206 346//206
f 314//207 344//207 347//207 321//207
f 348//208 326//208 312//208 342//208
f 339//209 341//209 308//209 301//209
f 345//210 359//210 360//210 346//210
f 344//211 361//211 355//211 347//211
f 350//212 362//212 365//212 343//212
f 349//213 364//213 359//213 345//213
f 342//214 352//214 363//214 348//214
f 343//215 365//215 361//215 344//215
f 340//216 341//216 353//216
f 374//217 375//217 376//217 377//217
f 388//218 389//218 390//218 391//218
f 378//219 384//219 387//219 379//219
f 390//220 374//220 377//220 391//220
f 369//170 368//170 373//170 372//170
f 386//221 385//221 367//221 366//221
f 351//222 354//222 353//222 358//222 357//222 356//222 355//222 361//222 365//222 362//222 360//222 359//222 364//222 363//222 352//222
f 366//223 369//223 397//223 398//223
f 382//224 381//224 399//224 400//224
f 379//225 387//225 396//225 401//225
f 389//226 382//226 400//226 403//226
f 387//227 386//227 396//227
f 409//228 371//228 370//228 410//228
f 380//229 383//229 416//229 417//229
f 384//230 418//230 419//230 385//230
f 378//231 415//231 418//231 384//231
f 413//232 376//232 371//232 409//232
f 383//233 388//233 421//233 416//233
f 408//234 411//234 373//234 368//234
f 410//235 425//235 426//235 409//235
f 409//236 426//236 423//236 413//236
f 418//67 427//67 428//67 419//67
f 397//237 405//237 395//237 394//237 393//237 392//237 404//237 403//237 400//237 399//237 402//237 406//237 401//237 396//237 398//237
f 417//238 431//238 433//238 422//238
f 420//239 434//239 435//239 421//239
f 422//238 433//238 437//238 414//238
f 412//240 424//240 434//240 420//240
f 428//67 407//67 419//67
