# Blender 4.0.2
# www.blender.org
mtllib 4_mature.mtl
o marigold_4_mature
v 0.000000 -0.100000 0.000000
v 0.000000 -0.100000 0.020000
v -0.058779 -0.080902 0.000000
v -0.058779 -0.080902 0.020000
v -0.095106 -0.030902 0.000000
v -0.095106 -0.030902 0.020000
v -0.095106 0.030902 0.000000
v -0.095106 0.030902 0.020000
v -0.058779 0.080902 0.000000
v -0.058779 0.080902 0.020000
v 0.000000 0.100000 0.000000
v 0.000000 0.100000 0.020000
v 0.058779 0.080902 0.000000
v 0.058779 0.080902 0.020000
v 0.095106 0.030902 0.000000
v 0.095106 0.030902 0.020000
v 0.095106 -0.030902 0.000000
v 0.095106 -0.030902 0.020000
v 0.058779 -0.080902 0.000000
v 0.058779 -0.080902 0.020000
v 0.000000 -0.008000 0.020000
v 0.000000 -0.008000 0.270000
v -0.007608 -0.002472 0.020000
v -0.007608 -0.002472 0.270000
v -0.004702 0.006472 0.020000
v -0.004702 0.006472 0.270000
v 0.004702 0.006472 0.020000
v 0.004702 0.006472 0.270000
v 0.007608 -0.002472 0.020000
v 0.007608 -0.002472 0.270000
v -0.036000 -0.003388 0.035048
v -0.082310 0.002824 0.034817
v -0.018311 0.005506 0.032982
v 0.021243 -0.001515 0.037785
v -0.018311 -0.008536 0.042588
v -0.082310 -0.005854 0.040754
v -0.053689 0.008536 0.037412
v 0.010310 0.005854 0.039246
v 0.010310 -0.002824 0.045183
v -0.053689 -0.005506 0.047018
v -0.093243 0.001515 0.042215
v -0.036000 0.003388 0.044952
v -0.015066 -0.032871 0.035048
v -0.043601 -0.069871 0.034817
v -0.013924 -0.013105 0.032982
v 0.011934 0.017640 0.037785
v -0.001764 -0.020126 0.042588
v -0.036085 -0.074210 0.040754
v -0.034236 -0.042228 0.037412
v 0.000085 0.011856 0.039246
v 0.007601 0.007517 0.045183
v -0.022076 -0.049248 0.047018
v -0.047934 -0.079993 0.042215
v -0.020934 -0.029483 0.044952
v 0.020934 -0.029483 0.035048
v 0.038710 -0.072695 0.034817
v 0.004388 -0.018611 0.032982
v -0.009309 0.019155 0.037785
v 0.016548 -0.011590 0.042588
v 0.046225 -0.068356 0.040754
v 0.019452 -0.050764 0.037412
v -0.010225 0.006002 0.039246
v -0.002710 0.010341 0.045183
v 0.031612 -0.043743 0.047018
v 0.045309 -0.081509 0.042215
v 0.015066 -0.032871 0.044952
v 0.036000 0.003388 0.035048
v 0.082310 -0.002824 0.034817
v 0.018311 -0.005506 0.032982
v -0.021243 0.001515 0.037785
v 0.018311 0.008536 0.042588
v 0.082310 0.005854 0.040754
v 0.053689 -0.008536 0.037412
v -0.010310 -0.005854 0.039246
v -0.010310 0.002824 0.045183
v 0.053689 0.005506 0.047018
v 0.093243 -0.001515 0.042215
v 0.036000 -0.003388 0.044952
v 0.015066 0.032871 0.035048
v 0.043601 0.069871 0.034817
v 0.013924 0.013105 0.032982
v -0.011934 -0.017640 0.037785
v 0.001764 0.020126 0.042588
v 0.036085 0.074210 0.040754
v 0.034236 0.042228 0.037412
v -0.000085 -0.011856 0.039246
v -0.007601 -0.007517 0.045183
v 0.022076 0.049248 0.047018
v 0.047934 0.079993 0.042215
v 0.020934 0.029483 0.044952
v -0.020934 0.029483 0.035048
v -0.038710 0.072695 0.034817
v -0.004388 0.018611 0.032982
v 0.009309 -0.019155 0.037785
v -0.016548 0.011590 0.042588
v -0.046225 0.068356 0.040754
v -0.019452 0.050764 0.037412
v 0.010225 -0.006002 0.039246
v 0.002710 -0.010341 0.045183
v -0.031612 0.043743 0.047018
v -0.045309 0.081509 0.042215
v -0.015066 0.032871 0.044952
v -0.014000 -0.000695 0.267960
v -0.032995 0.004841 0.268812
v -0.006745 0.008026 0.268167
v 0.009479 -0.000311 0.269857
v -0.006745 -0.008648 0.271547
v -0.032995 -0.005463 0.270901
v -0.021255 0.008648 0.271235
v 0.004994 0.005463 0.271880
v 0.004994 -0.004841 0.273969
v -0.021255 -0.008026 0.274615
v -0.037479 0.000311 0.272925
v -0.014000 0.000695 0.274821
v -0.010918 -0.008792 0.267960
v -0.029539 -0.015477 0.268812
v -0.010174 0.002529 0.268167
v 0.007851 0.005320 0.269857
v -0.000374 -0.010961 0.271547
v -0.023482 -0.023814 0.270901
v -0.022279 -0.005497 0.271235
v 0.000829 0.007356 0.271880
v 0.006886 -0.000981 0.273969
v -0.012478 -0.018987 0.274615
v -0.030504 -0.021778 0.272925
v -0.011735 -0.007666 0.274821
v -0.003665 -0.013530 0.267960
v -0.014800 -0.029884 0.268812
v -0.009717 -0.003935 0.268167
v 0.003225 0.008919 0.269857
v 0.006140 -0.009087 0.271547
v -0.005000 -0.033068 0.270901
v -0.014793 -0.017542 0.271235
v -0.003653 0.006438 0.271880
v 0.006148 0.003254 0.273969
v 0.001065 -0.022695 0.274615
v -0.011877 -0.035548 0.272925
v -0.004988 -0.013100 0.274821
v 0.004988 -0.013100 0.267960
v 0.005591 -0.032876 0.268812
v -0.005549 -0.008895 0.268167
v -0.002633 0.009111 0.269857
v 0.010309 -0.003742 0.271547
v 0.015392 -0.029691 0.270901
v -0.001656 -0.022887 0.271235
v -0.006739 0.003062 0.271880
v 0.003061 0.006246 0.273969
v 0.014201 -0.017735 0.274615
v 0.011286 -0.035740 0.272925
v 0.003665 -0.013530 0.274821
v 0.011735 -0.007666 0.267960
v 0.023847 -0.023310 0.268812
v 0.000739 -0.010458 0.268167
v -0.007486 0.005823 0.269857
v 0.010540 0.003032 0.271547
v 0.029904 -0.014974 0.270901
v 0.012113 -0.019490 0.271235
v -0.007252 -0.001484 0.271880
v -0.001195 0.006852 0.273969
v 0.021913 -0.006000 0.274615
v 0.030138 -0.022281 0.272925
v 0.010918 -0.008792 0.274821
v 0.014000 0.000695 0.267960
v 0.032995 -0.004841 0.268812
v 0.006745 -0.008026 0.268167
v -0.009479 0.000311 0.269857
v 0.006745 0.008648 0.271547
v 0.032995 0.005463 0.270901
v 0.021255 -0.008648 0.271235
v -0.004994 -0.005463 0.271880
v -0.004994 0.004841 0.273969
v 0.021255 0.008026 0.274615
v 0.037479 -0.000311 0.272925
v 0.014000 -0.000695 0.274821
v 0.010918 0.008792 0.267960
v 0.029539 0.015477 0.268812
v 0.010174 -0.002529 0.268167
v -0.007851 -0.005320 0.269857
v 0.000374 0.010961 0.271547
v 0.023482 0.023814 0.270901
v 0.022279 0.005497 0.271235
v -0.000829 -0.007356 0.271880
v -0.006886 0.000981 0.273969
v 0.012478 0.018987 0.274615
v 0.030504 0.021778 0.272925
v 0.011735 0.007666 0.274821
v 0.003665 0.013530 0.267960
v 0.014800 0.029884 0.268812
v 0.009717 0.003935 0.268167
v -0.003225 -0.008919 0.269857
v -0.006140 0.009087 0.271547
v 0.005000 0.033068 0.270901
v 0.014793 0.017542 0.271235
v 0.003653 -0.006438 0.271880
v -0.006148 -0.003254 0.273969
v -0.001065 0.022695 0.274615
v 0.011877 0.035548 0.272925
v 0.004988 0.013100 0.274821
v -0.004988 0.013100 0.267960
v -0.005591 0.032876 0.268812
v 0.005549 0.008895 0.268167
v 0.002633 -0.009111 0.269857
v -0.010309 0.003742 0.271547
v -0.015392 0.029691 0.270901
v 0.001656 0.022887 0.271235
v 0.006739 -0.003062 0.271880
v -0.003061 -0.006246 0.273969
v -0.014201 0.017735 0.274615
v -0.011286 0.035740 0.272925
v -0.003665 0.013530 0.274821
v -0.011735 0.007666 0.267960
v -0.023847 0.023310 0.268812
v -0.000739 0.010458 0.268167
v 0.007486 -0.005823 0.269857
v -0.010540 -0.003032 0.271547
v -0.029904 0.014974 0.270901
v -0.012113 0.019490 0.271235
v 0.007252 0.001484 0.271880
v 0.001195 -0.006852 0.273969
v -0.021913 0.006000 0.274615
v -0.030138 0.022281 0.272925
v -0.010918 0.008792 0.274821
v -0.007193 -0.005142 0.269687
v -0.019585 -0.007556 0.269272
v -0.006418 0.002637 0.268323
v 0.005351 0.002647 0.270807
v -0.000542 -0.007541 0.273292
v -0.015953 -0.013847 0.272343
v -0.014700 -0.001259 0.270135
v 0.000711 0.005047 0.271084
v 0.004343 -0.001244 0.274155
v -0.008824 -0.011437 0.275104
v -0.020593 -0.011447 0.272620
v -0.008049 -0.003658 0.273740
v 0.000857 -0.008800 0.269687
v -0.003249 -0.020739 0.269272
v -0.005493 -0.004240 0.268323
v 0.000383 0.005958 0.270807
v 0.006259 -0.004240 0.273292
v 0.004015 -0.020739 0.272343
v -0.006259 -0.013360 0.270135
v -0.004015 0.003139 0.271084
v 0.003249 0.003139 0.274155
v 0.005493 -0.013360 0.275104
v -0.000383 -0.023558 0.272620
v -0.000857 -0.008800 0.273740
v 0.008049 -0.003658 0.269687
v 0.016337 -0.013183 0.269272
v 0.000925 -0.006877 0.268323
v -0.004968 0.003311 0.270807
v 0.006801 0.003301 0.273292
v 0.019968 -0.006893 0.272343
v 0.008441 -0.012101 0.270135
v -0.004726 -0.001907 0.271084
v -0.001095 0.004383 0.274155
v 0.014317 -0.001923 0.275104
v 0.020210 -0.012111 0.272620
v 0.007193 -0.005142 0.273740
v 0.007193 0.005142 0.269687
v 0.019585 0.007556 0.269272
v 0.006418 -0.002637 0.268323
v -0.005351 -0.002647 0.270807
v 0.000542 0.007541 0.273292
v 0.015953 0.013847 0.272343
v 0.014700 0.001259 0.270135
v -0.000711 -0.005047 0.271084
v -0.004343 0.001244 0.274155
v 0.008824 0.011437 0.275104
v 0.020593 0.011447 0.272620
v 0.008049 0.003658 0.273740
v -0.000857 0.008800 0.269687
v 0.003249 0.020739 0.269272
v 0.005493 0.004240 0.268323
v -0.000383 -0.005958 0.270807
v -0.006259 0.004240 0.273292
v -0.004015 0.020739 0.272343
v 0.006259 0.013360 0.270135
v 0.004015 -0.003139 0.271084
v -0.003249 -0.003139 0.274155
v -0.005493 0.013360 0.275104
v 0.000383 0.023558 0.272620
v 0.000857 0.008800 0.273740
v -0.008049 0.003658 0.269687
v -0.016337 0.013183 0.269272
v -0.000925 0.006877 0.268323
v 0.004968 -0.003311 0.270807
v -0.006801 -0.003301 0.273292
v -0.019968 0.006893 0.272343
v -0.008441 0.012101 0.270135
v 0.004726 0.001907 0.271084
v 0.001095 -0.004383 0.274155
v -0.014317 0.001923 0.275104
v -0.020210 0.012111 0.272620
v -0.007193 0.005142 0.273740
v -0.054000 -0.030695 0.217960
v -0.072995 -0.025159 0.218812
v -0.046745 -0.021974 0.218167
v -0.030521 -0.030311 0.219857
v -0.046745 -0.038648 0.221547
v -0.072995 -0.035463 0.220901
v -0.061255 -0.021352 0.221235
v -0.035006 -0.024537 0.221880
v -0.035006 -0.034841 0.223969
v -0.061255 -0.038026 0.224615
v -0.077479 -0.029689 0.222925
v -0.054000 -0.029305 0.224821
v -0.050918 -0.038792 0.217960
v -0.069539 -0.045477 0.218812
v -0.050174 -0.027471 0.218167
v -0.032149 -0.024680 0.219857
v -0.040374 -0.040961 0.221547
v -0.063482 -0.053814 0.220901
v -0.062279 -0.035497 0.221235
v -0.039171 -0.022644 0.221880
v -0.033114 -0.030981 0.223969
v -0.052478 -0.048987 0.224615
v -0.070504 -0.051778 0.222925
v -0.051735 -0.037666 0.224821
v -0.043665 -0.043530 0.217960
v -0.054800 -0.059884 0.218812
v -0.049717 -0.033935 0.218167
v -0.036775 -0.021081 0.219857
v -0.033860 -0.039087 0.221547
v -0.045000 -0.063068 0.220901
v -0.054793 -0.047542 0.221235
v -0.043653 -0.023562 0.221880
v -0.033852 -0.026746 0.223969
v -0.038935 -0.052695 0.224615
v -0.051877 -0.065548 0.222925
v -0.044988 -0.043100 0.224821
v -0.035012 -0.043100 0.217960
v -0.034409 -0.062876 0.218812
v -0.045549 -0.038895 0.218167
v -0.042633 -0.020889 0.219857
v -0.029691 -0.033742 0.221547
v -0.024608 -0.059691 0.220901
v -0.041656 -0.052887 0.221235
v -0.046739 -0.026938 0.221880
v -0.036939 -0.023754 0.223969
v -0.025799 -0.047735 0.224615
v -0.028714 -0.065740 0.222925
v -0.036335 -0.043530 0.224821
v -0.028265 -0.037666 0.217960
v -0.016153 -0.053310 0.218812
v -0.039261 -0.040458 0.218167
v -0.047486 -0.024177 0.219857
v -0.029460 -0.026968 0.221547
v -0.010096 -0.044974 0.220901
v -0.027887 -0.049490 0.221235
v -0.047252 -0.031484 0.221880
v -0.041195 -0.023148 0.223969
v -0.018087 -0.036000 0.224615
v -0.009862 -0.052281 0.222925
v -0.029082 -0.038792 0.224821
v -0.026000 -0.029305 0.217960
v -0.007006 -0.034841 0.218812
v -0.033255 -0.038026 0.218167
v -0.049479 -0.029689 0.219857
v -0.033255 -0.021352 0.221547
v -0.007006 -0.024537 0.220901
v -0.018745 -0.038648 0.221235
v -0.044994 -0.035463 0.221880
v -0.044994 -0.025159 0.223969
v -0.018745 -0.021974 0.224615
v -0.002521 -0.030311 0.222925
v -0.026000 -0.030695 0.224821
v -0.029082 -0.021208 0.217960
v -0.010461 -0.014523 0.218812
v -0.029826 -0.032529 0.218167
v -0.047851 -0.035320 0.219857
v -0.039626 -0.019039 0.221547
v -0.016518 -0.006186 0.220901
v -0.017721 -0.024503 0.221235
v -0.040829 -0.037356 0.221880
v -0.046886 -0.029019 0.223969
v -0.027522 -0.011013 0.224615
v -0.009496 -0.008222 0.222925
v -0.028265 -0.022334 0.224821
v -0.036335 -0.016470 0.217960
v -0.025200 -0.000116 0.218812
v -0.030283 -0.026065 0.218167
v -0.043225 -0.038919 0.219857
v -0.046140 -0.020913 0.221547
v -0.035000 0.003068 0.220901
v -0.025207 -0.012458 0.221235
v -0.036347 -0.036438 0.221880
v -0.046148 -0.033254 0.223969
v -0.041065 -0.007305 0.224615
v -0.028123 0.005548 0.222925
v -0.035012 -0.016900 0.224821
v -0.044988 -0.016900 0.217960
v -0.045591 0.002876 0.218812
v -0.034451 -0.021105 0.218167
v -0.037367 -0.039111 0.219857
v -0.050309 -0.026258 0.221547
v -0.055392 -0.000309 0.220901
v -0.038344 -0.007113 0.221235
v -0.033261 -0.033062 0.221880
v -0.043061 -0.036246 0.223969
v -0.054201 -0.012265 0.224615
v -0.051286 0.005740 0.222925
v -0.043665 -0.016470 0.224821
v -0.051735 -0.022334 0.217960
v -0.063847 -0.006690 0.218812
v -0.040739 -0.019542 0.218167
v -0.032514 -0.035823 0.219857
v -0.050540 -0.033032 0.221547
v -0.069904 -0.015026 0.220901
v -0.052113 -0.010510 0.221235
v -0.032748 -0.028516 0.221880
v -0.038805 -0.036853 0.223969
v -0.061913 -0.024000 0.224615
v -0.070138 -0.007719 0.222925
v -0.050918 -0.021208 0.224821
v -0.047193 -0.035142 0.219687
v -0.059585 -0.037556 0.219272
v -0.046418 -0.027363 0.218323
v -0.034649 -0.027353 0.220807
v -0.040542 -0.037541 0.223292
v -0.055953 -0.043847 0.222343
v -0.054700 -0.031259 0.220135
v -0.039289 -0.024953 0.221084
v -0.035657 -0.031244 0.224155
v -0.048824 -0.041437 0.225104
v -0.060593 -0.041447 0.222620
v -0.048049 -0.033658 0.223740
v -0.039143 -0.038800 0.219687
v -0.043249 -0.050739 0.219272
v -0.045493 -0.034240 0.218323
v -0.039617 -0.024042 0.220807
v -0.033741 -0.034240 0.223292
v -0.035985 -0.050739 0.222343
v -0.046259 -0.043360 0.220135
v -0.044015 -0.026861 0.221084
v -0.036751 -0.026861 0.224155
v -0.034507 -0.043360 0.225104
v -0.040383 -0.053558 0.222620
v -0.040857 -0.038800 0.223740
v -0.031951 -0.033658 0.219687
v -0.023663 -0.043183 0.219272
v -0.039075 -0.036877 0.218323
v -0.044968 -0.026689 0.220807
v -0.033199 -0.026699 0.223292
v -0.020032 -0.036893 0.222343
v -0.031559 -0.042101 0.220135
v -0.044726 -0.031907 0.221084
v -0.041095 -0.025617 0.224155
v -0.025683 -0.031923 0.225104
v -0.019790 -0.042111 0.222620
v -0.032807 -0.035142 0.223740
v -0.032807 -0.024858 0.219687
v -0.020415 -0.022444 0.219272
v -0.033582 -0.032637 0.218323
v -0.045351 -0.032647 0.220807
v -0.039458 -0.022459 0.223292
v -0.024047 -0.016153 0.222343
v -0.025300 -0.028741 0.220135
v -0.040711 -0.035047 0.221084
v -0.044343 -0.028756 0.224155
v -0.031176 -0.018563 0.225104
v -0.019407 -0.018553 0.222620
v -0.031951 -0.026342 0.223740
v -0.040857 -0.021200 0.219687
v -0.036751 -0.009261 0.219272
v -0.034507 -0.025760 0.218323
v -0.040383 -0.035958 0.220807
v -0.046259 -0.025760 0.223292
v -0.044015 -0.009261 0.222343
v -0.033741 -0.016640 0.220135
v -0.035985 -0.033139 0.221084
v -0.043249 -0.033139 0.224155
v -0.045493 -0.016640 0.225104
v -0.039617 -0.006442 0.222620
v -0.039143 -0.021200 0.223740
v -0.048049 -0.026342 0.219687
v -0.056337 -0.016817 0.219272
v -0.040925 -0.023123 0.218323
v -0.035032 -0.033311 0.220807
v -0.046801 -0.033301 0.223292
v -0.059968 -0.023107 0.222343
v -0.048441 -0.017899 0.220135
v -0.035274 -0.028093 0.221084
v -0.038905 -0.034383 0.224155
v -0.054317 -0.028077 0.225104
v -0.060210 -0.017889 0.222620
v -0.047193 -0.024858 0.223740
v 0.026000 0.019305 0.237960
v 0.007006 0.024841 0.238812
v 0.033255 0.028026 0.238167
v 0.049479 0.019689 0.239857
v 0.033255 0.011352 0.241547
v 0.007006 0.014537 0.240901
v 0.018745 0.028648 0.241235
v 0.044994 0.025463 0.241880
v 0.044994 0.015159 0.243969
v 0.018745 0.011974 0.244615
v 0.002521 0.020311 0.242925
v 0.026000 0.020695 0.244821
v 0.029082 0.011208 0.237960
v 0.010461 0.004523 0.238812
v 0.029826 0.022529 0.238167
v 0.047851 0.025320 0.239857
v 0.039626 0.009039 0.241547
v 0.016518 -0.003814 0.240901
v 0.017721 0.014503 0.241235
v 0.040829 0.027356 0.241880
v 0.046886 0.019019 0.243969
v 0.027522 0.001013 0.244615
v 0.009496 -0.001778 0.242925
v 0.028265 0.012334 0.244821
v 0.036335 0.006470 0.237960
v 0.025200 -0.009884 0.238812
v 0.030283 0.016065 0.238167
v 0.043225 0.028919 0.239857
v 0.046140 0.010913 0.241547
v 0.035000 -0.013068 0.240901
v 0.025207 0.002458 0.241235
v 0.036347 0.026438 0.241880
v 0.046148 0.023254 0.243969
v 0.041065 -0.002695 0.244615
v 0.028123 -0.015548 0.242925
v 0.035012 0.006900 0.244821
v 0.044988 0.006900 0.237960
v 0.045591 -0.012876 0.238812
v 0.034451 0.011105 0.238167
v 0.037367 0.029111 0.239857
v 0.050309 0.016258 0.241547
v 0.055392 -0.009691 0.240901
v 0.038344 -0.002887 0.241235
v 0.033261 0.023062 0.241880
v 0.043061 0.026246 0.243969
v 0.054201 0.002265 0.244615
v 0.051286 -0.015740 0.242925
v 0.043665 0.006470 0.244821
v 0.051735 0.012334 0.237960
v 0.063847 -0.003310 0.238812
v 0.040739 0.009542 0.238167
v 0.032514 0.025823 0.239857
v 0.050540 0.023032 0.241547
v 0.069904 0.005026 0.240901
v 0.052113 0.000510 0.241235
v 0.032748 0.018516 0.241880
v 0.038805 0.026852 0.243969
v 0.061913 0.014000 0.244615
v 0.070138 -0.002281 0.242925
v 0.050918 0.011208 0.244821
v 0.054000 0.020695 0.237960
v 0.072995 0.015159 0.238812
v 0.046745 0.011974 0.238167
v 0.030521 0.020311 0.239857
v 0.046745 0.028648 0.241547
v 0.072995 0.025463 0.240901
v 0.061255 0.011352 0.241235
v 0.035006 0.014537 0.241880
v 0.035006 0.024841 0.243969
v 0.061255 0.028026 0.244615
v 0.077479 0.019689 0.242925
v 0.054000 0.019305 0.244821
v 0.050918 0.028792 0.237960
v 0.069539 0.035477 0.238812
v 0.050174 0.017471 0.238167
v 0.032149 0.014680 0.239857
v 0.040374 0.030961 0.241547
v 0.063482 0.043814 0.240901
v 0.062279 0.025497 0.241235
v 0.039171 0.012644 0.241880
v 0.033114 0.020981 0.243969
v 0.052478 0.038987 0.244615
v 0.070504 0.041778 0.242925
v 0.051735 0.027666 0.244821
v 0.043665 0.033530 0.237960
v 0.054800 0.049884 0.238812
v 0.049717 0.023935 0.238167
v 0.036775 0.011081 0.239857
v 0.033860 0.029087 0.241547
v 0.045000 0.053068 0.240901
v 0.054793 0.037542 0.241235
v 0.043653 0.013562 0.241880
v 0.033852 0.016746 0.243969
v 0.038935 0.042695 0.244615
v 0.051877 0.055548 0.242925
v 0.044988 0.033100 0.244821
v 0.035012 0.033100 0.237960
v 0.034409 0.052876 0.238812
v 0.045549 0.028895 0.238167
v 0.042633 0.010889 0.239857
v 0.029691 0.023742 0.241547
v 0.024608 0.049691 0.240901
v 0.041656 0.042887 0.241235
v 0.046739 0.016938 0.241880
v 0.036939 0.013754 0.243969
v 0.025799 0.037735 0.244615
v 0.028714 0.055740 0.242925
v 0.036335 0.033530 0.244821
v 0.028265 0.027666 0.237960
v 0.016153 0.043310 0.238812
v 0.039261 0.030458 0.238167
v 0.047486 0.014177 0.239857
v 0.029460 0.016968 0.241547
v 0.010096 0.034974 0.240901
v 0.027887 0.039490 0.241235
v 0.047252 0.021484 0.241880
v 0.041195 0.013148 0.243969
v 0.018087 0.026000 0.244615
v 0.009862 0.042281 0.242925
v 0.029082 0.028792 0.244821
v 0.032807 0.014858 0.239687
v 0.020415 0.012444 0.239272
v 0.033582 0.022637 0.238323
v 0.045351 0.022647 0.240807
v 0.039458 0.012459 0.243292
v 0.024047 0.006153 0.242343
v 0.025300 0.018741 0.240135
v 0.040711 0.025047 0.241084
v 0.044343 0.018756 0.244155
v 0.031176 0.008563 0.245104
v 0.019407 0.008553 0.242620
v 0.031951 0.016342 0.243740
v 0.040857 0.011200 0.239687
v 0.036751 -0.000739 0.239272
v 0.034507 0.015760 0.238323
v 0.040383 0.025958 0.240807
v 0.046259 0.015760 0.243292
v 0.044015 -0.000739 0.242343
v 0.033741 0.006640 0.240135
v 0.035985 0.023139 0.241084
v 0.043249 0.023139 0.244155
v 0.045493 0.006640 0.245104
v 0.039617 -0.003558 0.242620
v 0.039143 0.011200 0.243740
v 0.048049 0.016342 0.239687
v 0.056337 0.006817 0.239272
v 0.040925 0.013123 0.238323
v 0.035032 0.023311 0.240807
v 0.046801 0.023301 0.243292
v 0.059968 0.013107 0.242343
v 0.048441 0.007899 0.240135
v 0.035274 0.018093 0.241084
v 0.038905 0.024383 0.244155
v 0.054317 0.018077 0.245104
v 0.060210 0.007889 0.242620
v 0.047193 0.014858 0.243740
v 0.047193 0.025142 0.239687
v 0.059585 0.027556 0.239272
v 0.046418 0.017363 0.238323
v 0.034649 0.017353 0.240807
v 0.040542 0.027541 0.243292
v 0.055953 0.033847 0.242343
v 0.054700 0.021259 0.240135
v 0.039289 0.014953 0.241084
v 0.035657 0.021244 0.244155
v 0.048824 0.031437 0.245104
v 0.060593 0.031447 0.242620
v 0.048049 0.023658 0.243740
v 0.039143 0.028800 0.239687
v 0.043249 0.040739 0.239272
v 0.045493 0.024240 0.238323
v 0.039617 0.014042 0.240807
v 0.033741 0.024240 0.243292
v 0.035985 0.040739 0.242343
v 0.046259 0.033360 0.240135
v 0.044015 0.016861 0.241084
v 0.036751 0.016861 0.244155
v 0.034507 0.033360 0.245104
v 0.040383 0.043558 0.242620
v 0.040857 0.028800 0.243740
v 0.031951 0.023658 0.239687
v 0.023663 0.033183 0.239272
v 0.039075 0.026877 0.238323
v 0.044968 0.016689 0.240807
v 0.033199 0.016699 0.243292
v 0.020032 0.026893 0.242343
v 0.031559 0.032101 0.240135
v 0.044726 0.021907 0.241084
v 0.041095 0.015617 0.244155
v 0.025683 0.021923 0.245104
v 0.019790 0.032111 0.242620
v 0.032807 0.025142 0.243740
vn -0.3090 -0.9511 -0.0000
vn -0.8090 -0.5878 -0.0000
vn -1.0000 -0.0000 -0.0000
vn -0.8090 0.5878 -0.0000
vn -0.3090 0.9511 -0.0000
vn 0.3090 0.9511 -0.0000
vn 0.8090 0.5878 -0.0000
vn 1.0000 -0.0000 -0.0000
vn -0.0000 -0.0000 1.0000
vn 0.8090 -0.5878 -0.0000
vn 0.3090 -0.9511 -0.0000
vn -0.0000 -0.0000 -1.0000
vn -0.5878 -0.8090 -0.0000
vn -0.9511 0.3090 -0.0000
vn -0.0000 1.0000 -0.0000
vn 0.9511 0.3090 -0.0000
vn 0.5878 -0.8090 -0.0000
vn -0.0203 -0.1877 -0.9820
vn -0.0714 -0.5632 -0.8232
vn 0.0559 -0.3300 -0.9423
vn 0.0559 -0.7587 -0.6490
vn -0.0203 -0.8472 -0.5308
vn -0.4406 -0.5069 -0.7409
vn -0.0481 0.6028 -0.7965
vn 0.1858 0.4489 -0.8740
vn 0.1858 -0.9773 0.1017
vn -0.0481 -0.9608 0.2732
vn -0.1858 0.9773 -0.1017
vn 0.0481 0.9608 -0.2732
vn 0.4406 0.5069 0.7409
vn 0.0481 -0.6028 0.7965
vn -0.1858 -0.4489 0.8740
vn -0.0559 0.7587 0.6490
vn 0.0203 0.8472 0.5308
vn 0.0714 0.5632 0.8232
vn 0.0203 0.1877 0.9820
vn -0.0559 0.3300 0.9423
vn 0.1525 -0.1114 -0.9820
vn 0.4520 -0.3435 -0.8232
vn 0.3137 -0.1166 -0.9423
vn 0.6850 -0.3310 -0.6490
vn 0.7236 -0.4412 -0.5308
vn 0.2186 -0.6350 -0.7409
vn -0.5461 0.2597 -0.7965
vn -0.2959 0.3854 -0.8740
vn 0.9393 -0.3277 0.1017
vn 0.8080 -0.5220 0.2732
vn -0.9393 0.3277 -0.1017
vn -0.8080 0.5220 -0.2732
vn -0.2186 0.6350 0.7409
vn 0.5461 -0.2597 0.7965
vn 0.2959 -0.3854 0.8740
vn -0.6850 0.3310 0.6490
vn -0.7236 0.4412 0.5308
vn -0.4520 0.3435 0.8232
vn -0.1525 0.1114 0.9820
vn -0.3137 0.1166 0.9423
vn 0.1727 0.0763 -0.9820
vn 0.5235 0.2197 -0.8232
vn 0.2578 0.2134 -0.9423
vn 0.6291 0.4277 -0.6490
vn 0.7439 0.4061 -0.5308
vn 0.6593 -0.1282 -0.7409
vn -0.4980 -0.3430 -0.7965
vn -0.4817 -0.0635 -0.8740
vn 0.7535 0.6496 0.1017
vn 0.8561 0.4387 0.2732
vn -0.7535 -0.6496 -0.1017
vn -0.8561 -0.4387 -0.2732
vn -0.6593 0.1282 0.7409
vn 0.4980 0.3430 0.7965
vn 0.4817 0.0635 0.8740
vn -0.6291 -0.4277 0.6490
vn -0.7439 -0.4061 0.5308
vn -0.5235 -0.2197 0.8232
vn -0.1727 -0.0763 0.9820
vn -0.2578 -0.2134 0.9423
vn 0.0203 0.1877 -0.9820
vn 0.0714 0.5632 -0.8232
vn -0.0559 0.3300 -0.9423
vn -0.0559 0.7587 -0.6490
vn 0.0203 0.8472 -0.5308
vn 0.4406 0.5069 -0.7409
vn 0.0481 -0.6028 -0.7965
vn -0.1858 -0.4489 -0.8740
vn -0.1858 0.9773 0.1017
vn 0.0481 0.9608 0.2732
vn 0.1858 -0.9773 -0.1017
vn -0.0481 -0.9608 -0.2732
vn -0.4406 -0.5069 0.7409
vn -0.0481 0.6028 0.7965
vn 0.1858 0.4489 0.8740
vn 0.0559 -0.7587 0.6490
vn -0.0203 -0.8472 0.5308
vn -0.0714 -0.5632 0.8232
vn -0.0203 -0.1877 0.9820
vn 0.0559 -0.3300 0.9423
vn -0.1525 0.1114 -0.9820
vn -0.4520 0.3435 -0.8232
vn -0.3137 0.1166 -0.9423
vn -0.6850 0.3310 -0.6490
vn -0.7236 0.4412 -0.5308
vn -0.2186 0.6350 -0.7409
vn 0.5461 -0.2597 -0.7965
vn 0.2959 -0.3854 -0.8740
vn -0.9393 0.3277 0.1017
vn -0.8080 0.5220 0.2732
vn 0.9393 -0.3277 -0.1017
vn 0.8080 -0.5220 -0.2732
vn 0.2186 -0.6350 0.7409
vn -0.5461 0.2597 0.7965
vn -0.2959 0.3854 0.8740
vn 0.6850 -0.3310 0.6490
vn 0.7236 -0.4412 0.5308
vn 0.4520 -0.3435 0.8232
vn 0.1525 -0.1114 0.9820
vn 0.3137 -0.1166 0.9423
vn -0.1727 -0.0763 -0.9820
vn -0.5235 -0.2197 -0.8232
vn -0.2578 -0.2134 -0.9423
vn -0.6291 -0.4277 -0.6490
vn -0.7439 -0.4061 -0.5308
vn -0.6593 0.1282 -0.7409
vn 0.4980 0.3430 -0.7965
vn 0.4817 0.0635 -0.8740
vn -0.7535 -0.6496 0.1017
vn -0.8561 -0.4387 0.2732
vn 0.7535 0.6496 -0.1017
vn 0.8561 0.4387 -0.2732
vn 0.6593 -0.1282 0.7409
vn -0.4980 -0.3430 0.7965
vn -0.4817 -0.0635 0.8740
vn 0.6291 0.4277 0.6490
vn 0.7439 0.4061 0.5308
vn 0.5235 0.2197 0.8232
vn 0.1727 0.0763 0.9820
vn 0.2578 0.2134 0.9423
vn -0.0305 0.0490 -0.9983
vn -0.1013 -0.1976 -0.9750
vn 0.0811 -0.0440 -0.9957
vn 0.0811 -0.3473 -0.9342
vn -0.0305 -0.4339 -0.9005
vn -0.5724 -0.1629 -0.8036
vn -0.1067 0.7469 -0.6563
vn 0.3587 0.5443 -0.7583
vn 0.3587 -0.7967 -0.4865
vn -0.1068 -0.9435 -0.3136
vn -0.3587 0.7967 0.4865
vn 0.1068 0.9435 0.3136
vn 0.5724 0.1629 0.8036
vn 0.1068 -0.7469 0.6563
vn -0.3587 -0.5443 0.7583
vn -0.0811 0.3473 0.9342
vn 0.0305 0.4339 0.9005
vn 0.1013 0.1976 0.9750
vn 0.0305 -0.0490 0.9983
vn -0.0811 0.0440 0.9957
vn -0.0535 0.0217 -0.9983
vn 0.0342 -0.2195 -0.9750
vn 0.0915 0.0121 -0.9957
vn 0.2698 -0.2333 -0.9342
vn 0.2304 -0.3689 -0.9005
vn -0.3674 -0.4683 -0.8036
vn -0.5254 0.5415 -0.6563
vn -0.0297 0.6512 -0.7583
vn 0.7585 -0.4337 -0.4865
vn 0.4682 -0.8261 -0.3136
vn -0.7585 0.4337 0.4865
vn -0.4682 0.8261 0.3136
vn 0.3674 0.4683 0.8036
vn 0.5254 -0.5415 0.6563
vn 0.0297 -0.6512 0.7583
vn -0.2698 0.2333 0.9342
vn -0.2304 0.3689 0.9005
vn -0.0342 0.2195 0.9750
vn 0.0535 -0.0217 0.9983
vn -0.0915 -0.0121 0.9957
vn -0.0560 -0.0139 -0.9983
vn 0.1567 -0.1575 -0.9750
vn 0.0669 0.0636 -0.9957
vn 0.3553 -0.0301 -0.9342
vn 0.4032 -0.1631 -0.9005
vn -0.0220 -0.5948 -0.8036
vn -0.7434 0.1293 -0.6563
vn -0.4068 0.5093 -0.7583
vn 0.8685 0.0950 -0.4865
vn 0.8644 -0.3931 -0.3136
vn -0.8685 -0.0950 0.4865
vn -0.8644 0.3931 0.3136
vn 0.0220 0.5948 0.8036
vn 0.7434 -0.1293 0.6563
vn 0.4068 -0.5093 0.7583
vn -0.3553 0.0301 0.9342
vn -0.4032 0.1631 0.9005
vn -0.1567 0.1575 0.9750
vn 0.0560 0.0139 0.9983
vn -0.0669 -0.0636 0.9957
vn -0.0372 -0.0441 -0.9983
vn 0.2193 -0.0353 -0.9750
vn 0.0167 0.0907 -0.9957
vn 0.3052 0.1845 -0.9342
vn 0.4221 0.1051 -0.9005
vn 0.3318 -0.4941 -0.8036
vn -0.6774 -0.3323 -0.6563
vn -0.6285 0.1729 -0.7583
vn 0.6468 0.5873 -0.4865
vn 0.9303 0.1900 -0.3136
vn -0.6468 -0.5873 0.4865
vn -0.9303 -0.1900 0.3136
vn -0.3318 0.4941 0.8036
vn 0.6774 0.3323 0.6563
vn 0.6285 -0.1729 0.7583
vn -0.3052 -0.1845 0.9342
vn -0.4221 -0.1051 0.9005
vn -0.2193 0.0353 0.9750
vn 0.0372 0.0441 0.9983
vn -0.0167 -0.0907 0.9957
vn -0.0041 -0.0575 -0.9983
vn 0.1982 0.1003 -0.9750
vn -0.0398 0.0832 -0.9957
vn 0.1385 0.3286 -0.9342
vn 0.2797 0.3331 -0.9005
vn 0.5589 -0.2047 -0.8036
vn -0.3527 -0.6670 -0.6563
vn -0.6101 -0.2295 -0.7583
vn 0.1781 0.8553 -0.4865
vn 0.6409 0.7006 -0.3136
vn -0.1781 -0.8553 0.4865
vn -0.6410 -0.7006 0.3136
vn -0.5589 0.2047 0.8036
vn 0.3527 0.6670 0.6563
vn 0.6101 0.2295 0.7583
vn -0.1385 -0.3286 0.9342
vn -0.2797 -0.3331 0.9005
vn -0.1982 -0.1003 0.9750
vn 0.0041 0.0575 0.9983
vn 0.0398 -0.0832 0.9957
vn 0.0305 -0.0490 -0.9983
vn 0.1013 0.1976 -0.9750
vn -0.0811 0.0440 -0.9957
vn -0.0811 0.3473 -0.9342
vn 0.0305 0.4339 -0.9005
vn 0.5724 0.1629 -0.8036
vn 0.1068 -0.7469 -0.6563
vn -0.3587 -0.5443 -0.7583
vn -0.3587 0.7967 -0.4865
vn 0.1068 0.9435 -0.3136
vn 0.3587 -0.7967 0.4865
vn -0.1068 -0.9435 0.3136
vn -0.5724 -0.1629 0.8036
vn -0.1068 0.7469 0.6563
vn 0.3587 0.5443 0.7583
vn 0.0811 -0.3473 0.9342
vn -0.0305 -0.4339 0.9005
vn -0.1013 -0.1976 0.9750
vn -0.0305 0.0490 0.9983
vn 0.0811 -0.0440 0.9957
vn 0.0535 -0.0217 -0.9983
vn -0.0342 0.2195 -0.9750
vn -0.0915 -0.0121 -0.9957
vn -0.2698 0.2333 -0.9342
vn -0.2304 0.3689 -0.9005
vn 0.3674 0.4683 -0.8036
vn 0.5254 -0.5415 -0.6563
vn 0.0297 -0.6512 -0.7583
vn -0.7585 0.4337 -0.4865
vn -0.4682 0.8261 -0.3136
vn 0.7585 -0.4337 0.4865
vn 0.4682 -0.8261 0.3136
vn -0.3674 -0.4683 0.8036
vn -0.5254 0.5415 0.6563
vn -0.0297 0.6512 0.7583
vn 0.2698 -0.2333 0.9342
vn 0.2304 -0.3689 0.9005
vn 0.0342 -0.2195 0.9750
vn -0.0535 0.0217 0.9983
vn 0.0915 0.0121 0.9957
vn 0.0560 0.0139 -0.9983
vn -0.1567 0.1575 -0.9750
vn -0.0669 -0.0636 -0.9957
vn -0.3554 0.0301 -0.9342
vn -0.4032 0.1631 -0.9005
vn 0.0220 0.5948 -0.8036
vn 0.7434 -0.1293 -0.6563
vn 0.4068 -0.5093 -0.7583
vn -0.8685 -0.0950 -0.4865
vn -0.8644 0.3931 -0.3136
vn 0.8685 0.0950 0.4865
vn 0.8644 -0.3931 0.3136
vn -0.0220 -0.5948 0.8036
vn -0.7434 0.1293 0.6563
vn -0.4068 0.5093 0.7583
vn 0.3553 -0.0301 0.9342
vn 0.4032 -0.1631 0.9005
vn 0.1567 -0.1575 0.9750
vn -0.0560 -0.0139 0.9983
vn 0.0669 0.0636 0.9957
vn 0.0372 0.0441 -0.9983
vn -0.2193 0.0353 -0.9750
vn -0.0167 -0.0907 -0.9957
vn -0.3052 -0.1845 -0.9342
vn -0.4221 -0.1051 -0.9005
vn -0.3318 0.4941 -0.8036
vn 0.6774 0.3323 -0.6563
vn 0.6285 -0.1729 -0.7583
vn -0.6468 -0.5873 -0.4865
vn -0.9303 -0.1900 -0.3136
vn 0.6468 0.5873 0.4865
vn 0.9303 0.1900 0.3136
vn 0.3318 -0.4941 0.8036
vn -0.6774 -0.3323 0.6563
vn -0.6285 0.1729 0.7583
vn 0.3052 0.1845 0.9342
vn 0.4221 0.1051 0.9005
vn 0.2193 -0.0353 0.9750
vn -0.0372 -0.0441 0.9983
vn 0.0167 0.0907 0.9957
vn 0.0041 0.0575 -0.9983
vn -0.1982 -0.1003 -0.9750
vn 0.0398 -0.0832 -0.9957
vn -0.1385 -0.3286 -0.9342
vn -0.2797 -0.3331 -0.9005
vn -0.5589 0.2047 -0.8036
vn 0.3527 0.6670 -0.6563
vn 0.6101 0.2295 -0.7583
vn -0.1781 -0.8553 -0.4865
vn -0.6410 -0.7006 -0.3136
vn 0.1781 0.8553 0.4865
vn 0.6410 0.7006 0.3136
vn 0.5589 -0.2047 0.8036
vn -0.3527 -0.6670 0.6563
vn -0.6101 -0.2295 0.7583
vn 0.1385 0.3286 0.9342
vn 0.2797 0.3331 0.9005
vn 0.1982 0.1003 0.9750
vn -0.0041 -0.0575 0.9983
vn -0.0398 0.0832 0.9957
vn 0.0677 -0.1789 -0.9815
vn 0.1059 -0.3862 -0.9163
vn 0.2030 -0.1887 -0.9608
vn 0.3229 -0.3964 -0.8595
vn 0.2596 -0.5113 -0.8193
vn -0.3361 -0.5627 -0.7552
vn -0.3728 0.4038 -0.8355
vn 0.1835 0.4554 -0.8712
vn 0.7527 -0.5305 -0.3898
vn 0.3816 -0.9030 -0.1975
vn -0.7527 0.5305 0.3898
vn -0.3816 0.9030 0.1975
vn 0.3361 0.5627 0.7552
vn 0.3728 -0.4038 0.8355
vn -0.1835 -0.4554 0.8712
vn -0.3229 0.3964 0.8595
vn -0.2596 0.5113 0.8193
vn -0.1060 0.3862 0.9163
vn -0.0677 0.1789 0.9815
vn -0.2030 0.1887 0.9608
vn 0.1888 -0.0308 -0.9815
vn 0.3874 -0.1013 -0.9163
vn 0.2649 0.0814 -0.9608
vn 0.5047 0.0814 -0.8595
vn 0.5726 -0.0308 -0.8193
vn 0.3193 -0.5724 -0.7552
vn -0.5361 -0.1210 -0.8355
vn -0.3026 0.3866 -0.8712
vn 0.8358 0.3866 -0.3898
vn 0.9728 -0.1210 -0.1975
vn -0.8358 -0.3866 0.3898
vn -0.9728 0.1210 0.1975
vn -0.3193 0.5724 0.7552
vn 0.5361 0.1210 0.8355
vn 0.3026 -0.3866 0.8712
vn -0.5047 -0.0814 0.8595
vn -0.5726 0.0308 0.8193
vn -0.3874 0.1013 0.9163
vn -0.1888 0.0308 0.9815
vn -0.2649 -0.0814 0.9608
vn 0.1210 0.1481 -0.9815
vn 0.2815 0.2848 -0.9163
vn 0.0619 0.2701 -0.9608
vn 0.1818 0.4778 -0.8595
vn 0.3129 0.4805 -0.8193
vn 0.6554 -0.0097 -0.7552
vn -0.1633 -0.5247 -0.8355
vn -0.4862 -0.0688 -0.8712
vn 0.0831 0.9171 -0.3898
vn 0.5912 0.7820 -0.1975
vn -0.0831 -0.9171 0.3898
vn -0.5912 -0.7820 0.1975
vn -0.6554 0.0097 0.7552
vn 0.1633 0.5247 0.8355
vn 0.4862 0.0688 0.8712
vn -0.1818 -0.4778 0.8595
vn -0.3129 -0.4805 0.8193
vn -0.2815 -0.2848 0.9163
vn -0.1210 -0.1481 0.9815
vn -0.0619 -0.2701 0.9608
vn -0.0677 0.1789 -0.9815
vn -0.1059 0.3862 -0.9163
vn -0.2030 0.1887 -0.9608
vn -0.3229 0.3964 -0.8595
vn -0.2596 0.5113 -0.8193
vn 0.3361 0.5627 -0.7552
vn 0.3728 -0.4038 -0.8355
vn -0.1835 -0.4554 -0.8712
vn -0.7527 0.5305 -0.3898
vn -0.3816 0.9030 -0.1975
vn 0.7527 -0.5305 0.3898
vn 0.3816 -0.9030 0.1975
vn -0.3361 -0.5627 0.7552
vn -0.3728 0.4038 0.8355
vn 0.1835 0.4554 0.8712
vn 0.3229 -0.3964 0.8595
vn 0.2596 -0.5113 0.8193
vn 0.1060 -0.3862 0.9163
vn 0.0677 -0.1789 0.9815
vn 0.2030 -0.1887 0.9608
vn -0.1888 0.0308 -0.9815
vn -0.3874 0.1013 -0.9163
vn -0.2649 -0.0814 -0.9608
vn -0.5047 -0.0814 -0.8595
vn -0.5726 0.0308 -0.8193
vn -0.3193 0.5724 -0.7552
vn 0.5361 0.1210 -0.8355
vn 0.3027 -0.3866 -0.8712
vn -0.8358 -0.3866 -0.3898
vn -0.9728 0.1210 -0.1975
vn 0.8358 0.3866 0.3898
vn 0.9728 -0.1210 0.1975
vn 0.3193 -0.5724 0.7552
vn -0.5361 -0.1210 0.8354
vn -0.3026 0.3866 0.8712
vn 0.5047 0.0814 0.8595
vn 0.5726 -0.0308 0.8193
vn 0.3874 -0.1013 0.9163
vn 0.1888 -0.0308 0.9815
vn 0.2649 0.0814 0.9608
vn -0.1210 -0.1481 -0.9815
vn -0.2815 -0.2848 -0.9163
vn -0.0619 -0.2701 -0.9608
vn -0.1818 -0.4778 -0.8595
vn -0.3129 -0.4805 -0.8193
vn -0.6554 0.0097 -0.7552
vn 0.1633 0.5247 -0.8355
vn 0.4862 0.0688 -0.8712
vn -0.0831 -0.9171 -0.3898
vn -0.5912 -0.7820 -0.1975
vn 0.0831 0.9171 0.3898
vn 0.5912 0.7820 0.1975
vn 0.6554 -0.0097 0.7552
vn -0.1633 -0.5247 0.8355
vn -0.4862 -0.0688 0.8712
vn 0.1818 0.4778 0.8595
vn 0.3129 0.4805 0.8193
vn 0.2815 0.2848 0.9163
vn 0.1210 0.1481 0.9815
vn 0.0619 0.2701 0.9608
vn -0.1068 0.7469 -0.6563
vn 0.3554 -0.0301 -0.9342
vn -0.3554 0.0301 0.9342
vn 0.6410 0.7006 -0.3136
vn 0.3554 -0.0301 0.9342
vn 0.3728 -0.4038 0.8354
vn -0.1059 0.3862 0.9163
vn -0.5361 -0.1210 -0.8354
vn -0.3027 0.3866 -0.8712
vn 0.5361 0.1210 0.8354
vn 0.3027 -0.3866 0.8712
vn -0.1633 -0.5248 -0.8354
vn 0.1633 0.5248 0.8354
vn 0.1059 -0.3862 0.9163
vn -0.3027 0.3866 0.8712
vn 0.1633 0.5248 -0.8354
vn -0.1633 -0.5248 0.8354
vn 0.1067 -0.7469 -0.6563
vn 0.0678 -0.1789 -0.9815
vn 0.1060 -0.3862 -0.9163
vn -0.3728 0.4038 -0.8354
vn 0.4862 0.0688 0.8711
vn -0.0678 0.1789 -0.9815
vn -0.1060 0.3862 -0.9163
vn 0.3728 -0.4038 -0.8354
vn -0.3728 0.4038 0.8354
vn 0.5361 0.1210 -0.8354
vn -0.4862 -0.0688 0.8711
vt 1.000000 0.500000
vt 1.000000 1.000000
vt 0.900000 1.000000
vt 0.900000 0.500000
vt 0.800000 1.000000
vt 0.800000 0.500000
vt 0.700000 1.000000
vt 0.700000 0.500000
vt 0.600000 1.000000
vt 0.600000 0.500000
vt 0.500000 1.000000
vt 0.500000 0.500000
vt 0.400000 1.000000
vt 0.400000 0.500000
vt 0.300000 1.000000
vt 0.300000 0.500000
vt 0.200000 1.000000
vt 0.200000 0.500000
vt 0.391068 0.444164
vt 0.250000 0.490000
vt 0.108932 0.444164
vt 0.021746 0.324164
vt 0.021746 0.175836
vt 0.108932 0.055836
vt 0.250000 0.010000
vt 0.391068 0.055836
vt 0.478254 0.175836
vt 0.478254 0.324164
vt 0.100000 1.000000
vt 0.100000 0.500000
vt -0.000000 1.000000
vt -0.000000 0.500000
vt 0.750000 0.490000
vt 0.891068 0.444164
vt 0.978254 0.324164
vt 0.978254 0.175836
vt 0.891068 0.055836
vt 0.750000 0.010000
vt 0.608932 0.055836
vt 0.521746 0.175836
vt 0.521746 0.324164
vt 0.608932 0.444164
vt 0.800000 1.000000
vt 0.800000 0.500000
vt 0.600000 1.000000
vt 0.600000 0.500000
vt 0.400000 1.000000
vt 0.400000 0.500000
vt 0.478254 0.324164
vt 0.021746 0.324164
vt 0.108932 0.055836
vt 0.200000 1.000000
vt 0.200000 0.500000
vt 0.000000 1.000000
vt 0.000000 0.500000
vt 0.978254 0.324164
vt 0.521746 0.324164
vt 0.181819 0.000000
vt 0.272728 0.157461
vt 0.090910 0.157461
vt 0.363637 0.000000
vt 0.454546 0.157461
vt 0.909091 0.000000
vt 1.000000 0.157461
vt 0.818182 0.157461
vt 0.727273 0.000000
vt 0.636364 0.157461
vt 0.545455 0.000000
vt 0.363637 0.314921
vt 0.181819 0.314921
vt 0.909091 0.314921
vt 0.727273 0.314921
vt 0.545455 0.314921
vt 0.000000 0.314921
vt 0.272728 0.472382
vt 0.090910 0.472382
vt 0.818182 0.472382
vt 0.636364 0.472382
vt 0.454546 0.472382
s 0
usemtl soil
f 1/1/1 2/2/1 4/3/1 3/4/1
f 3/4/2 4/3/2 6/5/2 5/6/2
f 5/6/3 6/5/3 8/7/3 7/8/3
f 7/8/4 8/7/4 10/9/4 9/10/4
f 9/10/5 10/9/5 12/11/5 11/12/5
f 11/12/6 12/11/6 14/13/6 13/14/6
f 13/14/7 14/13/7 16/15/7 15/16/7
f 15/16/8 16/15/8 18/17/8 17/18/8
f 4/19/9 2/20/9 20/21/9 18/22/9 16/23/9 14/24/9 12/25/9 10/26/9 8/27/9 6/28/9
f 17/18/10 18/17/10 20/29/10 19/30/10
f 19/30/11 20/29/11 2/31/11 1/32/11
f 1/33/12 3/34/12 5/35/12 7/36/12 9/37/12 11/38/12 13/39/12 15/40/12 17/41/12 19/42/12
usemtl stem
f 21/1/13 22/2/13 24/43/13 23/44/13
f 23/44/14 24/43/14 26/45/14 25/46/14
f 25/46/15 26/45/15 28/47/15 27/48/15
f 24/49/9 22/20/9 30/50/9 28/51/9 26/26/9
f 27/48/16 28/47/16 30/52/16 29/53/16
f 29/53/17 30/52/17 22/54/17 21/55/17
f 21/33/12 23/56/12 25/37/12 27/39/12 29/57/12
usemtl leaf
f 31/58/18 32/59/18 33/60/18
f 32/59/19 31/61/19 36/62/19
f 31/63/20 33/64/20 34/65/20
f 31/66/21 34/65/21 35/67/21
f 31/68/22 35/67/22 36/62/22
f 32/59/23 36/62/23 41/69/23
f 33/60/24 32/59/24 37/70/24
f 34/65/25 33/64/25 38/71/25
f 35/67/26 34/65/26 39/72/26
f 36/62/27 35/67/27 40/73/27
f 32/59/28 41/69/28 37/70/28
f 33/60/29 37/70/29 38/74/29
f 34/65/30 38/71/30 39/72/30
f 35/67/31 39/72/31 40/73/31
f 36/62/32 40/73/32 41/69/32
f 37/70/33 41/69/33 42/75/33
f 38/74/34 37/70/34 42/76/34
f 39/72/35 38/71/35 42/77/35
f 40/73/36 39/72/36 42/78/36
f 41/69/37 40/73/37 42/79/37
f 43/58/38 44/59/38 45/60/38
f 44/59/39 43/61/39 48/62/39
f 43/63/40 45/64/40 46/65/40
f 43/66/41 46/65/41 47/67/41
f 43/68/42 47/67/42 48/62/42
f 44/59/43 48/62/43 53/69/43
f 45/60/44 44/59/44 49/70/44
f 46/65/45 45/64/45 50/71/45
f 47/67/46 46/65/46 51/72/46
f 48/62/47 47/67/47 52/73/47
f 44/59/48 53/69/48 49/70/48
f 45/60/49 49/70/49 50/74/49
f 46/65/50 50/71/50 51/72/50
f 47/67/51 51/72/51 52/73/51
f 48/62/52 52/73/52 53/69/52
f 49/70/53 53/69/53 54/75/53
f 50/74/54 49/70/54 54/76/54
f 51/72/55 50/71/55 54/77/55
f 52/73/56 51/72/56 54/78/56
f 53/69/57 52/73/57 54/79/57
f 55/58/58 56/59/58 57/60/58
f 56/59/59 55/61/59 60/62/59
f 55/63/60 57/64/60 58/65/60
f 55/66/61 58/65/61 59/67/61
f 55/68/62 59/67/62 60/62/62
f 56/59/63 60/62/63 65/69/63
f 57/60/64 56/59/64 61/70/64
f 58/65/65 57/64/65 62/71/65
f 59/67/66 58/65/66 63/72/66
f 60/62/67 59/67/67 64/73/67
f 56/59/68 65/69/68 61/70/68
f 57/60/69 61/70/69 62/74/69
f 58/65/70 62/71/70 63/72/70
f 59/67/71 63/72/71 64/73/71
f 60/62/72 64/73/72 65/69/72
f 61/70/73 65/69/73 66/75/73
f 62/74/74 61/70/74 66/76/74
f 63/72/75 62/71/75 66/77/75
f 64/73/76 63/72/76 66/78/76
f 65/69/77 64/73/77 66/79/77
f 67/58/78 68/59/78 69/60/78
f 68/59/79 67/61/79 72/62/79
f 67/63/80 69/64/80 70/65/80
f 67/66/81 70/65/81 71/67/81
f 67/68/82 71/67/82 72/62/82
f 68/59/83 72/62/83 77/69/83
f 69/60/84 68/59/84 73/70/84
f 70/65/85 69/64/85 74/71/85
f 71/67/86 70/65/86 75/72/86
f 72/62/87 71/67/87 76/73/87
f 68/59/88 77/69/88 73/70/88
f 69/60/89 73/70/89 74/74/89
f 70/65/90 74/71/90 75/72/90
f 71/67/91 75/72/91 76/73/91
f 72/62/92 76/73/92 77/69/92
f 73/70/93 77/69/93 78/75/93
f 74/74/94 73/70/94 78/76/94
f 75/72/95 74/71/95 78/77/95
f 76/73/96 75/72/96 78/78/96
f 77/69/97 76/73/97 78/79/97
f 79/58/98 80/59/98 81/60/98
f 80/59/99 79/61/99 84/62/99
f 79/63/100 81/64/100 82/65/100
f 79/66/101 82/65/101 83/67/101
f 79/68/102 83/67/102 84/62/102
f 80/59/103 84/62/103 89/69/103
f 81/60/104 80/59/104 85/70/104
f 82/65/105 81/64/105 86/71/105
f 83/67/106 82/65/106 87/72/106
f 84/62/107 83/67/107 88/73/107
f 80/59/108 89/69/108 85/70/108
f 81/60/109 85/70/109 86/74/109
f 82/65/110 86/71/110 87/72/110
f 83/67/111 87/72/111 88/73/111
f 84/62/112 88/73/112 89/69/112
f 85/70/113 89/69/113 90/75/113
f 86/74/114 85/70/114 90/76/114
f 87/72/115 86/71/115 90/77/115
f 88/73/116 87/72/116 90/78/116
f 89/69/117 88/73/117 90/79/117
f 91/58/118 92/59/118 93/60/118
f 92/59/119 91/61/119 96/62/119
f 91/63/120 93/64/120 94/65/120
f 91/66/121 94/65/121 95/67/121
f 91/68/122 95/67/122 96/62/122
f 92/59/123 96/62/123 101/69/123
f 93/60/124 92/59/124 97/70/124
f 94/65/125 93/64/125 98/71/125
f 95/67/126 94/65/126 99/72/126
f 96/62/127 95/67/127 100/73/127
f 92/59/128 101/69/128 97/70/128
f 93/60/129 97/70/129 98/74/129
f 94/65/130 98/71/130 99/72/130
f 95/67/131 99/72/131 100/73/131
f 96/62/132 100/73/132 101/69/132
f 97/70/133 101/69/133 102/75/133
f 98/74/134 97/70/134 102/76/134
f 99/72/135 98/71/135 102/77/135
f 100/73/136 99/72/136 102/78/136
f 101/69/137 100/73/137 102/79/137
usemtl petal
f 103/58/138 104/59/138 105/60/138
f 104/59/139 103/61/139 108/62/139
f 103/63/140 105/64/140 106/65/140
f 103/66/141 106/65/141 107/67/141
f 103/68/142 107/67/142 108/62/142
f 104/59/143 108/62/143 113/69/143
f 105/60/144 104/59/144 109/70/144
f 106/65/145 105/64/145 110/71/145
f 107/67/146 106/65/146 111/72/146
f 108/62/147 107/67/147 112/73/147
f 104/59/148 113/69/148 109/70/148
f 105/60/149 109/70/149 110/74/149
f 106/65/150 110/71/150 111/72/150
f 107/67/151 111/72/151 112/73/151
f 108/62/152 112/73/152 113/69/152
f 109/70/153 113/69/153 114/75/153
f 110/74/154 109/70/154 114/76/154
f 111/72/155 110/71/155 114/77/155
f 112/73/156 111/72/156 114/78/156
f 113/69/157 112/73/157 114/79/157
f 115/58/158 116/59/158 117/60/158
f 116/59/159 115/61/159 120/62/159
f 115/63/160 117/64/160 118/65/160
f 115/66/161 118/65/161 119/67/161
f 115/68/162 119/67/162 120/62/162
f 116/59/163 120/62/163 125/69/163
f 117/60/164 116/59/164 121/70/164
f 118/65/165 117/64/165 122/71/165
f 119/67/166 118/65/166 123/72/166
f 120/62/167 119/67/167 124/73/167
f 116/59/168 125/69/168 121/70/168
f 117/60/169 121/70/169 122/74/169
f 118/65/170 122/71/170 123/72/170
f 119/67/171 123/72/171 124/73/171
f 120/62/172 124/73/172 125/69/172
f 121/70/173 125/69/173 126/75/173
f 122/74/174 121/70/174 126/76/174
f 123/72/175 122/71/175 126/77/175
f 124/73/176 123/72/176 126/78/176
f 125/69/177 124/73/177 126/79/177
f 127/58/178 128/59/178 129/60/178
f 128/59/179 127/61/179 132/62/179
f 127/63/180 129/64/180 130/65/180
f 127/66/181 130/65/181 131/67/181
f 127/68/182 131/67/182 132/62/182
f 128/59/183 132/62/183 137/69/183
f 129/60/184 128/59/184 133/70/184
f 130/65/185 129/64/185 134/71/185
f 131/67/186 130/65/186 135/72/186
f 132/62/187 131/67/187 136/73/187
f 128/59/188 137/69/188 133/70/188
f 129/60/189 133/70/189 134/74/189
f 130/65/190 134/71/190 135/72/190
f 131/67/191 135/72/191 136/73/191
f 132/62/192 136/73/192 137/69/192
f 133/70/193 137/69/193 138/75/193
f 134/74/194 133/70/194 138/76/194
f 135/72/195 134/71/195 138/77/195
f 136/73/196 135/72/196 138/78/196
f 137/69/197 136/73/197 138/79/197
f 139/58/198 140/59/198 141/60/198
f 140/59/199 139/61/199 144/62/199
f 139/63/200 141/64/200 142/65/200
f 139/66/201 142/65/201 143/67/201
f 139/68/202 143/67/202 144/62/202
f 140/59/203 144/62/203 149/69/203
f 141/60/204 140/59/204 145/70/204
f 142/65/205 141/64/205 146/71/205
f 143/67/206 142/65/206 147/72/206
f 144/62/207 143/67/207 148/73/207
f 140/59/208 149/69/208 145/70/208
f 141/60/209 145/70/209 146/74/209
f 142/65/210 146/71/210 147/72/210
f 143/67/211 147/72/211 148/73/211
f 144/62/212 148/73/212 149/69/212
f 145/70/213 149/69/213 150/75/213
f 146/74/214 145/70/214 150/76/214
f 147/72/215 146/71/215 150/77/215
f 148/73/216 147/72/216 150/78/216
f 149/69/217 148/73/217 150/79/217
f 151/58/218 152/59/218 153/60/218
f 152/59/219 151/61/219 156/62/219
f 151/63/220 153/64/220 154/65/220
f 151/66/221 154/65/221 155/67/221
f 151/68/222 155/67/222 156/62/222
f 152/59/223 156/62/223 161/69/223
f 153/60/224 152/59/224 157/70/224
f 154/65/225 153/64/225 158/71/225
f 155/67/226 154/65/226 159/72/226
f 156/62/227 155/67/227 160/73/227
f 152/59/228 161/69/228 157/70/228
f 153/60/229 157/70/229 158/74/229
f 154/65/230 158/71/230 159/72/230
f 155/67/231 159/72/231 160/73/231
f 156/62/232 160/73/232 161/69/232
f 157/70/233 161/69/233 162/75/233
f 158/74/234 157/70/234 162/76/234
f 159/72/235 158/71/235 162/77/235
f 160/73/236 159/72/236 162/78/236
f 161/69/237 160/73/237 162/79/237
f 163/58/238 164/59/238 165/60/238
f 164/59/239 163/61/239 168/62/239
f 163/63/240 165/64/240 166/65/240
f 163/66/241 166/65/241 167/67/241
f 163/68/242 167/67/242 168/62/242
f 164/59/243 168/62/243 173/69/243
f 165/60/244 164/59/244 169/70/244
f 166/65/245 165/64/245 170/71/245
f 167/67/246 166/65/246 171/72/246
f 168/62/247 167/67/247 172/73/247
f 164/59/248 173/69/248 169/70/248
f 165/60/249 169/70/249 170/74/249
f 166/65/250 170/71/250 171/72/250
f 167/67/251 171/72/251 172/73/251
f 168/62/252 172/73/252 173/69/252
f 169/70/253 173/69/253 174/75/253
f 170/74/254 169/70/254 174/76/254
f 171/72/255 170/71/255 174/77/255
f 172/73/256 171/72/256 174/78/256
f 173/69/257 172/73/257 174/79/257
f 175/58/258 176/59/258 177/60/258
f 176/59/259 175/61/259 180/62/259
f 175/63/260 177/64/260 178/65/260
f 175/66/261 178/65/261 179/67/261
f 175/68/262 179/67/262 180/62/262
f 176/59/263 180/62/263 185/69/263
f 177/60/264 176/59/264 181/70/264
f 178/65/265 177/64/265 182/71/265
f 179/67/266 178/65/266 183/72/266
f 180/62/267 179/67/267 184/73/267
f 176/59/268 185/69/268 181/70/268
f 177/60/269 181/70/269 182/74/269
f 178/65/270 182/71/270 183/72/270
f 179/67/271 183/72/271 184/73/271
f 180/62/272 184/73/272 185/69/272
f 181/70/273 185/69/273 186/75/273
f 182/74/274 181/70/274 186/76/274
f 183/72/275 182/71/275 186/77/275
f 184/73/276 183/72/276 186/78/276
f 185/69/277 184/73/277 186/79/277
f 187/58/278 188/59/278 189/60/278
f 188/59/279 187/61/279 192/62/279
f 187/63/280 189/64/280 190/65/280
f 187/66/281 190/65/281 191/67/281
f 187/68/282 191/67/282 192/62/282
f 188/59/283 192/62/283 197/69/283
f 189/60/284 188/59/284 193/70/284
f 190/65/285 189/64/285 194/71/285
f 191/67/286 190/65/286 195/72/286
f 192/62/287 191/67/287 196/73/287
f 188/59/288 197/69/288 193/70/288
f 189/60/289 193/70/289 194/74/289
f 190/65/290 194/71/290 195/72/290
f 191/67/291 195/72/291 196/73/291
f 192/62/292 196/73/292 197/69/292
f 193/70/293 197/69/293 198/75/293
f 194/74/294 193/70/294 198/76/294
f 195/72/295 194/71/295 198/77/295
f 196/73/296 195/72/296 198/78/296
f 197/69/297 196/73/297 198/79/297
f 199/58/298 200/59/298 201/60/298
f 200/59/299 199/61/299 204/62/299
f 199/63/300 201/64/300 202/65/300
f 199/66/301 202/65/301 203/67/301
f 199/68/302 203/67/302 204/62/302
f 200/59/303 204/62/303 209/69/303
f 201/60/304 200/59/304 205/70/304
f 202/65/305 201/64/305 206/71/305
f 203/67/306 202/65/306 207/72/306
f 204/62/307 203/67/307 208/73/307
f 200/59/308 209/69/308 205/70/308
f 201/60/309 205/70/309 206/74/309
f 202/65/310 206/71/310 207/72/310
f 203/67/311 207/72/311 208/73/311
f 204/62/312 208/73/312 209/69/312
f 205/70/313 209/69/313 210/75/313
f 206/74/314 205/70/314 210/76/314
f 207/72/315 206/71/315 210/77/315
f 208/73/316 207/72/316 210/78/316
f 209/69/317 208/73/317 210/79/317
f 211/58/318 212/59/318 213/60/318
f 212/59/319 211/61/319 216/62/319
f 211/63/320 213/64/320 214/65/320
f 211/66/321 214/65/321 215/67/321
f 211/68/322 215/67/322 216/62/322
f 212/59/323 216/62/323 221/69/323
f 213/60/324 212/59/324 217/70/324
f 214/65/325 213/64/325 218/71/325
f 215/67/326 214/65/326 219/72/326
f 216/62/327 215/67/327 220/73/327
f 212/59/328 221/69/328 217/70/328
f 213/60/329 217/70/329 218/74/329
f 214/65/330 218/71/330 219/72/330
f 215/67/331 219/72/331 220/73/331
f 216/62/332 220/73/332 221/69/332
f 217/70/333 221/69/333 222/75/333
f 218/74/334 217/70/334 222/76/334
f 219/72/335 218/71/335 222/77/335
f 220/73/336 219/72/336 222/78/336
f 221/69/337 220/73/337 222/79/337
f 295/58/138 296/59/138 297/60/138
f 296/59/139 295/61/139 300/62/139
f 295/63/140 297/64/140 298/65/140
f 295/66/141 298/65/141 299/67/141
f 295/68/142 299/67/142 300/62/142
f 296/59/143 300/62/143 305/69/143
f 297/60/458 296/59/458 301/70/458
f 298/65/145 297/64/145 302/71/145
f 299/67/146 298/65/146 303/72/146
f 300/62/147 299/67/147 304/73/147
f 296/59/148 305/69/148 301/70/148
f 297/60/149 301/70/149 302/74/149
f 298/65/150 302/71/150 303/72/150
f 299/67/151 303/72/151 304/73/151
f 300/62/152 304/73/152 305/69/152
f 301/70/153 305/69/153 306/75/153
f 302/74/154 301/70/154 306/76/154
f 303/72/155 302/71/155 306/77/155
f 304/73/156 303/72/156 306/78/156
f 305/69/157 304/73/157 306/79/157
f 307/58/158 308/59/158 309/60/158
f 308/59/159 307/61/159 312/62/159
f 307/63/160 309/64/160 310/65/160
f 307/66/161 310/65/161 311/67/161
f 307/68/162 311/67/162 312/62/162
f 308/59/163 312/62/163 317/69/163
f 309/60/164 308/59/164 313/70/164
f 310/65/165 309/64/165 314/71/165
f 311/67/166 310/65/166 315/72/166
f 312/62/167 311/67/167 316/73/167
f 308/59/168 317/69/168 313/70/168
f 309/60/169 313/70/169 314/74/169
f 310/65/170 314/71/170 315/72/170
f 311/67/171 315/72/171 316/73/171
f 312/62/172 316/73/172 317/69/172
f 313/70/173 317/69/173 318/75/173
f 314/74/174 313/70/174 318/76/174
f 315/72/175 314/71/175 318/77/175
f 316/73/176 315/72/176 318/78/176
f 317/69/177 316/73/177 318/79/177
f 319/58/178 320/59/178 321/60/178
f 320/59/179 319/61/179 324/62/179
f 319/63/180 321/64/180 322/65/180
f 319/66/459 322/65/459 323/67/459
f 319/68/182 323/67/182 324/62/182
f 320/59/183 324/62/183 329/69/183
f 321/60/184 320/59/184 325/70/184
f 322/65/185 321/64/185 326/71/185
f 323/67/186 322/65/186 327/72/186
f 324/62/187 323/67/187 328/73/187
f 320/59/188 329/69/188 325/70/188
f 321/60/189 325/70/189 326/74/189
f 322/65/190 326/71/190 327/72/190
f 323/67/191 327/72/191 328/73/191
f 324/62/192 328/73/192 329/69/192
f 325/70/460 329/69/460 330/75/460
f 326/74/194 325/70/194 330/76/194
f 327/72/195 326/71/195 330/77/195
f 328/73/196 327/72/196 330/78/196
f 329/69/197 328/73/197 330/79/197
f 331/58/198 332/59/198 333/60/198
f 332/59/199 331/61/199 336/62/199
f 331/63/200 333/64/200 334/65/200
f 331/66/201 334/65/201 335/67/201
f 331/68/202 335/67/202 336/62/202
f 332/59/203 336/62/203 341/69/203
f 333/60/204 332/59/204 337/70/204
f 334/65/205 333/64/205 338/71/205
f 335/67/206 334/65/206 339/72/206
f 336/62/207 335/67/207 340/73/207
f 332/59/208 341/69/208 337/70/208
f 333/60/209 337/70/209 338/74/209
f 334/65/210 338/71/210 339/72/210
f 335/67/211 339/72/211 340/73/211
f 336/62/212 340/73/212 341/69/212
f 337/70/213 341/69/213 342/75/213
f 338/74/214 337/70/214 342/76/214
f 339/72/215 338/71/215 342/77/215
f 340/73/216 339/72/216 342/78/216
f 341/69/217 340/73/217 342/79/217
f 343/58/218 344/59/218 345/60/218
f 344/59/219 343/61/219 348/62/219
f 343/63/220 345/64/220 346/65/220
f 343/66/221 346/65/221 347/67/221
f 343/68/222 347/67/222 348/62/222
f 344/59/223 348/62/223 353/69/223
f 345/60/224 344/59/224 349/70/224
f 346/65/225 345/64/225 350/71/225
f 347/67/226 346/65/226 351/72/226
f 348/62/461 347/67/461 352/73/461
f 344/59/228 353/69/228 349/70/228
f 345/60/229 349/70/229 350/74/229
f 346/65/230 350/71/230 351/72/230
f 347/67/231 351/72/231 352/73/231
f 348/62/232 352/73/232 353/69/232
f 349/70/233 353/69/233 354/75/233
f 350/74/234 349/70/234 354/76/234
f 351/72/235 350/71/235 354/77/235
f 352/73/236 351/72/236 354/78/236
f 353/69/237 352/73/237 354/79/237
f 355/58/238 356/59/238 357/60/238
f 356/59/239 355/61/239 360/62/239
f 355/63/240 357/64/240 358/65/240
f 355/66/241 358/65/241 359/67/241
f 355/68/242 359/67/242 360/62/242
f 356/59/243 360/62/243 365/69/243
f 357/60/244 356/59/244 361/70/244
f 358/65/245 357/64/245 362/71/245
f 359/67/246 358/65/246 363/72/246
f 360/62/247 359/67/247 364/73/247
f 356/59/248 365/69/248 361/70/248
f 357/60/249 361/70/249 362/74/249
f 358/65/250 362/71/250 363/72/250
f 359/67/251 363/72/251 364/73/251
f 360/62/252 364/73/252 365/69/252
f 361/70/253 365/69/253 366/75/253
f 362/74/254 361/70/254 366/76/254
f 363/72/255 362/71/255 366/77/255
f 364/73/256 363/72/256 366/78/256
f 365/69/257 364/73/257 366/79/257
f 367/58/258 368/59/258 369/60/258
f 368/59/259 367/61/259 372/62/259
f 367/63/260 369/64/260 370/65/260
f 367/66/261 370/65/261 371/67/261
f 367/68/262 371/67/262 372/62/262
f 368/59/263 372/62/263 377/69/263
f 369/60/264 368/59/264 373/70/264
f 370/65/265 369/64/265 374/71/265
f 371/67/266 370/65/266 375/72/266
f 372/62/267 371/67/267 376/73/267
f 368/59/268 377/69/268 373/70/268
f 369/60/269 373/70/269 374/74/269
f 370/65/270 374/71/270 375/72/270
f 371/67/271 375/72/271 376/73/271
f 372/62/272 376/73/272 377/69/272
f 373/70/273 377/69/273 378/75/273
f 374/74/274 373/70/274 378/76/274
f 375/72/275 374/71/275 378/77/275
f 376/73/276 375/72/276 378/78/276
f 377/69/277 376/73/277 378/79/277
f 379/58/278 380/59/278 381/60/278
f 380/59/279 379/61/279 384/62/279
f 379/63/280 381/64/280 382/65/280
f 379/66/281 382/65/281 383/67/281
f 379/68/282 383/67/282 384/62/282
f 380/59/283 384/62/283 389/69/283
f 381/60/284 380/59/284 385/70/284
f 382/65/285 381/64/285 386/71/285
f 383/67/286 382/65/286 387/72/286
f 384/62/287 383/67/287 388/73/287
f 380/59/288 389/69/288 385/70/288
f 381/60/289 385/70/289 386/74/289
f 382/65/290 386/71/290 387/72/290
f 383/67/291 387/72/291 388/73/291
f 384/62/292 388/73/292 389/69/292
f 385/70/462 389/69/462 390/75/462
f 386/74/294 385/70/294 390/76/294
f 387/72/295 386/71/295 390/77/295
f 388/73/296 387/72/296 390/78/296
f 389/69/297 388/73/297 390/79/297
f 391/58/298 392/59/298 393/60/298
f 392/59/299 391/61/299 396/62/299
f 391/63/300 393/64/300 394/65/300
f 391/66/301 394/65/301 395/67/301
f 391/68/302 395/67/302 396/62/302
f 392/59/303 396/62/303 401/69/303
f 393/60/304 392/59/304 397/70/304
f 394/65/305 393/64/305 398/71/305
f 395/67/306 394/65/306 399/72/306
f 396/62/307 395/67/307 400/73/307
f 392/59/308 401/69/308 397/70/308
f 393/60/309 397/70/309 398/74/309
f 394/65/310 398/71/310 399/72/310
f 395/67/311 399/72/311 400/73/311
f 396/62/312 400/73/312 401/69/312
f 397/70/313 401/69/313 402/75/313
f 398/74/314 397/70/314 402/76/314
f 399/72/315 398/71/315 402/77/315
f 400/73/316 399/72/316 402/78/316
f 401/69/317 400/73/317 402/79/317
f 403/58/318 404/59/318 405/60/318
f 404/59/319 403/61/319 408/62/319
f 403/63/320 405/64/320 406/65/320
f 403/66/321 406/65/321 407/67/321
f 403/68/322 407/67/322 408/62/322
f 404/59/323 408/62/323 413/69/323
f 405/60/324 404/59/324 409/70/324
f 406/65/325 405/64/325 410/71/325
f 407/67/326 406/65/326 411/72/326
f 408/62/327 407/67/327 412/73/327
f 404/59/328 413/69/328 409/70/328
f 405/60/329 409/70/329 410/74/329
f 406/65/330 410/71/330 411/72/330
f 407/67/331 411/72/331 412/73/331
f 408/62/332 412/73/332 413/69/332
f 409/70/333 413/69/333 414/75/333
f 410/74/334 409/70/334 414/76/334
f 411/72/335 410/71/335 414/77/335
f 412/73/336 411/72/336 414/78/336
f 413/69/337 412/73/337 414/79/337
f 487/58/138 488/59/138 489/60/138
f 488/59/139 487/61/139 492/62/139
f 487/63/140 489/64/140 490/65/140
f 487/66/141 490/65/141 491/67/141
f 487/68/142 491/67/142 492/62/142
f 488/59/143 492/62/143 497/69/143
f 489/60/458 488/59/458 493/70/458
f 490/65/145 489/64/145 494/71/145
f 491/67/146 490/65/146 495/72/146
f 492/62/147 491/67/147 496/73/147
f 488/59/148 497/69/148 493/70/148
f 489/60/149 493/70/149 494/74/149
f 490/65/150 494/71/150 495/72/150
f 491/67/151 495/72/151 496/73/151
f 492/62/152 496/73/152 497/69/152
f 493/70/153 497/69/153 498/75/153
f 494/74/154 493/70/154 498/76/154
f 495/72/155 494/71/155 498/77/155
f 496/73/156 495/72/156 498/78/156
f 497/69/157 496/73/157 498/79/157
f 499/58/158 500/59/158 501/60/158
f 500/59/159 499/61/159 504/62/159
f 499/63/160 501/64/160 502/65/160
f 499/66/161 502/65/161 503/67/161
f 499/68/162 503/67/162 504/62/162
f 500/59/163 504/62/163 509/69/163
f 501/60/164 500/59/164 505/70/164
f 502/65/165 501/64/165 506/71/165
f 503/67/166 502/65/166 507/72/166
f 504/62/167 503/67/167 508/73/167
f 500/59/168 509/69/168 505/70/168
f 501/60/169 505/70/169 506/74/169
f 502/65/170 506/71/170 507/72/170
f 503/67/171 507/72/171 508/73/171
f 504/62/172 508/73/172 509/69/172
f 505/70/173 509/69/173 510/75/173
f 506/74/174 505/70/174 510/76/174
f 507/72/175 506/71/175 510/77/175
f 508/73/176 507/72/176 510/78/176
f 509/69/177 508/73/177 510/79/177
f 511/58/178 512/59/178 513/60/178
f 512/59/179 511/61/179 516/62/179
f 511/63/180 513/64/180 514/65/180
f 511/66/459 514/65/459 515/67/459
f 511/68/182 515/67/182 516/62/182
f 512/59/183 516/62/183 521/69/183
f 513/60/184 512/59/184 517/70/184
f 514/65/185 513/64/185 518/71/185
f 515/67/186 514/65/186 519/72/186
f 516/62/187 515/67/187 520/73/187
f 512/59/188 521/69/188 517/70/188
f 513/60/189 517/70/189 518/74/189
f 514/65/190 518/71/190 519/72/190
f 515/67/191 519/72/191 520/73/191
f 516/62/192 520/73/192 521/69/192
f 517/70/193 521/69/193 522/75/193
f 518/74/194 517/70/194 522/76/194
f 519/72/195 518/71/195 522/77/195
f 520/73/196 519/72/196 522/78/196
f 521/69/197 520/73/197 522/79/197
f 523/58/198 524/59/198 525/60/198
f 524/59/199 523/61/199 528/62/199
f 523/63/200 525/64/200 526/65/200
f 523/66/201 526/65/201 527/67/201
f 523/68/202 527/67/202 528/62/202
f 524/59/203 528/62/203 533/69/203
f 525/60/204 524/59/204 529/70/204
f 526/65/205 525/64/205 530/71/205
f 527/67/206 526/65/206 531/72/206
f 528/62/207 527/67/207 532/73/207
f 524/59/208 533/69/208 529/70/208
f 525/60/209 529/70/209 530/74/209
f 526/65/210 530/71/210 531/72/210
f 527/67/211 531/72/211 532/73/211
f 528/62/212 532/73/212 533/69/212
f 529/70/213 533/69/213 534/75/213
f 530/74/214 529/70/214 534/76/214
f 531/72/215 530/71/215 534/77/215
f 532/73/216 531/72/216 534/78/216
f 533/69/217 532/73/217 534/79/217
f 535/58/218 536/59/218 537/60/218
f 536/59/219 535/61/219 540/62/219
f 535/63/220 537/64/220 538/65/220
f 535/66/221 538/65/221 539/67/221
f 535/68/222 539/67/222 540/62/222
f 536/59/223 540/62/223 545/69/223
f 537/60/224 536/59/224 541/70/224
f 538/65/225 537/64/225 542/71/225
f 539/67/226 538/65/226 543/72/226
f 540/62/461 539/67/461 544/73/461
f 536/59/228 545/69/228 541/70/228
f 537/60/229 541/70/229 542/74/229
f 538/65/230 542/71/230 543/72/230
f 539/67/231 543/72/231 544/73/231
f 540/62/232 544/73/232 545/69/232
f 541/70/233 545/69/233 546/75/233
f 542/74/234 541/70/234 546/76/234
f 543/72/235 542/71/235 546/77/235
f 544/73/236 543/72/236 546/78/236
f 545/69/237 544/73/237 546/79/237
f 547/58/238 548/59/238 549/60/238
f 548/59/239 547/61/239 552/62/239
f 547/63/240 549/64/240 550/65/240
f 547/66/241 550/65/241 551/67/241
f 547/68/242 551/67/242 552/62/242
f 548/59/243 552/62/243 557/69/243
f 549/60/475 548/59/475 553/70/475
f 550/65/245 549/64/245 554/71/245
f 551/67/246 550/65/246 555/72/246
f 552/62/247 551/67/247 556/73/247
f 548/59/248 557/69/248 553/70/248
f 549/60/249 553/70/249 554/74/249
f 550/65/250 554/71/250 555/72/250
f 551/67/251 555/72/251 556/73/251
f 552/62/252 556/73/252 557/69/252
f 553/70/253 557/69/253 558/75/253
f 554/74/254 553/70/254 558/76/254
f 555/72/255 554/71/255 558/77/255
f 556/73/256 555/72/256 558/78/256
f 557/69/257 556/73/257 558/79/257
f 559/58/258 560/59/258 561/60/258
f 560/59/259 559/61/259 564/62/259
f 559/63/260 561/64/260 562/65/260
f 559/66/261 562/65/261 563/67/261
f 559/68/262 563/67/262 564/62/262
f 560/59/263 564/62/263 569/69/263
f 561/60/264 560/59/264 565/70/264
f 562/65/265 561/64/265 566/71/265
f 563/67/266 562/65/266 567/72/266
f 564/62/267 563/67/267 568/73/267
f 560/59/268 569/69/268 565/70/268
f 561/60/269 565/70/269 566/74/269
f 562/65/270 566/71/270 567/72/270
f 563/67/271 567/72/271 568/73/271
f 564/62/272 568/73/272 569/69/272
f 565/70/273 569/69/273 570/75/273
f 566/74/274 565/70/274 570/76/274
f 567/72/275 566/71/275 570/77/275
f 568/73/276 567/72/276 570/78/276
f 569/69/277 568/73/277 570/79/277
f 571/58/278 572/59/278 573/60/278
f 572/59/279 571/61/279 576/62/279
f 571/63/280 573/64/280 574/65/280
f 571/66/281 574/65/281 575/67/281
f 571/68/282 575/67/282 576/62/282
f 572/59/283 576/62/283 581/69/283
f 573/60/284 572/59/284 577/70/284
f 574/65/285 573/64/285 578/71/285
f 575/67/286 574/65/286 579/72/286
f 576/62/287 575/67/287 580/73/287
f 572/59/288 581/69/288 577/70/288
f 573/60/289 577/70/289 578/74/289
f 574/65/290 578/71/290 579/72/290
f 575/67/291 579/72/291 580/73/291
f 576/62/292 580/73/292 581/69/292
f 577/70/462 581/69/462 582/75/462
f 578/74/294 577/70/294 582/76/294
f 579/72/295 578/71/295 582/77/295
f 580/73/296 579/72/296 582/78/296
f 581/69/297 580/73/297 582/79/297
f 583/58/298 584/59/298 585/60/298
f 584/59/299 583/61/299 588/62/299
f 583/63/300 585/64/300 586/65/300
f 583/66/301 586/65/301 587/67/301
f 583/68/302 587/67/302 588/62/302
f 584/59/303 588/62/303 593/69/303
f 585/60/304 584/59/304 589/70/304
f 586/65/305 585/64/305 590/71/305
f 587/67/306 586/65/306 591/72/306
f 588/62/307 587/67/307 592/73/307
f 584/59/308 593/69/308 589/70/308
f 585/60/309 589/70/309 590/74/309
f 586/65/310 590/71/310 591/72/310
f 587/67/311 591/72/311 592/73/311
f 588/62/312 592/73/312 593/69/312
f 589/70/313 593/69/313 594/75/313
f 590/74/314 589/70/314 594/76/314
f 591/72/315 590/71/315 594/77/315
f 592/73/316 591/72/316 594/78/316
f 593/69/317 592/73/317 594/79/317
f 595/58/318 596/59/318 597/60/318
f 596/59/319 595/61/319 600/62/319
f 595/63/320 597/64/320 598/65/320
f 595/66/321 598/65/321 599/67/321
f 595/68/322 599/67/322 600/62/322
f 596/59/323 600/62/323 605/69/323
f 597/60/324 596/59/324 601/70/324
f 598/65/325 597/64/325 602/71/325
f 599/67/326 598/65/326 603/72/326
f 600/62/327 599/67/327 604/73/327
f 596/59/328 605/69/328 601/70/328
f 597/60/329 601/70/329 602/74/329
f 598/65/330 602/71/330 603/72/330
f 599/67/331 603/72/331 604/73/331
f 600/62/332 604/73/332 605/69/332
f 601/70/333 605/69/333 606/75/333
f 602/74/334 601/70/334 606/76/334
f 603/72/335 602/71/335 606/77/335
f 604/73/336 603/72/336 606/78/336
f 605/69/337 604/73/337 606/79/337
usemtl center
f 223/58/338 224/59/338 225/60/338
f 224/59/339 223/61/339 228/62/339
f 223/63/340 225/64/340 226/65/340
f 223/66/341 226/65/341 227/67/341
f 223/68/342 227/67/342 228/62/342
f 224/59/343 228/62/343 233/69/343
f 225/60/344 224/59/344 229/70/344
f 226/65/345 225/64/345 230/71/345
f 227/67/346 226/65/346 231/72/346
f 228/62/347 227/67/347 232/73/347
f 224/59/348 233/69/348 229/70/348
f 225/60/349 229/70/349 230/74/349
f 226/65/350 230/71/350 231/72/350
f 227/67/351 231/72/351 232/73/351
f 228/62/352 232/73/352 233/69/352
f 229/70/353 233/69/353 234/75/353
f 230/74/354 229/70/354 234/76/354
f 231/72/355 230/71/355 234/77/355
f 232/73/356 231/72/356 234/78/356
f 233/69/357 232/73/357 234/79/357
f 235/58/358 236/59/358 237/60/358
f 236/59/359 235/61/359 240/62/359
f 235/63/360 237/64/360 238/65/360
f 235/66/361 238/65/361 239/67/361
f 235/68/362 239/67/362 240/62/362
f 236/59/363 240/62/363 245/69/363
f 237/60/364 236/59/364 241/70/364
f 238/65/365 237/64/365 242/71/365
f 239/67/366 238/65/366 243/72/366
f 240/62/367 239/67/367 244/73/367
f 236/59/368 245/69/368 241/70/368
f 237/60/369 241/70/369 242/74/369
f 238/65/370 242/71/370 243/72/370
f 239/67/371 243/72/371 244/73/371
f 240/62/372 244/73/372 245/69/372
f 241/70/373 245/69/373 246/75/373
f 242/74/374 241/70/374 246/76/374
f 243/72/375 242/71/375 246/77/375
f 244/73/376 243/72/376 246/78/376
f 245/69/377 244/73/377 246/79/377
f 247/58/378 248/59/378 249/60/378
f 248/59/379 247/61/379 252/62/379
f 247/63/380 249/64/380 250/65/380
f 247/66/381 250/65/381 251/67/381
f 247/68/382 251/67/382 252/62/382
f 248/59/383 252/62/383 257/69/383
f 249/60/384 248/59/384 253/70/384
f 250/65/385 249/64/385 254/71/385
f 251/67/386 250/65/386 255/72/386
f 252/62/387 251/67/387 256/73/387
f 248/59/388 257/69/388 253/70/388
f 249/60/389 253/70/389 254/74/389
f 250/65/390 254/71/390 255/72/390
f 251/67/391 255/72/391 256/73/391
f 252/62/392 256/73/392 257/69/392
f 253/70/393 257/69/393 258/75/393
f 254/74/394 253/70/394 258/76/394
f 255/72/395 254/71/395 258/77/395
f 256/73/396 255/72/396 258/78/396
f 257/69/397 256/73/397 258/79/397
f 259/58/398 260/59/398 261/60/398
f 260/59/399 259/61/399 264/62/399
f 259/63/400 261/64/400 262/65/400
f 259/66/401 262/65/401 263/67/401
f 259/68/402 263/67/402 264/62/402
f 260/59/403 264/62/403 269/69/403
f 261/60/404 260/59/404 265/70/404
f 262/65/405 261/64/405 266/71/405
f 263/67/406 262/65/406 267/72/406
f 264/62/407 263/67/407 268/73/407
f 260/59/408 269/69/408 265/70/408
f 261/60/409 265/70/409 266/74/409
f 262/65/410 266/71/410 267/72/410
f 263/67/411 267/72/411 268/73/411
f 264/62/412 268/73/412 269/69/412
f 265/70/413 269/69/413 270/75/413
f 266/74/414 265/70/414 270/76/414
f 267/72/415 266/71/415 270/77/415
f 268/73/416 267/72/416 270/78/416
f 269/69/417 268/73/417 270/79/417
f 271/58/418 272/59/418 273/60/418
f 272/59/419 271/61/419 276/62/419
f 271/63/420 273/64/420 274/65/420
f 271/66/421 274/65/421 275/67/421
f 271/68/422 275/67/422 276/62/422
f 272/59/423 276/62/423 281/69/423
f 273/60/424 272/59/424 277/70/424
f 274/65/425 273/64/425 278/71/425
f 275/67/426 274/65/426 279/72/426
f 276/62/427 275/67/427 280/73/427
f 272/59/428 281/69/428 277/70/428
f 273/60/429 277/70/429 278/74/429
f 274/65/430 278/71/430 279/72/430
f 275/67/431 279/72/431 280/73/431
f 276/62/432 280/73/432 281/69/432
f 277/70/433 281/69/433 282/75/433
f 278/74/434 277/70/434 282/76/434
f 279/72/435 278/71/435 282/77/435
f 280/73/436 279/72/436 282/78/436
f 281/69/437 280/73/437 282/79/437
f 283/58/438 284/59/438 285/60/438
f 284/59/439 283/61/439 288/62/439
f 283/63/440 285/64/440 286/65/440
f 283/66/441 286/65/441 287/67/441
f 283/68/442 287/67/442 288/62/442
f 284/59/443 288/62/443 293/69/443
f 285/60/444 284/59/444 289/70/444
f 286/65/445 285/64/445 290/71/445
f 287/67/446 286/65/446 291/72/446
f 288/62/447 287/67/447 292/73/447
f 284/59/448 293/69/448 289/70/448
f 285/60/449 289/70/449 290/74/449
f 286/65/450 290/71/450 291/72/450
f 287/67/451 291/72/451 292/73/451
f 288/62/452 292/73/452 293/69/452
f 289/70/453 293/69/453 294/75/453
f 290/74/454 289/70/454 294/76/454
f 291/72/455 290/71/455 294/77/455
f 292/73/456 291/72/456 294/78/456
f 293/69/457 292/73/457 294/79/457
f 415/58/338 416/59/338 417/60/338
f 416/59/339 415/61/339 420/62/339
f 415/63/340 417/64/340 418/65/340
f 415/66/341 418/65/341 419/67/341
f 415/68/342 419/67/342 420/62/342
f 416/59/343 420/62/343 425/69/343
f 417/60/344 416/59/344 421/70/344
f 418/65/345 417/64/345 422/71/345
f 419/67/346 418/65/346 423/72/346
f 420/62/347 419/67/347 424/73/347
f 416/59/348 425/69/348 421/70/348
f 417/60/349 421/70/349 422/74/349
f 418/65/350 422/71/350 423/72/350
f 419/67/463 423/72/463 424/73/463
f 420/62/352 424/73/352 425/69/352
f 421/70/353 425/69/353 426/75/353
f 422/74/354 421/70/354 426/76/354
f 423/72/464 422/71/464 426/77/464
f 424/73/356 423/72/356 426/78/356
f 425/69/357 424/73/357 426/79/357
f 427/58/358 428/59/358 429/60/358
f 428/59/359 427/61/359 432/62/359
f 427/63/360 429/64/360 430/65/360
f 427/66/361 430/65/361 431/67/361
f 427/68/362 431/67/362 432/62/362
f 428/59/363 432/62/363 437/69/363
f 429/60/465 428/59/465 433/70/465
f 430/65/466 429/64/466 434/71/466
f 431/67/366 430/65/366 435/72/366
f 432/62/367 431/67/367 436/73/367
f 428/59/368 437/69/368 433/70/368
f 429/60/369 433/70/369 434/74/369
f 430/65/370 434/71/370 435/72/370
f 431/67/467 435/72/467 436/73/467
f 432/62/468 436/73/468 437/69/468
f 433/70/373 437/69/373 438/75/373
f 434/74/374 433/70/374 438/76/374
f 435/72/375 434/71/375 438/77/375
f 436/73/376 435/72/376 438/78/376
f 437/69/377 436/73/377 438/79/377
f 439/58/378 440/59/378 441/60/378
f 440/59/379 439/61/379 444/62/379
f 439/63/380 441/64/380 442/65/380
f 439/66/381 442/65/381 443/67/381
f 439/68/382 443/67/382 444/62/382
f 440/59/383 444/62/383 449/69/383
f 441/60/469 440/59/469 445/70/469
f 442/65/385 441/64/385 446/71/385
f 443/67/386 442/65/386 447/72/386
f 444/62/387 443/67/387 448/73/387
f 440/59/388 449/69/388 445/70/388
f 441/60/389 445/70/389 446/74/389
f 442/65/390 446/71/390 447/72/390
f 443/67/470 447/72/470 448/73/470
f 444/62/392 448/73/392 449/69/392
f 445/70/393 449/69/393 450/75/393
f 446/74/394 445/70/394 450/76/394
f 447/72/395 446/71/395 450/77/395
f 448/73/396 447/72/396 450/78/396
f 449/69/397 448/73/397 450/79/397
f 451/58/398 452/59/398 453/60/398
f 452/59/399 451/61/399 456/62/399
f 451/63/400 453/64/400 454/65/400
f 451/66/401 454/65/401 455/67/401
f 451/68/402 455/67/402 456/62/402
f 452/59/403 456/62/403 461/69/403
f 453/60/404 452/59/404 457/70/404
f 454/65/405 453/64/405 458/71/405
f 455/67/406 454/65/406 459/72/406
f 456/62/407 455/67/407 460/73/407
f 452/59/408 461/69/408 457/70/408
f 453/60/409 457/70/409 458/74/409
f 454/65/410 458/71/410 459/72/410
f 455/67/411 459/72/411 460/73/411
f 456/62/412 460/73/412 461/69/412
f 457/70/413 461/69/413 462/75/413
f 458/74/414 457/70/414 462/76/414
f 459/72/471 458/71/471 462/77/471
f 460/73/416 459/72/416 462/78/416
f 461/69/417 460/73/417 462/79/417
f 463/58/418 464/59/418 465/60/418
f 464/59/419 463/61/419 468/62/419
f 463/63/420 465/64/420 466/65/420
f 463/66/421 466/65/421 467/67/421
f 463/68/422 467/67/422 468/62/422
f 464/59/423 468/62/423 473/69/423
f 465/60/424 464/59/424 469/70/424
f 466/65/425 465/64/425 470/71/425
f 467/67/426 466/65/426 471/72/426
f 468/62/427 467/67/427 472/73/427
f 464/59/428 473/69/428 469/70/428
f 465/60/429 469/70/429 470/74/429
f 466/65/430 470/71/430 471/72/430
f 467/67/431 471/72/431 472/73/431
f 468/62/472 472/73/472 473/69/472
f 469/70/433 473/69/433 474/75/433
f 470/74/434 469/70/434 474/76/434
f 471/72/435 470/71/435 474/77/435
f 472/73/436 471/72/436 474/78/436
f 473/69/437 472/73/437 474/79/437
f 475/58/438 476/59/438 477/60/438
f 476/59/439 475/61/439 480/62/439
f 475/63/440 477/64/440 478/65/440
f 475/66/441 478/65/441 479/67/441
f 475/68/442 479/67/442 480/62/442
f 476/59/443 480/62/443 485/69/443
f 477/60/473 476/59/473 481/70/473
f 478/65/445 477/64/445 482/71/445
f 479/67/446 478/65/446 483/72/446
f 480/62/447 479/67/447 484/73/447
f 476/59/448 485/69/448 481/70/448
f 477/60/449 481/70/449 482/74/449
f 478/65/450 482/71/450 483/72/450
f 479/67/474 483/72/474 484/73/474
f 480/62/452 484/73/452 485/69/452
f 481/70/453 485/69/453 486/75/453
f 482/74/454 481/70/454 486/76/454
f 483/72/455 482/71/455 486/77/455
f 484/73/456 483/72/456 486/78/456
f 485/69/457 484/73/457 486/79/457
f 607/58/476 608/59/476 609/60/476
f 608/59/477 607/61/477 612/62/477
f 607/63/340 609/64/340 610/65/340
f 607/66/341 610/65/341 611/67/341
f 607/68/342 611/67/342 612/62/342
f 608/59/343 612/62/343 617/69/343
f 609/60/478 608/59/478 613/70/478
f 610/65/345 609/64/345 614/71/345
f 611/67/346 610/65/346 615/72/346
f 612/62/347 611/67/347 616/73/347
f 608/59/348 617/69/348 613/70/348
f 609/60/349 613/70/349 614/74/349
f 610/65/350 614/71/350 615/72/350
f 611/67/463 615/72/463 616/73/463
f 612/62/352 616/73/352 617/69/352
f 613/70/353 617/69/353 618/75/353
f 614/74/354 613/70/354 618/76/354
f 615/72/355 614/71/355 618/77/355
f 616/73/356 615/72/356 618/78/356
f 617/69/357 616/73/357 618/79/357
f 619/58/358 620/59/358 621/60/358
f 620/59/359 619/61/359 624/62/359
f 619/63/360 621/64/360 622/65/360
f 619/66/361 622/65/361 623/67/361
f 619/68/362 623/67/362 624/62/362
f 620/59/363 624/62/363 629/69/363
f 621/60/465 620/59/465 625/70/465
f 622/65/466 621/64/466 626/71/466
f 623/67/366 622/65/366 627/72/366
f 624/62/367 623/67/367 628/73/367
f 620/59/368 629/69/368 625/70/368
f 621/60/369 625/70/369 626/74/369
f 622/65/370 626/71/370 627/72/370
f 623/67/467 627/72/467 628/73/467
f 624/62/468 628/73/468 629/69/468
f 625/70/373 629/69/373 630/75/373
f 626/74/374 625/70/374 630/76/374
f 627/72/375 626/71/375 630/77/375
f 628/73/376 627/72/376 630/78/376
f 629/69/377 628/73/377 630/79/377
f 631/58/378 632/59/378 633/60/378
f 632/59/379 631/61/379 636/62/379
f 631/63/380 633/64/380 634/65/380
f 631/66/381 634/65/381 635/67/381
f 631/68/382 635/67/382 636/62/382
f 632/59/383 636/62/383 641/69/383
f 633/60/469 632/59/469 637/70/469
f 634/65/385 633/64/385 638/71/385
f 635/67/386 634/65/386 639/72/386
f 636/62/387 635/67/387 640/73/387
f 632/59/388 641/69/388 637/70/388
f 633/60/389 637/70/389 638/74/389
f 634/65/390 638/71/390 639/72/390
f 635/67/470 639/72/470 640/73/470
f 636/62/479 640/73/479 641/69/479
f 637/70/393 641/69/393 642/75/393
f 638/74/394 637/70/394 642/76/394
f 639/72/395 638/71/395 642/77/395
f 640/73/396 639/72/396 642/78/396
f 641/69/397 640/73/397 642/79/397
f 643/58/480 644/59/480 645/60/480
f 644/59/481 643/61/481 648/62/481
f 643/63/400 645/64/400 646/65/400
f 643/66/401 646/65/401 647/67/401
f 643/68/402 647/67/402 648/62/402
f 644/59/403 648/62/403 653/69/403
f 645/60/482 644/59/482 649/70/482
f 646/65/405 645/64/405 650/71/405
f 647/67/406 646/65/406 651/72/406
f 648/62/407 647/67/407 652/73/407
f 644/59/408 653/69/408 649/70/408
f 645/60/409 649/70/409 650/74/409
f 646/65/410 650/71/410 651/72/410
f 647/67/483 651/72/483 652/73/483
f 648/62/412 652/73/412 653/69/412
f 649/70/413 653/69/413 654/75/413
f 650/74/414 649/70/414 654/76/414
f 651/72/415 650/71/415 654/77/415
f 652/73/416 651/72/416 654/78/416
f 653/69/417 652/73/417 654/79/417
f 655/58/418 656/59/418 657/60/418
f 656/59/419 655/61/419 660/62/419
f 655/63/420 657/64/420 658/65/420
f 655/66/421 658/65/421 659/67/421
f 655/68/422 659/67/422 660/62/422
f 656/59/423 660/62/423 665/69/423
f 657/60/484 656/59/484 661/70/484
f 658/65/425 657/64/425 662/71/425
f 659/67/426 658/65/426 663/72/426
f 660/62/427 659/67/427 664/73/427
f 656/59/428 665/69/428 661/70/428
f 657/60/429 661/70/429 662/74/429
f 658/65/430 662/71/430 663/72/430
f 659/67/431 663/72/431 664/73/431
f 660/62/432 664/73/432 665/69/432
f 661/70/433 665/69/433 666/75/433
f 662/74/434 661/70/434 666/76/434
f 663/72/435 662/71/435 666/77/435
f 664/73/436 663/72/436 666/78/436
f 665/69/437 664/73/437 666/79/437
f 667/58/438 668/59/438 669/60/438
f 668/59/439 667/61/439 672/62/439
f 667/63/440 669/64/440 670/65/440
f 667/66/441 670/65/441 671/67/441
f 667/68/442 671/67/442 672/62/442
f 668/59/443 672/62/443 677/69/443
f 669/60/473 668/59/473 673/70/473
f 670/65/445 669/64/445 674/71/445
f 671/67/446 670/65/446 675/72/446
f 672/62/447 671/67/447 676/73/447
f 668/59/448 677/69/448 673/70/448
f 669/60/449 673/70/449 674/74/449
f 670/65/450 674/71/450 675/72/450
f 671/67/474 675/72/474 676/73/474
f 672/62/485 676/73/485 677/69/485
f 673/70/453 677/69/453 678/75/453
f 674/74/454 673/70/454 678/76/454
f 675/72/455 674/71/455 678/77/455
f 676/73/456 675/72/456 678/78/456
f 677/69/457 676/73/457 678/79/457
