# Blender 4.0.2
# www.blender.org
mtllib 1_sapling.mtl
o papaya_1_sapling
v 0.000000 0.022500 0.405000
v -0.000000 -0.022500 0.405000
v -0.022500 0.000000 0.405000
v 0.022500 -0.000000 0.405000
v 0.000000 0.047500 0.135000
v -0.022500 0.000000 0.270000
v -0.047500 0.000000 0.135000
v 0.000000 0.022500 0.270000
v -0.000000 -0.022500 0.270000
v -0.000000 -0.047500 0.135000
v 0.022500 -0.000000 0.270000
v 0.047500 -0.000000 0.135000
v 0.000000 0.047500 0.270000
v -0.047500 0.000000 0.270000
v -0.000000 -0.047500 0.270000
v 0.047500 -0.000000 0.270000
v -0.000000 -0.047500 0.000000
v 0.022500 -0.000000 0.135000
v 0.047500 -0.000000 0.000000
v -0.000000 -0.022500 0.135000
v 0.000000 0.022500 0.135000
v 0.000000 0.047500 0.000000
v -0.022500 0.000000 0.135000
v -0.047500 0.000000 0.000000
v 0.047500 -0.145000 0.492500
v -0.012500 -0.220000 0.492500
v -0.040000 -0.145000 0.492500
v 0.040000 -0.215000 0.492500
v 0.030000 -0.047500 0.455000
v -0.035000 -0.052500 0.455000
v 0.017500 -0.277500 0.455000
v -0.000000 -0.022500 0.415000
v -0.012500 0.097500 0.590000
v 0.075000 0.140000 0.615000
v 0.065000 0.070000 0.590000
v 0.022500 0.157500 0.615000
v -0.030000 0.022500 0.517500
v 0.030000 0.005000 0.517500
v 0.075000 0.215000 0.595000
v 0.000000 0.000000 0.470000
v -0.065000 0.127500 0.542500
v -0.017500 0.215000 0.537500
v 0.012500 0.145000 0.532500
v -0.070000 0.202500 0.542500
v -0.040000 0.030000 0.502500
v 0.017500 0.047500 0.492500
v -0.065000 0.260000 0.502500
v 0.000000 0.000000 0.450000
v -0.157500 0.030000 0.492500
v -0.197500 0.115000 0.492500
v -0.127500 0.105000 0.492500
v -0.215000 0.065000 0.492500
v -0.057500 0.000000 0.455000
v -0.035000 0.052500 0.455000
v -0.260000 0.115000 0.455000
v -0.017500 0.012500 0.415000
v 0.097500 0.132500 0.492500
v 0.197500 0.115000 0.492500
v 0.150000 0.065000 0.492500
v 0.162500 0.162500 0.492500
v 0.022500 0.070000 0.455000
v 0.052500 0.022500 0.455000
v 0.232500 0.167500 0.455000
v 0.022500 0.022500 0.415000
v 0.127500 0.017500 0.537500
v 0.192500 -0.065000 0.537500
v 0.115000 -0.065000 0.537500
v 0.197500 -0.012500 0.537500
v 0.022500 0.022500 0.497500
v 0.017500 -0.030000 0.497500
v 0.250000 -0.052500 0.497500
v 0.080000 -0.030000 0.590000
v 0.075000 -0.127500 0.615000
v 0.022500 -0.087500 0.590000
v 0.115000 -0.087500 0.615000
v 0.022500 0.012500 0.517500
v -0.012500 -0.022500 0.517500
v 0.145000 -0.162500 0.595000
v -0.052500 -0.132500 0.537500
v -0.150000 -0.145000 0.545000
v -0.115000 -0.080000 0.545000
v -0.115000 -0.175000 0.542500
v -0.000000 -0.047500 0.492500
v -0.047500 -0.005000 0.502500
v -0.175000 -0.197500 0.502500
v -0.075000 -0.057500 0.590000
v -0.157500 -0.005000 0.615000
v -0.097500 0.022500 0.590000
v -0.145000 -0.057500 0.615000
v -0.005000 -0.030000 0.517500
v -0.022500 0.030000 0.517500
v -0.220000 -0.052500 0.595000
v 0.000000 0.030000 0.450000
v -0.000000 -0.017500 0.450000
v -0.022500 0.005000 0.450000
v 0.022500 0.005000 0.450000
v -0.022500 0.005000 0.405000
v -0.000000 -0.017500 0.405000
v 0.022500 0.005000 0.405000
vn -0.0000 -0.0000 -1.0000
vn 0.0290 -0.3769 -0.9258
vn -0.0000 -0.3590 -0.9333
vn -0.0502 0.5271 -0.8483
vn 0.0634 -0.8242 -0.5627
vn 0.1135 0.3198 -0.9407
vn 0.1091 0.3274 -0.9386
vn 0.1984 0.6802 -0.7056
vn 0.2300 0.6481 -0.7260
vn -0.0856 -0.2567 -0.9627
vn 0.2698 0.9249 -0.2677
vn -0.1312 0.0146 -0.9912
vn -0.0933 -0.0062 -0.9956
vn -0.2639 0.3545 -0.8970
vn -0.1936 0.3295 -0.9241
vn 0.0587 -0.5735 -0.8171
vn -0.3232 0.6944 -0.6430
vn -0.3073 0.1317 -0.9424
vn -0.3150 0.1260 -0.9407
vn 0.5064 -0.1772 -0.8439
vn -0.7191 0.3082 -0.6228
vn 0.2841 0.1794 -0.9419
vn 0.2832 0.2202 -0.9334
vn -0.4302 -0.3170 -0.8453
vn 0.7140 0.4510 -0.5355
vn 0.3685 -0.0351 -0.9290
vn 0.3533 -0.0535 -0.9340
vn -0.5782 0.0551 -0.8140
vn 0.9156 -0.0872 -0.3924
vn 0.2525 -0.2525 -0.9341
vn 0.5062 -0.5062 -0.6982
vn -0.1839 0.1839 -0.9656
vn 0.6994 -0.6994 -0.1472
vn -0.0823 0.0443 -0.9956
vn -0.0760 -0.0056 -0.9971
vn -0.3626 -0.1906 -0.9122
vn -0.3355 -0.2705 -0.9024
vn 0.3546 0.4805 -0.8021
vn -0.6018 -0.5325 -0.5952
vn -0.3446 -0.0969 -0.9337
vn -0.3353 -0.0798 -0.9387
vn -0.6714 -0.1958 -0.7148
vn -0.6698 -0.1884 -0.7182
vn 0.2610 0.0622 -0.9633
vn -0.9249 -0.2698 -0.2677
vn 0.7071 0.7071 -0.0000
vn -0.7071 0.7071 -0.0000
vn -0.7433 -0.6690 -0.0000
vn -0.6087 -0.7826 0.1304
vn 0.6854 -0.7257 0.0605
vn 0.7011 -0.7011 -0.1298
vn 0.7011 0.7011 -0.1298
vn -0.7011 0.7011 -0.1298
vn -0.7011 -0.7011 -0.1298
s 0
usemtl rsc_005008
f 1//1 2//1 3//1
f 1//1 4//1 2//1
f 25//1 26//1 27//1
f 25//1 28//1 26//1
f 29//2 27//2 30//2
f 29//3 25//3 27//3
f 28//4 31//4 26//4
f 32//5 29//5 30//5
f 33//6 34//6 35//6
f 33//7 36//7 34//7
f 37//8 35//8 38//8
f 37//9 33//9 35//9
f 36//10 39//10 34//10
f 40//11 37//11 38//11
f 41//12 42//12 43//12
f 41//13 44//13 42//13
f 45//14 43//14 46//14
f 45//15 41//15 43//15
f 44//16 47//16 42//16
f 48//17 45//17 46//17
f 49//1 50//1 51//1
f 49//1 52//1 50//1
f 53//18 51//18 54//18
f 53//19 49//19 51//19
f 52//20 55//20 50//20
f 56//21 53//21 54//21
f 57//1 58//1 59//1
f 57//1 60//1 58//1
f 61//22 59//22 62//22
f 61//23 57//23 59//23
f 60//24 63//24 58//24
f 64//25 61//25 62//25
f 65//1 66//1 67//1
f 65//1 68//1 66//1
f 69//26 67//26 70//26
f 69//27 65//27 67//27
f 68//28 71//28 66//28
f 48//29 69//29 70//29
f 72//30 73//30 74//30
f 72//30 75//30 73//30
f 76//31 74//31 77//31
f 76//31 72//31 74//31
f 75//32 78//32 73//32
f 40//33 76//33 77//33
f 79//34 80//34 81//34
f 79//35 82//35 80//35
f 83//36 81//36 84//36
f 83//37 79//37 81//37
f 82//38 85//38 80//38
f 48//39 83//39 84//39
f 86//40 87//40 88//40
f 86//41 89//41 87//41
f 90//42 88//42 91//42
f 90//43 86//43 88//43
f 89//44 92//44 87//44
f 40//45 90//45 91//45
f 93//1 94//1 95//1
f 93//1 96//1 94//1
f 97//46 94//46 98//46
f 97//46 95//46 94//46
f 98//47 96//47 99//47
f 98//47 94//47 96//47
f 99//48 96//48 93//48
f 93//49 1//49 99//49
f 93//50 95//50 97//50 1//50
usemtl rsc_904008
f 5//51 6//51 7//51
f 5//51 8//51 6//51
f 7//52 9//52 10//52
f 7//52 6//52 9//52
f 10//53 11//53 12//53
f 10//53 9//53 11//53
f 12//54 8//54 5//54
f 12//54 11//54 8//54
f 13//51 3//51 14//51
f 13//51 1//51 3//51
f 14//52 2//52 15//52
f 14//52 3//52 2//52
f 15//53 4//53 16//53
f 15//53 2//53 4//53
f 16//54 1//54 13//54
f 16//54 4//54 1//54
f 17//53 18//53 19//53
f 17//53 20//53 18//53
f 19//54 21//54 22//54
f 19//54 18//54 21//54
f 22//51 23//51 24//51
f 22//51 21//51 23//51
f 24//52 20//52 17//52
f 24//52 23//52 20//52
