# OGRS RSC model extracted from .ob3
# vertices: 99  faces: 89
mtllib 3_mature_empty.mtl

o exhaustedpalm
v 0.0 0.09 1.62
v 0.0 -0.09 1.62
v -0.09 0.0 1.62
v 0.09 0.0 1.62
v 0.0 0.19 0.54
v -0.09 0.0 1.08
v -0.19 0.0 0.54
v 0.0 0.09 1.08
v 0.0 -0.09 1.08
v 0.0 -0.19 0.54
v 0.09 0.0 1.08
v 0.19 0.0 0.54
v 0.0 0.19 1.08
v -0.19 0.0 1.08
v 0.0 -0.19 1.08
v 0.19 0.0 1.08
v 0.0 -0.19 0.0
v 0.09 0.0 0.54
v 0.19 0.0 0.0
v 0.0 -0.09 0.54
v 0.0 0.09 0.54
v 0.0 0.19 0.0
v -0.09 0.0 0.54
v -0.19 0.0 0.0
v 0.19 -0.58 1.97
v -0.05 -0.88 1.97
v -0.16 -0.58 1.97
v 0.16 -0.86 1.97
v 0.12 -0.19 1.82
v -0.14 -0.21 1.82
v 0.07 -1.11 1.82
v 0.0 -0.09 1.6600000000000001
v -0.05 0.39 2.36
v 0.3 0.56 2.46
v 0.26 0.28 2.36
v 0.09 0.63 2.46
v -0.12 0.09 2.07
v 0.12 0.02 2.07
v 0.3 0.86 2.38
v 0.0 0.0 1.8800000000000001
v -0.26 0.51 2.17
v -0.07 0.86 2.15
v 0.05 0.58 2.13
v -0.28 0.81 2.17
v -0.16 0.12 2.0100000000000002
v 0.07 0.19 1.97
v -0.26 1.04 2.0100000000000002
v 0.0 0.0 1.8
v -0.63 0.12 1.97
v -0.79 0.46 1.97
v -0.51 0.42 1.97
v -0.86 0.26 1.97
v -0.23 0.0 1.82
v -0.14 0.21 1.82
v -1.04 0.46 1.82
v -0.07 0.05 1.6600000000000001
v 0.39 0.53 1.97
v 0.79 0.46 1.97
v 0.6 0.26 1.97
v 0.65 0.65 1.97
v 0.09 0.28 1.82
v 0.21 0.09 1.82
v 0.93 0.67 1.82
v 0.09 0.09 1.6600000000000001
v 0.51 0.07 2.15
v 0.77 -0.26 2.15
v 0.46 -0.26 2.15
v 0.79 -0.05 2.15
v 0.09 0.09 1.99
v 0.07 -0.12 1.99
v 1.0 -0.21 1.99
v 0.32 -0.12 2.36
v 0.3 -0.51 2.46
v 0.09 -0.35000000000000003 2.36
v 0.46 -0.35000000000000003 2.46
v 0.09 0.05 2.07
v -0.05 -0.09 2.07
v 0.58 -0.65 2.38
v -0.21 -0.53 2.15
v -0.6 -0.58 2.18
v -0.46 -0.32 2.18
v -0.46 -0.7000000000000001 2.17
v 0.0 -0.19 1.97
v -0.19 -0.02 2.0100000000000002
v -0.7000000000000001 -0.79 2.0100000000000002
v -0.3 -0.23 2.36
v -0.63 -0.02 2.46
v -0.39 0.09 2.36
v -0.58 -0.23 2.46
v -0.02 -0.12 2.07
v -0.09 0.12 2.07
v -0.88 -0.21 2.38
v 0.0 0.12 1.8
v 0.0 -0.07 1.8
v -0.09 0.02 1.8
v 0.09 0.02 1.8
v -0.09 0.02 1.62
v 0.0 -0.07 1.62
v 0.09 0.02 1.62

usemtl rsc_005008
f 1 2 3
f 1 4 2
f 25 26 27
f 25 28 26
f 29 27 30
f 29 25 27
f 28 31 26
f 32 29 30
f 33 34 35
f 33 36 34
f 37 35 38
f 37 33 35
f 36 39 34
f 40 37 38
f 41 42 43
f 41 44 42
f 45 43 46
f 45 41 43
f 44 47 42
f 48 45 46
f 49 50 51
f 49 52 50
f 53 51 54
f 53 49 51
f 52 55 50
f 56 53 54
f 57 58 59
f 57 60 58
f 61 59 62
f 61 57 59
f 60 63 58
f 64 61 62
f 65 66 67
f 65 68 66
f 69 67 70
f 69 65 67
f 68 71 66
f 48 69 70
f 72 73 74
f 72 75 73
f 76 74 77
f 76 72 74
f 75 78 73
f 40 76 77
f 79 80 81
f 79 82 80
f 83 81 84
f 83 79 81
f 82 85 80
f 48 83 84
f 86 87 88
f 86 89 87
f 90 88 91
f 90 86 88
f 89 92 87
f 40 90 91
f 93 94 95
f 93 96 94
f 97 94 98
f 97 95 94
f 98 96 99
f 98 94 96
f 99 96 93
f 93 1 99
f 93 95 97 1
usemtl rsc_904008
f 5 6 7
f 5 8 6
f 7 9 10
f 7 6 9
f 10 11 12
f 10 9 11
f 12 8 5
f 12 11 8
f 13 3 14
f 13 1 3
f 14 2 15
f 14 3 2
f 15 4 16
f 15 2 4
f 16 1 13
f 16 4 1
f 17 18 19
f 17 20 18
f 19 21 22
f 19 18 21
f 22 23 24
f 22 21 23
f 24 20 17
f 24 23 20
