# Blender 4.0.2
# www.blender.org
mtllib 4_mature_partial.mtl
o papaya_4_partial
v 0.040000 0.090000 0.000000
v 0.040000 0.080000 0.230000
v 0.180000 0.080000 0.230000
v -0.080000 0.090000 0.000000
v 0.040000 0.050000 0.810000
v -0.080000 0.050000 0.760000
v -0.240000 0.020000 1.210000
v -0.180000 0.020000 1.260000
v -0.180000 -0.010000 1.560000
v -0.080000 -0.090000 0.000000
v 0.180000 -0.070000 0.230000
v 0.040000 -0.070000 0.230000
v 0.040000 -0.090000 0.000000
v -0.080000 -0.040000 0.760000
v 0.040000 -0.040000 0.810000
v -0.180000 -0.010000 1.260000
v -0.240000 -0.010000 1.210000
v 0.540000 0.150000 1.480000
v 0.790000 -0.010000 1.560000
v 0.260000 0.260000 1.430000
v 0.540000 -0.160000 1.480000
v 0.260000 -0.290000 1.430000
v 0.400000 0.150000 1.910000
v 0.500000 -0.010000 2.110000
v 0.250000 0.260000 1.720000
v 0.400000 -0.160000 1.910000
v 0.250000 -0.290000 1.720000
v -0.910000 0.150000 1.480000
v -1.160000 -0.010000 1.560000
v -0.630000 0.260000 1.430000
v -0.910000 -0.160000 1.480000
v -0.630000 -0.290000 1.430000
v -0.770000 0.150000 1.910000
v -0.870000 -0.010000 2.110000
v -0.620000 0.260000 1.720000
v -0.770000 -0.160000 1.910000
v -0.620000 -0.290000 1.720000
v -0.340000 0.740000 1.480000
v -0.180000 1.000000 1.560000
v -0.450000 0.460000 1.430000
v -0.030000 0.740000 1.480000
v 0.080000 0.460000 1.430000
v -0.340000 0.600000 1.910000
v -0.180000 0.700000 2.110000
v -0.450000 0.440000 1.720000
v -0.030000 0.600000 1.910000
v 0.080000 0.440000 1.720000
v -0.340000 -0.740000 1.480000
v -0.180000 -1.000000 1.560000
v -0.450000 -0.460000 1.430000
v -0.030000 -0.740000 1.480000
v 0.080000 -0.460000 1.430000
v -0.340000 -0.600000 1.910000
v -0.180000 -0.710000 2.110000
v -0.450000 -0.460000 1.720000
v -0.030000 -0.600000 1.910000
v 0.080000 -0.440000 1.720000
v 0.340000 -0.290000 1.210000
v 0.320000 -0.470000 1.010000
v 0.310000 -0.090000 1.410000
v 0.130000 -0.520000 1.210000
v -0.060000 -0.510000 1.410000
v 0.100000 0.550000 1.210000
v 0.260000 0.520000 1.010000
v -0.110000 0.510000 1.410000
v 0.320000 0.340000 1.210000
v 0.290000 0.150000 1.410000
v -0.520000 0.520000 1.210000
v -0.700000 0.460000 1.010000
v -0.340000 0.490000 1.410000
v -0.730000 0.290000 1.210000
v -0.700000 0.080000 1.410000
v -0.690000 -0.320000 1.210000
v -0.650000 -0.520000 1.010000
v -0.670000 -0.150000 1.410000
v -0.470000 -0.540000 1.210000
v -0.280000 -0.490000 1.410000
v 0.100000 0.150000 2.100000
v 0.100000 -0.010000 2.310000
v 0.100000 0.260000 1.880000
v 0.100000 -0.160000 2.100000
v 0.100000 -0.290000 1.880000
v -0.490000 -0.130000 2.100000
v -0.360000 -0.220000 2.310000
v -0.580000 -0.040000 1.880000
v -0.250000 -0.340000 2.100000
v -0.150000 -0.410000 1.880000
v -0.140000 0.070000 1.370000
v -0.170000 0.120000 1.330000
v -0.140000 0.080000 1.320000
v -0.190000 0.070000 1.230000
v -0.200000 0.120000 1.250000
v -0.220000 0.110000 1.220000
v -0.160000 0.090000 1.280000
v -0.190000 0.130000 1.280000
v -0.240000 0.020000 1.230000
v -0.210000 0.050000 1.220000
v -0.250000 0.090000 1.210000
v -0.270000 0.050000 1.220000
v -0.250000 0.010000 1.440000
v -0.220000 0.040000 1.450000
v -0.280000 -0.010000 1.380000
v -0.240000 -0.030000 1.360000
v -0.250000 -0.020000 1.310000
v -0.300000 0.000000 1.320000
v -0.190000 0.070000 1.440000
v -0.180000 0.080000 1.420000
v -0.150000 0.050000 1.390000
v -0.300000 0.020000 1.270000
v -0.280000 0.040000 1.240000
v -0.260000 0.000000 1.410000
v -0.230000 -0.030000 1.380000
v -0.200000 0.010000 1.270000
v -0.190000 0.020000 1.270000
v -0.180000 0.030000 1.270000
v -0.170000 0.040000 1.280000
v -0.160000 0.020000 1.350000
v -0.170000 0.010000 1.360000
v -0.160000 0.040000 1.320000
v -0.160000 0.030000 1.340000
v -0.210000 -0.020000 1.340000
v -0.210000 -0.020000 1.310000
v -0.180000 0.000000 1.360000
v -0.200000 -0.020000 1.350000
v -0.210000 -0.010000 1.290000
v -0.210000 0.000000 1.280000
v -0.160000 0.040000 1.290000
v -0.190000 -0.010000 1.350000
v -0.210000 0.130000 1.390000
v -0.210000 0.150000 1.340000
v -0.260000 0.130000 1.250000
v -0.230000 0.150000 1.270000
v -0.220000 0.150000 1.300000
v -0.300000 0.090000 1.250000
v -0.280000 0.110000 1.250000
v -0.290000 0.050000 1.420000
v -0.260000 0.070000 1.430000
v -0.320000 0.040000 1.340000
v -0.310000 0.040000 1.380000
v -0.230000 0.100000 1.430000
v -0.220000 0.120000 1.410000
v -0.310000 0.070000 1.270000
v -0.320000 0.060000 1.290000
v -0.300000 0.040000 1.410000
v -0.290000 0.120000 1.300000
v -0.300000 0.110000 1.300000
v -0.270000 0.140000 1.320000
v -0.280000 0.130000 1.310000
v -0.270000 0.110000 1.390000
v -0.260000 0.130000 1.370000
v -0.260000 0.140000 1.350000
v -0.310000 0.080000 1.350000
v -0.310000 0.080000 1.370000
v -0.280000 0.100000 1.390000
v -0.300000 0.080000 1.380000
v -0.310000 0.100000 1.310000
v -0.310000 0.090000 1.320000
v -0.260000 0.140000 1.330000
v -0.290000 0.090000 1.390000
v -0.290000 -0.080000 1.360000
v -0.310000 -0.050000 1.370000
v -0.270000 -0.020000 1.350000
v -0.320000 0.020000 1.290000
v -0.310000 0.010000 1.320000
v -0.370000 0.000000 1.310000
v -0.300000 0.000000 1.340000
v -0.330000 -0.020000 1.360000
v -0.340000 0.000000 1.200000
v -0.330000 0.020000 1.250000
v -0.380000 0.000000 1.260000
v -0.390000 -0.010000 1.210000
v -0.300000 -0.130000 1.210000
v -0.280000 -0.130000 1.260000
v -0.260000 -0.090000 1.250000
v -0.270000 -0.090000 1.200000
v -0.330000 -0.110000 1.160000
v -0.290000 -0.080000 1.160000
v -0.310000 -0.050000 1.150000
v -0.350000 -0.080000 1.150000
v -0.280000 -0.120000 1.310000
v -0.280000 -0.100000 1.330000
v -0.250000 -0.070000 1.290000
v -0.370000 -0.050000 1.160000
v -0.330000 -0.030000 1.160000
v -0.340000 -0.010000 1.180000
v -0.380000 -0.030000 1.190000
v -0.310000 -0.120000 1.190000
v -0.280000 -0.090000 1.170000
v -0.300000 0.000000 1.220000
v -0.290000 0.000000 1.240000
v -0.290000 0.000000 1.260000
v -0.280000 0.000000 1.280000
v -0.250000 -0.040000 1.270000
v -0.250000 -0.040000 1.260000
v -0.260000 -0.020000 1.290000
v -0.260000 -0.030000 1.290000
v -0.270000 -0.040000 1.200000
v -0.280000 -0.030000 1.190000
v -0.260000 -0.050000 1.240000
v -0.270000 -0.050000 1.200000
v -0.290000 -0.020000 1.200000
v -0.300000 -0.010000 1.210000
v -0.270000 0.000000 1.290000
v -0.260000 -0.050000 1.220000
v -0.330000 -0.100000 1.360000
v -0.350000 -0.070000 1.370000
v -0.400000 -0.040000 1.310000
v -0.380000 -0.040000 1.350000
v -0.370000 -0.050000 1.360000
v -0.420000 -0.050000 1.230000
v -0.410000 -0.040000 1.270000
v -0.350000 -0.150000 1.220000
v -0.330000 -0.140000 1.270000
v -0.390000 -0.110000 1.180000
v -0.370000 -0.130000 1.190000
v -0.330000 -0.130000 1.320000
v -0.330000 -0.120000 1.340000
v -0.410000 -0.060000 1.200000
v -0.400000 -0.080000 1.190000
v -0.360000 -0.140000 1.200000
v -0.410000 -0.080000 1.280000
v -0.390000 -0.080000 1.320000
v -0.400000 -0.080000 1.300000
v -0.370000 -0.110000 1.320000
v -0.380000 -0.100000 1.330000
v -0.400000 -0.110000 1.230000
v -0.370000 -0.130000 1.280000
v -0.400000 -0.100000 1.230000
v -0.380000 -0.130000 1.250000
v -0.010000 0.110000 1.390000
v -0.030000 0.070000 1.400000
v -0.070000 0.090000 1.410000
v -0.040000 0.130000 1.400000
v -0.090000 0.170000 1.330000
v -0.080000 0.160000 1.370000
v -0.120000 0.130000 1.370000
v -0.130000 0.140000 1.340000
v -0.070000 0.150000 1.390000
v -0.100000 0.120000 1.390000
v -0.080000 0.180000 1.240000
v -0.090000 0.180000 1.290000
v -0.140000 0.160000 1.280000
v -0.120000 0.150000 1.230000
v 0.020000 0.060000 1.230000
v 0.030000 0.110000 1.240000
v -0.010000 0.090000 1.180000
v 0.010000 0.130000 1.200000
v -0.040000 0.110000 1.160000
v -0.010000 0.060000 1.370000
v 0.010000 0.100000 1.360000
v 0.020000 0.100000 1.340000
v -0.080000 0.140000 1.170000
v -0.050000 0.170000 1.200000
v -0.070000 0.180000 1.210000
v -0.100000 0.150000 1.200000
v 0.010000 0.070000 1.200000
v 0.020000 0.120000 1.210000
v -0.040000 0.180000 1.270000
v -0.050000 0.170000 1.310000
v -0.040000 0.170000 1.340000
v 0.000000 0.140000 1.330000
v 0.010000 0.140000 1.320000
v -0.020000 0.150000 1.350000
v -0.010000 0.140000 1.340000
v 0.010000 0.150000 1.250000
v -0.030000 0.170000 1.250000
v -0.040000 0.160000 1.340000
v 0.010000 0.140000 1.270000
v -0.060000 0.040000 1.380000
v -0.090000 0.050000 1.390000
v -0.140000 0.100000 1.320000
v -0.130000 0.090000 1.360000
v -0.120000 0.080000 1.380000
v -0.130000 0.110000 1.230000
v -0.140000 0.110000 1.280000
v -0.020000 0.030000 1.230000
v -0.020000 0.020000 1.280000
v -0.070000 0.070000 1.180000
v -0.120000 0.100000 1.200000
v -0.100000 0.090000 1.180000
v -0.030000 0.040000 1.200000
v -0.120000 0.070000 1.270000
v -0.120000 0.070000 1.250000
v -0.120000 0.060000 1.320000
v -0.120000 0.060000 1.300000
v -0.080000 0.030000 1.330000
v -0.100000 0.040000 1.330000
v -0.060000 0.030000 1.280000
v -0.070000 0.030000 1.230000
v -0.110000 0.060000 1.240000
v -0.100000 0.060000 1.230000
v -0.110000 0.050000 1.320000
v -0.060000 0.030000 1.250000
v -0.260000 -0.010000 1.220000
v -0.300000 0.000000 1.230000
v -0.290000 0.030000 1.250000
v -0.250000 0.010000 1.230000
v -0.230000 0.080000 1.180000
v -0.230000 0.060000 1.210000
v -0.270000 0.090000 1.220000
v -0.260000 0.110000 1.190000
v -0.230000 0.040000 1.220000
v -0.270000 0.070000 1.240000
v -0.240000 0.090000 1.090000
v -0.230000 0.090000 1.140000
v -0.260000 0.120000 1.140000
v -0.270000 0.120000 1.090000
v -0.330000 -0.030000 1.130000
v -0.290000 -0.030000 1.130000
v -0.290000 -0.020000 1.080000
v -0.330000 0.030000 1.030000
v -0.280000 0.010000 1.040000
v -0.270000 0.040000 1.040000
v -0.310000 0.060000 1.020000
v -0.330000 -0.030000 1.180000
v -0.320000 -0.010000 1.210000
v -0.270000 -0.020000 1.190000
v -0.280000 -0.030000 1.170000
v -0.290000 0.090000 1.040000
v -0.250000 0.070000 1.050000
v -0.240000 0.080000 1.070000
v -0.280000 0.110000 1.070000
v -0.330000 0.000000 1.060000
v -0.290000 -0.010000 1.050000
v -0.230000 0.050000 1.110000
v -0.230000 0.050000 1.130000
v -0.220000 0.040000 1.150000
v -0.220000 0.030000 1.170000
v -0.240000 -0.010000 1.160000
v -0.250000 -0.010000 1.150000
v -0.230000 0.010000 1.180000
v -0.240000 0.000000 1.170000
v -0.250000 0.010000 1.080000
v -0.240000 0.020000 1.080000
v -0.250000 -0.010000 1.120000
v -0.250000 0.000000 1.090000
v -0.240000 0.040000 1.080000
v -0.230000 0.040000 1.090000
v -0.230000 0.020000 1.170000
v -0.250000 0.000000 1.100000
v -0.340000 0.020000 1.230000
v -0.310000 0.120000 1.190000
v -0.310000 0.100000 1.230000
v -0.320000 0.130000 1.100000
v -0.370000 0.010000 1.140000
v -0.350000 0.080000 1.050000
v -0.360000 0.050000 1.050000
v -0.360000 0.010000 1.190000
v -0.350000 0.010000 1.210000
v -0.330000 0.120000 1.080000
v -0.340000 0.110000 1.060000
v -0.370000 0.030000 1.070000
v -0.350000 0.090000 1.190000
v -0.340000 0.100000 1.170000
v -0.370000 0.050000 1.180000
v -0.360000 0.050000 1.190000
v -0.370000 0.080000 1.100000
v -0.350000 0.100000 1.110000
v -0.360000 0.090000 1.100000
v -0.070000 -0.120000 1.430000
v -0.100000 -0.090000 1.430000
v -0.070000 -0.060000 1.450000
v -0.040000 -0.100000 1.440000
v 0.010000 -0.050000 1.380000
v -0.000000 -0.060000 1.420000
v -0.020000 -0.030000 1.410000
v -0.020000 -0.070000 1.430000
v -0.040000 -0.040000 1.430000
v 0.020000 -0.060000 1.290000
v 0.020000 -0.060000 1.340000
v 0.010000 -0.010000 1.330000
v 0.010000 -0.020000 1.280000
v -0.130000 -0.140000 1.330000
v -0.090000 -0.150000 1.340000
v -0.080000 -0.150000 1.290000
v -0.090000 -0.110000 1.230000
v -0.060000 -0.140000 1.250000
v -0.030000 -0.120000 1.240000
v -0.050000 -0.090000 1.220000
v -0.130000 -0.130000 1.380000
v -0.080000 -0.130000 1.410000
v -0.090000 -0.140000 1.380000
v -0.020000 -0.060000 1.230000
v -0.000000 -0.090000 1.250000
v -0.010000 -0.040000 1.260000
v -0.110000 -0.130000 1.260000
v -0.070000 -0.150000 1.260000
v -0.000000 -0.100000 1.320000
v -0.000000 -0.100000 1.340000
v -0.000000 -0.100000 1.360000
v -0.010000 -0.100000 1.380000
v -0.050000 -0.140000 1.380000
v -0.050000 -0.140000 1.360000
v -0.030000 -0.120000 1.390000
v -0.030000 -0.140000 1.300000
v -0.020000 -0.130000 1.290000
v -0.050000 -0.140000 1.340000
v -0.010000 -0.110000 1.300000
v -0.010000 -0.110000 1.390000
v -0.040000 -0.150000 1.310000
v -0.120000 -0.060000 1.420000
v -0.100000 -0.030000 1.430000
v -0.040000 0.010000 1.370000
v -0.070000 -0.010000 1.420000
v -0.030000 0.000000 1.280000
v -0.030000 0.000000 1.330000
v -0.130000 -0.090000 1.280000
v -0.140000 -0.090000 1.330000
v -0.080000 -0.050000 1.230000
v -0.110000 -0.080000 1.240000
v -0.140000 -0.080000 1.370000
v -0.140000 -0.070000 1.390000
v -0.040000 -0.010000 1.260000
v -0.050000 -0.030000 1.240000
v -0.120000 -0.090000 1.250000
v -0.080000 -0.010000 1.320000
v -0.080000 -0.010000 1.300000
v -0.090000 -0.010000 1.370000
v -0.080000 -0.010000 1.350000
v -0.130000 -0.050000 1.350000
v -0.130000 -0.040000 1.360000
v -0.120000 -0.040000 1.370000
v -0.110000 -0.030000 1.380000
v -0.100000 -0.040000 1.280000
v -0.110000 -0.050000 1.280000
v -0.130000 -0.050000 1.320000
v -0.120000 -0.050000 1.290000
v -0.080000 -0.020000 1.290000
v -0.090000 -0.020000 1.280000
v -0.120000 -0.050000 1.300000
v -0.210000 0.080000 1.240000
v -0.220000 0.130000 1.260000
v -0.180000 0.130000 1.260000
v -0.180000 0.090000 1.250000
v -0.140000 0.090000 1.220000
v -0.140000 0.150000 1.230000
v -0.130000 0.150000 1.200000
v -0.150000 0.090000 1.230000
v -0.150000 0.140000 1.250000
v -0.140000 0.110000 1.100000
v -0.130000 0.110000 1.140000
v -0.120000 0.160000 1.150000
v -0.140000 0.170000 1.100000
v -0.270000 0.140000 1.110000
v -0.270000 0.140000 1.160000
v -0.240000 0.090000 1.150000
v -0.240000 0.100000 1.100000
v -0.220000 0.100000 1.060000
v -0.200000 0.110000 1.050000
v -0.210000 0.160000 1.040000
v -0.250000 0.130000 1.210000
v -0.240000 0.130000 1.230000
v -0.220000 0.080000 1.220000
v -0.230000 0.080000 1.200000
v -0.170000 0.170000 1.050000
v -0.170000 0.110000 1.060000
v -0.150000 0.110000 1.080000
v -0.150000 0.170000 1.080000
v -0.250000 0.150000 1.080000
v -0.240000 0.100000 1.080000
v -0.160000 0.080000 1.120000
v -0.160000 0.070000 1.180000
v -0.200000 0.070000 1.180000
v -0.180000 0.070000 1.190000
v -0.190000 0.060000 1.190000
v -0.200000 0.080000 1.100000
v -0.190000 0.080000 1.100000
v -0.210000 0.070000 1.110000
v -0.180000 0.080000 1.100000
v -0.170000 0.080000 1.110000
v -0.170000 0.070000 1.190000
v -0.220000 0.180000 1.250000
v -0.190000 0.190000 1.260000
v -0.150000 0.200000 1.200000
v -0.150000 0.200000 1.230000
v -0.170000 0.190000 1.250000
v -0.150000 0.210000 1.110000
v -0.150000 0.210000 1.160000
v -0.260000 0.200000 1.120000
v -0.260000 0.190000 1.170000
v -0.210000 0.210000 1.070000
v -0.250000 0.190000 1.210000
v -0.240000 0.180000 1.230000
v -0.170000 0.210000 1.090000
v -0.190000 0.210000 1.080000
v -0.180000 0.230000 1.160000
v -0.190000 0.230000 1.140000
v -0.180000 0.220000 1.200000
v -0.180000 0.230000 1.180000
v -0.230000 0.220000 1.190000
v -0.220000 0.220000 1.200000
v -0.220000 0.220000 1.210000
v -0.200000 0.220000 1.220000
v -0.210000 0.230000 1.120000
v -0.230000 0.220000 1.170000
v -0.190000 0.230000 1.130000
v -0.200000 0.230000 1.120000
v -0.190000 0.220000 1.210000
v -0.230000 0.220000 1.140000
v 0.020000 -0.010000 1.320000
v -0.010000 -0.050000 1.330000
v -0.040000 -0.030000 1.340000
v -0.040000 0.040000 1.270000
v -0.030000 0.030000 1.310000
v -0.070000 0.000000 1.310000
v -0.080000 0.010000 1.280000
v -0.020000 0.020000 1.320000
v -0.060000 -0.010000 1.330000
v -0.040000 0.040000 1.180000
v -0.040000 0.040000 1.230000
v -0.090000 0.020000 1.230000
v -0.080000 0.010000 1.180000
v 0.010000 -0.080000 1.180000
v 0.020000 -0.080000 1.230000
v 0.040000 -0.030000 1.230000
v 0.040000 -0.030000 1.180000
v -0.010000 -0.050000 1.130000
v 0.000000 0.010000 1.130000
v -0.040000 -0.030000 1.110000
v 0.010000 -0.080000 1.280000
v 0.030000 -0.020000 1.290000
v 0.040000 -0.030000 1.270000
v -0.060000 -0.010000 1.130000
v -0.020000 0.020000 1.140000
v -0.030000 0.030000 1.160000
v -0.070000 0.000000 1.150000
v -0.000000 -0.070000 1.150000
v 0.030000 -0.020000 1.150000
v 0.000000 0.040000 1.200000
v 0.000000 0.040000 1.230000
v 0.000000 0.040000 1.250000
v 0.000000 0.040000 1.270000
v 0.030000 0.010000 1.260000
v 0.040000 0.010000 1.250000
v 0.020000 0.020000 1.280000
v 0.030000 0.010000 1.270000
v 0.030000 0.010000 1.180000
v 0.020000 0.020000 1.180000
v 0.040000 0.010000 1.230000
v 0.030000 0.010000 1.190000
v 0.010000 0.030000 1.180000
v 0.000000 0.040000 1.190000
v 0.010000 0.030000 1.270000
v 0.040000 0.010000 1.200000
v -0.050000 -0.090000 1.320000
v -0.070000 -0.070000 1.330000
v -0.110000 -0.030000 1.270000
v -0.100000 -0.040000 1.310000
v -0.090000 -0.050000 1.320000
v -0.110000 -0.030000 1.180000
v -0.110000 -0.030000 1.230000
v -0.030000 -0.100000 1.180000
v -0.030000 -0.110000 1.230000
v -0.070000 -0.070000 1.130000
v -0.050000 -0.090000 1.140000
v -0.030000 -0.100000 1.270000
v -0.040000 -0.100000 1.290000
v -0.100000 -0.040000 1.160000
v -0.090000 -0.050000 1.140000
v -0.040000 -0.100000 1.150000
v -0.110000 -0.070000 1.230000
v -0.110000 -0.070000 1.200000
v -0.100000 -0.070000 1.270000
v -0.110000 -0.070000 1.250000
v -0.070000 -0.100000 1.250000
v -0.070000 -0.100000 1.260000
v -0.080000 -0.100000 1.270000
v -0.090000 -0.090000 1.280000
v -0.080000 -0.100000 1.180000
v -0.070000 -0.110000 1.230000
v -0.070000 -0.100000 1.190000
v -0.100000 -0.070000 1.190000
v -0.100000 -0.080000 1.180000
v -0.100000 -0.080000 1.270000
v -0.070000 -0.100000 1.200000
v -0.180000 -0.140000 1.330000
v -0.220000 -0.130000 1.340000
v -0.210000 -0.090000 1.340000
v -0.170000 -0.100000 1.330000
v -0.150000 -0.060000 1.250000
v -0.150000 -0.060000 1.290000
v -0.200000 -0.040000 1.290000
v -0.190000 -0.030000 1.260000
v -0.160000 -0.080000 1.170000
v -0.150000 -0.060000 1.210000
v -0.200000 -0.050000 1.160000
v -0.250000 -0.200000 1.210000
v -0.250000 -0.200000 1.260000
v -0.200000 -0.190000 1.250000
v -0.200000 -0.200000 1.200000
v -0.240000 -0.180000 1.150000
v -0.190000 -0.180000 1.160000
v -0.180000 -0.150000 1.140000
v -0.230000 -0.140000 1.130000
v -0.240000 -0.180000 1.300000
v -0.230000 -0.160000 1.320000
v -0.180000 -0.160000 1.310000
v -0.190000 -0.180000 1.290000
v -0.170000 -0.120000 1.140000
v -0.160000 -0.100000 1.150000
v -0.210000 -0.070000 1.150000
v -0.250000 -0.190000 1.180000
v -0.200000 -0.200000 1.180000
v -0.150000 -0.110000 1.200000
v -0.140000 -0.110000 1.220000
v -0.140000 -0.100000 1.240000
v -0.140000 -0.100000 1.260000
v -0.160000 -0.150000 1.270000
v -0.160000 -0.160000 1.260000
v -0.150000 -0.130000 1.280000
v -0.150000 -0.140000 1.280000
v -0.160000 -0.160000 1.200000
v -0.160000 -0.150000 1.190000
v -0.160000 -0.170000 1.240000
v -0.160000 -0.170000 1.200000
v -0.150000 -0.130000 1.190000
v -0.150000 -0.120000 1.190000
v -0.140000 -0.110000 1.270000
v -0.160000 -0.170000 1.220000
v -0.270000 -0.110000 1.330000
v -0.260000 -0.080000 1.330000
v -0.240000 -0.030000 1.250000
v -0.240000 -0.030000 1.290000
v -0.240000 -0.030000 1.210000
v -0.270000 -0.120000 1.140000
v -0.280000 -0.150000 1.160000
v -0.280000 -0.150000 1.290000
v -0.280000 -0.130000 1.310000
v -0.260000 -0.090000 1.140000
v -0.290000 -0.170000 1.180000
v -0.280000 -0.060000 1.220000
v -0.280000 -0.060000 1.240000
v -0.290000 -0.110000 1.190000
v -0.300000 -0.120000 1.200000
v -0.300000 -0.130000 1.200000
v -0.290000 -0.090000 1.190000
vn -0.0000 0.9991 0.0434
vn -0.0215 0.9984 0.0516
vn -0.0000 0.9987 0.0517
vn -0.0394 0.9981 0.0473
vn -0.0241 0.9980 0.0579
vn -0.0000 -0.9962 0.0866
vn -0.0000 -0.9984 0.0565
vn -0.0196 -0.9987 0.0469
vn -0.0428 -0.9978 0.0513
vn -0.0230 -0.9982 0.0553
vn 0.8542 -0.0000 -0.5199
vn 0.9721 -0.0000 0.2346
vn 0.8984 -0.0000 0.4392
vn -0.9422 -0.0000 -0.3350
vn -0.9753 -0.0000 -0.2208
vn -0.8866 -0.0000 0.4626
vn -0.0826 0.9916 0.0992
vn -0.0000 -1.0000 -0.0000
vn 1.0000 -0.0000 -0.0000
vn -0.9856 -0.0000 0.1690
vn -0.0000 -0.4472 -0.8944
vn -0.0058 -0.4261 -0.9047
vn -0.0000 -0.4706 0.8824
vn 0.0196 -0.3955 0.9183
vn 0.5443 -0.5010 -0.6729
vn 0.5484 -0.4592 -0.6988
vn -0.5351 -0.5254 0.6616
vn -0.5457 -0.4255 0.7219
vn -0.0000 0.4472 0.8944
vn -0.0058 0.4260 0.9047
vn -0.0000 0.4706 -0.8824
vn 0.0195 0.3951 -0.9184
vn 0.5373 0.5068 0.6741
vn 0.5413 0.4682 0.6984
vn -0.5281 0.5313 -0.6625
vn -0.5387 0.4339 -0.7222
vn 0.4472 -0.0000 -0.8944
vn 0.4258 -0.0057 -0.9048
vn 0.4706 -0.0000 0.8824
vn 0.4335 0.0094 0.9011
vn 0.5179 0.5239 -0.6763
vn 0.4604 0.5296 -0.7125
vn 0.5425 -0.5144 0.6641
vn 0.4681 -0.5236 0.7119
vn -0.4472 -0.0000 0.8944
vn -0.4260 -0.0058 0.9047
vn -0.4706 -0.0000 -0.8824
vn -0.4339 0.0096 -0.9009
vn -0.4874 0.5395 0.6866
vn -0.4935 0.5388 0.6827
vn -0.5116 -0.5309 -0.6756
vn -0.4500 -0.5375 -0.7132
vn -0.0470 0.7448 -0.6656
vn -0.1041 0.6954 -0.7110
vn 0.7281 -0.0274 0.6849
vn 0.7238 -0.0331 0.6892
vn -0.7809 -0.0000 -0.6247
vn -0.6726 -0.1201 -0.7302
vn -0.0426 0.7362 0.6754
vn -0.0284 0.7268 0.6862
vn -0.7386 -0.0291 0.6735
vn -0.7456 -0.0390 0.6652
vn -0.0032 -0.7617 -0.6479
vn 0.0922 -0.6798 -0.7276
vn -0.0490 -0.7111 0.7013
vn 0.0201 -0.7628 0.6464
vn 0.7445 0.0329 -0.6668
vn 0.7147 0.0686 -0.6961
vn 0.8514 -0.4172 -0.3179
vn 0.8084 -0.5264 -0.2632
vn -0.8414 -0.4398 0.3141
vn -0.8218 -0.4905 0.2899
vn 0.1625 0.9394 0.3020
vn 0.1776 0.9342 0.3095
vn -0.9045 -0.3015 -0.3015
vn -0.8980 -0.3140 -0.3083
vn -0.0000 0.2747 0.9615
vn 0.4196 0.9063 0.0504
vn -0.3323 -0.0554 0.9415
vn -0.7698 -0.6034 0.2081
vn 0.3438 0.8595 -0.3782
vn -0.6627 0.4678 0.5848
vn -0.1019 0.9855 0.1359
vn -0.9336 0.3556 0.0445
vn -0.9242 0.2385 0.2981
vn -0.7119 0.6610 0.2373
vn -0.4855 -0.8216 0.2988
vn 0.3815 -0.0898 -0.9200
vn -0.3875 -0.6340 -0.6692
vn 0.8011 0.1602 0.5768
vn 0.6462 0.5026 -0.5744
vn 0.9123 0.3801 0.1521
vn 0.6804 -0.6804 0.2722
vn 0.6447 -0.7252 0.2417
vn 0.1302 -0.9113 -0.3906
vn 0.9790 -0.1224 -0.1632
vn 0.5298 -0.5298 -0.6623
vn 0.8729 -0.2182 -0.4364
vn 0.9478 -0.2962 0.1185
vn 0.2025 -0.9787 -0.0337
vn 0.5474 -0.5083 -0.6648
vn 0.1638 -0.9831 -0.0819
vn -0.1606 0.2141 0.9635
vn 0.3989 -0.6316 0.6648
vn -0.8808 0.4698 -0.0587
vn 0.3501 -0.9335 -0.0778
vn -0.6136 0.6903 0.3835
vn 0.1590 -0.2544 0.9539
vn -0.1435 -0.4879 -0.8610
vn -0.3938 0.6694 0.6300
vn -0.9285 -0.0000 0.3714
vn -0.3276 -0.7861 0.5241
vn -0.9844 0.1055 0.1406
vn -0.3145 -0.9435 -0.1048
vn -0.7682 -0.5909 0.2462
vn -0.1204 0.2408 -0.9631
vn 0.7920 -0.6092 -0.0406
vn -0.2840 0.9586 0.0178
vn 0.2673 0.5345 0.8018
vn -0.3387 0.7527 -0.5645
vn 0.7125 -0.2850 0.6412
vn 0.7775 -0.6047 -0.1728
vn -0.2242 0.8222 0.5232
vn 0.7399 -0.4036 0.5381
vn 0.6238 0.0520 0.7798
vn 0.1590 -0.2544 -0.9539
vn 0.8889 0.1111 -0.4444
vn 0.9487 -0.0000 -0.3162
vn 0.3989 0.6316 -0.6648
vn 0.9671 0.2036 0.1527
vn 0.2752 0.9358 -0.2202
vn 0.5276 -0.7650 -0.3693
vn 0.4364 -0.8729 0.2182
vn 0.2850 -0.7125 0.6412
vn 0.4638 -0.8348 -0.2968
vn -0.7071 -0.0000 0.7071
vn -0.7701 0.2369 -0.5923
vn 0.0299 -0.9883 -0.1497
vn -0.7276 -0.4851 -0.4851
vn -0.6693 -0.6023 -0.4350
vn -0.3369 -0.8422 -0.4211
vn -0.8944 -0.4472 -0.0000
vn -0.2157 -0.9705 0.1078
vn -0.0269 0.5104 -0.8595
vn 0.9446 -0.1219 -0.3047
vn 0.7620 -0.1270 -0.6350
vn 0.9495 -0.1055 0.2954
vn 0.9889 -0.0824 -0.1236
vn -0.5437 0.7249 0.4229
vn 0.2592 0.1728 0.9503
vn 0.9226 0.3625 0.1318
vn 0.8920 0.4460 -0.0743
vn 0.3154 0.9148 -0.2524
vn 0.6396 0.6396 0.4264
vn 0.7420 0.6360 -0.2120
vn -0.0000 0.9806 0.1961
vn 0.8835 0.4016 0.2410
vn 0.1532 0.9806 0.1226
vn -0.1086 0.5430 -0.8327
vn -0.6000 -0.4800 -0.6400
vn -0.7001 -0.7001 0.1400
vn -0.2005 0.2578 0.9452
vn -0.0619 0.8666 -0.4952
vn -0.4813 -0.6532 0.5845
vn -0.7114 -0.6860 -0.1524
vn 0.0675 0.9117 -0.4052
vn -0.9844 -0.1055 0.1406
vn -0.9790 -0.1748 -0.1049
vn -0.9790 -0.1748 0.1049
vn -0.6583 0.5570 0.5064
vn -0.8444 0.1299 0.5197
vn -0.7845 0.1961 0.5883
vn -0.4579 0.8548 0.2442
vn -0.9056 0.3924 0.1610
vn 0.7412 0.6671 -0.0741
vn -0.0796 -0.8751 0.4773
vn 0.6155 0.4924 0.6155
vn 0.3862 0.6759 -0.6276
vn 0.5747 -0.7663 -0.2873
vn 0.8397 -0.0600 -0.5398
vn 0.7071 -0.7071 -0.0000
vn 0.8348 -0.4833 0.2636
vn 0.2063 0.3094 -0.9283
vn -0.4082 -0.4082 -0.8165
vn -0.9770 -0.2124 0.0212
vn -0.0549 0.5218 0.8513
vn -0.5015 0.2229 0.8359
vn 0.2721 0.6607 0.6996
vn -0.8944 0.4472 -0.0000
vn -0.9013 0.3605 -0.2403
vn -0.9124 0.3509 -0.2106
vn -0.0000 0.9806 -0.1961
vn -0.4842 0.8301 0.2767
vn -0.6688 0.5414 -0.5095
vn -0.8016 0.5726 0.1718
vn -0.0870 0.9856 -0.1449
vn -0.8165 0.4082 -0.4082
vn 0.3081 -0.0513 0.9500
vn 0.9805 0.1918 -0.0426
vn -0.4016 -0.5623 0.7229
vn 0.1961 -0.9806 -0.0000
vn 0.2592 -0.9503 0.1728
vn 0.9684 -0.2075 0.1383
vn 0.8286 -0.5273 -0.1883
vn 0.7191 -0.5230 0.4576
vn 0.5726 -0.8016 -0.1718
vn 0.5414 -0.6688 0.5095
vn 0.4082 -0.8165 0.4082
vn 0.9272 -0.2649 0.2649
vn 0.0883 0.3238 -0.9420
vn -0.8448 0.1408 -0.5163
vn -0.9452 0.0567 0.3214
vn 0.8165 0.4082 -0.4082
vn 0.8681 0.4674 -0.1669
vn 0.8507 0.3329 0.4068
vn -0.8944 -0.0000 0.4472
vn -0.2910 0.1455 0.9456
vn -0.4663 0.2798 -0.8393
vn -0.3378 0.8632 -0.3753
vn 0.5137 0.8561 -0.0571
vn 0.1907 0.8581 0.4767
vn -0.4575 0.7625 0.4575
vn -0.1374 0.8242 0.5494
vn -0.5834 0.7130 0.3889
vn -0.3015 0.9045 -0.3015
vn -0.9458 -0.2838 -0.1576
vn -0.8938 -0.4274 0.1360
vn 0.9843 -0.1758 -0.0176
vn -0.5773 -0.5774 0.5773
vn -0.3530 -0.0963 -0.9307
vn 0.7793 -0.0623 -0.6235
vn -0.4730 -0.8785 0.0676
vn -0.5472 -0.8208 -0.1642
vn 0.4905 -0.6745 -0.5518
vn 0.3875 -0.6692 -0.6340
vn 0.6838 -0.5698 -0.4558
vn 0.7417 -0.6593 -0.1236
vn -0.2403 -0.9013 0.3605
vn -0.1302 -0.9113 0.3906
vn 0.6556 -0.7493 -0.0937
vn -0.1907 -0.8581 -0.4767
vn -0.8909 0.4454 0.0891
vn -0.7798 0.4679 0.4159
vn 0.4851 -0.7276 0.4851
vn 0.1864 -0.5592 0.8078
vn -0.8340 -0.3207 -0.4491
vn -0.9684 -0.1383 -0.2075
vn -1.0000 -0.0000 -0.0000
vn -0.4851 -0.7276 -0.4851
vn -0.6345 -0.7729 -0.0000
vn -0.1103 0.3308 -0.9372
vn 0.6276 -0.3862 -0.6759
vn 0.8662 -0.4812 0.1347
vn -0.1541 0.4623 0.8732
vn -0.4676 0.8714 -0.1488
vn 0.5386 -0.0898 0.8378
vn 0.9335 0.2334 -0.2723
vn -0.0000 1.0000 -0.0000
vn 0.0976 0.9759 -0.1952
vn 0.0788 0.9457 -0.3152
vn 0.2018 0.9417 0.2691
vn 0.9631 0.1204 0.2408
vn 0.7625 0.4575 -0.4575
vn 0.8340 0.3208 0.4491
vn 0.0605 0.9684 0.2421
vn -0.2287 0.0572 -0.9718
vn -0.1186 0.9880 -0.0988
vn -0.1177 0.5178 0.8474
vn -0.4069 -0.4808 0.7767
vn 0.0327 0.8512 0.5238
vn -0.1001 0.6337 -0.7671
vn -0.9396 -0.0671 0.3356
vn -0.9701 -0.2425 -0.0000
vn -0.8595 0.1719 -0.4813
vn -0.5622 0.8081 -0.1757
vn -0.9129 0.1826 0.3651
vn -0.6000 0.8000 -0.0000
vn -0.9566 0.2899 0.0290
vn 0.1809 -0.0517 -0.9821
vn -0.0922 -0.9838 -0.1537
vn 0.5095 0.5414 -0.6688
vn 0.6000 -0.8000 -0.0000
vn 0.8889 -0.1111 0.4444
vn 0.8944 -0.0000 0.4472
vn 0.8736 -0.1747 0.4543
s 0
usemtl tex_32767
f 1//1 2//1 3//1
f 1//1 4//1 2//1
f 5//2 2//2 6//2
f 5//3 3//3 2//3
f 5//4 7//4 8//4
f 5//5 6//5 7//5
f 10//6 11//6 12//6
f 10//6 13//6 11//6
f 11//7 14//7 12//7
f 11//8 15//8 14//8
f 14//9 16//9 17//9
f 14//10 15//10 16//10
f 1//11 11//11 13//11
f 1//11 3//11 11//11
f 3//12 15//12 11//12
f 3//12 5//12 15//12
f 5//13 16//13 15//13
f 5//13 8//13 16//13
f 14//14 7//14 6//14
f 14//14 17//14 7//14
f 12//15 6//15 2//15
f 12//15 14//15 6//15
f 10//16 2//16 4//16
f 10//16 12//16 2//16
usemtl rsc_904008
f 8//17 7//17 9//17
f 17//18 16//18 9//18
f 8//19 9//19 16//19
f 17//20 9//20 7//20
usemtl rsc_307008
f 9//21 18//21 19//21
f 9//22 20//22 18//22
f 9//23 21//23 19//23
f 9//24 22//24 21//24
f 9//25 23//25 24//25
f 9//26 25//26 23//26
f 9//27 26//27 24//27
f 9//28 27//28 26//28
f 9//29 28//29 29//29
f 9//30 30//30 28//30
f 9//31 31//31 29//31
f 9//32 32//32 31//32
f 9//33 33//33 34//33
f 9//34 35//34 33//34
f 9//35 36//35 34//35
f 9//36 37//36 36//36
f 9//37 38//37 39//37
f 9//38 40//38 38//38
f 9//39 41//39 39//39
f 9//40 42//40 41//40
f 9//41 43//41 44//41
f 9//42 45//42 43//42
f 9//43 46//43 44//43
f 9//44 47//44 46//44
f 9//45 48//45 49//45
f 9//46 50//46 48//46
f 9//47 51//47 49//47
f 9//48 52//48 51//48
f 9//49 53//49 54//49
f 9//50 55//50 53//50
f 9//51 56//51 54//51
f 9//52 57//52 56//52
f 9//53 58//53 59//53
f 9//54 60//54 58//54
f 9//55 61//55 59//55
f 9//56 62//56 61//56
f 9//57 63//57 64//57
f 9//58 65//58 63//58
f 9//59 66//59 64//59
f 9//60 67//60 66//60
f 9//61 68//61 69//61
f 9//62 70//62 68//62
f 9//63 71//63 69//63
f 9//64 72//64 71//64
f 9//65 73//65 74//65
f 9//66 75//66 73//66
f 9//67 76//67 74//67
f 9//68 77//68 76//68
f 9//69 78//69 79//69
f 9//70 80//70 78//70
f 9//71 81//71 79//71
f 9//72 82//72 81//72
f 9//73 83//73 84//73
f 9//74 85//74 83//74
f 9//75 86//75 84//75
f 9//76 87//76 86//76
usemtl rsc_a88010
f 96//77 97//77 98//77 99//77
f 102//78 103//78 104//78 105//78
f 97//79 91//79 93//79 98//79
f 90//80 89//80 95//80 94//80
f 111//81 112//81 103//81 102//81
f 91//82 97//82 114//82 115//82
f 104//83 103//83 121//83 122//83
f 108//84 88//84 120//84 117//84
f 90//85 94//85 127//85 119//85
f 124//86 128//86 123//86 118//86 117//86 120//86 119//86 127//86 116//86 115//86 114//86 113//86 126//86 125//86 122//86 121//86
f 133//87 132//87 92//87 95//87
f 100//88 136//88 137//88 101//88
f 106//89 140//89 141//89 107//89
f 109//90 110//90 142//90 143//90
f 111//91 144//91 136//91 100//91
f 105//92 109//92 143//92 138//92
f 135//93 145//93 146//93 134//93
f 131//94 148//94 145//94 135//94
f 129//95 150//95 151//95 130//95
f 138//96 152//96 153//96 139//96
f 137//97 154//97 149//97 140//97
f 139//98 153//98 155//98 144//98
f 142//99 156//99 157//99 143//99
f 130//100 151//100 158//100 133//100
f 136//101 159//101 154//101 137//101
f 133//102 158//102 147//102 132//102
f 176//103 177//103 178//103 179//103
f 183//104 184//104 185//104 186//104
f 173//105 180//105 182//105 174//105
f 169//106 163//106 165//106 170//106
f 187//107 172//107 175//107 188//107
f 179//108 178//108 184//108 183//108
f 162//109 161//109 167//109 166//109
f 187//110 188//110 177//110 176//110
f 188//111 175//111 204//111 200//111
f 168//112 185//112 202//112 189//112
f 175//113 174//113 199//113 204//113
f 166//114 164//114 192//114 203//114
f 200//115 204//115 199//115 194//115 193//115 196//115 195//115 203//115 192//115 191//115 190//115 189//115 202//115 201//115 198//115 197//115
f 205//116 206//116 161//116 160//116
f 210//117 171//117 170//117 211//117
f 172//118 212//118 213//118 173//118
f 176//119 179//119 214//119 215//119
f 180//120 216//120 217//120 181//120
f 183//121 186//121 218//121 219//121
f 211//122 170//122 165//122 207//122
f 187//123 220//123 212//123 172//123
f 218//124 186//124 171//124 210//124
f 179//125 183//125 219//125 214//125
f 206//126 209//126 167//126 161//126
f 208//127 222//127 223//127 207//127
f 207//128 223//128 221//128 211//128
f 205//129 224//129 225//129 206//129
f 219//130 228//130 226//130 214//130
f 212//131 229//131 227//131 213//131
f 234//132 235//132 236//132 237//132
f 240//133 241//133 242//133 243//133
f 252//134 253//134 254//134 255//134
f 241//135 234//135 237//135 242//135
f 256//136 257//136 247//136 246//136
f 250//137 249//137 231//137 230//137
f 235//138 234//138 259//138 260//138
f 251//139 250//139 261//139 262//139
f 230//140 233//140 263//140 264//140
f 233//141 238//141 267//141 263//141
f 257//142 245//142 268//142 265//142
f 240//143 254//143 266//143 258//143
f 269//144 270//144 232//144 231//144
f 271//145 237//145 236//145 272//145
f 273//146 272//146 236//146 239//146
f 274//147 243//147 242//147 275//147
f 275//148 242//148 237//148 271//148
f 256//149 281//149 276//149 244//149
f 248//150 252//150 280//150 278//150
f 275//151 282//151 283//151 274//151
f 272//152 284//152 285//152 271//152
f 269//153 286//153 287//153 270//153
f 279//154 290//154 291//154 280//154
f 270//155 287//155 292//155 273//155
f 281//156 289//156 293//156 276//156
f 274//157 283//157 290//157 279//157
f 276//158 293//158 288//158 277//158
f 294//159 295//159 296//159 297//159
f 302//160 303//160 300//160 299//160
f 304//161 305//161 306//161 307//161
f 311//162 312//162 313//162 314//162
f 315//163 316//163 317//163 318//163
f 319//164 320//164 321//164 322//164
f 305//165 298//165 301//165 306//165
f 317//166 316//166 295//166 294//166
f 305//167 304//167 325//167 326//167
f 299//168 298//168 327//168 328//168
f 298//169 305//169 326//169 327//169
f 312//170 324//170 336//170 333//170
f 321//171 320//171 337//171 338//171
f 320//172 313//172 334//172 337//172
f 310//173 309//173 335//173 340//173
f 336//174 340//174 335//174 330//174 329//174 332//174 331//174 339//174 328//174 327//174 326//174 325//174 338//174 337//174 334//174 333//174
f 308//175 345//175 348//175 315//175
f 350//176 322//176 307//176 344//176
f 323//177 311//177 347//177 352//177
f 349//178 341//178 295//178 316//178
f 343//179 353//179 354//179 342//179
f 349//180 355//180 356//180 341//180
f 350//181 358//181 359//181 351//181
f 351//182 359//182 357//182 346//182
f 360//183 361//183 362//183 363//183
f 367//184 368//184 366//184 365//184
f 369//185 370//185 371//185 372//185
f 376//186 377//186 378//186 379//186
f 379//187 378//187 384//187 383//187
f 386//188 387//188 377//188 376//188
f 370//189 369//189 388//189 389//189
f 365//190 364//190 390//190 391//190
f 364//191 370//191 389//191 390//191
f 382//192 381//192 392//192 393//192
f 378//193 377//193 395//193 396//193
f 363//194 367//194 399//194 394//194
f 384//195 378//195 396//195 398//195
f 375//196 374//196 397//196 400//196
f 367//197 365//197 391//197 399//197
f 376//198 379//198 409//198 410//198
f 373//199 408//199 411//199 380//199
f 413//200 385//200 372//200 405//200
f 406//201 416//201 417//201 405//201
f 403//202 419//202 416//202 406//202
f 411//203 420//203 421//203 412//203
f 401//204 422//204 423//204 402//204
f 410//205 425//205 427//205 415//205
f 402//206 423//206 418//206 404//206
f 414//207 429//207 424//207 409//207
f 405//208 417//208 428//208 413//208
f 407//209 430//209 426//209 408//209
f 431//210 432//210 433//210 434//210
f 438//211 439//211 436//211 435//211
f 440//212 441//212 442//212 443//212
f 451//213 452//213 453//213 454//213
f 445//214 451//214 454//214 446//214
f 459//215 444//215 447//215 460//215
f 457//216 440//216 443//216 458//216
f 450//217 449//217 456//217 455//217
f 434//218 433//218 439//218 438//218
f 431//219 434//219 464//219 465//219
f 453//220 431//220 465//220 463//220
f 448//221 460//221 468//221 466//221
f 457//222 456//222 469//222 470//222
f 456//223 449//223 467//223 469//223
f 440//224 457//224 470//224 461//224
f 438//225 435//225 462//225 471//225
f 474//226 437//226 436//226 475//226
f 477//227 443//227 442//227 478//227
f 444//228 479//228 480//228 445//228
f 455//229 458//229 484//229 485//229
f 473//230 476//230 439//230 433//230
f 483//231 472//231 432//231 452//231
f 478//232 486//232 487//232 477//232
f 475//233 488//233 489//233 474//233
f 482//234 490//234 491//234 483//234
f 472//235 492//235 493//235 473//235
f 483//236 491//236 492//236 472//236
f 480//237 495//237 490//237 482//237
f 484//238 496//238 497//238 485//238
f 485//239 497//239 494//239 481//239
f 479//240 499//240 495//240 480//240
f 476//241 498//241 488//241 475//241
f 503//132 504//132 505//132 506//132
f 513//242 514//242 515//242 516//242
f 527//243 513//243 516//243 528//243
f 525//244 509//244 512//244 526//244
f 519//245 518//245 524//245 523//245
f 510//18 509//18 529//18 530//18
f 522//246 521//246 533//246 534//246
f 521//247 500//247 536//247 533//247
f 516//248 515//248 539//248 544//248
f 507//249 504//249 532//249 543//249
f 540//250 544//250 539//250 534//250 533//250 536//250 535//250 543//250 532//250 531//250 530//250 529//250 542//250 541//250 538//250 537//250
f 545//251 546//251 502//251 501//251
f 549//252 548//252 505//252 508//252
f 550//253 512//253 511//253 551//253
f 517//254 519//254 554//254 555//254
f 514//255 553//255 556//255 520//255
f 519//256 523//256 559//256 554//256
f 551//19 561//19 562//19 550//19
f 548//257 563//257 564//257 547//257
f 556//258 565//258 566//258 557//258
f 557//259 566//259 567//259 545//259
f 553//260 570//260 565//260 556//260
f 555//261 569//261 571//261 560//261
f 558//262 572//262 573//262 559//262
f 546//263 568//263 574//263 549//263
f 550//264 562//264 572//264 558//264
f 552//265 575//265 570//265 553//265
f 576//266 577//266 578//266 579//266
f 587//267 588//267 589//267 590//267
f 591//268 592//268 593//268 594//268
f 600//269 584//269 586//269 601//269
f 602//270 603//270 592//270 591//270
f 597//271 596//271 577//271 576//271
f 585//272 584//272 604//272 605//272
f 581//273 580//273 606//273 607//273
f 576//274 579//274 610//274 611//274
f 589//275 598//275 609//275 614//275
f 600//276 599//276 616//276 617//276
f 603//277 590//277 619//277 615//277
f 615//278 619//278 614//278 609//278 608//278 611//278 610//278 618//278 607//278 606//278 605//278 604//278 617//278 616//278 613//278 612//278
f 620//279 621//279 578//279 577//279
f 622//280 583//280 582//280 623//280
f 595//281 627//281 628//281 596//281
f 622//282 632//282 631//282 624//282
f 625//283 633//283 634//283 626//283
f 626//284 634//284 635//284 630//284
f 629//285 636//285 633//285 625//285
