# Blender 4.0.2
# www.blender.org
mtllib 4_mature_partial.mtl
o lime_4_partial
v -0.010000 0.000000 1.930000
v 0.140000 -0.140000 0.220000
v 0.180000 -0.000000 0.220000
v 0.140000 0.140000 0.220000
v 0.000000 0.180000 0.210000
v -0.140000 0.140000 0.210000
v -0.180000 0.000000 0.210000
v -0.000000 -0.180000 0.210000
v -0.140000 -0.140000 0.210000
v -0.010000 0.800000 1.820000
v -0.010000 0.700000 1.460000
v 0.460000 0.470000 1.460000
v 0.530000 0.540000 1.820000
v -0.550000 0.540000 1.810000
v -0.480000 0.470000 1.460000
v -0.810000 0.000000 1.810000
v -0.710000 0.000000 1.460000
v 0.530000 -0.540000 1.820000
v 0.460000 -0.470000 1.460000
v -0.010000 -0.690000 1.460000
v -0.010000 -0.800000 1.820000
v 0.790000 -0.000000 1.820000
v 0.690000 -0.000000 1.460000
v -0.480000 -0.470000 1.460000
v -0.550000 -0.540000 1.810000
v -0.010000 0.670000 2.210000
v -0.010000 0.890000 1.780000
v 0.610000 0.620000 1.780000
v 0.450000 0.470000 2.210000
v -0.480000 0.470000 2.210000
v -0.630000 0.620000 1.780000
v -0.480000 -0.470000 2.210000
v -0.630000 -0.620000 1.780000
v -0.900000 0.000000 1.780000
v -0.680000 0.000000 2.210000
v 0.890000 -0.000000 1.790000
v 0.650000 -0.000000 2.210000
v -0.010000 -0.670000 2.210000
v -0.010000 -0.890000 1.780000
v 0.450000 -0.470000 2.210000
v 0.610000 -0.620000 1.780000
v -0.010000 0.800000 2.160000
v -0.010000 0.000000 2.480000
v -0.550000 0.540000 2.160000
v -0.810000 0.000000 2.160000
v 0.790000 -0.000000 2.160000
v 0.530000 0.540000 2.160000
v -0.550000 -0.540000 2.160000
v -0.010000 -0.800000 2.160000
v 0.530000 -0.540000 2.160000
v -0.430000 0.430000 0.000000
v -0.240000 0.140000 0.000000
v -0.170000 0.160000 0.160000
v -0.140000 0.240000 0.000000
v -0.000000 -0.290000 0.000000
v -0.210000 -0.210000 0.000000
v -0.210000 0.210000 0.000000
v 0.000000 0.290000 0.000000
v -0.290000 0.000000 0.000000
v 0.210000 0.210000 0.000000
v 0.290000 -0.000000 0.000000
v 0.210000 -0.210000 0.000000
v 0.360000 0.110000 0.040000
v 0.210000 -0.000000 0.140000
v 0.320000 -0.000000 0.180000
v 0.250000 0.110000 0.000000
v 0.250000 -0.110000 0.000000
v 0.360000 -0.110000 0.040000
v 0.430000 -0.000000 0.110000
v 0.430000 0.110000 0.000000
v 0.430000 -0.110000 0.000000
v 0.500000 -0.000000 0.040000
v 0.640000 -0.000000 0.000000
v -0.250000 -0.110000 0.000000
v -0.250000 -0.250000 0.030000
v -0.110000 -0.250000 0.000000
v -0.430000 -0.430000 0.000000
v 0.680000 -0.240000 1.430000
v 0.720000 -0.230000 1.410000
v 0.690000 -0.210000 1.430000
v 0.710000 -0.260000 1.410000
v 0.420000 0.030000 1.260000
v 0.050000 -0.060000 1.140000
v 0.420000 -0.030000 1.260000
v 0.050000 0.060000 1.140000
v 0.050000 -0.060000 1.030000
v 0.480000 -0.030000 1.200000
v 0.480000 0.030000 1.200000
v 0.050000 0.060000 1.030000
v 0.500000 -0.000000 1.280000
v 0.540000 -0.000000 1.230000
v 0.500000 0.110000 1.300000
v 0.540000 0.080000 1.300000
v 0.520000 0.110000 1.250000
v 0.540000 0.080000 1.230000
v -0.490000 0.270000 1.540000
v -0.470000 0.250000 1.560000
v -0.470000 0.270000 1.560000
v -0.490000 0.250000 1.540000
v -0.010000 0.060000 1.280000
v -0.240000 0.210000 1.390000
v -0.070000 0.010000 1.280000
v -0.210000 0.240000 1.390000
v -0.260000 0.240000 1.340000
v -0.070000 0.010000 1.170000
v -0.010000 0.060000 1.170000
v -0.230000 0.260000 1.340000
v -0.260000 0.260000 1.420000
v -0.280000 0.290000 1.370000
v -0.230000 0.310000 1.430000
v -0.200000 0.310000 1.430000
v -0.210000 0.320000 1.380000
v -0.230000 0.310000 1.370000
v -0.840000 -0.020000 1.670000
v -0.820000 0.000000 1.700000
v -0.830000 -0.040000 1.690000
v -0.800000 -0.080000 1.690000
v -0.820000 -0.070000 1.690000
v -0.790000 -0.050000 1.720000
v -0.780000 -0.060000 1.720000
v -0.820000 -0.060000 1.690000
v -0.810000 -0.040000 1.720000
v -0.770000 -0.080000 1.660000
v -0.780000 -0.080000 1.680000
v -0.750000 -0.060000 1.690000
v -0.780000 0.020000 1.640000
v -0.800000 0.020000 1.660000
v -0.820000 -0.010000 1.640000
v -0.800000 -0.010000 1.630000
v -0.760000 0.000000 1.640000
v -0.780000 -0.020000 1.620000
v -0.740000 -0.020000 1.650000
v -0.820000 0.020000 1.670000
v -0.820000 0.010000 1.680000
v -0.830000 -0.010000 1.650000
v -0.740000 -0.040000 1.660000
v -0.760000 -0.060000 1.640000
v -0.770000 -0.070000 1.650000
v -0.740000 -0.050000 1.680000
v -0.790000 -0.020000 1.620000
v -0.790000 -0.070000 1.650000
v -0.800000 -0.070000 1.660000
v -0.810000 -0.070000 1.660000
v -0.830000 -0.040000 1.650000
v -0.830000 -0.050000 1.660000
v -0.830000 -0.040000 1.660000
v -0.800000 -0.040000 1.630000
v -0.820000 -0.030000 1.640000
v -0.790000 -0.060000 1.640000
v -0.800000 0.020000 1.720000
v -0.800000 0.000000 1.730000
v -0.760000 -0.040000 1.730000
v -0.780000 -0.030000 1.740000
v -0.780000 -0.020000 1.740000
v -0.730000 -0.040000 1.710000
v -0.780000 0.030000 1.680000
v -0.730000 0.000000 1.680000
v -0.740000 0.020000 1.670000
v -0.790000 0.030000 1.700000
v -0.800000 0.030000 1.710000
v -0.730000 -0.030000 1.700000
v -0.730000 -0.020000 1.690000
v -0.750000 0.030000 1.670000
v -0.760000 0.000000 1.730000
v -0.750000 -0.010000 1.730000
v -0.770000 0.020000 1.710000
v -0.770000 0.020000 1.720000
v -0.770000 0.010000 1.730000
v -0.740000 0.010000 1.700000
v -0.740000 0.020000 1.700000
v -0.760000 0.030000 1.700000
v -0.750000 0.020000 1.700000
v -0.740000 0.000000 1.710000
v -0.730000 0.000000 1.700000
v -0.280000 -0.150000 2.430000
v -0.240000 -0.140000 2.440000
v -0.280000 -0.170000 2.440000
v -0.280000 -0.210000 2.410000
v -0.280000 -0.200000 2.430000
v -0.240000 -0.210000 2.430000
v -0.240000 -0.220000 2.410000
v -0.280000 -0.190000 2.430000
v -0.240000 -0.190000 2.440000
v -0.280000 -0.210000 2.370000
v -0.240000 -0.230000 2.390000
v -0.240000 -0.120000 2.360000
v -0.240000 -0.110000 2.390000
v -0.280000 -0.120000 2.390000
v -0.280000 -0.130000 2.360000
v -0.240000 -0.140000 2.340000
v -0.280000 -0.150000 2.350000
v -0.280000 -0.170000 2.340000
v -0.240000 -0.120000 2.410000
v -0.240000 -0.130000 2.420000
v -0.280000 -0.140000 2.420000
v -0.280000 -0.130000 2.410000
v -0.240000 -0.190000 2.340000
v -0.280000 -0.190000 2.350000
v -0.280000 -0.200000 2.360000
v -0.240000 -0.210000 2.350000
v -0.240000 -0.130000 2.350000
v -0.280000 -0.140000 2.350000
v -0.300000 -0.190000 2.380000
v -0.300000 -0.190000 2.390000
v -0.300000 -0.190000 2.400000
v -0.300000 -0.180000 2.410000
v -0.300000 -0.150000 2.400000
v -0.300000 -0.170000 2.410000
v -0.300000 -0.160000 2.410000
v -0.300000 -0.160000 2.370000
v -0.300000 -0.170000 2.360000
v -0.300000 -0.150000 2.390000
v -0.300000 -0.150000 2.370000
v -0.300000 -0.180000 2.370000
v -0.300000 -0.150000 2.380000
v -0.200000 -0.210000 2.410000
v -0.200000 -0.200000 2.430000
v -0.200000 -0.190000 2.430000
v -0.200000 -0.210000 2.390000
v -0.200000 -0.130000 2.360000
v -0.200000 -0.170000 2.340000
v -0.200000 -0.150000 2.350000
v -0.200000 -0.130000 2.410000
v -0.200000 -0.140000 2.420000
v -0.200000 -0.200000 2.360000
v -0.200000 -0.190000 2.350000
v -0.200000 -0.140000 2.350000
v -0.180000 -0.190000 2.390000
v -0.180000 -0.190000 2.380000
v -0.180000 -0.180000 2.410000
v -0.180000 -0.190000 2.400000
v -0.180000 -0.150000 2.400000
v -0.180000 -0.160000 2.410000
v -0.180000 -0.170000 2.410000
v -0.180000 -0.170000 2.360000
v -0.180000 -0.160000 2.370000
v -0.180000 -0.150000 2.390000
v -0.180000 -0.150000 2.370000
v -0.180000 -0.180000 2.370000
v -0.180000 -0.150000 2.380000
v 0.110000 -0.750000 1.550000
v 0.080000 -0.730000 1.560000
v 0.100000 -0.710000 1.560000
v 0.120000 -0.740000 1.560000
v 0.160000 -0.710000 1.520000
v 0.150000 -0.710000 1.540000
v 0.130000 -0.680000 1.540000
v 0.140000 -0.670000 1.530000
v 0.140000 -0.720000 1.550000
v 0.120000 -0.690000 1.560000
v 0.160000 -0.710000 1.480000
v 0.160000 -0.700000 1.500000
v 0.150000 -0.670000 1.500000
v 0.140000 -0.670000 1.470000
v 0.060000 -0.750000 1.470000
v 0.060000 -0.750000 1.500000
v 0.090000 -0.770000 1.500000
v 0.090000 -0.770000 1.470000
v 0.080000 -0.730000 1.450000
v 0.110000 -0.750000 1.450000
v 0.120000 -0.740000 1.450000
v 0.100000 -0.710000 1.440000
v 0.060000 -0.750000 1.530000
v 0.070000 -0.740000 1.540000
v 0.100000 -0.760000 1.540000
v 0.090000 -0.770000 1.530000
v 0.120000 -0.690000 1.450000
v 0.140000 -0.720000 1.460000
v 0.150000 -0.710000 1.460000
v 0.140000 -0.680000 1.460000
v 0.070000 -0.740000 1.460000
v 0.100000 -0.760000 1.460000
v 0.150000 -0.740000 1.490000
v 0.150000 -0.730000 1.500000
v 0.150000 -0.740000 1.520000
v 0.120000 -0.760000 1.520000
v 0.120000 -0.760000 1.510000
v 0.120000 -0.760000 1.480000
v 0.140000 -0.740000 1.480000
v 0.150000 -0.740000 1.480000
v 0.140000 -0.740000 1.530000
v 0.120000 -0.760000 1.490000
v 0.060000 -0.700000 1.550000
v 0.110000 -0.660000 1.540000
v 0.100000 -0.670000 1.550000
v 0.110000 -0.650000 1.480000
v 0.120000 -0.650000 1.500000
v 0.050000 -0.710000 1.470000
v 0.040000 -0.720000 1.500000
v 0.080000 -0.680000 1.450000
v 0.060000 -0.700000 1.450000
v 0.050000 -0.710000 1.530000
v 0.050000 -0.710000 1.540000
v 0.110000 -0.660000 1.460000
v 0.100000 -0.670000 1.460000
v 0.050000 -0.710000 1.460000
v 0.050000 -0.690000 1.510000
v 0.070000 -0.670000 1.480000
v 0.060000 -0.680000 1.480000
v 0.050000 -0.690000 1.500000
v 0.080000 -0.660000 1.480000
v -0.150000 0.810000 2.000000
v -0.130000 0.830000 2.010000
v -0.120000 0.800000 2.010000
v -0.140000 0.790000 2.010000
v -0.130000 0.750000 1.980000
v -0.130000 0.760000 2.000000
v -0.100000 0.770000 2.000000
v -0.100000 0.760000 1.980000
v -0.110000 0.780000 2.010000
v -0.130000 0.750000 1.960000
v -0.090000 0.750000 1.960000
v -0.140000 0.860000 1.960000
v -0.130000 0.830000 1.920000
v -0.140000 0.850000 1.980000
v -0.130000 0.840000 2.000000
v -0.160000 0.820000 1.990000
v -0.160000 0.830000 1.980000
v -0.110000 0.780000 1.920000
v -0.100000 0.770000 1.930000
v -0.130000 0.840000 1.930000
v -0.150000 0.770000 1.960000
v -0.150000 0.770000 1.970000
v -0.150000 0.770000 1.980000
v -0.160000 0.800000 1.980000
v -0.160000 0.790000 1.990000
v -0.100000 0.840000 2.000000
v -0.090000 0.810000 2.010000
v -0.070000 0.780000 1.980000
v -0.080000 0.790000 2.000000
v -0.070000 0.770000 1.960000
v -0.100000 0.850000 1.940000
v -0.110000 0.860000 1.960000
v -0.100000 0.840000 1.920000
v -0.100000 0.850000 1.980000
v -0.100000 0.850000 1.990000
v -0.080000 0.780000 1.930000
v -0.080000 0.790000 1.920000
v -0.100000 0.850000 1.930000
v -0.070000 0.800000 1.960000
v -0.070000 0.810000 1.980000
v -0.070000 0.800000 1.970000
v -0.080000 0.840000 1.970000
v -0.080000 0.840000 1.980000
v -0.080000 0.830000 1.980000
v -0.070000 0.820000 1.990000
v -0.080000 0.830000 1.940000
v -0.080000 0.840000 1.960000
v -0.080000 0.840000 1.940000
v -0.080000 0.840000 1.950000
v 0.850000 0.100000 1.960000
v 0.850000 0.080000 1.970000
v 0.820000 0.040000 1.980000
v 0.840000 0.050000 1.980000
v 0.850000 0.030000 1.960000
v 0.830000 0.020000 1.960000
v 0.860000 0.040000 1.960000
v 0.780000 0.040000 1.960000
v 0.800000 0.040000 1.970000
v 0.810000 0.010000 1.950000
v 0.790000 0.020000 1.940000
v 0.810000 0.110000 1.890000
v 0.830000 0.110000 1.900000
v 0.820000 0.120000 1.930000
v 0.800000 0.110000 1.920000
v 0.790000 0.080000 1.900000
v 0.780000 0.100000 1.920000
v 0.770000 0.080000 1.930000
v 0.780000 0.060000 1.900000
v 0.850000 0.110000 1.910000
v 0.860000 0.100000 1.920000
v 0.840000 0.110000 1.950000
v 0.840000 0.110000 1.940000
v 0.780000 0.040000 1.920000
v 0.770000 0.060000 1.940000
v 0.780000 0.050000 1.950000
v 0.790000 0.030000 1.930000
v 0.800000 0.100000 1.890000
v 0.790000 0.110000 1.920000
v 0.790000 0.070000 1.970000
v 0.800000 0.070000 1.970000
v 0.810000 0.070000 1.980000
v 0.820000 0.070000 1.980000
v 0.820000 0.100000 1.960000
v 0.830000 0.090000 1.970000
v 0.830000 0.100000 1.970000
v 0.790000 0.090000 1.950000
v 0.780000 0.080000 1.950000
v 0.810000 0.100000 1.950000
v 0.780000 0.080000 1.960000
v 0.800000 0.100000 1.950000
v 0.880000 0.070000 1.910000
v 0.880000 0.050000 1.920000
v 0.840000 0.010000 1.930000
v 0.860000 0.020000 1.930000
v 0.870000 0.030000 1.930000
v 0.810000 0.010000 1.910000
v 0.830000 0.010000 1.920000
v 0.820000 0.080000 1.870000
v 0.840000 0.090000 1.880000
v 0.800000 0.050000 1.880000
v 0.800000 0.070000 1.870000
v 0.860000 0.080000 1.890000
v 0.870000 0.080000 1.900000
v 0.800000 0.020000 1.900000
v 0.810000 0.080000 1.870000
v 0.840000 0.020000 1.900000
v 0.850000 0.030000 1.900000
v 0.850000 0.020000 1.900000
v 0.850000 0.060000 1.880000
v 0.860000 0.050000 1.890000
v 0.860000 0.040000 1.900000
v 0.820000 0.050000 1.870000
v 0.840000 0.060000 1.880000
v 0.830000 0.050000 1.870000
v 0.860000 0.030000 1.900000
v 0.830000 0.060000 1.870000
vn 0.9561 -0.2732 0.1062
vn 0.9561 0.2732 0.1062
vn -0.2734 0.9568 0.0985
vn -0.9572 0.2735 0.0946
vn 0.2666 -0.9584 0.1018
vn 0.2666 0.9584 0.1018
vn -0.9572 -0.2735 0.0946
vn -0.2734 -0.9568 0.0985
vn -0.7672 -0.5026 0.3985
vn 0.4860 0.7418 0.4620
vn -0.2454 -0.8588 0.4498
vn -0.3270 -0.8584 0.3952
vn -0.2540 0.8890 0.3810
vn -0.3197 0.8393 0.4396
vn -0.8890 -0.2540 0.3810
vn -0.8393 -0.3197 0.4396
vn -0.8584 0.3270 0.3952
vn -0.8588 0.2454 0.4498
vn 0.3293 0.8645 0.3798
vn 0.2148 0.8652 0.4532
vn 0.8948 0.2557 0.3661
vn 0.8466 0.3225 0.4233
vn 0.8645 -0.3293 0.3798
vn 0.8666 -0.2476 0.4333
vn 0.3197 -0.8393 0.4396
vn 0.2322 -0.9031 0.3612
vn -0.2063 0.7972 0.5674
vn -0.2063 -0.7972 0.5674
vn 0.3746 0.6556 0.6556
vn 0.4033 0.6600 0.6338
vn 0.4103 -0.6448 0.6448
vn 0.3643 -0.6789 0.6375
vn 0.5774 0.5774 0.5774
vn 0.5774 -0.5774 0.5774
vn 0.2433 0.4645 0.8515
vn 0.2433 -0.4645 0.8515
vn -0.8752 0.1013 0.4729
vn 0.1013 -0.8752 0.4729
vn 0.1963 -0.3491 0.9163
vn -0.3491 0.1963 0.9163
vn 0.4729 -0.1576 0.8669
vn -0.3085 -0.0000 0.9512
vn 0.0499 -0.9975 0.0499
vn 0.0808 -0.9967 -0.0000
vn 0.0610 0.9963 0.0610
vn 0.0696 0.9976 -0.0000
vn -0.4527 0.1509 0.8788
vn -0.3415 0.3218 0.8831
vn -0.6199 -0.7678 -0.1620
vn -0.4018 -0.8228 -0.4018
vn 0.6389 0.7366 0.2219
vn 0.5253 0.7399 0.4202
vn -0.2425 -0.0000 0.9701
vn -0.2988 -0.1707 0.9389
vn -0.1330 -0.1773 0.9751
vn -0.4851 0.7276 -0.4851
vn -0.7619 0.5715 -0.3048
vn 0.8944 -0.4472 -0.0000
vn 0.7809 -0.0000 0.6247
vn 0.8320 0.5547 -0.0000
vn 0.5834 0.7779 0.2334
vn 0.3677 -0.0000 -0.9300
vn 0.5639 -0.1880 -0.8041
vn 0.5237 -0.2262 -0.8213
vn 0.4472 -0.0000 -0.8944
vn -0.0300 0.5405 -0.8408
vn -0.7071 -0.0000 0.7071
vn 0.2474 -0.2969 0.9223
vn 0.2679 -0.2679 0.9255
vn -0.7710 -0.6369 -0.0000
vn -0.7775 -0.6255 -0.0643
vn 0.6690 0.7433 -0.0000
vn 0.6811 0.7319 0.0203
vn 0.5441 -0.2609 0.7975
vn 0.5547 -0.0000 0.8321
vn -0.3592 -0.8566 -0.3703
vn -0.0990 -0.9901 0.0990
vn 0.3058 0.8654 0.3969
vn -0.0525 0.9972 0.0525
vn 0.3665 -0.3665 0.8552
vn -0.0000 -0.4961 0.8682
vn 0.3570 -0.3845 0.8513
vn 0.9352 0.0652 -0.3480
vn 0.9594 -0.1693 -0.2257
vn -0.8575 0.5145 -0.0000
vn -0.3034 0.7586 0.5766
vn -0.4472 0.8944 -0.0000
vn -0.0000 0.9806 0.1961
vn -0.3201 0.3841 -0.8661
vn -0.2757 0.4136 -0.8677
vn -0.6292 -0.0000 -0.7772
vn -0.6393 0.1911 -0.7448
vn -0.2744 0.4116 -0.8690
vn -0.2016 0.5039 -0.8399
vn 0.1690 0.5071 -0.8452
vn -0.4230 -0.8718 0.2470
vn 0.4206 -0.8720 0.2503
vn 0.8703 -0.4222 0.2536
vn -0.4147 0.8725 0.2584
vn -0.8718 0.4230 0.2470
vn -0.8718 -0.4230 0.2470
vn 0.4121 0.8727 0.2619
vn -0.3613 -0.8303 -0.4244
vn 0.3592 -0.8329 -0.4210
vn 0.8329 0.3592 -0.4210
vn -0.8165 -0.3637 -0.4484
vn 0.3592 0.8329 -0.4210
vn -0.3613 0.8303 -0.4244
vn -0.8165 0.3637 -0.4484
vn 0.1760 -0.3656 -0.9140
vn 0.3656 -0.1760 -0.9140
vn -0.3656 -0.1760 -0.9140
vn -0.1760 -0.3656 -0.9140
vn 0.3656 0.1760 -0.9140
vn 0.1760 0.3656 -0.9140
vn -0.1760 0.3656 -0.9140
vn -0.3656 0.1760 -0.9140
vn 0.8329 -0.3592 -0.4210
vn 0.8703 0.4222 0.2536
vn 0.5145 0.5145 -0.6860
vn 0.4685 -0.6247 0.6247
vn -0.7253 0.6594 0.1978
vn 0.4264 -0.6396 0.6396
vn 0.3094 0.9283 0.2063
vn 0.1048 0.9435 0.3145
vn 0.9487 0.3162 -0.0000
vn 0.7071 -0.0000 0.7071
vn -0.0000 0.4472 0.8944
vn -0.0000 0.7071 0.7071
vn 0.0921 0.5523 -0.8285
vn -0.7663 -0.2873 0.5747
vn 0.5970 -0.7960 -0.0995
vn -0.9503 0.2592 0.1728
vn -0.8433 0.5270 0.1054
vn 0.8363 -0.4562 -0.3041
vn -0.3162 -0.0000 -0.9487
vn 0.0921 -0.5523 -0.8285
vn -0.9300 -0.3487 -0.1162
vn -0.0000 -0.9487 -0.3162
vn -0.4423 -0.8847 -0.1474
vn -0.8944 -0.0000 -0.4472
vn -0.0000 -0.3162 -0.9487
vn -0.9487 -0.3162 -0.0000
vn 0.2182 0.8729 -0.4364
vn 0.1562 0.3123 -0.9370
vn 0.2308 -0.9231 0.3077
vn 0.2673 0.5345 0.8018
vn 0.2182 -0.8729 -0.4364
vn 0.2182 -0.4364 0.8729
vn 0.2673 -0.8018 -0.5345
vn 0.7845 -0.1961 -0.5883
vn 0.7276 -0.4851 -0.4851
vn 0.7845 -0.5883 -0.1961
vn 0.7845 0.1961 -0.5883
vn 0.7454 -0.5963 0.2981
vn 0.6965 0.3980 0.5970
vn 0.7276 0.4851 0.4851
vn -0.2182 0.8729 -0.4364
vn -0.1562 0.3123 -0.9370
vn -0.3419 0.9117 -0.2279
vn -0.1741 -0.6963 0.6963
vn -0.7804 0.5203 -0.3468
vn -0.7071 0.7071 -0.0000
vn 1.0000 -0.0000 -0.0000
vn -0.6965 -0.3980 0.5970
vn -0.7276 -0.4851 -0.4851
vn -0.7454 -0.5963 0.2981
vn -0.6965 0.3980 0.5970
vn -0.7276 0.4851 0.4851
vn -0.7071 -0.0000 -0.7071
vn 0.0643 0.2571 -0.9642
vn -0.7301 -0.3319 -0.5974
vn -0.6667 -0.3333 -0.6667
vn 0.0643 0.2571 0.9642
vn 0.3244 0.4867 -0.8111
vn -0.3162 -0.0000 0.9487
vn 0.5547 0.8321 -0.0000
vn -0.9023 -0.3509 -0.2506
vn 0.3244 0.4867 0.8111
vn 0.3333 0.6667 -0.6667
vn -0.9407 0.2822 -0.1881
vn -0.3810 0.8890 -0.2540
vn -0.2981 0.5963 0.7454
vn -0.3810 0.8890 0.2540
vn -0.9045 0.3015 0.3015
vn -0.7379 0.4216 -0.5270
vn -0.4256 -0.5959 -0.6810
vn -0.5185 -0.8296 0.2074
vn 0.7684 0.3293 -0.5488
vn -0.0851 -0.3405 0.9364
vn 0.7684 0.3293 0.5488
vn 0.4867 0.3244 0.8111
vn 0.6667 0.3333 -0.6667
vn 0.6396 -0.6396 0.4264
vn 0.9503 -0.2592 -0.1728
vn -1.0000 -0.0000 -0.0000
vn 0.3468 -0.7804 0.5203
vn 0.4851 -0.4851 0.7276
vn -0.2857 0.8571 -0.4286
vn 0.5773 -0.5773 -0.5774
vn 0.6882 0.6882 -0.2294
vn 0.7071 0.7071 -0.0000
vn 0.8083 -0.1155 -0.5773
vn 0.8018 0.2673 -0.5345
vn -0.0976 -0.1952 -0.9759
vn 0.0851 -0.9364 -0.3405
vn -0.2481 0.6202 0.7442
vn -0.0000 -0.8944 -0.4472
vn -0.5482 0.6852 -0.4796
vn -0.2075 0.1383 -0.9684
vn 0.2294 -0.6882 0.6882
vn -0.4472 -0.8944 -0.0000
vn -0.5774 -0.5773 -0.5773
vn -0.5271 -0.8433 -0.1054
vn -0.6667 -0.3333 0.6667
vn -0.8285 0.0921 -0.5523
vn -0.5270 -0.8433 0.1054
vn -0.2981 0.5963 -0.7454
vn 0.4616 0.6594 -0.5934
vn -0.5494 -0.8242 -0.1374
vn 0.7845 0.5884 -0.1961
vn 0.1978 0.6594 -0.7253
vn 0.4286 -0.8571 0.2857
vn 0.9428 0.2357 0.2357
vn 0.7804 -0.3468 0.5203
vn 0.3145 0.1048 -0.9435
vn -0.0000 -0.0000 -1.0000
vn 0.5523 0.0921 -0.8285
vn -0.3015 -0.3015 -0.9045
vn 0.6965 -0.5970 -0.3980
vn 0.9045 -0.3015 -0.3015
vn 0.4083 -0.8165 -0.4082
vn 0.4472 -0.8944 -0.0000
vn -0.6396 0.6396 -0.4264
vn 0.2425 0.9701 -0.0000
vn -0.1978 -0.6594 0.7253
vn 0.8412 -0.0765 0.5353
vn -0.1596 0.9577 -0.2394
vn 0.7845 0.5883 0.1961
vn -0.1562 0.9370 0.3123
vn -0.7804 0.3468 0.5203
vn -0.3487 -0.1162 0.9300
vn -0.0000 -0.0000 1.0000
vn -0.8165 0.4082 0.4082
vn -0.5270 -0.1054 0.8433
vn -0.4286 0.8571 0.2857
s 0
usemtl tex_32767
f 1//1 2//1 3//1
f 1//2 3//2 4//2
f 1//3 5//3 6//3
f 1//4 6//4 7//4
f 1//5 8//5 2//5
f 1//6 4//6 5//6
f 1//7 7//7 9//7
f 1//8 9//8 8//8
f 51//9 52//9 53//9
f 51//10 53//10 54//10
f 9//11 55//11 8//11
f 9//12 56//12 55//12
f 5//13 57//13 6//13
f 5//14 58//14 57//14
f 7//15 56//15 9//15
f 7//16 59//16 56//16
f 59//17 6//17 57//17
f 59//18 7//18 6//18
f 58//19 4//19 60//19
f 58//20 5//20 4//20
f 3//21 60//21 4//21
f 3//22 61//22 60//22
f 61//23 2//23 62//23
f 61//24 3//24 2//24
f 62//25 8//25 55//25
f 62//26 2//26 8//26
f 63//27 64//27 65//27
f 63//27 66//27 64//27
f 65//28 67//28 68//28
f 65//28 64//28 67//28
f 63//29 69//29 70//29
f 63//30 65//30 69//30
f 65//31 71//31 69//31
f 65//32 68//32 71//32
f 72//33 70//33 69//33
f 71//34 72//34 69//34
f 73//35 70//35 72//35
f 73//36 72//36 71//36
f 74//37 75//37 9//37
f 76//38 9//38 75//38
f 75//39 77//39 76//39
f 74//40 77//40 75//40
f 78//41 79//41 80//41
f 78//41 81//41 79//41
f 82//42 83//42 84//42
f 82//42 85//42 83//42
f 84//43 86//43 87//43
f 84//44 83//44 86//44
f 88//45 85//45 82//45
f 88//46 89//46 85//46
f 80//47 84//47 78//47
f 80//48 90//48 84//48
f 78//49 87//49 81//49
f 78//50 84//50 87//50
f 79//51 90//51 80//51
f 79//52 91//52 90//52
f 90//53 82//53 84//53
f 90//54 92//54 82//54
f 90//55 93//55 92//55
f 92//56 88//56 82//56
f 94//57 88//57 92//57
f 90//58 95//58 93//58
f 90//59 91//59 95//59
f 94//60 93//60 95//60
f 94//61 92//61 93//61
f 87//62 89//62 88//62
f 87//62 86//62 89//62
f 81//63 91//63 79//63
f 81//64 87//64 91//64
f 91//65 87//65 88//65
f 88//65 95//65 91//65
f 95//66 88//66 94//66
f 96//67 97//67 98//67
f 99//67 97//67 96//67
f 100//68 101//68 102//68
f 100//69 103//69 101//69
f 102//70 104//70 105//70
f 102//71 101//71 104//71
f 106//72 103//72 100//72
f 106//73 107//73 103//73
f 108//74 97//74 101//74
f 108//75 98//75 97//75
f 101//76 99//76 104//76
f 101//77 97//77 99//77
f 109//78 98//78 108//78
f 109//79 96//79 98//79
f 103//80 108//80 101//80
f 110//81 103//81 111//81
f 110//82 108//82 103//82
f 107//83 111//83 103//83
f 107//84 112//84 111//84
f 113//85 108//85 110//85
f 109//86 108//86 113//86
f 110//87 112//87 113//87
f 111//88 112//88 110//88
f 105//89 107//89 106//89
f 105//90 104//90 107//90
f 109//91 99//91 96//91
f 104//92 99//92 109//92
f 104//93 109//93 107//93
f 113//94 107//94 109//94
f 107//95 113//95 112//95
usemtl tex_65
f 10//96 11//96 12//96 13//96
f 14//97 15//97 11//97 10//97
f 16//98 17//98 15//98 14//98
f 18//99 19//99 20//99 21//99
f 22//100 23//100 19//100 18//100
f 13//101 12//101 23//101 22//101
f 21//102 20//102 24//102 25//102
f 26//103 27//103 28//103 29//103
f 30//104 31//104 27//104 26//104
f 32//105 33//105 34//105 35//105
f 29//106 28//106 36//106 37//106
f 38//107 39//107 33//107 32//107
f 40//108 41//108 39//108 38//108
f 37//109 36//109 41//109 40//109
f 42//110 43//110 44//110
f 44//111 43//111 45//111
f 46//112 43//112 47//112
f 47//113 43//113 42//113
f 45//114 43//114 48//114
f 48//115 43//115 49//115
f 49//116 43//116 50//116
f 50//117 43//117 46//117
f 35//118 34//118 31//118 30//118
f 25//119 24//119 17//119 16//119
usemtl rsc_388010
f 121//120 122//120 119//120 118//120
f 126//121 127//121 128//121 129//121
f 136//122 137//122 138//122 139//122
f 127//123 133//123 135//123 128//123
f 124//124 123//124 141//124 142//124
f 117//125 124//125 142//125 143//125
f 114//126 116//126 145//126 146//126
f 128//127 135//127 144//127 148//127
f 140//128 147//128 131//128
f 123//129 138//129 149//129 141//129
f 152//130 120//130 119//130 153//130
f 130//131 132//131 157//131 158//131
f 133//132 159//132 160//132 134//132
f 136//133 139//133 161//133 162//133
f 161//134 139//134 125//134 155//134
f 160//135 150//135 115//135 134//135
f 153//136 164//136 165//136 152//136
f 150//137 167//137 168//137 151//137
f 157//138 169//138 170//138 158//138
f 156//139 171//139 166//139 159//139
f 158//140 170//140 172//140 163//140
f 161//141 173//141 174//141 162//141
f 151//142 168//142 164//142 154//142
f 162//143 174//143 169//143 157//143
f 178//144 179//144 180//144 181//144
f 182//145 183//145 180//145 179//145
f 186//146 187//146 188//146 189//146
f 197//147 198//147 199//147 200//147
f 187//148 193//148 196//148 188//148
f 201//149 202//149 191//149 190//149
f 195//150 194//150 176//150 175//150
f 175//151 177//151 208//151 209//151
f 195//152 175//152 209//152 207//152
f 188//153 196//153 207//153 212//153
f 191//127 202//127 213//127 210//127
f 177//154 182//154 206//154 208//154
f 202//155 189//155 215//155 213//155
f 198//156 192//156 211//156 214//156
f 184//157 199//157 214//157 203//157
f 216//158 181//158 180//158 217//158
f 218//159 217//159 180//159 183//159
f 219//160 185//160 181//160 216//160
f 201//161 227//161 220//161 186//161
f 217//162 230//162 231//162 216//162
f 216//163 231//163 228//163 219//163
f 212//164 207//164 209//164 208//164 206//164 205//164 204//164 203//164 214//164 211//164 210//164 213//164 215//164
f 221//165 235//165 236//165 222//165
f 232//166 224//166 223//166
f 227//167 238//167 240//167 220//167
f 226//168 239//168 235//168 221//168
f 226//169 225//169 239//169
f 217//170 218//170 230//170
f 241//171 242//171 243//171 244//171
f 245//172 246//172 247//172 248//172
f 249//173 250//173 247//173 246//173
f 259//174 260//174 261//174 262//174
f 263//175 264//175 265//175 266//175
f 267//176 268//176 269//176 270//176
f 256//177 263//177 266//177 257//177
f 252//178 245//178 248//178 253//178
f 271//179 255//179 258//179 272//179
f 271//179 272//179 260//179 259//179
f 265//180 264//180 242//180 241//180
f 252//181 251//181 273//181 274//181
f 266//182 265//182 276//182 277//182
f 269//183 268//183 279//183 280//183
f 272//184 258//184 282//184 278//184
f 251//185 269//185 280//185 273//185
f 249//186 246//186 275//186 281//186
f 285//187 284//187 247//187 250//187
f 286//188 254//188 253//188 287//188
f 263//189 292//189 293//189 264//189
f 267//190 270//190 294//190 295//190
f 271//191 296//191 288//191 255//191
f 271//192 259//192 291//192 296//192
f 293//193 283//193 242//193 264//193
f 290//194 298//194 299//194 291//194
f 289//195 300//195 297//195 292//195
f 232//196 237//196 240//196 238//196 236//196 235//196 239//196 229//196 228//196 231//196 230//196 234//196 233//196
f 295//197 301//197 298//197 290//197
f 295//198 294//198 301//198
f 306//199 307//199 308//199 309//199
f 315//200 316//200 317//200 318//200
f 307//201 306//201 323//201 324//201
f 306//202 311//202 322//202 323//202
f 302//203 305//203 326//203 325//203
f 317//204 302//204 325//204
f 327//205 328//205 304//205 303//205
f 315//206 335//206 336//206 316//206
f 319//207 320//207 337//207 338//207
f 313//208 333//208 335//208 315//208
f 331//209 312//209 309//209 329//209
f 328//210 330//210 310//210 304//210
f 321//211 314//211 334//211 339//211
f 329//196 342//196 340//196 331//196
f 335//212 343//212 344//212 336//212
f 327//213 345//213 346//213 328//213
f 333//214 348//214 343//214 335//214
f 334//215 347//215 349//215 339//215
f 328//216 346//216 341//216 330//216
f 332//217 350//217 348//217 333//217
f 353//218 354//218 355//218 356//218
f 358//219 359//219 360//219 361//219
f 370//220 371//220 372//220 373//220
f 374//221 375//221 376//221 377//221
f 359//222 353//222 356//222 360//222
f 378//223 362//223 365//223 379//223
f 376//224 358//224 361//224 377//224
f 378//225 379//225 367//225 366//225
f 359//226 358//226 380//226 381//226
f 354//227 353//227 382//227 383//227
f 353//228 359//228 381//228 382//228
f 351//229 352//229 385//229 386//229
f 368//230 367//230 387//230 388//230
f 375//231 368//231 388//231 390//231
f 365//232 364//232 389//232 391//232
f 373//233 372//233 384//233
f 396//234 395//234 355//234 357//234
f 397//235 361//235 360//235 398//235
f 362//236 399//236 400//236 363//236
f 366//237 369//237 401//237 402//237
f 398//238 360//238 356//238 394//238
f 405//239 377//239 361//239 397//239
f 378//225 366//225 402//225 406//225
f 394//240 409//240 407//240 398//240
f 403//67 410//67 411//67 404//67
f 392//241 411//241 412//241 393//241
f 400//242 414//242 410//242 403//242
f 402//243 413//243 415//243 406//243
f 393//244 412//244 416//244 396//244
f 399//245 417//245 414//245 400//245
f 396//246 416//246 408//246 395//246
