# OGRS RSC model extracted from .ob3
# vertices: 493  faces: 456
mtllib 5_mature_full.mtl

o limetree
v -0.01 0.0 1.93
v 0.14 -0.14 0.22
v 0.18 0.0 0.22
v 0.14 0.14 0.22
v 0.0 0.18 0.21
v -0.14 0.14 0.21
v -0.18 0.0 0.21
v 0.0 -0.18 0.21
v -0.14 -0.14 0.21
v -0.01 0.8 1.82
v -0.01 0.7000000000000001 1.46
v 0.46 0.47000000000000003 1.46
v 0.53 0.54 1.82
v -0.55 0.54 1.81
v -0.48 0.47000000000000003 1.46
v -0.81 0.0 1.81
v -0.71 0.0 1.46
v 0.53 -0.54 1.82
v 0.46 -0.47000000000000003 1.46
v -0.01 -0.6900000000000001 1.46
v -0.01 -0.8 1.82
v 0.79 0.0 1.82
v 0.6900000000000001 0.0 1.46
v -0.48 -0.47000000000000003 1.46
v -0.55 -0.54 1.81
v -0.01 0.67 2.21
v -0.01 0.89 1.78
v 0.61 0.62 1.78
v 0.45 0.47000000000000003 2.21
v -0.48 0.47000000000000003 2.21
v -0.63 0.62 1.78
v -0.48 -0.47000000000000003 2.21
v -0.63 -0.62 1.78
v -0.9 0.0 1.78
v -0.68 0.0 2.21
v 0.89 0.0 1.79
v 0.65 0.0 2.21
v -0.01 -0.67 2.21
v -0.01 -0.89 1.78
v 0.45 -0.47000000000000003 2.21
v 0.61 -0.62 1.78
v -0.01 0.8 2.16
v -0.01 0.0 2.48
v -0.55 0.54 2.16
v -0.81 0.0 2.16
v 0.79 0.0 2.16
v 0.53 0.54 2.16
v -0.55 -0.54 2.16
v -0.01 -0.8 2.16
v 0.53 -0.54 2.16
v -0.43 0.43 0.0
v -0.24 0.14 0.0
v -0.17 0.16 0.16
v -0.14 0.24 0.0
v 0.0 -0.29 0.0
v -0.21 -0.21 0.0
v -0.21 0.21 0.0
v 0.0 0.29 0.0
v -0.29 0.0 0.0
v 0.21 0.21 0.0
v 0.29 0.0 0.0
v 0.21 -0.21 0.0
v 0.36 0.11 0.04
v 0.21 0.0 0.14
v 0.32 0.0 0.18
v 0.25 0.11 0.0
v 0.25 -0.11 0.0
v 0.36 -0.11 0.04
v 0.43 0.0 0.11
v 0.43 0.11 0.0
v 0.43 -0.11 0.0
v 0.5 0.0 0.04
v 0.64 0.0 0.0
v -0.25 -0.11 0.0
v -0.25 -0.25 0.03
v -0.11 -0.25 0.0
v -0.43 -0.43 0.0
v 0.68 -0.24 1.43
v 0.72 -0.23 1.41
v 0.6900000000000001 -0.21 1.43
v 0.71 -0.26 1.41
v 0.42 0.03 1.26
v 0.05 -0.06 1.1400000000000001
v 0.42 -0.03 1.26
v 0.05 0.06 1.1400000000000001
v 0.05 -0.06 1.03
v 0.48 -0.03 1.2
v 0.48 0.03 1.2
v 0.05 0.06 1.03
v 0.5 0.0 1.28
v 0.54 0.0 1.23
v 0.5 0.11 1.3
v 0.54 0.08 1.3
v 0.52 0.11 1.25
v 0.54 0.08 1.23
v -0.49 0.27 1.54
v -0.47000000000000003 0.25 1.56
v -0.47000000000000003 0.27 1.56
v -0.49 0.25 1.54
v -0.01 0.06 1.28
v -0.24 0.21 1.3900000000000001
v -0.07 0.01 1.28
v -0.21 0.24 1.3900000000000001
v -0.26 0.24 1.34
v -0.07 0.01 1.17
v -0.01 0.06 1.17
v -0.23 0.26 1.34
v -0.26 0.26 1.42
v -0.28 0.29 1.37
v -0.23 0.31 1.43
v -0.2 0.31 1.43
v -0.21 0.32 1.3800000000000001
v -0.23 0.31 1.37
v -0.84 -0.02 1.67
v -0.8200000000000001 0.0 1.7
v -0.8200000000000001 -0.02 1.71
v -0.8300000000000001 -0.04 1.69
v -0.8 -0.08 1.69
v -0.8200000000000001 -0.07 1.69
v -0.79 -0.05 1.72
v -0.78 -0.06 1.72
v -0.8200000000000001 -0.06 1.69
v -0.81 -0.04 1.72
v -0.77 -0.08 1.6600000000000001
v -0.78 -0.08 1.68
v -0.76 -0.07 1.71
v -0.75 -0.06 1.69
v -0.78 0.02 1.6400000000000001
v -0.8 0.02 1.6600000000000001
v -0.8200000000000001 -0.01 1.6400000000000001
v -0.8 -0.01 1.6300000000000001
v -0.76 0.0 1.6400000000000001
v -0.78 -0.02 1.62
v -0.77 -0.04 1.6300000000000001
v -0.74 -0.02 1.6500000000000001
v -0.8200000000000001 0.02 1.67
v -0.8200000000000001 0.01 1.68
v -0.84 -0.02 1.6600000000000001
v -0.8300000000000001 -0.01 1.6500000000000001
v -0.74 -0.04 1.6600000000000001
v -0.76 -0.06 1.6400000000000001
v -0.77 -0.07 1.6500000000000001
v -0.74 -0.05 1.68
v -0.77 0.01 1.6400000000000001
v -0.79 -0.02 1.62
v -0.79 -0.07 1.6500000000000001
v -0.8 -0.07 1.6600000000000001
v -0.81 -0.07 1.6600000000000001
v -0.8200000000000001 -0.06 1.6600000000000001
v -0.8300000000000001 -0.04 1.6500000000000001
v -0.8300000000000001 -0.05 1.6600000000000001
v -0.8300000000000001 -0.04 1.6600000000000001
v -0.8 -0.04 1.6300000000000001
v -0.79 -0.05 1.6300000000000001
v -0.8200000000000001 -0.03 1.6400000000000001
v -0.79 -0.06 1.6400000000000001
v -0.81 -0.04 1.6300000000000001
v -0.8 0.02 1.72
v -0.8 0.0 1.73
v -0.76 -0.04 1.73
v -0.78 -0.03 1.74
v -0.78 -0.02 1.74
v -0.73 -0.04 1.71
v -0.75 -0.04 1.72
v -0.76 0.03 1.67
v -0.78 0.03 1.68
v -0.73 0.0 1.68
v -0.74 0.02 1.67
v -0.79 0.03 1.7
v -0.8 0.03 1.71
v -0.73 -0.03 1.7
v -0.73 -0.02 1.69
v -0.75 0.03 1.67
v -0.75 -0.01 1.72
v -0.74 -0.01 1.71
v -0.76 0.0 1.73
v -0.75 -0.01 1.73
v -0.77 0.02 1.71
v -0.77 0.02 1.72
v -0.77 0.01 1.73
v -0.74 0.01 1.7
v -0.74 0.02 1.7
v -0.76 0.03 1.7
v -0.75 0.02 1.7
v -0.74 0.0 1.71
v -0.73 0.0 1.7
v -0.28 -0.15 2.43
v -0.24 -0.14 2.44
v -0.24 -0.17 2.44
v -0.28 -0.17 2.44
v -0.28 -0.21 2.41
v -0.28 -0.2 2.43
v -0.24 -0.21 2.43
v -0.24 -0.22 2.41
v -0.28 -0.19 2.43
v -0.24 -0.19 2.44
v -0.28 -0.21 2.37
v -0.28 -0.21 2.39
v -0.24 -0.23 2.39
v -0.24 -0.22 2.36
v -0.24 -0.12 2.36
v -0.24 -0.11 2.39
v -0.28 -0.12 2.39
v -0.28 -0.13 2.36
v -0.24 -0.14 2.34
v -0.28 -0.15 2.35
v -0.28 -0.17 2.34
v -0.24 -0.17 2.33
v -0.24 -0.12 2.41
v -0.24 -0.13 2.42
v -0.28 -0.14 2.42
v -0.28 -0.13 2.41
v -0.24 -0.19 2.34
v -0.28 -0.19 2.35
v -0.28 -0.2 2.36
v -0.24 -0.21 2.35
v -0.24 -0.13 2.35
v -0.28 -0.14 2.35
v -0.3 -0.19 2.38
v -0.3 -0.19 2.39
v -0.3 -0.19 2.4
v -0.3 -0.18 2.41
v -0.3 -0.15 2.4
v -0.3 -0.17 2.41
v -0.3 -0.16 2.41
v -0.3 -0.16 2.37
v -0.3 -0.17 2.36
v -0.3 -0.15 2.39
v -0.3 -0.15 2.37
v -0.3 -0.18 2.37
v -0.3 -0.15 2.38
v -0.2 -0.15 2.43
v -0.2 -0.17 2.44
v -0.2 -0.21 2.41
v -0.2 -0.2 2.43
v -0.2 -0.19 2.43
v -0.2 -0.21 2.37
v -0.2 -0.21 2.39
v -0.2 -0.13 2.36
v -0.2 -0.12 2.39
v -0.2 -0.17 2.34
v -0.2 -0.15 2.35
v -0.2 -0.13 2.41
v -0.2 -0.14 2.42
v -0.2 -0.2 2.36
v -0.2 -0.19 2.35
v -0.2 -0.14 2.35
v -0.18 -0.19 2.39
v -0.18 -0.19 2.38
v -0.18 -0.18 2.41
v -0.18 -0.19 2.4
v -0.18 -0.15 2.4
v -0.18 -0.16 2.41
v -0.18 -0.17 2.41
v -0.18 -0.17 2.36
v -0.18 -0.16 2.37
v -0.18 -0.15 2.39
v -0.18 -0.15 2.37
v -0.18 -0.18 2.37
v -0.18 -0.15 2.38
v 0.11 -0.75 1.55
v 0.08 -0.73 1.56
v 0.1 -0.71 1.56
v 0.12 -0.74 1.56
v 0.16 -0.71 1.52
v 0.15 -0.71 1.54
v 0.13 -0.68 1.54
v 0.14 -0.67 1.53
v 0.14 -0.72 1.55
v 0.12 -0.6900000000000001 1.56
v 0.16 -0.71 1.48
v 0.16 -0.7000000000000001 1.5
v 0.15 -0.67 1.5
v 0.14 -0.67 1.47
v 0.06 -0.75 1.47
v 0.06 -0.75 1.5
v 0.09 -0.77 1.5
v 0.09 -0.77 1.47
v 0.08 -0.73 1.45
v 0.11 -0.75 1.45
v 0.12 -0.74 1.45
v 0.1 -0.71 1.44
v 0.06 -0.75 1.53
v 0.07 -0.74 1.54
v 0.1 -0.76 1.54
v 0.09 -0.77 1.53
v 0.12 -0.6900000000000001 1.45
v 0.14 -0.72 1.46
v 0.15 -0.71 1.46
v 0.14 -0.68 1.46
v 0.07 -0.74 1.46
v 0.1 -0.76 1.46
v 0.15 -0.74 1.49
v 0.15 -0.73 1.5
v 0.15 -0.74 1.51
v 0.15 -0.74 1.52
v 0.12 -0.76 1.52
v 0.12 -0.76 1.51
v 0.13 -0.75 1.53
v 0.13 -0.76 1.53
v 0.13 -0.76 1.48
v 0.13 -0.75 1.48
v 0.12 -0.77 1.5
v 0.12 -0.76 1.48
v 0.14 -0.74 1.48
v 0.15 -0.74 1.48
v 0.14 -0.74 1.53
v 0.12 -0.76 1.49
v 0.06 -0.7000000000000001 1.55
v 0.08 -0.68 1.56
v 0.11 -0.65 1.52
v 0.11 -0.66 1.54
v 0.1 -0.67 1.55
v 0.11 -0.65 1.48
v 0.12 -0.65 1.5
v 0.05 -0.71 1.47
v 0.04 -0.72 1.5
v 0.08 -0.68 1.45
v 0.06 -0.7000000000000001 1.45
v 0.05 -0.71 1.53
v 0.05 -0.71 1.54
v 0.11 -0.66 1.46
v 0.1 -0.67 1.46
v 0.05 -0.71 1.46
v 0.09 -0.66 1.5
v 0.08 -0.66 1.49
v 0.08 -0.66 1.52
v 0.08 -0.66 1.51
v 0.05 -0.6900000000000001 1.51
v 0.05 -0.68 1.52
v 0.06 -0.68 1.53
v 0.07 -0.67 1.53
v 0.07 -0.67 1.48
v 0.06 -0.68 1.48
v 0.05 -0.6900000000000001 1.5
v 0.05 -0.68 1.48
v 0.08 -0.66 1.48
v 0.08 -0.66 1.53
v 0.05 -0.6900000000000001 1.49
v -0.15 0.81 2.0
v -0.13 0.8300000000000001 2.0100000000000002
v -0.12 0.8 2.0100000000000002
v -0.14 0.79 2.0100000000000002
v -0.13 0.75 1.98
v -0.13 0.76 2.0
v -0.1 0.77 2.0
v -0.1 0.76 1.98
v -0.14 0.77 2.0
v -0.11 0.78 2.0100000000000002
v -0.13 0.75 1.94
v -0.13 0.75 1.96
v -0.09 0.75 1.96
v -0.1 0.76 1.94
v -0.14 0.85 1.94
v -0.14 0.86 1.96
v -0.16 0.8300000000000001 1.96
v -0.16 0.8300000000000001 1.94
v -0.13 0.8300000000000001 1.92
v -0.15 0.81 1.92
v -0.14 0.79 1.92
v -0.12 0.8 1.9100000000000001
v -0.14 0.85 1.98
v -0.13 0.84 2.0
v -0.16 0.8200000000000001 1.99
v -0.16 0.8300000000000001 1.98
v -0.11 0.78 1.92
v -0.14 0.77 1.92
v -0.13 0.76 1.93
v -0.1 0.77 1.93
v -0.13 0.84 1.93
v -0.16 0.8200000000000001 1.93
v -0.15 0.77 1.95
v -0.15 0.77 1.96
v -0.15 0.77 1.97
v -0.15 0.77 1.98
v -0.16 0.8 1.98
v -0.17 0.81 1.97
v -0.16 0.79 1.99
v -0.16 0.8 1.94
v -0.16 0.79 1.94
v -0.17 0.81 1.96
v -0.15 0.78 1.94
v -0.15 0.78 1.98
v -0.17 0.81 1.95
v -0.1 0.84 2.0
v -0.09 0.81 2.0100000000000002
v -0.07 0.78 1.98
v -0.08 0.78 2.0
v -0.08 0.79 2.0
v -0.07 0.77 1.94
v -0.07 0.77 1.96
v -0.1 0.85 1.94
v -0.11 0.86 1.96
v -0.09 0.81 1.92
v -0.1 0.84 1.92
v -0.1 0.85 1.98
v -0.1 0.85 1.99
v -0.08 0.78 1.93
v -0.08 0.79 1.92
v -0.1 0.85 1.93
v -0.07 0.8 1.96
v -0.07 0.8 1.95
v -0.07 0.81 1.98
v -0.07 0.8 1.97
v -0.08 0.84 1.97
v -0.08 0.84 1.98
v -0.08 0.8300000000000001 1.98
v -0.07 0.8200000000000001 1.99
v -0.07 0.8200000000000001 1.94
v -0.08 0.8300000000000001 1.94
v -0.08 0.84 1.96
v -0.08 0.84 1.94
v -0.07 0.81 1.95
v -0.07 0.81 1.94
v -0.08 0.84 1.95
v 0.85 0.1 1.96
v 0.87 0.09 1.93
v 0.87 0.06 1.95
v 0.85 0.08 1.97
v 0.8200000000000001 0.04 1.98
v 0.84 0.05 1.98
v 0.85 0.03 1.96
v 0.8300000000000001 0.02 1.96
v 0.84 0.06 1.98
v 0.86 0.04 1.96
v 0.78 0.04 1.96
v 0.8 0.04 1.97
v 0.81 0.01 1.95
v 0.79 0.02 1.94
v 0.81 0.11 1.8900000000000001
v 0.8300000000000001 0.11 1.9000000000000001
v 0.8200000000000001 0.12 1.93
v 0.8 0.11 1.92
v 0.79 0.08 1.9000000000000001
v 0.78 0.1 1.92
v 0.77 0.08 1.93
v 0.78 0.06 1.9000000000000001
v 0.85 0.11 1.9100000000000001
v 0.86 0.1 1.92
v 0.84 0.11 1.95
v 0.84 0.11 1.94
v 0.78 0.04 1.92
v 0.77 0.06 1.94
v 0.78 0.05 1.95
v 0.79 0.03 1.93
v 0.8 0.1 1.8900000000000001
v 0.79 0.11 1.92
v 0.79 0.07 1.97
v 0.8 0.07 1.97
v 0.81 0.07 1.98
v 0.8200000000000001 0.07 1.98
v 0.8200000000000001 0.1 1.96
v 0.8300000000000001 0.09 1.97
v 0.8300000000000001 0.1 1.97
v 0.79 0.09 1.95
v 0.78 0.08 1.95
v 0.81 0.1 1.95
v 0.79 0.1 1.95
v 0.78 0.08 1.96
v 0.79 0.07 1.96
v 0.8200000000000001 0.08 1.98
v 0.8 0.1 1.95
v 0.88 0.07 1.9100000000000001
v 0.88 0.05 1.92
v 0.84 0.01 1.93
v 0.86 0.02 1.93
v 0.87 0.03 1.93
v 0.81 0.01 1.9100000000000001
v 0.8300000000000001 0.01 1.92
v 0.8200000000000001 0.08 1.87
v 0.84 0.09 1.8800000000000001
v 0.8 0.05 1.8800000000000001
v 0.8 0.07 1.87
v 0.86 0.08 1.8900000000000001
v 0.87 0.08 1.9000000000000001
v 0.8 0.02 1.9000000000000001
v 0.8 0.03 1.8900000000000001
v 0.81 0.08 1.87
v 0.84 0.02 1.9000000000000001
v 0.8300000000000001 0.02 1.8900000000000001
v 0.85 0.03 1.9000000000000001
v 0.85 0.02 1.9000000000000001
v 0.85 0.06 1.8800000000000001
v 0.86 0.05 1.8900000000000001
v 0.86 0.04 1.9000000000000001
v 0.8200000000000001 0.04 1.8800000000000001
v 0.8200000000000001 0.05 1.87
v 0.84 0.06 1.8800000000000001
v 0.8300000000000001 0.05 1.87
v 0.8200000000000001 0.03 1.8900000000000001
v 0.8200000000000001 0.03 1.8800000000000001
v 0.86 0.03 1.9000000000000001
v 0.8300000000000001 0.06 1.87

usemtl tex_32767
f 1 2 3
f 1 3 4
f 1 5 6
f 1 6 7
f 1 8 2
f 1 4 5
f 1 7 9
f 1 9 8
f 51 52 53
f 51 53 54
f 9 55 8
f 9 56 55
f 5 57 6
f 5 58 57
f 7 56 9
f 7 59 56
f 59 6 57
f 59 7 6
f 58 4 60
f 58 5 4
f 3 60 4
f 3 61 60
f 61 2 62
f 61 3 2
f 62 8 55
f 62 2 8
f 63 64 65
f 63 66 64
f 65 67 68
f 65 64 67
f 63 69 70
f 63 65 69
f 65 71 69
f 65 68 71
f 72 70 69
f 71 72 69
f 73 70 72
f 73 72 71
f 74 75 9
f 76 9 75
f 75 77 76
f 74 77 75
f 78 79 80
f 78 81 79
f 82 83 84
f 82 85 83
f 84 86 87
f 84 83 86
f 88 85 82
f 88 89 85
f 80 84 78
f 80 90 84
f 78 87 81
f 78 84 87
f 79 90 80
f 79 91 90
f 90 82 84
f 90 92 82
f 90 93 92
f 92 88 82
f 94 88 92
f 90 95 93
f 90 91 95
f 94 93 95
f 94 92 93
f 87 89 88
f 87 86 89
f 81 91 79
f 81 87 91
f 91 87 88
f 88 95 91
f 95 88 94
f 96 97 98
f 99 97 96
f 100 101 102
f 100 103 101
f 102 104 105
f 102 101 104
f 106 103 100
f 106 107 103
f 108 97 101
f 108 98 97
f 101 99 104
f 101 97 99
f 109 98 108
f 109 96 98
f 103 108 101
f 110 103 111
f 110 108 103
f 107 111 103
f 107 112 111
f 113 108 110
f 109 108 113
f 110 112 113
f 111 112 110
f 105 107 106
f 105 104 107
f 109 99 96
f 104 99 109
f 104 109 107
f 113 107 109
f 107 113 112
usemtl tex_65
f 10 11 12 13
f 14 15 11 10
f 16 17 15 14
f 18 19 20 21
f 22 23 19 18
f 13 12 23 22
f 21 20 24 25
f 26 27 28 29
f 30 31 27 26
f 32 33 34 35
f 29 28 36 37
f 38 39 33 32
f 40 41 39 38
f 37 36 41 40
f 42 43 44
f 44 43 45
f 46 43 47
f 47 43 42
f 45 43 48
f 48 43 49
f 49 43 50
f 50 43 46
f 35 34 31 30
f 25 24 17 16
usemtl rsc_388010
f 114 115 116 117
f 118 119 120 121
f 122 123 120 119
f 124 125 126 127
f 128 129 130 131
f 132 133 134 135
f 136 137 138 139
f 140 141 142 143
f 129 136 139 130
f 125 118 121 126
f 144 128 131 145
f 142 124 127 143
f 135 134 141 140
f 117 116 123 122
f 144 145 133 132
f 138 137 115 114
f 125 124 146 147
f 119 118 148 149
f 118 125 147 148
f 139 138 150 150
f 114 117 151 152
f 134 133 153 154
f 138 114 152 150
f 130 139 150 155
f 133 145 153 153
f 142 141 156 156
f 117 122 149 151
f 145 131 157 153
f 141 134 154 156
f 124 142 156 146
f 131 130 155 157
f 122 119 149 149
f 153 157 155 150 150 152 151 149 149 148 147 146 156 156 154 153
f 158 159 116 115
f 160 121 120 161
f 162 161 120 123
f 163 127 126 164
f 128 165 166 129
f 132 135 167 168
f 136 169 170 137
f 140 143 171 172
f 129 166 169 136
f 164 126 121 160
f 144 173 165 128
f 171 143 127 163
f 135 140 172 167
f 159 162 123 116
f 144 132 168 173
f 170 158 115 137
f 164 174 175 163
f 161 176 177 160
f 160 177 174 164
f 169 178 179 170
f 158 179 180 159
f 167 181 182 168
f 170 179 179 158
f 166 183 178 169
f 168 182 184 173
f 171 185 186 172
f 159 180 176 162
f 173 184 184 165
f 172 186 181 167
f 163 175 185 171
f 165 184 183 166
f 162 176 176 161
f 184 182 181 186 185 175 174 177 176 176 180 179 179 178 183 184
f 187 188 189 190
f 191 192 193 194
f 195 196 193 192
f 197 198 199 200
f 201 202 203 204
f 205 206 207 208
f 209 210 211 212
f 213 214 215 216
f 202 209 212 203
f 198 191 194 199
f 217 201 204 218
f 215 197 200 216
f 208 207 214 213
f 190 189 196 195
f 217 218 206 205
f 211 210 188 187
f 198 197 219 220
f 192 191 221 222
f 191 198 220 221
f 212 211 223 223
f 187 190 224 225
f 207 206 226 227
f 211 187 225 223
f 203 212 223 228
f 206 218 229 226
f 215 214 230 230
f 190 195 222 224
f 218 204 231 229
f 214 207 227 230
f 197 215 230 219
f 204 203 228 231
f 195 192 222 222
f 229 231 228 223 223 225 224 222 222 221 220 219 230 230 227 226
f 232 233 189 188
f 234 194 193 235
f 236 235 193 196
f 237 200 199 238
f 201 239 240 202
f 205 208 241 242
f 209 243 244 210
f 213 216 245 246
f 202 240 243 209
f 238 199 194 234
f 217 247 239 201
f 245 216 200 237
f 208 213 246 241
f 233 236 196 189
f 217 205 242 247
f 244 232 188 210
f 238 248 249 237
f 235 250 251 234
f 234 251 248 238
f 243 252 252 244
f 232 253 254 233
f 241 255 256 242
f 244 252 253 232
f 240 257 252 243
f 242 256 258 247
f 245 259 259 246
f 233 254 250 236
f 247 258 260 239
f 246 259 255 241
f 237 249 259 245
f 239 260 257 240
f 236 250 250 235
f 258 256 255 259 259 249 248 251 250 250 254 253 252 252 257 260
f 261 262 263 264
f 265 266 267 268
f 269 270 267 266
f 271 272 273 274
f 275 276 277 278
f 279 280 281 282
f 283 284 285 286
f 287 288 289 290
f 276 283 286 277
f 272 265 268 273
f 291 275 278 292
f 289 271 274 290
f 282 281 288 287
f 264 263 270 269
f 291 292 280 279
f 285 284 262 261
f 272 271 293 294
f 266 265 295 296
f 265 272 294 295
f 286 285 297 298
f 261 264 299 300
f 281 280 301 302
f 285 261 300 297
f 277 286 298 303
f 280 292 304 301
f 289 288 305 306
f 264 269 307 299
f 292 278 308 304
f 288 281 302 305
f 271 289 306 293
f 278 277 303 308
f 269 266 296 307
f 304 308 303 298 297 300 299 307 296 295 294 293 306 305 302 301
f 309 310 263 262
f 311 268 267 312
f 313 312 267 270
f 314 274 273 315
f 275 316 317 276
f 279 282 318 319
f 283 320 321 284
f 287 290 322 323
f 276 317 320 283
f 315 273 268 311
f 291 324 316 275
f 322 290 274 314
f 282 287 323 318
f 310 313 270 263
f 291 279 319 324
f 321 309 262 284
f 315 325 326 314
f 312 327 328 311
f 311 328 325 315
f 320 329 330 321
f 309 331 332 310
f 318 333 334 319
f 321 330 331 309
f 317 335 329 320
f 319 334 336 324
f 322 337 337 323
f 310 332 338 313
f 324 336 339 316
f 323 337 333 318
f 314 326 337 322
f 316 339 335 317
f 313 338 327 312
f 336 334 333 337 337 326 325 328 327 338 332 331 330 329 335 339
f 340 341 342 343
f 344 345 346 347
f 348 349 346 345
f 350 351 352 353
f 354 355 356 357
f 358 359 360 361
f 362 363 364 365
f 366 367 368 369
f 355 362 365 356
f 351 344 347 352
f 370 354 357 371
f 368 350 353 369
f 361 360 367 366
f 343 342 349 348
f 370 371 359 358
f 364 363 341 340
f 351 350 372 373
f 345 344 374 375
f 344 351 373 374
f 365 364 376 377
f 340 343 378 376
f 360 359 379 380
f 364 340 376 376
f 356 365 377 381
f 359 371 379 379
f 368 367 382 372
f 343 348 383 378
f 371 357 384 379
f 367 360 380 382
f 350 368 372 372
f 357 356 381 384
f 348 345 375 383
f 379 384 381 377 376 376 378 383 375 374 373 372 372 382 380 379
f 385 386 342 341
f 387 347 346 388
f 389 388 346 349
f 390 353 352 391
f 354 392 393 355
f 358 361 394 395
f 362 396 397 363
f 366 369 398 399
f 355 393 396 362
f 391 352 347 387
f 370 400 392 354
f 398 369 353 390
f 361 366 399 394
f 386 389 349 342
f 370 358 395 400
f 397 385 341 363
f 391 401 402 390
f 388 403 404 387
f 387 404 401 391
f 396 405 406 397
f 385 407 408 386
f 394 409 410 395
f 397 406 407 385
f 393 411 405 396
f 395 410 412 400
f 398 413 414 399
f 386 408 403 389
f 400 412 415 392
f 399 414 409 394
f 390 402 413 398
f 392 415 411 393
f 389 403 403 388
f 412 410 409 414 413 402 401 404 403 403 408 407 406 405 411 415
f 416 417 418 419
f 420 421 422 423
f 424 425 422 421
f 426 427 428 429
f 430 431 432 433
f 434 435 436 437
f 438 439 440 441
f 442 443 444 445
f 431 438 441 432
f 427 420 423 428
f 446 430 433 447
f 444 426 429 445
f 437 436 443 442
f 419 418 425 424
f 446 447 435 434
f 440 439 417 416
f 427 426 448 449
f 421 420 450 451
f 420 427 449 450
f 441 440 452 452
f 416 419 453 454
f 436 435 455 456
f 440 416 454 452
f 432 441 452 457
f 435 447 458 455
f 444 443 459 460
f 419 424 461 453
f 447 433 462 458
f 443 436 456 459
f 426 444 460 448
f 433 432 457 462
f 424 421 451 461
f 458 462 457 452 452 454 453 461 451 450 449 448 460 459 456 455
f 463 464 418 417
f 465 423 422 466
f 467 466 422 425
f 468 429 428 469
f 430 470 471 431
f 434 437 472 473
f 438 474 475 439
f 442 445 476 477
f 431 471 474 438
f 469 428 423 465
f 446 478 470 430
f 476 445 429 468
f 437 442 477 472
f 464 467 425 418
f 446 434 473 478
f 475 463 417 439
f 469 479 480 468
f 466 481 482 465
f 465 482 479 469
f 474 483 484 475
f 463 484 485 464
f 472 486 487 473
f 475 484 484 463
f 471 488 483 474
f 473 487 489 478
f 476 490 491 477
f 464 485 492 467
f 478 489 493 470
f 477 491 486 472
f 468 480 490 476
f 470 493 488 471
f 467 492 481 466
f 489 487 486 491 490 480 479 482 481 492 485 484 484 483 488 493
