# Blender 4.0.2
# www.blender.org
mtllib 4_mature.mtl
o poppy_4_mature
v 0.000000 -0.100000 0.000000
v 0.000000 -0.100000 0.020000
v -0.058779 -0.080902 0.000000
v -0.058779 -0.080902 0.020000
v -0.095106 -0.030902 0.000000
v -0.095106 -0.030902 0.020000
v -0.095106 0.030902 0.000000
v -0.095106 0.030902 0.020000
v -0.058779 0.080902 0.000000
v -0.058779 0.080902 0.020000
v 0.000000 0.100000 0.000000
v 0.000000 0.100000 0.020000
v 0.058779 0.080902 0.000000
v 0.058779 0.080902 0.020000
v 0.095106 0.030902 0.000000
v 0.095106 0.030902 0.020000
v 0.095106 -0.030902 0.000000
v 0.095106 -0.030902 0.020000
v 0.058779 -0.080902 0.000000
v 0.058779 -0.080902 0.020000
v 0.000000 -0.006000 0.020000
v 0.000000 -0.006000 0.370000
v -0.005706 -0.001854 0.020000
v -0.005706 -0.001854 0.370000
v -0.003527 0.004854 0.020000
v -0.003527 0.004854 0.370000
v 0.003527 0.004854 0.020000
v 0.003527 0.004854 0.370000
v 0.005706 -0.001854 0.020000
v 0.005706 -0.001854 0.370000
v -0.045000 -0.004832 0.034264
v -0.102888 0.005881 0.030661
v -0.022889 0.010851 0.026475
v 0.026554 -0.002161 0.037435
v -0.022889 -0.015173 0.048395
v -0.102888 -0.010203 0.044208
v -0.067111 0.015173 0.031605
v 0.012888 0.010203 0.035792
v 0.012888 -0.005881 0.049339
v -0.067111 -0.010851 0.053525
v -0.116554 0.002161 0.042565
v -0.045000 0.004832 0.045736
v 0.004832 -0.045000 0.034264
v -0.005881 -0.102888 0.030661
v -0.010851 -0.022889 0.026475
v 0.002161 0.026554 0.037435
v 0.015173 -0.022889 0.048395
v 0.010203 -0.102888 0.044208
v -0.015173 -0.067111 0.031605
v -0.010203 0.012888 0.035792
v 0.005881 0.012888 0.049339
v 0.010851 -0.067111 0.053525
v -0.002161 -0.116554 0.042565
v -0.004832 -0.045000 0.045736
v 0.045000 0.004832 0.034264
v 0.102888 -0.005881 0.030661
v 0.022889 -0.010851 0.026475
v -0.026554 0.002161 0.037435
v 0.022889 0.015173 0.048395
v 0.102888 0.010203 0.044208
v 0.067111 -0.015173 0.031605
v -0.012888 -0.010203 0.035792
v -0.012888 0.005881 0.049339
v 0.067111 0.010851 0.053525
v 0.116554 -0.002161 0.042565
v 0.045000 -0.004832 0.045736
v -0.004832 0.045000 0.034264
v 0.005881 0.102888 0.030661
v 0.010851 0.022889 0.026475
v -0.002161 -0.026554 0.037435
v -0.015173 0.022889 0.048395
v -0.010203 0.102888 0.044208
v 0.015173 0.067111 0.031605
v 0.010203 -0.012888 0.035792
v -0.005881 -0.012888 0.049339
v -0.010851 0.067111 0.053525
v 0.002161 0.116554 0.042565
v 0.004832 0.045000 0.045736
v -0.024000 -0.002877 0.390488
v -0.056562 0.010248 0.387097
v -0.011563 0.017376 0.383203
v 0.016249 -0.001286 0.393398
v -0.011563 -0.019949 0.403594
v -0.056562 -0.012821 0.399699
v -0.036437 0.019949 0.387912
v 0.008562 0.012821 0.391807
v 0.008562 -0.010248 0.404409
v -0.036437 -0.017376 0.408303
v -0.064249 0.001286 0.398108
v -0.024000 0.002877 0.401019
v 0.002877 -0.024000 0.390488
v -0.010248 -0.056562 0.387097
v -0.017376 -0.011563 0.383203
v 0.001286 0.016249 0.393398
v 0.019949 -0.011563 0.403594
v 0.012821 -0.056562 0.399699
v -0.019949 -0.036437 0.387912
v -0.012821 0.008562 0.391807
v 0.010248 0.008562 0.404409
v 0.017376 -0.036437 0.408303
v -0.001286 -0.064249 0.398108
v -0.002877 -0.024000 0.401019
v 0.024000 0.002877 0.390488
v 0.056562 -0.010248 0.387097
v 0.011563 -0.017376 0.383203
v -0.016249 0.001286 0.393398
v 0.011563 0.019949 0.403594
v 0.056562 0.012821 0.399699
v 0.036437 -0.019949 0.387912
v -0.008562 -0.012821 0.391807
v -0.008562 0.010248 0.404409
v 0.036437 0.017376 0.408303
v 0.064249 -0.001286 0.398108
v 0.024000 -0.002877 0.401019
v -0.002877 0.024000 0.390488
v 0.010248 0.056562 0.387097
v 0.017376 0.011563 0.383203
v -0.001286 -0.016249 0.393398
v -0.019949 0.011563 0.403594
v -0.012821 0.056562 0.399699
v 0.019949 0.036437 0.387912
v 0.012821 -0.008562 0.391807
v -0.010248 -0.008562 0.404409
v -0.017376 0.036437 0.408303
v 0.001286 0.064249 0.398108
v 0.002877 0.024000 0.401019
v 0.000000 0.000000 0.383000
v -0.008683 0.006309 0.389633
v 0.003317 0.010208 0.389633
v 0.010733 0.000000 0.389633
v 0.003317 -0.010208 0.389633
v -0.008683 -0.006309 0.389633
v -0.003317 0.010208 0.400367
v 0.008683 0.006309 0.400367
v 0.008683 -0.006309 0.400367
v -0.003317 -0.010208 0.400367
v -0.010733 0.000000 0.400367
v 0.000000 0.000000 0.407000
v 0.000000 0.000000 0.383000
v -0.008683 0.006309 0.389633
v 0.003317 0.010208 0.389633
v 0.010733 0.000000 0.389633
v 0.003317 -0.010208 0.389633
v -0.008683 -0.006309 0.389633
v -0.003317 0.010208 0.400367
v 0.008683 0.006309 0.400367
v 0.008683 -0.006309 0.400367
v -0.003317 -0.010208 0.400367
v -0.010733 0.000000 0.400367
v 0.000000 0.000000 0.407000
v 0.000000 0.000000 0.383000
v -0.008683 0.006309 0.389633
v 0.003317 0.010208 0.389633
v 0.010733 0.000000 0.389633
v 0.003317 -0.010208 0.389633
v -0.008683 -0.006309 0.389633
v -0.003317 0.010208 0.400367
v 0.008683 0.006309 0.400367
v 0.008683 -0.006309 0.400367
v -0.003317 -0.010208 0.400367
v -0.010733 0.000000 0.400367
v 0.000000 0.000000 0.407000
vn -0.3090 -0.9511 -0.0000
vn -0.8090 -0.5878 -0.0000
vn -1.0000 -0.0000 -0.0000
vn -0.8090 0.5878 -0.0000
vn -0.3090 0.9511 -0.0000
vn 0.3090 0.9511 -0.0000
vn 0.8090 0.5878 -0.0000
vn 1.0000 -0.0000 -0.0000
vn -0.0000 -0.0000 1.0000
vn 0.8090 -0.5878 -0.0000
vn 0.3090 -0.9511 -0.0000
vn -0.0000 -0.0000 -1.0000
vn -0.5878 -0.8090 -0.0000
vn -0.9511 0.3090 -0.0000
vn -0.0000 1.0000 -0.0000
vn 0.9511 0.3090 -0.0000
vn 0.5878 -0.8090 -0.0000
vn -0.0213 -0.4204 -0.9071
vn -0.0714 -0.6426 -0.7629
vn 0.0570 -0.5074 -0.8598
vn 0.0570 -0.7610 -0.6462
vn -0.0213 -0.8224 -0.5685
vn -0.4406 -0.5783 -0.6866
vn -0.0714 0.3692 -0.9266
vn 0.2517 0.1512 -0.9559
vn 0.2517 -0.9677 -0.0135
vn -0.0714 -0.9759 0.2063
vn -0.2517 0.9677 0.0135
vn 0.0714 0.9759 -0.2063
vn 0.4406 0.5783 0.6866
vn 0.0714 -0.3692 0.9266
vn -0.2517 -0.1512 0.9559
vn -0.0570 0.7610 0.6462
vn 0.0213 0.8224 0.5685
vn 0.0714 0.6426 0.7629
vn 0.0213 0.4204 0.9071
vn -0.0570 0.5074 0.8598
vn 0.4204 -0.0213 -0.9071
vn 0.6426 -0.0714 -0.7629
vn 0.5074 0.0570 -0.8598
vn 0.7610 0.0570 -0.6462
vn 0.8224 -0.0213 -0.5685
vn 0.5783 -0.4406 -0.6866
vn -0.3692 -0.0714 -0.9266
vn -0.1512 0.2517 -0.9559
vn 0.9677 0.2517 -0.0135
vn 0.9759 -0.0714 0.2063
vn -0.9677 -0.2517 0.0135
vn -0.9759 0.0714 -0.2063
vn -0.5783 0.4406 0.6866
vn 0.3692 0.0714 0.9266
vn 0.1512 -0.2517 0.9559
vn -0.7610 -0.0570 0.6462
vn -0.8224 0.0213 0.5685
vn -0.6426 0.0714 0.7629
vn -0.4204 0.0213 0.9071
vn -0.5074 -0.0570 0.8598
vn 0.0213 0.4204 -0.9071
vn 0.0714 0.6426 -0.7629
vn -0.0570 0.5074 -0.8598
vn -0.0570 0.7610 -0.6462
vn 0.0213 0.8224 -0.5685
vn 0.4406 0.5783 -0.6866
vn 0.0714 -0.3692 -0.9266
vn -0.2517 -0.1512 -0.9559
vn -0.2517 0.9677 -0.0135
vn 0.0714 0.9759 0.2063
vn 0.2517 -0.9677 0.0135
vn -0.0714 -0.9759 -0.2063
vn -0.4406 -0.5783 0.6866
vn -0.0714 0.3692 0.9266
vn 0.2517 0.1512 0.9559
vn 0.0570 -0.7610 0.6462
vn -0.0213 -0.8224 0.5685
vn -0.0714 -0.6426 0.7629
vn -0.0213 -0.4204 0.9071
vn 0.0570 -0.5074 0.8598
vn -0.4204 0.0213 -0.9071
vn -0.6426 0.0714 -0.7629
vn -0.5074 -0.0570 -0.8598
vn -0.7610 -0.0570 -0.6462
vn -0.8224 0.0213 -0.5685
vn -0.5783 0.4406 -0.6866
vn 0.3692 0.0714 -0.9266
vn 0.1512 -0.2517 -0.9559
vn -0.9677 -0.2517 -0.0135
vn -0.9759 0.0714 0.2063
vn 0.9677 0.2517 0.0135
vn 0.9759 -0.0714 -0.2063
vn 0.5783 -0.4406 0.6866
vn -0.3692 -0.0714 0.9266
vn -0.1512 0.2517 0.9559
vn 0.7610 0.0570 0.6462
vn 0.8224 -0.0213 0.5685
vn 0.6426 -0.0714 0.7629
vn 0.4204 -0.0213 0.9071
vn 0.5074 0.0570 0.8598
vn -0.0310 -0.3214 -0.9464
vn -0.1013 -0.4770 -0.8731
vn 0.0817 -0.3814 -0.9208
vn 0.0817 -0.5688 -0.8184
vn -0.0310 -0.6228 -0.7818
vn -0.5724 -0.3931 -0.7196
vn -0.1371 0.3620 -0.9221
vn 0.4136 0.1236 -0.9020
vn 0.4136 -0.8258 -0.3833
vn -0.1371 -0.9714 -0.1936
vn -0.4136 0.8258 0.3833
vn 0.1371 0.9714 0.1936
vn 0.5724 0.3931 0.7196
vn 0.1371 -0.3620 0.9221
vn -0.4136 -0.1236 0.9020
vn -0.0817 0.5688 0.8184
vn 0.0310 0.6228 0.7818
vn 0.1013 0.4770 0.8731
vn 0.0310 0.3214 0.9464
vn -0.0817 0.3814 0.9208
vn 0.3214 -0.0310 -0.9464
vn 0.4770 -0.1013 -0.8731
vn 0.3814 0.0817 -0.9208
vn 0.5688 0.0817 -0.8184
vn 0.6228 -0.0310 -0.7818
vn 0.3931 -0.5724 -0.7196
vn -0.3620 -0.1371 -0.9221
vn -0.1236 0.4136 -0.9020
vn 0.8258 0.4136 -0.3833
vn 0.9714 -0.1371 -0.1936
vn -0.8258 -0.4136 0.3833
vn -0.9714 0.1371 0.1936
vn -0.3931 0.5724 0.7196
vn 0.3620 0.1371 0.9221
vn 0.1236 -0.4136 0.9020
vn -0.5688 -0.0817 0.8184
vn -0.6228 0.0310 0.7818
vn -0.4770 0.1013 0.8731
vn -0.3214 0.0310 0.9464
vn -0.3814 -0.0817 0.9208
vn 0.0310 0.3214 -0.9464
vn 0.1013 0.4770 -0.8731
vn -0.0817 0.3814 -0.9208
vn -0.0817 0.5688 -0.8184
vn 0.0310 0.6228 -0.7818
vn 0.5724 0.3931 -0.7196
vn 0.1371 -0.3620 -0.9221
vn -0.4136 -0.1236 -0.9020
vn -0.4136 0.8258 -0.3833
vn 0.1371 0.9714 -0.1936
vn 0.4136 -0.8258 0.3833
vn -0.1371 -0.9714 0.1936
vn -0.5724 -0.3931 0.7196
vn -0.1371 0.3620 0.9221
vn 0.4136 0.1236 0.9020
vn 0.0817 -0.5688 0.8184
vn -0.0310 -0.6228 0.7818
vn -0.1013 -0.4770 0.8731
vn -0.0310 -0.3214 0.9464
vn 0.0817 -0.3814 0.9208
vn -0.3214 0.0310 -0.9464
vn -0.4770 0.1013 -0.8731
vn -0.3814 -0.0817 -0.9208
vn -0.5688 -0.0817 -0.8184
vn -0.6228 0.0310 -0.7818
vn -0.3931 0.5724 -0.7196
vn 0.3620 0.1371 -0.9221
vn 0.1236 -0.4136 -0.9020
vn -0.8258 -0.4136 -0.3833
vn -0.9714 0.1371 -0.1936
vn 0.8258 0.4136 0.3833
vn 0.9714 -0.1371 0.1936
vn 0.3931 -0.5724 0.7196
vn -0.3620 -0.1371 0.9221
vn -0.1236 0.4136 0.9020
vn 0.5688 0.0817 0.8184
vn 0.6228 -0.0310 0.7818
vn 0.4770 -0.1013 0.8731
vn 0.3214 -0.0310 0.9464
vn 0.3814 0.0817 0.9208
vn -0.1876 0.5774 -0.7947
vn -0.6071 -0.0000 -0.7947
vn 0.4911 0.3568 -0.7947
vn 0.4911 -0.3568 -0.7947
vn -0.1876 -0.5774 -0.7947
vn -0.9822 -0.0000 -0.1876
vn -0.3035 0.9342 -0.1876
vn 0.7946 0.5774 -0.1876
vn 0.7946 -0.5774 -0.1876
vn -0.3035 -0.9342 -0.1876
vn -0.7946 0.5774 0.1876
vn 0.3035 0.9342 0.1876
vn 0.9822 -0.0000 0.1876
vn 0.3035 -0.9342 0.1876
vn -0.7946 -0.5774 0.1876
vn -0.4911 0.3568 0.7947
vn 0.1876 0.5774 0.7947
vn 0.6071 -0.0000 0.7947
vn 0.1876 -0.5774 0.7947
vn -0.4911 -0.3568 0.7947
vt 1.000000 0.500000
vt 1.000000 1.000000
vt 0.900000 1.000000
vt 0.900000 0.500000
vt 0.800000 1.000000
vt 0.800000 0.500000
vt 0.700000 1.000000
vt 0.700000 0.500000
vt 0.600000 1.000000
vt 0.600000 0.500000
vt 0.500000 1.000000
vt 0.500000 0.500000
vt 0.400000 1.000000
vt 0.400000 0.500000
vt 0.300000 1.000000
vt 0.300000 0.500000
vt 0.200000 1.000000
vt 0.200000 0.500000
vt 0.391068 0.444164
vt 0.250000 0.490000
vt 0.108932 0.444164
vt 0.021746 0.324164
vt 0.021746 0.175836
vt 0.108932 0.055836
vt 0.250000 0.010000
vt 0.391068 0.055836
vt 0.478254 0.175836
vt 0.478254 0.324164
vt 0.100000 1.000000
vt 0.100000 0.500000
vt -0.000000 1.000000
vt -0.000000 0.500000
vt 0.750000 0.490000
vt 0.891068 0.444164
vt 0.978254 0.324164
vt 0.978254 0.175836
vt 0.891068 0.055836
vt 0.750000 0.010000
vt 0.608932 0.055836
vt 0.521746 0.175836
vt 0.521746 0.324164
vt 0.608932 0.444164
vt 0.800000 1.000000
vt 0.800000 0.500000
vt 0.600000 1.000000
vt 0.600000 0.500000
vt 0.400000 1.000000
vt 0.400000 0.500000
vt 0.478254 0.324164
vt 0.021746 0.324164
vt 0.108932 0.055836
vt 0.200000 1.000000
vt 0.200000 0.500000
vt 0.000000 1.000000
vt 0.000000 0.500000
vt 0.978254 0.324164
vt 0.521746 0.324164
vt 0.181819 0.000000
vt 0.272728 0.157461
vt 0.090910 0.157461
vt 0.363637 0.000000
vt 0.454546 0.157461
vt 0.909091 0.000000
vt 1.000000 0.157461
vt 0.818182 0.157461
vt 0.727273 0.000000
vt 0.636364 0.157461
vt 0.545455 0.000000
vt 0.363637 0.314921
vt 0.181819 0.314921
vt 0.909091 0.314921
vt 0.727273 0.314921
vt 0.545455 0.314921
vt 0.000000 0.314921
vt 0.272728 0.472382
vt 0.090910 0.472382
vt 0.818182 0.472382
vt 0.636364 0.472382
vt 0.454546 0.472382
s 0
usemtl soil
f 1/1/1 2/2/1 4/3/1 3/4/1
f 3/4/2 4/3/2 6/5/2 5/6/2
f 5/6/3 6/5/3 8/7/3 7/8/3
f 7/8/4 8/7/4 10/9/4 9/10/4
f 9/10/5 10/9/5 12/11/5 11/12/5
f 11/12/6 12/11/6 14/13/6 13/14/6
f 13/14/7 14/13/7 16/15/7 15/16/7
f 15/16/8 16/15/8 18/17/8 17/18/8
f 4/19/9 2/20/9 20/21/9 18/22/9 16/23/9 14/24/9 12/25/9 10/26/9 8/27/9 6/28/9
f 17/18/10 18/17/10 20/29/10 19/30/10
f 19/30/11 20/29/11 2/31/11 1/32/11
f 1/33/12 3/34/12 5/35/12 7/36/12 9/37/12 11/38/12 13/39/12 15/40/12 17/41/12 19/42/12
usemtl stem
f 21/1/13 22/2/13 24/43/13 23/44/13
f 23/44/14 24/43/14 26/45/14 25/46/14
f 25/46/15 26/45/15 28/47/15 27/48/15
f 24/49/9 22/20/9 30/50/9 28/51/9 26/26/9
f 27/48/16 28/47/16 30/52/16 29/53/16
f 29/53/17 30/52/17 22/54/17 21/55/17
f 21/33/12 23/56/12 25/37/12 27/39/12 29/57/12
usemtl leaf
f 31/58/18 32/59/18 33/60/18
f 32/59/19 31/61/19 36/62/19
f 31/63/20 33/64/20 34/65/20
f 31/66/21 34/65/21 35/67/21
f 31/68/22 35/67/22 36/62/22
f 32/59/23 36/62/23 41/69/23
f 33/60/24 32/59/24 37/70/24
f 34/65/25 33/64/25 38/71/25
f 35/67/26 34/65/26 39/72/26
f 36/62/27 35/67/27 40/73/27
f 32/59/28 41/69/28 37/70/28
f 33/60/29 37/70/29 38/74/29
f 34/65/30 38/71/30 39/72/30
f 35/67/31 39/72/31 40/73/31
f 36/62/32 40/73/32 41/69/32
f 37/70/33 41/69/33 42/75/33
f 38/74/34 37/70/34 42/76/34
f 39/72/35 38/71/35 42/77/35
f 40/73/36 39/72/36 42/78/36
f 41/69/37 40/73/37 42/79/37
f 43/58/38 44/59/38 45/60/38
f 44/59/39 43/61/39 48/62/39
f 43/63/40 45/64/40 46/65/40
f 43/66/41 46/65/41 47/67/41
f 43/68/42 47/67/42 48/62/42
f 44/59/43 48/62/43 53/69/43
f 45/60/44 44/59/44 49/70/44
f 46/65/45 45/64/45 50/71/45
f 47/67/46 46/65/46 51/72/46
f 48/62/47 47/67/47 52/73/47
f 44/59/48 53/69/48 49/70/48
f 45/60/49 49/70/49 50/74/49
f 46/65/50 50/71/50 51/72/50
f 47/67/51 51/72/51 52/73/51
f 48/62/52 52/73/52 53/69/52
f 49/70/53 53/69/53 54/75/53
f 50/74/54 49/70/54 54/76/54
f 51/72/55 50/71/55 54/77/55
f 52/73/56 51/72/56 54/78/56
f 53/69/57 52/73/57 54/79/57
f 55/58/58 56/59/58 57/60/58
f 56/59/59 55/61/59 60/62/59
f 55/63/60 57/64/60 58/65/60
f 55/66/61 58/65/61 59/67/61
f 55/68/62 59/67/62 60/62/62
f 56/59/63 60/62/63 65/69/63
f 57/60/64 56/59/64 61/70/64
f 58/65/65 57/64/65 62/71/65
f 59/67/66 58/65/66 63/72/66
f 60/62/67 59/67/67 64/73/67
f 56/59/68 65/69/68 61/70/68
f 57/60/69 61/70/69 62/74/69
f 58/65/70 62/71/70 63/72/70
f 59/67/71 63/72/71 64/73/71
f 60/62/72 64/73/72 65/69/72
f 61/70/73 65/69/73 66/75/73
f 62/74/74 61/70/74 66/76/74
f 63/72/75 62/71/75 66/77/75
f 64/73/76 63/72/76 66/78/76
f 65/69/77 64/73/77 66/79/77
f 67/58/78 68/59/78 69/60/78
f 68/59/79 67/61/79 72/62/79
f 67/63/80 69/64/80 70/65/80
f 67/66/81 70/65/81 71/67/81
f 67/68/82 71/67/82 72/62/82
f 68/59/83 72/62/83 77/69/83
f 69/60/84 68/59/84 73/70/84
f 70/65/85 69/64/85 74/71/85
f 71/67/86 70/65/86 75/72/86
f 72/62/87 71/67/87 76/73/87
f 68/59/88 77/69/88 73/70/88
f 69/60/89 73/70/89 74/74/89
f 70/65/90 74/71/90 75/72/90
f 71/67/91 75/72/91 76/73/91
f 72/62/92 76/73/92 77/69/92
f 73/70/93 77/69/93 78/75/93
f 74/74/94 73/70/94 78/76/94
f 75/72/95 74/71/95 78/77/95
f 76/73/96 75/72/96 78/78/96
f 77/69/97 76/73/97 78/79/97
usemtl petal
f 79/58/98 80/59/98 81/60/98
f 80/59/99 79/61/99 84/62/99
f 79/63/100 81/64/100 82/65/100
f 79/66/101 82/65/101 83/67/101
f 79/68/102 83/67/102 84/62/102
f 80/59/103 84/62/103 89/69/103
f 81/60/104 80/59/104 85/70/104
f 82/65/105 81/64/105 86/71/105
f 83/67/106 82/65/106 87/72/106
f 84/62/107 83/67/107 88/73/107
f 80/59/108 89/69/108 85/70/108
f 81/60/109 85/70/109 86/74/109
f 82/65/110 86/71/110 87/72/110
f 83/67/111 87/72/111 88/73/111
f 84/62/112 88/73/112 89/69/112
f 85/70/113 89/69/113 90/75/113
f 86/74/114 85/70/114 90/76/114
f 87/72/115 86/71/115 90/77/115
f 88/73/116 87/72/116 90/78/116
f 89/69/117 88/73/117 90/79/117
f 91/58/118 92/59/118 93/60/118
f 92/59/119 91/61/119 96/62/119
f 91/63/120 93/64/120 94/65/120
f 91/66/121 94/65/121 95/67/121
f 91/68/122 95/67/122 96/62/122
f 92/59/123 96/62/123 101/69/123
f 93/60/124 92/59/124 97/70/124
f 94/65/125 93/64/125 98/71/125
f 95/67/126 94/65/126 99/72/126
f 96/62/127 95/67/127 100/73/127
f 92/59/128 101/69/128 97/70/128
f 93/60/129 97/70/129 98/74/129
f 94/65/130 98/71/130 99/72/130
f 95/67/131 99/72/131 100/73/131
f 96/62/132 100/73/132 101/69/132
f 97/70/133 101/69/133 102/75/133
f 98/74/134 97/70/134 102/76/134
f 99/72/135 98/71/135 102/77/135
f 100/73/136 99/72/136 102/78/136
f 101/69/137 100/73/137 102/79/137
f 103/58/138 104/59/138 105/60/138
f 104/59/139 103/61/139 108/62/139
f 103/63/140 105/64/140 106/65/140
f 103/66/141 106/65/141 107/67/141
f 103/68/142 107/67/142 108/62/142
f 104/59/143 108/62/143 113/69/143
f 105/60/144 104/59/144 109/70/144
f 106/65/145 105/64/145 110/71/145
f 107/67/146 106/65/146 111/72/146
f 108/62/147 107/67/147 112/73/147
f 104/59/148 113/69/148 109/70/148
f 105/60/149 109/70/149 110/74/149
f 106/65/150 110/71/150 111/72/150
f 107/67/151 111/72/151 112/73/151
f 108/62/152 112/73/152 113/69/152
f 109/70/153 113/69/153 114/75/153
f 110/74/154 109/70/154 114/76/154
f 111/72/155 110/71/155 114/77/155
f 112/73/156 111/72/156 114/78/156
f 113/69/157 112/73/157 114/79/157
f 115/58/158 116/59/158 117/60/158
f 116/59/159 115/61/159 120/62/159
f 115/63/160 117/64/160 118/65/160
f 115/66/161 118/65/161 119/67/161
f 115/68/162 119/67/162 120/62/162
f 116/59/163 120/62/163 125/69/163
f 117/60/164 116/59/164 121/70/164
f 118/65/165 117/64/165 122/71/165
f 119/67/166 118/65/166 123/72/166
f 120/62/167 119/67/167 124/73/167
f 116/59/168 125/69/168 121/70/168
f 117/60/169 121/70/169 122/74/169
f 118/65/170 122/71/170 123/72/170
f 119/67/171 123/72/171 124/73/171
f 120/62/172 124/73/172 125/69/172
f 121/70/173 125/69/173 126/75/173
f 122/74/174 121/70/174 126/76/174
f 123/72/175 122/71/175 126/77/175
f 124/73/176 123/72/176 126/78/176
f 125/69/177 124/73/177 126/79/177
usemtl center
f 127/58/178 128/59/178 129/60/178
f 128/59/179 127/61/179 132/62/179
f 127/63/180 129/64/180 130/65/180
f 127/66/181 130/65/181 131/67/181
f 127/68/182 131/67/182 132/62/182
f 128/59/183 132/62/183 137/69/183
f 129/60/184 128/59/184 133/70/184
f 130/65/185 129/64/185 134/71/185
f 131/67/186 130/65/186 135/72/186
f 132/62/187 131/67/187 136/73/187
f 128/59/188 137/69/188 133/70/188
f 129/60/189 133/70/189 134/74/189
f 130/65/190 134/71/190 135/72/190
f 131/67/191 135/72/191 136/73/191
f 132/62/192 136/73/192 137/69/192
f 133/70/193 137/69/193 138/75/193
f 134/74/194 133/70/194 138/76/194
f 135/72/195 134/71/195 138/77/195
f 136/73/196 135/72/196 138/78/196
f 137/69/197 136/73/197 138/79/197
f 139/58/178 140/59/178 141/60/178
f 140/59/179 139/61/179 144/62/179
f 139/63/180 141/64/180 142/65/180
f 139/66/181 142/65/181 143/67/181
f 139/68/182 143/67/182 144/62/182
f 140/59/183 144/62/183 149/69/183
f 141/60/184 140/59/184 145/70/184
f 142/65/185 141/64/185 146/71/185
f 143/67/186 142/65/186 147/72/186
f 144/62/187 143/67/187 148/73/187
f 140/59/188 149/69/188 145/70/188
f 141/60/189 145/70/189 146/74/189
f 142/65/190 146/71/190 147/72/190
f 143/67/191 147/72/191 148/73/191
f 144/62/192 148/73/192 149/69/192
f 145/70/193 149/69/193 150/75/193
f 146/74/194 145/70/194 150/76/194
f 147/72/195 146/71/195 150/77/195
f 148/73/196 147/72/196 150/78/196
f 149/69/197 148/73/197 150/79/197
f 151/58/178 152/59/178 153/60/178
f 152/59/179 151/61/179 156/62/179
f 151/63/180 153/64/180 154/65/180
f 151/66/181 154/65/181 155/67/181
f 151/68/182 155/67/182 156/62/182
f 152/59/183 156/62/183 161/69/183
f 153/60/184 152/59/184 157/70/184
f 154/65/185 153/64/185 158/71/185
f 155/67/186 154/65/186 159/72/186
f 156/62/187 155/67/187 160/73/187
f 152/59/188 161/69/188 157/70/188
f 153/60/189 157/70/189 158/74/189
f 154/65/190 158/71/190 159/72/190
f 155/67/191 159/72/191 160/73/191
f 156/62/192 160/73/192 161/69/192
f 157/70/193 161/69/193 162/75/193
f 158/74/194 157/70/194 162/76/194
f 159/72/195 158/71/195 162/77/195
f 160/73/196 159/72/196 162/78/196
f 161/69/197 160/73/197 162/79/197
