# Blender 4.0.2
# www.blender.org
mtllib stage_1.mtl
o garlic_stage1
v 0.010000 0.015000 0.085000
v 0.015000 0.022500 0.102500
v 0.017500 0.015000 0.085000
v 0.010000 0.020000 0.102500
v 0.010000 0.007500 0.035000
v 0.017500 0.010000 0.035000
v 0.012500 0.027500 0.112500
v 0.015000 0.007500 0.000000
v 0.022500 0.007500 0.085000
v 0.027500 -0.000000 0.102500
v 0.020000 0.002500 0.085000
v 0.027500 0.005000 0.102500
v 0.015000 0.005000 0.035000
v 0.030000 -0.000000 0.115000
v 0.010000 -0.000000 0.085000
v 0.002500 -0.000000 0.102500
v 0.005000 0.005000 0.085000
v 0.005000 -0.002500 0.102500
v 0.012500 0.010000 0.035000
v -0.000000 -0.005000 0.120000
v 0.010000 -0.015000 0.087500
v 0.007500 -0.025000 0.105000
v 0.002500 -0.020000 0.085000
v 0.010000 -0.022500 0.105000
v 0.005000 -0.010000 0.035000
v -0.000000 -0.015000 0.035000
v 0.012500 -0.027500 0.115000
v -0.000000 -0.012500 0.000000
v -0.005000 -0.015000 0.085000
v -0.012500 -0.010000 0.105000
v -0.007500 -0.007500 0.085000
v -0.012500 -0.015000 0.105000
v -0.000000 -0.012500 0.035000
v -0.000000 -0.010000 0.035000
v -0.015000 -0.010000 0.117500
v 0.002500 -0.002500 0.085000
v 0.010000 -0.000000 0.105000
v 0.007500 -0.005000 0.087500
v 0.005000 0.002500 0.105000
v 0.005000 -0.012500 0.035000
v 0.010000 0.007500 0.122500
v -0.015000 0.020000 0.095000
v -0.005000 0.022500 0.115000
v -0.007500 0.017500 0.095000
v -0.010000 0.025000 0.115000
v -0.017500 0.012500 0.037500
v -0.012500 0.010000 0.037500
v -0.005000 0.030000 0.125000
v -0.015000 0.010000 0.000000
v -0.007500 0.007500 0.095000
v -0.010000 -0.002500 0.115000
v -0.015000 0.002500 0.095000
v -0.005000 0.000000 0.117500
v -0.017500 0.007500 0.040000
v -0.007500 -0.005000 0.130000
v -0.025000 0.005000 0.095000
v -0.032500 0.012500 0.115000
v -0.025000 0.015000 0.095000
v -0.030000 0.007500 0.117500
v -0.037500 0.010000 0.135000
vn -0.0000 0.9191 -0.3939
vn -0.4333 0.8666 -0.2476
vn -0.3148 0.9444 -0.0944
vn -0.0000 0.9889 -0.1483
vn -0.3904 0.7807 -0.4880
vn -0.3159 0.9477 -0.0451
vn 0.8165 -0.4082 -0.4082
vn 0.9615 -0.0000 -0.2747
vn 0.8889 -0.4444 -0.1111
vn 0.9806 -0.0000 -0.1961
vn 0.8940 -0.4470 -0.0319
vn -0.6767 -0.6767 -0.2900
vn -0.8805 -0.4402 -0.1761
vn -0.7001 -0.7001 -0.1400
vn -0.8940 -0.4470 -0.0319
vn 0.5974 -0.7301 -0.3319
vn 0.6767 -0.6767 -0.2900
vn 0.7032 -0.7032 -0.1055
vn 0.5799 -0.8040 -0.1318
vn 0.6247 -0.6247 -0.4685
vn 0.7062 -0.7062 -0.0504
vn -0.9143 -0.3048 -0.2667
vn -0.9363 -0.0000 -0.3511
vn -0.9889 -0.0000 -0.1483
vn -0.9429 -0.3143 -0.1100
vn -0.9806 -0.0000 -0.1961
vn -1.0000 -0.0000 -0.0000
vn 0.5427 0.7839 -0.3015
vn 0.4307 0.8614 -0.2692
vn 0.4423 0.8847 -0.1474
vn 0.5020 0.8513 -0.1528
vn 0.4176 0.8352 -0.3579
vn 0.4463 0.8926 -0.0638
vn 0.3048 0.9143 -0.2667
vn 0.4240 0.8480 -0.3180
vn 0.4419 0.8838 -0.1537
vn 0.3133 0.9398 -0.1362
vn 0.3714 0.7428 -0.5571
vn 0.4470 0.8940 -0.0298
vn 0.5241 -0.7861 -0.3276
vn 0.5466 -0.7743 -0.3188
vn 0.4041 -0.9091 -0.1010
vn 0.5527 -0.8291 -0.0841
vn 0.5232 -0.8222 -0.2242
vn 0.4354 -0.8998 -0.0290
vn -0.8575 -0.4964 -0.1354
vn -0.9900 -0.0632 -0.1264
vn -0.9908 -0.0000 -0.1351
vn -0.8018 -0.5345 -0.2673
vn -0.9974 -0.0322 -0.0643
s 0
usemtl rsc_78b038
f 1//1 2//1 3//1
f 1//2 4//2 2//2
f 5//3 3//3 6//3
f 5//4 1//4 3//4
f 4//5 7//5 2//5
f 8//6 5//6 6//6
f 9//7 10//7 11//7
f 9//8 12//8 10//8
f 6//9 11//9 13//9
f 6//9 9//9 11//9
f 12//10 14//10 10//10
f 8//11 6//11 13//11
f 15//12 16//12 17//12
f 15//12 18//12 16//12
f 13//13 17//13 19//13
f 13//14 15//14 17//14
f 18//12 20//12 16//12
f 8//15 13//15 19//15
f 21//16 22//16 23//16
f 21//17 24//17 22//17
f 25//18 23//18 26//18
f 25//19 21//19 23//19
f 24//20 27//20 22//20
f 28//21 25//21 26//21
f 29//22 30//22 31//22
f 29//23 32//23 30//23
f 33//24 31//24 34//24
f 33//25 29//25 31//25
f 32//26 35//26 30//26
f 28//27 33//27 34//27
f 36//28 37//28 38//28
f 36//29 39//29 37//29
f 34//30 38//30 40//30
f 34//31 36//31 38//31
f 39//32 41//32 37//32
f 28//33 34//33 40//33
f 42//34 43//34 44//34
f 42//35 45//35 43//35
f 46//36 44//36 47//36
f 46//37 42//37 44//37
f 45//38 48//38 43//38
f 49//39 46//39 47//39
f 50//40 51//40 52//40
f 50//41 53//41 51//41
f 47//42 52//42 54//42
f 47//43 50//43 52//43
f 53//44 55//44 51//44
f 49//45 47//45 54//45
f 56//23 57//23 58//23
f 56//46 59//46 57//46
f 54//47 58//47 46//47
f 54//48 56//48 58//48
f 59//49 60//49 57//49
f 49//50 54//50 46//50
