# OGRS RSC model extracted from .ob3
# vertices: 66  faces: 54
mtllib stage_4.mtl

o garlicplant
v 0.04 0.06 0.34
v 0.06 0.09 0.41000000000000003
v 0.07 0.06 0.34
v 0.04 0.08 0.41000000000000003
v 0.04 0.03 0.14
v 0.07 0.04 0.14
v 0.05 0.11 0.45
v 0.06 0.03 0.0
v 0.09 0.03 0.34
v 0.11 0.0 0.41000000000000003
v 0.08 0.01 0.34
v 0.11 0.02 0.41000000000000003
v 0.06 0.02 0.14
v 0.12 0.0 0.46
v 0.04 0.0 0.34
v 0.01 0.0 0.41000000000000003
v 0.02 0.02 0.34
v 0.02 -0.01 0.41000000000000003
v 0.05 0.04 0.14
v 0.0 -0.02 0.48
v 0.04 -0.06 0.35000000000000003
v 0.03 -0.1 0.42
v 0.01 -0.08 0.34
v 0.04 -0.09 0.42
v 0.02 -0.04 0.14
v 0.0 -0.06 0.14
v 0.05 -0.11 0.46
v 0.0 -0.05 0.0
v -0.02 -0.06 0.34
v -0.05 -0.04 0.42
v -0.03 -0.03 0.34
v -0.05 -0.06 0.42
v 0.0 -0.05 0.14
v 0.0 -0.04 0.14
v -0.06 -0.04 0.47000000000000003
v 0.01 -0.01 0.34
v 0.04 0.0 0.42
v 0.03 -0.02 0.35000000000000003
v 0.02 0.01 0.42
v 0.02 -0.05 0.14
v 0.04 0.03 0.49
v -0.06 0.08 0.38
v -0.02 0.09 0.46
v -0.03 0.07 0.38
v -0.04 0.1 0.46
v -0.07 0.05 0.15
v -0.05 0.04 0.15
v -0.02 0.12 0.5
v -0.06 0.04 0.0
v -0.03 0.03 0.38
v -0.04 -0.01 0.46
v -0.06 0.01 0.38
v -0.02 0.0 0.47000000000000003
v -0.07 0.03 0.16
v -0.03 -0.02 0.52
v -0.1 0.02 0.38
v -0.13 0.05 0.46
v -0.1 0.06 0.38
v -0.12 0.03 0.47000000000000003
v -0.15 0.04 0.54
v 0.0 0.0 0.0
v 0.0 0.0 0.0
v 0.0 0.0 0.0
v 0.0 0.0 0.0
v 0.0 0.0 0.0
v 0.0 0.0 0.0

usemtl rsc_78b038
f 1 2 3
f 1 4 2
f 5 3 6
f 5 1 3
f 4 7 2
f 8 5 6
f 9 10 11
f 9 12 10
f 6 11 13
f 6 9 11
f 12 14 10
f 8 6 13
f 15 16 17
f 15 18 16
f 13 17 19
f 13 15 17
f 18 20 16
f 8 13 19
f 21 22 23
f 21 24 22
f 25 23 26
f 25 21 23
f 24 27 22
f 28 25 26
f 29 30 31
f 29 32 30
f 33 31 34
f 33 29 31
f 32 35 30
f 28 33 34
f 36 37 38
f 36 39 37
f 34 38 40
f 34 36 38
f 39 41 37
f 28 34 40
f 42 43 44
f 42 45 43
f 46 44 47
f 46 42 44
f 45 48 43
f 49 46 47
f 50 51 52
f 50 53 51
f 47 52 54
f 47 50 52
f 53 55 51
f 49 47 54
f 56 57 58
f 56 59 57
f 54 58 46
f 54 56 58
f 59 60 57
f 49 54 46
