# Blender 4.0.2
# www.blender.org
mtllib 4_mature.mtl
o lavender_4_mature
v 0.000000 -0.100000 0.000000
v 0.000000 -0.100000 0.020000
v -0.058779 -0.080902 0.000000
v -0.058779 -0.080902 0.020000
v -0.095106 -0.030902 0.000000
v -0.095106 -0.030902 0.020000
v -0.095106 0.030902 0.000000
v -0.095106 0.030902 0.020000
v -0.058779 0.080902 0.000000
v -0.058779 0.080902 0.020000
v 0.000000 0.100000 0.000000
v 0.000000 0.100000 0.020000
v 0.058779 0.080902 0.000000
v 0.058779 0.080902 0.020000
v 0.095106 0.030902 0.000000
v 0.095106 0.030902 0.020000
v 0.095106 -0.030902 0.000000
v 0.095106 -0.030902 0.020000
v 0.058779 -0.080902 0.000000
v 0.058779 -0.080902 0.020000
v 0.000000 -0.005000 0.020000
v 0.000000 -0.005000 0.520000
v -0.004755 -0.001545 0.020000
v -0.004755 -0.001545 0.520000
v -0.002939 0.004045 0.020000
v -0.002939 0.004045 0.520000
v 0.002939 0.004045 0.020000
v 0.002939 0.004045 0.520000
v 0.004755 -0.001545 0.020000
v 0.004755 -0.001545 0.520000
v -0.045000 -0.003596 0.033418
v -0.102888 0.001160 0.035544
v -0.022889 0.002871 0.034610
v 0.026554 -0.001608 0.037056
v -0.022889 -0.006087 0.039503
v -0.102888 -0.004376 0.038569
v -0.067111 0.006087 0.040497
v 0.012888 0.004376 0.041431
v 0.012888 -0.001160 0.044456
v -0.067111 -0.002871 0.045390
v -0.116554 0.001608 0.042944
v -0.045000 0.003596 0.046582
v 0.003596 -0.045000 0.033418
v -0.001160 -0.102888 0.035544
v -0.002871 -0.022889 0.034610
v 0.001608 0.026554 0.037056
v 0.006087 -0.022889 0.039503
v 0.004376 -0.102888 0.038569
v -0.006087 -0.067111 0.040497
v -0.004376 0.012888 0.041431
v 0.001160 0.012888 0.044456
v 0.002871 -0.067111 0.045390
v -0.001608 -0.116554 0.042944
v -0.003596 -0.045000 0.046582
v 0.045000 0.003596 0.033418
v 0.102888 -0.001160 0.035544
v 0.022889 -0.002871 0.034610
v -0.026554 0.001608 0.037056
v 0.022889 0.006087 0.039503
v 0.102888 0.004376 0.038569
v 0.067111 -0.006087 0.040497
v -0.012888 -0.004376 0.041431
v -0.012888 0.001160 0.044456
v 0.067111 0.002871 0.045390
v 0.116554 -0.001608 0.042944
v 0.045000 -0.003596 0.046582
v -0.003596 0.045000 0.033418
v 0.001160 0.102888 0.035544
v 0.002871 0.022889 0.034610
v -0.001608 -0.026554 0.037056
v -0.006087 0.022889 0.039503
v -0.004376 0.102888 0.038569
v 0.006087 0.067111 0.040497
v 0.004376 -0.012888 0.041431
v -0.001160 -0.012888 0.044456
v -0.002871 0.067111 0.045390
v 0.001608 0.116554 0.042944
v 0.003596 0.045000 0.046582
v -0.012000 0.000000 0.382000
v -0.020683 0.006309 0.391950
v -0.008683 0.010208 0.391950
v -0.001267 0.000000 0.391950
v -0.008683 -0.010208 0.391950
v -0.020683 -0.006309 0.391950
v -0.015317 0.010208 0.408050
v -0.003317 0.006309 0.408050
v -0.003317 -0.006309 0.408050
v -0.015317 -0.010208 0.408050
v -0.022733 0.000000 0.408050
v -0.012000 0.000000 0.418000
v 0.012000 -0.000000 0.382000
v 0.003317 0.006309 0.391950
v 0.015317 0.010208 0.391950
v 0.022733 -0.000000 0.391950
v 0.015317 -0.010208 0.391950
v 0.003317 -0.006309 0.391950
v 0.008683 0.010208 0.408050
v 0.020683 0.006309 0.408050
v 0.020683 -0.006309 0.408050
v 0.008683 -0.010208 0.408050
v 0.001267 -0.000000 0.408050
v 0.012000 -0.000000 0.418000
v -0.012000 0.000000 0.412000
v -0.020683 0.006309 0.421950
v -0.008683 0.010208 0.421950
v -0.001267 0.000000 0.421950
v -0.008683 -0.010208 0.421950
v -0.020683 -0.006309 0.421950
v -0.015317 0.010208 0.438050
v -0.003317 0.006309 0.438050
v -0.003317 -0.006309 0.438050
v -0.015317 -0.010208 0.438050
v -0.022733 0.000000 0.438050
v -0.012000 0.000000 0.448000
v 0.012000 -0.000000 0.412000
v 0.003317 0.006309 0.421950
v 0.015317 0.010208 0.421950
v 0.022733 -0.000000 0.421950
v 0.015317 -0.010208 0.421950
v 0.003317 -0.006309 0.421950
v 0.008683 0.010208 0.438050
v 0.020683 0.006309 0.438050
v 0.020683 -0.006309 0.438050
v 0.008683 -0.010208 0.438050
v 0.001267 -0.000000 0.438050
v 0.012000 -0.000000 0.448000
v -0.012000 0.000000 0.442000
v -0.020683 0.006309 0.451950
v -0.008683 0.010208 0.451950
v -0.001267 0.000000 0.451950
v -0.008683 -0.010208 0.451950
v -0.020683 -0.006309 0.451950
v -0.015317 0.010208 0.468050
v -0.003317 0.006309 0.468050
v -0.003317 -0.006309 0.468050
v -0.015317 -0.010208 0.468050
v -0.022733 0.000000 0.468050
v -0.012000 0.000000 0.478000
v 0.012000 -0.000000 0.442000
v 0.003317 0.006309 0.451950
v 0.015317 0.010208 0.451950
v 0.022733 -0.000000 0.451950
v 0.015317 -0.010208 0.451950
v 0.003317 -0.006309 0.451950
v 0.008683 0.010208 0.468050
v 0.020683 0.006309 0.468050
v 0.020683 -0.006309 0.468050
v 0.008683 -0.010208 0.468050
v 0.001267 -0.000000 0.468050
v 0.012000 -0.000000 0.478000
v -0.012000 0.000000 0.472000
v -0.020683 0.006309 0.481950
v -0.008683 0.010208 0.481950
v -0.001267 0.000000 0.481950
v -0.008683 -0.010208 0.481950
v -0.020683 -0.006309 0.481950
v -0.015317 0.010208 0.498050
v -0.003317 0.006309 0.498050
v -0.003317 -0.006309 0.498050
v -0.015317 -0.010208 0.498050
v -0.022733 0.000000 0.498050
v -0.012000 0.000000 0.508000
v 0.012000 -0.000000 0.472000
v 0.003317 0.006309 0.481950
v 0.015317 0.010208 0.481950
v 0.022733 -0.000000 0.481950
v 0.015317 -0.010208 0.481950
v 0.003317 -0.006309 0.481950
v 0.008683 0.010208 0.498050
v 0.020683 0.006309 0.498050
v 0.020683 -0.006309 0.498050
v 0.008683 -0.010208 0.498050
v 0.001267 -0.000000 0.498050
v 0.012000 -0.000000 0.508000
v -0.012000 0.000000 0.502000
v -0.020683 0.006309 0.511950
v -0.008683 0.010208 0.511950
v -0.001267 0.000000 0.511950
v -0.008683 -0.010208 0.511950
v -0.020683 -0.006309 0.511950
v -0.015317 0.010208 0.528050
v -0.003317 0.006309 0.528050
v -0.003317 -0.006309 0.528050
v -0.015317 -0.010208 0.528050
v -0.022733 0.000000 0.528050
v -0.012000 0.000000 0.538000
v 0.012000 -0.000000 0.502000
v 0.003317 0.006309 0.511950
v 0.015317 0.010208 0.511950
v 0.022733 -0.000000 0.511950
v 0.015317 -0.010208 0.511950
v 0.003317 -0.006309 0.511950
v 0.008683 0.010208 0.528050
v 0.020683 0.006309 0.528050
v 0.020683 -0.006309 0.528050
v 0.008683 -0.010208 0.528050
v 0.001267 -0.000000 0.528050
v 0.012000 -0.000000 0.538000
vn -0.3090 -0.9511 -0.0000
vn -0.8090 -0.5878 -0.0000
vn -1.0000 -0.0000 -0.0000
vn -0.8090 0.5878 -0.0000
vn -0.3090 0.9511 -0.0000
vn 0.3090 0.9511 -0.0000
vn 0.8090 0.5878 -0.0000
vn 1.0000 -0.0000 -0.0000
vn -0.0000 -0.0000 1.0000
vn 0.8090 -0.5878 -0.0000
vn 0.3090 -0.9511 -0.0000
vn -0.0000 -0.0000 -1.0000
vn -0.5878 -0.8090 -0.0000
vn -0.9511 0.3090 -0.0000
vn -0.0000 1.0000 -0.0000
vn 0.9511 0.3090 -0.0000
vn 0.5878 -0.8090 -0.0000
vn -0.0164 0.2351 -0.9718
vn -0.0714 -0.4782 -0.8753
vn 0.0505 0.0115 -0.9987
vn 0.0505 -0.8465 -0.5299
vn -0.0164 -0.9448 -0.3273
vn -0.4406 -0.4304 -0.7878
vn -0.0241 0.7902 -0.6124
vn 0.0994 0.7251 -0.6814
vn 0.0994 -0.9652 0.2420
vn -0.0241 -0.9422 0.3341
vn -0.0994 0.9652 -0.2420
vn 0.0241 0.9422 -0.3341
vn 0.4406 0.4304 0.7878
vn 0.0241 -0.7902 0.6124
vn -0.0994 -0.7251 0.6814
vn -0.0505 0.8465 0.5299
vn 0.0164 0.9448 0.3273
vn 0.0714 0.4782 0.8753
vn 0.0164 -0.2351 0.9718
vn -0.0505 -0.0115 0.9987
vn -0.2351 -0.0164 -0.9718
vn 0.4782 -0.0714 -0.8753
vn -0.0115 0.0505 -0.9987
vn 0.8465 0.0505 -0.5299
vn 0.9448 -0.0164 -0.3273
vn 0.4304 -0.4406 -0.7878
vn -0.7902 -0.0241 -0.6124
vn -0.7251 0.0994 -0.6814
vn 0.9652 0.0994 0.2420
vn 0.9422 -0.0241 0.3341
vn -0.9652 -0.0994 -0.2420
vn -0.9422 0.0241 -0.3341
vn -0.4304 0.4406 0.7878
vn 0.7902 0.0241 0.6124
vn 0.7251 -0.0994 0.6814
vn -0.8465 -0.0505 0.5299
vn -0.9448 0.0164 0.3273
vn -0.4782 0.0714 0.8753
vn 0.2351 0.0164 0.9718
vn 0.0115 -0.0505 0.9987
vn 0.0164 -0.2351 -0.9718
vn 0.0714 0.4782 -0.8753
vn -0.0505 -0.0115 -0.9987
vn -0.0505 0.8465 -0.5299
vn 0.0164 0.9448 -0.3273
vn 0.4406 0.4304 -0.7878
vn 0.0241 -0.7902 -0.6124
vn -0.0994 -0.7251 -0.6814
vn -0.0994 0.9652 0.2420
vn 0.0241 0.9422 0.3341
vn 0.0994 -0.9652 -0.2420
vn -0.0241 -0.9422 -0.3341
vn -0.4406 -0.4304 0.7878
vn -0.0241 0.7902 0.6124
vn 0.0994 0.7251 0.6814
vn 0.0505 -0.8465 0.5299
vn -0.0164 -0.9448 0.3273
vn -0.0714 -0.4782 0.8753
vn -0.0164 0.2351 0.9718
vn 0.0505 0.0115 0.9987
vn 0.2351 0.0164 -0.9718
vn -0.4782 0.0714 -0.8753
vn 0.0115 -0.0505 -0.9987
vn -0.8465 -0.0505 -0.5299
vn -0.9448 0.0164 -0.3273
vn -0.4304 0.4406 -0.7878
vn 0.7902 0.0241 -0.6124
vn 0.7251 -0.0994 -0.6814
vn -0.9652 -0.0994 0.2420
vn -0.9422 0.0241 0.3341
vn 0.9652 0.0994 -0.2420
vn 0.9422 -0.0241 -0.3341
vn 0.4304 -0.4406 0.7878
vn -0.7902 -0.0241 0.6124
vn -0.7251 0.0994 0.6814
vn 0.8465 0.0505 0.5299
vn 0.9448 -0.0164 0.3273
vn 0.4782 -0.0714 0.8753
vn -0.2351 -0.0164 0.9718
vn -0.0115 0.0505 0.9987
vn -0.2328 0.7166 -0.6575
vn -0.7534 -0.0000 -0.6575
vn 0.6095 0.4429 -0.6575
vn 0.6095 -0.4429 -0.6575
vn -0.2328 -0.7166 -0.6575
vn -0.9920 -0.0000 -0.1263
vn -0.3065 0.9434 -0.1263
vn 0.8025 0.5831 -0.1263
vn 0.8025 -0.5831 -0.1263
vn -0.3065 -0.9434 -0.1263
vn -0.8025 0.5831 0.1263
vn 0.3065 0.9434 0.1263
vn 0.9920 -0.0000 0.1263
vn 0.3065 -0.9434 0.1263
vn -0.8025 -0.5831 0.1263
vn -0.6095 0.4429 0.6575
vn 0.2328 0.7166 0.6575
vn 0.7534 -0.0000 0.6575
vn 0.2328 -0.7166 0.6575
vn -0.6095 -0.4429 0.6575
vt 1.000000 0.500000
vt 1.000000 1.000000
vt 0.900000 1.000000
vt 0.900000 0.500000
vt 0.800000 1.000000
vt 0.800000 0.500000
vt 0.700000 1.000000
vt 0.700000 0.500000
vt 0.600000 1.000000
vt 0.600000 0.500000
vt 0.500000 1.000000
vt 0.500000 0.500000
vt 0.400000 1.000000
vt 0.400000 0.500000
vt 0.300000 1.000000
vt 0.300000 0.500000
vt 0.200000 1.000000
vt 0.200000 0.500000
vt 0.391068 0.444164
vt 0.250000 0.490000
vt 0.108932 0.444164
vt 0.021746 0.324164
vt 0.021746 0.175836
vt 0.108932 0.055836
vt 0.250000 0.010000
vt 0.391068 0.055836
vt 0.478254 0.175836
vt 0.478254 0.324164
vt 0.100000 1.000000
vt 0.100000 0.500000
vt -0.000000 1.000000
vt -0.000000 0.500000
vt 0.750000 0.490000
vt 0.891068 0.444164
vt 0.978254 0.324164
vt 0.978254 0.175836
vt 0.891068 0.055836
vt 0.750000 0.010000
vt 0.608932 0.055836
vt 0.521746 0.175836
vt 0.521746 0.324164
vt 0.608932 0.444164
vt 0.800000 1.000000
vt 0.800000 0.500000
vt 0.600000 1.000000
vt 0.600000 0.500000
vt 0.400000 1.000000
vt 0.400000 0.500000
vt 0.478254 0.324164
vt 0.021746 0.324164
vt 0.108932 0.055836
vt 0.200000 1.000000
vt 0.200000 0.500000
vt 0.000000 1.000000
vt 0.000000 0.500000
vt 0.978254 0.324164
vt 0.521746 0.324164
vt 0.181819 0.000000
vt 0.272728 0.157461
vt 0.090910 0.157461
vt 0.363637 0.000000
vt 0.454546 0.157461
vt 0.909091 0.000000
vt 1.000000 0.157461
vt 0.818182 0.157461
vt 0.727273 0.000000
vt 0.636364 0.157461
vt 0.545455 0.000000
vt 0.363637 0.314921
vt 0.181819 0.314921
vt 0.909091 0.314921
vt 0.727273 0.314921
vt 0.545455 0.314921
vt 0.000000 0.314921
vt 0.272728 0.472382
vt 0.090910 0.472382
vt 0.818182 0.472382
vt 0.636364 0.472382
vt 0.454546 0.472382
s 0
usemtl soil
f 1/1/1 2/2/1 4/3/1 3/4/1
f 3/4/2 4/3/2 6/5/2 5/6/2
f 5/6/3 6/5/3 8/7/3 7/8/3
f 7/8/4 8/7/4 10/9/4 9/10/4
f 9/10/5 10/9/5 12/11/5 11/12/5
f 11/12/6 12/11/6 14/13/6 13/14/6
f 13/14/7 14/13/7 16/15/7 15/16/7
f 15/16/8 16/15/8 18/17/8 17/18/8
f 4/19/9 2/20/9 20/21/9 18/22/9 16/23/9 14/24/9 12/25/9 10/26/9 8/27/9 6/28/9
f 17/18/10 18/17/10 20/29/10 19/30/10
f 19/30/11 20/29/11 2/31/11 1/32/11
f 1/33/12 3/34/12 5/35/12 7/36/12 9/37/12 11/38/12 13/39/12 15/40/12 17/41/12 19/42/12
usemtl stem
f 21/1/13 22/2/13 24/43/13 23/44/13
f 23/44/14 24/43/14 26/45/14 25/46/14
f 25/46/15 26/45/15 28/47/15 27/48/15
f 24/49/9 22/20/9 30/50/9 28/51/9 26/26/9
f 27/48/16 28/47/16 30/52/16 29/53/16
f 29/53/17 30/52/17 22/54/17 21/55/17
f 21/33/12 23/56/12 25/37/12 27/39/12 29/57/12
usemtl leaf
f 31/58/18 32/59/18 33/60/18
f 32/59/19 31/61/19 36/62/19
f 31/63/20 33/64/20 34/65/20
f 31/66/21 34/65/21 35/67/21
f 31/68/22 35/67/22 36/62/22
f 32/59/23 36/62/23 41/69/23
f 33/60/24 32/59/24 37/70/24
f 34/65/25 33/64/25 38/71/25
f 35/67/26 34/65/26 39/72/26
f 36/62/27 35/67/27 40/73/27
f 32/59/28 41/69/28 37/70/28
f 33/60/29 37/70/29 38/74/29
f 34/65/30 38/71/30 39/72/30
f 35/67/31 39/72/31 40/73/31
f 36/62/32 40/73/32 41/69/32
f 37/70/33 41/69/33 42/75/33
f 38/74/34 37/70/34 42/76/34
f 39/72/35 38/71/35 42/77/35
f 40/73/36 39/72/36 42/78/36
f 41/69/37 40/73/37 42/79/37
f 43/58/38 44/59/38 45/60/38
f 44/59/39 43/61/39 48/62/39
f 43/63/40 45/64/40 46/65/40
f 43/66/41 46/65/41 47/67/41
f 43/68/42 47/67/42 48/62/42
f 44/59/43 48/62/43 53/69/43
f 45/60/44 44/59/44 49/70/44
f 46/65/45 45/64/45 50/71/45
f 47/67/46 46/65/46 51/72/46
f 48/62/47 47/67/47 52/73/47
f 44/59/48 53/69/48 49/70/48
f 45/60/49 49/70/49 50/74/49
f 46/65/50 50/71/50 51/72/50
f 47/67/51 51/72/51 52/73/51
f 48/62/52 52/73/52 53/69/52
f 49/70/53 53/69/53 54/75/53
f 50/74/54 49/70/54 54/76/54
f 51/72/55 50/71/55 54/77/55
f 52/73/56 51/72/56 54/78/56
f 53/69/57 52/73/57 54/79/57
f 55/58/58 56/59/58 57/60/58
f 56/59/59 55/61/59 60/62/59
f 55/63/60 57/64/60 58/65/60
f 55/66/61 58/65/61 59/67/61
f 55/68/62 59/67/62 60/62/62
f 56/59/63 60/62/63 65/69/63
f 57/60/64 56/59/64 61/70/64
f 58/65/65 57/64/65 62/71/65
f 59/67/66 58/65/66 63/72/66
f 60/62/67 59/67/67 64/73/67
f 56/59/68 65/69/68 61/70/68
f 57/60/69 61/70/69 62/74/69
f 58/65/70 62/71/70 63/72/70
f 59/67/71 63/72/71 64/73/71
f 60/62/72 64/73/72 65/69/72
f 61/70/73 65/69/73 66/75/73
f 62/74/74 61/70/74 66/76/74
f 63/72/75 62/71/75 66/77/75
f 64/73/76 63/72/76 66/78/76
f 65/69/77 64/73/77 66/79/77
f 67/58/78 68/59/78 69/60/78
f 68/59/79 67/61/79 72/62/79
f 67/63/80 69/64/80 70/65/80
f 67/66/81 70/65/81 71/67/81
f 67/68/82 71/67/82 72/62/82
f 68/59/83 72/62/83 77/69/83
f 69/60/84 68/59/84 73/70/84
f 70/65/85 69/64/85 74/71/85
f 71/67/86 70/65/86 75/72/86
f 72/62/87 71/67/87 76/73/87
f 68/59/88 77/69/88 73/70/88
f 69/60/89 73/70/89 74/74/89
f 70/65/90 74/71/90 75/72/90
f 71/67/91 75/72/91 76/73/91
f 72/62/92 76/73/92 77/69/92
f 73/70/93 77/69/93 78/75/93
f 74/74/94 73/70/94 78/76/94
f 75/72/95 74/71/95 78/77/95
f 76/73/96 75/72/96 78/78/96
f 77/69/97 76/73/97 78/79/97
usemtl petal
f 79/58/98 80/59/98 81/60/98
f 80/59/99 79/61/99 84/62/99
f 79/63/100 81/64/100 82/65/100
f 79/66/101 82/65/101 83/67/101
f 79/68/102 83/67/102 84/62/102
f 80/59/103 84/62/103 89/69/103
f 81/60/104 80/59/104 85/70/104
f 82/65/105 81/64/105 86/71/105
f 83/67/106 82/65/106 87/72/106
f 84/62/107 83/67/107 88/73/107
f 80/59/108 89/69/108 85/70/108
f 81/60/109 85/70/109 86/74/109
f 82/65/110 86/71/110 87/72/110
f 83/67/111 87/72/111 88/73/111
f 84/62/112 88/73/112 89/69/112
f 85/70/113 89/69/113 90/75/113
f 86/74/114 85/70/114 90/76/114
f 87/72/115 86/71/115 90/77/115
f 88/73/116 87/72/116 90/78/116
f 89/69/117 88/73/117 90/79/117
f 91/58/98 92/59/98 93/60/98
f 92/59/99 91/61/99 96/62/99
f 91/63/100 93/64/100 94/65/100
f 91/66/101 94/65/101 95/67/101
f 91/68/102 95/67/102 96/62/102
f 92/59/103 96/62/103 101/69/103
f 93/60/104 92/59/104 97/70/104
f 94/65/105 93/64/105 98/71/105
f 95/67/106 94/65/106 99/72/106
f 96/62/107 95/67/107 100/73/107
f 92/59/108 101/69/108 97/70/108
f 93/60/109 97/70/109 98/74/109
f 94/65/110 98/71/110 99/72/110
f 95/67/111 99/72/111 100/73/111
f 96/62/112 100/73/112 101/69/112
f 97/70/113 101/69/113 102/75/113
f 98/74/114 97/70/114 102/76/114
f 99/72/115 98/71/115 102/77/115
f 100/73/116 99/72/116 102/78/116
f 101/69/117 100/73/117 102/79/117
f 103/58/98 104/59/98 105/60/98
f 104/59/99 103/61/99 108/62/99
f 103/63/100 105/64/100 106/65/100
f 103/66/101 106/65/101 107/67/101
f 103/68/102 107/67/102 108/62/102
f 104/59/103 108/62/103 113/69/103
f 105/60/104 104/59/104 109/70/104
f 106/65/105 105/64/105 110/71/105
f 107/67/106 106/65/106 111/72/106
f 108/62/107 107/67/107 112/73/107
f 104/59/108 113/69/108 109/70/108
f 105/60/109 109/70/109 110/74/109
f 106/65/110 110/71/110 111/72/110
f 107/67/111 111/72/111 112/73/111
f 108/62/112 112/73/112 113/69/112
f 109/70/113 113/69/113 114/75/113
f 110/74/114 109/70/114 114/76/114
f 111/72/115 110/71/115 114/77/115
f 112/73/116 111/72/116 114/78/116
f 113/69/117 112/73/117 114/79/117
f 115/58/98 116/59/98 117/60/98
f 116/59/99 115/61/99 120/62/99
f 115/63/100 117/64/100 118/65/100
f 115/66/101 118/65/101 119/67/101
f 115/68/102 119/67/102 120/62/102
f 116/59/103 120/62/103 125/69/103
f 117/60/104 116/59/104 121/70/104
f 118/65/105 117/64/105 122/71/105
f 119/67/106 118/65/106 123/72/106
f 120/62/107 119/67/107 124/73/107
f 116/59/108 125/69/108 121/70/108
f 117/60/109 121/70/109 122/74/109
f 118/65/110 122/71/110 123/72/110
f 119/67/111 123/72/111 124/73/111
f 120/62/112 124/73/112 125/69/112
f 121/70/113 125/69/113 126/75/113
f 122/74/114 121/70/114 126/76/114
f 123/72/115 122/71/115 126/77/115
f 124/73/116 123/72/116 126/78/116
f 125/69/117 124/73/117 126/79/117
f 127/58/98 128/59/98 129/60/98
f 128/59/99 127/61/99 132/62/99
f 127/63/100 129/64/100 130/65/100
f 127/66/101 130/65/101 131/67/101
f 127/68/102 131/67/102 132/62/102
f 128/59/103 132/62/103 137/69/103
f 129/60/104 128/59/104 133/70/104
f 130/65/105 129/64/105 134/71/105
f 131/67/106 130/65/106 135/72/106
f 132/62/107 131/67/107 136/73/107
f 128/59/108 137/69/108 133/70/108
f 129/60/109 133/70/109 134/74/109
f 130/65/110 134/71/110 135/72/110
f 131/67/111 135/72/111 136/73/111
f 132/62/112 136/73/112 137/69/112
f 133/70/113 137/69/113 138/75/113
f 134/74/114 133/70/114 138/76/114
f 135/72/115 134/71/115 138/77/115
f 136/73/116 135/72/116 138/78/116
f 137/69/117 136/73/117 138/79/117
f 139/58/98 140/59/98 141/60/98
f 140/59/99 139/61/99 144/62/99
f 139/63/100 141/64/100 142/65/100
f 139/66/101 142/65/101 143/67/101
f 139/68/102 143/67/102 144/62/102
f 140/59/103 144/62/103 149/69/103
f 141/60/104 140/59/104 145/70/104
f 142/65/105 141/64/105 146/71/105
f 143/67/106 142/65/106 147/72/106
f 144/62/107 143/67/107 148/73/107
f 140/59/108 149/69/108 145/70/108
f 141/60/109 145/70/109 146/74/109
f 142/65/110 146/71/110 147/72/110
f 143/67/111 147/72/111 148/73/111
f 144/62/112 148/73/112 149/69/112
f 145/70/113 149/69/113 150/75/113
f 146/74/114 145/70/114 150/76/114
f 147/72/115 146/71/115 150/77/115
f 148/73/116 147/72/116 150/78/116
f 149/69/117 148/73/117 150/79/117
f 151/58/98 152/59/98 153/60/98
f 152/59/99 151/61/99 156/62/99
f 151/63/100 153/64/100 154/65/100
f 151/66/101 154/65/101 155/67/101
f 151/68/102 155/67/102 156/62/102
f 152/59/103 156/62/103 161/69/103
f 153/60/104 152/59/104 157/70/104
f 154/65/105 153/64/105 158/71/105
f 155/67/106 154/65/106 159/72/106
f 156/62/107 155/67/107 160/73/107
f 152/59/108 161/69/108 157/70/108
f 153/60/109 157/70/109 158/74/109
f 154/65/110 158/71/110 159/72/110
f 155/67/111 159/72/111 160/73/111
f 156/62/112 160/73/112 161/69/112
f 157/70/113 161/69/113 162/75/113
f 158/74/114 157/70/114 162/76/114
f 159/72/115 158/71/115 162/77/115
f 160/73/116 159/72/116 162/78/116
f 161/69/117 160/73/117 162/79/117
f 163/58/98 164/59/98 165/60/98
f 164/59/99 163/61/99 168/62/99
f 163/63/100 165/64/100 166/65/100
f 163/66/101 166/65/101 167/67/101
f 163/68/102 167/67/102 168/62/102
f 164/59/103 168/62/103 173/69/103
f 165/60/104 164/59/104 169/70/104
f 166/65/105 165/64/105 170/71/105
f 167/67/106 166/65/106 171/72/106
f 168/62/107 167/67/107 172/73/107
f 164/59/108 173/69/108 169/70/108
f 165/60/109 169/70/109 170/74/109
f 166/65/110 170/71/110 171/72/110
f 167/67/111 171/72/111 172/73/111
f 168/62/112 172/73/112 173/69/112
f 169/70/113 173/69/113 174/75/113
f 170/74/114 169/70/114 174/76/114
f 171/72/115 170/71/115 174/77/115
f 172/73/116 171/72/116 174/78/116
f 173/69/117 172/73/117 174/79/117
f 175/58/98 176/59/98 177/60/98
f 176/59/99 175/61/99 180/62/99
f 175/63/100 177/64/100 178/65/100
f 175/66/101 178/65/101 179/67/101
f 175/68/102 179/67/102 180/62/102
f 176/59/103 180/62/103 185/69/103
f 177/60/104 176/59/104 181/70/104
f 178/65/105 177/64/105 182/71/105
f 179/67/106 178/65/106 183/72/106
f 180/62/107 179/67/107 184/73/107
f 176/59/108 185/69/108 181/70/108
f 177/60/109 181/70/109 182/74/109
f 178/65/110 182/71/110 183/72/110
f 179/67/111 183/72/111 184/73/111
f 180/62/112 184/73/112 185/69/112
f 181/70/113 185/69/113 186/75/113
f 182/74/114 181/70/114 186/76/114
f 183/72/115 182/71/115 186/77/115
f 184/73/116 183/72/116 186/78/116
f 185/69/117 184/73/117 186/79/117
f 187/58/98 188/59/98 189/60/98
f 188/59/99 187/61/99 192/62/99
f 187/63/100 189/64/100 190/65/100
f 187/66/101 190/65/101 191/67/101
f 187/68/102 191/67/102 192/62/102
f 188/59/103 192/62/103 197/69/103
f 189/60/104 188/59/104 193/70/104
f 190/65/105 189/64/105 194/71/105
f 191/67/106 190/65/106 195/72/106
f 192/62/107 191/67/107 196/73/107
f 188/59/108 197/69/108 193/70/108
f 189/60/109 193/70/109 194/74/109
f 190/65/110 194/71/110 195/72/110
f 191/67/111 195/72/111 196/73/111
f 192/62/112 196/73/112 197/69/112
f 193/70/113 197/69/113 198/75/113
f 194/74/114 193/70/114 198/76/114
f 195/72/115 194/71/115 198/77/115
f 196/73/116 195/72/116 198/78/116
f 197/69/117 196/73/117 198/79/117
