# Blender 4.0.2
# www.blender.org
mtllib 3_budding.mtl
o tulip_3_budding
v 0.000000 -0.100000 0.000000
v 0.000000 -0.100000 0.020000
v -0.058779 -0.080902 0.000000
v -0.058779 -0.080902 0.020000
v -0.095106 -0.030902 0.000000
v -0.095106 -0.030902 0.020000
v -0.095106 0.030902 0.000000
v -0.095106 0.030902 0.020000
v -0.058779 0.080902 0.000000
v -0.058779 0.080902 0.020000
v 0.000000 0.100000 0.000000
v 0.000000 0.100000 0.020000
v 0.058779 0.080902 0.000000
v 0.058779 0.080902 0.020000
v 0.095106 0.030902 0.000000
v 0.095106 0.030902 0.020000
v 0.095106 -0.030902 0.000000
v 0.095106 -0.030902 0.020000
v 0.058779 -0.080902 0.000000
v 0.058779 -0.080902 0.020000
v 0.000000 -0.008000 0.020000
v 0.000000 -0.008000 0.290000
v -0.007608 -0.002472 0.020000
v -0.007608 -0.002472 0.290000
v -0.004702 0.006472 0.020000
v -0.004702 0.006472 0.290000
v 0.004702 0.006472 0.020000
v 0.004702 0.006472 0.290000
v 0.007608 -0.002472 0.020000
v 0.007608 -0.002472 0.290000
v -0.081000 -0.007623 0.028858
v -0.185198 0.006354 0.028338
v -0.041201 0.012387 0.024210
v 0.047797 -0.003409 0.035017
v -0.041201 -0.019205 0.045824
v -0.185198 -0.013172 0.041696
v -0.120799 0.019205 0.034176
v 0.023198 0.013172 0.038304
v 0.023198 -0.006354 0.051662
v -0.120799 -0.012387 0.055790
v -0.209797 0.003409 0.044983
v -0.081000 0.007623 0.051142
v 0.047101 -0.066337 0.028858
v 0.087097 -0.163563 0.028338
v 0.009872 -0.041874 0.024210
v -0.020946 0.043098 0.035017
v 0.037233 -0.026078 0.045824
v 0.104006 -0.153801 0.041696
v 0.043767 -0.114218 0.034176
v -0.023006 0.013505 0.038304
v -0.006097 0.023267 0.051662
v 0.071128 -0.098422 0.055790
v 0.101946 -0.183394 0.044983
v 0.033899 -0.073959 0.051142
v 0.033899 0.073959 0.028858
v 0.098102 0.157210 0.028338
v 0.031328 0.029487 0.024210
v -0.026851 -0.039689 0.035017
v 0.003968 0.045283 0.045824
v 0.081192 0.166972 0.041696
v 0.077032 0.095013 0.034176
v -0.000192 -0.026676 0.038304
v -0.017102 -0.016914 0.051662
v 0.049672 0.110809 0.055790
v 0.107851 0.179985 0.044983
v 0.047101 0.066337 0.051142
v 0.000000 0.000000 0.274000
v -0.007598 0.005520 0.285608
v 0.002902 0.008932 0.285608
v 0.009391 0.000000 0.285608
v 0.002902 -0.008932 0.285608
v -0.007598 -0.005520 0.285608
v -0.002902 0.008932 0.304392
v 0.007598 0.005520 0.304392
v 0.007598 -0.005520 0.304392
v -0.002902 -0.008932 0.304392
v -0.009391 0.000000 0.304392
v 0.000000 0.000000 0.316000
vn -0.3090 -0.9511 -0.0000
vn -0.8090 -0.5878 -0.0000
vn -1.0000 -0.0000 -0.0000
vn -0.8090 0.5878 -0.0000
vn -0.3090 0.9511 -0.0000
vn 0.3090 0.9511 -0.0000
vn 0.8090 0.5878 -0.0000
vn 1.0000 -0.0000 -0.0000
vn -0.0000 -0.0000 1.0000
vn 0.8090 -0.5878 -0.0000
vn 0.3090 -0.9511 -0.0000
vn -0.0000 -0.0000 -1.0000
vn -0.5878 -0.8090 -0.0000
vn -0.9511 0.3090 -0.0000
vn -0.0000 1.0000 -0.0000
vn 0.9511 0.3090 -0.0000
vn 0.5878 -0.8090 -0.0000
vn -0.0203 -0.1877 -0.9820
vn -0.0714 -0.5632 -0.8232
vn 0.0559 -0.3300 -0.9423
vn 0.0559 -0.7587 -0.6490
vn -0.0203 -0.8472 -0.5308
vn -0.4406 -0.5069 -0.7409
vn -0.0481 0.6028 -0.7965
vn 0.1858 0.4489 -0.8740
vn 0.1858 -0.9773 0.1017
vn -0.0481 -0.9608 0.2732
vn -0.1858 0.9773 -0.1017
vn 0.0481 0.9608 -0.2732
vn 0.4406 0.5069 0.7409
vn 0.0481 -0.6028 0.7965
vn -0.1858 -0.4489 0.8740
vn -0.0559 0.7587 0.6490
vn 0.0203 0.8472 0.5308
vn 0.0714 0.5632 0.8232
vn 0.0203 0.1877 0.9820
vn -0.0559 0.3300 0.9423
vn 0.1727 0.0763 -0.9820
vn 0.5235 0.2197 -0.8232
vn 0.2578 0.2134 -0.9423
vn 0.6291 0.4277 -0.6490
vn 0.7439 0.4061 -0.5308
vn 0.6593 -0.1282 -0.7409
vn -0.4980 -0.3430 -0.7965
vn -0.4817 -0.0635 -0.8740
vn 0.7535 0.6496 0.1017
vn 0.8561 0.4387 0.2732
vn -0.7535 -0.6496 -0.1017
vn -0.8561 -0.4387 -0.2732
vn -0.6593 0.1282 0.7409
vn 0.4980 0.3430 0.7965
vn 0.4817 0.0635 0.8740
vn -0.6291 -0.4277 0.6490
vn -0.7439 -0.4061 0.5308
vn -0.5235 -0.2197 0.8232
vn -0.1727 -0.0763 0.9820
vn -0.2578 -0.2134 0.9423
vn -0.1525 0.1114 -0.9820
vn -0.4520 0.3435 -0.8232
vn -0.3137 0.1166 -0.9423
vn -0.6850 0.3310 -0.6490
vn -0.7236 0.4412 -0.5308
vn -0.2186 0.6350 -0.7409
vn 0.5461 -0.2597 -0.7965
vn 0.2959 -0.3854 -0.8740
vn -0.9393 0.3277 0.1017
vn -0.8080 0.5220 0.2732
vn 0.9393 -0.3277 -0.1017
vn 0.8080 -0.5220 -0.2732
vn 0.2186 -0.6350 0.7409
vn -0.5461 0.2597 0.7965
vn -0.2959 0.3854 0.8740
vn 0.6850 -0.3310 0.6490
vn 0.7236 -0.4412 0.5308
vn 0.4520 -0.3435 0.8232
vn 0.1525 -0.1114 0.9820
vn 0.3137 -0.1166 0.9423
vn -0.2586 0.7958 -0.5476
vn -0.8367 -0.0000 -0.5476
vn 0.6769 0.4918 -0.5476
vn 0.6769 -0.4918 -0.5476
vn -0.2586 -0.7958 -0.5476
vn -0.9955 -0.0000 -0.0951
vn -0.3076 0.9467 -0.0951
vn 0.8053 0.5851 -0.0951
vn 0.8053 -0.5851 -0.0951
vn -0.3076 -0.9467 -0.0951
vn -0.8053 0.5851 0.0951
vn 0.3076 0.9467 0.0951
vn 0.9955 -0.0000 0.0951
vn 0.3076 -0.9467 0.0951
vn -0.8053 -0.5851 0.0951
vn -0.6769 0.4918 0.5476
vn 0.2586 0.7958 0.5476
vn 0.8367 -0.0000 0.5476
vn 0.2586 -0.7958 0.5476
vn -0.6769 -0.4918 0.5476
vt 1.000000 0.500000
vt 1.000000 1.000000
vt 0.900000 1.000000
vt 0.900000 0.500000
vt 0.800000 1.000000
vt 0.800000 0.500000
vt 0.700000 1.000000
vt 0.700000 0.500000
vt 0.600000 1.000000
vt 0.600000 0.500000
vt 0.500000 1.000000
vt 0.500000 0.500000
vt 0.400000 1.000000
vt 0.400000 0.500000
vt 0.300000 1.000000
vt 0.300000 0.500000
vt 0.200000 1.000000
vt 0.200000 0.500000
vt 0.391068 0.444164
vt 0.250000 0.490000
vt 0.108932 0.444164
vt 0.021746 0.324164
vt 0.021746 0.175836
vt 0.108932 0.055836
vt 0.250000 0.010000
vt 0.391068 0.055836
vt 0.478254 0.175836
vt 0.478254 0.324164
vt 0.100000 1.000000
vt 0.100000 0.500000
vt -0.000000 1.000000
vt -0.000000 0.500000
vt 0.750000 0.490000
vt 0.891068 0.444164
vt 0.978254 0.324164
vt 0.978254 0.175836
vt 0.891068 0.055836
vt 0.750000 0.010000
vt 0.608932 0.055836
vt 0.521746 0.175836
vt 0.521746 0.324164
vt 0.608932 0.444164
vt 0.800000 1.000000
vt 0.800000 0.500000
vt 0.600000 1.000000
vt 0.600000 0.500000
vt 0.400000 1.000000
vt 0.400000 0.500000
vt 0.478254 0.324164
vt 0.021746 0.324164
vt 0.108932 0.055836
vt 0.200000 1.000000
vt 0.200000 0.500000
vt 0.000000 1.000000
vt 0.000000 0.500000
vt 0.978254 0.324164
vt 0.521746 0.324164
vt 0.181819 0.000000
vt 0.272728 0.157461
vt 0.090910 0.157461
vt 0.363637 0.000000
vt 0.454546 0.157461
vt 0.909091 0.000000
vt 1.000000 0.157461
vt 0.818182 0.157461
vt 0.727273 0.000000
vt 0.636364 0.157461
vt 0.545455 0.000000
vt 0.363637 0.314921
vt 0.181819 0.314921
vt 0.909091 0.314921
vt 0.727273 0.314921
vt 0.545455 0.314921
vt 0.000000 0.314921
vt 0.272728 0.472382
vt 0.090910 0.472382
vt 0.818182 0.472382
vt 0.636364 0.472382
vt 0.454546 0.472382
s 0
usemtl soil
f 1/1/1 2/2/1 4/3/1 3/4/1
f 3/4/2 4/3/2 6/5/2 5/6/2
f 5/6/3 6/5/3 8/7/3 7/8/3
f 7/8/4 8/7/4 10/9/4 9/10/4
f 9/10/5 10/9/5 12/11/5 11/12/5
f 11/12/6 12/11/6 14/13/6 13/14/6
f 13/14/7 14/13/7 16/15/7 15/16/7
f 15/16/8 16/15/8 18/17/8 17/18/8
f 4/19/9 2/20/9 20/21/9 18/22/9 16/23/9 14/24/9 12/25/9 10/26/9 8/27/9 6/28/9
f 17/18/10 18/17/10 20/29/10 19/30/10
f 19/30/11 20/29/11 2/31/11 1/32/11
f 1/33/12 3/34/12 5/35/12 7/36/12 9/37/12 11/38/12 13/39/12 15/40/12 17/41/12 19/42/12
usemtl stem
f 21/1/13 22/2/13 24/43/13 23/44/13
f 23/44/14 24/43/14 26/45/14 25/46/14
f 25/46/15 26/45/15 28/47/15 27/48/15
f 24/49/9 22/20/9 30/50/9 28/51/9 26/26/9
f 27/48/16 28/47/16 30/52/16 29/53/16
f 29/53/17 30/52/17 22/54/17 21/55/17
f 21/33/12 23/56/12 25/37/12 27/39/12 29/57/12
usemtl leaf
f 31/58/18 32/59/18 33/60/18
f 32/59/19 31/61/19 36/62/19
f 31/63/20 33/64/20 34/65/20
f 31/66/21 34/65/21 35/67/21
f 31/68/22 35/67/22 36/62/22
f 32/59/23 36/62/23 41/69/23
f 33/60/24 32/59/24 37/70/24
f 34/65/25 33/64/25 38/71/25
f 35/67/26 34/65/26 39/72/26
f 36/62/27 35/67/27 40/73/27
f 32/59/28 41/69/28 37/70/28
f 33/60/29 37/70/29 38/74/29
f 34/65/30 38/71/30 39/72/30
f 35/67/31 39/72/31 40/73/31
f 36/62/32 40/73/32 41/69/32
f 37/70/33 41/69/33 42/75/33
f 38/74/34 37/70/34 42/76/34
f 39/72/35 38/71/35 42/77/35
f 40/73/36 39/72/36 42/78/36
f 41/69/37 40/73/37 42/79/37
f 43/58/38 44/59/38 45/60/38
f 44/59/39 43/61/39 48/62/39
f 43/63/40 45/64/40 46/65/40
f 43/66/41 46/65/41 47/67/41
f 43/68/42 47/67/42 48/62/42
f 44/59/43 48/62/43 53/69/43
f 45/60/44 44/59/44 49/70/44
f 46/65/45 45/64/45 50/71/45
f 47/67/46 46/65/46 51/72/46
f 48/62/47 47/67/47 52/73/47
f 44/59/48 53/69/48 49/70/48
f 45/60/49 49/70/49 50/74/49
f 46/65/50 50/71/50 51/72/50
f 47/67/51 51/72/51 52/73/51
f 48/62/52 52/73/52 53/69/52
f 49/70/53 53/69/53 54/75/53
f 50/74/54 49/70/54 54/76/54
f 51/72/55 50/71/55 54/77/55
f 52/73/56 51/72/56 54/78/56
f 53/69/57 52/73/57 54/79/57
f 55/58/58 56/59/58 57/60/58
f 56/59/59 55/61/59 60/62/59
f 55/63/60 57/64/60 58/65/60
f 55/66/61 58/65/61 59/67/61
f 55/68/62 59/67/62 60/62/62
f 56/59/63 60/62/63 65/69/63
f 57/60/64 56/59/64 61/70/64
f 58/65/65 57/64/65 62/71/65
f 59/67/66 58/65/66 63/72/66
f 60/62/67 59/67/67 64/73/67
f 56/59/68 65/69/68 61/70/68
f 57/60/69 61/70/69 62/74/69
f 58/65/70 62/71/70 63/72/70
f 59/67/71 63/72/71 64/73/71
f 60/62/72 64/73/72 65/69/72
f 61/70/73 65/69/73 66/75/73
f 62/74/74 61/70/74 66/76/74
f 63/72/75 62/71/75 66/77/75
f 64/73/76 63/72/76 66/78/76
f 65/69/77 64/73/77 66/79/77
usemtl petal
f 67/58/78 68/59/78 69/60/78
f 68/59/79 67/61/79 72/62/79
f 67/63/80 69/64/80 70/65/80
f 67/66/81 70/65/81 71/67/81
f 67/68/82 71/67/82 72/62/82
f 68/59/83 72/62/83 77/69/83
f 69/60/84 68/59/84 73/70/84
f 70/65/85 69/64/85 74/71/85
f 71/67/86 70/65/86 75/72/86
f 72/62/87 71/67/87 76/73/87
f 68/59/88 77/69/88 73/70/88
f 69/60/89 73/70/89 74/74/89
f 70/65/90 74/71/90 75/72/90
f 71/67/91 75/72/91 76/73/91
f 72/62/92 76/73/92 77/69/92
f 73/70/93 77/69/93 78/75/93
f 74/74/94 73/70/94 78/76/94
f 75/72/95 74/71/95 78/77/95
f 76/73/96 75/72/96 78/78/96
f 77/69/97 76/73/97 78/79/97
