# Blender 4.0.2
# www.blender.org
mtllib 4_mature.mtl
o tulip_4_mature
v 0.000000 -0.100000 0.000000
v 0.000000 -0.100000 0.020000
v -0.058779 -0.080902 0.000000
v -0.058779 -0.080902 0.020000
v -0.095106 -0.030902 0.000000
v -0.095106 -0.030902 0.020000
v -0.095106 0.030902 0.000000
v -0.095106 0.030902 0.020000
v -0.058779 0.080902 0.000000
v -0.058779 0.080902 0.020000
v 0.000000 0.100000 0.000000
v 0.000000 0.100000 0.020000
v 0.058779 0.080902 0.000000
v 0.058779 0.080902 0.020000
v 0.095106 0.030902 0.000000
v 0.095106 0.030902 0.020000
v 0.095106 -0.030902 0.000000
v 0.095106 -0.030902 0.020000
v 0.058779 -0.080902 0.000000
v 0.058779 -0.080902 0.020000
v 0.000000 -0.007000 0.020000
v 0.000000 -0.007000 0.320000
v -0.006657 -0.002163 0.020000
v -0.006657 -0.002163 0.320000
v -0.004114 0.005663 0.020000
v -0.004114 0.005663 0.320000
v 0.004114 0.005663 0.020000
v 0.004114 0.005663 0.320000
v 0.006657 -0.002163 0.020000
v 0.006657 -0.002163 0.320000
v -0.081000 -0.005257 0.047566
v -0.185198 0.006123 0.050856
v -0.041201 0.011360 0.048642
v 0.047797 -0.002351 0.054439
v -0.041201 -0.016062 0.060236
v -0.185198 -0.010825 0.058022
v -0.120799 0.016062 0.059764
v 0.023198 0.010825 0.061978
v 0.023198 -0.006123 0.069144
v -0.120799 -0.011360 0.071358
v -0.209797 0.002351 0.065561
v -0.081000 0.005257 0.072434
v 0.045053 -0.067519 0.047566
v 0.087297 -0.163448 0.050856
v 0.010762 -0.041361 0.048642
v -0.021863 0.042569 0.054439
v 0.034511 -0.027650 0.060236
v 0.101974 -0.154974 0.058022
v 0.046489 -0.112646 0.059764
v -0.020974 0.014678 0.061978
v -0.006297 0.023152 0.069144
v 0.070238 -0.098935 0.071358
v 0.102863 -0.182865 0.065561
v 0.035947 -0.072777 0.072434
v 0.035947 0.072777 0.047566
v 0.097902 0.157325 0.050856
v 0.030438 0.030001 0.048642
v -0.025935 -0.040218 0.054439
v 0.006690 0.043712 0.060236
v 0.083225 0.165799 0.058022
v 0.074310 0.096584 0.059764
v -0.002225 -0.025503 0.061978
v -0.016902 -0.017029 0.069144
v 0.050562 0.110295 0.071358
v 0.106935 0.180514 0.065561
v 0.045053 0.067519 0.072434
v -0.020000 -0.003917 0.344725
v -0.047135 0.003150 0.340266
v -0.009636 0.006180 0.336448
v 0.013541 -0.001752 0.346443
v -0.009636 -0.009683 0.356438
v -0.047135 -0.006653 0.352620
v -0.030364 0.009683 0.339228
v 0.007135 0.006653 0.343046
v 0.007135 -0.003150 0.355400
v -0.030364 -0.006180 0.359218
v -0.053541 0.001752 0.349223
v -0.020000 0.003917 0.350941
v -0.006608 -0.019279 0.344725
v -0.026296 -0.039245 0.340266
v -0.010170 -0.005255 0.336448
v 0.008287 0.010851 0.346443
v 0.003568 -0.013186 0.356438
v -0.017805 -0.044147 0.352620
v -0.023568 -0.021455 0.339228
v -0.002195 0.009506 0.343046
v 0.006296 0.004604 0.355400
v -0.009830 -0.029386 0.359218
v -0.028287 -0.045492 0.349223
v -0.013392 -0.015362 0.350941
v 0.013392 -0.015362 0.344725
v 0.020839 -0.042395 0.340266
v -0.000534 -0.011435 0.336448
v -0.005254 0.012603 0.346443
v 0.013204 -0.003503 0.356438
v 0.029330 -0.037493 0.352620
v 0.006796 -0.031138 0.339228
v -0.009330 0.002852 0.343046
v -0.000839 0.007754 0.355400
v 0.020534 -0.023206 0.359218
v 0.025254 -0.047244 0.349223
v 0.006608 -0.019279 0.350941
v 0.020000 0.003917 0.344725
v 0.047135 -0.003150 0.340266
v 0.009636 -0.006180 0.336448
v -0.013541 0.001752 0.346443
v 0.009636 0.009683 0.356438
v 0.047135 0.006653 0.352620
v 0.030364 -0.009683 0.339228
v -0.007135 -0.006653 0.343046
v -0.007135 0.003150 0.355400
v 0.030364 0.006180 0.359218
v 0.053541 -0.001752 0.349223
v 0.020000 -0.003917 0.350941
v 0.006608 0.019279 0.344725
v 0.026296 0.039245 0.340266
v 0.010170 0.005255 0.336448
v -0.008287 -0.010851 0.346443
v -0.003568 0.013186 0.356438
v 0.017805 0.044147 0.352620
v 0.023568 0.021455 0.339228
v 0.002195 -0.009506 0.343046
v -0.006296 -0.004604 0.355400
v 0.009830 0.029386 0.359218
v 0.028287 0.045492 0.349223
v 0.013392 0.015362 0.350941
v -0.013392 0.015362 0.344725
v -0.020839 0.042395 0.340266
v 0.000534 0.011435 0.336448
v 0.005254 -0.012603 0.346443
v -0.013204 0.003503 0.356438
v -0.029330 0.037493 0.352620
v -0.006796 0.031138 0.339228
v 0.009330 -0.002852 0.343046
v 0.000839 -0.007754 0.355400
v -0.020534 0.023206 0.359218
v -0.025254 0.047244 0.349223
v -0.006608 0.019279 0.350941
v 0.000000 0.000000 0.358800
v -0.005065 0.003680 0.364991
v 0.001935 0.005954 0.364991
v 0.006261 0.000000 0.364991
v 0.001935 -0.005954 0.364991
v -0.005065 -0.003680 0.364991
v -0.001935 0.005954 0.375009
v 0.005065 0.003680 0.375009
v 0.005065 -0.003680 0.375009
v -0.001935 -0.005954 0.375009
v -0.006261 0.000000 0.375009
v 0.000000 0.000000 0.381200
vn -0.3090 -0.9511 -0.0000
vn -0.8090 -0.5878 -0.0000
vn -1.0000 -0.0000 -0.0000
vn -0.8090 0.5878 -0.0000
vn -0.3090 0.9511 -0.0000
vn 0.3090 0.9511 -0.0000
vn 0.8090 0.5878 -0.0000
vn 1.0000 -0.0000 -0.0000
vn -0.0000 -0.0000 1.0000
vn 0.8090 -0.5878 -0.0000
vn 0.3090 -0.9511 -0.0000
vn -0.0000 -0.0000 -1.0000
vn -0.5878 -0.8090 -0.0000
vn -0.9511 0.3090 -0.0000
vn -0.0000 1.0000 -0.0000
vn 0.9511 0.3090 -0.0000
vn 0.5878 -0.8090 -0.0000
vn -0.0193 0.1106 -0.9937
vn -0.0714 -0.3884 -0.9187
vn 0.0547 -0.0664 -0.9963
vn 0.0547 -0.6684 -0.7417
vn -0.0193 -0.7899 -0.6130
vn -0.4406 -0.3496 -0.8268
vn -0.0382 0.7927 -0.6084
vn 0.1524 0.6895 -0.7080
vn 0.1524 -0.9883 0.0014
vn -0.0382 -0.9887 0.1447
vn -0.1524 0.9883 -0.0014
vn 0.0382 0.9887 -0.1447
vn 0.4406 0.3496 0.8268
vn 0.0382 -0.7927 0.6084
vn -0.1524 -0.6895 0.7080
vn -0.0547 0.6684 0.7417
vn 0.0193 0.7899 0.6130
vn 0.0714 0.3884 0.9187
vn 0.0193 -0.1106 0.9937
vn -0.0547 0.0664 0.9963
vn -0.0861 -0.0720 -0.9937
vn 0.3721 0.1323 -0.9187
vn 0.0302 0.0805 -0.9963
vn 0.5516 0.3816 -0.7417
vn 0.6937 0.3782 -0.6130
vn 0.5231 -0.2068 -0.8268
vn -0.6674 -0.4294 -0.6084
vn -0.6733 -0.2128 -0.7080
vn 0.7797 0.6261 0.0014
vn 0.8754 0.4613 0.1447
vn -0.7797 -0.6261 -0.0014
vn -0.8754 -0.4613 -0.1447
vn -0.5231 0.2068 0.8268
vn 0.6674 0.4294 0.6084
vn 0.6733 0.2128 0.7080
vn -0.5516 -0.3816 0.7417
vn -0.6937 -0.3782 0.6130
vn -0.3721 -0.1323 0.9187
vn 0.0861 0.0720 0.9937
vn -0.0302 -0.0805 0.9963
vn 0.1054 -0.0386 -0.9937
vn -0.3007 0.2561 -0.9187
vn -0.0848 -0.0141 -0.9963
vn -0.6062 0.2869 -0.7417
vn -0.6744 0.4117 -0.6130
vn -0.0824 0.5564 -0.8268
vn 0.7056 -0.3633 -0.6084
vn 0.5210 -0.4767 -0.7080
vn -0.9321 0.3622 0.0014
vn -0.8372 0.5274 0.1447
vn 0.9321 -0.3622 -0.0014
vn 0.8372 -0.5274 -0.1447
vn 0.0824 -0.5564 0.8268
vn -0.7056 0.3633 0.6084
vn -0.5210 0.4767 0.7080
vn 0.6062 -0.2869 0.7417
vn 0.6744 -0.4117 0.6130
vn 0.3007 -0.2561 0.9187
vn -0.1054 0.0386 0.9937
vn 0.0848 0.0141 0.9963
vn -0.0306 -0.6147 -0.7882
vn -0.1013 -0.7793 -0.6184
vn 0.0812 -0.6804 -0.7283
vn 0.0812 -0.8639 -0.4972
vn -0.0306 -0.9072 -0.4196
vn -0.5724 -0.6423 -0.5097
vn -0.1106 0.1275 -0.9857
vn 0.3668 -0.0945 -0.9255
vn 0.3668 -0.9228 0.1182
vn -0.1106 -0.9309 0.3481
vn -0.3668 0.9228 -0.1182
vn 0.1106 0.9309 -0.3481
vn 0.5724 0.6423 0.5097
vn 0.1106 -0.1275 0.9857
vn -0.3668 0.0945 0.9255
vn -0.0812 0.8639 0.4972
vn 0.0306 0.9072 0.4196
vn 0.1013 0.7793 0.6184
vn 0.0306 0.6147 0.7882
vn -0.0812 0.6804 0.7283
vn 0.5171 -0.3338 -0.7882
vn 0.6242 -0.4774 -0.6184
vn 0.6299 -0.2699 -0.7283
vn 0.7887 -0.3616 -0.4972
vn 0.7704 -0.4801 -0.4196
vn 0.2700 -0.8169 -0.5097
vn -0.1657 -0.0321 -0.9857
vn 0.2653 0.2704 -0.9255
vn 0.9825 -0.1438 0.1182
vn 0.7509 -0.5613 0.3481
vn -0.9825 0.1438 -0.1182
vn -0.7509 0.5613 -0.3481
vn -0.2700 0.8169 0.5097
vn 0.1657 0.0321 0.9857
vn -0.2653 -0.2704 0.9255
vn -0.7887 0.3616 0.4972
vn -0.7704 0.4801 0.4196
vn -0.6242 0.4774 0.6184
vn -0.5171 0.3338 0.7882
vn -0.6299 0.2699 0.7283
vn 0.5476 0.2809 -0.7882
vn 0.7256 0.3019 -0.6184
vn 0.5487 0.4106 -0.7283
vn 0.7075 0.5023 -0.4972
vn 0.8010 0.4271 -0.4196
vn 0.8425 -0.1746 -0.5097
vn -0.0551 -0.1595 -0.9857
vn -0.1015 0.3649 -0.9255
vn 0.6158 0.7790 0.1182
vn 0.8615 0.3696 0.3481
vn -0.6158 -0.7790 -0.1182
vn -0.8615 -0.3696 -0.3481
vn -0.8425 0.1746 0.5097
vn 0.0550 0.1595 0.9857
vn 0.1015 -0.3649 0.9255
vn -0.7075 -0.5023 0.4972
vn -0.8010 -0.4271 0.4196
vn -0.7256 -0.3019 0.6184
vn -0.5476 -0.2809 0.7882
vn -0.5487 -0.4106 0.7283
vn 0.0306 0.6147 -0.7882
vn 0.1013 0.7793 -0.6184
vn -0.0812 0.6804 -0.7283
vn -0.0812 0.8639 -0.4972
vn 0.0306 0.9072 -0.4196
vn 0.5724 0.6423 -0.5097
vn 0.1106 -0.1275 -0.9857
vn -0.3668 0.0945 -0.9255
vn -0.3668 0.9228 0.1182
vn 0.1106 0.9309 0.3481
vn 0.3668 -0.9228 -0.1182
vn -0.1106 -0.9309 -0.3481
vn -0.5724 -0.6423 0.5097
vn -0.1106 0.1275 0.9857
vn 0.3668 -0.0945 0.9255
vn 0.0812 -0.8639 0.4972
vn -0.0306 -0.9072 0.4196
vn -0.1013 -0.7793 0.6184
vn -0.0306 -0.6147 0.7882
vn 0.0812 -0.6804 0.7283
vn -0.5171 0.3338 -0.7882
vn -0.6242 0.4774 -0.6184
vn -0.6299 0.2699 -0.7283
vn -0.7887 0.3616 -0.4972
vn -0.7704 0.4801 -0.4196
vn -0.2700 0.8169 -0.5097
vn 0.1657 0.0321 -0.9857
vn -0.2653 -0.2704 -0.9255
vn -0.9825 0.1438 0.1182
vn -0.7509 0.5613 0.3481
vn 0.9825 -0.1438 -0.1182
vn 0.7509 -0.5613 -0.3481
vn 0.2700 -0.8169 0.5097
vn -0.1657 -0.0321 0.9857
vn 0.2653 0.2704 0.9255
vn 0.7887 -0.3616 0.4972
vn 0.7704 -0.4801 0.4196
vn 0.6242 -0.4774 0.6184
vn 0.5171 -0.3338 0.7882
vn 0.6299 -0.2699 0.7283
vn -0.5476 -0.2809 -0.7882
vn -0.7256 -0.3019 -0.6184
vn -0.5487 -0.4106 -0.7283
vn -0.7075 -0.5023 -0.4972
vn -0.8010 -0.4271 -0.4196
vn -0.8425 0.1746 -0.5097
vn 0.0550 0.1595 -0.9857
vn 0.1015 -0.3649 -0.9255
vn -0.6158 -0.7790 0.1182
vn -0.8615 -0.3696 0.3481
vn 0.6158 0.7790 -0.1182
vn 0.8615 0.3696 -0.3481
vn 0.8425 -0.1746 0.5097
vn -0.0551 -0.1595 0.9857
vn -0.1015 0.3649 0.9255
vn 0.7075 0.5023 0.4972
vn 0.8010 0.4271 0.4196
vn 0.7256 0.3019 0.6184
vn 0.5476 0.2809 0.7882
vn 0.5487 0.4106 0.7283
vn -0.2392 0.7361 -0.6332
vn -0.7740 -0.0000 -0.6332
vn 0.6262 0.4549 -0.6332
vn 0.6262 -0.4549 -0.6332
vn -0.2392 -0.7361 -0.6332
vn -0.9930 -0.0000 -0.1185
vn -0.3068 0.9444 -0.1185
vn 0.8033 0.5837 -0.1185
vn 0.8033 -0.5837 -0.1185
vn -0.3068 -0.9444 -0.1185
vn -0.8033 0.5837 0.1185
vn 0.3068 0.9444 0.1185
vn 0.9930 -0.0000 0.1185
vn 0.3068 -0.9444 0.1185
vn -0.8033 -0.5837 0.1185
vn -0.6262 0.4549 0.6332
vn 0.2392 0.7361 0.6332
vn 0.7740 -0.0000 0.6332
vn 0.2392 -0.7361 0.6332
vn -0.6262 -0.4549 0.6332
vt 1.000000 0.500000
vt 1.000000 1.000000
vt 0.900000 1.000000
vt 0.900000 0.500000
vt 0.800000 1.000000
vt 0.800000 0.500000
vt 0.700000 1.000000
vt 0.700000 0.500000
vt 0.600000 1.000000
vt 0.600000 0.500000
vt 0.500000 1.000000
vt 0.500000 0.500000
vt 0.400000 1.000000
vt 0.400000 0.500000
vt 0.300000 1.000000
vt 0.300000 0.500000
vt 0.200000 1.000000
vt 0.200000 0.500000
vt 0.391068 0.444164
vt 0.250000 0.490000
vt 0.108932 0.444164
vt 0.021746 0.324164
vt 0.021746 0.175836
vt 0.108932 0.055836
vt 0.250000 0.010000
vt 0.391068 0.055836
vt 0.478254 0.175836
vt 0.478254 0.324164
vt 0.100000 1.000000
vt 0.100000 0.500000
vt -0.000000 1.000000
vt -0.000000 0.500000
vt 0.750000 0.490000
vt 0.891068 0.444164
vt 0.978254 0.324164
vt 0.978254 0.175836
vt 0.891068 0.055836
vt 0.750000 0.010000
vt 0.608932 0.055836
vt 0.521746 0.175836
vt 0.521746 0.324164
vt 0.608932 0.444164
vt 0.800000 1.000000
vt 0.800000 0.500000
vt 0.600000 1.000000
vt 0.600000 0.500000
vt 0.400000 1.000000
vt 0.400000 0.500000
vt 0.478254 0.324164
vt 0.021746 0.324164
vt 0.108932 0.055836
vt 0.200000 1.000000
vt 0.200000 0.500000
vt 0.000000 1.000000
vt 0.000000 0.500000
vt 0.978254 0.324164
vt 0.521746 0.324164
vt 0.181819 0.000000
vt 0.272728 0.157461
vt 0.090910 0.157461
vt 0.363637 0.000000
vt 0.454546 0.157461
vt 0.909091 0.000000
vt 1.000000 0.157461
vt 0.818182 0.157461
vt 0.727273 0.000000
vt 0.636364 0.157461
vt 0.545455 0.000000
vt 0.363637 0.314921
vt 0.181819 0.314921
vt 0.909091 0.314921
vt 0.727273 0.314921
vt 0.545455 0.314921
vt 0.000000 0.314921
vt 0.272728 0.472382
vt 0.090910 0.472382
vt 0.818182 0.472382
vt 0.636364 0.472382
vt 0.454546 0.472382
s 0
usemtl soil
f 1/1/1 2/2/1 4/3/1 3/4/1
f 3/4/2 4/3/2 6/5/2 5/6/2
f 5/6/3 6/5/3 8/7/3 7/8/3
f 7/8/4 8/7/4 10/9/4 9/10/4
f 9/10/5 10/9/5 12/11/5 11/12/5
f 11/12/6 12/11/6 14/13/6 13/14/6
f 13/14/7 14/13/7 16/15/7 15/16/7
f 15/16/8 16/15/8 18/17/8 17/18/8
f 4/19/9 2/20/9 20/21/9 18/22/9 16/23/9 14/24/9 12/25/9 10/26/9 8/27/9 6/28/9
f 17/18/10 18/17/10 20/29/10 19/30/10
f 19/30/11 20/29/11 2/31/11 1/32/11
f 1/33/12 3/34/12 5/35/12 7/36/12 9/37/12 11/38/12 13/39/12 15/40/12 17/41/12 19/42/12
usemtl stem
f 21/1/13 22/2/13 24/43/13 23/44/13
f 23/44/14 24/43/14 26/45/14 25/46/14
f 25/46/15 26/45/15 28/47/15 27/48/15
f 24/49/9 22/20/9 30/50/9 28/51/9 26/26/9
f 27/48/16 28/47/16 30/52/16 29/53/16
f 29/53/17 30/52/17 22/54/17 21/55/17
f 21/33/12 23/56/12 25/37/12 27/39/12 29/57/12
usemtl leaf
f 31/58/18 32/59/18 33/60/18
f 32/59/19 31/61/19 36/62/19
f 31/63/20 33/64/20 34/65/20
f 31/66/21 34/65/21 35/67/21
f 31/68/22 35/67/22 36/62/22
f 32/59/23 36/62/23 41/69/23
f 33/60/24 32/59/24 37/70/24
f 34/65/25 33/64/25 38/71/25
f 35/67/26 34/65/26 39/72/26
f 36/62/27 35/67/27 40/73/27
f 32/59/28 41/69/28 37/70/28
f 33/60/29 37/70/29 38/74/29
f 34/65/30 38/71/30 39/72/30
f 35/67/31 39/72/31 40/73/31
f 36/62/32 40/73/32 41/69/32
f 37/70/33 41/69/33 42/75/33
f 38/74/34 37/70/34 42/76/34
f 39/72/35 38/71/35 42/77/35
f 40/73/36 39/72/36 42/78/36
f 41/69/37 40/73/37 42/79/37
f 43/58/38 44/59/38 45/60/38
f 44/59/39 43/61/39 48/62/39
f 43/63/40 45/64/40 46/65/40
f 43/66/41 46/65/41 47/67/41
f 43/68/42 47/67/42 48/62/42
f 44/59/43 48/62/43 53/69/43
f 45/60/44 44/59/44 49/70/44
f 46/65/45 45/64/45 50/71/45
f 47/67/46 46/65/46 51/72/46
f 48/62/47 47/67/47 52/73/47
f 44/59/48 53/69/48 49/70/48
f 45/60/49 49/70/49 50/74/49
f 46/65/50 50/71/50 51/72/50
f 47/67/51 51/72/51 52/73/51
f 48/62/52 52/73/52 53/69/52
f 49/70/53 53/69/53 54/75/53
f 50/74/54 49/70/54 54/76/54
f 51/72/55 50/71/55 54/77/55
f 52/73/56 51/72/56 54/78/56
f 53/69/57 52/73/57 54/79/57
f 55/58/58 56/59/58 57/60/58
f 56/59/59 55/61/59 60/62/59
f 55/63/60 57/64/60 58/65/60
f 55/66/61 58/65/61 59/67/61
f 55/68/62 59/67/62 60/62/62
f 56/59/63 60/62/63 65/69/63
f 57/60/64 56/59/64 61/70/64
f 58/65/65 57/64/65 62/71/65
f 59/67/66 58/65/66 63/72/66
f 60/62/67 59/67/67 64/73/67
f 56/59/68 65/69/68 61/70/68
f 57/60/69 61/70/69 62/74/69
f 58/65/70 62/71/70 63/72/70
f 59/67/71 63/72/71 64/73/71
f 60/62/72 64/73/72 65/69/72
f 61/70/73 65/69/73 66/75/73
f 62/74/74 61/70/74 66/76/74
f 63/72/75 62/71/75 66/77/75
f 64/73/76 63/72/76 66/78/76
f 65/69/77 64/73/77 66/79/77
usemtl petal
f 67/58/78 68/59/78 69/60/78
f 68/59/79 67/61/79 72/62/79
f 67/63/80 69/64/80 70/65/80
f 67/66/81 70/65/81 71/67/81
f 67/68/82 71/67/82 72/62/82
f 68/59/83 72/62/83 77/69/83
f 69/60/84 68/59/84 73/70/84
f 70/65/85 69/64/85 74/71/85
f 71/67/86 70/65/86 75/72/86
f 72/62/87 71/67/87 76/73/87
f 68/59/88 77/69/88 73/70/88
f 69/60/89 73/70/89 74/74/89
f 70/65/90 74/71/90 75/72/90
f 71/67/91 75/72/91 76/73/91
f 72/62/92 76/73/92 77/69/92
f 73/70/93 77/69/93 78/75/93
f 74/74/94 73/70/94 78/76/94
f 75/72/95 74/71/95 78/77/95
f 76/73/96 75/72/96 78/78/96
f 77/69/97 76/73/97 78/79/97
f 79/58/98 80/59/98 81/60/98
f 80/59/99 79/61/99 84/62/99
f 79/63/100 81/64/100 82/65/100
f 79/66/101 82/65/101 83/67/101
f 79/68/102 83/67/102 84/62/102
f 80/59/103 84/62/103 89/69/103
f 81/60/104 80/59/104 85/70/104
f 82/65/105 81/64/105 86/71/105
f 83/67/106 82/65/106 87/72/106
f 84/62/107 83/67/107 88/73/107
f 80/59/108 89/69/108 85/70/108
f 81/60/109 85/70/109 86/74/109
f 82/65/110 86/71/110 87/72/110
f 83/67/111 87/72/111 88/73/111
f 84/62/112 88/73/112 89/69/112
f 85/70/113 89/69/113 90/75/113
f 86/74/114 85/70/114 90/76/114
f 87/72/115 86/71/115 90/77/115
f 88/73/116 87/72/116 90/78/116
f 89/69/117 88/73/117 90/79/117
f 91/58/118 92/59/118 93/60/118
f 92/59/119 91/61/119 96/62/119
f 91/63/120 93/64/120 94/65/120
f 91/66/121 94/65/121 95/67/121
f 91/68/122 95/67/122 96/62/122
f 92/59/123 96/62/123 101/69/123
f 93/60/124 92/59/124 97/70/124
f 94/65/125 93/64/125 98/71/125
f 95/67/126 94/65/126 99/72/126
f 96/62/127 95/67/127 100/73/127
f 92/59/128 101/69/128 97/70/128
f 93/60/129 97/70/129 98/74/129
f 94/65/130 98/71/130 99/72/130
f 95/67/131 99/72/131 100/73/131
f 96/62/132 100/73/132 101/69/132
f 97/70/133 101/69/133 102/75/133
f 98/74/134 97/70/134 102/76/134
f 99/72/135 98/71/135 102/77/135
f 100/73/136 99/72/136 102/78/136
f 101/69/137 100/73/137 102/79/137
f 103/58/138 104/59/138 105/60/138
f 104/59/139 103/61/139 108/62/139
f 103/63/140 105/64/140 106/65/140
f 103/66/141 106/65/141 107/67/141
f 103/68/142 107/67/142 108/62/142
f 104/59/143 108/62/143 113/69/143
f 105/60/144 104/59/144 109/70/144
f 106/65/145 105/64/145 110/71/145
f 107/67/146 106/65/146 111/72/146
f 108/62/147 107/67/147 112/73/147
f 104/59/148 113/69/148 109/70/148
f 105/60/149 109/70/149 110/74/149
f 106/65/150 110/71/150 111/72/150
f 107/67/151 111/72/151 112/73/151
f 108/62/152 112/73/152 113/69/152
f 109/70/153 113/69/153 114/75/153
f 110/74/154 109/70/154 114/76/154
f 111/72/155 110/71/155 114/77/155
f 112/73/156 111/72/156 114/78/156
f 113/69/157 112/73/157 114/79/157
f 115/58/158 116/59/158 117/60/158
f 116/59/159 115/61/159 120/62/159
f 115/63/160 117/64/160 118/65/160
f 115/66/161 118/65/161 119/67/161
f 115/68/162 119/67/162 120/62/162
f 116/59/163 120/62/163 125/69/163
f 117/60/164 116/59/164 121/70/164
f 118/65/165 117/64/165 122/71/165
f 119/67/166 118/65/166 123/72/166
f 120/62/167 119/67/167 124/73/167
f 116/59/168 125/69/168 121/70/168
f 117/60/169 121/70/169 122/74/169
f 118/65/170 122/71/170 123/72/170
f 119/67/171 123/72/171 124/73/171
f 120/62/172 124/73/172 125/69/172
f 121/70/173 125/69/173 126/75/173
f 122/74/174 121/70/174 126/76/174
f 123/72/175 122/71/175 126/77/175
f 124/73/176 123/72/176 126/78/176
f 125/69/177 124/73/177 126/79/177
f 127/58/178 128/59/178 129/60/178
f 128/59/179 127/61/179 132/62/179
f 127/63/180 129/64/180 130/65/180
f 127/66/181 130/65/181 131/67/181
f 127/68/182 131/67/182 132/62/182
f 128/59/183 132/62/183 137/69/183
f 129/60/184 128/59/184 133/70/184
f 130/65/185 129/64/185 134/71/185
f 131/67/186 130/65/186 135/72/186
f 132/62/187 131/67/187 136/73/187
f 128/59/188 137/69/188 133/70/188
f 129/60/189 133/70/189 134/74/189
f 130/65/190 134/71/190 135/72/190
f 131/67/191 135/72/191 136/73/191
f 132/62/192 136/73/192 137/69/192
f 133/70/193 137/69/193 138/75/193
f 134/74/194 133/70/194 138/76/194
f 135/72/195 134/71/195 138/77/195
f 136/73/196 135/72/196 138/78/196
f 137/69/197 136/73/197 138/79/197
f 139/58/198 140/59/198 141/60/198
f 140/59/199 139/61/199 144/62/199
f 139/63/200 141/64/200 142/65/200
f 139/66/201 142/65/201 143/67/201
f 139/68/202 143/67/202 144/62/202
f 140/59/203 144/62/203 149/69/203
f 141/60/204 140/59/204 145/70/204
f 142/65/205 141/64/205 146/71/205
f 143/67/206 142/65/206 147/72/206
f 144/62/207 143/67/207 148/73/207
f 140/59/208 149/69/208 145/70/208
f 141/60/209 145/70/209 146/74/209
f 142/65/210 146/71/210 147/72/210
f 143/67/211 147/72/211 148/73/211
f 144/62/212 148/73/212 149/69/212
f 145/70/213 149/69/213 150/75/213
f 146/74/214 145/70/214 150/76/214
f 147/72/215 146/71/215 150/77/215
f 148/73/216 147/72/216 150/78/216
f 149/69/217 148/73/217 150/79/217
