# OGRS RSC model extracted from .ob3
# vertices: 170  faces: 108
mtllib altar.mtl

o altar
v -0.32 0.22 1.22
v -0.32 -0.26 1.22
v -0.3 -0.26 1.22
v -0.3 0.22 1.22
v -0.3 0.2 1.22
v 0.3 0.2 1.22
v 0.3 0.22 1.22
v 0.3 -0.26 1.22
v 0.32 -0.26 1.22
v 0.32 0.22 1.22
v -0.3 -0.24 1.22
v 0.3 -0.24 1.22
v -0.32 -0.26 1.18
v 0.32 -0.26 1.18
v 0.32 0.22 1.18
v -0.32 0.22 1.18
v -0.24 -0.24 1.28
v 0.0 -0.24 1.22
v 0.0 0.2 1.22
v -0.24 0.2 1.28
v -0.28 0.2 1.26
v -0.28 -0.24 1.26
v 0.24 0.2 1.28
v 0.28 0.2 1.26
v 0.28 -0.24 1.26
v 0.24 -0.24 1.28
v 0.04 0.48 1.18
v -0.04 0.48 1.18
v -0.04 0.4 1.22
v 0.04 0.4 1.22
v -0.12 0.4 1.18
v -0.12 0.32 1.18
v -0.04 0.32 1.22
v -0.04 0.24 1.18
v 0.04 0.24 1.18
v 0.04 0.32 1.22
v 0.12 0.32 1.18
v 0.12 0.4 1.18
v -0.04 0.4 1.46
v 0.04 0.4 1.46
v 0.04 0.32 1.46
v -0.04 0.32 1.46
v 0.12 0.4 1.46
v 0.12 0.4 1.54
v 0.12 0.32 1.54
v 0.12 0.32 1.46
v -0.12 0.4 1.46
v -0.12 0.32 1.46
v -0.12 0.32 1.54
v -0.12 0.4 1.54
v -0.04 0.32 1.54
v 0.04 0.32 1.54
v 0.04 0.32 1.62
v -0.04 0.32 1.62
v 0.04 0.4 1.54
v -0.04 0.4 1.54
v -0.04 0.4 1.62
v 0.04 0.4 1.62
v -1.0 0.28 1.58
v -1.0 0.28 1.74
v -0.92 0.28 1.74
v -0.92 0.28 1.58
v -1.0 0.36 1.58
v -0.92 0.36 1.58
v -0.92 0.36 1.74
v -1.0 0.36 1.74
v -1.0 0.2 1.18
v -1.08 0.28 1.18
v -1.0 0.28 1.26
v -1.08 0.36 1.18
v -1.0 0.36 1.26
v -1.0 0.44 1.18
v -0.92 0.28 1.26
v -0.92 0.2 1.18
v -0.92 0.44 1.18
v -0.92 0.36 1.26
v -0.84 0.36 1.18
v -0.84 0.28 1.18
v -1.04 0.36 1.58
v -1.0 0.4 1.58
v -0.92 0.4 1.58
v -0.88 0.36 1.58
v -0.88 0.28 1.58
v -0.92 0.24 1.58
v -1.0 0.24 1.58
v -1.04 0.28 1.58
v 0.92 0.28 1.58
v 0.92 0.28 1.74
v 1.0 0.28 1.74
v 1.0 0.28 1.58
v 0.92 0.36 1.58
v 1.0 0.36 1.58
v 1.0 0.36 1.74
v 0.92 0.36 1.74
v 0.92 0.2 1.18
v 0.84 0.28 1.18
v 0.92 0.28 1.26
v 0.84 0.36 1.18
v 0.92 0.36 1.26
v 0.92 0.44 1.18
v 1.0 0.28 1.26
v 1.0 0.2 1.18
v 1.0 0.44 1.18
v 1.0 0.36 1.26
v 1.08 0.36 1.18
v 1.08 0.28 1.18
v 0.88 0.36 1.58
v 0.92 0.4 1.58
v 1.0 0.4 1.58
v 1.04 0.36 1.58
v 1.04 0.28 1.58
v 1.0 0.24 1.58
v 0.92 0.24 1.58
v 0.88 0.28 1.58
v -1.12 -0.48 1.16
v -1.12 0.48 1.16
v -1.2 0.56 1.12
v -1.2 -0.56 1.12
v 1.2 -0.56 1.12
v 1.2 0.56 1.12
v 1.12 0.48 1.16
v 1.12 -0.48 1.16
v -1.12 -0.56 1.04
v 1.12 -0.56 1.04
v 1.12 0.56 1.04
v -1.12 0.56 1.04
v 1.28 0.56 0.0
v 1.2 0.64 0.0
v 1.2 0.32 0.0
v 1.28 -0.56 0.0
v 1.2 -0.32 0.0
v 1.2 -0.64 0.0
v -1.2 0.64 0.0
v -1.28 0.56 0.0
v -1.2 0.32 0.0
v -1.28 -0.56 0.0
v -1.2 -0.64 0.0
v -1.2 -0.32 0.0
v 1.16 -0.48 1.04
v -1.16 -0.48 1.04
v -1.16 -0.48 0.88
v 1.16 -0.48 0.88
v 1.16 0.48 0.88
v -1.16 0.48 0.88
v -1.16 0.48 1.04
v 1.16 0.48 1.04
v 1.12 0.48 0.0
v -1.12 0.48 0.0
v -1.12 0.48 0.08
v 1.12 0.48 0.08
v -1.12 -0.48 0.08
v -1.12 -0.48 0.0
v 1.12 -0.48 0.0
v 1.12 -0.48 0.08
v 1.04 0.4 0.08
v -1.04 0.4 0.08
v -1.04 0.4 0.16
v 1.04 0.4 0.16
v -1.04 -0.4 0.16
v -1.04 -0.4 0.08
v 1.04 -0.4 0.08
v 1.04 -0.4 0.16
v -0.88 0.32 0.16
v -1.04 0.4 0.88
v 1.04 0.4 0.88
v 0.88 0.32 0.16
v -1.04 -0.4 0.88
v -0.88 -0.32 0.16
v 0.88 -0.32 0.16
v 1.04 -0.4 0.88

usemtl tex_32767
f 1 2 3 4
f 4 5 6 7
f 7 8 9 10
f 11 3 8 12
f 13 14 9 2
f 15 16 1 10
f 16 13 2 1
f 14 15 10 9
f 17 18 19 20
f 5 21 20 19
f 18 17 22 11
f 23 24 6 19
f 18 12 25 26
f 23 19 18 26
f 11 22 21 5
f 6 24 25 12
f 22 17 20 21
f 24 23 26 25
f 27 28 29 30
f 31 32 33 29
f 28 31 29
f 34 35 36 33
f 35 37 36
f 30 38 27
f 30 36 37 38
f 33 32 34
f 30 29 39 40
f 33 36 41 42
f 29 33 42 39
f 36 30 40 41
f 43 44 45 46
f 47 48 49 50
f 51 52 53 54
f 55 56 57 58
f 57 54 53 58
f 56 51 54 57
f 52 55 58 53
f 46 45 49 48
f 47 50 44 43
f 50 49 51 56
f 55 52 45 44
f 115 116 117 118
f 119 120 121 122
f 123 124 119 118
f 117 120 125 126
f 118 119 122 115
f 117 116 121 120
f 116 115 122 121
f 139 140 141 142
f 143 144 145 146
f 147 148 149 150
f 151 152 153 154
f 155 156 157 158
f 159 160 161 162
f 163 164 165 166
f 167 168 169 170
f 158 157 159 162
f 150 149 151 154
usemtl rsc_000000
f 59 60 61 62
f 63 64 65 66
f 60 59 63 66
f 61 65 64 62
f 66 65 61 60
f 87 88 89 90
f 91 92 93 94
f 88 87 91 94
f 89 93 92 90
f 94 93 89 88
f 120 127 128
f 129 127 120
f 130 131 119
f 119 132 130
f 128 125 120
f 132 119 124
f 117 133 134
f 117 134 135
f 118 136 137
f 117 126 133
f 123 118 137
f 138 136 118
f 118 117 135 138
f 129 120 119 131
usemtl rsc_f8d008
f 67 68 69
f 70 71 69 68
f 70 72 71
f 69 73 74 67
f 72 75 76 71
f 76 75 77
f 77 78 73 76
f 73 78 74
f 71 76 64 63
f 69 59 62 73
f 64 76 73 62
f 69 71 63 59
f 79 80 81 82 83 84 85 86
f 95 96 97
f 98 99 97 96
f 98 100 99
f 97 101 102 95
f 100 103 104 99
f 104 103 105
f 105 106 101 104
f 101 106 102
f 99 104 92 91
f 97 87 90 101
f 92 104 101 90
f 97 99 91 87
f 107 108 109 110 111 112 113 114
