# OGRS RSC model extracted from .ob3
# vertices: 80  faces: 44
mtllib blueflower.mtl

o blueflower
v 0.0 0.0 0.06
v -0.03 0.0 0.06
v -0.14 0.09 0.54
v -0.11 0.09 0.54
v -0.03 -0.03 0.06
v -0.14 0.06 0.54
v 0.0 -0.03 0.06
v -0.11 0.06 0.54
v 0.0 -0.05 0.11
v -0.03 -0.05 0.11
v -0.03 -0.05 0.59
v 0.0 -0.05 0.59
v -0.03 -0.08 0.11
v -0.03 -0.08 0.59
v 0.0 -0.08 0.11
v 0.0 -0.08 0.59
v -0.14 0.23 0.26
v 0.07 0.25 0.26
v 0.03 0.46 0.32
v -0.11 0.44 0.32
v -0.11 0.0 0.11
v 0.06 0.02 0.11
v -0.05 0.67 0.27
v 0.0 -0.03 0.02
v -0.14 -0.28 0.26
v -0.27 -0.07 0.26
v -0.38 -0.22 0.32
v -0.3 -0.35000000000000003 0.32
v 0.0 -0.12 0.11
v -0.09 0.04 0.11
v -0.48 -0.42 0.27
v 0.21 -0.01 0.26
v 0.13 -0.24 0.26
v 0.3 -0.29 0.32
v 0.36 -0.14 0.32
v 0.03 0.04 0.11
v -0.02 -0.1 0.11
v 0.49 -0.31 0.27
v 0.0 0.0 0.65
v -0.06 -0.07 0.65
v 0.0 -0.07 0.68
v 0.0 -0.14 0.65
v 0.06 -0.07 0.65
v -0.18 0.14 0.59
v -0.24 0.07 0.59
v -0.18 0.07 0.62
v -0.18 0.0 0.59
v -0.12 0.07 0.59
v -0.03 0.13 0.6
v -0.06 0.23 0.6
v -0.18 0.09 0.54
v -0.33 0.02 0.6
v -0.3 -0.08 0.6
v -0.18 0.06 0.54
v -0.21 -0.12 0.6
v -0.23 0.25 0.6
v -0.32 0.21 0.6
v -0.2 0.07 0.54
v -0.14 -0.1 0.6
v -0.05 -0.07 0.6
v -0.17 0.07 0.54
v -0.02 0.04 0.6
v -0.15 0.27 0.6
v -0.35000000000000003 0.11 0.6
v 0.15 -0.01 0.66
v 0.12 0.09 0.66
v 0.0 -0.05 0.6
v -0.15 -0.12 0.66
v -0.12 -0.22 0.66
v 0.0 -0.08 0.6
v -0.03 -0.26 0.66
v -0.05 0.11 0.66
v -0.14 0.07 0.66
v -0.02 -0.07 0.6
v 0.04 -0.24 0.66
v 0.13 -0.21 0.66
v 0.01 -0.07 0.6
v 0.16 -0.1 0.66
v 0.03 0.13 0.66
v -0.17 -0.03 0.66

usemtl tex_32767
f 1 2 3 4
f 2 5 6 3
f 7 1 4 8
f 5 7 8 6
f 9 10 11 12
f 10 13 14 11
f 15 9 12 16
f 13 15 16 14
f 39 40 41
f 40 42 41
f 42 43 41
f 43 39 41
f 44 45 46
f 45 47 46
f 47 48 46
f 48 44 46
f 49 50 51
f 52 53 54
f 53 55 54
f 56 57 58
f 59 60 61
f 60 62 61
f 50 63 51
f 57 64 58
f 65 66 67
f 68 69 70
f 69 71 70
f 72 73 74
f 75 76 77
f 76 78 77
f 66 79 67
f 73 80 74
usemtl rsc_005008
f 17 18 19 20
f 21 22 18 17
f 20 19 23
f 24 22 21
f 25 26 27 28
f 29 30 26 25
f 28 27 31
f 24 30 29
f 32 33 34 35
f 36 37 33 32
f 35 34 38
f 24 37 36
