# OGRS RSC model extracted from .ob3
# vertices: 16  faces: 12
mtllib bookcase.mtl

o bookcase
v -0.56 1.2 1.68
v -0.56 1.2 0.0
v -0.56 -1.2 0.0
v -0.56 -1.2 1.68
v -0.16 1.2 0.0
v -0.16 1.2 1.68
v -0.16 -1.2 0.0
v -0.16 -1.2 1.68
v -0.24 1.12 0.16
v -0.24 1.12 1.52
v -0.24 -1.12 1.52
v -0.24 -1.12 0.16
v -0.16 1.12 1.52
v -0.16 1.12 0.16
v -0.16 -1.12 0.16
v -0.16 -1.12 1.52

usemtl tex_32767
f 1 2 3 4
f 5 2 1 6
f 3 7 8 4
f 6 1 4 8
f 9 10 11 12
f 5 6 13 14
f 5 14 15 7
f 15 16 8 7
f 13 6 8 16
f 9 14 13 10
f 12 11 16 15
f 14 9 12 15
