# OGRS RSC model extracted from .ob3
# vertices: 156  faces: 114
mtllib brokenpillar.mtl

o brokenpillar
v -0.32 0.76 0.16
v -0.56 0.68 0.16
v -0.72 0.52 0.16
v -0.8 0.28 0.16
v -0.72 0.04 0.16
v -0.56 -0.12 0.16
v -0.32 -0.2 0.16
v -0.08 -0.12 0.16
v 0.08 0.04 0.16
v 0.16 0.28 0.16
v 0.08 0.52 0.16
v -0.08 0.68 0.16
v -0.32 0.76 0.0
v -0.56 0.68 0.0
v -0.72 0.52 0.0
v -0.8 0.28 0.0
v -0.72 0.04 0.0
v -0.56 -0.12 0.0
v -0.32 -0.2 0.0
v -0.08 -0.12 0.0
v 0.08 0.04 0.0
v 0.16 0.28 0.0
v 0.08 0.52 0.0
v -0.08 0.68 0.0
v -0.68 0.28 1.12
v -0.56 0.16 1.12
v -0.32 0.28 1.12
v -0.56 0.4 1.12
v -0.44 0.52 1.12
v -0.56 0.52 1.12
v -0.2 0.52 1.12
v -0.32 0.64 1.12
v -0.08 0.4 1.12
v -0.08 0.52 1.12
v -0.08 0.16 1.12
v 0.04 0.28 1.12
v -0.2 0.04 1.12
v -0.08 0.04 1.12
v -0.44 0.04 1.12
v -0.32 -0.08 1.12
v -0.56 0.04 1.12
v -0.68 0.28 0.64
v -0.56 0.16 0.64
v -0.56 0.04 0.64
v -0.44 0.04 0.64
v -0.32 0.64 0.64
v -0.44 0.52 0.64
v -0.32 -0.08 0.64
v -0.2 0.04 0.64
v -0.08 0.52 0.64
v -0.2 0.52 0.64
v 0.04 0.28 0.64
v -0.08 0.4 0.64
v -0.56 0.52 0.64
v -0.56 0.4 0.64
v -0.08 0.04 0.64
v -0.08 0.16 0.64
v -0.52 0.52 0.64
v -0.4 0.28 0.64
v -0.28 0.52 0.64
v -0.4 0.64 0.64
v -0.76 0.28 0.64
v -0.64 0.16 0.64
v -0.64 0.4 0.64
v -0.64 0.52 0.64
v -0.52 0.04 0.64
v -0.4 -0.08 0.64
v -0.28 0.04 0.64
v -0.64 0.04 0.64
v -0.76 0.28 0.16
v -0.64 0.16 0.16
v -0.64 0.04 0.16
v -0.52 0.04 0.16
v -0.4 0.64 0.16
v -0.52 0.52 0.16
v -0.4 -0.08 0.16
v -0.28 0.04 0.16
v -0.16 0.52 0.16
v -0.28 0.52 0.16
v -0.16 0.52 0.64
v -0.04 0.28 0.16
v -0.16 0.4 0.16
v -0.16 0.4 0.64
v -0.04 0.28 0.64
v -0.64 0.52 0.16
v -0.64 0.4 0.16
v -0.16 0.04 0.16
v -0.16 0.16 0.16
v -0.16 0.16 0.64
v -0.16 0.04 0.64
v 0.09 0.28 0.65
v 0.21 0.16 0.62
v 0.44 0.28 0.56
v 0.21 0.4 0.62
v 0.33 0.52 0.59
v 0.21 0.52 0.62
v 0.56 0.52 0.53
v 0.44 0.64 0.56
v 0.68 0.4 0.5
v 0.68 0.52 0.5
v 0.68 0.16 0.5
v 0.79 0.28 0.47000000000000003
v 0.56 0.04 0.53
v 0.68 0.04 0.5
v 0.33 0.04 0.59
v 0.44 -0.08 0.56
v 0.21 0.04 0.62
v -0.02 0.28 0.18
v 0.09 0.16 0.15
v 0.09 0.04 0.15
v 0.21 0.04 0.12
v 0.33 0.64 0.09
v 0.21 0.52 0.12
v 0.33 -0.08 0.09
v 0.44 0.04 0.06
v 0.56 0.52 0.03
v 0.44 0.52 0.06
v 0.68 0.28 0.0
v 0.56 0.4 0.03
v 0.09 0.52 0.15
v 0.09 0.4 0.15
v 0.56 0.04 0.03
v 0.56 0.16 0.03
v -0.37 -0.42 0.48
v -0.25 -0.31 0.53
v -0.13 -0.19 0.31
v -0.33 -0.38 0.32
v -0.29 -0.34 0.16
v -0.36 -0.41000000000000003 0.22
v -0.13 -0.19 0.06
v -0.25 -0.3 0.0
v -0.02 -0.07 0.11
v -0.06 -0.11 0.0
v 0.05 0.0 0.31
v 0.01 -0.04 0.48
v 0.09 0.04 0.42
v -0.13 -0.19 0.58
v -0.02 -0.07 0.64
v -0.21 -0.26 0.64
v 0.01 -0.72 0.32
v 0.2 -0.52 0.31
v 0.08 -0.64 0.53
v -0.03 -0.76 0.48
v -0.02 -0.75 0.22
v 0.05 -0.68 0.16
v 0.09 -0.64 0.0
v 0.2 -0.52 0.06
v 0.28 -0.45 0.0
v 0.32 -0.41000000000000003 0.11
v 0.43 -0.3 0.15
v 0.39 -0.34 0.31
v 0.43 -0.3 0.42
v 0.35000000000000003 -0.38 0.48
v 0.32 -0.41000000000000003 0.64
v 0.2 -0.52 0.58
v 0.13 -0.6 0.64

usemtl tex_32767
f 1 2 3 4 5 6 7 8 9 10 11 12
f 13 14 2 1
f 14 15 3 2
f 15 16 4 3
f 16 17 5 4
f 17 18 6 5
f 18 19 7 6
f 19 20 8 7
f 20 21 9 8
f 21 22 10 9
f 22 23 11 10
f 23 24 12 11
f 24 13 1 12
f 25 26 27 28
f 27 29 30 28
f 29 27 31 32
f 27 33 34 31
f 27 35 36 33
f 27 37 38 35
f 27 39 40 37
f 26 41 39 27
f 42 43 26 25
f 44 45 39 41
f 46 47 29 32
f 48 49 37 40
f 50 51 31 34
f 52 53 33 36
f 54 55 28 30
f 56 57 35 38
f 43 44 41 26
f 53 50 34 33
f 47 54 30 29
f 55 42 25 28
f 45 48 40 39
f 49 56 38 37
f 57 52 36 35
f 51 46 32 31
f 58 59 60 61
f 62 63 59 64
f 59 58 65 64
f 59 66 67 68
f 63 69 66 59
f 70 71 63 62
f 72 73 66 69
f 74 75 58 61
f 76 77 68 67
f 78 79 60 80
f 81 82 83 84
f 85 86 64 65
f 87 88 89 90
f 71 72 69 63
f 82 78 80 83
f 75 85 65 58
f 86 70 62 64
f 73 76 67 66
f 77 87 90 68
f 88 81 84 89
f 79 74 61 60
f 91 92 93 94
f 93 95 96 94
f 95 93 97 98
f 93 99 100 97
f 93 101 102 99
f 93 103 104 101
f 93 105 106 103
f 92 107 105 93
f 108 109 92 91
f 110 111 105 107
f 112 113 95 98
f 114 115 103 106
f 116 117 97 100
f 118 119 99 102
f 120 121 94 96
f 122 123 101 104
f 109 110 107 92
f 119 116 100 99
f 113 120 96 95
f 121 108 91 94
f 111 114 106 105
f 115 122 104 103
f 123 118 102 101
f 117 112 98 97
f 124 125 126 127
f 126 128 129 127
f 128 126 130 131
f 126 132 133 130
f 126 134 110 132
f 126 135 136 134
f 126 137 138 135
f 125 139 137 126
f 140 141 142 143
f 140 144 145 141
f 146 147 141 145
f 147 148 149 141
f 149 150 151 141
f 151 152 153 141
f 153 154 155 141
f 141 155 156 142
f 143 142 125 124
f 156 155 137 139
f 146 145 128 131
f 154 153 135 138
f 148 147 130 133
f 150 149 132 110
f 144 140 127 129
f 152 151 134 136
f 142 156 139 125
f 149 148 133 132
f 145 144 129 128
f 140 143 124 127
f 155 154 138 137
f 153 152 136 135
f 151 150 110 134
f 147 146 131 130
