# OGRS RSC model extracted from .ob3
# vertices: 41  faces: 24
mtllib bush1.mtl

o bush1
v 0.02 0.48 0.01
v -0.32 0.32 0.01
v -0.36 0.36 0.35000000000000003
v 0.02 0.55 0.35000000000000003
v -0.48 -0.02 0.01
v -0.55 -0.02 0.35000000000000003
v -0.32 -0.34 0.01
v -0.36 -0.39 0.35000000000000003
v 0.34 -0.34 0.01
v 0.5 -0.02 0.01
v 0.58 -0.02 0.35000000000000003
v 0.39 -0.39 0.35000000000000003
v 0.34 0.32 0.01
v 0.39 0.36 0.35000000000000003
v 0.02 -0.5 0.01
v 0.02 -0.58 0.35000000000000003
v 0.02 0.61 0.31
v -0.42 0.42 0.31
v -0.32 0.32 0.7000000000000001
v 0.02 0.45 0.7000000000000001
v -0.61 -0.02 0.31
v -0.45 -0.02 0.7000000000000001
v -0.42 -0.45 0.31
v -0.32 -0.34 0.7000000000000001
v 0.02 -0.64 0.31
v 0.02 -0.48 0.7000000000000001
v 0.45 0.42 0.31
v 0.34 0.32 0.7000000000000001
v 0.45 -0.45 0.31
v 0.34 -0.34 0.7000000000000001
v 0.64 -0.02 0.31
v 0.48 -0.02 0.7000000000000001
v 0.02 0.55 0.66
v -0.36 0.36 0.66
v 0.02 -0.02 0.96
v -0.55 -0.02 0.66
v 0.58 -0.02 0.66
v 0.39 0.36 0.66
v -0.36 -0.39 0.66
v 0.02 -0.58 0.66
v 0.39 -0.39 0.66

usemtl tex_32767
f 1 2 3 4
f 2 5 6 3
f 5 7 8 6
f 9 10 11 12
f 10 13 14 11
f 13 1 4 14
f 7 15 16 8
f 15 9 12 16
f 17 18 19 20
f 18 21 22 19
f 21 23 24 22
f 23 25 26 24
f 27 17 20 28
f 25 29 30 26
f 29 31 32 30
f 31 27 28 32
f 33 34 35
f 34 36 35
f 37 38 35
f 38 33 35
f 36 39 35
f 39 40 35
f 40 41 35
f 41 37 35
