# OGRS RSC model extracted from .ob3
# vertices: 41  faces: 14
mtllib bush2.mtl

o bush2
v 0.0 -0.48 0.0
v -0.64 -0.48 0.0
v -0.64 -0.32 0.32
v 0.0 -0.32 0.32
v 0.64 -0.48 0.0
v 0.64 -0.32 0.32
v 0.0 -0.4 0.24
v 0.0 -0.16 0.48
v 0.64 -0.16 0.48
v 0.64 -0.4 0.24
v -0.64 -0.4 0.24
v -0.64 -0.16 0.48
v 0.64 -0.24 0.48
v 0.0 -0.24 0.48
v 0.0 0.0 0.56
v 0.64 0.0 0.56
v -0.64 -0.24 0.48
v -0.64 0.0 0.56
v -0.64 0.16 0.48
v -0.64 0.4 0.24
v 0.0 0.4 0.24
v 0.0 0.16 0.48
v -0.64 0.24 0.48
v 0.0 0.24 0.48
v 0.64 0.24 0.48
v 0.64 0.4 0.24
v 0.64 0.16 0.48
v -0.64 0.48 0.0
v 0.0 0.48 0.0
v 0.0 0.32 0.32
v -0.64 0.32 0.32
v 0.64 0.48 0.0
v 0.64 0.32 0.32
v -0.56 0.48 0.0
v -0.56 0.16 0.48
v -0.56 -0.16 0.48
v -0.56 -0.48 0.0
v 0.56 0.48 0.0
v 0.56 -0.48 0.0
v 0.56 -0.16 0.48
v 0.56 0.16 0.48

usemtl tex_8
f 1 2 3 4
f 5 1 4 6
f 7 8 9 10
f 11 12 8 7
f 13 14 15 16
f 14 17 18 15
f 19 20 21 22
f 23 24 15 18
f 24 25 16 15
f 22 21 26 27
f 28 29 30 31
f 29 32 33 30
f 34 35 36 37
f 38 39 40 41
