# OGRS RSC model extracted from .ob3
# vertices: 378  faces: 354
mtllib cadavaberrybush.mtl

o cadavaberrybush
v 0.02 0.58 0.37
v 0.02 0.51 0.01
v 0.36 0.34 0.01
v 0.41000000000000003 0.38 0.37
v -0.38 0.38 0.37
v -0.34 0.34 0.01
v -0.58 -0.02 0.37
v -0.51 -0.02 0.01
v 0.41000000000000003 -0.41000000000000003 0.37
v 0.36 -0.36 0.01
v 0.02 -0.53 0.01
v 0.02 -0.61 0.37
v 0.61 -0.02 0.37
v 0.53 -0.02 0.01
v -0.34 -0.36 0.01
v -0.38 -0.41000000000000003 0.37
v 0.02 0.47000000000000003 0.74
v 0.02 0.64 0.33
v 0.47000000000000003 0.44 0.33
v 0.36 0.34 0.74
v -0.34 0.34 0.74
v -0.44 0.44 0.33
v -0.34 -0.36 0.74
v -0.44 -0.47000000000000003 0.33
v -0.64 -0.02 0.33
v -0.47000000000000003 -0.02 0.74
v 0.68 -0.02 0.33
v 0.51 -0.02 0.74
v 0.02 -0.51 0.74
v 0.02 -0.67 0.33
v 0.36 -0.36 0.74
v 0.47000000000000003 -0.47000000000000003 0.33
v 0.02 0.58 0.7000000000000001
v 0.02 -0.02 1.01
v -0.38 0.38 0.7000000000000001
v -0.58 -0.02 0.7000000000000001
v 0.61 -0.02 0.7000000000000001
v 0.41000000000000003 0.38 0.7000000000000001
v -0.38 -0.41000000000000003 0.7000000000000001
v 0.02 -0.61 0.7000000000000001
v 0.41000000000000003 -0.41000000000000003 0.7000000000000001
v 0.29 0.15 0.85
v 0.31 0.16 0.85
v 0.31 0.14 0.85
v 0.29 0.14 0.85
v 0.29 0.11 0.8300000000000001
v 0.29 0.12 0.84
v 0.31 0.11 0.84
v 0.31 0.1 0.84
v 0.29 0.12 0.85
v 0.31 0.12 0.85
v 0.29 0.11 0.81
v 0.29 0.11 0.8200000000000001
v 0.31 0.1 0.8200000000000001
v 0.31 0.1 0.81
v 0.31 0.17 0.81
v 0.31 0.18 0.8200000000000001
v 0.29 0.17 0.8200000000000001
v 0.29 0.17 0.81
v 0.31 0.16 0.79
v 0.29 0.15 0.79
v 0.29 0.14 0.79
v 0.31 0.14 0.79
v 0.31 0.17 0.84
v 0.29 0.16 0.84
v 0.29 0.17 0.8300000000000001
v 0.31 0.12 0.79
v 0.29 0.12 0.79
v 0.29 0.12 0.8
v 0.31 0.11 0.8
v 0.31 0.17 0.8
v 0.29 0.16 0.8
v 0.28 0.13 0.81
v 0.28 0.13 0.8200000000000001
v 0.28 0.13 0.8300000000000001
v 0.28 0.15 0.8300000000000001
v 0.28 0.14 0.84
v 0.28 0.15 0.81
v 0.28 0.14 0.81
v 0.28 0.15 0.8200000000000001
v 0.34 0.15 0.85
v 0.34 0.14 0.85
v 0.34 0.11 0.8300000000000001
v 0.34 0.12 0.84
v 0.34 0.12 0.85
v 0.34 0.11 0.81
v 0.34 0.11 0.8200000000000001
v 0.34 0.17 0.81
v 0.34 0.17 0.8200000000000001
v 0.34 0.14 0.79
v 0.34 0.15 0.79
v 0.34 0.17 0.8300000000000001
v 0.34 0.16 0.84
v 0.34 0.12 0.8
v 0.34 0.12 0.79
v 0.34 0.16 0.8
v 0.35000000000000003 0.13 0.8200000000000001
v 0.35000000000000003 0.13 0.81
v 0.35000000000000003 0.13 0.8300000000000001
v 0.35000000000000003 0.15 0.8300000000000001
v 0.35000000000000003 0.14 0.84
v 0.35000000000000003 0.14 0.81
v 0.35000000000000003 0.15 0.81
v 0.35000000000000003 0.15 0.8200000000000001
v 0.47000000000000003 -0.39 0.42
v 0.5 -0.39 0.43
v 0.5 -0.4 0.43
v 0.47000000000000003 -0.41000000000000003 0.43
v 0.47000000000000003 -0.43 0.41000000000000003
v 0.47000000000000003 -0.43 0.42
v 0.5 -0.43 0.42
v 0.5 -0.44 0.41000000000000003
v 0.47000000000000003 -0.42 0.42
v 0.5 -0.42 0.43
v 0.47000000000000003 -0.43 0.38
v 0.47000000000000003 -0.44 0.4
v 0.5 -0.45 0.4
v 0.5 -0.44 0.38
v 0.5 -0.37 0.38
v 0.5 -0.37 0.4
v 0.47000000000000003 -0.37 0.4
v 0.47000000000000003 -0.38 0.38
v 0.5 -0.39 0.37
v 0.47000000000000003 -0.39 0.37
v 0.47000000000000003 -0.41000000000000003 0.37
v 0.5 -0.4 0.36
v 0.5 -0.37 0.41000000000000003
v 0.5 -0.38 0.42
v 0.47000000000000003 -0.38 0.42
v 0.47000000000000003 -0.38 0.41000000000000003
v 0.5 -0.42 0.37
v 0.47000000000000003 -0.42 0.37
v 0.5 -0.43 0.37
v 0.5 -0.38 0.37
v 0.47000000000000003 -0.38 0.37
v 0.46 -0.42 0.39
v 0.46 -0.42 0.4
v 0.46 -0.42 0.41000000000000003
v 0.46 -0.39 0.41000000000000003
v 0.46 -0.39 0.4
v 0.46 -0.4 0.41000000000000003
v 0.46 -0.4 0.38
v 0.46 -0.39 0.38
v 0.46 -0.41000000000000003 0.38
v 0.46 -0.41000000000000003 0.41000000000000003
v 0.46 -0.39 0.39
v 0.52 -0.39 0.42
v 0.52 -0.41000000000000003 0.43
v 0.52 -0.43 0.41000000000000003
v 0.52 -0.43 0.42
v 0.52 -0.42 0.42
v 0.52 -0.43 0.38
v 0.52 -0.44 0.4
v 0.52 -0.38 0.38
v 0.52 -0.37 0.4
v 0.52 -0.41000000000000003 0.37
v 0.52 -0.39 0.37
v 0.52 -0.38 0.41000000000000003
v 0.52 -0.38 0.42
v 0.52 -0.42 0.37
v 0.52 -0.38 0.37
v 0.53 -0.42 0.4
v 0.53 -0.42 0.39
v 0.53 -0.42 0.41000000000000003
v 0.53 -0.39 0.4
v 0.53 -0.39 0.41000000000000003
v 0.53 -0.4 0.41000000000000003
v 0.53 -0.4 0.38
v 0.53 -0.39 0.38
v 0.53 -0.41000000000000003 0.38
v 0.53 -0.41000000000000003 0.41000000000000003
v 0.53 -0.39 0.39
v -0.5700000000000001 -0.11 0.52
v -0.54 -0.11 0.52
v -0.54 -0.13 0.52
v -0.5700000000000001 -0.13 0.52
v -0.5700000000000001 -0.16 0.5
v -0.5700000000000001 -0.15 0.51
v -0.54 -0.15 0.51
v -0.54 -0.16 0.51
v -0.5700000000000001 -0.14 0.52
v -0.54 -0.14 0.52
v -0.5700000000000001 -0.16 0.48
v -0.5700000000000001 -0.16 0.49
v -0.54 -0.17 0.49
v -0.54 -0.16 0.48
v -0.54 -0.09 0.48
v -0.54 -0.09 0.49
v -0.5700000000000001 -0.1 0.49
v -0.5700000000000001 -0.1 0.48
v -0.54 -0.11 0.46
v -0.5700000000000001 -0.11 0.46
v -0.5700000000000001 -0.13 0.46
v -0.54 -0.13 0.46
v -0.54 -0.09 0.51
v -0.54 -0.1 0.51
v -0.5700000000000001 -0.1 0.51
v -0.5700000000000001 -0.1 0.5
v -0.54 -0.14 0.46
v -0.5700000000000001 -0.14 0.47000000000000003
v -0.5700000000000001 -0.15 0.47000000000000003
v -0.54 -0.15 0.47000000000000003
v -0.54 -0.1 0.47000000000000003
v -0.5700000000000001 -0.1 0.47000000000000003
v -0.58 -0.14 0.48
v -0.58 -0.14 0.49
v -0.58 -0.14 0.5
v -0.58 -0.11 0.5
v -0.58 -0.13 0.51
v -0.58 -0.12 0.5
v -0.58 -0.12 0.48
v -0.58 -0.13 0.48
v -0.58 -0.11 0.49
v -0.58 -0.11 0.48
v -0.58 -0.13 0.5
v -0.52 -0.11 0.52
v -0.52 -0.13 0.52
v -0.52 -0.16 0.5
v -0.52 -0.15 0.51
v -0.52 -0.14 0.52
v -0.52 -0.16 0.48
v -0.52 -0.16 0.49
v -0.52 -0.1 0.48
v -0.52 -0.1 0.49
v -0.52 -0.13 0.46
v -0.52 -0.11 0.46
v -0.52 -0.1 0.5
v -0.52 -0.1 0.51
v -0.52 -0.15 0.47000000000000003
v -0.52 -0.14 0.47000000000000003
v -0.52 -0.1 0.47000000000000003
v -0.51 -0.14 0.49
v -0.51 -0.14 0.48
v -0.51 -0.14 0.5
v -0.51 -0.11 0.5
v -0.51 -0.12 0.5
v -0.51 -0.13 0.51
v -0.51 -0.13 0.48
v -0.51 -0.12 0.48
v -0.51 -0.11 0.49
v -0.51 -0.11 0.48
v -0.51 -0.13 0.5
v -0.02 -0.46 0.8
v 0.0 -0.46 0.8
v 0.0 -0.48 0.81
v -0.02 -0.48 0.8
v -0.02 -0.51 0.79
v -0.02 -0.5 0.8
v 0.0 -0.51 0.8
v 0.0 -0.51 0.79
v -0.02 -0.49 0.8
v 0.0 -0.5 0.8
v -0.02 -0.51 0.76
v -0.02 -0.51 0.77
v 0.0 -0.52 0.77
v 0.0 -0.51 0.76
v 0.0 -0.44 0.76
v 0.0 -0.44 0.77
v -0.02 -0.45 0.77
v -0.02 -0.45 0.76
v 0.0 -0.46 0.74
v -0.02 -0.46 0.75
v -0.02 -0.48 0.75
v 0.0 -0.48 0.74
v 0.0 -0.44 0.79
v 0.0 -0.45 0.8
v -0.02 -0.46 0.79
v -0.02 -0.45 0.79
v 0.0 -0.5 0.74
v -0.02 -0.49 0.75
v -0.02 -0.5 0.75
v 0.0 -0.51 0.75
v 0.0 -0.45 0.75
v -0.03 -0.49 0.77
v -0.03 -0.49 0.78
v -0.03 -0.49 0.79
v -0.03 -0.47000000000000003 0.78
v -0.03 -0.48 0.79
v -0.03 -0.47000000000000003 0.79
v -0.03 -0.47000000000000003 0.76
v -0.03 -0.48 0.76
v -0.03 -0.46 0.77
v -0.03 -0.49 0.76
v -0.03 -0.47000000000000003 0.77
v 0.02 -0.46 0.8
v 0.02 -0.48 0.8
v 0.02 -0.51 0.79
v 0.02 -0.5 0.8
v 0.02 -0.49 0.8
v 0.02 -0.51 0.76
v 0.02 -0.51 0.77
v 0.02 -0.45 0.76
v 0.02 -0.45 0.77
v 0.02 -0.48 0.75
v 0.02 -0.46 0.75
v 0.02 -0.45 0.79
v 0.02 -0.46 0.79
v 0.02 -0.5 0.75
v 0.02 -0.49 0.75
v 0.03 -0.49 0.77
v 0.03 -0.49 0.79
v 0.03 -0.49 0.78
v 0.03 -0.47000000000000003 0.78
v 0.03 -0.47000000000000003 0.79
v 0.03 -0.48 0.79
v 0.03 -0.48 0.76
v 0.03 -0.47000000000000003 0.76
v 0.03 -0.46 0.77
v 0.03 -0.49 0.76
v 0.03 -0.47000000000000003 0.77
v 0.08 0.58 0.5
v 0.1 0.58 0.5
v 0.1 0.56 0.5
v 0.08 0.56 0.5
v 0.08 0.53 0.48
v 0.08 0.54 0.49
v 0.1 0.54 0.49
v 0.1 0.53 0.49
v 0.08 0.55 0.5
v 0.1 0.54 0.5
v 0.08 0.53 0.46
v 0.08 0.53 0.47000000000000003
v 0.1 0.52 0.47000000000000003
v 0.1 0.53 0.46
v 0.1 0.6 0.46
v 0.1 0.6 0.47000000000000003
v 0.08 0.59 0.47000000000000003
v 0.08 0.59 0.46
v 0.1 0.58 0.44
v 0.08 0.58 0.44
v 0.08 0.56 0.44
v 0.1 0.56 0.44
v 0.1 0.6 0.49
v 0.1 0.59 0.49
v 0.08 0.58 0.49
v 0.08 0.59 0.48
v 0.1 0.54 0.44
v 0.08 0.55 0.45
v 0.08 0.54 0.45
v 0.1 0.53 0.45
v 0.1 0.59 0.45
v 0.08 0.58 0.45
v 0.07 0.55 0.46
v 0.07 0.55 0.47000000000000003
v 0.07 0.55 0.48
v 0.07 0.5700000000000001 0.48
v 0.07 0.58 0.48
v 0.07 0.56 0.49
v 0.07 0.5700000000000001 0.46
v 0.07 0.56 0.46
v 0.07 0.58 0.47000000000000003
v 0.07 0.58 0.46
v 0.12 0.58 0.5
v 0.12 0.56 0.5
v 0.12 0.53 0.48
v 0.12 0.54 0.49
v 0.12 0.55 0.5
v 0.12 0.53 0.46
v 0.12 0.53 0.47000000000000003
v 0.12 0.59 0.46
v 0.12 0.59 0.47000000000000003
v 0.12 0.56 0.44
v 0.12 0.58 0.44
v 0.12 0.59 0.48
v 0.12 0.58 0.49
v 0.12 0.54 0.45
v 0.12 0.55 0.45
v 0.12 0.58 0.45
v 0.13 0.55 0.47000000000000003
v 0.13 0.55 0.46
v 0.13 0.55 0.48
v 0.13 0.58 0.48
v 0.13 0.5700000000000001 0.48
v 0.13 0.56 0.49
v 0.13 0.56 0.46
v 0.13 0.5700000000000001 0.46
v 0.13 0.58 0.47000000000000003
v 0.13 0.58 0.46

usemtl tex_66
f 1 2 3 4
f 5 6 2 1
f 7 8 6 5
f 9 10 11 12
f 13 14 10 9
f 4 3 14 13
f 12 11 15 16
f 17 18 19 20
f 21 22 18 17
f 16 15 8 7
f 23 24 25 26
f 20 19 27 28
f 29 30 24 23
f 31 32 30 29
f 28 27 32 31
f 33 34 35
f 35 34 36
f 37 34 38
f 38 34 33
f 36 34 39
f 39 34 40
f 40 34 41
f 41 34 37
f 26 25 22 21
usemtl rsc_e050b0
f 42 43 44 45
f 46 47 48 49
f 50 51 48 47
f 52 53 54 55
f 56 57 58 59
f 60 61 62 63
f 64 64 65 66
f 67 68 69 70
f 57 64 66 58
f 53 46 49 54
f 71 56 59 72
f 69 52 55 70
f 63 62 68 67
f 45 44 51 50
f 71 72 61 60
f 65 64 43 42
f 53 52 73 74
f 47 46 75 75
f 46 53 74 75
f 66 65 76 76
f 42 45 77 76
f 62 61 78 79
f 65 42 76 76
f 58 66 76 80
f 61 72 78 78
f 69 68 73 73
f 45 50 75 77
f 72 59 78 78
f 68 62 79 73
f 52 69 73 73
f 59 58 80 78
f 50 47 75 75
f 78 78 80 76 76 76 77 75 75 75 74 73 73 73 79 78
f 81 82 44 43
f 83 49 48 84
f 85 84 48 51
f 86 55 54 87
f 56 88 89 57
f 60 63 90 91
f 64 92 93 64
f 67 70 94 95
f 57 89 92 64
f 87 54 49 83
f 71 96 88 56
f 94 70 55 86
f 63 67 95 90
f 82 85 51 44
f 71 60 91 96
f 93 81 43 64
f 87 97 98 86
f 84 99 99 83
f 83 99 97 87
f 92 100 100 93
f 81 100 101 82
f 90 102 103 91
f 93 100 100 81
f 89 104 100 92
f 91 103 103 96
f 94 98 98 95
f 82 101 99 85
f 96 103 103 88
f 95 98 102 90
f 86 98 98 94
f 88 103 104 89
f 85 99 99 84
f 103 103 102 98 98 98 97 99 99 99 101 100 100 100 104 103
f 105 106 107 108
f 109 110 111 112
f 113 114 111 110
f 115 116 117 118
f 119 120 121 122
f 123 124 125 126
f 127 128 129 130
f 131 132 115 133
f 120 127 130 121
f 116 109 112 117
f 134 119 122 135
f 115 115 118 133
f 126 125 132 131
f 108 107 114 113
f 134 135 124 123
f 129 128 106 105
f 116 115 136 137
f 110 109 137 138
f 109 116 137 137
f 130 129 139 140
f 105 108 141 141
f 125 124 142 142
f 129 105 141 139
f 121 130 140 140
f 124 135 143 142
f 115 132 144 136
f 108 113 145 141
f 135 122 146 143
f 132 125 142 144
f 115 115 136 136
f 122 121 140 146
f 113 110 138 145
f 143 146 140 140 139 141 141 145 138 137 137 136 136 144 142 142
f 147 148 107 106
f 149 112 111 150
f 151 150 111 114
f 152 118 117 153
f 119 154 155 120
f 123 126 156 157
f 127 158 159 128
f 131 133 152 160
f 120 155 158 127
f 153 117 112 149
f 134 161 154 119
f 152 133 118 152
f 126 131 160 156
f 148 151 114 107
f 134 123 157 161
f 159 147 106 128
f 153 162 163 152
f 150 164 162 149
f 149 162 162 153
f 158 165 166 159
f 147 167 167 148
f 156 168 168 157
f 159 166 167 147
f 155 165 165 158
f 157 168 169 161
f 152 163 170 160
f 148 167 171 151
f 161 169 172 154
f 160 170 168 156
f 152 163 163 152
f 154 172 165 155
f 151 171 164 150
f 169 168 168 170 163 163 162 162 164 171 167 167 166 165 165 172
f 173 174 175 176
f 177 178 179 180
f 181 182 179 178
f 183 184 185 186
f 187 188 189 190
f 191 192 193 194
f 195 196 197 198
f 199 200 201 202
f 188 195 198 189
f 184 177 180 185
f 203 187 190 204
f 201 183 186 202
f 194 193 200 199
f 176 175 182 181
f 203 204 192 191
f 197 196 174 173
f 184 183 205 206
f 178 177 207 207
f 177 184 206 207
f 198 197 208 208
f 173 176 209 210
f 193 192 211 212
f 197 173 210 208
f 189 198 208 213
f 192 204 214 211
f 201 200 212 205
f 176 181 215 209
f 204 190 214 214
f 200 193 212 212
f 183 201 205 205
f 190 189 213 214
f 181 178 207 215
f 214 214 213 208 208 210 209 215 207 207 206 205 205 212 212 211
f 216 217 175 174
f 218 180 179 219
f 220 219 179 182
f 221 186 185 222
f 187 223 224 188
f 191 194 225 226
f 195 227 228 196
f 199 202 229 230
f 188 224 227 195
f 222 185 180 218
f 203 231 223 187
f 229 202 186 221
f 194 199 230 225
f 217 220 182 175
f 203 191 226 231
f 228 216 174 196
f 222 232 233 221
f 219 234 234 218
f 218 234 232 222
f 227 235 235 228
f 216 236 237 217
f 225 238 239 226
f 228 235 236 216
f 224 240 235 227
f 226 239 241 231
f 229 233 238 230
f 217 237 242 220
f 231 241 241 223
f 230 238 238 225
f 221 233 233 229
f 223 241 240 224
f 220 242 234 219
f 241 239 238 238 233 233 232 234 234 242 237 236 235 235 240 241
f 243 244 245 246
f 247 248 249 250
f 251 252 249 248
f 253 254 255 256
f 257 258 259 260
f 261 262 263 264
f 265 266 267 268
f 269 270 271 272
f 258 265 268 259
f 254 247 250 255
f 273 257 260 262
f 271 253 256 272
f 264 263 270 269
f 246 245 252 251
f 273 262 262 261
f 267 266 244 243
f 254 253 274 274
f 248 247 275 276
f 247 254 274 275
f 268 267 277 277
f 243 246 278 279
f 263 262 280 281
f 267 243 279 277
f 259 268 277 282
f 262 262 280 280
f 271 270 283 283
f 246 251 276 278
f 262 260 284 280
f 270 263 281 283
f 253 271 283 274
f 260 259 282 284
f 251 248 276 276
f 280 284 282 277 277 279 278 276 276 275 274 274 283 283 281 280
f 285 286 245 244
f 287 250 249 288
f 289 288 249 252
f 290 256 255 291
f 257 292 293 258
f 261 264 294 295
f 265 296 297 266
f 269 272 298 299
f 258 293 296 265
f 291 255 250 287
f 273 295 292 257
f 298 272 256 290
f 264 269 299 294
f 286 289 252 245
f 273 261 295 295
f 297 285 244 266
f 291 300 300 290
f 288 301 302 287
f 287 302 300 291
f 296 303 303 297
f 285 304 305 286
f 294 306 307 295
f 297 303 304 285
f 293 308 303 296
f 295 307 307 295
f 298 309 309 299
f 286 305 301 289
f 295 307 310 292
f 299 309 306 294
f 290 300 309 298
f 292 310 308 293
f 289 301 301 288
f 307 307 306 309 309 300 300 302 301 301 305 304 303 303 308 310
f 311 312 313 314
f 315 316 317 318
f 319 320 317 316
f 321 322 323 324
f 325 326 327 328
f 329 330 331 332
f 333 334 335 336
f 337 338 339 340
f 326 333 336 327
f 322 315 318 323
f 341 325 328 342
f 339 321 324 340
f 332 331 338 337
f 314 313 320 319
f 341 342 330 329
f 335 334 312 311
f 322 321 343 344
f 316 315 345 345
f 315 322 344 345
f 336 335 346 347
f 311 314 348 346
f 331 330 349 350
f 335 311 346 346
f 327 336 347 351
f 330 342 349 349
f 339 338 350 343
f 314 319 345 348
f 342 328 352 349
f 338 331 350 350
f 321 339 343 343
f 328 327 351 352
f 319 316 345 345
f 349 352 351 347 346 346 348 345 345 345 344 343 343 350 350 349
f 353 354 313 312
f 355 318 317 356
f 357 356 317 320
f 358 324 323 359
f 325 360 361 326
f 329 332 362 363
f 333 364 365 334
f 337 340 366 367
f 326 361 364 333
f 359 323 318 355
f 341 368 360 325
f 366 340 324 358
f 332 337 367 362
f 354 357 320 313
f 341 329 363 368
f 365 353 312 334
f 359 369 370 358
f 356 371 371 355
f 355 371 369 359
f 364 372 373 365
f 353 373 374 354
f 362 375 376 363
f 365 373 373 353
f 361 377 372 364
f 363 376 376 368
f 366 370 375 367
f 354 374 371 357
f 368 376 378 360
f 367 375 375 362
f 358 370 370 366
f 360 378 377 361
f 357 371 371 356
f 376 376 375 375 370 370 369 371 371 371 374 373 373 372 377 378
