# OGRS RSC model extracted from .ob3
# vertices: 280  faces: 163
mtllib chaosaltar.mtl

o chaosaltar
v 1.04 0.4 0.16
v -1.04 0.4 0.16
v -1.04 -0.4 0.16
v 1.04 -0.4 0.16
v 1.12 0.48 0.08
v -1.12 0.48 0.08
v -1.12 -0.48 0.08
v 1.12 -0.48 0.08
v -1.12 0.48 0.0
v -1.12 -0.48 0.0
v 1.12 0.48 0.0
v 1.12 -0.48 0.0
v 1.04 0.4 0.08
v 1.04 -0.4 0.08
v -1.04 -0.4 0.08
v -1.04 0.4 0.08
v 0.71 -0.15 0.67
v 0.71 -0.32 0.67
v 0.79 -0.4 0.67
v 0.96 -0.4 0.67
v 1.04 -0.32 0.67
v 1.04 -0.15 0.67
v 0.96 -0.07 0.67
v 0.79 -0.07 0.67
v 0.96 -0.4 0.6
v 0.99 -0.38 0.6
v 0.99 -0.38 0.67
v 0.97 -0.36 0.6
v 0.9500000000000001 -0.39 0.6
v 0.9500000000000001 -0.39 0.67
v 0.97 -0.36 0.67
v 0.9400000000000001 -0.38 0.67
v 1.02 -0.3 0.67
v 0.98 -0.34 0.79
v 0.71 -0.15 0.85
v 0.79 -0.07 0.85
v 1.0 -0.36 0.79
v 0.96 -0.4 0.85
v 0.88 -0.4 0.73
v 0.79 -0.4 0.85
v 0.71 -0.32 0.85
v 1.04 -0.32 0.85
v 1.04 -0.15 0.85
v 1.04 -0.24 0.73
v 0.96 -0.07 0.85
v 1.0 -0.36 0.6
v 1.03 -0.33 0.6
v 1.03 -0.33 0.67
v 1.0 -0.36 0.67
v 1.02 -0.32 0.6
v 0.99 -0.35000000000000003 0.6
v 0.99 -0.35000000000000003 0.67
v 1.02 -0.32 0.67
v 0.9400000000000001 -0.38 0.85
v 0.85 -0.38 0.73
v 1.02 -0.3 0.85
v 1.02 -0.21 0.73
v -0.8 -0.07 0.67
v -0.97 -0.07 0.67
v -1.05 -0.15 0.67
v -1.05 -0.32 0.67
v -0.97 -0.4 0.67
v -0.8 -0.4 0.67
v -0.72 -0.32 0.67
v -0.72 -0.15 0.67
v -1.05 -0.32 0.6
v -1.03 -0.35000000000000003 0.6
v -1.03 -0.35000000000000003 0.67
v -1.01 -0.33 0.6
v -1.04 -0.31 0.6
v -1.04 -0.31 0.67
v -1.01 -0.33 0.67
v -1.03 -0.3 0.67
v -0.9500000000000001 -0.38 0.67
v -0.99 -0.34 0.79
v -0.8 -0.07 0.85
v -0.72 -0.15 0.85
v -1.01 -0.36 0.79
v -1.05 -0.32 0.85
v -1.05 -0.24 0.73
v -1.05 -0.15 0.85
v -0.97 -0.07 0.85
v -0.97 -0.4 0.85
v -0.8 -0.4 0.85
v -0.88 -0.4 0.73
v -0.72 -0.32 0.85
v -1.01 -0.36 0.6
v -0.98 -0.39 0.6
v -0.98 -0.39 0.67
v -1.01 -0.36 0.67
v -0.97 -0.38 0.6
v -1.0 -0.35000000000000003 0.6
v -1.0 -0.35000000000000003 0.67
v -0.97 -0.38 0.67
v -1.03 -0.3 0.85
v -1.03 -0.21 0.73
v -0.9500000000000001 -0.38 0.85
v -0.86 -0.38 0.73
v 0.79 0.08 0.67
v 0.96 0.08 0.67
v 1.04 0.16 0.67
v 1.04 0.33 0.67
v 0.96 0.41000000000000003 0.67
v 0.79 0.41000000000000003 0.67
v 0.71 0.33 0.67
v 0.71 0.16 0.67
v 1.04 0.33 0.6
v 1.02 0.36 0.6
v 1.02 0.36 0.67
v 1.0 0.34 0.6
v 1.03 0.32 0.6
v 1.03 0.32 0.67
v 1.0 0.34 0.67
v 1.02 0.31 0.67
v 0.9400000000000001 0.39 0.67
v 0.98 0.35000000000000003 0.79
v 0.79 0.08 0.85
v 0.71 0.16 0.85
v 1.0 0.37 0.79
v 1.04 0.33 0.85
v 1.04 0.24 0.73
v 1.04 0.16 0.85
v 0.96 0.08 0.85
v 0.96 0.41000000000000003 0.85
v 0.79 0.41000000000000003 0.85
v 0.88 0.41000000000000003 0.73
v 0.71 0.33 0.85
v 1.0 0.37 0.6
v 0.97 0.4 0.6
v 0.97 0.4 0.67
v 1.0 0.37 0.67
v 0.96 0.39 0.6
v 0.99 0.36 0.6
v 0.99 0.36 0.67
v 0.96 0.39 0.67
v 1.02 0.31 0.85
v 1.02 0.22 0.73
v 0.9400000000000001 0.39 0.85
v 0.85 0.39 0.73
v -0.72 0.16 0.67
v -0.72 0.33 0.67
v -0.8 0.41000000000000003 0.67
v -0.97 0.41000000000000003 0.67
v -1.05 0.33 0.67
v -1.05 0.16 0.67
v -0.97 0.08 0.67
v -0.8 0.08 0.67
v -0.97 0.41000000000000003 0.6
v -1.0 0.39 0.6
v -1.0 0.39 0.67
v -0.98 0.37 0.6
v -0.96 0.4 0.6
v -0.96 0.4 0.67
v -0.98 0.37 0.67
v -0.9500000000000001 0.39 0.67
v -1.03 0.31 0.67
v -0.99 0.35000000000000003 0.79
v -0.72 0.16 0.85
v -0.8 0.08 0.85
v -1.01 0.37 0.79
v -0.97 0.41000000000000003 0.85
v -0.88 0.41000000000000003 0.73
v -0.8 0.41000000000000003 0.85
v -0.72 0.33 0.85
v -1.05 0.33 0.85
v -1.05 0.16 0.85
v -1.05 0.24 0.73
v -0.97 0.08 0.85
v -1.01 0.37 0.6
v -1.04 0.34 0.6
v -1.04 0.34 0.67
v -1.01 0.37 0.67
v -1.03 0.33 0.6
v -1.0 0.36 0.6
v -1.0 0.36 0.67
v -1.03 0.33 0.67
v -0.9500000000000001 0.39 0.85
v -0.86 0.39 0.73
v -1.03 0.31 0.85
v -1.03 0.22 0.73
v 1.0 0.25 0.16
v 0.96 0.33 0.16
v 0.96 0.33 0.66
v 1.0 0.25 0.66
v 0.88 0.37 0.16
v 0.88 0.37 0.66
v 0.8 0.33 0.16
v 0.8 0.33 0.66
v 0.76 0.25 0.16
v 0.76 0.25 0.66
v 0.8 0.17 0.16
v 0.8 0.17 0.66
v 0.96 0.17 0.16
v 0.96 0.17 0.66
v 0.88 0.13 0.16
v 0.88 0.13 0.66
v 1.0 -0.23 0.16
v 0.96 -0.15 0.16
v 0.96 -0.15 0.66
v 1.0 -0.23 0.66
v 0.88 -0.11 0.16
v 0.88 -0.11 0.66
v 0.8 -0.15 0.16
v 0.8 -0.15 0.66
v 0.76 -0.23 0.16
v 0.76 -0.23 0.66
v 0.8 -0.31 0.16
v 0.8 -0.31 0.66
v 0.96 -0.31 0.16
v 0.96 -0.31 0.66
v 0.88 -0.35000000000000003 0.16
v 0.88 -0.35000000000000003 0.66
v -0.76 0.25 0.16
v -0.8 0.33 0.16
v -0.8 0.33 0.66
v -0.76 0.25 0.66
v -0.88 0.37 0.16
v -0.88 0.37 0.66
v -0.96 0.33 0.16
v -0.96 0.33 0.66
v -1.0 0.25 0.16
v -1.0 0.25 0.66
v -0.96 0.17 0.16
v -0.96 0.17 0.66
v -0.8 0.17 0.16
v -0.8 0.17 0.66
v -0.88 0.13 0.16
v -0.88 0.13 0.66
v -0.76 -0.23 0.16
v -0.8 -0.15 0.16
v -0.8 -0.15 0.66
v -0.76 -0.23 0.66
v -0.88 -0.11 0.16
v -0.88 -0.11 0.66
v -0.96 -0.15 0.16
v -0.96 -0.15 0.66
v -1.0 -0.23 0.16
v -1.0 -0.23 0.66
v -0.96 -0.31 0.16
v -0.96 -0.31 0.66
v -0.8 -0.31 0.16
v -0.8 -0.31 0.66
v -0.88 -0.35000000000000003 0.16
v -0.88 -0.35000000000000003 0.66
v 0.64 -0.48 1.04
v 1.12 -0.48 1.04
v 1.12 0.48 1.04
v 0.64 0.48 1.04
v 1.12 0.48 0.88
v 0.64 0.48 0.88
v 0.64 -0.48 0.88
v 1.12 -0.48 0.88
v -1.12 0.48 1.04
v -0.64 0.48 1.04
v -0.64 0.48 0.88
v -1.12 0.48 0.88
v -0.64 -0.48 1.04
v -1.12 -0.48 1.04
v -1.12 -0.48 0.88
v -0.64 -0.48 0.88
v 0.56 -0.56 0.88
v -0.56 -0.56 0.88
v -0.56 -0.56 0.24
v 0.56 -0.56 0.24
v -0.56 0.56 0.24
v -0.56 0.56 0.88
v 0.56 0.56 0.88
v 0.56 0.56 0.24
v -0.56 0.48 1.04
v 0.56 0.48 1.04
v 0.56 -0.48 1.04
v -0.56 -0.48 1.04
v 0.64 -0.56 0.88
v 0.64 0.56 0.88
v 0.64 -0.56 0.16
v 0.64 0.56 0.16
v -0.64 -0.56 0.16
v -0.64 0.56 0.16
v -0.64 -0.56 0.88
v -0.64 0.56 0.88

usemtl tex_32767
f 1 2 3 4
f 5 6 7 8
f 7 6 9 10
f 11 5 8 12
f 13 1 4 14
f 15 3 2 16
f 13 16 2 1
f 3 15 14 4
f 11 9 6 5
f 7 10 12 8
f 17 18 19 20 21 22 23 24
f 25 26 27 20
f 28 29 30 31
f 29 25 20 30
f 26 28 31 27
f 32 33 34
f 24 17 35 36
f 37 38 20
f 39 38 40 19
f 20 39 19
f 17 18 41 35
f 37 21 42
f 43 42 44 22
f 22 44 21
f 23 24 36 45
f 38 37 42
f 22 23 45 43
f 18 19 40 41
f 46 47 48 49
f 50 51 52 53
f 51 46 49 52
f 47 50 53 48
f 54 55 32
f 56 33 57
f 58 59 60 61 62 63 64 65
f 66 67 68 61
f 69 70 71 72
f 70 66 61 71
f 67 69 72 68
f 73 74 75
f 65 58 76 77
f 78 79 61
f 80 79 81 60
f 61 80 60
f 58 59 82 76
f 78 62 83
f 84 83 85 63
f 63 85 62
f 64 65 77 86
f 79 78 83
f 63 64 86 84
f 59 60 81 82
f 87 88 89 90
f 91 92 93 94
f 92 87 90 93
f 88 91 94 89
f 95 96 73
f 97 74 98
f 99 100 101 102 103 104 105 106
f 107 108 109 102
f 110 111 112 113
f 111 107 102 112
f 108 110 113 109
f 114 115 116
f 106 99 117 118
f 119 120 102
f 121 120 122 101
f 102 121 101
f 99 100 123 117
f 119 103 124
f 125 124 126 104
f 104 126 103
f 105 106 118 127
f 120 119 124
f 104 105 127 125
f 100 101 122 123
f 128 129 130 131
f 132 133 134 135
f 133 128 131 134
f 129 132 135 130
f 136 137 114
f 138 115 139
f 140 141 142 143 144 145 146 147
f 148 149 150 143
f 151 152 153 154
f 152 148 143 153
f 149 151 154 150
f 155 156 157
f 147 140 158 159
f 160 161 143
f 162 161 163 142
f 143 162 142
f 140 141 164 158
f 160 144 165
f 166 165 167 145
f 145 167 144
f 146 147 159 168
f 161 160 165
f 145 146 168 166
f 141 142 163 164
f 169 170 171 172
f 173 174 175 176
f 174 169 172 175
f 170 173 176 171
f 177 178 155
f 179 156 180
f 181 182 183 184
f 182 185 186 183
f 185 187 188 186
f 187 189 190 188
f 189 191 192 190
f 193 181 184 194
f 191 195 196 192
f 195 193 194 196
f 197 198 199 200
f 198 201 202 199
f 201 203 204 202
f 203 205 206 204
f 205 207 208 206
f 209 197 200 210
f 207 211 212 208
f 211 209 210 212
f 213 214 215 216
f 214 217 218 215
f 217 219 220 218
f 219 221 222 220
f 221 223 224 222
f 225 213 216 226
f 223 227 228 224
f 227 225 226 228
f 229 230 231 232
f 230 233 234 231
f 233 235 236 234
f 235 237 238 236
f 237 239 240 238
f 241 229 232 242
f 239 243 244 240
f 243 241 242 244
f 245 246 247 248
f 248 247 249 250
f 246 245 251 252
f 253 254 255 256
f 257 258 259 260
f 258 257 254 253
f 247 246 252 249
f 258 253 256 259
f 267 266 269 270
f 271 272 262 261
f 261 273 245 271
f 270 248 274 267
f 279 262 272 257
f 254 269 266 280
f 269 272 271 270
f 254 257 272 269
f 270 271 245 248
usemtl rsc_f80008
f 261 262 263 264
f 265 266 267 268
usemtl rsc_000000
f 264 261 273 275
f 268 267 274 276
f 277 263 264 275
f 278 265 268 276
f 277 279 262 263
f 278 280 266 265
