# OGRS RSC model extracted from .ob3
# vertices: 732  faces: 618
mtllib coconutpalm.mtl

o coconutpalm
v 0.0 0.09 1.62
v 0.0 -0.09 1.62
v -0.09 0.0 1.62
v 0.09 0.0 1.62
v 0.0 0.19 0.54
v -0.09 0.0 1.08
v -0.19 0.0 0.54
v 0.0 0.09 1.08
v 0.0 -0.09 1.08
v 0.0 -0.19 0.54
v 0.09 0.0 1.08
v 0.19 0.0 0.54
v 0.0 0.19 1.08
v -0.19 0.0 1.08
v 0.0 -0.19 1.08
v 0.19 0.0 1.08
v 0.0 -0.19 0.0
v 0.09 0.0 0.54
v 0.19 0.0 0.0
v 0.0 -0.09 0.54
v 0.0 0.09 0.54
v 0.0 0.19 0.0
v -0.09 0.0 0.54
v -0.19 0.0 0.0
v 0.19 -0.58 1.97
v -0.05 -0.88 1.97
v -0.16 -0.58 1.97
v 0.16 -0.86 1.97
v 0.12 -0.19 1.82
v -0.14 -0.21 1.82
v 0.07 -1.11 1.82
v 0.0 -0.09 1.6600000000000001
v -0.05 0.39 2.36
v 0.3 0.56 2.46
v 0.26 0.28 2.36
v 0.09 0.63 2.46
v -0.12 0.09 2.07
v 0.12 0.02 2.07
v 0.3 0.86 2.38
v 0.0 0.0 1.8800000000000001
v -0.26 0.51 2.17
v -0.07 0.86 2.15
v 0.05 0.58 2.13
v -0.28 0.81 2.17
v -0.16 0.12 2.0100000000000002
v 0.07 0.19 1.97
v -0.26 1.04 2.0100000000000002
v 0.0 0.0 1.8
v -0.63 0.12 1.97
v -0.79 0.46 1.97
v -0.51 0.42 1.97
v -0.86 0.26 1.97
v -0.23 0.0 1.82
v -0.14 0.21 1.82
v -1.04 0.46 1.82
v -0.07 0.05 1.6600000000000001
v 0.39 0.53 1.97
v 0.79 0.46 1.97
v 0.6 0.26 1.97
v 0.65 0.65 1.97
v 0.09 0.28 1.82
v 0.21 0.09 1.82
v 0.93 0.67 1.82
v 0.09 0.09 1.6600000000000001
v 0.51 0.07 2.15
v 0.77 -0.26 2.15
v 0.46 -0.26 2.15
v 0.79 -0.05 2.15
v 0.09 0.09 1.99
v 0.07 -0.12 1.99
v 1.0 -0.21 1.99
v 0.32 -0.12 2.36
v 0.3 -0.51 2.46
v 0.09 -0.35000000000000003 2.36
v 0.46 -0.35000000000000003 2.46
v 0.09 0.05 2.07
v -0.05 -0.09 2.07
v 0.58 -0.65 2.38
v -0.21 -0.53 2.15
v -0.6 -0.58 2.18
v -0.46 -0.32 2.18
v -0.46 -0.7000000000000001 2.17
v 0.0 -0.19 1.97
v -0.19 -0.02 2.0100000000000002
v -0.7000000000000001 -0.79 2.0100000000000002
v -0.3 -0.23 2.36
v -0.63 -0.02 2.46
v -0.39 0.09 2.36
v -0.58 -0.23 2.46
v -0.02 -0.12 2.07
v -0.09 0.12 2.07
v -0.88 -0.21 2.38
v 0.0 0.12 1.8
v 0.0 -0.07 1.8
v -0.09 0.02 1.8
v 0.09 0.02 1.8
v 0.0 0.12 1.62
v -0.09 0.02 1.62
v 0.0 -0.07 1.62
v 0.09 0.02 1.62
v 0.04 -0.04 1.72
v 0.08 -0.05 1.73
v 0.09 -0.06 1.69
v 0.05 -0.05 1.68
v 0.06 -0.02 1.61
v 0.06 -0.04 1.6300000000000001
v 0.11 -0.04 1.6300000000000001
v 0.11 -0.02 1.61
v 0.06 -0.05 1.6500000000000001
v 0.1 -0.05 1.6500000000000001
v 0.06 0.04 1.61
v 0.06 0.01 1.61
v 0.11 0.01 1.59
v 0.11 0.05 1.6
v 0.06 0.06 1.77
v 0.06 0.02 1.78
v 0.02 0.02 1.75
v 0.02 0.05 1.74
v 0.07 0.09 1.73
v 0.03 0.08 1.71
v 0.04 0.08 1.68
v 0.08 0.1 1.68
v 0.07 -0.01 1.77
v 0.07 -0.03 1.75
v 0.03 -0.03 1.73
v 0.03 -0.01 1.74
v 0.09 0.09 1.6400000000000001
v 0.05 0.07 1.6400000000000001
v 0.05 0.06 1.62
v 0.1 0.07 1.62
v 0.07 0.08 1.75
v 0.03 0.07 1.73
v 0.03 0.03 1.6400000000000001
v 0.03 0.01 1.6400000000000001
v 0.03 0.0 1.6500000000000001
v 0.03 -0.01 1.6500000000000001
v 0.02 -0.01 1.7
v 0.01 0.0 1.71
v 0.02 -0.02 1.68
v 0.02 -0.02 1.7
v 0.02 0.05 1.69
v 0.02 0.05 1.68
v 0.01 0.02 1.71
v 0.01 0.04 1.7
v 0.02 0.04 1.6600000000000001
v 0.03 0.04 1.6500000000000001
v 0.03 -0.02 1.6600000000000001
v 0.01 0.03 1.71
v 0.12 -0.04 1.73
v 0.13 -0.05 1.7
v 0.15 -0.01 1.6300000000000001
v 0.15 -0.03 1.6500000000000001
v 0.14 -0.04 1.6600000000000001
v 0.15 0.05 1.6300000000000001
v 0.15 0.02 1.62
v 0.11 0.06 1.76
v 0.11 0.03 1.77
v 0.12 0.09 1.69
v 0.12 0.09 1.73
v 0.11 -0.01 1.76
v 0.12 -0.02 1.75
v 0.14 0.07 1.6400000000000001
v 0.13 0.08 1.6600000000000001
v 0.11 0.08 1.75
v 0.16 0.02 1.67
v 0.16 0.04 1.67
v 0.16 0.0 1.68
v 0.16 0.01 1.67
v 0.14 0.01 1.73
v 0.14 0.0 1.73
v 0.15 -0.01 1.72
v 0.15 -0.01 1.7
v 0.15 0.06 1.7
v 0.14 0.06 1.72
v 0.14 0.03 1.73
v 0.14 0.05 1.72
v 0.15 0.05 1.67
v 0.15 0.05 1.68
v 0.16 -0.01 1.69
v 0.14 0.04 1.73
v 0.03 0.1 1.69
v 0.03 0.14 1.71
v 0.06 0.13 1.72
v 0.06 0.09 1.7
v 0.11 0.1 1.6600000000000001
v 0.1 0.1 1.68
v 0.11 0.14 1.69
v 0.13 0.14 1.67
v 0.08 0.09 1.69
v 0.09 0.13 1.71
v 0.11 0.12 1.59
v 0.11 0.11 1.6300000000000001
v 0.14 0.15 1.6300000000000001
v 0.13 0.17 1.6
v -0.01 0.18 1.6
v -0.01 0.17 1.6400000000000001
v 0.0 0.12 1.6300000000000001
v 0.0 0.13 1.59
v 0.03 0.19 1.56
v 0.03 0.14 1.56
v 0.06 0.14 1.56
v 0.06 0.19 1.55
v -0.01 0.15 1.67
v 0.01 0.15 1.69
v 0.01 0.11 1.68
v 0.0 0.11 1.6600000000000001
v 0.09 0.18 1.56
v 0.08 0.14 1.56
v 0.1 0.13 1.57
v 0.11 0.17 1.58
v 0.01 0.18 1.58
v 0.01 0.14 1.57
v 0.08 0.1 1.6
v 0.08 0.1 1.62
v 0.08 0.09 1.6400000000000001
v 0.07 0.09 1.6500000000000001
v 0.03 0.09 1.6500000000000001
v 0.03 0.09 1.6400000000000001
v 0.05 0.09 1.6600000000000001
v 0.04 0.09 1.6600000000000001
v 0.04 0.11 1.59
v 0.05 0.11 1.59
v 0.03 0.1 1.62
v 0.03 0.11 1.59
v 0.07 0.11 1.59
v 0.07 0.1 1.6
v 0.07 0.09 1.6600000000000001
v 0.03 0.11 1.6
v 0.04 0.18 1.71
v 0.06 0.18 1.72
v 0.12 0.19 1.67
v 0.11 0.18 1.7
v 0.09 0.18 1.71
v 0.12 0.21 1.61
v 0.12 0.2 1.6400000000000001
v 0.01 0.22 1.61
v 0.01 0.21 1.6500000000000001
v 0.06 0.22 1.57
v 0.03 0.22 1.58
v 0.01 0.2 1.68
v 0.02 0.19 1.7
v 0.11 0.21 1.59
v 0.09 0.22 1.58
v 0.02 0.22 1.59
v 0.09 0.22 1.6500000000000001
v 0.09 0.23 1.6300000000000001
v 0.08 0.21 1.68
v 0.09 0.22 1.6600000000000001
v 0.04 0.22 1.67
v 0.05 0.21 1.68
v 0.06 0.21 1.69
v 0.06 0.23 1.61
v 0.05 0.23 1.62
v 0.04 0.22 1.6500000000000001
v 0.04 0.23 1.62
v 0.08 0.23 1.62
v 0.04 0.23 1.6300000000000001
v -0.01 -0.16 1.73
v -0.03 -0.12 1.74
v 0.01 -0.11 1.75
v 0.02 -0.15 1.74
v 0.08 -0.14 1.69
v 0.07 -0.14 1.72
v 0.06 -0.1 1.72
v 0.08 -0.1 1.69
v 0.05 -0.14 1.73
v 0.05 -0.1 1.74
v 0.08 -0.16 1.62
v 0.08 -0.15 1.6600000000000001
v 0.09 -0.1 1.6500000000000001
v 0.08 -0.11 1.61
v -0.06 -0.15 1.62
v -0.07 -0.15 1.6600000000000001
v -0.04 -0.18 1.6600000000000001
v -0.04 -0.19 1.62
v -0.03 -0.15 1.57
v -0.01 -0.18 1.59
v 0.02 -0.18 1.58
v 0.01 -0.14 1.56
v -0.06 -0.14 1.7
v -0.05 -0.13 1.72
v -0.03 -0.17 1.71
v -0.04 -0.17 1.7
v 0.04 -0.13 1.57
v 0.05 -0.17 1.59
v 0.07 -0.16 1.6
v 0.07 -0.12 1.59
v -0.05 -0.15 1.59
v -0.03 -0.19 1.6
v 0.05 -0.18 1.6400000000000001
v 0.05 -0.18 1.6600000000000001
v 0.05 -0.17 1.68
v 0.05 -0.17 1.69
v 0.0 -0.19 1.69
v 0.0 -0.19 1.68
v 0.02 -0.18 1.7
v 0.01 -0.18 1.7
v 0.01 -0.19 1.62
v 0.02 -0.19 1.62
v -0.01 -0.19 1.6600000000000001
v 0.0 -0.2 1.6300000000000001
v 0.04 -0.19 1.62
v 0.05 -0.18 1.6300000000000001
v 0.04 -0.17 1.7
v 0.0 -0.19 1.6400000000000001
v -0.03 -0.08 1.72
v 0.0 -0.07 1.73
v 0.06 -0.07 1.68
v 0.05 -0.06 1.71
v 0.03 -0.07 1.72
v 0.06 -0.08 1.61
v 0.06 -0.07 1.6500000000000001
v -0.06 -0.11 1.61
v -0.06 -0.1 1.6500000000000001
v 0.0 -0.1 1.57
v -0.03 -0.11 1.58
v -0.06 -0.1 1.69
v -0.05 -0.09 1.71
v 0.05 -0.08 1.59
v 0.03 -0.09 1.58
v -0.05 -0.11 1.59
v 0.02 -0.06 1.6500000000000001
v 0.02 -0.06 1.6300000000000001
v 0.01 -0.06 1.68
v 0.02 -0.06 1.6600000000000001
v -0.04 -0.07 1.67
v -0.03 -0.07 1.68
v -0.02 -0.07 1.69
v -0.01 -0.06 1.69
v -0.01 -0.07 1.61
v -0.02 -0.08 1.61
v -0.04 -0.08 1.6500000000000001
v -0.03 -0.08 1.62
v 0.01 -0.07 1.62
v 0.01 -0.07 1.61
v -0.04 -0.08 1.6300000000000001
v 0.05 0.08 1.6
v 0.09 0.1 1.62
v 0.1 0.07 1.6300000000000001
v 0.06 0.06 1.61
v 0.09 0.0 1.57
v 0.08 0.02 1.6
v 0.12 0.03 1.61
v 0.13 0.01 1.59
v 0.08 0.03 1.61
v 0.11 0.04 1.62
v 0.11 0.0 1.51
v 0.1 0.0 1.54
v 0.14 0.0 1.55
v 0.15 0.01 1.51
v 0.1 0.13 1.5
v 0.09 0.14 1.54
v 0.06 0.11 1.54
v 0.06 0.1 1.5
v 0.12 0.1 1.47
v 0.08 0.08 1.47
v 0.09 0.05 1.47
v 0.13 0.07 1.46
v 0.08 0.13 1.58
v 0.08 0.12 1.6
v 0.05 0.09 1.59
v 0.05 0.1 1.57
v 0.14 0.04 1.47
v 0.1 0.03 1.48
v 0.1 0.01 1.49
v 0.15 0.02 1.49
v 0.11 0.12 1.48
v 0.07 0.09 1.48
v 0.07 0.02 1.52
v 0.07 0.02 1.54
v 0.07 0.02 1.55
v 0.06 0.03 1.57
v 0.05 0.07 1.56
v 0.05 0.07 1.55
v 0.05 0.05 1.57
v 0.05 0.06 1.57
v 0.06 0.06 1.5
v 0.07 0.05 1.5
v 0.05 0.07 1.53
v 0.06 0.07 1.51
v 0.07 0.04 1.5
v 0.07 0.03 1.51
v 0.06 0.04 1.57
v 0.05 0.07 1.51
v 0.13 0.12 1.61
v 0.14 0.09 1.62
v 0.17 0.04 1.58
v 0.16 0.05 1.61
v 0.15 0.06 1.62
v 0.18 0.04 1.52
v 0.17 0.03 1.55
v 0.14 0.14 1.51
v 0.13 0.14 1.55
v 0.17 0.09 1.48
v 0.15 0.11 1.48
v 0.12 0.14 1.58
v 0.13 0.13 1.6
v 0.18 0.05 1.5
v 0.18 0.06 1.49
v 0.15 0.13 1.49
v 0.18 0.07 1.55
v 0.18 0.07 1.53
v 0.17 0.08 1.58
v 0.18 0.07 1.57
v 0.16 0.12 1.57
v 0.16 0.11 1.58
v 0.16 0.1 1.59
v 0.18 0.1 1.51
v 0.17 0.11 1.52
v 0.16 0.12 1.55
v 0.17 0.12 1.52
v 0.18 0.08 1.53
v 0.18 0.08 1.52
v 0.17 0.08 1.59
v 0.16 0.12 1.53
v -0.13 0.02 1.76
v -0.09 0.02 1.77
v -0.09 -0.02 1.78
v -0.13 -0.02 1.77
v -0.14 -0.08 1.73
v -0.13 -0.07 1.76
v -0.1 -0.07 1.75
v -0.1 -0.09 1.73
v -0.13 -0.05 1.76
v -0.09 -0.06 1.77
v -0.15 -0.08 1.6600000000000001
v -0.14 -0.08 1.7
v -0.11 -0.1 1.69
v -0.11 -0.09 1.6500000000000001
v -0.11 0.06 1.6500000000000001
v -0.11 0.07 1.69
v -0.14 0.05 1.7
v -0.15 0.04 1.6600000000000001
v -0.12 0.02 1.62
v -0.15 0.02 1.6300000000000001
v -0.16 -0.02 1.62
v -0.12 -0.02 1.61
v -0.1 0.06 1.73
v -0.1 0.04 1.75
v -0.14 0.03 1.75
v -0.14 0.04 1.73
v -0.12 -0.06 1.62
v -0.15 -0.05 1.6300000000000001
v -0.15 -0.07 1.6400000000000001
v -0.12 -0.08 1.6400000000000001
v -0.12 0.04 1.6300000000000001
v -0.15 0.03 1.6400000000000001
v -0.16 -0.05 1.68
v -0.16 -0.05 1.7
v -0.16 -0.05 1.71
v -0.16 -0.04 1.73
v -0.16 0.01 1.72
v -0.16 0.01 1.71
v -0.16 -0.02 1.74
v -0.16 0.0 1.73
v -0.17 0.0 1.6600000000000001
v -0.17 -0.02 1.6600000000000001
v -0.16 0.02 1.7
v -0.17 0.01 1.67
v -0.17 -0.03 1.6600000000000001
v -0.17 -0.04 1.67
v -0.16 -0.03 1.73
v -0.17 0.01 1.68
v -0.06 0.02 1.76
v -0.06 -0.02 1.76
v -0.07 -0.08 1.72
v -0.06 -0.07 1.75
v -0.06 -0.05 1.76
v -0.08 -0.08 1.6500000000000001
v -0.07 -0.08 1.69
v -0.08 0.04 1.6500000000000001
v -0.07 0.05 1.69
v -0.08 -0.02 1.62
v -0.08 0.02 1.62
v -0.06 0.04 1.72
v -0.06 0.03 1.74
v -0.08 -0.07 1.6400000000000001
v -0.08 -0.05 1.62
v -0.08 0.03 1.6300000000000001
v -0.05 -0.05 1.68
v -0.06 -0.05 1.67
v -0.05 -0.04 1.72
v -0.05 -0.05 1.7
v -0.05 0.01 1.7
v -0.05 0.01 1.71
v -0.05 0.0 1.72
v -0.05 -0.02 1.72
v -0.06 -0.02 1.6500000000000001
v -0.06 0.0 1.6500000000000001
v -0.05 0.02 1.68
v -0.06 0.01 1.6600000000000001
v -0.06 -0.04 1.6600000000000001
v -0.06 -0.03 1.6500000000000001
v -0.05 -0.03 1.72
v -0.06 0.01 1.67
v 0.08 -0.01 1.62
v 0.12 -0.03 1.6300000000000001
v 0.11 -0.06 1.6400000000000001
v 0.07 -0.03 1.6300000000000001
v 0.05 -0.07 1.58
v 0.05 -0.07 1.61
v 0.09 -0.1 1.61
v 0.08 -0.11 1.59
v 0.06 -0.06 1.62
v 0.09 -0.08 1.6300000000000001
v 0.06 -0.08 1.51
v 0.06 -0.08 1.55
v 0.09 -0.12 1.55
v 0.1 -0.11 1.52
v 0.16 -0.01 1.52
v 0.16 0.0 1.56
v 0.11 0.01 1.55
v 0.11 0.0 1.52
v 0.15 -0.03 1.48
v 0.11 -0.01 1.49
v 0.1 -0.03 1.48
v 0.14 -0.06 1.47
v 0.15 -0.01 1.6
v 0.14 -0.02 1.61
v 0.09 0.0 1.6
v 0.1 0.0 1.59
v 0.12 -0.08 1.48
v 0.08 -0.05 1.49
v 0.07 -0.07 1.5
v 0.11 -0.1 1.5
v 0.16 -0.02 1.5
v 0.11 0.0 1.5
v 0.06 -0.04 1.53
v 0.05 -0.04 1.55
v 0.05 -0.04 1.56
v 0.05 -0.04 1.58
v 0.07 -0.01 1.57
v 0.07 0.0 1.57
v 0.06 -0.02 1.59
v 0.07 -0.01 1.58
v 0.08 -0.01 1.52
v 0.07 -0.02 1.51
v 0.08 0.0 1.55
v 0.07 -0.03 1.52
v 0.06 -0.04 1.52
v 0.05 -0.03 1.58
v 0.08 0.0 1.53
v 0.16 -0.06 1.6300000000000001
v 0.15 -0.08 1.6400000000000001
v 0.13 -0.12 1.59
v 0.13 -0.12 1.62
v 0.14 -0.1 1.6300000000000001
v 0.14 -0.12 1.52
v 0.13 -0.13 1.56
v 0.19 -0.05 1.53
v 0.19 -0.04 1.57
v 0.17 -0.08 1.49
v 0.19 -0.06 1.5
v 0.18 -0.05 1.6
v 0.17 -0.05 1.61
v 0.15 -0.12 1.51
v 0.16 -0.1 1.5
v 0.19 -0.05 1.51
v 0.17 -0.12 1.56
v 0.17 -0.11 1.55
v 0.17 -0.11 1.59
v 0.17 -0.11 1.58
v 0.19 -0.08 1.58
v 0.19 -0.08 1.59
v 0.18 -0.08 1.6
v 0.17 -0.09 1.6
v 0.19 -0.09 1.53
v 0.19 -0.08 1.53
v 0.19 -0.07 1.57
v 0.2 -0.08 1.54
v 0.18 -0.11 1.54
v 0.18 -0.1 1.53
v 0.17 -0.11 1.6
v 0.2 -0.08 1.55
v -0.11 -0.11 1.68
v -0.12 -0.06 1.69
v -0.09 -0.06 1.7
v -0.09 -0.11 1.69
v -0.04 -0.1 1.6400000000000001
v -0.05 -0.1 1.67
v -0.05 -0.06 1.67
v -0.04 -0.06 1.6500000000000001
v -0.06 -0.1 1.68
v -0.06 -0.06 1.69
v -0.04 -0.1 1.58
v -0.04 -0.1 1.61
v -0.03 -0.05 1.61
v -0.04 -0.06 1.57
v -0.15 -0.07 1.57
v -0.16 -0.07 1.61
v -0.14 -0.11 1.61
v -0.13 -0.11 1.57
v -0.12 -0.06 1.54
v -0.12 -0.11 1.55
v -0.09 -0.11 1.54
v -0.09 -0.06 1.53
v -0.15 -0.07 1.6500000000000001
v -0.14 -0.06 1.67
v -0.13 -0.11 1.6600000000000001
v -0.13 -0.11 1.6500000000000001
v -0.07 -0.06 1.54
v -0.07 -0.1 1.55
v -0.05 -0.1 1.56
v -0.05 -0.06 1.56
v -0.14 -0.07 1.55
v -0.13 -0.11 1.56
v -0.07 -0.13 1.59
v -0.06 -0.13 1.61
v -0.07 -0.13 1.6300000000000001
v -0.07 -0.13 1.6400000000000001
v -0.11 -0.13 1.6400000000000001
v -0.11 -0.13 1.6300000000000001
v -0.09 -0.13 1.6500000000000001
v -0.1 -0.13 1.6500000000000001
v -0.1 -0.13 1.58
v -0.09 -0.13 1.57
v -0.11 -0.13 1.61
v -0.11 -0.13 1.58
v -0.08 -0.13 1.58
v -0.07 -0.13 1.58
v -0.08 -0.13 1.6500000000000001
v -0.11 -0.13 1.59
v -0.12 -0.02 1.68
v -0.1 -0.01 1.69
v -0.05 -0.01 1.6400000000000001
v -0.06 -0.01 1.67
v -0.07 -0.01 1.68
v -0.05 -0.01 1.58
v -0.05 -0.01 1.61
v -0.14 -0.02 1.57
v -0.15 -0.02 1.61
v -0.1 -0.01 1.54
v -0.12 -0.02 1.55
v -0.14 -0.02 1.6500000000000001
v -0.13 -0.02 1.6600000000000001
v -0.06 -0.01 1.56
v -0.07 -0.01 1.55
v -0.14 -0.02 1.56
v -0.08 0.01 1.61
v -0.08 0.01 1.59
v -0.08 0.01 1.6400000000000001
v -0.08 0.01 1.6300000000000001
v -0.12 0.01 1.6300000000000001
v -0.12 0.01 1.6400000000000001
v -0.11 0.01 1.6500000000000001
v -0.1 0.01 1.6500000000000001
v -0.1 0.01 1.57
v -0.11 0.01 1.58
v -0.13 0.01 1.61
v -0.12 0.01 1.58
v -0.08 0.01 1.58
v -0.09 0.01 1.58
v -0.09 0.01 1.6500000000000001
v -0.12 0.01 1.59
v -0.08 0.1 1.69
v -0.05 0.13 1.7
v -0.03 0.09 1.69
v -0.07 0.07 1.69
v -0.04 0.03 1.6300000000000001
v -0.04 0.04 1.6600000000000001
v 0.0 0.05 1.6600000000000001
v 0.0 0.04 1.6300000000000001
v -0.05 0.05 1.67
v -0.01 0.06 1.68
v -0.05 0.05 1.57
v -0.04 0.04 1.6
v 0.0 0.04 1.6
v -0.01 0.06 1.56
v -0.08 0.19 1.6
v -0.08 0.18 1.6300000000000001
v -0.11 0.14 1.6300000000000001
v -0.11 0.15 1.59
v -0.07 0.16 1.55
v -0.1 0.14 1.56
v -0.09 0.11 1.55
v -0.05 0.14 1.54
v -0.07 0.17 1.67
v -0.06 0.15 1.68
v -0.09 0.12 1.67
v -0.1 0.13 1.6600000000000001
v -0.03 0.1 1.54
v -0.07 0.08 1.55
v -0.06 0.06 1.56
v -0.02 0.08 1.55
v -0.08 0.18 1.58
v -0.11 0.15 1.57
v -0.08 0.06 1.59
v -0.08 0.06 1.61
v -0.08 0.05 1.62
v -0.08 0.06 1.6400000000000001
v -0.1 0.09 1.6500000000000001
v -0.11 0.1 1.6400000000000001
v -0.09 0.07 1.6500000000000001
v -0.11 0.1 1.59
v -0.1 0.09 1.58
v -0.11 0.11 1.62
v -0.11 0.11 1.59
v -0.09 0.08 1.58
v -0.09 0.07 1.59
v -0.08 0.06 1.6500000000000001
v -0.11 0.11 1.6
v -0.01 0.15 1.69
v 0.01 0.12 1.69
v 0.03 0.08 1.6300000000000001
v 0.03 0.08 1.6600000000000001
v 0.02 0.09 1.67
v 0.02 0.09 1.57
v 0.03 0.08 1.6
v -0.04 0.19 1.59
v -0.04 0.19 1.6300000000000001
v -0.02 0.15 1.55
v -0.03 0.18 1.56
v -0.03 0.18 1.6600000000000001
v -0.02 0.16 1.67
v 0.01 0.11 1.56
v 0.0 0.13 1.55
v -0.04 0.19 1.57
v 0.03 0.12 1.61
v 0.03 0.13 1.59
v 0.03 0.12 1.6400000000000001
v 0.03 0.12 1.62
v 0.0 0.17 1.6400000000000001
v 0.01 0.16 1.6400000000000001
v 0.01 0.15 1.6500000000000001
v 0.02 0.14 1.6500000000000001
v 0.01 0.16 1.58
v 0.0 0.17 1.59
v 0.0 0.17 1.62
v 0.02 0.14 1.59
v 0.02 0.14 1.58
v 0.03 0.13 1.6400000000000001
v 0.0 0.18 1.6

usemtl rsc_005008
f 1 2 3
f 1 4 2
f 25 26 27
f 25 28 26
f 29 27 30
f 29 25 27
f 28 31 26
f 32 29 30
f 33 34 35
f 33 36 34
f 37 35 38
f 37 33 35
f 36 39 34
f 40 37 38
f 41 42 43
f 41 44 42
f 45 43 46
f 45 41 43
f 44 47 42
f 48 45 46
f 49 50 51
f 49 52 50
f 53 51 54
f 53 49 51
f 52 55 50
f 56 53 54
f 57 58 59
f 57 60 58
f 61 59 62
f 61 57 59
f 60 63 58
f 64 61 62
f 65 66 67
f 65 68 66
f 69 67 70
f 69 65 67
f 68 71 66
f 48 69 70
f 72 73 74
f 72 75 73
f 76 74 77
f 76 72 74
f 75 78 73
f 40 76 77
f 79 80 81
f 79 82 80
f 83 81 84
f 83 79 81
f 82 85 80
f 48 83 84
f 86 87 88
f 86 89 87
f 90 88 91
f 90 86 88
f 89 92 87
f 40 90 91
f 93 94 95
f 93 96 94
f 97 95 98
f 97 93 95
f 98 94 99
f 98 95 94
f 99 96 100
f 99 94 96
f 100 93 97
f 100 96 93
usemtl rsc_904008
f 5 6 7
f 5 8 6
f 7 9 10
f 7 6 9
f 10 11 12
f 10 9 11
f 12 8 5
f 12 11 8
f 13 3 14
f 13 1 3
f 14 2 15
f 14 3 2
f 15 4 16
f 15 2 4
f 16 1 13
f 16 4 1
f 17 18 19
f 17 20 18
f 19 21 22
f 19 18 21
f 22 23 24
f 22 21 23
f 24 20 17
f 24 23 20
usemtl rsc_d0b058
f 101 102 103 104
f 105 106 107 108
f 109 110 107 106
f 111 112 113 114
f 115 116 117 118
f 119 120 121 122
f 123 124 125 126
f 127 128 129 130
f 116 123 126 117
f 112 105 108 113
f 131 115 118 132
f 129 111 114 130
f 122 121 128 127
f 104 103 110 109
f 131 132 120 119
f 125 124 102 101
f 112 111 133 134
f 106 105 135 136
f 105 112 134 135
f 126 125 137 138
f 101 104 139 140
f 121 120 141 142
f 125 101 140 137
f 117 126 138 143
f 120 132 144 141
f 129 128 145 146
f 104 109 147 139
f 132 118 148 144
f 128 121 142 145
f 111 129 146 133
f 118 117 143 148
f 109 106 136 147
f 144 148 143 138 137 140 139 147 136 135 134 133 146 145 142 141
f 149 150 103 102
f 151 108 107 152
f 153 152 107 110
f 154 114 113 155
f 115 156 157 116
f 119 122 158 159
f 123 160 161 124
f 127 130 162 163
f 116 157 160 123
f 155 113 108 151
f 131 164 156 115
f 162 130 114 154
f 122 127 163 158
f 150 153 110 103
f 131 119 159 164
f 161 149 102 124
f 155 165 166 154
f 152 167 168 151
f 151 168 165 155
f 160 169 170 161
f 149 171 172 150
f 158 173 174 159
f 161 170 171 149
f 157 175 169 160
f 159 174 176 164
f 162 177 178 163
f 150 172 179 153
f 164 176 180 156
f 163 178 173 158
f 154 166 177 162
f 156 180 175 157
f 153 179 167 152
f 176 174 173 178 177 166 165 168 167 179 172 171 170 169 175 180
f 181 182 183 184
f 185 186 187 188
f 189 190 187 186
f 191 192 193 194
f 195 196 197 198
f 199 200 201 202
f 203 204 205 206
f 207 208 209 210
f 196 203 206 197
f 192 185 188 193
f 211 195 198 212
f 209 191 194 210
f 202 201 208 207
f 184 183 190 189
f 211 212 200 199
f 205 204 182 181
f 192 191 213 214
f 186 185 215 216
f 185 192 214 215
f 206 205 217 218
f 181 184 219 220
f 201 200 221 222
f 205 181 220 217
f 197 206 218 223
f 200 212 224 221
f 209 208 225 226
f 184 189 227 219
f 212 198 228 224
f 208 201 222 225
f 191 209 226 213
f 198 197 223 228
f 189 186 216 227
f 224 228 223 218 217 220 219 227 216 215 214 213 226 225 222 221
f 229 230 183 182
f 231 188 187 232
f 233 232 187 190
f 234 194 193 235
f 195 236 237 196
f 199 202 238 239
f 203 240 241 204
f 207 210 242 243
f 196 237 240 203
f 235 193 188 231
f 211 244 236 195
f 242 210 194 234
f 202 207 243 238
f 230 233 190 183
f 211 199 239 244
f 241 229 182 204
f 235 245 246 234
f 232 247 248 231
f 231 248 245 235
f 240 249 249 241
f 229 250 251 230
f 238 252 253 239
f 241 249 250 229
f 237 254 249 240
f 239 253 255 244
f 242 256 256 243
f 230 251 247 233
f 244 255 257 236
f 243 256 252 238
f 234 246 256 242
f 236 257 254 237
f 233 247 247 232
f 255 253 252 256 256 246 245 248 247 247 251 250 249 249 254 257
f 258 259 260 261
f 262 263 264 265
f 266 267 264 263
f 268 269 270 271
f 272 273 274 275
f 276 277 278 279
f 280 281 282 283
f 284 285 286 287
f 273 280 283 274
f 269 262 265 270
f 288 272 275 289
f 286 268 271 287
f 279 278 285 284
f 261 260 267 266
f 288 289 277 276
f 282 281 259 258
f 269 268 290 291
f 263 262 292 293
f 262 269 291 292
f 283 282 294 295
f 258 261 296 297
f 278 277 298 299
f 282 258 297 294
f 274 283 295 300
f 277 289 301 298
f 286 285 302 303
f 261 266 304 296
f 289 275 305 301
f 285 278 299 302
f 268 286 303 290
f 275 274 300 305
f 266 263 293 304
f 301 305 300 295 294 297 296 304 293 292 291 290 303 302 299 298
f 306 307 260 259
f 308 265 264 309
f 310 309 264 267
f 311 271 270 312
f 272 313 314 273
f 276 279 315 316
f 280 317 318 281
f 284 287 319 320
f 273 314 317 280
f 312 270 265 308
f 288 321 313 272
f 319 287 271 311
f 279 284 320 315
f 307 310 267 260
f 288 276 316 321
f 318 306 259 281
f 312 322 323 311
f 309 324 325 308
f 308 325 322 312
f 317 326 327 318
f 306 328 329 307
f 315 330 331 316
f 318 327 328 306
f 314 332 326 317
f 316 331 333 321
f 319 334 335 320
f 307 329 324 310
f 321 333 336 313
f 320 335 330 315
f 311 323 334 319
f 313 336 332 314
f 310 324 324 309
f 333 331 330 335 334 323 322 325 324 324 329 328 327 326 332 336
f 337 338 339 340
f 341 342 343 344
f 345 346 343 342
f 347 348 349 350
f 351 352 353 354
f 355 356 357 358
f 359 360 361 362
f 363 364 365 366
f 352 359 362 353
f 348 341 344 349
f 367 351 354 368
f 365 347 350 366
f 358 357 364 363
f 340 339 346 345
f 367 368 356 355
f 361 360 338 337
f 348 347 369 370
f 342 341 371 372
f 341 348 370 371
f 362 361 373 374
f 337 340 375 376
f 357 356 377 378
f 361 337 376 373
f 353 362 374 379
f 356 368 380 377
f 365 364 381 382
f 340 345 383 375
f 368 354 384 380
f 364 357 378 381
f 347 365 382 369
f 354 353 379 384
f 345 342 372 383
f 380 384 379 374 373 376 375 383 372 371 370 369 382 381 378 377
f 385 386 339 338
f 387 344 343 388
f 389 388 343 346
f 390 350 349 391
f 351 392 393 352
f 355 358 394 395
f 359 396 397 360
f 363 366 398 399
f 352 393 396 359
f 391 349 344 387
f 367 400 392 351
f 398 366 350 390
f 358 363 399 394
f 386 389 346 339
f 367 355 395 400
f 397 385 338 360
f 391 401 402 390
f 388 403 404 387
f 387 404 401 391
f 396 405 405 397
f 385 406 407 386
f 394 408 409 395
f 397 405 406 385
f 393 410 405 396
f 395 409 411 400
f 398 412 413 399
f 386 407 414 389
f 400 411 415 392
f 399 413 408 394
f 390 402 412 398
f 392 415 410 393
f 389 414 403 388
f 411 409 408 413 412 402 401 404 403 414 407 406 405 405 410 415
f 416 417 418 419
f 420 421 422 423
f 424 425 422 421
f 426 427 428 429
f 430 431 432 433
f 434 435 436 437
f 438 439 440 441
f 442 443 444 445
f 431 438 441 432
f 427 420 423 428
f 446 430 433 447
f 444 426 429 445
f 437 436 443 442
f 419 418 425 424
f 446 447 435 434
f 440 439 417 416
f 427 426 448 449
f 421 420 450 451
f 420 427 449 450
f 441 440 452 453
f 416 419 454 455
f 436 435 456 457
f 440 416 455 452
f 432 441 453 458
f 435 447 459 456
f 444 443 460 461
f 419 424 462 454
f 447 433 463 459
f 443 436 457 460
f 426 444 461 448
f 433 432 458 463
f 424 421 451 462
f 459 463 458 453 452 455 454 462 451 450 449 448 461 460 457 456
f 464 465 418 417
f 466 423 422 467
f 468 467 422 425
f 469 429 428 470
f 430 471 472 431
f 434 437 473 474
f 438 475 476 439
f 442 445 477 478
f 431 472 475 438
f 470 428 423 466
f 446 479 471 430
f 477 445 429 469
f 437 442 478 473
f 465 468 425 418
f 446 434 474 479
f 476 464 417 439
f 470 480 481 469
f 467 482 483 466
f 466 483 480 470
f 475 484 485 476
f 464 486 487 465
f 473 488 489 474
f 476 485 486 464
f 472 490 484 475
f 474 489 491 479
f 477 492 493 478
f 465 487 494 468
f 479 491 495 471
f 478 493 488 473
f 469 481 492 477
f 471 495 490 472
f 468 494 482 467
f 491 489 488 493 492 481 480 483 482 494 487 486 485 484 490 495
f 496 497 498 499
f 500 501 502 503
f 504 505 502 501
f 506 507 508 509
f 510 511 512 513
f 514 515 516 517
f 518 519 520 521
f 522 523 524 525
f 511 518 521 512
f 507 500 503 508
f 526 510 513 527
f 524 506 509 525
f 517 516 523 522
f 499 498 505 504
f 526 527 515 514
f 520 519 497 496
f 507 506 528 529
f 501 500 530 531
f 500 507 529 530
f 521 520 532 533
f 496 499 534 535
f 516 515 536 537
f 520 496 535 532
f 512 521 533 538
f 515 527 536 536
f 524 523 539 540
f 499 504 541 534
f 527 513 542 536
f 523 516 537 539
f 506 524 540 528
f 513 512 538 542
f 504 501 531 541
f 536 542 538 533 532 535 534 541 531 530 529 528 540 539 537 536
f 543 544 498 497
f 545 503 502 546
f 547 546 502 505
f 548 509 508 549
f 510 550 551 511
f 514 517 552 553
f 518 554 555 519
f 522 525 556 557
f 511 551 554 518
f 549 508 503 545
f 526 558 550 510
f 556 525 509 548
f 517 522 557 552
f 544 547 505 498
f 526 514 553 558
f 555 543 497 519
f 549 559 560 548
f 546 561 562 545
f 545 562 559 549
f 554 563 564 555
f 543 565 566 544
f 552 567 568 553
f 555 564 565 543
f 551 569 563 554
f 553 568 570 558
f 556 571 572 557
f 544 566 573 547
f 558 570 574 550
f 557 572 567 552
f 548 560 571 556
f 550 574 569 551
f 547 573 561 546
f 570 568 567 572 571 560 559 562 561 573 566 565 564 563 569 574
f 575 576 577 578
f 579 580 581 582
f 583 584 581 580
f 585 586 587 588
f 589 590 591 592
f 593 594 595 596
f 597 598 599 600
f 601 602 603 604
f 590 597 600 591
f 586 579 582 587
f 605 589 592 606
f 603 585 588 604
f 596 595 602 601
f 578 577 584 583
f 605 606 594 593
f 599 598 576 575
f 586 585 607 608
f 580 579 609 610
f 579 586 608 609
f 600 599 611 612
f 575 578 613 614
f 595 594 615 616
f 599 575 614 611
f 591 600 612 617
f 594 606 618 615
f 603 602 619 620
f 578 583 621 613
f 606 592 622 618
f 602 595 616 619
f 585 603 620 607
f 592 591 617 622
f 583 580 610 621
f 618 622 617 612 611 614 613 621 610 609 608 607 620 619 616 615
f 623 624 577 576
f 625 582 581 626
f 627 626 581 584
f 628 588 587 629
f 589 630 631 590
f 593 596 632 633
f 597 634 635 598
f 601 604 636 637
f 590 631 634 597
f 629 587 582 625
f 605 638 630 589
f 636 604 588 628
f 596 601 637 632
f 624 627 584 577
f 605 593 633 638
f 635 623 576 598
f 629 639 640 628
f 626 641 642 625
f 625 642 639 629
f 634 643 644 635
f 623 645 646 624
f 632 647 648 633
f 635 644 645 623
f 631 649 643 634
f 633 648 650 638
f 636 651 652 637
f 624 646 653 627
f 638 650 654 630
f 637 652 647 632
f 628 640 651 636
f 630 654 649 631
f 627 653 641 626
f 650 648 647 652 651 640 639 642 641 653 646 645 644 643 649 654
f 655 656 657 658
f 659 660 661 662
f 663 664 661 660
f 665 666 667 668
f 669 670 671 672
f 673 674 675 676
f 677 678 679 680
f 681 682 683 684
f 670 677 680 671
f 666 659 662 667
f 685 669 672 686
f 683 665 668 684
f 676 675 682 681
f 658 657 664 663
f 685 686 674 673
f 679 678 656 655
f 666 665 687 688
f 660 659 689 690
f 659 666 688 689
f 680 679 691 692
f 655 658 693 691
f 675 674 694 695
f 679 655 691 691
f 671 680 692 696
f 674 686 697 694
f 683 682 698 699
f 658 663 700 693
f 686 672 701 697
f 682 675 695 698
f 665 683 699 687
f 672 671 696 701
f 663 660 690 700
f 697 701 696 692 691 691 693 700 690 689 688 687 699 698 695 694
f 702 703 657 656
f 704 662 661 705
f 706 705 661 664
f 707 668 667 708
f 669 709 710 670
f 673 676 711 712
f 677 713 714 678
f 681 684 715 716
f 670 710 713 677
f 708 667 662 704
f 685 717 709 669
f 715 684 668 707
f 676 681 716 711
f 703 706 664 657
f 685 673 712 717
f 714 702 656 678
f 708 718 719 707
f 705 720 721 704
f 704 721 718 708
f 713 722 723 714
f 702 724 725 703
f 711 726 727 712
f 714 723 724 702
f 710 728 722 713
f 712 727 727 717
f 715 729 730 716
f 703 725 731 706
f 717 727 732 709
f 716 730 726 711
f 707 719 729 715
f 709 732 728 710
f 706 731 720 705
f 727 727 726 730 729 719 718 721 720 731 725 724 723 722 728 732
