# OGRS RSC model extracted from .ob3
# vertices: 334  faces: 234
mtllib depletedtomato.mtl

o depletedtomato
v -0.13 0.09 0.33
v -0.1 0.06 0.31
v -0.09 0.06 0.3
v -0.1 0.04 0.29
v -0.09 0.04 0.28
v -0.07 0.06 0.29
v -0.06 0.06 0.29
v -0.03 0.08 0.28
v -0.06 0.1 0.3
v -0.05 0.11 0.3
v -0.06 0.14 0.31
v -0.08 0.16 0.33
v -0.1 0.13 0.33
v -0.11 0.11 0.33
v -0.1 0.1 0.32
v -0.03 0.1 0.13
v -0.03 0.07 0.12
v -0.02 0.06 0.12
v -0.03 0.06 0.12
v -0.02 0.05 0.12
v -0.01 0.06 0.12
v 0.0 0.06 0.12
v 0.02 0.06 0.12
v 0.01 0.07 0.12
v 0.03 0.08 0.11
v 0.03 0.1 0.12
v 0.02 0.12 0.11
v 0.0 0.12 0.12
v -0.02 0.11 0.12
v -0.01 0.1 0.13
v -0.2 0.04 0.35000000000000003
v -0.17 0.05 0.34
v -0.16 0.05 0.34
v -0.15 0.05 0.33
v -0.14 0.05 0.32
v -0.15 0.06 0.34
v -0.15 0.07 0.34
v -0.15 0.1 0.33
v -0.17 0.09 0.34
v -0.18 0.1 0.34
v -0.2 0.1 0.34
v -0.22 0.1 0.34
v -0.22 0.07 0.35000000000000003
v -0.21 0.06 0.35000000000000003
v -0.19 0.07 0.35000000000000003
v -0.1 0.03 0.28
v -0.06 0.02 0.28
v -0.05 0.01 0.27
v -0.04 0.02 0.27
v -0.03 0.02 0.27
v -0.04 0.0 0.27
v -0.04 -0.02 0.27
v -0.04 -0.05 0.26
v -0.07 -0.05 0.26
v -0.07 -0.07 0.25
v -0.11 -0.07 0.26
v -0.14 -0.05 0.26
v -0.13 -0.02 0.27
v -0.11 0.0 0.27
v -0.1 0.01 0.27
v -0.08 0.07 0.14
v -0.05 0.08 0.14
v -0.04 0.08 0.14
v -0.04 0.07 0.13
v -0.04 0.08 0.13
v -0.04 0.09 0.14
v -0.03 0.1 0.15
v -0.03 0.12 0.15
v -0.05 0.12 0.15
v -0.05 0.13 0.15
v -0.07 0.13 0.15
v -0.09 0.13 0.15
v -0.09 0.11 0.15
v -0.09 0.09 0.14
v -0.07 0.09 0.15
v -0.03 -0.07 0.38
v -0.03 -0.04 0.38
v -0.03 -0.03 0.38
v -0.02 -0.02 0.39
v -0.03 -0.01 0.39
v -0.04 -0.02 0.39
v -0.05 -0.01 0.39
v -0.08 0.0 0.39
v -0.07 -0.02 0.39
v -0.09 -0.03 0.39
v -0.1 -0.05 0.4
v -0.1 -0.07 0.39
v -0.07 -0.08 0.39
v -0.06 -0.07 0.39
v -0.05 -0.06 0.39
v -0.07 -0.08 0.44
v -0.07 -0.06 0.45
v -0.08 -0.06 0.45
v -0.07 -0.05 0.43
v -0.08 -0.05 0.44
v -0.09 -0.05 0.45
v -0.1 -0.05 0.45
v -0.12 -0.05 0.45
v -0.11 -0.07 0.45
v -0.12 -0.07 0.45
v -0.12 -0.09 0.46
v -0.11 -0.11 0.45
v -0.09 -0.1 0.45
v -0.08 -0.09 0.45
v -0.08 -0.08 0.45
v 0.07 -0.11 0.42
v 0.05 -0.09 0.42
v 0.04 -0.09 0.42
v 0.04 -0.08 0.42
v 0.03 -0.08 0.42
v 0.03 -0.09 0.43
v 0.02 -0.1 0.43
v 0.0 -0.11 0.43
v 0.02 -0.12 0.43
v 0.02 -0.14 0.43
v 0.03 -0.15 0.44
v 0.05 -0.16 0.43
v 0.06 -0.14 0.43
v 0.07 -0.13 0.43
v 0.06 -0.12 0.43
v 0.06 0.01 0.44
v 0.04 -0.02 0.43
v 0.04 -0.04 0.43
v 0.02 -0.04 0.42
v 0.02 -0.05 0.42
v 0.04 -0.06 0.43
v 0.05 -0.07 0.43
v 0.07 -0.09 0.43
v 0.08 -0.06 0.44
v 0.1 -0.07 0.44
v 0.12 -0.05 0.45
v 0.14 -0.02 0.45
v 0.11 0.0 0.45
v 0.09 0.0 0.44
v 0.08 -0.01 0.44
v 0.02 0.03 0.27
v 0.03 0.02 0.26
v 0.04 0.01 0.26
v 0.03 0.0 0.26
v 0.04 0.0 0.25
v 0.05 0.01 0.26
v 0.07 0.02 0.26
v 0.06 0.03 0.26
v 0.07 0.03 0.27
v 0.07 0.05 0.27
v 0.06 0.06 0.27
v 0.04 0.05 0.27
v 0.03 0.05 0.27
v 0.04 0.04 0.27
v 0.11 0.01 0.16
v 0.09 0.0 0.16
v 0.08 -0.01 0.16
v 0.07 -0.01 0.15
v 0.07 -0.01 0.16
v 0.08 -0.02 0.17
v 0.08 -0.03 0.17
v 0.08 -0.05 0.17
v 0.09 -0.04 0.17
v 0.1 -0.05 0.17
v 0.12 -0.05 0.17
v 0.14 -0.04 0.17
v 0.13 -0.02 0.17
v 0.12 -0.01 0.17
v 0.11 -0.01 0.17
v 0.09 -0.04 0.26
v 0.07 -0.02 0.26
v 0.07 -0.01 0.26
v 0.06 -0.01 0.26
v 0.05 -0.02 0.26
v 0.03 -0.02 0.26
v 0.05 -0.03 0.26
v 0.04 -0.04 0.26
v 0.04 -0.05 0.26
v 0.05 -0.07 0.26
v 0.07 -0.06 0.26
v 0.08 -0.05 0.26
v 0.07 -0.04 0.26
v -0.01 0.1 0.21
v 0.0 0.06 0.21
v 0.01 0.04 0.21
v 0.0 0.02 0.2
v 0.01 0.01 0.21
v 0.03 0.03 0.22
v 0.04 0.03 0.22
v 0.08 0.03 0.24
v 0.06 0.06 0.23
v 0.08 0.06 0.24
v 0.08 0.11 0.24
v 0.08 0.14 0.24
v 0.04 0.13 0.23
v 0.02 0.12 0.22
v 0.02 0.09 0.22
v 0.02 0.07 0.37
v 0.0 0.04 0.36
v -0.01 0.03 0.35000000000000003
v 0.0 0.02 0.34
v 0.0 0.01 0.33
v -0.03 0.02 0.35000000000000003
v -0.04 0.03 0.35000000000000003
v -0.08 0.04 0.35000000000000003
v -0.06 0.06 0.36
v -0.08 0.07 0.37
v -0.07 0.09 0.39
v -0.05 0.12 0.4
v -0.02 0.1 0.4
v 0.0 0.08 0.38
v 0.0 0.07 0.37
v 0.08 0.06 0.36
v 0.05 0.02 0.36
v 0.03 0.01 0.36
v 0.02 0.01 0.35000000000000003
v 0.01 0.0 0.35000000000000003
v 0.03 -0.01 0.36
v 0.03 -0.03 0.37
v 0.05 -0.07 0.38
v 0.07 -0.04 0.38
v 0.09 -0.06 0.38
v 0.12 -0.04 0.39
v 0.15 -0.02 0.39
v 0.13 0.01 0.38
v 0.11 0.03 0.37
v 0.09 0.02 0.38
v 0.01 0.02 0.48
v 0.01 0.04 0.49
v 0.01 0.04 0.48
v 0.01 0.03 0.47000000000000003
v 0.01 0.03 0.49
v 0.0 0.02 0.48
v 0.01 -0.01 0.0
v -0.01 -0.01 0.0
v -0.01 0.0 0.17
v 0.01 0.0 0.17
v 0.01 0.0 0.16
v 0.01 0.01 0.0
v 0.01 0.0 0.15
v 0.01 0.01 0.15
v 0.01 0.03 0.17
v -0.01 0.03 0.17
v -0.01 0.03 0.12
v 0.0 0.03 0.11
v -0.01 0.03 0.11
v -0.01 0.01 0.0
v -0.01 0.01 0.17
v -0.01 0.02 0.11
v -0.01 0.0 0.34
v 0.0 0.0 0.34
v 0.01 0.01 0.17
v 0.01 0.0 0.34
v 0.01 0.01 0.26
v 0.01 0.01 0.25
v 0.01 0.02 0.25
v 0.01 0.02 0.26
v 0.01 0.03 0.19
v 0.01 0.03 0.2
v 0.01 0.02 0.34
v -0.01 0.02 0.26
v -0.01 0.01 0.26
v -0.01 0.01 0.35000000000000003
v 0.02 0.01 0.34
v -0.01 0.0 0.37
v 0.0 0.0 0.38
v 0.0 0.01 0.38
v 0.0 0.02 0.41000000000000003
v 0.01 0.01 0.41000000000000003
v 0.01 0.0 0.41000000000000003
v 0.01 0.0 0.4
v 0.02 0.01 0.4
v 0.01 0.03 0.41000000000000003
v 0.01 0.02 0.35000000000000003
v 0.0 0.02 0.35000000000000003
v 0.0 0.03 0.41000000000000003
v -0.01 0.01 0.38
v -0.01 0.01 0.37
v 0.01 0.02 0.41000000000000003
v 0.01 0.01 0.16
v 0.06 0.0 0.15
v 0.06 -0.01 0.16
v 0.06 -0.01 0.15
v 0.01 0.01 0.42
v 0.02 0.01 0.41000000000000003
v 0.0 0.02 0.47000000000000003
v 0.01 0.02 0.47000000000000003
v -0.01 0.02 0.27
v -0.01 0.01 0.27
v -0.06 0.03 0.27
v -0.06 0.04 0.27
v -0.06 0.03 0.26
v -0.06 0.04 0.26
v -0.06 0.03 0.28
v -0.11 0.05 0.29
v -0.11 0.05 0.3
v -0.15 0.06 0.33
v -0.15 0.05 0.32
v -0.12 0.04 0.3
v -0.15 0.05 0.34
v -0.12 0.04 0.29
v -0.19 0.06 0.34
v -0.19 0.06 0.33
v -0.21 0.06 0.36
v -0.21 0.07 0.36
v 0.02 -0.03 0.42
v 0.02 -0.03 0.43
v 0.02 -0.04 0.43
v 0.01 -0.04 0.43
v 0.01 -0.04 0.42
v 0.02 -0.08 0.42
v 0.03 -0.08 0.41000000000000003
v 0.03 -0.07 0.41000000000000003
v 0.03 -0.07 0.42
v 0.02 -0.08 0.41000000000000003
v 0.06 -0.09 0.45
v 0.08 -0.02 0.16
v 0.1 -0.02 0.17
v 0.1 -0.03 0.17
v -0.04 0.07 0.12
v -0.03 0.07 0.13
v -0.05 0.1 0.14
v -0.06 0.1 0.14
v 0.03 0.06 0.19
v 0.03 0.05 0.19
v 0.04 0.07 0.2
v 0.03 0.06 0.2
v 0.02 0.06 0.19
v 0.05 0.1 0.21
v 0.05 0.11 0.22
v -0.04 -0.03 0.4
v -0.04 -0.03 0.41000000000000003
v -0.09 -0.06 0.44
v -0.09 -0.06 0.45
v 0.06 0.0 0.26
v 0.06 0.0 0.25
v 0.06 -0.01 0.25
v 0.08 -0.04 0.25
v 0.08 -0.03 0.25

usemtl rsc_507030
f 1 2 3 4 5 6 7 8 9 10 11 12 13 14 15
f 16 17 18 19 20 21 22 23 24 25 26 27 28 29 30
f 31 32 33 34 35 36 37 38 39 40 41 42 43 44 45
f 46 47 48 49 50 51 52 53 54 55 56 57 58 59 60
f 61 62 63 64 65 66 67 68 69 70 71 72 73 74 75
f 76 77 78 79 80 81 82 83 84 85 86 87 88 89 90
f 91 92 93 94 95 96 97 98 99 100 101 102 103 104 105
f 106 107 108 109 110 111 112 113 114 115 116 117 118 119 120
f 121 122 123 124 125 126 127 128 129 130 131 132 133 134 135
f 136 137 138 139 140 141 141 142 143 144 145 146 147 148 149
f 150 151 152 153 154 155 156 157 158 159 160 161 162 163 164
f 165 166 166 167 168 168 169 170 171 172 173 174 175 176 177
f 178 179 180 181 182 183 184 185 186 187 188 189 190 191 192
f 193 194 195 196 197 198 199 200 201 202 203 204 205 206 207
f 208 209 210 211 212 213 214 215 216 217 218 219 220 221 222
f 223 224 225 226
f 226 225 225 226
f 223 223 227 227
f 228 224 227 223
f 226 225 224 228
f 226 225 225 226
f 223 223 227 224
f 223 223 227 227
f 229 230 231 232 233
f 234 229 235 236 236
f 234 237 238 239 240 240 241 242
f 242 238 243 230
f 230 243 231 230
f 229 229 233 235 235
f 242 241 244 244 239 238 238 242
f 234 236 237 237 234
f 232 231 245 246
f 237 247 248 249 250 250 250 251 252
f 237 253 254 254 254 255 256 256 238
f 238 256 257 257 243
f 243 257 258 245 231
f 247 232 246 248
f 238 256 256 256 238
f 237 252 259 255 254 254 253 253 237
f 246 245 260 261 261 262 263 264 265
f 259 248 266 267 267
f 255 268 268 269
f 270 271 263 258
f 258 263 263 262 272 273 260 245
f 248 246 265 266 266
f 269 268 271 270
f 259 267 274 268 255
f 275 236 276 277
f 235 233 278 278
f 279 274 274 267 280 279
f 265 265 264 274 279
f 233 233 277 277
f 224 227 227 227 224 225 225 225
f 264 263 281 282
f 274 274 282 282
f 268 282 226 268
f 271 282 281 263
f 263 281 281 263
f 274 264 282 282
f 268 226 282 271
f 274 282 282 268
f 282 281 223 223
f 282 282 223 223
f 282 226 226 226
f 282 226 228 281
f 281 228 223 281
f 282 282 223 223
f 226 226 226 282
f 282 223 226 282
f 233 233 232 247 233
f 235 235 278 278
f 236 275 233 247 237
f 283 256 269 270 283
f 256 256 255 269
f 257 257 256
f 257 284 283 270 258 257
f 256 283 285 286
f 284 257 285 285
f 257 257 285 285
f 257 256 287 285
f 256 256 286 288
f 283 283 289 285
f 283 284 285 289
f 256 256 288 287
f 290 291 292 293
f 291 294 295 34
f 294 294 34 295
f 296 290 293 293
f 291 291 34 292
f 296 296 293 34
f 294 296 34 34
f 296 296 34 34
f 297 298 299 299
f 298 298 299 299
f 298 297 300 300
f 297 297 299 300
f 297 297 299 299
f 298 298 300 300
f 297 297 300 300
f 298 298 300 299
f 267 266 124 301
f 279 280 302 303
f 267 267 301 301
f 265 265 304 305
f 266 266 305 124
f 279 279 303 303
f 266 265 305 305
f 280 267 301 302
f 265 279 303 304
f 304 303 110 306
f 301 124 307 308
f 303 302 309 110
f 301 301 308 308
f 305 304 306 310
f 124 305 310 307
f 303 303 110 110
f 305 305 310 310
f 302 301 308 309
f 110 110 311 311
f 310 310 311 311
f 309 308 311 311
f 306 110 311 311
f 308 307 311 311
f 110 309 311 311
f 308 308 311 311
f 310 306 311 311
f 307 310 311 311
f 233 233 277 278
f 233 275 277 277
f 236 235 278 278
f 236 236 278 276
f 278 278 312 312
f 276 278 312 312
f 278 278 312 312
f 278 278 312 312
f 278 277 155 312
f 277 276 312 155
f 277 277 155 155
f 277 277 155 155
f 155 155 313 313
f 312 312 313 313
f 312 312 313 313
f 312 312 314 313
f 312 155 313 314
f 312 312 313 313
f 155 312 313 313
f 155 155 313 313
f 244 241 315 315
f 240 240 316 17
f 244 244 315 64
f 239 244 64 64
f 241 240 17 315
f 240 239 64 316
f 17 316 317 317
f 64 315 318 318
f 64 64 318 318
f 315 17 317 318
f 316 64 318 317
f 315 315 318 318
f 319 320 321 321
f 322 323 321 321
f 323 319 321 321
f 320 322 321 321
f 323 323 321 321
f 320 320 321 321
f 324 324 325 325
f 324 324 325 325
f 324 324 325 325
f 324 324 325 325
f 324 324 325 325
f 324 324 325 325
f 261 260 326 326
f 262 261 326 327
f 273 272 326 326
f 260 273 326 326
f 272 262 327 326
f 261 261 326 326
f 326 326 96 328
f 327 326 329 329
f 326 326 328 328
f 326 326 328 329
f 326 327 329 96
f 326 326 329 329
f 300 300 300 300 299 299 299 299
f 313 313 313 313 313 313 313 314
f 325 325 325 325 325 325
f 321 321 324 324
f 321 321 324 324
f 321 321 324 324
f 321 321 324 324
f 321 321 324 324
f 321 321 324 324
f 253 254 320 320
f 254 254 323 323
f 254 254 322 320
f 254 253 319 323
f 254 254 323 322
f 253 253 320 319
f 285 285 296 296
f 285 285 296 294
f 285 287 296 296
f 286 285 291 291
f 287 288 290 296
f 289 285 294 294
f 285 289 294 291
f 288 286 291 290
f 34 293 298 298
f 292 34 297 297
f 293 293 298 298
f 295 34 297 297
f 34 295 297 297
f 293 292 297 298
f 34 34 298 298
f 34 34 298 297
f 311 311 311 311 311 311 311 311 311
f 318 318 318 317 317 318
f 249 249 330 168
f 249 249 249 248 259 252
f 252 251 330 330
f 250 250 331 331
f 250 249 168 332
f 249 249 330 330
f 249 252 330 330
f 251 250 331 330
f 250 250 332 331
f 331 332 333 333
f 168 330 333 333
f 330 330 334 334
f 331 331 333 333
f 332 168 333 333
f 330 330 333 333
f 330 330 334 333
f 330 331 333 334
f 333 334 334 333 333 333 333 333
