# OGRS RSC model extracted from .ob3
# vertices: 240  faces: 168
mtllib depletedcorn.mtl

o depletedcorn
v 0.14 0.16 0.52
v 0.15 0.19 0.52
v 0.09 0.2 0.63
v 0.08 0.14 0.63
v -0.01 0.14 0.52
v -0.05 0.1 0.51
v 0.12 0.1 0.63
v 0.17 0.14 0.52
v 0.01 0.09 0.52
v 0.18 0.17 0.52
v 0.11 0.29 0.74
v 0.15 0.27 0.71
v -0.17 -0.01 1.09
v -0.19 0.0 1.08
v -0.23 0.0 1.17
v -0.21 -0.01 1.18
v -0.16 0.02 1.09
v -0.21 0.02 1.19
v -0.19 0.03 1.08
v -0.23 0.03 1.17
v 0.17 0.14 1.1500000000000001
v 0.15 0.16 1.1500000000000001
v 0.18 0.18 1.24
v 0.2 0.17 1.23
v 0.18 0.17 1.1400000000000001
v 0.21 0.19 1.22
v 0.16 0.18 1.1400000000000001
v 0.19 0.21 1.23
v 0.05 -0.16 1.34
v 0.03 -0.17 1.33
v 0.0 -0.2 1.42
v 0.02 -0.19 1.43
v -0.01 -0.18 1.42
v 0.01 -0.17 1.43
v 0.04 -0.14 1.34
v 0.02 -0.15 1.33
v -0.2 0.01 1.2
v -0.17 0.04 1.2
v -0.17 0.04 1.35
v -0.2 0.01 1.35
v -0.17 -0.01 1.2
v -0.17 -0.01 1.35
v -0.17 0.07 1.4000000000000001
v -0.23 0.02 1.4000000000000001
v -0.17 -0.03 1.4000000000000001
v -0.18 -0.06 1.69
v -0.23 -0.02 1.59
v -0.21 0.06 1.6600000000000001
v -0.16 0.09 1.72
v -0.17 -0.01 1.0
v -0.2 0.01 1.0
v -0.17 0.04 1.0
v -0.2 0.01 0.75
v -0.17 0.04 0.74
v -0.17 -0.01 0.75
v -0.23 -0.04 1.45
v -0.18 -0.07 1.51
v -0.16 0.1 1.5
v -0.23 0.07 1.41
v -0.23 -0.05 1.11
v -0.18 -0.08 1.11
v -0.21 -0.15 1.0
v -0.19 -0.21 1.0
v -0.16 0.09 1.17
v -0.22 0.07 1.18
v -0.15 0.24 1.1300000000000001
v -0.19 0.17 1.1400000000000001
v -0.17 -0.01 -0.01
v -0.2 0.01 0.0
v -0.17 0.04 -0.01
v -0.19 -0.01 0.9400000000000001
v -0.17 -0.03 1.01
v -0.14 0.01 1.2
v -0.14 0.01 1.35
v -0.11 0.01 1.4000000000000001
v -0.12 -0.03 1.59
v -0.12 0.05 1.6600000000000001
v -0.14 0.01 1.0
v -0.14 0.01 0.75
v -0.12 -0.05 1.45
v -0.1 0.06 1.41
v -0.13 -0.05 1.11
v -0.16 -0.16 1.0
v -0.12 0.06 1.18
v -0.12 0.16 1.1400000000000001
v -0.15 0.01 0.0
v -0.15 -0.01 0.9400000000000001
v -0.3 0.01 1.23
v -0.27 0.04 1.19
v -0.28 -0.03 1.19
v 0.05 -0.17 1.4000000000000001
v 0.02 -0.16 1.4000000000000001
v 0.01 -0.16 1.55
v 0.05 -0.17 1.55
v 0.06 -0.13 1.4000000000000001
v 0.06 -0.13 1.55
v -0.01 -0.17 1.59
v 0.06 -0.2 1.59
v 0.07 -0.12 1.59
v 0.1 -0.11 1.8800000000000001
v 0.1 -0.18 1.79
v 0.03 -0.2 1.85
v -0.03 -0.18 1.92
v 0.06 -0.13 1.2
v 0.05 -0.17 1.2
v 0.02 -0.16 1.19
v 0.05 -0.17 0.9400000000000001
v 0.02 -0.16 0.9400000000000001
v 0.06 -0.13 0.9400000000000001
v 0.11 -0.16 1.6400000000000001
v 0.11 -0.1 1.71
v -0.04 -0.19 1.7
v 0.02 -0.22 1.61
v 0.12 -0.16 1.31
v 0.11 -0.1 1.31
v 0.19 -0.09 1.2
v 0.23 -0.04 1.19
v -0.03 -0.18 1.37
v 0.02 -0.21 1.37
v -0.16 -0.25 1.33
v -0.08 -0.25 1.34
v 0.06 -0.13 0.0
v 0.05 -0.17 0.01
v 0.02 -0.16 0.0
v 0.16 -0.17 1.06
v 0.21 -0.12 1.08
v 0.02 -0.12 1.4000000000000001
v 0.02 -0.12 1.55
v 0.0 -0.1 1.59
v 0.04 -0.08 1.79
v -0.02 -0.12 1.85
v 0.02 -0.12 1.2
v 0.02 -0.12 0.9400000000000001
v 0.06 -0.07 1.6400000000000001
v -0.04 -0.12 1.61
v 0.07 -0.07 1.31
v 0.17 -0.04 1.2
v -0.03 -0.13 1.37
v -0.11 -0.19 1.34
v 0.02 -0.12 0.01
v 0.14 -0.1 1.06
v 0.19 0.18 1.3
v 0.18 0.14 1.3
v 0.18 0.14 1.45
v 0.19 0.18 1.45
v 0.15 0.18 1.3
v 0.15 0.18 1.45
v 0.19 0.12 1.5
v 0.22 0.19 1.5
v 0.14 0.2 1.5
v 0.13 0.22 1.79
v 0.19 0.22 1.69
v 0.22 0.15 1.75
v 0.2 0.1 1.82
v 0.15 0.18 1.1
v 0.19 0.18 1.1
v 0.18 0.14 1.1
v 0.19 0.18 0.85
v 0.18 0.14 0.84
v 0.15 0.18 0.84
v 0.18 0.24 1.54
v 0.12 0.23 1.61
v 0.21 0.09 1.6
v 0.24 0.15 1.51
v 0.17 0.24 1.21
v 0.12 0.24 1.21
v 0.1 0.32 1.1
v 0.05 0.35000000000000003 1.1
v 0.2 0.1 1.27
v 0.23 0.14 1.27
v 0.28 -0.03 1.23
v 0.27 0.05 1.24
v 0.15 0.19 -0.04
v 0.18 0.17 -0.03
v 0.19 0.17 0.6900000000000001
v 0.15 0.19 0.71
v 0.17 0.14 -0.04
v 0.18 0.14 0.72
v 0.17 0.19 1.04
v 0.14 0.2 1.11
v 0.14 0.15 1.3
v 0.14 0.15 1.45
v 0.12 0.13 1.5
v 0.1 0.16 1.69
v 0.14 0.1 1.75
v 0.14 0.15 1.1
v 0.14 0.15 0.85
v 0.09 0.18 1.54
v 0.14 0.09 1.51
v 0.09 0.19 1.21
v 0.05 0.29 1.1
v 0.15 0.09 1.27
v 0.21 0.01 1.24
v 0.14 0.15 -0.03
v 0.14 0.17 1.04
v 0.2 0.21 0.87
v 0.23 0.2 0.91
v 0.22 0.16 0.88
v 0.05 -0.16 0.73
v 0.03 -0.18 0.72
v 0.01 -0.22 0.8200000000000001
v 0.03 -0.21 0.8300000000000001
v -0.01 -0.21 0.8200000000000001
v 0.01 -0.19 0.8300000000000001
v 0.02 -0.15 0.74
v 0.01 -0.17 0.73
v 0.05 -0.17 0.65
v 0.01 -0.18 0.65
v 0.06 -0.23 0.76
v 0.1 -0.2 0.76
v 0.16 -0.26 0.65
v 0.22 -0.26 0.64
v 0.1 -0.14 0.76
v 0.04 -0.13 0.65
v 0.18 -0.21 0.65
v 0.0 -0.15 0.65
v -0.03 -0.28 0.87
v -0.04 -0.24 0.84
v 0.02 -0.27 0.84
v -0.19 0.0 0.58
v -0.18 0.03 0.5700000000000001
v -0.19 0.07 0.66
v -0.19 0.05 0.67
v -0.16 0.07 0.67
v -0.16 0.04 0.68
v -0.16 0.0 0.58
v -0.15 0.02 0.5700000000000001
v -0.19 0.01 0.5
v -0.17 0.04 0.5
v -0.23 0.06 0.61
v -0.25 0.0 0.61
v -0.33 0.03 0.5
v -0.39 0.0 0.49
v -0.23 -0.04 0.61
v -0.17 -0.02 0.5
v -0.33 -0.02 0.5
v -0.14 0.01 0.49
v -0.18 0.14 0.72
v -0.14 0.11 0.6900000000000001
v -0.21 0.11 0.6900000000000001

usemtl rsc_507030
f 1 2 3 4
f 4 3 5 6
f 1 4 7 8
f 4 6 9 7
f 10 2 11 12
f 13 14 15 16
f 17 13 16 18
f 19 20 15 14
f 17 18 20 19
f 15 20 18 16
f 21 22 23 24
f 25 21 24 26
f 27 28 23 22
f 25 26 28 27
f 23 28 26 24
f 29 30 31 32
f 31 33 34 32
f 35 29 32 34
f 36 33 31 30
f 35 34 33 36
f 43 44 44 43
f 50 51 37 41
f 51 52 38 37
f 53 54 52 51
f 55 53 51 50
f 41 37 56 57
f 37 38 58 59
f 50 51 60 61
f 61 60 62 63
f 51 52 64 65
f 65 64 66 67
f 68 69 53 55
f 69 70 54 53
f 55 53 71 72
f 43 43 75 75
f 50 41 73 78
f 78 73 38 52
f 79 78 52 54
f 55 50 78 79
f 41 57 80 73
f 73 81 58 38
f 50 61 82 78
f 61 63 83 82
f 78 84 64 52
f 84 85 66 64
f 68 55 79 86
f 86 79 54 70
f 55 72 87 79
f 52 51 88 89
f 51 50 90 88
f 97 98 98 97
f 104 105 91 95
f 105 106 92 91
f 107 108 106 105
f 109 107 105 104
f 95 91 110 111
f 91 92 112 113
f 104 105 114 115
f 115 114 116 117
f 105 106 118 119
f 119 118 120 121
f 122 123 107 109
f 123 124 108 107
f 109 107 125 126
f 97 97 129 129
f 104 95 127 132
f 132 127 92 106
f 133 132 106 108
f 109 104 132 133
f 95 111 134 127
f 127 135 112 92
f 104 115 136 132
f 115 117 137 136
f 132 138 118 106
f 138 139 120 118
f 122 109 133 140
f 140 133 108 124
f 109 126 141 133
f 148 149 149 148
f 155 156 142 146
f 156 157 143 142
f 158 159 157 156
f 160 158 156 155
f 146 142 161 162
f 142 143 163 164
f 155 156 165 166
f 166 165 167 168
f 156 157 169 170
f 170 169 171 172
f 173 174 175 176
f 174 177 178 175
f 160 158 179 180
f 148 148 183 183
f 155 146 181 186
f 186 181 143 157
f 187 186 157 159
f 160 155 186 187
f 146 162 188 181
f 181 189 163 143
f 155 166 190 186
f 166 168 191 190
f 186 192 169 157
f 192 193 171 169
f 173 176 160 187 194
f 194 187 159 178 177
f 160 180 195 187
f 175 178 159 158
f 176 175 158 160
f 175 176 196 197
f 178 175 197 198
f 199 200 201 202
f 201 203 204 202
f 205 199 202 204
f 206 203 201 200
f 205 204 203 206
f 207 208 209 210
f 210 209 211 212
f 207 210 213 214
f 210 212 215 213
f 216 208 217 218
f 208 207 219 217
f 220 221 222 223
f 222 224 225 223
f 226 220 223 225
f 227 224 222 221
f 226 225 224 227
f 228 229 230 231
f 231 230 232 233
f 228 231 234 235
f 231 233 236 234
f 237 229 238 239
f 229 228 240 238
usemtl rsc_c0a878
f 37 38 39 40
f 41 37 40 42
f 40 39 43 44
f 42 40 44 45
f 44 45 46 47
f 43 44 48 49
f 73 74 39 38
f 41 42 74 73
f 74 75 43 39
f 42 45 75 74
f 75 76 46 45
f 43 49 77 75
f 91 92 93 94
f 95 91 94 96
f 94 93 97 98
f 96 94 98 99
f 98 99 100 101
f 97 98 102 103
f 127 128 93 92
f 95 96 128 127
f 128 129 97 93
f 96 99 129 128
f 129 130 100 99
f 97 103 131 129
f 142 143 144 145
f 146 142 145 147
f 145 144 148 149
f 147 145 149 150
f 149 150 151 152
f 148 149 153 154
f 181 182 144 143
f 146 147 182 181
f 182 183 148 144
f 147 150 183 182
f 183 184 151 150
f 148 154 185 183
