# OGRS RSC model extracted from .ob3
# vertices: 41  faces: 24
mtllib depletedbush.mtl

o depletedbush
v 0.02 0.51 0.01
v -0.38 0.38 0.37
v -0.34 0.34 0.01
v 0.02 0.58 0.37
v -0.58 -0.02 0.37
v -0.51 -0.02 0.01
v -0.38 -0.41000000000000003 0.37
v -0.34 -0.36 0.01
v 0.36 -0.36 0.01
v 0.61 -0.02 0.37
v 0.53 -0.02 0.01
v 0.41000000000000003 -0.41000000000000003 0.37
v 0.41000000000000003 0.38 0.37
v 0.36 0.34 0.01
v 0.02 -0.61 0.37
v 0.02 -0.53 0.01
v 0.02 0.64 0.33
v -0.34 0.34 0.74
v -0.44 0.44 0.33
v 0.02 0.47000000000000003 0.74
v -0.47000000000000003 -0.02 0.74
v -0.64 -0.02 0.33
v -0.34 -0.36 0.74
v -0.44 -0.47000000000000003 0.33
v 0.02 -0.51 0.74
v 0.02 -0.67 0.33
v 0.47000000000000003 0.44 0.33
v 0.36 0.34 0.74
v 0.36 -0.36 0.74
v 0.47000000000000003 -0.47000000000000003 0.33
v 0.51 -0.02 0.74
v 0.68 -0.02 0.33
v 0.02 0.58 0.7000000000000001
v 0.02 -0.02 1.01
v -0.38 0.38 0.7000000000000001
v -0.58 -0.02 0.7000000000000001
v 0.61 -0.02 0.7000000000000001
v 0.41000000000000003 0.38 0.7000000000000001
v -0.38 -0.41000000000000003 0.7000000000000001
v 0.02 -0.61 0.7000000000000001
v 0.41000000000000003 -0.41000000000000003 0.7000000000000001

usemtl tex_66
f 4 1 14 13
f 2 3 1 4
f 5 6 3 2
f 12 9 16 15
f 10 11 9 12
f 15 16 8 7
f 20 17 27 28
f 18 19 17 20
f 7 8 6 5
f 23 24 22 21
f 28 27 32 31
f 25 26 24 23
f 29 30 26 25
f 31 32 30 29
f 33 34 35
f 35 34 36
f 37 34 38
f 38 34 33
f 36 34 39
f 39 34 40
f 40 34 41
f 41 34 37
f 21 22 19 18
f 13 14 11 10
