# OGRS RSC model extracted from .ob3
# vertices: 153  faces: 161
mtllib depleteddragonfruit.mtl

o depleteddragonfruit
v 0.13 0.26 0.0
v -0.13 0.26 0.0
v -0.13 0.26 2.34
v 0.13 0.26 2.34
v -0.26 0.0 0.0
v -0.26 0.0 2.34
v -0.13 -0.26 0.0
v -0.13 -0.26 2.34
v 0.13 -0.26 0.0
v 0.13 -0.26 2.34
v 0.26 0.0 0.0
v 0.26 0.0 2.34
v 0.0 0.0 2.81
v -0.5700000000000001 0.1 0.8200000000000001
v -0.5700000000000001 -0.06 0.8200000000000001
v -0.5700000000000001 -0.06 2.19
v -0.5700000000000001 0.1 2.19
v -0.65 0.02 0.8200000000000001
v -0.65 0.02 2.19
v -0.44 0.02 2.57
v -0.34 0.1 2.57
v -0.09 0.1 2.72
v -0.09 0.02 2.72
v -0.54 0.02 2.47
v -0.44 0.1 2.47
v -0.59 0.02 2.37
v -0.51 0.1 2.37
v -0.34 -0.06 2.57
v -0.08 -0.07 2.72
v -0.44 -0.06 2.47
v -0.51 -0.06 2.37
v 0.08 0.58 0.8200000000000001
v -0.08 0.58 0.8200000000000001
v -0.08 0.58 2.19
v 0.08 0.58 2.19
v 0.0 0.66 0.8200000000000001
v 0.0 0.66 2.19
v 0.0 0.45 2.57
v 0.08 0.35000000000000003 2.57
v 0.09 0.1 2.72
v 0.0 0.1 2.72
v 0.0 0.55 2.47
v 0.08 0.45 2.47
v 0.0 0.6 2.37
v 0.08 0.52 2.37
v -0.08 0.35000000000000003 2.57
v -0.08 0.45 2.47
v -0.08 0.52 2.37
v -0.07 -0.54 0.8200000000000001
v 0.08 -0.54 0.8200000000000001
v 0.08 -0.54 2.19
v -0.07 -0.54 2.19
v 0.0 -0.62 0.8200000000000001
v 0.0 -0.62 2.19
v 0.0 -0.41000000000000003 2.57
v -0.07 -0.31 2.57
v 0.0 -0.07 2.72
v 0.0 -0.51 2.47
v -0.07 -0.41000000000000003 2.47
v 0.0 -0.56 2.37
v -0.07 -0.48 2.37
v 0.08 -0.31 2.57
v 0.09 -0.07 2.72
v 0.08 -0.41000000000000003 2.47
v 0.08 -0.48 2.37
v 0.5700000000000001 -0.06 0.8200000000000001
v 0.5700000000000001 0.09 0.8200000000000001
v 0.5700000000000001 0.09 2.19
v 0.5700000000000001 -0.06 2.19
v 0.65 0.02 0.8200000000000001
v 0.65 0.02 2.19
v 0.44 0.02 2.57
v 0.34 -0.06 2.57
v 0.09 0.02 2.72
v 0.54 0.02 2.47
v 0.44 -0.06 2.47
v 0.59 0.02 2.37
v 0.51 -0.06 2.37
v 0.34 0.09 2.57
v 0.44 0.09 2.47
v 0.51 0.09 2.37
v -0.44 0.53 0.8200000000000001
v -0.54 0.41000000000000003 0.8200000000000001
v -0.54 0.41000000000000003 2.19
v -0.44 0.53 2.19
v -0.55 0.52 0.8200000000000001
v -0.55 0.52 2.19
v -0.39 0.38 2.57
v -0.26 0.38 2.57
v -0.08 0.22 2.72
v -0.47000000000000003 0.45 2.47
v -0.34 0.44 2.47
v -0.51 0.48 2.37
v -0.39 0.49 2.37
v -0.37 0.26 2.57
v -0.19 0.1 2.72
v -0.44 0.32 2.47
v -0.5 0.37 2.37
v 0.53 0.44 0.8200000000000001
v 0.42 0.55 0.8200000000000001
v 0.42 0.55 2.19
v 0.53 0.44 2.19
v 0.53 0.55 0.8200000000000001
v 0.53 0.55 2.19
v 0.38 0.39 2.57
v 0.36 0.27 2.57
v 0.2 0.1 2.72
v 0.45 0.47000000000000003 2.47
v 0.43 0.35000000000000003 2.47
v 0.49 0.51 2.37
v 0.49 0.38 2.37
v 0.26 0.39 2.57
v 0.09 0.22 2.72
v 0.31 0.46 2.47
v 0.38 0.51 2.37
v 0.44 -0.49 0.8200000000000001
v 0.54 -0.38 0.8200000000000001
v 0.54 -0.38 2.19
v 0.44 -0.49 2.19
v 0.55 -0.49 0.8200000000000001
v 0.55 -0.49 2.19
v 0.39 -0.35000000000000003 2.57
v 0.26 -0.35000000000000003 2.57
v 0.08 -0.19 2.72
v 0.47000000000000003 -0.42 2.47
v 0.34 -0.41000000000000003 2.47
v 0.51 -0.45 2.37
v 0.39 -0.46 2.37
v 0.37 -0.23 2.57
v 0.19 -0.07 2.72
v 0.44 -0.28 2.47
v 0.5 -0.34 2.37
v -0.53 -0.42 0.8200000000000001
v -0.42 -0.53 0.8200000000000001
v -0.42 -0.53 2.19
v -0.53 -0.42 2.19
v -0.53 -0.53 0.8200000000000001
v -0.53 -0.53 2.19
v -0.38 -0.36 2.57
v -0.36 -0.25 2.57
v -0.2 -0.07 2.72
v -0.45 -0.45 2.47
v -0.43 -0.33 2.47
v -0.49 -0.49 2.37
v -0.49 -0.36 2.37
v -0.26 -0.37 2.57
v -0.08 -0.2 2.72
v -0.31 -0.44 2.47
v -0.38 -0.48 2.37
v 0.06 0.08 2.81
v -0.06 0.08 2.81
v -0.06 -0.04 2.81
v 0.06 -0.04 2.81

usemtl rsc_904008
f 1 2 3 4
f 2 5 6 3
f 5 7 8 6
f 7 9 10 8
f 9 11 12 10
f 11 1 4 12
f 3 6 13
f 6 8 13
f 8 10 13
f 10 12 13
f 12 4 13
f 4 3 13
usemtl rsc_005008
f 14 15 16 17
f 18 14 17 19
f 15 18 19 16
f 20 21 22 23
f 24 25 21 20
f 26 27 25 24
f 19 17 27 26
f 28 20 23 29
f 30 24 20 28
f 27 31 30 25
f 16 19 26 31
f 31 26 24 30
f 31 27 26
f 17 16 31 27
f 24 25 30
f 21 28 29 22
f 23 22 29
f 25 30 28 21
f 32 33 34 35
f 36 32 35 37
f 33 36 37 34
f 38 39 40 41
f 42 43 39 38
f 44 45 43 42
f 37 35 45 44
f 46 38 41 22
f 47 42 38 46
f 45 48 47 43
f 34 37 44 48
f 48 44 42 47
f 48 45 44
f 35 34 48 45
f 42 43 47
f 39 46 22 40
f 41 40 22
f 43 47 46 39
f 49 50 51 52
f 53 49 52 54
f 50 53 54 51
f 55 56 29 57
f 58 59 56 55
f 60 61 59 58
f 54 52 61 60
f 62 55 57 63
f 64 58 55 62
f 61 65 64 59
f 51 54 60 65
f 65 60 58 64
f 65 61 60
f 52 51 65 61
f 58 59 64
f 56 62 63 29
f 57 29 63
f 59 64 62 56
f 66 67 68 69
f 70 66 69 71
f 67 70 71 68
f 72 73 63 74
f 75 76 73 72
f 77 78 76 75
f 71 69 78 77
f 79 72 74 40
f 80 75 72 79
f 78 81 80 76
f 68 71 77 81
f 81 77 75 80
f 81 78 77
f 69 68 81 78
f 75 76 80
f 73 79 40 63
f 74 63 40
f 76 80 79 73
f 82 83 84 85
f 86 82 85 87
f 83 86 87 84
f 88 89 90 22
f 91 92 89 88
f 93 94 92 91
f 87 85 94 93
f 95 88 22 96
f 97 91 88 95
f 94 98 97 92
f 84 87 93 98
f 98 93 91 97
f 98 94 93
f 85 84 98 94
f 91 92 97
f 89 95 96 90
f 22 90 96
f 92 97 95 89
f 99 100 101 102
f 103 99 102 104
f 100 103 104 101
f 105 106 107 40
f 108 109 106 105
f 110 111 109 108
f 104 102 111 110
f 112 105 40 113
f 114 108 105 112
f 111 115 114 109
f 101 104 110 115
f 115 110 108 114
f 115 111 110
f 102 101 115 111
f 108 109 114
f 106 112 113 107
f 40 107 113
f 109 114 112 106
f 116 117 118 119
f 120 116 119 121
f 117 120 121 118
f 122 123 124 63
f 125 126 123 122
f 127 128 126 125
f 121 119 128 127
f 129 122 63 130
f 131 125 122 129
f 128 132 131 126
f 118 121 127 132
f 132 127 125 131
f 132 128 127
f 119 118 132 128
f 125 126 131
f 123 129 130 124
f 63 124 130
f 126 131 129 123
f 133 134 135 136
f 137 133 136 138
f 134 137 138 135
f 139 140 141 29
f 142 143 140 139
f 144 145 143 142
f 138 136 145 144
f 146 139 29 147
f 148 142 139 146
f 145 149 148 143
f 135 138 144 149
f 149 144 142 148
f 149 145 144
f 136 135 149 145
f 142 143 148
f 140 146 147 141
f 29 141 147
f 143 148 146 140
f 22 40 150 151
f 63 29 152 153
f 40 63 153 150
f 29 22 151 152
f 151 150 153 152
