# OGRS RSC model extracted from .ob3
# vertices: 72  faces: 46
mtllib dramentree.mtl

o dramentree
v 0.1 -0.1 0.45
v 0.12 0.0 0.45
v 0.0 0.0 4.05
v 0.1 0.1 0.45
v 0.0 0.13 0.45
v -0.1 0.1 0.45
v -0.13 0.0 0.45
v 0.0 -0.12 0.45
v -0.1 -0.1 0.45
v -0.17 0.1 0.0
v -0.12 0.12 0.35000000000000003
v -0.3 0.3 0.0
v -0.1 0.17 0.0
v -0.15 -0.15 0.0
v 0.0 -0.2 0.0
v 0.0 0.2 0.0
v -0.15 0.15 0.0
v -0.2 0.0 0.0
v 0.15 0.15 0.0
v 0.2 0.0 0.0
v 0.15 -0.15 0.0
v 0.17 0.08 0.0
v 0.15 0.0 0.3
v 0.22 0.0 0.38
v 0.25 0.08 0.08
v 0.17 -0.07 0.0
v 0.25 -0.07 0.08
v 0.3 0.0 0.23
v 0.3 0.08 0.0
v 0.3 -0.07 0.0
v 0.35000000000000003 0.0 0.08
v 0.45 0.0 0.0
v -0.18 -0.17 0.08
v -0.18 -0.07 0.0
v -0.08 -0.17 0.0
v -0.3 -0.3 0.0
v -0.64 0.64 2.4
v -0.64 0.0 2.4
v 0.0 0.0 2.4
v 0.0 0.64 2.4
v 0.64 0.64 2.4
v 0.64 0.0 2.4
v 0.64 -0.64 2.4
v 0.0 -0.64 2.4
v -0.64 -0.64 2.4
v -0.48 -0.48 3.36
v 0.0 -0.48 3.36
v 0.0 0.0 3.36
v -0.48 0.0 3.36
v 0.48 -0.48 3.36
v 0.48 0.0 3.36
v -0.48 0.48 3.36
v 0.0 0.48 3.36
v 0.48 0.48 3.36
v 0.0 -0.64 4.32
v 0.0 0.0 4.32
v 0.0 0.0 1.92
v 0.0 -0.64 1.92
v 0.48 -0.48 4.32
v 0.48 -0.48 1.92
v -0.48 -0.48 4.32
v -0.48 -0.48 1.92
v -0.48 0.48 4.32
v -0.48 0.48 1.92
v 0.48 0.48 4.32
v 0.48 0.48 1.92
v 0.0 0.64 4.32
v 0.0 0.64 1.92
v 0.64 0.0 4.32
v 0.64 0.0 1.92
v -0.64 0.0 4.32
v -0.64 0.0 1.92

usemtl tex_32767
f 1 2 3
f 2 4 3
f 5 6 3
f 6 7 3
f 8 1 3
f 4 5 3
f 7 9 3
f 9 8 3
f 10 11 12
f 11 13 12
f 14 15 8 9
f 16 17 6 5
f 18 14 9 7
f 7 6 17 18
f 5 4 19 16
f 20 19 4 2
f 2 1 21 20
f 1 8 15 21
f 22 23 24 25
f 23 26 27 24
f 24 28 29 25
f 27 30 28 24
f 29 28 31
f 31 28 30
f 29 31 32
f 31 30 32
f 33 9 34
f 9 33 35
f 36 35 33
f 36 33 34
f 37 38 39 40
f 41 40 39 42
f 43 42 39 44
f 45 44 39 38
f 46 47 48 49
f 50 51 48 47
f 52 49 48 53
f 54 53 48 51
usemtl tex_16
f 55 56 57 58
f 59 56 57 60
f 61 56 57 62
f 63 56 57 64
f 65 56 57 66
f 67 56 57 68
f 69 56 57 70
f 71 56 57 72
