# OGRS RSC model extracted from .ob3
# vertices: 84  faces: 77
mtllib exhaustedpalm2.mtl

o exhaustedpalm2
v 0.04 0.09 0.0
v 0.04 0.08 0.23
v 0.18 0.08 0.23
v -0.08 0.09 0.0
v 0.04 0.05 0.81
v -0.08 0.05 0.76
v -0.08 -0.09 0.0
v 0.18 -0.07 0.23
v 0.04 -0.07 0.23
v 0.04 -0.09 0.0
v -0.08 -0.04 0.76
v 0.04 -0.04 0.81
v -0.18 -0.01 1.26
v -0.18 0.02 1.26
v -0.18 -0.01 1.56
v 0.54 0.15 1.48
v 0.79 -0.01 1.56
v 0.26 0.26 1.43
v 0.54 -0.16 1.48
v 0.26 -0.29 1.43
v 0.4 0.15 1.9100000000000001
v 0.5 -0.01 2.11
v 0.25 0.26 1.72
v 0.4 -0.16 1.9100000000000001
v 0.25 -0.29 1.72
v -0.91 0.15 1.48
v -1.16 -0.01 1.56
v -0.63 0.26 1.43
v -0.91 -0.16 1.48
v -0.63 -0.29 1.43
v -0.77 0.15 1.9100000000000001
v -0.87 -0.01 2.11
v -0.62 0.26 1.72
v -0.77 -0.16 1.9100000000000001
v -0.62 -0.29 1.72
v -0.34 0.74 1.48
v -0.18 1.0 1.56
v -0.45 0.46 1.43
v -0.03 0.74 1.48
v 0.08 0.46 1.43
v -0.34 0.6 1.9100000000000001
v -0.18 0.7000000000000001 2.11
v -0.45 0.44 1.72
v -0.03 0.6 1.9100000000000001
v 0.08 0.44 1.72
v -0.34 -0.74 1.48
v -0.18 -1.0 1.56
v -0.45 -0.46 1.43
v -0.03 -0.74 1.48
v 0.08 -0.46 1.43
v -0.34 -0.6 1.9100000000000001
v -0.18 -0.71 2.11
v -0.45 -0.46 1.72
v -0.03 -0.6 1.9100000000000001
v 0.08 -0.44 1.72
v 0.31 -0.09 1.41
v 0.34 -0.29 1.21
v -0.06 -0.51 1.41
v 0.13 -0.52 1.21
v 0.1 0.55 1.21
v 0.26 0.52 1.01
v -0.11 0.51 1.41
v 0.32 0.34 1.21
v 0.29 0.15 1.41
v -0.52 0.52 1.21
v -0.7000000000000001 0.46 1.01
v -0.34 0.49 1.41
v -0.73 0.29 1.21
v -0.7000000000000001 0.08 1.41
v -0.6900000000000001 -0.32 1.21
v -0.65 -0.52 1.01
v -0.67 -0.15 1.41
v -0.47000000000000003 -0.54 1.21
v -0.28 -0.49 1.41
v 0.1 0.15 2.1
v 0.1 -0.01 2.31
v 0.1 0.26 1.8800000000000001
v 0.1 -0.16 2.1
v 0.1 -0.29 1.8800000000000001
v -0.49 -0.13 2.1
v -0.36 -0.22 2.31
v -0.58 -0.04 1.8800000000000001
v -0.25 -0.34 2.1
v -0.15 -0.41000000000000003 1.8800000000000001

usemtl tex_32767
f 1 2 3
f 1 4 2
f 5 2 6
f 5 3 2
f 7 8 9
f 7 10 8
f 8 11 9
f 8 12 11
f 11 12 13
f 1 8 10
f 1 3 8
f 3 12 8
f 3 5 12
f 5 13 12
f 5 14 13
f 9 6 2
f 9 11 6
f 7 2 4
f 7 9 2
f 11 13 6
f 14 6 13
f 6 14 5
usemtl rsc_904008
f 14 15 13
usemtl rsc_307008
f 15 16 17
f 15 18 16
f 15 19 17
f 15 20 19
f 15 21 22
f 15 23 21
f 15 24 22
f 15 25 24
f 15 26 27
f 15 28 26
f 15 29 27
f 15 30 29
f 15 31 32
f 15 33 31
f 15 34 32
f 15 35 34
f 15 36 37
f 15 38 36
f 15 39 37
f 15 40 39
f 15 41 42
f 15 43 41
f 15 44 42
f 15 45 44
f 15 46 47
f 15 48 46
f 15 49 47
f 15 50 49
f 15 51 52
f 15 53 51
f 15 54 52
f 15 55 54
f 15 56 57
f 15 58 59
f 15 60 61
f 15 62 60
f 15 63 61
f 15 64 63
f 15 65 66
f 15 67 65
f 15 68 66
f 15 69 68
f 15 70 71
f 15 72 70
f 15 73 71
f 15 74 73
f 15 75 76
f 15 77 75
f 15 78 76
f 15 79 78
f 15 80 81
f 15 82 80
f 15 83 81
f 15 84 83
