# OGRS RSC model extracted from .ob3
# vertices: 113  faces: 126
mtllib exhaustedtree.mtl

o exhaustedtree
v -0.01 0.0 1.93
v 0.14 -0.14 0.22
v 0.18 0.0 0.22
v 0.14 0.14 0.22
v 0.0 0.18 0.21
v -0.14 0.14 0.21
v -0.18 0.0 0.21
v 0.0 -0.18 0.21
v -0.14 -0.14 0.21
v -0.01 0.8 1.82
v -0.01 0.7000000000000001 1.46
v 0.46 0.47000000000000003 1.46
v 0.53 0.54 1.82
v -0.55 0.54 1.81
v -0.48 0.47000000000000003 1.46
v 0.53 -0.54 1.82
v 0.46 -0.47000000000000003 1.46
v -0.01 -0.6900000000000001 1.46
v -0.01 -0.8 1.82
v -0.48 0.47000000000000003 2.21
v -0.63 0.62 1.78
v -0.01 0.89 1.78
v -0.01 0.67 2.21
v 0.6900000000000001 0.0 1.46
v 0.79 0.0 1.82
v -0.55 -0.54 1.81
v -0.48 -0.47000000000000003 1.46
v -0.71 0.0 1.46
v -0.81 0.0 1.81
v 0.61 0.62 1.78
v 0.45 0.47000000000000003 2.21
v -0.68 0.0 2.21
v -0.9 0.0 1.78
v -0.48 -0.47000000000000003 2.21
v -0.63 -0.62 1.78
v 0.89 0.0 1.79
v 0.65 0.0 2.21
v -0.01 -0.67 2.21
v -0.01 -0.89 1.78
v 0.45 -0.47000000000000003 2.21
v 0.61 -0.62 1.78
v -0.01 0.8 2.16
v -0.01 0.0 2.48
v -0.55 0.54 2.16
v -0.81 0.0 2.16
v 0.79 0.0 2.16
v 0.53 0.54 2.16
v -0.55 -0.54 2.16
v -0.01 -0.8 2.16
v 0.53 -0.54 2.16
v -0.43 0.43 0.0
v -0.24 0.14 0.0
v -0.17 0.16 0.16
v -0.14 0.24 0.0
v 0.0 -0.29 0.0
v -0.21 -0.21 0.0
v -0.21 0.21 0.0
v 0.0 0.29 0.0
v -0.29 0.0 0.0
v 0.21 0.21 0.0
v 0.29 0.0 0.0
v 0.21 -0.21 0.0
v 0.36 0.11 0.04
v 0.21 0.0 0.14
v 0.32 0.0 0.18
v 0.25 0.11 0.0
v 0.25 -0.11 0.0
v 0.36 -0.11 0.04
v 0.43 0.0 0.11
v 0.43 0.11 0.0
v 0.43 -0.11 0.0
v 0.5 0.0 0.04
v 0.64 0.0 0.0
v -0.25 -0.11 0.0
v -0.25 -0.25 0.03
v -0.11 -0.25 0.0
v -0.43 -0.43 0.0
v 0.68 -0.24 1.43
v 0.72 -0.23 1.41
v 0.6900000000000001 -0.21 1.43
v 0.71 -0.26 1.41
v 0.42 0.03 1.26
v 0.05 -0.06 1.1400000000000001
v 0.42 -0.03 1.26
v 0.05 0.06 1.1400000000000001
v 0.05 -0.06 1.03
v 0.48 -0.03 1.2
v 0.48 0.03 1.2
v 0.05 0.06 1.03
v 0.5 0.0 1.28
v 0.54 0.0 1.23
v 0.5 0.11 1.3
v 0.54 0.08 1.3
v 0.52 0.11 1.25
v 0.54 0.08 1.23
v -0.49 0.27 1.54
v -0.47000000000000003 0.25 1.56
v -0.47000000000000003 0.27 1.56
v -0.49 0.25 1.54
v -0.01 0.06 1.28
v -0.24 0.21 1.3900000000000001
v -0.07 0.01 1.28
v -0.21 0.24 1.3900000000000001
v -0.26 0.24 1.34
v -0.07 0.01 1.17
v -0.01 0.06 1.17
v -0.23 0.26 1.34
v -0.26 0.26 1.42
v -0.28 0.29 1.37
v -0.23 0.31 1.43
v -0.2 0.31 1.43
v -0.21 0.32 1.3800000000000001
v -0.23 0.31 1.37

usemtl tex_32767
f 1 2 3
f 1 3 4
f 1 5 6
f 1 6 7
f 1 8 2
f 1 4 5
f 1 7 9
f 1 9 8
f 51 52 53
f 51 53 54
f 9 55 8
f 9 56 55
f 5 57 6
f 5 58 57
f 7 56 9
f 7 59 56
f 59 6 57
f 59 7 6
f 58 4 60
f 58 5 4
f 3 60 4
f 3 61 60
f 61 2 62
f 61 3 2
f 62 8 55
f 62 2 8
f 63 64 65
f 63 66 64
f 65 67 68
f 65 64 67
f 63 69 70
f 63 65 69
f 65 71 69
f 65 68 71
f 72 70 69
f 71 72 69
f 73 70 72
f 73 72 71
f 74 75 9
f 76 9 75
f 75 77 76
f 74 77 75
f 78 79 80
f 78 81 79
f 82 83 84
f 82 85 83
f 84 86 87
f 84 83 86
f 88 85 82
f 88 89 85
f 80 84 78
f 80 90 84
f 78 87 81
f 78 84 87
f 79 90 80
f 79 91 90
f 90 82 84
f 90 92 82
f 90 93 92
f 92 88 82
f 94 88 92
f 90 95 93
f 90 91 95
f 94 93 95
f 94 92 93
f 87 89 88
f 87 86 89
f 81 91 79
f 81 87 91
f 91 87 88
f 88 95 91
f 95 88 94
f 96 97 98
f 99 97 96
f 100 101 102
f 100 103 101
f 102 104 105
f 102 101 104
f 106 103 100
f 106 107 103
f 108 97 101
f 108 98 97
f 101 99 104
f 101 97 99
f 109 98 108
f 109 96 98
f 103 108 101
f 110 103 111
f 110 108 103
f 107 111 103
f 107 112 111
f 113 108 110
f 109 108 113
f 110 112 113
f 111 112 110
f 105 107 106
f 105 104 107
f 109 99 96
f 104 99 109
f 104 109 107
f 113 107 109
f 107 113 112
usemtl tex_65
f 10 11 12 13
f 14 15 11 10
f 16 17 18 19
f 20 21 22 23
f 13 12 24 25
f 26 27 28 29
f 19 18 27 26
f 23 22 30 31
f 32 33 21 20
f 34 35 33 32
f 31 30 36 37
f 38 39 35 34
f 40 41 39 38
f 37 36 41 40
f 42 43 44
f 44 43 45
f 46 43 47
f 47 43 42
f 45 43 48
f 48 43 49
f 49 43 50
f 50 43 46
f 25 24 17 16
f 29 28 15 14
