# OGRS RSC model extracted from .ob3
# vertices: 80  faces: 44
mtllib flower.mtl

o flower
v -0.18 0.14 0.59
v -0.24 0.07 0.59
v -0.18 0.07 0.62
v -0.18 0.0 0.59
v -0.12 0.07 0.59
v -0.03 0.13 0.6
v -0.06 0.23 0.6
v -0.18 0.09 0.54
v -0.33 0.02 0.6
v -0.3 -0.08 0.6
v -0.18 0.06 0.54
v -0.21 -0.12 0.6
v -0.23 0.25 0.6
v -0.32 0.21 0.6
v -0.2 0.07 0.54
v -0.14 -0.1 0.6
v -0.05 -0.07 0.6
v -0.17 0.07 0.54
v -0.02 0.04 0.6
v -0.15 0.27 0.6
v -0.35000000000000003 0.11 0.6
v 0.0 0.0 0.65
v -0.06 -0.07 0.65
v 0.0 -0.07 0.68
v 0.0 -0.14 0.65
v 0.06 -0.07 0.65
v 0.15 -0.01 0.66
v 0.12 0.09 0.66
v 0.0 -0.05 0.6
v -0.15 -0.12 0.66
v -0.12 -0.22 0.66
v 0.0 -0.08 0.6
v -0.03 -0.26 0.66
v -0.05 0.11 0.66
v -0.14 0.07 0.66
v -0.02 -0.07 0.6
v 0.04 -0.24 0.66
v 0.13 -0.21 0.66
v 0.01 -0.07 0.6
v 0.16 -0.1 0.66
v 0.03 0.13 0.66
v -0.17 -0.03 0.66
v 0.0 0.0 0.06
v -0.03 0.0 0.06
v -0.14 0.09 0.54
v -0.11 0.09 0.54
v -0.03 -0.03 0.06
v -0.14 0.06 0.54
v 0.0 -0.03 0.06
v -0.11 0.06 0.54
v 0.0 -0.05 0.11
v -0.03 -0.05 0.11
v -0.03 -0.05 0.59
v 0.0 -0.05 0.59
v -0.03 -0.08 0.11
v -0.03 -0.08 0.59
v 0.0 -0.08 0.11
v 0.0 -0.08 0.59
v -0.14 0.23 0.26
v 0.07 0.25 0.26
v 0.03 0.46 0.32
v -0.11 0.44 0.32
v -0.11 0.0 0.11
v 0.06 0.02 0.11
v -0.05 0.67 0.27
v 0.0 -0.03 0.02
v -0.14 -0.28 0.26
v -0.27 -0.07 0.26
v -0.38 -0.22 0.32
v -0.3 -0.35000000000000003 0.32
v 0.0 -0.12 0.11
v -0.09 0.04 0.11
v -0.48 -0.42 0.27
v 0.21 -0.01 0.26
v 0.13 -0.24 0.26
v 0.3 -0.29 0.32
v 0.36 -0.14 0.32
v 0.03 0.04 0.11
v -0.02 -0.1 0.11
v 0.49 -0.31 0.27

usemtl tex_32767
f 1 2 3
f 2 4 3
f 4 5 3
f 5 1 3
f 6 7 8
f 9 10 11
f 10 12 11
f 13 14 15
f 16 17 18
f 17 19 18
f 7 20 8
f 14 21 15
f 22 23 24
f 23 25 24
f 25 26 24
f 26 22 24
f 27 28 29
f 30 31 32
f 31 33 32
f 34 35 36
f 37 38 39
f 38 40 39
f 28 41 29
f 35 42 36
f 43 44 45 46
f 44 47 48 45
f 49 43 46 50
f 47 49 50 48
f 51 52 53 54
f 52 55 56 53
f 57 51 54 58
f 55 57 58 56
usemtl rsc_005008
f 59 60 61 62
f 63 64 60 59
f 62 61 65
f 66 64 63
f 67 68 69 70
f 71 72 68 67
f 70 69 73
f 66 72 71
f 74 75 76 77
f 78 79 75 74
f 77 76 80
f 66 79 78
