# OGRS RSC model extracted from .ob3
# vertices: 389  faces: 278
mtllib grapevine.mtl

o grapevine
v -0.1 0.03 0.2
v -0.09 0.02 0.19
v -0.08 0.02 0.18
v -0.08 0.01 0.17
v -0.08 0.0 0.17
v -0.07 0.02 0.18
v -0.06 0.02 0.17
v -0.05 0.03 0.17
v -0.06 0.04 0.18
v -0.05 0.05 0.18
v -0.06 0.07 0.19
v -0.07 0.08 0.2
v -0.09 0.06 0.2
v -0.09 0.05 0.2
v -0.09 0.04 0.2
v -0.15 0.0 0.21
v -0.13 0.01 0.21
v -0.12 0.01 0.21
v -0.12 0.01 0.2
v -0.11 0.01 0.2
v -0.12 0.02 0.21
v -0.12 0.03 0.2
v -0.12 0.04 0.2
v -0.13 0.03 0.21
v -0.13 0.04 0.2
v -0.15 0.05 0.21
v -0.16 0.04 0.21
v -0.16 0.02 0.21
v -0.15 0.02 0.21
v -0.14 0.02 0.21
v -0.09 0.0 0.17
v -0.07 -0.01 0.17
v -0.06 -0.01 0.17
v -0.05 0.0 0.16
v -0.04 0.0 0.16
v -0.05 -0.02 0.17
v -0.05 -0.03 0.16
v -0.05 -0.05 0.16
v -0.07 -0.05 0.16
v -0.07 -0.06 0.15
v -0.09 -0.06 0.16
v -0.11 -0.05 0.16
v -0.1 -0.03 0.16
v -0.09 -0.02 0.17
v -0.09 -0.01 0.16
v -0.03 -0.14 0.33
v -0.03 -0.11 0.33
v -0.04 -0.09 0.33
v -0.03 -0.08 0.34
v -0.05 -0.08 0.34
v -0.06 -0.07 0.34
v -0.09 -0.07 0.34
v -0.08 -0.09 0.34
v -0.1 -0.09 0.34
v -0.11 -0.12 0.35000000000000003
v -0.11 -0.15 0.34
v -0.08 -0.15 0.34
v -0.06 -0.15 0.34
v -0.06 -0.13 0.34
v -0.07 -0.16 0.4
v -0.08 -0.13 0.4
v -0.09 -0.13 0.4
v -0.08 -0.12 0.39
v -0.09 -0.12 0.39
v -0.1 -0.12 0.4
v -0.11 -0.12 0.41000000000000003
v -0.13 -0.12 0.41000000000000003
v -0.12 -0.14 0.41000000000000003
v -0.13 -0.15 0.41000000000000003
v -0.13 -0.16 0.41000000000000003
v -0.13 -0.18 0.41000000000000003
v -0.1 -0.18 0.41000000000000003
v -0.09 -0.17 0.4
v -0.09 -0.16 0.41000000000000003
v 0.11 -0.16 0.42
v 0.09 -0.14 0.42
v 0.07 -0.14 0.42
v 0.07 -0.12 0.42
v 0.06 -0.12 0.42
v 0.06 -0.14 0.42
v 0.05 -0.15 0.43
v 0.03 -0.17 0.43
v 0.05 -0.17 0.43
v 0.04 -0.19 0.43
v 0.06 -0.21 0.43
v 0.08 -0.22 0.43
v 0.1 -0.2 0.43
v 0.11 -0.18 0.42
v 0.09 -0.17 0.43
v 0.09 -0.01 0.44
v 0.07 -0.05 0.43
v 0.07 -0.07 0.42
v 0.05 -0.08 0.42
v 0.05 -0.09 0.42
v 0.07 -0.09 0.42
v 0.09 -0.11 0.43
v 0.12 -0.14 0.43
v 0.13 -0.1 0.43
v 0.15 -0.11 0.44
v 0.17 -0.09 0.45
v 0.2 -0.05 0.45
v 0.16 -0.03 0.45
v 0.13 -0.02 0.44
v 0.12 -0.04 0.45
v 0.04 0.03 0.23
v 0.07 -0.01 0.21
v 0.08 -0.02 0.21
v 0.08 -0.03 0.2
v 0.09 -0.04 0.2
v 0.1 -0.03 0.21
v 0.12 -0.02 0.21
v 0.15 -0.01 0.21
v 0.13 0.01 0.22
v 0.15 0.02 0.23
v 0.14 0.05 0.24
v 0.12 0.08 0.24
v 0.09 0.06 0.24
v 0.07 0.05 0.23
v 0.08 0.03 0.23
v 0.18 -0.12 0.21
v 0.15 -0.09 0.21
v 0.14 -0.08 0.21
v 0.14 -0.06 0.21
v 0.13 -0.06 0.21
v 0.12 -0.07 0.21
v 0.11 -0.08 0.21
v 0.08 -0.09 0.21
v 0.1 -0.11 0.21
v 0.09 -0.13 0.21
v 0.1 -0.15 0.21
v 0.12 -0.18 0.21
v 0.15 -0.16 0.21
v 0.16 -0.14 0.21
v 0.15 -0.12 0.22
v -0.02 0.16 0.07
v 0.01 0.07 0.07
v 0.02 0.04 0.07
v 0.01 0.01 0.05
v 0.01 -0.01 0.06
v 0.05 0.02 0.08
v 0.08 0.01 0.1
v 0.15 0.01 0.13
v 0.12 0.07 0.11
v 0.16 0.08 0.13
v 0.17 0.17 0.13
v 0.15 0.24 0.13
v 0.08 0.21 0.11
v 0.03 0.19 0.09
v 0.04 0.14 0.09
v 0.05 0.09 0.32
v 0.0 0.03 0.29
v -0.02 0.01 0.27
v 0.0 -0.01 0.24
v -0.01 -0.02 0.24
v -0.05 0.0 0.27
v -0.09 0.01 0.27
v -0.15 0.03 0.27
v -0.13 0.08 0.29
v -0.16 0.09 0.3
v -0.14 0.14 0.34
v -0.1 0.19 0.38
v -0.03 0.16 0.36
v 0.0 0.12 0.34
v 0.0 0.1 0.31
v 0.16 0.07 0.29
v 0.09 0.01 0.28
v 0.07 -0.02 0.28
v 0.03 -0.02 0.27
v 0.02 -0.05 0.27
v 0.06 -0.07 0.29
v 0.06 -0.1 0.3
v 0.09 -0.18 0.32
v 0.14 -0.12 0.32
v 0.18 -0.16 0.33
v 0.23 -0.13 0.35000000000000003
v 0.3 -0.09 0.35000000000000003
v 0.25 -0.02 0.33
v 0.21 0.02 0.32
v 0.18 0.0 0.32
v 0.02 0.01 0.52
v 0.02 0.03 0.54
v 0.01 0.01 0.51
v 0.01 0.03 0.54
v 0.01 0.01 0.52
v 0.02 0.0 0.52
v 0.01 0.0 0.53
v 0.02 0.02 0.54
v 0.01 0.0 0.52
v 0.01 -0.03 -0.01
v -0.01 -0.03 -0.01
v -0.01 -0.04 0.25
v 0.0 -0.05 0.25
v 0.03 0.01 -0.01
v 0.03 -0.02 -0.01
v 0.02 -0.05 0.25
v 0.03 -0.03 0.2
v 0.03 -0.02 0.19
v 0.03 -0.01 0.2
v 0.04 -0.01 0.2
v 0.01 0.02 -0.01
v 0.02 0.02 0.03
v 0.01 0.02 0.04
v 0.01 0.02 0.05
v 0.02 0.02 0.06
v 0.03 -0.01 0.25
v -0.01 0.0 0.18
v -0.02 0.0 0.18
v -0.01 0.02 -0.01
v -0.03 0.01 -0.01
v -0.02 -0.01 0.16
v -0.02 -0.02 0.16
v -0.02 -0.02 0.17
v -0.03 -0.02 -0.01
v -0.02 -0.02 0.26
v -0.02 0.0 0.17
v 0.03 -0.03 0.25
v 0.03 0.01 0.05
v 0.02 0.01 0.04
v -0.01 -0.03 0.32
v 0.0 -0.04 0.32
v 0.0 -0.04 0.33
v -0.01 -0.03 0.34
v 0.01 -0.01 0.39
v 0.02 -0.01 0.39
v 0.01 -0.04 0.38
v 0.03 -0.03 0.37
v 0.03 -0.02 0.36
v 0.04 -0.02 0.37
v 0.03 0.01 0.39
v 0.02 0.01 0.39
v 0.01 0.0 0.26
v 0.0 0.0 0.26
v 0.01 0.01 0.39
v 0.0 0.0 0.39
v -0.01 -0.03 0.33
v 0.02 -0.04 0.37
v 0.03 0.0 0.39
v 0.03 -0.03 0.4
v 0.03 -0.02 0.4
v 0.02 -0.04 0.39
v 0.01 -0.01 0.5
v 0.02 -0.01 0.5
v 0.02 0.0 0.5
v 0.02 0.01 0.5
v 0.01 0.0 0.5
v -0.02 -0.01 0.19
v -0.02 -0.02 0.19
v -0.06 0.0 0.17
v -0.06 0.0 0.16
v -0.1 0.01 0.18
v -0.09 0.01 0.18
v -0.11 0.02 0.2
v -0.12 0.02 0.2
v -0.12 0.01 0.19
v -0.14 0.02 0.2
v -0.15 0.02 0.22
v 0.04 -0.05 0.39
v 0.05 -0.07 0.41000000000000003
v 0.04 -0.05 0.42
v 0.04 -0.04 0.41000000000000003
v 0.05 -0.07 0.43
v 0.04 -0.04 0.39
v 0.05 -0.06 0.42
v 0.03 -0.06 0.4
v 0.03 -0.05 0.41000000000000003
v 0.04 -0.07 0.43
v 0.04 -0.07 0.42
v 0.03 -0.06 0.39
v 0.04 -0.07 0.41000000000000003
v 0.05 -0.12 0.42
v 0.06 -0.12 0.4
v 0.06 -0.11 0.41000000000000003
v 0.05 -0.12 0.41000000000000003
v 0.05 -0.12 0.4
v 0.1 -0.14 0.45
v 0.09 -0.14 0.45
v -0.03 -0.06 0.33
v -0.05 -0.1 0.34
v -0.04 -0.1 0.35000000000000003
v -0.03 -0.06 0.35000000000000003
v -0.02 -0.06 0.34
v -0.04 -0.1 0.36
v -0.04 -0.05 0.33
v -0.03 -0.05 0.34
v -0.05 -0.09 0.35000000000000003
v -0.1 -0.13 0.4
v 0.06 -0.04 0.21
v 0.06 -0.03 0.21
v 0.13 -0.05 0.21
v 0.03 -0.02 0.21
v 0.03 -0.03 0.21
v 0.06 -0.02 0.21
v 0.06 -0.02 0.2
v 0.13 -0.04 0.21
v 0.06 -0.02 0.19
v 0.06 -0.03 0.19
v 0.13 -0.05 0.2
v 0.06 -0.04 0.2
v 0.16 -0.12 0.19
v 0.16 -0.12 0.2
v 0.17 -0.11 0.19
v 0.16 -0.11 0.19
v -0.02 -0.05 0.33
v -0.02 -0.05 0.34
v -0.02 -0.05 0.35000000000000003
v -0.03 -0.04 0.34
v -0.03 -0.04 0.33
v -0.04 -0.06 0.31
v -0.03 -0.06 0.3
v -0.02 -0.06 0.3
v -0.02 -0.05 0.28
v -0.01 -0.06 0.29
v -0.06 -0.08 0.3
v -0.07 -0.06 0.3
v -0.03 -0.07 0.31
v -0.03 -0.05 0.3
v -0.04 -0.04 0.28
v -0.04 -0.04 0.26
v -0.03 -0.06 0.26
v -0.03 -0.09 0.3
v -0.04 -0.1 0.28
v -0.07 -0.08 0.27
v -0.01 -0.07 0.27
v -0.05 -0.07 0.24
v -0.04 -0.07 0.24
v -0.07 -0.07 0.27
v -0.05 -0.08 0.25
v -0.05 -0.07 0.25
v 0.02 -0.04 0.4
v 0.03 -0.04 0.41000000000000003
v 0.04 -0.03 0.4
v 0.04 -0.03 0.38
v 0.02 -0.05 0.38
v 0.02 -0.05 0.39
v 0.03 -0.04 0.38
v 0.06 -0.05 0.37
v 0.06 -0.06 0.38
v 0.04 -0.04 0.38
v 0.05 -0.05 0.36
v 0.06 -0.04 0.36
v 0.06 -0.09 0.38
v 0.05 -0.06 0.34
v 0.08 -0.06 0.39
v 0.06 -0.04 0.38
v 0.06 -0.03 0.37
v 0.07 -0.01 0.36
v 0.06 -0.03 0.34
v 0.09 -0.05 0.33
v 0.1 -0.03 0.34
v 0.08 -0.04 0.39
v 0.11 -0.05 0.37
v 0.1 -0.07 0.36
v 0.08 -0.07 0.33
v 0.11 -0.07 0.33
v 0.11 -0.06 0.33
v 0.09 -0.09 0.35000000000000003
v 0.11 -0.08 0.34
v 0.12 -0.05 0.33
v 0.12 -0.07 0.34
v 0.12 -0.06 0.34
v 0.04 -0.02 0.19
v 0.04 -0.02 0.18
v 0.06 -0.03 0.18
v 0.05 -0.02 0.2
v 0.04 -0.02 0.21
v 0.05 -0.01 0.21
v 0.04 -0.03 0.21
v 0.04 -0.03 0.2
v 0.04 -0.03 0.19
v 0.04 -0.04 0.19
v 0.04 -0.03 0.18
v 0.03 -0.01 0.16
v 0.08 -0.02 0.17
v 0.02 -0.03 0.16
v 0.06 -0.04 0.19
v 0.08 -0.04 0.17
v 0.07 -0.04 0.14
v 0.06 -0.05 0.14
v 0.02 -0.05 0.18
v 0.07 -0.06 0.18
v 0.06 -0.06 0.15
v 0.03 -0.05 0.15
v 0.06 -0.05 0.13
v 0.06 -0.06 0.13
v 0.03 -0.03 0.14
v 0.04 -0.04 0.12
v 0.03 -0.04 0.14
v 0.04 -0.05 0.12
v 0.04 -0.06 0.13

usemtl rsc_507030
f 1 2 3 4 5 6 7 8 9 10 11 12 13 14 15
f 16 17 18 19 20 21 22 23 24 25 26 27 28 29 30
f 31 32 33 34 35 36 37 38 39 40 41 42 43 44 45
f 46 47 48 49 49 50 51 52 53 54 55 56 57 58 59
f 60 61 62 63 64 65 66 67 68 69 70 71 72 73 74
f 75 76 77 78 79 80 81 82 83 84 85 86 87 88 89
f 90 91 92 93 94 95 96 97 98 99 100 101 102 103 104
f 105 106 107 108 109 110 111 112 113 114 115 116 117 118 119
f 120 121 122 123 124 125 126 127 128 129 130 131 132 133 134
f 135 136 137 138 139 140 141 142 143 144 145 146 147 148 149
f 150 151 152 153 154 155 156 157 158 159 160 161 162 163 164
f 165 166 167 168 169 170 171 172 173 174 175 176 177 178 179
f 250 251 252 253
f 250 250 253 254
f 251 250 19 252
f 250 250 254 19
f 30 255 256 256
f 255 30 256 256
f 263 258 271 272
f 19 254 255 255
f 252 19 30 255
f 254 253 255 255
f 253 252 255 255
f 19 19 255 30
f 288 292 294 289
usemtl rsc_8838d8
f 180 181 181 180
f 184 183 183 184
f 224 224 242 242
f 245 184 184 245
f 243 180 180 243
f 212 212 249 249
f 246 246 248 248
f 250 250 19 19
f 250 250 19 19
f 250 250 19 19
f 250 250 19 19
f 255 255 256 256
f 255 255 256 256
f 30 30 256 256
f 30 30 256 256
f 255 255 256 256
f 255 255 256 256
f 257 257 258 258
f 259 259 261 261
f 258 258 271 271
f 261 261 79 79
f 261 261 79 79
f 79 79 275 275
f 271 271 275 275
f 79 79 275 275
f 285 285 286 286
f 279 279 286 286
f 256 256 256 256 256 256 256 256
f 249 249 250 250
f 249 249 250 250
f 249 249 250 250
f 248 248 250 250
f 248 248 250 250
f 19 19 30 30
f 19 19 30 30
f 19 19 255 255
f 275 275 275 275 275 275 276 275 275
f 288 288 289 289
f 297 297 299 299
f 294 294 301 301
f 289 289 300 300
f 283 277 308 308
f 303 303 309 310
f 310 309 311 312
f 308 308 313 314
f 277 303 310 315
f 277 277 315 308
f 307 283 308 316
f 303 307 316 309
f 311 317 318 319
f 313 320 321 322
f 315 310 312 320
f 308 315 320 313
f 309 316 317 311
f 316 308 314 317
f 323 319 324 325
f 326 322 327 328
f 317 314 326 318
f 314 313 322 326
f 312 311 319 323
f 320 312 323 321
f 324 324 328 327
f 325 324 327 327
f 321 323 325 327
f 322 321 327 327
f 319 318 324 324
f 318 326 328 324
f 330 330 259 259
f 257 257 336 337
f 338 335 339 340
f 238 238 330 330
f 339 337 341 342
f 337 336 343 341
f 257 262 344 336
f 335 257 337 339
f 262 332 345 344
f 332 338 340 345
f 346 347 348 349
f 343 350 351 352
f 340 339 342 347
f 336 344 350 343
f 345 340 347 346
f 344 345 346 350
f 348 353 354 355
f 353 356 357 354
f 350 346 349 351
f 341 343 352 356
f 342 341 356 353
f 347 342 353 348
f 358 355 359 360
f 355 354 357 359
f 352 351 360 359
f 349 348 355 358
f 351 349 358 360
f 356 352 359 357
f 295 361 362 363
f 364 361 295 293
f 369 368 370 371
f 197 197 369 361
f 196 196 368 368
f 197 196 368 369
f 363 362 372 373
f 298 296 363 375
f 368 298 375 370
f 361 369 371 362
f 296 295 363 363
f 376 373 377 378
f 379 380 381 382
f 375 363 376 380
f 371 370 379 374
f 370 375 380 379
f 363 363 373 376
f 381 378 383 384
f 377 385 386 383
f 372 374 387 385
f 373 372 385 377
f 380 376 378 381
f 374 379 382 387
f 388 389 384 383
f 386 388 383 383
f 387 382 389 388
f 382 381 384 389
f 378 377 383 383
f 385 387 388 386
f 250 251 251 250
usemtl rsc_904008
f 182 181 183 184
f 185 186 187 181
f 184 183 183 188
f 180 181 181 182
f 180 185 181 181
f 186 188 183 187
f 189 190 191 192
f 193 194 195 196 196 197 197 198 199
f 200 201 202 203 204 205 206 207 208
f 209 210 211 212 213
f 213 212 214 191 190
f 194 189 192 195
f 208 207 215 210 209
f 193 199 216 205 204 217 218 201 200
f 192 191 219 220 221 222 223 224 225
f 216 195 226 227 228
f 205 229 230 231
f 232 233 234 214
f 214 234 223 222 235 219 219 191
f 195 192 225 236 226
f 231 230 233 232
f 216 228 237 229 205
f 181 181 187 183 183 183 181 181
f 224 223 241 242
f 237 224 242 243
f 229 243 244 230
f 233 245 245 234
f 234 245 241 223
f 230 244 245 233
f 237 243 243 229
f 242 241 188 186
f 243 242 185 180
f 243 180 182 244
f 245 184 188 241
f 242 242 186 185
f 244 182 184 245
f 246 207 231 232 246
f 207 206 205 231
f 212 247 246 232 214 212
f 201 218 217 204 203 202
f 290 291 196 195 216 199
f 362 371 374 372
usemtl rsc_805028
f 238 224 237 228 239 238
f 240 225 224 224 238
f 212 211 210
f 207 246 248 249
f 247 212 249 248
f 212 210 249 249
f 215 207 249 249
f 246 247 248 248
f 210 215 249 249
f 259 260 261 261
f 262 257 258 263
f 264 265 266 267
f 257 268 269 258
f 268 264 267 269
f 260 262 263 261
f 265 259 261 266
f 266 261 79 270
f 267 266 270 273
f 258 269 274 271
f 269 267 273 274
f 261 263 272 79
f 274 273 276 275
f 79 272 275 275
f 270 79 275 275
f 272 271 275 275
f 273 270 275 276
f 271 274 275 275
f 277 277 278 279
f 280 281 279 282
f 283 284 285 285
f 277 283 285 278
f 284 280 282 285
f 281 277 279 279
f 282 279 286 286
f 278 285 286 286
f 279 278 286 286
f 285 282 286 286
f 248 249 250 250
f 249 248 250 251
f 249 249 251 250
f 287 288 289 289
f 292 293 294 294
f 295 296 297 297
f 298 287 289 297
f 293 295 297 294
f 296 298 297 297
f 289 289 300 299
f 297 297 299 302
f 297 289 299 299
f 289 294 301 300
f 294 297 302 301
f 300 301 301 302 299 299 299 300
f 221 220 303 304
f 235 222 305 306
f 219 219 307 303
f 219 235 306 307
f 222 221 304 305
f 220 219 303 303
f 304 303 277 281
f 306 305 280 284
f 307 306 284 283
f 305 304 281 280
f 329 330 259 265
f 331 332 262 260
f 333 334 264 268
f 335 333 268 257
f 334 329 265 264
f 330 331 260 259
f 227 226 335 338
f 238 239 331 330
f 228 227 338 332
f 225 240 329 334
f 226 236 333 335
f 236 225 334 333
f 239 228 332 331
f 240 238 330 329
f 365 366 292 288
f 367 365 288 288
f 368 368 287 298
f 366 364 293 292
f 368 367 288 287
f 196 291 367 368
f 199 198 364 366
f 291 290 365 367
f 290 199 366 365
f 198 197 361 364
