# OGRS RSC model extracted from .ob3
# vertices: 146  faces: 226
mtllib greencabbage.mtl

o greencabbage
v -0.12 0.0 0.17
v -0.14 -0.09 0.12
v -0.16 0.01 0.12
v 0.06 0.14 0.12
v 0.0 0.17 0.07
v 0.0 0.14 0.12
v 0.17 0.1 0.0
v 0.19 0.02 0.07
v 0.17 0.1 0.07
v 0.09 0.16 0.07
v 0.2 0.01 0.0
v 0.0 -0.17 0.11
v -0.09 -0.16 0.05
v 0.0 -0.19 0.06
v -0.17 -0.09 0.06
v -0.19 0.0 0.07
v -0.13 0.09 0.12
v -0.09 0.16 0.07
v -0.06 0.14 0.12
v -0.08 -0.14 0.12
v -0.16 0.1 0.07
v 0.0 -0.18 0.0
v -0.17 0.1 0.0
v -0.1 -0.15 0.0
v 0.0 0.17 0.0
v -0.1 0.14 0.0
v -0.2 0.01 0.0
v -0.11 0.07 0.16
v -0.07 -0.11 0.16
v -0.05 0.11 0.16
v 0.0 -0.13 0.16
v -0.01 -0.03 0.2
v 0.0 -0.04 0.2
v -0.02 -0.03 0.2
v -0.03 -0.01 0.2
v -0.03 0.01 0.2
v -0.01 0.02 0.2
v 0.0 0.03 0.2
v 0.1 -0.16 0.06
v 0.1 -0.14 0.12
v 0.16 0.01 0.12
v 0.18 -0.09 0.06
v 0.15 -0.09 0.12
v 0.13 0.09 0.12
v 0.1 -0.15 0.0
v 0.11 0.14 0.0
v 0.11 0.07 0.16
v 0.13 0.0 0.17
v 0.07 -0.11 0.16
v 0.11 -0.07 0.18
v 0.05 0.11 0.16
v 0.0 0.12 0.16
v 0.01 -0.03 0.2
v 0.03 -0.01 0.2
v 0.02 -0.03 0.2
v 0.03 0.01 0.2
v 0.02 0.02 0.2
v -0.14 -0.24 0.07
v -0.24 -0.21 0.13
v -0.24 -0.15 0.08
v -0.02 -0.31 0.08
v -0.18 -0.33 0.1
v 0.14 -0.23 0.06
v 0.25 -0.2 0.1
v 0.18 -0.31 0.14
v 0.06 -0.3 0.1
v 0.0 -0.25 0.07
v 0.26 0.01 0.05
v 0.28 0.12 0.1
v 0.22 0.12 0.06
v 0.28 -0.1 0.09
v 0.34 0.02 0.15
v 0.12 0.21 0.06
v 0.02 0.28 0.1
v 0.14 0.25 0.14
v 0.22 0.19 0.12
v -0.1 0.25 0.06
v -0.02 0.28 0.12
v 0.0 0.23 0.06
v -0.22 0.2 0.11
v -0.22 0.14 0.06
v -0.29 0.01 0.05
v -0.28 0.1 0.12
v -0.35000000000000003 0.01 0.16
v -0.29 -0.09 0.11
v -0.23 -0.11 0.07
v -0.17 -0.21 0.0
v -0.1 -0.32 0.06
v 0.0 -0.25 0.01
v -0.31 -0.25 0.09
v -0.26 -0.3 0.09
v -0.24 -0.15 0.0
v -0.33 -0.04 0.07
v -0.27 0.01 0.02
v 0.16 -0.22 -0.01
v 0.02 -0.35000000000000003 0.06
v 0.22 -0.29 0.05
v 0.29 -0.23 0.05
v 0.23 -0.16 -0.01
v 0.32 -0.07 0.05
v 0.25 0.17 0.01
v 0.34 0.09 0.05
v 0.3 0.01 0.03
v 0.18 0.22 0.0
v 0.02 0.32 0.02
v 0.01 0.26 0.0
v 0.25 0.29 0.08
v 0.31 0.25 0.08
v -0.25 0.16 0.0
v -0.35000000000000003 0.05 0.1
v -0.34 0.23 0.12
v -0.19 0.21 0.0
v -0.07 0.33 0.05
v -0.28 0.29 0.12
v 0.17 -0.09 0.0
v 0.27 0.0 0.03
v 0.0 -0.26 0.01
v -0.17 -0.09 0.0
v -0.01 0.26 0.0
v -0.27 0.01 0.01
v -0.23 0.14 0.06
v 0.0 -0.27 0.04
v 0.22 -0.12 0.07
v 0.21 0.15 0.06
v 0.09 -0.18 0.13
v -0.09 -0.18 0.13
v 0.01 -0.23 0.15
v 0.15 -0.16 0.14
v 0.22 -0.13 0.15
v 0.21 -0.01 0.15
v 0.21 0.04 0.14
v 0.11 0.17 0.14
v 0.2 0.13 0.14
v 0.08 0.19 0.13
v 0.01 0.23 0.13
v -0.05 0.19 0.13
v -0.2 0.05 0.13
v -0.18 0.16 0.14
v -0.08 0.19 0.13
v -0.12 -0.16 0.14
v -0.19 -0.02 0.14
v -0.11 -0.07 0.16
v 0.23 -0.11 0.05
v 0.0 0.24 0.07
v -0.12 0.3 0.14
v -0.22 -0.11 0.15

usemtl rsc_209058
f 1 2 3
f 4 5 6
f 7 8 9
f 4 10 5
f 7 11 8
f 12 13 14
f 3 15 16
f 17 18 19
f 19 5 18
f 2 13 20
f 3 21 17
f 13 22 14
f 16 23 21
f 15 24 13
f 18 25 26
f 21 26 18
f 15 27 16
f 28 3 17
f 29 2 20
f 30 6 19
f 28 19 30
f 31 20 12
f 32 31 33
f 34 1 35
f 36 30 37
f 38 30 37
f 34 29 32
f 36 1 28
f 12 39 40
f 41 42 43
f 10 44 4
f 39 43 40
f 44 8 41
f 22 39 14
f 45 42 39
f 10 25 5
f 46 9 10
f 11 42 8
f 47 41 48
f 49 43 50
f 51 6 52
f 4 47 51
f 41 50 48
f 31 40 49
f 31 53 33
f 54 50 55
f 51 56 57
f 51 38 57
f 53 50 55
f 56 48 54
f 54 57 35
f 58 59 60
f 58 61 62
f 63 64 65
f 63 66 67
f 68 69 70
f 68 71 72
f 73 74 75
f 73 76 75
f 77 78 79
f 77 80 81
f 82 83 84
f 82 85 86
f 16 86 15
f 16 121 82
f 13 122 58
f 13 60 15
f 39 67 14
f 39 123 63
f 42 68 8
f 8 70 9
f 10 124 73
f 5 73 10
f 18 81 21
f 18 79 5
f 12 125 40
f 12 126 127
f 43 128 129
f 43 130 129
f 44 131 41
f 44 132 133
f 6 134 135
f 6 136 19
f 17 137 138
f 17 139 19
f 2 140 20
f 2 141 3
f 12 20 13
f 3 2 15
f 17 21 18
f 19 6 5
f 2 15 13
f 3 16 21
f 13 24 22
f 16 27 23
f 15 118 24
f 18 5 25
f 21 23 26
f 15 118 27
f 28 1 3
f 29 142 2
f 30 52 6
f 28 17 19
f 1 142 2
f 31 29 20
f 32 29 31
f 34 142 1
f 36 28 30
f 38 52 30
f 34 142 29
f 36 35 1
f 12 14 39
f 41 8 42
f 10 9 44
f 39 42 43
f 44 9 8
f 22 45 39
f 45 115 42
f 10 46 25
f 46 7 9
f 11 115 42
f 47 44 41
f 49 40 43
f 51 4 6
f 4 44 47
f 41 43 50
f 31 12 40
f 31 49 53
f 54 48 50
f 51 47 56
f 51 52 38
f 53 49 50
f 56 47 48
f 57 38 37
f 37 36 35
f 35 34 55
f 34 32 53
f 32 33 53
f 53 55 34
f 55 54 35
f 54 56 57
f 57 37 35
f 58 62 59
f 58 122 61
f 63 123 64
f 63 65 66
f 68 72 69
f 68 143 71
f 73 144 74
f 73 124 76
f 77 145 78
f 77 145 80
f 82 121 83
f 82 84 85
f 16 82 86
f 16 21 121
f 13 14 122
f 13 58 60
f 39 63 67
f 39 42 123
f 42 143 68
f 8 68 70
f 10 9 124
f 5 144 73
f 18 77 81
f 18 77 79
f 12 127 125
f 12 20 126
f 43 40 128
f 43 41 130
f 44 133 131
f 44 4 132
f 6 4 134
f 6 135 136
f 17 3 137
f 17 138 139
f 2 146 140
f 2 146 141
usemtl rsc_003808
f 87 88 89
f 87 90 91
f 92 93 94
f 95 96 97
f 95 98 99
f 99 100 98
f 101 102 103
f 104 105 106
f 101 107 108
f 109 110 111
f 112 113 114
f 109 114 112
f 7 104 101
f 46 106 25
f 7 103 11
f 115 116 99
f 45 99 115
f 45 117 95
f 118 94 27
f 118 87 24
f 24 89 22
f 23 112 26
f 26 119 112
f 23 120 109
f 87 91 88
f 87 92 90
f 92 90 93
f 95 117 96
f 95 97 98
f 99 116 100
f 101 108 102
f 104 107 105
f 101 104 107
f 109 120 110
f 112 119 113
f 109 111 114
f 7 46 104
f 46 104 106
f 7 101 103
f 115 11 116
f 45 95 99
f 45 22 117
f 118 92 94
f 118 92 87
f 24 87 89
f 23 109 112
f 26 25 119
f 23 27 120
