# OGRS RSC model extracted from .ob3
# vertices: 726  faces: 612
mtllib papayapalm.mtl

o papayapalm
v 0.04 0.09 0.0
v 0.04 0.08 0.23
v 0.18 0.08 0.23
v -0.08 0.09 0.0
v 0.04 0.05 0.81
v -0.08 0.05 0.76
v -0.24 0.02 1.21
v -0.18 0.02 1.26
v -0.18 -0.01 1.56
v -0.08 -0.09 0.0
v 0.18 -0.07 0.23
v 0.04 -0.07 0.23
v 0.04 -0.09 0.0
v -0.08 -0.04 0.76
v 0.04 -0.04 0.81
v -0.18 -0.01 1.26
v -0.24 -0.01 1.21
v 0.54 0.15 1.48
v 0.79 -0.01 1.56
v 0.26 0.26 1.43
v 0.54 -0.16 1.48
v 0.26 -0.29 1.43
v 0.4 0.15 1.9100000000000001
v 0.5 -0.01 2.11
v 0.25 0.26 1.72
v 0.4 -0.16 1.9100000000000001
v 0.25 -0.29 1.72
v -0.91 0.15 1.48
v -1.16 -0.01 1.56
v -0.63 0.26 1.43
v -0.91 -0.16 1.48
v -0.63 -0.29 1.43
v -0.77 0.15 1.9100000000000001
v -0.87 -0.01 2.11
v -0.62 0.26 1.72
v -0.77 -0.16 1.9100000000000001
v -0.62 -0.29 1.72
v -0.34 0.74 1.48
v -0.18 1.0 1.56
v -0.45 0.46 1.43
v -0.03 0.74 1.48
v 0.08 0.46 1.43
v -0.34 0.6 1.9100000000000001
v -0.18 0.7000000000000001 2.11
v -0.45 0.44 1.72
v -0.03 0.6 1.9100000000000001
v 0.08 0.44 1.72
v -0.34 -0.74 1.48
v -0.18 -1.0 1.56
v -0.45 -0.46 1.43
v -0.03 -0.74 1.48
v 0.08 -0.46 1.43
v -0.34 -0.6 1.9100000000000001
v -0.18 -0.71 2.11
v -0.45 -0.46 1.72
v -0.03 -0.6 1.9100000000000001
v 0.08 -0.44 1.72
v 0.34 -0.29 1.21
v 0.32 -0.47000000000000003 1.01
v 0.31 -0.09 1.41
v 0.13 -0.52 1.21
v -0.06 -0.51 1.41
v 0.1 0.55 1.21
v 0.26 0.52 1.01
v -0.11 0.51 1.41
v 0.32 0.34 1.21
v 0.29 0.15 1.41
v -0.52 0.52 1.21
v -0.7000000000000001 0.46 1.01
v -0.34 0.49 1.41
v -0.73 0.29 1.21
v -0.7000000000000001 0.08 1.41
v -0.6900000000000001 -0.32 1.21
v -0.65 -0.52 1.01
v -0.67 -0.15 1.41
v -0.47000000000000003 -0.54 1.21
v -0.28 -0.49 1.41
v 0.1 0.15 2.1
v 0.1 -0.01 2.31
v 0.1 0.26 1.8800000000000001
v 0.1 -0.16 2.1
v 0.1 -0.29 1.8800000000000001
v -0.49 -0.13 2.1
v -0.36 -0.22 2.31
v -0.58 -0.04 1.8800000000000001
v -0.25 -0.34 2.1
v -0.15 -0.41000000000000003 1.8800000000000001
v -0.14 0.07 1.37
v -0.17 0.1 1.3900000000000001
v -0.17 0.12 1.33
v -0.14 0.08 1.32
v -0.19 0.07 1.23
v -0.17 0.08 1.25
v -0.2 0.12 1.25
v -0.22 0.11 1.22
v -0.16 0.09 1.28
v -0.19 0.13 1.28
v -0.24 0.02 1.23
v -0.21 0.05 1.22
v -0.25 0.09 1.21
v -0.27 0.05 1.22
v -0.25 0.01 1.44
v -0.22 0.04 1.45
v -0.19 0.01 1.41
v -0.22 -0.02 1.4000000000000001
v -0.28 -0.01 1.3800000000000001
v -0.24 -0.03 1.36
v -0.25 -0.02 1.31
v -0.3 0.0 1.32
v -0.19 0.07 1.44
v -0.18 0.08 1.42
v -0.15 0.05 1.3900000000000001
v -0.16 0.03 1.4000000000000001
v -0.3 0.02 1.27
v -0.25 -0.01 1.27
v -0.25 0.0 1.25
v -0.28 0.04 1.24
v -0.26 0.0 1.41
v -0.23 -0.03 1.3800000000000001
v -0.2 0.01 1.27
v -0.19 0.02 1.27
v -0.18 0.03 1.27
v -0.17 0.04 1.28
v -0.16 0.02 1.35
v -0.17 0.01 1.36
v -0.16 0.04 1.32
v -0.16 0.03 1.34
v -0.21 -0.02 1.34
v -0.21 -0.02 1.31
v -0.18 0.0 1.36
v -0.2 -0.02 1.35
v -0.21 -0.01 1.29
v -0.21 0.0 1.28
v -0.16 0.04 1.29
v -0.19 -0.01 1.35
v -0.21 0.13 1.3900000000000001
v -0.21 0.15 1.34
v -0.26 0.13 1.25
v -0.23 0.15 1.27
v -0.22 0.15 1.3
v -0.3 0.09 1.25
v -0.28 0.11 1.25
v -0.29 0.05 1.42
v -0.26 0.07 1.43
v -0.32 0.04 1.34
v -0.31 0.04 1.3800000000000001
v -0.23 0.1 1.43
v -0.22 0.12 1.41
v -0.31 0.07 1.27
v -0.32 0.06 1.29
v -0.3 0.04 1.41
v -0.29 0.12 1.3
v -0.3 0.11 1.3
v -0.27 0.14 1.32
v -0.28 0.13 1.31
v -0.27 0.11 1.3900000000000001
v -0.26 0.12 1.3800000000000001
v -0.26 0.13 1.37
v -0.26 0.14 1.35
v -0.31 0.08 1.35
v -0.31 0.08 1.37
v -0.28 0.1 1.3900000000000001
v -0.3 0.08 1.3800000000000001
v -0.31 0.1 1.31
v -0.31 0.09 1.32
v -0.26 0.14 1.33
v -0.29 0.09 1.3900000000000001
v -0.26 -0.05 1.34
v -0.29 -0.08 1.36
v -0.31 -0.05 1.37
v -0.27 -0.02 1.35
v -0.32 0.02 1.29
v -0.31 0.01 1.32
v -0.35000000000000003 -0.01 1.34
v -0.37 0.0 1.31
v -0.3 0.0 1.34
v -0.33 -0.02 1.36
v -0.34 0.0 1.2
v -0.33 0.02 1.25
v -0.38 0.0 1.26
v -0.39 -0.01 1.21
v -0.3 -0.13 1.21
v -0.28 -0.13 1.26
v -0.26 -0.09 1.25
v -0.27 -0.09 1.2
v -0.33 -0.11 1.16
v -0.29 -0.08 1.16
v -0.31 -0.05 1.1500000000000001
v -0.35000000000000003 -0.08 1.1500000000000001
v -0.28 -0.12 1.31
v -0.28 -0.1 1.33
v -0.25 -0.06 1.31
v -0.25 -0.07 1.29
v -0.37 -0.05 1.16
v -0.33 -0.03 1.16
v -0.34 -0.01 1.18
v -0.38 -0.03 1.19
v -0.31 -0.12 1.19
v -0.28 -0.09 1.17
v -0.3 0.0 1.22
v -0.29 0.0 1.24
v -0.29 0.0 1.26
v -0.28 0.0 1.28
v -0.25 -0.04 1.27
v -0.25 -0.04 1.26
v -0.26 -0.02 1.29
v -0.26 -0.03 1.29
v -0.27 -0.04 1.2
v -0.28 -0.03 1.19
v -0.26 -0.05 1.24
v -0.27 -0.05 1.2
v -0.29 -0.02 1.2
v -0.3 -0.01 1.21
v -0.27 0.0 1.29
v -0.26 -0.05 1.22
v -0.33 -0.1 1.36
v -0.35000000000000003 -0.07 1.37
v -0.4 -0.04 1.31
v -0.38 -0.04 1.35
v -0.37 -0.05 1.36
v -0.42 -0.05 1.23
v -0.41000000000000003 -0.04 1.27
v -0.35000000000000003 -0.15 1.22
v -0.33 -0.14 1.27
v -0.39 -0.11 1.18
v -0.37 -0.13 1.19
v -0.33 -0.13 1.32
v -0.33 -0.12 1.34
v -0.41000000000000003 -0.06 1.2
v -0.4 -0.08 1.19
v -0.36 -0.14 1.2
v -0.41000000000000003 -0.08 1.28
v -0.41000000000000003 -0.09 1.25
v -0.39 -0.08 1.32
v -0.4 -0.08 1.3
v -0.37 -0.12 1.3
v -0.37 -0.12 1.31
v -0.37 -0.11 1.32
v -0.38 -0.1 1.33
v -0.4 -0.11 1.23
v -0.39 -0.13 1.23
v -0.37 -0.13 1.28
v -0.38 -0.13 1.24
v -0.41000000000000003 -0.09 1.24
v -0.4 -0.1 1.23
v -0.39 -0.09 1.32
v -0.38 -0.13 1.25
v -0.01 0.11 1.3900000000000001
v -0.03 0.07 1.4000000000000001
v -0.07 0.09 1.41
v -0.04 0.13 1.4000000000000001
v -0.09 0.17 1.33
v -0.08 0.16 1.37
v -0.12 0.13 1.37
v -0.13 0.14 1.34
v -0.07 0.15 1.3900000000000001
v -0.1 0.12 1.3900000000000001
v -0.08 0.18 1.24
v -0.09 0.18 1.29
v -0.14 0.16 1.28
v -0.12 0.15 1.23
v 0.02 0.06 1.23
v 0.02 0.05 1.29
v 0.03 0.1 1.29
v 0.03 0.11 1.24
v -0.01 0.09 1.18
v 0.01 0.13 1.2
v -0.02 0.15 1.19
v -0.04 0.11 1.16
v 0.01 0.05 1.34
v -0.01 0.06 1.37
v 0.01 0.1 1.36
v 0.02 0.1 1.34
v -0.08 0.14 1.17
v -0.05 0.17 1.2
v -0.07 0.18 1.21
v -0.1 0.15 1.2
v 0.01 0.07 1.2
v 0.02 0.12 1.21
v -0.04 0.18 1.27
v -0.05 0.18 1.29
v -0.05 0.17 1.31
v -0.04 0.17 1.34
v 0.0 0.14 1.33
v 0.01 0.14 1.32
v -0.02 0.15 1.35
v -0.01 0.14 1.34
v 0.0 0.15 1.24
v -0.01 0.16 1.24
v 0.01 0.14 1.29
v 0.01 0.15 1.25
v -0.03 0.17 1.24
v -0.03 0.17 1.25
v -0.04 0.16 1.34
v 0.01 0.14 1.27
v -0.06 0.04 1.3800000000000001
v -0.09 0.05 1.3900000000000001
v -0.14 0.1 1.32
v -0.13 0.09 1.36
v -0.12 0.08 1.3800000000000001
v -0.13 0.11 1.23
v -0.14 0.11 1.28
v -0.02 0.03 1.23
v -0.02 0.02 1.28
v -0.07 0.07 1.18
v -0.04 0.05 1.18
v -0.03 0.02 1.33
v -0.05 0.03 1.35
v -0.12 0.1 1.2
v -0.1 0.09 1.18
v -0.03 0.04 1.2
v -0.12 0.07 1.27
v -0.12 0.07 1.25
v -0.12 0.06 1.32
v -0.12 0.06 1.3
v -0.07 0.03 1.3
v -0.08 0.03 1.31
v -0.08 0.03 1.33
v -0.1 0.04 1.33
v -0.09 0.05 1.22
v -0.07 0.04 1.23
v -0.06 0.03 1.28
v -0.07 0.03 1.23
v -0.11 0.06 1.24
v -0.1 0.06 1.23
v -0.11 0.05 1.32
v -0.06 0.03 1.25
v -0.26 -0.01 1.22
v -0.3 0.0 1.23
v -0.29 0.03 1.25
v -0.25 0.01 1.23
v -0.23 0.08 1.18
v -0.23 0.06 1.21
v -0.27 0.09 1.22
v -0.26 0.11 1.19
v -0.23 0.04 1.22
v -0.27 0.07 1.24
v -0.24 0.09 1.09
v -0.23 0.09 1.1400000000000001
v -0.26 0.12 1.1400000000000001
v -0.27 0.12 1.09
v -0.34 -0.01 1.08
v -0.33 -0.03 1.1300000000000001
v -0.29 -0.03 1.1300000000000001
v -0.29 -0.02 1.08
v -0.33 0.03 1.03
v -0.28 0.01 1.04
v -0.27 0.04 1.04
v -0.31 0.06 1.02
v -0.33 -0.03 1.18
v -0.32 -0.01 1.21
v -0.27 -0.02 1.19
v -0.28 -0.03 1.17
v -0.29 0.09 1.04
v -0.25 0.07 1.05
v -0.24 0.08 1.07
v -0.28 0.11 1.07
v -0.33 0.0 1.06
v -0.29 -0.01 1.05
v -0.23 0.05 1.11
v -0.23 0.05 1.1300000000000001
v -0.22 0.04 1.1500000000000001
v -0.22 0.03 1.17
v -0.24 -0.01 1.16
v -0.25 -0.01 1.1500000000000001
v -0.23 0.01 1.18
v -0.24 0.0 1.17
v -0.25 0.01 1.08
v -0.24 0.02 1.08
v -0.25 -0.01 1.12
v -0.25 0.0 1.09
v -0.24 0.04 1.08
v -0.23 0.04 1.09
v -0.23 0.02 1.17
v -0.25 0.0 1.1
v -0.34 0.02 1.23
v -0.33 0.05 1.24
v -0.31 0.12 1.19
v -0.31 0.1 1.23
v -0.32 0.08 1.24
v -0.32 0.13 1.1
v -0.31 0.12 1.1500000000000001
v -0.37 0.02 1.09
v -0.37 0.01 1.1400000000000001
v -0.35000000000000003 0.08 1.05
v -0.36 0.05 1.05
v -0.36 0.01 1.19
v -0.35000000000000003 0.01 1.21
v -0.33 0.12 1.08
v -0.34 0.11 1.06
v -0.37 0.03 1.07
v -0.35000000000000003 0.1 1.1500000000000001
v -0.35000000000000003 0.1 1.1300000000000001
v -0.35000000000000003 0.09 1.19
v -0.34 0.1 1.17
v -0.37 0.05 1.17
v -0.37 0.05 1.18
v -0.36 0.05 1.19
v -0.35000000000000003 0.07 1.2
v -0.37 0.08 1.1
v -0.37 0.07 1.1
v -0.37 0.05 1.1400000000000001
v -0.37 0.06 1.11
v -0.35000000000000003 0.1 1.11
v -0.36 0.09 1.1
v -0.35000000000000003 0.08 1.19
v -0.38 0.05 1.12
v -0.07 -0.12 1.43
v -0.1 -0.09 1.43
v -0.07 -0.06 1.45
v -0.04 -0.1 1.44
v 0.01 -0.05 1.3800000000000001
v 0.0 -0.06 1.42
v -0.02 -0.03 1.41
v 0.0 -0.01 1.3800000000000001
v -0.02 -0.07 1.43
v -0.04 -0.04 1.43
v 0.02 -0.06 1.29
v 0.02 -0.06 1.34
v 0.01 -0.01 1.33
v 0.01 -0.02 1.28
v -0.12 -0.14 1.28
v -0.13 -0.14 1.33
v -0.09 -0.15 1.34
v -0.08 -0.15 1.29
v -0.09 -0.11 1.23
v -0.06 -0.14 1.25
v -0.03 -0.12 1.24
v -0.05 -0.09 1.22
v -0.13 -0.13 1.3800000000000001
v -0.12 -0.11 1.41
v -0.08 -0.13 1.41
v -0.09 -0.14 1.3800000000000001
v -0.02 -0.06 1.23
v 0.0 -0.09 1.25
v 0.01 -0.08 1.27
v -0.01 -0.04 1.26
v -0.11 -0.13 1.26
v -0.07 -0.15 1.26
v 0.0 -0.1 1.32
v 0.0 -0.1 1.34
v 0.0 -0.1 1.36
v -0.01 -0.1 1.3800000000000001
v -0.05 -0.14 1.3800000000000001
v -0.05 -0.14 1.36
v -0.03 -0.12 1.3900000000000001
v -0.04 -0.13 1.3900000000000001
v -0.03 -0.14 1.3
v -0.02 -0.13 1.29
v -0.05 -0.14 1.34
v -0.04 -0.14 1.3
v -0.01 -0.11 1.3
v 0.0 -0.11 1.31
v -0.01 -0.11 1.3900000000000001
v -0.04 -0.15 1.31
v -0.12 -0.06 1.42
v -0.1 -0.03 1.43
v -0.04 0.01 1.37
v -0.05 0.0 1.41
v -0.07 -0.01 1.42
v -0.03 0.0 1.28
v -0.03 0.0 1.33
v -0.13 -0.09 1.28
v -0.14 -0.09 1.33
v -0.08 -0.05 1.23
v -0.11 -0.08 1.24
v -0.14 -0.08 1.37
v -0.14 -0.07 1.3900000000000001
v -0.04 -0.01 1.26
v -0.05 -0.03 1.24
v -0.12 -0.09 1.25
v -0.08 -0.01 1.32
v -0.08 -0.01 1.3
v -0.09 -0.01 1.37
v -0.08 -0.01 1.35
v -0.13 -0.05 1.35
v -0.13 -0.04 1.36
v -0.12 -0.04 1.37
v -0.11 -0.03 1.3800000000000001
v -0.1 -0.04 1.28
v -0.11 -0.05 1.28
v -0.13 -0.05 1.32
v -0.12 -0.05 1.29
v -0.08 -0.02 1.29
v -0.09 -0.02 1.28
v -0.12 -0.05 1.3
v -0.21 0.08 1.24
v -0.22 0.13 1.26
v -0.18 0.13 1.26
v -0.18 0.09 1.25
v -0.13 0.1 1.18
v -0.14 0.09 1.22
v -0.14 0.15 1.23
v -0.13 0.15 1.2
v -0.15 0.09 1.23
v -0.15 0.14 1.25
v -0.14 0.11 1.1
v -0.13 0.11 1.1400000000000001
v -0.12 0.16 1.1500000000000001
v -0.14 0.17 1.1
v -0.27 0.14 1.11
v -0.27 0.14 1.16
v -0.24 0.09 1.1500000000000001
v -0.24 0.1 1.1
v -0.24 0.16 1.06
v -0.22 0.1 1.06
v -0.2 0.11 1.05
v -0.21 0.16 1.04
v -0.25 0.13 1.21
v -0.24 0.13 1.23
v -0.22 0.08 1.22
v -0.23 0.08 1.2
v -0.17 0.17 1.05
v -0.17 0.11 1.06
v -0.15 0.11 1.08
v -0.15 0.17 1.08
v -0.25 0.15 1.08
v -0.24 0.1 1.08
v -0.16 0.08 1.12
v -0.16 0.08 1.1400000000000001
v -0.16 0.07 1.16
v -0.16 0.07 1.18
v -0.2 0.07 1.18
v -0.21 0.07 1.17
v -0.18 0.07 1.19
v -0.19 0.06 1.19
v -0.2 0.08 1.1
v -0.19 0.08 1.1
v -0.21 0.07 1.1500000000000001
v -0.21 0.07 1.11
v -0.18 0.08 1.1
v -0.17 0.08 1.11
v -0.17 0.07 1.19
v -0.21 0.07 1.12
v -0.22 0.18 1.25
v -0.19 0.19 1.26
v -0.15 0.2 1.2
v -0.15 0.2 1.23
v -0.17 0.19 1.25
v -0.15 0.21 1.11
v -0.15 0.21 1.16
v -0.26 0.2 1.12
v -0.26 0.19 1.17
v -0.21 0.21 1.07
v -0.24 0.21 1.08
v -0.25 0.19 1.21
v -0.24 0.18 1.23
v -0.17 0.21 1.09
v -0.19 0.21 1.08
v -0.25 0.2 1.09
v -0.18 0.23 1.16
v -0.19 0.23 1.1400000000000001
v -0.18 0.22 1.2
v -0.18 0.23 1.18
v -0.23 0.22 1.19
v -0.22 0.22 1.2
v -0.22 0.22 1.21
v -0.2 0.22 1.22
v -0.21 0.23 1.12
v -0.23 0.23 1.12
v -0.23 0.22 1.17
v -0.23 0.23 1.1300000000000001
v -0.19 0.23 1.1300000000000001
v -0.2 0.23 1.12
v -0.19 0.22 1.21
v -0.23 0.22 1.1400000000000001
v 0.02 -0.01 1.32
v -0.01 -0.05 1.33
v -0.04 -0.03 1.34
v 0.0 0.01 1.33
v -0.04 0.04 1.27
v -0.03 0.03 1.31
v -0.07 0.0 1.31
v -0.08 0.01 1.28
v -0.02 0.02 1.32
v -0.06 -0.01 1.33
v -0.04 0.04 1.18
v -0.04 0.04 1.23
v -0.09 0.02 1.23
v -0.08 0.01 1.18
v 0.01 -0.08 1.18
v 0.02 -0.08 1.23
v 0.04 -0.03 1.23
v 0.04 -0.03 1.18
v -0.01 -0.05 1.1300000000000001
v 0.02 -0.01 1.1400000000000001
v 0.0 0.01 1.1300000000000001
v -0.04 -0.03 1.11
v 0.01 -0.08 1.28
v 0.0 -0.07 1.3
v 0.03 -0.02 1.29
v 0.04 -0.03 1.27
v -0.06 -0.01 1.1300000000000001
v -0.02 0.02 1.1400000000000001
v -0.03 0.03 1.16
v -0.07 0.0 1.1500000000000001
v 0.0 -0.07 1.1500000000000001
v 0.03 -0.02 1.1500000000000001
v 0.0 0.04 1.2
v 0.0 0.04 1.23
v 0.0 0.04 1.25
v 0.0 0.04 1.27
v 0.03 0.01 1.26
v 0.04 0.01 1.25
v 0.02 0.02 1.28
v 0.03 0.01 1.27
v 0.03 0.01 1.18
v 0.02 0.02 1.18
v 0.04 0.01 1.23
v 0.03 0.01 1.19
v 0.01 0.03 1.18
v 0.0 0.04 1.19
v 0.01 0.03 1.27
v 0.04 0.01 1.2
v -0.05 -0.09 1.32
v -0.07 -0.07 1.33
v -0.11 -0.03 1.27
v -0.1 -0.04 1.31
v -0.09 -0.05 1.32
v -0.11 -0.03 1.18
v -0.11 -0.03 1.23
v -0.03 -0.1 1.18
v -0.03 -0.11 1.23
v -0.07 -0.07 1.1300000000000001
v -0.05 -0.09 1.1400000000000001
v -0.03 -0.1 1.27
v -0.04 -0.1 1.29
v -0.1 -0.04 1.16
v -0.09 -0.05 1.1400000000000001
v -0.04 -0.1 1.1500000000000001
v -0.11 -0.07 1.23
v -0.11 -0.07 1.2
v -0.1 -0.07 1.27
v -0.11 -0.07 1.25
v -0.07 -0.1 1.25
v -0.07 -0.1 1.26
v -0.08 -0.1 1.27
v -0.09 -0.09 1.28
v -0.09 -0.09 1.18
v -0.08 -0.1 1.18
v -0.07 -0.11 1.23
v -0.07 -0.1 1.19
v -0.1 -0.07 1.19
v -0.1 -0.08 1.18
v -0.1 -0.08 1.27
v -0.07 -0.1 1.2
v -0.18 -0.14 1.33
v -0.22 -0.13 1.34
v -0.21 -0.09 1.34
v -0.17 -0.1 1.33
v -0.15 -0.06 1.25
v -0.15 -0.06 1.29
v -0.2 -0.04 1.29
v -0.19 -0.03 1.26
v -0.16 -0.07 1.31
v -0.2 -0.05 1.32
v -0.16 -0.08 1.17
v -0.15 -0.06 1.21
v -0.19 -0.03 1.21
v -0.2 -0.05 1.16
v -0.25 -0.2 1.21
v -0.25 -0.2 1.26
v -0.2 -0.19 1.25
v -0.2 -0.2 1.2
v -0.24 -0.18 1.1500000000000001
v -0.19 -0.18 1.16
v -0.18 -0.15 1.1400000000000001
v -0.23 -0.14 1.1300000000000001
v -0.24 -0.18 1.3
v -0.23 -0.16 1.32
v -0.18 -0.16 1.31
v -0.19 -0.18 1.29
v -0.22 -0.1 1.1300000000000001
v -0.17 -0.12 1.1400000000000001
v -0.16 -0.1 1.1500000000000001
v -0.21 -0.07 1.1500000000000001
v -0.25 -0.19 1.18
v -0.2 -0.2 1.18
v -0.15 -0.11 1.2
v -0.14 -0.11 1.22
v -0.14 -0.1 1.24
v -0.14 -0.1 1.26
v -0.16 -0.15 1.27
v -0.16 -0.16 1.26
v -0.15 -0.13 1.28
v -0.15 -0.14 1.28
v -0.16 -0.16 1.2
v -0.16 -0.15 1.19
v -0.16 -0.17 1.24
v -0.16 -0.17 1.2
v -0.15 -0.13 1.19
v -0.15 -0.12 1.19
v -0.14 -0.11 1.27
v -0.16 -0.17 1.22
v -0.27 -0.11 1.33
v -0.26 -0.08 1.33
v -0.24 -0.03 1.25
v -0.24 -0.03 1.29
v -0.25 -0.05 1.31
v -0.25 -0.05 1.17
v -0.24 -0.03 1.21
v -0.29 -0.17 1.2
v -0.29 -0.17 1.25
v -0.27 -0.12 1.1400000000000001
v -0.28 -0.15 1.16
v -0.28 -0.15 1.29
v -0.28 -0.13 1.31
v -0.26 -0.07 1.1500000000000001
v -0.26 -0.09 1.1400000000000001
v -0.29 -0.17 1.18
v -0.28 -0.06 1.22
v -0.28 -0.07 1.2
v -0.28 -0.06 1.26
v -0.28 -0.06 1.24
v -0.3 -0.12 1.26
v -0.29 -0.11 1.27
v -0.29 -0.1 1.28
v -0.28 -0.08 1.28
v -0.29 -0.11 1.19
v -0.3 -0.12 1.2
v -0.3 -0.13 1.24
v -0.3 -0.13 1.2
v -0.28 -0.08 1.19
v -0.29 -0.09 1.19
v -0.28 -0.07 1.27
v -0.3 -0.13 1.22

usemtl tex_32767
f 1 2 3
f 1 4 2
f 5 2 6
f 5 3 2
f 5 7 8
f 5 6 7
f 10 11 12
f 10 13 11
f 11 14 12
f 11 15 14
f 14 16 17
f 14 15 16
f 1 11 13
f 1 3 11
f 3 15 11
f 3 5 15
f 5 16 15
f 5 8 16
f 14 7 6
f 14 17 7
f 12 6 2
f 12 14 6
f 10 2 4
f 10 12 2
usemtl rsc_904008
f 8 7 9
f 17 16 9
f 8 9 16
f 17 9 7
usemtl rsc_307008
f 9 18 19
f 9 20 18
f 9 21 19
f 9 22 21
f 9 23 24
f 9 25 23
f 9 26 24
f 9 27 26
f 9 28 29
f 9 30 28
f 9 31 29
f 9 32 31
f 9 33 34
f 9 35 33
f 9 36 34
f 9 37 36
f 9 38 39
f 9 40 38
f 9 41 39
f 9 42 41
f 9 43 44
f 9 45 43
f 9 46 44
f 9 47 46
f 9 48 49
f 9 50 48
f 9 51 49
f 9 52 51
f 9 53 54
f 9 55 53
f 9 56 54
f 9 57 56
f 9 58 59
f 9 60 58
f 9 61 59
f 9 62 61
f 9 63 64
f 9 65 63
f 9 66 64
f 9 67 66
f 9 68 69
f 9 70 68
f 9 71 69
f 9 72 71
f 9 73 74
f 9 75 73
f 9 76 74
f 9 77 76
f 9 78 79
f 9 80 78
f 9 81 79
f 9 82 81
f 9 83 84
f 9 85 83
f 9 86 84
f 9 87 86
usemtl rsc_a88010
f 88 89 90 91
f 92 93 94 95
f 96 97 94 93
f 98 99 100 101
f 102 103 104 105
f 106 107 108 109
f 110 111 112 113
f 114 115 116 117
f 103 110 113 104
f 99 92 95 100
f 118 102 105 119
f 116 98 101 117
f 109 108 115 114
f 91 90 97 96
f 118 119 107 106
f 112 111 89 88
f 99 98 120 121
f 93 92 122 123
f 92 99 121 122
f 113 112 124 125
f 88 91 126 127
f 108 107 128 129
f 112 88 127 124
f 104 113 125 130
f 107 119 131 128
f 116 115 132 133
f 91 96 134 126
f 119 105 135 131
f 115 108 129 132
f 98 116 133 120
f 105 104 130 135
f 96 93 123 134
f 131 135 130 125 124 127 126 134 123 122 121 120 133 132 129 128
f 136 137 90 89
f 138 95 94 139
f 140 139 94 97
f 141 101 100 142
f 102 143 144 103
f 106 109 145 146
f 110 147 148 111
f 114 117 149 150
f 103 144 147 110
f 142 100 95 138
f 118 151 143 102
f 149 117 101 141
f 109 114 150 145
f 137 140 97 90
f 118 106 146 151
f 148 136 89 111
f 142 152 153 141
f 139 154 155 138
f 138 155 152 142
f 147 156 157 148
f 136 158 159 137
f 145 160 161 146
f 148 157 158 136
f 144 162 156 147
f 146 161 163 151
f 149 164 165 150
f 137 159 166 140
f 151 163 167 143
f 150 165 160 145
f 141 153 164 149
f 143 167 162 144
f 140 166 154 139
f 163 161 160 165 164 153 152 155 154 166 159 158 157 156 162 167
f 168 169 170 171
f 172 173 174 175
f 176 177 174 173
f 178 179 180 181
f 182 183 184 185
f 186 187 188 189
f 190 191 192 193
f 194 195 196 197
f 183 190 193 184
f 179 172 175 180
f 198 182 185 199
f 196 178 181 197
f 189 188 195 194
f 171 170 177 176
f 198 199 187 186
f 192 191 169 168
f 179 178 200 201
f 173 172 202 203
f 172 179 201 202
f 193 192 204 205
f 168 171 206 207
f 188 187 208 209
f 192 168 207 204
f 184 193 205 210
f 187 199 211 208
f 196 195 212 213
f 171 176 214 206
f 199 185 215 211
f 195 188 209 212
f 178 196 213 200
f 185 184 210 215
f 176 173 203 214
f 211 215 210 205 204 207 206 214 203 202 201 200 213 212 209 208
f 216 217 170 169
f 218 175 174 219
f 220 219 174 177
f 221 181 180 222
f 182 223 224 183
f 186 189 225 226
f 190 227 228 191
f 194 197 229 230
f 183 224 227 190
f 222 180 175 218
f 198 231 223 182
f 229 197 181 221
f 189 194 230 225
f 217 220 177 170
f 198 186 226 231
f 228 216 169 191
f 222 232 233 221
f 219 234 235 218
f 218 235 232 222
f 227 236 237 228
f 216 238 239 217
f 225 240 241 226
f 228 237 238 216
f 224 242 236 227
f 226 241 243 231
f 229 244 245 230
f 217 239 246 220
f 231 243 247 223
f 230 245 240 225
f 221 233 244 229
f 223 247 242 224
f 220 246 234 219
f 243 241 240 245 244 233 232 235 234 246 239 238 237 236 242 247
f 248 249 250 251
f 252 253 254 255
f 256 257 254 253
f 258 259 260 261
f 262 263 264 265
f 266 267 268 269
f 270 271 272 273
f 274 275 276 277
f 263 270 273 264
f 259 252 255 260
f 278 262 265 279
f 276 258 261 277
f 269 268 275 274
f 251 250 257 256
f 278 279 267 266
f 272 271 249 248
f 259 258 280 281
f 253 252 282 283
f 252 259 281 282
f 273 272 284 285
f 248 251 286 287
f 268 267 288 289
f 272 248 287 284
f 264 273 285 290
f 267 279 291 288
f 276 275 292 293
f 251 256 294 286
f 279 265 295 291
f 275 268 289 292
f 258 276 293 280
f 265 264 290 295
f 256 253 283 294
f 291 295 290 285 284 287 286 294 283 282 281 280 293 292 289 288
f 296 297 250 249
f 298 255 254 299
f 300 299 254 257
f 301 261 260 302
f 262 303 304 263
f 266 269 305 306
f 270 307 308 271
f 274 277 309 310
f 263 304 307 270
f 302 260 255 298
f 278 311 303 262
f 309 277 261 301
f 269 274 310 305
f 297 300 257 250
f 278 266 306 311
f 308 296 249 271
f 302 312 313 301
f 299 314 315 298
f 298 315 312 302
f 307 316 317 308
f 296 318 319 297
f 305 320 321 306
f 308 317 318 296
f 304 322 316 307
f 306 321 323 311
f 309 324 325 310
f 297 319 326 300
f 311 323 327 303
f 310 325 320 305
f 301 313 324 309
f 303 327 322 304
f 300 326 314 299
f 323 321 320 325 324 313 312 315 314 326 319 318 317 316 322 327
f 328 329 330 331
f 332 333 334 335
f 336 337 334 333
f 338 339 340 341
f 342 343 344 345
f 346 347 348 349
f 350 351 352 353
f 354 355 356 357
f 343 350 353 344
f 339 332 335 340
f 358 342 345 359
f 356 338 341 357
f 349 348 355 354
f 331 330 337 336
f 358 359 347 346
f 352 351 329 328
f 339 338 360 361
f 333 332 362 363
f 332 339 361 362
f 353 352 364 365
f 328 331 366 367
f 348 347 368 369
f 352 328 367 364
f 344 353 365 370
f 347 359 371 368
f 356 355 372 373
f 331 336 374 366
f 359 345 375 371
f 355 348 369 372
f 338 356 373 360
f 345 344 370 375
f 336 333 363 374
f 371 375 370 365 364 367 366 374 363 362 361 360 373 372 369 368
f 376 377 330 329
f 378 335 334 379
f 380 379 334 337
f 381 341 340 382
f 342 383 384 343
f 346 349 385 386
f 350 387 388 351
f 354 357 389 390
f 343 384 387 350
f 382 340 335 378
f 358 391 383 342
f 389 357 341 381
f 349 354 390 385
f 377 380 337 330
f 358 346 386 391
f 388 376 329 351
f 382 392 393 381
f 379 394 395 378
f 378 395 392 382
f 387 396 397 388
f 376 398 399 377
f 385 400 401 386
f 388 397 398 376
f 384 402 396 387
f 386 401 403 391
f 389 404 405 390
f 377 399 406 380
f 391 403 407 383
f 390 405 400 385
f 381 393 404 389
f 383 407 402 384
f 380 406 394 379
f 403 401 400 405 404 393 392 395 394 406 399 398 397 396 402 407
f 408 409 410 411
f 412 413 414 415
f 416 417 414 413
f 418 419 420 421
f 422 423 424 425
f 426 427 428 429
f 430 431 432 433
f 434 435 436 437
f 423 430 433 424
f 419 412 415 420
f 438 422 425 439
f 436 418 421 437
f 429 428 435 434
f 411 410 417 416
f 438 439 427 426
f 432 431 409 408
f 419 418 440 441
f 413 412 442 443
f 412 419 441 442
f 433 432 444 445
f 408 411 446 447
f 428 427 448 449
f 432 408 447 444
f 424 433 445 450
f 427 439 451 448
f 436 435 452 453
f 411 416 454 446
f 439 425 455 451
f 435 428 449 452
f 418 436 453 440
f 425 424 450 455
f 416 413 443 454
f 451 455 450 445 444 447 446 454 443 442 441 440 453 452 449 448
f 456 457 410 409
f 458 415 414 459
f 460 459 414 417
f 461 421 420 462
f 422 463 464 423
f 426 429 465 466
f 430 467 468 431
f 434 437 469 470
f 423 464 467 430
f 462 420 415 458
f 438 471 463 422
f 469 437 421 461
f 429 434 470 465
f 457 460 417 410
f 438 426 466 471
f 468 456 409 431
f 462 472 473 461
f 459 474 475 458
f 458 475 472 462
f 467 476 477 468
f 456 478 479 457
f 465 480 481 466
f 468 477 478 456
f 464 482 476 467
f 466 481 483 471
f 469 484 485 470
f 457 479 474 460
f 471 483 486 463
f 470 485 480 465
f 461 473 484 469
f 463 486 482 464
f 460 474 474 459
f 483 481 480 485 484 473 472 475 474 474 479 478 477 476 482 486
f 487 488 489 490
f 491 492 493 494
f 495 496 493 492
f 497 498 499 500
f 501 502 503 504
f 505 506 507 508
f 509 510 511 512
f 513 514 515 516
f 502 509 512 503
f 498 491 494 499
f 517 501 504 518
f 515 497 500 516
f 508 507 514 513
f 490 489 496 495
f 517 518 506 505
f 511 510 488 487
f 498 497 519 520
f 492 491 521 522
f 491 498 520 521
f 512 511 523 524
f 487 490 525 526
f 507 506 527 528
f 511 487 526 523
f 503 512 524 529
f 506 518 530 527
f 515 514 531 532
f 490 495 533 525
f 518 504 534 530
f 514 507 528 531
f 497 515 532 519
f 504 503 529 534
f 495 492 522 533
f 530 534 529 524 523 526 525 533 522 521 520 519 532 531 528 527
f 535 536 489 488
f 537 494 493 538
f 539 538 493 496
f 540 500 499 541
f 501 542 543 502
f 505 508 544 545
f 509 546 547 510
f 513 516 548 549
f 502 543 546 509
f 541 499 494 537
f 517 550 542 501
f 548 516 500 540
f 508 513 549 544
f 536 539 496 489
f 517 505 545 550
f 547 535 488 510
f 541 551 552 540
f 538 553 554 537
f 537 554 551 541
f 546 555 556 547
f 535 557 558 536
f 544 559 560 545
f 547 556 557 535
f 543 561 555 546
f 545 560 562 550
f 548 563 564 549
f 536 558 565 539
f 550 562 566 542
f 549 564 559 544
f 540 552 563 548
f 542 566 561 543
f 539 565 553 538
f 562 560 559 564 563 552 551 554 553 565 558 557 556 555 561 566
f 567 568 569 570
f 571 572 573 574
f 575 576 573 572
f 577 578 579 580
f 581 582 583 584
f 585 586 587 588
f 589 590 591 592
f 593 594 595 596
f 582 589 592 583
f 578 571 574 579
f 597 581 584 598
f 595 577 580 596
f 588 587 594 593
f 570 569 576 575
f 597 598 586 585
f 591 590 568 567
f 578 577 599 600
f 572 571 601 602
f 571 578 600 601
f 592 591 603 604
f 567 570 605 606
f 587 586 607 608
f 591 567 606 603
f 583 592 604 609
f 586 598 610 607
f 595 594 611 612
f 570 575 613 605
f 598 584 614 610
f 594 587 608 611
f 577 595 612 599
f 584 583 609 614
f 575 572 602 613
f 610 614 609 604 603 606 605 613 602 601 600 599 612 611 608 607
f 615 616 569 568
f 617 574 573 618
f 619 618 573 576
f 620 580 579 621
f 581 622 623 582
f 585 588 624 625
f 589 626 627 590
f 593 596 628 629
f 582 623 626 589
f 621 579 574 617
f 597 630 622 581
f 628 596 580 620
f 588 593 629 624
f 616 619 576 569
f 597 585 625 630
f 627 615 568 590
f 621 631 632 620
f 618 633 634 617
f 617 634 631 621
f 626 635 636 627
f 615 637 638 616
f 624 639 640 625
f 627 636 637 615
f 623 641 635 626
f 625 640 642 630
f 628 643 644 629
f 616 638 645 619
f 630 642 646 622
f 629 644 639 624
f 620 632 643 628
f 622 646 641 623
f 619 645 633 618
f 642 640 639 644 643 632 631 634 633 645 638 637 636 635 641 646
f 647 648 649 650
f 651 652 653 654
f 655 656 653 652
f 657 658 659 660
f 661 662 663 664
f 665 666 667 668
f 669 670 671 672
f 673 674 675 676
f 662 669 672 663
f 658 651 654 659
f 677 661 664 678
f 675 657 660 676
f 668 667 674 673
f 650 649 656 655
f 677 678 666 665
f 671 670 648 647
f 658 657 679 680
f 652 651 681 682
f 651 658 680 681
f 672 671 683 684
f 647 650 685 686
f 667 666 687 688
f 671 647 686 683
f 663 672 684 689
f 666 678 690 687
f 675 674 691 692
f 650 655 693 685
f 678 664 694 690
f 674 667 688 691
f 657 675 692 679
f 664 663 689 694
f 655 652 682 693
f 690 694 689 684 683 686 685 693 682 681 680 679 692 691 688 687
f 695 696 649 648
f 697 654 653 698
f 699 698 653 656
f 700 660 659 701
f 661 702 703 662
f 665 668 704 705
f 669 706 707 670
f 673 676 708 709
f 662 703 706 669
f 701 659 654 697
f 677 710 702 661
f 708 676 660 700
f 668 673 709 704
f 696 699 656 649
f 677 665 705 710
f 707 695 648 670
f 701 711 712 700
f 698 713 714 697
f 697 714 711 701
f 706 715 716 707
f 695 717 718 696
f 704 719 720 705
f 707 716 717 695
f 703 721 715 706
f 705 720 722 710
f 708 723 724 709
f 696 718 725 699
f 710 722 726 702
f 709 724 719 704
f 700 712 723 708
f 702 726 721 703
f 699 725 713 698
f 722 720 719 724 723 712 711 714 713 725 718 717 716 715 721 726
