# OGRS RSC model extracted from .ob3
# vertices: 978  faces: 981
mtllib pineappleplant.mtl

o pineappleplant
v 0.12 -0.28 0.32
v -0.04 -0.49 0.32
v -0.12 -0.28 0.32
v 0.1 -0.47000000000000003 0.32
v 0.07 -0.01 0.2
v -0.1 -0.02 0.2
v 0.04 -0.64 0.2
v -0.03 0.26 0.29
v 0.2 0.37 0.23
v 0.17 0.18 0.29
v 0.06 0.42 0.23
v -0.08 0.06 0.29
v 0.08 0.01 0.29
v 0.19 0.56 0.1
v 0.0 -0.01 0.2
v -0.14 0.27 0.42
v 0.01 0.48 0.35000000000000003
v 0.07 0.32 0.39
v -0.13 0.45 0.36
v -0.11 0.07 0.31
v 0.04 0.12 0.28
v -0.11 0.5700000000000001 0.25
v 0.0 -0.01 0.14
v -0.22 0.02 0.27
v -0.25 0.25 0.26
v -0.11 0.21 0.27
v -0.32 0.12 0.26
v -0.06 -0.03 0.16
v 0.0 0.07 0.16
v -0.39 0.26 0.12
v 0.18 0.22 0.26
v 0.44 0.15 0.27
v 0.28 0.05 0.28
v 0.35000000000000003 0.27 0.27
v -0.03 0.04 0.14
v 0.05 -0.04 0.14
v 0.54 0.29 0.15
v 0.32 0.1 0.38
v 0.45 -0.08 0.33
v 0.29 -0.12 0.38
v 0.46 0.06 0.33
v 0.06 0.05 0.29
v 0.04 -0.09 0.29
v 0.5700000000000001 -0.04 0.2
v 0.22 -0.09 0.4
v 0.2 -0.36 0.35000000000000003
v 0.06 -0.25 0.4
v 0.31 -0.25 0.35000000000000003
v 0.06 0.02 0.28
v -0.03 -0.07 0.28
v 0.36 -0.36 0.24
v -0.15 -0.38 0.42
v -0.42 -0.41000000000000003 0.45
v -0.32 -0.23 0.45
v -0.32 -0.49 0.43
v 0.0 -0.14 0.28
v -0.13 -0.03 0.31
v -0.48 -0.55 0.31
v -0.21 -0.17 0.34
v -0.43 -0.03 0.32
v -0.27 0.05 0.34
v -0.4 -0.17 0.32
v -0.05 -0.09 0.25
v -0.1 0.07 0.25
v -0.61 -0.15 0.2
v 0.0 0.07 0.14
v 0.0 -0.06 0.14
v -0.07 0.01 0.14
v 0.06 0.01 0.14
v 0.0 0.07 0.0
v -0.07 0.01 0.0
v 0.0 -0.06 0.0
v 0.06 0.01 0.0
v 0.02 0.04 0.35000000000000003
v 0.02 0.04 0.37
v 0.0 0.04 0.37
v 0.0 0.04 0.35000000000000003
v 0.0 -0.04 0.35000000000000003
v 0.0 -0.04 0.37
v 0.02 -0.04 0.37
v 0.02 -0.04 0.35000000000000003
v 0.03 0.02 0.37
v 0.05 0.01 0.39
v 0.03 0.0 0.37
v 0.01 0.05 0.4
v 0.0 0.03 0.37
v 0.02 0.03 0.37
v 0.0 -0.01 0.33
v 0.02 -0.01 0.33
v 0.02 0.01 0.33
v 0.0 0.01 0.33
v 0.02 0.0 0.33
v 0.03 -0.02 0.35000000000000003
v 0.03 0.0 0.35000000000000003
v 0.0 -0.04 0.39
v 0.02 -0.04 0.39
v 0.03 0.0 0.39
v 0.03 0.02 0.39
v 0.03 -0.02 0.37
v 0.03 -0.03 0.39
v 0.02 0.03 0.39
v 0.03 -0.02 0.39
v 0.05 -0.01 0.39
v 0.03 0.02 0.35000000000000003
v 0.0 0.03 0.39
v 0.03 0.03 0.39
v 0.01 -0.04 0.39
v 0.03 -0.03 0.37
v 0.05 -0.01 0.37
v 0.01 -0.04 0.37
v 0.03 0.03 0.37
v 0.05 0.01 0.37
v 0.01 0.05 0.37
v 0.02 0.04 0.39
v 0.02 0.04 0.41000000000000003
v 0.0 0.04 0.41000000000000003
v 0.0 0.04 0.39
v 0.0 -0.04 0.41000000000000003
v 0.02 -0.04 0.41000000000000003
v 0.03 0.02 0.41000000000000003
v 0.04 0.01 0.44
v 0.03 0.0 0.41000000000000003
v 0.01 0.04 0.44
v 0.0 0.03 0.41000000000000003
v 0.02 0.03 0.41000000000000003
v 0.0 -0.03 0.44
v 0.02 -0.03 0.44
v 0.03 0.0 0.44
v 0.03 0.01 0.44
v 0.03 -0.02 0.41000000000000003
v 0.03 -0.03 0.44
v 0.02 0.03 0.44
v 0.03 -0.01 0.44
v 0.04 -0.01 0.44
v 0.0 0.03 0.44
v 0.03 0.03 0.44
v 0.01 -0.03 0.44
v 0.03 -0.03 0.42
v 0.05 -0.01 0.42
v 0.01 -0.04 0.41000000000000003
v 0.03 0.03 0.41000000000000003
v 0.05 0.01 0.42
v 0.01 0.05 0.42
v 0.01 0.02 0.44
v 0.0 0.02 0.44
v 0.01 -0.02 0.44
v 0.03 -0.02 0.44
v 0.02 0.0 0.44
v 0.02 0.01 0.44
v 0.0 -0.02 0.44
v 0.0 -0.01 0.45
v 0.01 -0.01 0.45
v 0.02 0.0 0.45
v 0.01 0.01 0.45
v 0.0 0.01 0.45
v 0.01 0.0 0.45
v 0.0 0.01 0.46
v 0.01 0.0 0.46
v 0.01 -0.01 0.46
v 0.0 -0.01 0.46
v 0.0 -0.02 0.47000000000000003
v 0.02 -0.02 0.47000000000000003
v 0.0 -0.05 0.46
v 0.02 -0.05 0.46
v 0.0 -0.08 0.44
v 0.03 -0.03 0.47000000000000003
v 0.03 0.0 0.47000000000000003
v 0.03 0.02 0.47000000000000003
v 0.06 -0.02 0.47000000000000003
v 0.06 0.0 0.47000000000000003
v 0.06 0.01 0.47000000000000003
v 0.07 -0.01 0.46
v 0.07 0.0 0.46
v 0.0 0.02 0.48
v 0.03 0.02 0.48
v 0.0 0.06 0.49
v 0.02 0.06 0.49
v 0.0 0.07 0.46
v -0.02 0.04 0.35000000000000003
v -0.02 0.04 0.37
v -0.02 -0.04 0.35000000000000003
v -0.02 -0.04 0.37
v -0.03 0.02 0.37
v -0.03 0.0 0.37
v -0.05 0.01 0.39
v -0.01 0.05 0.4
v -0.02 0.03 0.37
v -0.02 -0.01 0.33
v -0.02 0.01 0.33
v -0.02 0.0 0.33
v -0.03 0.0 0.35000000000000003
v -0.03 -0.02 0.35000000000000003
v -0.02 -0.04 0.39
v -0.03 0.02 0.39
v -0.03 0.0 0.39
v -0.03 -0.02 0.37
v -0.03 -0.03 0.39
v -0.02 0.03 0.39
v -0.03 -0.02 0.39
v -0.05 -0.01 0.39
v -0.03 0.02 0.35000000000000003
v -0.03 0.03 0.39
v -0.01 -0.04 0.39
v -0.03 -0.03 0.37
v -0.05 -0.01 0.37
v -0.01 -0.04 0.37
v -0.03 0.03 0.37
v -0.05 0.01 0.37
v -0.01 0.05 0.37
v -0.02 0.04 0.39
v -0.02 0.04 0.41000000000000003
v -0.02 -0.04 0.41000000000000003
v -0.03 0.02 0.41000000000000003
v -0.03 0.0 0.41000000000000003
v -0.04 0.01 0.44
v -0.01 0.04 0.44
v -0.02 0.03 0.41000000000000003
v -0.02 -0.03 0.44
v -0.03 0.01 0.44
v -0.03 0.0 0.44
v -0.03 -0.02 0.41000000000000003
v -0.03 -0.03 0.44
v -0.02 0.03 0.44
v -0.03 -0.01 0.44
v -0.04 -0.01 0.44
v -0.03 0.03 0.44
v -0.01 -0.03 0.44
v -0.03 -0.03 0.42
v -0.05 -0.01 0.42
v -0.01 -0.04 0.41000000000000003
v -0.03 0.03 0.41000000000000003
v -0.05 0.01 0.42
v -0.01 0.05 0.42
v -0.01 0.02 0.44
v -0.03 -0.02 0.44
v -0.01 -0.02 0.44
v -0.02 0.0 0.44
v -0.02 0.01 0.44
v -0.01 -0.01 0.45
v -0.02 0.0 0.45
v -0.01 0.01 0.45
v -0.01 0.0 0.45
v -0.01 0.0 0.46
v -0.01 -0.01 0.46
v -0.02 -0.02 0.47000000000000003
v -0.02 -0.05 0.46
v -0.03 0.0 0.47000000000000003
v -0.03 -0.03 0.47000000000000003
v -0.03 0.02 0.47000000000000003
v -0.06 0.0 0.47000000000000003
v -0.06 -0.02 0.47000000000000003
v -0.06 0.01 0.47000000000000003
v -0.07 0.0 0.46
v -0.07 -0.01 0.46
v -0.03 0.02 0.48
v -0.02 0.06 0.49
v 0.07 -0.09 0.31
v 0.07 -0.09 0.34
v 0.08 -0.08 0.34
v 0.08 -0.07 0.32
v 0.01 -0.05 0.33
v 0.02 -0.05 0.35000000000000003
v 0.01 -0.06 0.35000000000000003
v 0.01 -0.06 0.33
v 0.05 -0.1 0.34
v 0.04 -0.11 0.37
v 0.03 -0.09 0.34
v 0.09 -0.09 0.36
v 0.04 -0.06 0.31
v 0.03 -0.07 0.31
v 0.04 -0.08 0.31
v 0.05 -0.06 0.31
v 0.03 -0.08 0.31
v 0.02 -0.08 0.32
v 0.03 -0.09 0.32
v 0.02 -0.05 0.38
v 0.01 -0.06 0.37
v 0.04 -0.09 0.37
v 0.05 -0.1 0.36
v 0.02 -0.09 0.35000000000000003
v 0.01 -0.08 0.37
v 0.07 -0.09 0.36
v 0.02 -0.09 0.37
v 0.02 -0.1 0.37
v 0.05 -0.1 0.32
v 0.08 -0.08 0.36
v 0.07 -0.11 0.36
v 0.01 -0.05 0.38
v 0.01 -0.08 0.35000000000000003
v 0.02 -0.1 0.35000000000000003
v 0.01 -0.05 0.35000000000000003
v 0.06 -0.11 0.34
v 0.04 -0.11 0.34
v 0.09 -0.09 0.34
v 0.08 -0.09 0.38
v 0.08 -0.08 0.38
v 0.02 -0.05 0.37
v 0.02 -0.05 0.4
v 0.01 -0.07 0.39
v 0.05 -0.1 0.38
v 0.04 -0.11 0.41000000000000003
v 0.04 -0.1 0.39
v 0.09 -0.09 0.41000000000000003
v 0.03 -0.06 0.42
v 0.02 -0.07 0.42
v 0.04 -0.1 0.41000000000000003
v 0.05 -0.1 0.41000000000000003
v 0.02 -0.09 0.39
v 0.04 -0.09 0.36
v 0.02 -0.08 0.42
v 0.07 -0.09 0.41000000000000003
v 0.03 -0.09 0.41000000000000003
v 0.03 -0.1 0.41000000000000003
v 0.08 -0.08 0.41000000000000003
v 0.06 -0.11 0.4
v 0.02 -0.06 0.42
v 0.01 -0.08 0.4
v 0.02 -0.1 0.39
v 0.01 -0.06 0.4
v 0.07 -0.11 0.38
v 0.04 -0.11 0.39
v 0.09 -0.09 0.38
v 0.07 -0.08 0.42
v 0.03 -0.07 0.42
v 0.03 -0.09 0.42
v 0.04 -0.09 0.42
v 0.05 -0.1 0.42
v 0.04 -0.06 0.43
v 0.04 -0.07 0.43
v 0.04 -0.08 0.43
v 0.05 -0.08 0.42
v 0.06 -0.08 0.42
v 0.06 -0.07 0.42
v 0.06 -0.07 0.43
v 0.06 -0.08 0.43
v 0.06 -0.08 0.44
v 0.06 -0.07 0.44
v 0.05 -0.07 0.43
v 0.05 -0.08 0.43
v 0.05 -0.08 0.44
v 0.04 -0.07 0.44
v 0.05 -0.07 0.44
v 0.03 -0.06 0.45
v 0.02 -0.08 0.45
v 0.01 -0.05 0.45
v 0.0 -0.06 0.45
v -0.02 -0.04 0.44
v 0.02 -0.09 0.45
v 0.04 -0.1 0.45
v 0.07 -0.11 0.44
v 0.02 -0.11 0.45
v 0.03 -0.12 0.44
v 0.05 -0.13 0.44
v 0.02 -0.13 0.43
v 0.02 -0.14 0.43
v 0.02 -0.14 0.42
v 0.07 -0.08 0.45
v 0.06 -0.1 0.45
v 0.11 -0.1 0.45
v 0.1 -0.12 0.45
v 0.12 -0.1 0.42
v 0.08 -0.06 0.32
v 0.09 -0.06 0.34
v 0.02 -0.03 0.33
v 0.02 -0.03 0.35000000000000003
v 0.08 -0.04 0.34
v 0.06 -0.03 0.35000000000000003
v 0.08 -0.03 0.37
v 0.1 -0.08 0.36
v 0.05 -0.04 0.31
v 0.06 -0.05 0.31
v 0.06 -0.03 0.33
v 0.04 -0.02 0.33
v 0.02 -0.04 0.38
v 0.08 -0.04 0.37
v 0.06 -0.03 0.37
v 0.05 -0.03 0.35000000000000003
v 0.04 -0.03 0.35000000000000003
v 0.03 -0.02 0.38
v 0.09 -0.06 0.36
v 0.05 -0.03 0.37
v 0.06 -0.02 0.38
v 0.06 -0.04 0.31
v 0.08 -0.04 0.32
v 0.09 -0.05 0.36
v 0.01 -0.04 0.38
v 0.03 -0.02 0.36
v 0.06 -0.02 0.35000000000000003
v 0.01 -0.04 0.36
v 0.09 -0.05 0.34
v 0.08 -0.02 0.35000000000000003
v 0.1 -0.08 0.34
v 0.09 -0.07 0.38
v 0.03 -0.04 0.4
v 0.08 -0.04 0.39
v 0.06 -0.04 0.39
v 0.08 -0.03 0.42
v 0.09 -0.08 0.41000000000000003
v 0.03 -0.04 0.42
v 0.08 -0.05 0.41000000000000003
v 0.07 -0.04 0.41000000000000003
v 0.07 -0.04 0.39
v 0.05 -0.03 0.39
v 0.04 -0.03 0.42
v 0.09 -0.06 0.41000000000000003
v 0.05 -0.03 0.42
v 0.06 -0.03 0.42
v 0.09 -0.05 0.41000000000000003
v 0.03 -0.03 0.4
v 0.06 -0.02 0.4
v 0.02 -0.04 0.4
v 0.1 -0.05 0.38
v 0.08 -0.03 0.39
v 0.1 -0.08 0.38
v 0.08 -0.07 0.42
v 0.05 -0.04 0.42
v 0.04 -0.05 0.42
v 0.06 -0.05 0.42
v 0.07 -0.05 0.42
v 0.05 -0.06 0.43
v 0.06 -0.05 0.43
v 0.05 -0.05 0.43
v 0.07 -0.06 0.42
v 0.06 -0.06 0.43
v 0.06 -0.06 0.44
v 0.05 -0.06 0.44
v 0.04 -0.04 0.45
v 0.01 -0.03 0.45
v 0.07 -0.04 0.45
v 0.04 -0.03 0.45
v 0.09 -0.06 0.44
v 0.08 -0.02 0.45
v 0.06 -0.01 0.45
v 0.09 -0.03 0.45
v 0.08 0.0 0.44
v 0.09 0.0 0.44
v 0.08 -0.06 0.45
v 0.12 -0.07 0.45
v 0.13 -0.1 0.42
v -0.02 0.07 0.3
v -0.03 0.08 0.32
v -0.04 0.08 0.32
v -0.04 0.08 0.3
v -0.06 0.01 0.31
v -0.06 0.01 0.33
v -0.04 0.01 0.33
v -0.04 0.01 0.31
v -0.01 0.05 0.33
v -0.01 0.05 0.36
v -0.02 0.04 0.33
v -0.03 0.09 0.34
v -0.05 0.03 0.29
v -0.03 0.03 0.29
v -0.03 0.04 0.29
v -0.05 0.05 0.29
v -0.02 0.02 0.31
v -0.02 0.03 0.31
v -0.06 0.01 0.35000000000000003
v -0.05 0.01 0.36
v -0.02 0.06 0.35000000000000003
v -0.02 0.02 0.33
v -0.03 0.01 0.36
v -0.03 0.08 0.34
v -0.03 0.02 0.36
v -0.01 0.03 0.36
v -0.01 0.05 0.3
v -0.04 0.08 0.34
v -0.01 0.07 0.35000000000000003
v -0.06 0.0 0.36
v -0.03 0.01 0.34
v -0.01 0.03 0.34
v -0.05 0.0 0.33
v -0.01 0.07 0.32
v 0.0 0.04 0.33
v -0.03 0.09 0.32
v -0.03 0.08 0.36
v -0.05 0.08 0.36
v -0.06 0.02 0.37
v -0.05 0.01 0.38
v -0.05 0.01 0.35000000000000003
v -0.02 0.06 0.37
v -0.02 0.05 0.4
v -0.04 0.09 0.39
v -0.06 0.03 0.39
v -0.05 0.02 0.4
v -0.03 0.05 0.4
v -0.02 0.06 0.39
v -0.03 0.03 0.38
v -0.04 0.02 0.4
v -0.03 0.08 0.39
v -0.03 0.03 0.4
v -0.02 0.04 0.4
v -0.05 0.08 0.39
v -0.02 0.07 0.39
v -0.06 0.02 0.4
v -0.03 0.01 0.38
v -0.01 0.03 0.38
v -0.06 0.01 0.38
v -0.01 0.08 0.37
v -0.01 0.05 0.38
v -0.04 0.1 0.36
v -0.04 0.07 0.4
v -0.05 0.03 0.4
v -0.04 0.03 0.4
v -0.03 0.06 0.4
v -0.06 0.03 0.4
v -0.06 0.04 0.4
v -0.05 0.04 0.41000000000000003
v -0.05 0.05 0.41000000000000003
v -0.04 0.05 0.41000000000000003
v -0.05 0.06 0.4
v -0.06 0.06 0.4
v -0.04 0.06 0.41000000000000003
v -0.06 0.04 0.41000000000000003
v -0.06 0.06 0.41000000000000003
v -0.05 0.06 0.41000000000000003
v -0.06 0.07 0.41000000000000003
v -0.05 0.05 0.42
v -0.06 0.04 0.42
v -0.06 0.05 0.42
v -0.05 0.06 0.42
v -0.07 0.03 0.43
v -0.04 0.03 0.43
v -0.07 0.01 0.42
v -0.06 0.0 0.43
v -0.08 -0.02 0.41000000000000003
v -0.07 -0.02 0.41000000000000003
v -0.04 0.02 0.44
v -0.03 0.05 0.43
v -0.03 0.08 0.43
v -0.01 0.03 0.44
v -0.01 0.04 0.43
v 0.0 0.06 0.43
v 0.01 0.03 0.42
v 0.01 0.04 0.42
v -0.06 0.08 0.43
v -0.03 0.07 0.43
v -0.05 0.11 0.43
v -0.03 0.11 0.43
v -0.04 0.13 0.4
v -0.05 0.08 0.29
v -0.06 0.08 0.31
v -0.07 0.01 0.3
v -0.07 0.02 0.33
v -0.08 0.07 0.31
v -0.08 0.05 0.32
v -0.1 0.07 0.34
v -0.05 0.1 0.34
v -0.07 0.04 0.29
v -0.06 0.05 0.28
v -0.07 0.05 0.29
v -0.08 0.05 0.29
v -0.08 0.03 0.3
v -0.08 0.02 0.35000000000000003
v -0.08 0.07 0.34
v -0.08 0.06 0.34
v -0.09 0.04 0.32
v -0.09 0.02 0.35000000000000003
v -0.06 0.09 0.34
v -0.09 0.04 0.34
v -0.1 0.05 0.34
v -0.07 0.05 0.28
v -0.08 0.07 0.29
v -0.08 0.09 0.33
v -0.07 0.01 0.35000000000000003
v -0.09 0.02 0.33
v -0.1 0.05 0.32
v -0.07 0.01 0.33
v -0.07 0.09 0.31
v -0.09 0.07 0.32
v -0.05 0.1 0.32
v -0.06 0.09 0.36
v -0.08 0.02 0.37
v -0.08 0.08 0.36
v -0.09 0.06 0.36
v -0.09 0.07 0.38
v -0.06 0.09 0.38
v -0.08 0.03 0.39
v -0.08 0.07 0.38
v -0.09 0.06 0.38
v -0.09 0.04 0.36
v -0.09 0.03 0.39
v -0.07 0.08 0.38
v -0.09 0.05 0.39
v -0.1 0.06 0.38
v -0.08 0.07 0.33
v -0.08 0.09 0.38
v -0.08 0.02 0.39
v -0.09 0.03 0.37
v -0.1 0.05 0.36
v -0.07 0.01 0.37
v -0.08 0.09 0.35000000000000003
v -0.1 0.07 0.36
v -0.05 0.1 0.36
v -0.06 0.08 0.39
v -0.07 0.04 0.4
v -0.08 0.06 0.39
v -0.08 0.07 0.39
v -0.07 0.05 0.4
v -0.07 0.06 0.4
v -0.06 0.07 0.4
v -0.06 0.05 0.41000000000000003
v -0.07 0.06 0.41000000000000003
v -0.07 0.05 0.41000000000000003
v -0.07 0.05 0.42
v -0.09 0.04 0.42
v -0.09 0.01 0.42
v -0.09 0.06 0.42
v -0.08 0.09 0.41000000000000003
v -0.11 0.07 0.41000000000000003
v -0.12 0.05 0.42
v -0.11 0.09 0.41000000000000003
v -0.13 0.07 0.39
v -0.08 0.08 0.43
v -0.07 0.12 0.43
v 0.05 0.1 0.28
v 0.05 0.1 0.3
v 0.04 0.1 0.31
v 0.03 0.1 0.28
v 0.06 0.03 0.28
v 0.06 0.03 0.3
v 0.08 0.04 0.3
v 0.07 0.04 0.27
v 0.07 0.09 0.29
v 0.09 0.09 0.31
v 0.08 0.08 0.29
v 0.04 0.12 0.33
v 0.04 0.06 0.27
v 0.06 0.06 0.26
v 0.06 0.08 0.26
v 0.04 0.07 0.27
v 0.06 0.07 0.26
v 0.08 0.06 0.27
v 0.08 0.08 0.27
v 0.07 0.03 0.32
v 0.08 0.04 0.32
v 0.08 0.08 0.32
v 0.08 0.09 0.32
v 0.09 0.06 0.29
v 0.09 0.04 0.32
v 0.06 0.1 0.32
v 0.09 0.06 0.31
v 0.1 0.07 0.31
v 0.07 0.09 0.27
v 0.04 0.1 0.33
v 0.07 0.11 0.32
v 0.08 0.03 0.32
v 0.09 0.04 0.29
v 0.09 0.07 0.29
v 0.07 0.03 0.3
v 0.07 0.11 0.3
v 0.09 0.09 0.29
v 0.04 0.12 0.31
v 0.06 0.11 0.32
v 0.06 0.11 0.34
v 0.05 0.1 0.35000000000000003
v 0.06 0.03 0.32
v 0.07 0.03 0.34
v 0.08 0.04 0.34
v 0.08 0.09 0.34
v 0.1 0.09 0.36
v 0.09 0.08 0.34
v 0.06 0.11 0.37
v 0.07 0.04 0.37
v 0.09 0.05 0.36
v 0.09 0.08 0.36
v 0.09 0.09 0.36
v 0.09 0.06 0.34
v 0.08 0.08 0.31
v 0.09 0.06 0.33
v 0.1 0.05 0.36
v 0.07 0.1 0.37
v 0.09 0.06 0.36
v 0.1 0.07 0.36
v 0.05 0.09 0.37
v 0.08 0.09 0.31
v 0.08 0.1 0.36
v 0.08 0.04 0.36
v 0.1 0.05 0.34
v 0.1 0.07 0.33
v 0.08 0.03 0.34
v 0.08 0.11 0.34
v 0.1 0.09 0.33
v 0.05 0.12 0.35000000000000003
v 0.07 0.09 0.37
v 0.06 0.09 0.38
v 0.08 0.05 0.37
v 0.09 0.06 0.37
v 0.09 0.08 0.37
v 0.08 0.09 0.37
v 0.07 0.05 0.37
v 0.07 0.06 0.38
v 0.08 0.06 0.38
v 0.08 0.07 0.38
v 0.07 0.08 0.38
v 0.06 0.08 0.38
v 0.08 0.08 0.38
v 0.07 0.06 0.39
v 0.06 0.08 0.39
v 0.07 0.08 0.39
v 0.07 0.07 0.38
v 0.07 0.07 0.39
v 0.08 0.07 0.39
v 0.08 0.05 0.4
v 0.1 0.05 0.39
v 0.08 0.02 0.39
v 0.1 0.02 0.39
v 0.09 -0.01 0.37
v 0.09 0.0 0.37
v 0.1 0.08 0.39
v 0.09 0.1 0.4
v 0.12 0.07 0.38
v 0.12 0.09 0.38
v 0.11 0.1 0.39
v 0.14 0.09 0.36
v 0.13 0.09 0.36
v 0.06 0.09 0.41000000000000003
v 0.09 0.09 0.4
v 0.05 0.12 0.42
v 0.07 0.13 0.41000000000000003
v 0.04 0.14 0.4
v 0.05 0.14 0.4
v 0.02 0.09 0.29
v 0.02 0.09 0.31
v 0.04 0.03 0.28
v 0.05 0.03 0.31
v 0.01 0.07 0.32
v 0.02 0.06 0.31
v 0.01 0.06 0.34
v 0.03 0.11 0.33
v 0.03 0.05 0.27
v 0.02 0.07 0.28
v 0.02 0.06 0.28
v 0.01 0.06 0.29
v 0.02 0.04 0.29
v 0.05 0.03 0.33
v 0.02 0.07 0.34
v 0.02 0.06 0.34
v 0.02 0.04 0.31
v 0.03 0.04 0.31
v 0.04 0.03 0.33
v 0.03 0.09 0.33
v 0.03 0.04 0.34
v 0.02 0.04 0.34
v 0.01 0.07 0.29
v 0.01 0.09 0.34
v 0.06 0.02 0.33
v 0.03 0.03 0.31
v 0.01 0.04 0.32
v 0.06 0.02 0.3
v 0.01 0.09 0.32
v 0.0 0.06 0.32
v 0.03 0.11 0.31
v 0.03 0.1 0.33
v 0.03 0.1 0.35000000000000003
v 0.05 0.03 0.35000000000000003
v 0.02 0.07 0.36
v 0.03 0.06 0.36
v 0.02 0.06 0.38
v 0.04 0.1 0.38
v 0.06 0.04 0.37
v 0.03 0.07 0.38
v 0.03 0.06 0.38
v 0.03 0.04 0.33
v 0.02 0.06 0.33
v 0.03 0.04 0.36
v 0.05 0.03 0.38
v 0.04 0.09 0.38
v 0.04 0.04 0.38
v 0.03 0.05 0.38
v 0.03 0.08 0.38
v 0.06 0.03 0.37
v 0.04 0.03 0.36
v 0.02 0.04 0.36
v 0.06 0.02 0.35000000000000003
v 0.02 0.09 0.36
v 0.01 0.06 0.36
v 0.04 0.11 0.36
v 0.05 0.08 0.38
v 0.04 0.05 0.38
v 0.06 0.04 0.38
v 0.04 0.06 0.38
v 0.04 0.07 0.38
v 0.06 0.05 0.38
v 0.05 0.06 0.39
v 0.05 0.07 0.39
v 0.06 0.08 0.4
v 0.06 0.06 0.39
v 0.06 0.07 0.39
v 0.06 0.06 0.4
v 0.06 0.07 0.4
v 0.05 0.04 0.41000000000000003
v 0.07 0.01 0.4
v 0.04 0.06 0.41000000000000003
v 0.05 0.03 0.41000000000000003
v 0.03 0.08 0.41000000000000003
v 0.02 0.05 0.42
v 0.02 0.03 0.42
v 0.01 0.07 0.42
v 0.0 0.05 0.41000000000000003
v 0.04 0.08 0.42
v 0.03 0.11 0.43
v -0.06 -0.08 0.25
v -0.07 -0.08 0.27
v -0.05 -0.09 0.28
v -0.05 -0.08 0.26
v -0.04 -0.01 0.28
v -0.04 -0.02 0.3
v -0.06 -0.02 0.29
v -0.06 -0.01 0.27
v -0.08 -0.06 0.28
v -0.1 -0.06 0.3
v -0.08 -0.05 0.28
v -0.07 -0.1 0.3
v -0.04 -0.04 0.26
v -0.06 -0.04 0.25
v -0.06 -0.05 0.25
v -0.04 -0.05 0.25
v -0.08 -0.03 0.26
v -0.08 -0.04 0.26
v -0.05 -0.02 0.32
v -0.06 -0.02 0.32
v -0.06 -0.01 0.29
v -0.08 -0.05 0.3
v -0.09 -0.07 0.3
v -0.08 -0.03 0.29
v -0.08 -0.02 0.31
v -0.07 -0.09 0.3
v -0.08 -0.03 0.31
v -0.1 -0.04 0.3
v -0.08 -0.06 0.25
v -0.06 -0.09 0.3
v -0.09 -0.08 0.29
v -0.06 -0.01 0.32
v -0.07 -0.01 0.29
v -0.09 -0.04 0.28
v -0.05 -0.01 0.3
v -0.09 -0.08 0.27
v -0.1 -0.05 0.28
v -0.06 -0.1 0.28
v -0.07 -0.09 0.29
v -0.08 -0.09 0.32
v -0.06 -0.09 0.32
v -0.05 -0.02 0.34
v -0.07 -0.02 0.34
v -0.06 -0.02 0.31
v -0.09 -0.07 0.32
v -0.1 -0.06 0.34
v -0.09 -0.05 0.32
v -0.07 -0.1 0.34
v -0.06 -0.03 0.36
v -0.07 -0.03 0.36
v -0.09 -0.06 0.35000000000000003
v -0.09 -0.07 0.34
v -0.09 -0.04 0.33
v -0.09 -0.03 0.33
v -0.08 -0.03 0.36
v -0.08 -0.09 0.34
v -0.09 -0.04 0.35000000000000003
v -0.1 -0.05 0.35000000000000003
v -0.06 -0.09 0.35000000000000003
v -0.09 -0.08 0.34
v -0.08 -0.02 0.33
v -0.1 -0.04 0.32
v -0.06 -0.01 0.34
v -0.09 -0.09 0.31
v -0.1 -0.06 0.32
v -0.07 -0.11 0.32
v -0.07 -0.08 0.35000000000000003
v -0.06 -0.08 0.35000000000000003
v -0.07 -0.04 0.36
v -0.08 -0.04 0.36
v -0.08 -0.06 0.35000000000000003
v -0.09 -0.07 0.35000000000000003
v -0.06 -0.04 0.37
v -0.06 -0.05 0.37
v -0.07 -0.05 0.37
v -0.07 -0.05 0.36
v -0.08 -0.06 0.36
v -0.07 -0.07 0.36
v -0.06 -0.07 0.36
v -0.06 -0.07 0.37
v -0.07 -0.07 0.37
v -0.07 -0.06 0.37
v -0.07 -0.06 0.38
v -0.07 -0.05 0.38
v -0.06 -0.05 0.38
v -0.06 -0.04 0.39
v -0.09 -0.04 0.38
v -0.06 -0.01 0.39
v -0.07 -0.01 0.39
v -0.09 -0.03 0.39
v -0.09 -0.06 0.38
v -0.1 -0.09 0.37
v -0.12 -0.04 0.38
v -0.12 -0.06 0.37
v -0.12 -0.07 0.37
v -0.13 -0.04 0.36
v -0.13 -0.05 0.35000000000000003
v -0.07 -0.08 0.39
v -0.09 -0.08 0.38
v -0.07 -0.12 0.39
v -0.1 -0.12 0.38
v -0.07 -0.14 0.36
v -0.08 -0.14 0.36
v -0.03 -0.09 0.26
v -0.04 -0.09 0.28
v -0.03 -0.02 0.28
v -0.03 -0.02 0.3
v -0.02 -0.07 0.29
v -0.02 -0.06 0.3
v -0.01 -0.07 0.32
v -0.05 -0.1 0.3
v -0.03 -0.04 0.26
v -0.03 -0.06 0.26
v -0.02 -0.05 0.26
v -0.01 -0.05 0.27
v -0.01 -0.04 0.28
v -0.03 -0.02 0.32
v -0.02 -0.08 0.31
v -0.02 -0.06 0.32
v -0.01 -0.04 0.3
v -0.02 -0.03 0.33
v -0.04 -0.09 0.3
v -0.02 -0.04 0.32
v -0.01 -0.05 0.32
v -0.02 -0.07 0.27
v -0.02 -0.09 0.31
v -0.04 -0.01 0.32
v -0.02 -0.02 0.31
v 0.0 -0.05 0.3
v -0.04 -0.01 0.3
v -0.02 -0.09 0.29
v -0.01 -0.07 0.3
v -0.05 -0.1 0.28
v -0.04 -0.09 0.32
v -0.04 -0.03 0.34
v -0.03 -0.08 0.33
v -0.02 -0.06 0.34
v -0.02 -0.07 0.36
v -0.06 -0.1 0.35000000000000003
v -0.04 -0.04 0.36
v -0.03 -0.08 0.36
v -0.03 -0.07 0.36
v -0.02 -0.05 0.34
v -0.03 -0.04 0.37
v -0.05 -0.09 0.35000000000000003
v -0.03 -0.05 0.36
v -0.02 -0.06 0.37
v -0.03 -0.09 0.35000000000000003
v -0.05 -0.03 0.37
v -0.02 -0.03 0.35000000000000003
v -0.01 -0.06 0.34
v -0.04 -0.02 0.34
v -0.03 -0.1 0.33
v -0.01 -0.07 0.34
v -0.06 -0.11 0.32
v -0.05 -0.08 0.36
v -0.03 -0.05 0.37
v -0.05 -0.04 0.37
v -0.04 -0.07 0.37
v -0.04 -0.08 0.36
v -0.05 -0.05 0.37
v -0.05 -0.06 0.37
v -0.05 -0.07 0.37
v -0.06 -0.07 0.38
v -0.05 -0.06 0.38
v -0.04 -0.05 0.4
v -0.04 -0.02 0.4
v -0.04 -0.07 0.39
v -0.03 -0.04 0.4
v -0.04 -0.09 0.39
v -0.01 -0.07 0.4
v -0.01 -0.06 0.4
v -0.01 -0.09 0.39
v 0.01 -0.08 0.39
v -0.04 -0.09 0.4
v -0.05 -0.13 0.39

usemtl rsc_005008
f 1 2 3
f 1 4 2
f 5 3 6
f 5 1 3
f 4 7 2
f 8 9 10
f 8 11 9
f 12 10 13
f 12 8 10
f 11 14 9
f 15 12 13
f 16 17 18
f 16 19 17
f 20 18 21
f 20 16 18
f 19 22 17
f 23 20 21
f 24 25 26
f 24 27 25
f 28 26 29
f 28 24 26
f 27 30 25
f 31 32 33
f 31 34 32
f 35 33 36
f 35 31 33
f 34 37 32
f 38 39 40
f 38 41 39
f 42 40 43
f 42 38 40
f 41 44 39
f 23 42 43
f 45 46 47
f 45 48 46
f 49 47 50
f 49 45 47
f 48 51 46
f 15 49 50
f 52 53 54
f 52 55 53
f 56 54 57
f 56 52 54
f 55 58 53
f 23 56 57
f 59 60 61
f 59 62 60
f 63 61 64
f 63 59 61
f 62 65 60
f 15 63 64
usemtl rsc_904008
f 66 67 68
f 66 69 67
f 70 68 71
f 70 66 68
f 71 67 72
f 71 68 67
f 72 69 73
f 72 67 69
f 73 66 70
f 73 69 66
usemtl rsc_b88838
f 74 75 76 77
f 78 79 80 81
f 82 83 84
f 85 86 87
f 88 78 81 89
f 90 74 77 91
f 92 93 94 92
f 79 95 96 80
f 84 97 98 82
f 93 99 84 94
f 99 100 80
f 87 82 98 101
f 99 102 97 84
f 84 103 99
f 92 94 104 92
f 87 101 105 86
f 94 84 82 104
f 80 96 102 99
f 90 92 104 74
f 74 104 82 75
f 106 82 87
f 89 81 93 92
f 81 80 99 93
f 107 80 79
f 93 108 81
f 94 109 93
f 110 81 78
f 111 104 74
f 104 112 94
f 113 77 74
f 114 115 116 117
f 95 118 119 96
f 120 121 122
f 123 124 125
f 118 126 127 119
f 122 128 129 120
f 102 130 122 97
f 130 131 119
f 125 120 129 132
f 130 133 128 122
f 122 134 130
f 125 132 135 124
f 97 122 120 98
f 119 127 133 130
f 114 98 120 115
f 136 120 125
f 96 119 130 102
f 137 119 118
f 102 138 96
f 97 139 102
f 140 96 95
f 141 98 114
f 98 142 97
f 143 117 114
f 89 92 92 92 90 91 88
f 135 132 144 145
f 133 127 146 147
f 128 133 147 148
f 132 129 149 144
f 127 126 150 146
f 129 128 148 149
f 146 150 151 152
f 148 147 152 153
f 147 146 152 152
f 145 144 154 155
f 144 149 156 154
f 149 148 153 156
f 152 151 151 151
f 155 155 157 157
f 153 152 152 156
f 152 152 151 152
f 155 154 155 155
f 154 156 156 155
f 156 153 156 156
f 158 159 160 160 157 157 158
f 155 156 158 157
f 156 156 158 158
f 151 151 160 160
f 156 152 159 158
f 152 151 160 159
f 179 77 76 180
f 78 181 182 79
f 183 184 185
f 186 187 86
f 88 188 181 78
f 189 91 77 179
f 190 190 191 192
f 79 182 193 95
f 184 183 194 195
f 192 191 184 196
f 196 182 197
f 187 198 194 183
f 196 184 195 199
f 184 196 200
f 190 190 201 191
f 187 86 105 198
f 191 201 183 184
f 182 196 199 193
f 189 179 201 190
f 179 180 183 201
f 202 187 183
f 188 190 192 181
f 181 192 196 182
f 203 79 182
f 192 181 204
f 191 192 205
f 206 78 181
f 207 179 201
f 201 191 208
f 209 179 77
f 210 117 116 211
f 95 193 212 118
f 213 214 215
f 216 217 124
f 118 212 218 126
f 214 213 219 220
f 199 195 214 221
f 221 212 222
f 217 223 219 213
f 221 214 220 224
f 214 221 225
f 217 124 135 223
f 195 194 213 214
f 212 221 224 218
f 210 211 213 194
f 226 217 213
f 193 199 221 212
f 227 118 212
f 199 193 228
f 195 199 229
f 230 95 193
f 231 210 194
f 194 195 232
f 233 210 117
f 188 88 91 189 190 190 190
f 135 145 234 223
f 224 235 236 218
f 220 237 235 224
f 223 234 238 219
f 218 236 150 126
f 219 238 237 220
f 236 239 151 150
f 237 240 239 235
f 235 239 239 236
f 145 155 241 234
f 234 241 242 238
f 238 242 240 237
f 239 151 151 151
f 155 157 157 155
f 240 242 239 239
f 239 239 151 239
f 155 155 155 241
f 241 155 242 242
f 242 242 242 240
f 243 243 157 157 160 160 244
f 155 157 243 242
f 242 243 243 242
f 151 160 160 151
f 242 243 244 239
f 239 244 160 151
f 257 258 259 260
f 261 262 263 264
f 265 266 267
f 268 259 258
f 269 261 264 270
f 271 257 260 272
f 273 274 275 271
f 262 276 277 263
f 267 278 279 265
f 274 280 267 275
f 280 281 263
f 258 265 279 282
f 280 283 278 267
f 267 284 280
f 271 275 285 271
f 258 282 286 259
f 275 267 265 285
f 263 277 283 280
f 271 271 285 257
f 257 285 265 258
f 287 265 258
f 270 264 274 273
f 264 263 280 274
f 288 263 262
f 274 289 264
f 275 290 274
f 291 264 261
f 292 285 257
f 285 293 275
f 294 260 257
f 282 295 296 286
f 297 298 299 277
f 300 301 302
f 303 296 295
f 298 304 305 299
f 302 306 307 300
f 283 308 302 309
f 308 310 299
f 295 300 307 311
f 308 312 306 302
f 302 313 308
f 295 311 314 296
f 309 302 300 279
f 299 305 312 308
f 282 279 300 295
f 315 300 295
f 277 299 308 283
f 316 299 298
f 283 317 277
f 309 318 283
f 319 277 297
f 320 279 282
f 279 321 309
f 322 286 282
f 270 273 271 271 271 272 269
f 314 311 311 323
f 312 305 324 325
f 306 312 325 326
f 311 307 327 311
f 305 304 304 324
f 307 306 326 327
f 324 304 328 329
f 326 325 330 331
f 325 324 329 330
f 323 311 332 333
f 311 327 331 332
f 327 326 331 331
f 329 328 329 329
f 334 335 336 337
f 331 330 338 339
f 330 329 329 338
f 333 332 335 334
f 332 331 339 335
f 331 331 339 339
f 340 340 341 342 337 336 336
f 335 339 336 336
f 339 339 340 336
f 329 329 342 341
f 339 338 340 340
f 338 329 341 340
f 362 260 259 363
f 261 364 365 262
f 366 367 368
f 369 363 259
f 269 370 364 261
f 371 272 260 362
f 370 370 372 373
f 262 365 374 276
f 367 366 375 376
f 373 372 367 377
f 378 365 379
f 363 380 375 366
f 378 367 376 381
f 367 378 382
f 370 383 384 372
f 363 259 286 380
f 372 384 366 367
f 365 378 381 374
f 371 362 384 383
f 362 363 366 384
f 385 363 366
f 370 370 373 364
f 364 373 377 365
f 386 262 365
f 373 364 387
f 372 373 388
f 389 261 364
f 390 362 384
f 384 372 391
f 392 362 260
f 380 286 296 393
f 297 80 394 298
f 395 396 397
f 398 393 296
f 298 394 399 304
f 396 395 400 401
f 381 376 402 403
f 403 394 404
f 393 405 400 395
f 403 396 401 406
f 396 403 407
f 393 296 314 405
f 376 375 395 402
f 394 403 406 399
f 380 393 395 375
f 408 393 395
f 80 381 403 394
f 399 298 394
f 381 80 409
f 376 381 410
f 411 297 80
f 412 380 375
f 375 376 413
f 414 380 286
f 370 269 272 371 383 370 370
f 314 323 415 405
f 406 416 417 399
f 401 418 416 406
f 405 415 419 400
f 399 417 304 304
f 400 419 418 401
f 417 420 328 304
f 418 421 422 416
f 416 422 420 417
f 323 333 423 415
f 415 423 424 419
f 419 424 421 418
f 420 420 329 328
f 334 337 337 334
f 421 424 420 422
f 422 420 420 420
f 333 334 334 423
f 423 334 424 424
f 424 424 424 421
f 425 425 337 337 342 426 426
f 334 337 425 424
f 424 425 425 424
f 420 426 342 329
f 424 425 426 420
f 420 426 426 420
f 440 441 442 443
f 444 445 446 447
f 448 449 450
f 451 442 441
f 452 444 447 453
f 454 440 443 455
f 453 456 457 454
f 445 458 459 446
f 450 179 460 448
f 456 461 450 457
f 461 462 446
f 441 448 460 463
f 461 464 179 450
f 450 465 461
f 454 457 466 454
f 441 463 467 442
f 457 450 448 466
f 446 459 464 461
f 454 454 466 440
f 440 466 448 441
f 468 448 441
f 453 447 456 453
f 447 446 461 456
f 469 446 445
f 456 470 447
f 457 471 456
f 472 447 444
f 473 466 440
f 466 474 457
f 475 443 440
f 463 476 477 467
f 458 478 479 480
f 481 482 180
f 483 477 476
f 478 484 485 479
f 180 486 487 481
f 201 488 180 179
f 488 489 479
f 476 481 487 490
f 488 491 486 180
f 180 492 488
f 476 490 493 477
f 179 180 481 460
f 479 485 491 488
f 463 460 481 476
f 494 481 476
f 480 479 488 201
f 495 479 478
f 201 496 480
f 179 497 201
f 498 480 458
f 499 460 463
f 460 500 179
f 501 467 463
f 453 453 454 454 454 455 452
f 493 490 502 493
f 491 485 503 504
f 486 491 504 486
f 490 487 505 502
f 485 484 506 503
f 487 486 486 505
f 503 506 507 508
f 486 504 509 510
f 504 503 508 509
f 493 502 511 512
f 502 505 513 511
f 505 486 510 513
f 508 507 514 514
f 515 516 516 517
f 510 509 509 509
f 509 508 514 509
f 512 511 516 515
f 511 513 516 516
f 513 510 509 516
f 518 518 519 520 517 516 521
f 516 516 521 516
f 516 509 518 521
f 514 514 520 519
f 509 509 518 518
f 509 514 519 518
f 541 443 442 542
f 444 543 544 445
f 545 546 547
f 548 542 442
f 452 549 543 444
f 550 455 443 541
f 549 551 552 553
f 445 544 554 458
f 546 545 555 556
f 553 552 546 557
f 557 544 558
f 542 559 555 545
f 557 546 556 560
f 546 557 561
f 551 562 563 552
f 542 442 467 559
f 552 563 545 546
f 544 557 560 554
f 550 541 563 562
f 541 542 545 563
f 564 542 545
f 549 549 553 543
f 543 553 557 544
f 565 445 544
f 553 543 566
f 552 553 567
f 568 444 543
f 569 541 563
f 563 552 570
f 571 541 443
f 559 467 477 572
f 458 554 573 478
f 574 575 576
f 577 572 477
f 478 573 578 484
f 575 574 579 580
f 560 556 575 581
f 581 573 582
f 572 583 579 574
f 581 575 580 584
f 575 581 585
f 572 477 493 583
f 556 586 574 575
f 573 581 584 578
f 559 572 574 586
f 587 572 574
f 554 560 581 573
f 588 478 573
f 560 554 589
f 556 560 590
f 591 458 554
f 592 559 586
f 586 556 593
f 594 559 467
f 549 452 455 550 562 551 549
f 493 493 595 583
f 584 584 596 578
f 580 597 584 584
f 583 595 598 579
f 578 596 506 484
f 579 598 597 580
f 596 599 507 506
f 597 600 599 584
f 584 599 599 596
f 493 512 601 595
f 595 601 600 598
f 598 600 600 597
f 599 602 514 507
f 515 517 517 512
f 600 603 604 599
f 599 604 602 599
f 512 515 512 601
f 601 512 600 600
f 600 600 603 600
f 603 603 517 517 520 605 604
f 512 517 603 600
f 600 603 603 603
f 602 605 520 514
f 603 603 604 604
f 604 604 605 602
f 616 617 618 619
f 620 621 622 623
f 624 625 626
f 627 618 617
f 628 620 623 629
f 630 616 619 631
f 632 633 634 632
f 621 635 636 622
f 626 637 638 624
f 633 639 626 634
f 639 640 622
f 617 624 638 641
f 639 642 637 626
f 626 643 639
f 632 634 644 630
f 617 641 645 618
f 634 626 624 644
f 622 636 642 639
f 630 630 644 616
f 616 644 624 617
f 646 624 617
f 629 623 633 632
f 623 622 639 633
f 647 622 621
f 633 648 623
f 634 649 633
f 650 623 620
f 651 644 616
f 644 652 634
f 653 619 616
f 654 655 656 645
f 657 658 659 636
f 660 661 662
f 663 656 655
f 658 664 665 659
f 662 666 667 660
f 642 668 662 669
f 670 671 659
f 655 660 667 672
f 670 673 666 662
f 662 674 670
f 655 672 675 656
f 669 662 660 676
f 659 665 673 670
f 654 676 660 655
f 677 660 655
f 636 659 668 642
f 678 659 658
f 642 679 636
f 669 680 642
f 681 636 657
f 682 676 654
f 676 683 669
f 684 645 654
f 629 632 632 630 630 631 628
f 675 672 685 686
f 673 665 687 688
f 666 673 688 689
f 672 667 690 685
f 665 664 691 687
f 667 666 689 690
f 687 691 692 693
f 689 688 694 694
f 688 687 693 694
f 686 685 695 696
f 685 690 697 695
f 690 689 694 697
f 693 692 698 692
f 699 700 700 699
f 694 694 693 701
f 694 693 692 693
f 696 695 700 699
f 695 697 701 700
f 697 694 701 701
f 702 703 698 698 699 700 702
f 700 701 702 700
f 701 701 702 702
f 692 698 698 698
f 701 693 703 702
f 693 692 698 703
f 723 619 618 724
f 620 725 726 621
f 727 728 729
f 730 724 618
f 628 731 725 620
f 732 631 619 723
f 733 733 734 735
f 621 726 736 635
f 728 727 737 738
f 735 734 728 739
f 740 726 741
f 724 742 737 727
f 740 728 738 743
f 728 740 744
f 733 733 745 734
f 724 618 645 742
f 734 745 727 728
f 726 740 743 736
f 732 723 745 733
f 723 724 727 745
f 746 724 727
f 731 733 735 725
f 725 735 739 726
f 747 621 726
f 735 725 748
f 734 735 749
f 750 620 725
f 751 723 745
f 745 734 752
f 753 723 619
f 754 645 656 755
f 657 736 756 658
f 757 758 759
f 760 755 656
f 658 756 761 664
f 758 757 762 763
f 764 765 758 766
f 766 756 767
f 755 768 762 757
f 766 758 763 769
f 758 766 770
f 755 656 675 768
f 765 737 757 758
f 756 766 769 761
f 754 755 757 737
f 771 755 757
f 736 764 766 756
f 772 658 756
f 764 736 773
f 765 764 774
f 775 657 736
f 776 754 737
f 737 765 777
f 778 754 645
f 731 628 631 732 733 733 733
f 675 686 779 768
f 769 780 781 761
f 763 782 780 769
f 768 779 783 762
f 761 781 691 664
f 762 783 782 763
f 781 784 692 691
f 782 785 785 780
f 780 785 784 781
f 686 696 786 779
f 779 786 786 783
f 783 786 785 782
f 784 698 698 692
f 699 699 787 699
f 785 788 788 785
f 785 788 698 784
f 696 699 699 786
f 786 699 789 786
f 786 789 788 785
f 790 791 787 699 698 698 790
f 699 787 791 789
f 789 791 790 788
f 698 698 698 698
f 788 790 790 788
f 788 790 698 698
f 797 116 116 798
f 799 800 116 797
f 803 804 805 806
f 807 808 809 810
f 811 812 813
f 814 805 804
f 815 807 810 816
f 817 803 806 818
f 816 819 820 816
f 808 821 822 823
f 813 824 825 811
f 819 826 813 820
f 826 827 823
f 804 811 825 828
f 826 829 824 813
f 813 830 826
f 816 820 831 817
f 804 828 832 805
f 820 813 811 831
f 823 822 829 826
f 817 817 831 803
f 803 831 811 804
f 833 811 804
f 816 810 819 816
f 810 809 826 819
f 834 823 808
f 819 835 810
f 820 836 819
f 837 810 807
f 838 831 803
f 831 839 820
f 840 806 803
f 841 842 843 832
f 821 844 845 846
f 847 848 849
f 850 843 842
f 844 851 852 845
f 849 853 854 847
f 829 855 849 824
f 856 857 845
f 842 847 854 858
f 856 859 853 849
f 849 860 856
f 842 858 861 843
f 824 849 847 825
f 845 852 859 856
f 841 825 847 842
f 862 847 842
f 846 845 855 829
f 852 845 844
f 829 863 846
f 824 864 829
f 865 846 821
f 866 825 841
f 825 867 824
f 868 832 841
f 816 816 816 817 817 818 815
f 861 858 869 870
f 859 852 871 872
f 853 859 872 873
f 858 854 874 869
f 852 851 875 871
f 854 853 873 874
f 871 875 876 877
f 873 872 878 879
f 872 871 877 878
f 870 869 880 881
f 869 874 879 880
f 874 873 879 879
f 877 876 876 876
f 882 883 883 882
f 879 878 884 884
f 878 877 876 884
f 881 880 883 882
f 880 879 883 883
f 879 879 884 883
f 885 885 886 887 882 883 883
f 883 883 883 883
f 883 884 885 883
f 876 876 887 886
f 884 884 885 885
f 884 876 886 885
f 906 806 805 907
f 807 908 909 808
f 910 911 912
f 913 907 805
f 815 914 908 807
f 915 818 806 906
f 916 916 917 918
f 808 909 919 821
f 911 910 920 921
f 918 917 911 922
f 922 909 923
f 907 924 920 910
f 922 911 921 925
f 911 922 926
f 916 916 927 917
f 907 805 832 924
f 917 927 910 911
f 909 922 925 919
f 915 906 927 916
f 906 907 910 927
f 928 907 910
f 914 916 918 908
f 908 918 922 909
f 929 808 909
f 918 908 930
f 917 918 931
f 932 807 908
f 933 906 927
f 927 917 934
f 935 906 806
f 924 832 843 936
f 821 919 937 844
f 938 939 940
f 941 936 843
f 844 937 942 851
f 939 938 943 944
f 925 921 939 945
f 945 937 946
f 936 947 943 938
f 945 939 944 948
f 939 945 949
f 936 843 861 947
f 921 920 938 939
f 937 945 948 942
f 924 936 938 920
f 950 936 938
f 919 925 945 937
f 951 844 937
f 925 919 952
f 921 925 953
f 954 821 919
f 955 924 920
f 920 921 956
f 957 924 832
f 914 815 818 915 916 916 916
f 861 870 958 947
f 948 959 960 942
f 944 961 959 948
f 947 958 962 943
f 942 960 875 851
f 943 962 961 944
f 960 963 876 875
f 961 964 964 959
f 959 964 963 960
f 870 881 965 958
f 958 965 965 962
f 962 965 964 961
f 963 876 876 876
f 882 882 966 882
f 964 964 964 964
f 964 964 876 963
f 881 882 882 965
f 965 882 965 965
f 965 965 964 964
f 967 966 966 882 887 887 967
f 882 966 966 965
f 965 966 967 964
f 876 887 887 876
f 964 967 967 964
f 964 967 887 876
usemtl rsc_306020
f 160 160 161 162
f 162 161 163 164
f 164 163 165 165
f 158 159 166 167
f 158 158 167 168
f 167 166 169 170
f 168 167 170 171
f 170 169 172 173
f 171 170 173 173
f 157 157 174 175
f 175 174 176 177
f 177 176 178 178
f 160 245 161 160
f 245 246 163 161
f 246 165 165 163
f 243 247 248 244
f 243 249 247 243
f 247 250 251 248
f 249 252 250 247
f 250 253 254 251
f 252 253 253 250
f 157 255 174 157
f 255 256 176 174
f 256 178 178 176
f 341 342 343 344
f 344 343 345 346
f 346 345 347 347
f 340 340 348 349
f 336 340 349 350
f 349 348 351 352
f 350 349 352 353
f 352 351 354 355
f 353 352 355 356
f 336 337 357 358
f 358 357 359 360
f 360 359 361 361
f 426 427 343 342
f 427 428 345 343
f 428 347 347 345
f 425 429 430 426
f 425 431 429 425
f 429 432 433 430
f 431 434 432 429
f 432 435 435 433
f 434 436 435 432
f 337 437 357 337
f 437 438 359 357
f 438 439 361 359
f 519 520 522 523
f 523 522 524 525
f 525 524 526 527
f 518 518 528 529
f 521 518 529 530
f 529 528 531 532
f 530 529 532 533
f 532 531 534 535
f 533 532 535 535
f 516 517 536 537
f 537 536 538 539
f 539 538 540 540
f 605 606 522 520
f 606 607 524 522
f 607 526 526 524
f 603 608 606 604
f 603 609 608 603
f 608 610 611 606
f 609 612 610 608
f 610 613 613 611
f 612 613 613 610
f 517 614 536 517
f 614 615 538 536
f 615 540 540 538
f 698 698 704 705
f 705 704 706 707
f 707 706 708 709
f 702 703 705 710
f 702 702 710 711
f 710 705 712 713
f 711 710 713 714
f 713 712 715 716
f 714 713 716 716
f 700 699 717 718
f 718 717 719 720
f 720 719 721 722
f 698 792 704 698
f 792 793 706 704
f 793 708 708 706
f 790 794 795 790
f 791 796 794 790
f 794 797 798 795
f 796 799 797 794
f 787 801 717 699
f 801 802 719 717
f 802 721 721 719
f 886 887 888 889
f 889 888 890 891
f 891 890 479 479
f 885 885 892 893
f 883 885 893 894
f 893 892 895 896
f 894 893 896 897
f 896 895 898 899
f 897 896 899 899
f 883 882 900 901
f 901 900 902 903
f 903 902 904 905
f 887 968 888 887
f 968 969 890 888
f 969 479 479 890
f 967 970 971 967
f 966 972 970 967
f 970 973 974 971
f 972 975 973 970
f 973 299 299 974
f 975 976 299 973
f 966 977 900 882
f 977 978 902 900
f 978 904 904 902
