# OGRS RSC model extracted from .ob3
# vertices: 65  faces: 32
mtllib portal.mtl

o portal
v 0.11 -0.48 0.0
v 0.2 -0.44 0.0
v 0.28 -0.4 0.0
v 0.35000000000000003 -0.33 0.0
v 0.41000000000000003 -0.25 0.0
v 0.45 -0.17 0.0
v 0.47000000000000003 -0.07 0.0
v 0.48 0.02 0.0
v 0.46 0.12 0.0
v 0.43 0.21 0.0
v 0.38 0.29 0.0
v 0.32 0.36 0.0
v 0.24 0.42 0.0
v 0.15 0.46 0.0
v 0.06 0.48 0.0
v -0.04 0.48 0.0
v -0.13 0.47000000000000003 0.0
v -0.22 0.44 0.0
v -0.3 0.39 0.0
v -0.37 0.32 0.0
v -0.43 0.24 0.0
v -0.47000000000000003 0.16 0.0
v -0.49 0.06 0.0
v -0.5 -0.03 0.0
v -0.48 -0.13 0.0
v -0.45 -0.22 0.0
v -0.4 -0.3 0.0
v -0.34 -0.37 0.0
v -0.26 -0.43 0.0
v -0.17 -0.47000000000000003 0.0
v -0.08 -0.49 0.0
v 0.02 -0.49 0.0
v 0.27 0.22 0.23
v 0.06 -0.61 0.62
v 0.19 -0.55 0.45
v 0.38 -0.54 0.77
v 0.48 -0.4 0.54
v 0.58 -0.36 0.88
v 0.6 -0.16 0.73
v 0.59 0.01 0.53
v 0.65 0.12 0.79
v 0.65 0.16 0.88
v 0.51 0.25 0.41000000000000003
v 0.53 0.41000000000000003 0.88
v 0.41000000000000003 0.45 0.56
v 0.33 0.58 0.88
v 0.24 0.59 0.65
v 0.05 0.58 0.46
v -0.01 0.65 0.79
v -0.17 0.62 0.71
v -0.31 0.61 0.88
v -0.36 0.47000000000000003 0.49
v -0.53 0.45 0.88
v -0.54 0.33 0.51
v -0.63 0.16 0.8200000000000001
v -0.6 0.08 0.46
v -0.66 -0.04 0.71
v -0.6 -0.16 0.53
v -0.55 -0.2 0.43
v -0.56 -0.42 0.88
v -0.41000000000000003 -0.48 0.53
v -0.31 -0.56 0.71
v -0.15 -0.58 0.6
v -0.05 -0.6 0.54
v 0.02 -0.64 0.66

usemtl rsc_d8d828
f 7 8 41 40
f 21 22 55 54
f 8 9 42 41
f 22 23 56 55
f 9 10 43 42
f 23 24 57 56
f 10 11 44 43
f 24 25 58 57
f 11 12 45 44
f 25 26 59 58
f 12 13 46 45
f 26 27 60 59
f 13 14 47 46
f 27 28 61 60
f 14 15 48 47
f 1 2 35 34
f 28 29 62 61
f 15 16 49 48
f 2 3 36 35
f 29 30 63 62
f 16 17 50 49
f 3 4 37 36
f 30 31 64 63
f 17 18 51 50
f 4 5 38 37
f 31 32 65 64
f 18 19 52 51
f 5 6 39 38
f 32 1 34 65
f 19 20 53 52
f 6 7 40 39
f 20 21 54 53
