# OGRS RSC model extracted from .ob3
# vertices: 809  faces: 498
mtllib tomatoplant.mtl

o tomatoplant
v -0.13 0.09 0.33
v -0.1 0.06 0.31
v -0.09 0.06 0.3
v -0.1 0.04 0.29
v -0.09 0.04 0.28
v -0.07 0.06 0.29
v -0.06 0.06 0.29
v -0.03 0.08 0.28
v -0.06 0.1 0.3
v -0.05 0.11 0.3
v -0.06 0.14 0.31
v -0.08 0.16 0.33
v -0.1 0.13 0.33
v -0.11 0.11 0.33
v -0.1 0.1 0.32
v -0.03 0.1 0.13
v -0.03 0.07 0.12
v -0.02 0.06 0.12
v -0.03 0.06 0.12
v -0.02 0.05 0.12
v -0.01 0.06 0.12
v 0.0 0.06 0.12
v 0.02 0.06 0.12
v 0.01 0.07 0.12
v 0.03 0.08 0.11
v 0.03 0.1 0.12
v 0.02 0.12 0.11
v 0.0 0.12 0.12
v -0.02 0.11 0.12
v -0.01 0.1 0.13
v -0.2 0.04 0.35000000000000003
v -0.17 0.05 0.34
v -0.16 0.05 0.34
v -0.15 0.05 0.33
v -0.14 0.05 0.32
v -0.15 0.06 0.34
v -0.15 0.07 0.34
v -0.15 0.1 0.33
v -0.17 0.09 0.34
v -0.18 0.1 0.34
v -0.2 0.1 0.34
v -0.22 0.1 0.34
v -0.22 0.07 0.35000000000000003
v -0.21 0.06 0.35000000000000003
v -0.19 0.07 0.35000000000000003
v -0.1 0.03 0.28
v -0.06 0.02 0.28
v -0.05 0.01 0.27
v -0.04 0.02 0.27
v -0.03 0.02 0.27
v -0.04 0.0 0.27
v -0.04 -0.02 0.27
v -0.04 -0.05 0.26
v -0.07 -0.05 0.26
v -0.07 -0.07 0.25
v -0.11 -0.07 0.26
v -0.14 -0.05 0.26
v -0.13 -0.02 0.27
v -0.11 0.0 0.27
v -0.1 0.01 0.27
v -0.08 0.07 0.14
v -0.05 0.08 0.14
v -0.04 0.08 0.14
v -0.04 0.07 0.13
v -0.04 0.08 0.13
v -0.04 0.09 0.14
v -0.03 0.1 0.15
v -0.03 0.12 0.15
v -0.05 0.12 0.15
v -0.05 0.13 0.15
v -0.07 0.13 0.15
v -0.09 0.13 0.15
v -0.09 0.11 0.15
v -0.09 0.09 0.14
v -0.07 0.09 0.15
v -0.03 -0.07 0.38
v -0.03 -0.04 0.38
v -0.03 -0.03 0.38
v -0.02 -0.02 0.39
v -0.03 -0.01 0.39
v -0.04 -0.02 0.39
v -0.05 -0.01 0.39
v -0.08 0.0 0.39
v -0.07 -0.02 0.39
v -0.09 -0.03 0.39
v -0.1 -0.05 0.4
v -0.1 -0.07 0.39
v -0.07 -0.08 0.39
v -0.06 -0.07 0.39
v -0.05 -0.06 0.39
v -0.07 -0.08 0.44
v -0.07 -0.06 0.45
v -0.08 -0.06 0.45
v -0.07 -0.05 0.43
v -0.08 -0.05 0.44
v -0.09 -0.05 0.45
v -0.1 -0.05 0.45
v -0.12 -0.05 0.45
v -0.11 -0.07 0.45
v -0.12 -0.07 0.45
v -0.12 -0.09 0.46
v -0.11 -0.11 0.45
v -0.09 -0.1 0.45
v -0.08 -0.09 0.45
v -0.08 -0.08 0.45
v 0.07 -0.11 0.42
v 0.05 -0.09 0.42
v 0.04 -0.09 0.42
v 0.04 -0.08 0.42
v 0.03 -0.08 0.42
v 0.03 -0.09 0.43
v 0.02 -0.1 0.43
v 0.0 -0.11 0.43
v 0.02 -0.12 0.43
v 0.02 -0.14 0.43
v 0.03 -0.15 0.44
v 0.05 -0.16 0.43
v 0.06 -0.14 0.43
v 0.07 -0.13 0.43
v 0.06 -0.12 0.43
v 0.06 0.01 0.44
v 0.04 -0.02 0.43
v 0.04 -0.04 0.43
v 0.02 -0.04 0.42
v 0.02 -0.05 0.42
v 0.04 -0.06 0.43
v 0.05 -0.07 0.43
v 0.07 -0.09 0.43
v 0.08 -0.06 0.44
v 0.1 -0.07 0.44
v 0.12 -0.05 0.45
v 0.14 -0.02 0.45
v 0.11 0.0 0.45
v 0.09 0.0 0.44
v 0.08 -0.01 0.44
v 0.02 0.03 0.27
v 0.03 0.02 0.26
v 0.04 0.01 0.26
v 0.03 0.0 0.26
v 0.04 0.0 0.25
v 0.05 0.01 0.26
v 0.05 0.01 0.26
v 0.07 0.02 0.26
v 0.06 0.03 0.26
v 0.07 0.03 0.27
v 0.07 0.05 0.27
v 0.06 0.06 0.27
v 0.04 0.05 0.27
v 0.03 0.05 0.27
v 0.04 0.04 0.27
v 0.11 0.01 0.16
v 0.09 0.0 0.16
v 0.08 -0.01 0.16
v 0.07 -0.01 0.15
v 0.07 -0.01 0.16
v 0.08 -0.02 0.17
v 0.08 -0.03 0.17
v 0.08 -0.05 0.17
v 0.09 -0.04 0.17
v 0.1 -0.05 0.17
v 0.12 -0.05 0.17
v 0.14 -0.04 0.17
v 0.13 -0.02 0.17
v 0.12 -0.01 0.17
v 0.11 -0.01 0.17
v 0.09 -0.04 0.26
v 0.07 -0.02 0.26
v 0.07 -0.02 0.26
v 0.07 -0.01 0.26
v 0.06 -0.01 0.26
v 0.06 -0.01 0.26
v 0.05 -0.02 0.26
v 0.03 -0.02 0.26
v 0.05 -0.03 0.26
v 0.04 -0.04 0.26
v 0.04 -0.05 0.26
v 0.05 -0.07 0.26
v 0.07 -0.06 0.26
v 0.08 -0.05 0.26
v 0.07 -0.04 0.26
v -0.01 0.1 0.21
v 0.0 0.06 0.21
v 0.01 0.04 0.21
v 0.0 0.02 0.2
v 0.01 0.01 0.21
v 0.03 0.03 0.22
v 0.04 0.03 0.22
v 0.08 0.03 0.24
v 0.06 0.06 0.23
v 0.08 0.06 0.24
v 0.08 0.11 0.24
v 0.08 0.14 0.24
v 0.04 0.13 0.23
v 0.02 0.12 0.22
v 0.02 0.09 0.22
v 0.02 0.07 0.37
v 0.0 0.04 0.36
v -0.01 0.03 0.35000000000000003
v 0.0 0.02 0.34
v 0.0 0.01 0.33
v -0.03 0.02 0.35000000000000003
v -0.04 0.03 0.35000000000000003
v -0.08 0.04 0.35000000000000003
v -0.06 0.06 0.36
v -0.08 0.07 0.37
v -0.07 0.09 0.39
v -0.05 0.12 0.4
v -0.02 0.1 0.4
v 0.0 0.08 0.38
v 0.0 0.07 0.37
v 0.08 0.06 0.36
v 0.05 0.02 0.36
v 0.03 0.01 0.36
v 0.02 0.01 0.35000000000000003
v 0.01 0.0 0.35000000000000003
v 0.03 -0.01 0.36
v 0.03 -0.03 0.37
v 0.05 -0.07 0.38
v 0.07 -0.04 0.38
v 0.09 -0.06 0.38
v 0.12 -0.04 0.39
v 0.15 -0.02 0.39
v 0.13 0.01 0.38
v 0.11 0.03 0.37
v 0.09 0.02 0.38
v 0.01 0.02 0.48
v 0.01 0.04 0.49
v 0.01 0.04 0.48
v 0.01 0.03 0.47000000000000003
v 0.01 0.03 0.47000000000000003
v 0.01 0.04 0.48
v 0.01 0.04 0.48
v 0.01 0.03 0.47000000000000003
v 0.01 0.02 0.48
v 0.01 0.02 0.48
v 0.01 0.03 0.49
v 0.01 0.03 0.49
v 0.0 0.02 0.48
v 0.01 0.04 0.49
v 0.01 0.03 0.49
v 0.01 0.02 0.48
v 0.01 -0.01 0.0
v -0.01 -0.01 0.0
v -0.01 0.0 0.17
v 0.01 0.0 0.17
v 0.01 0.0 0.16
v 0.01 0.01 0.0
v 0.01 -0.01 0.0
v 0.01 0.0 0.15
v 0.01 0.01 0.15
v 0.01 0.01 0.15
v 0.01 0.01 0.0
v 0.01 0.03 0.17
v -0.01 0.03 0.17
v -0.01 0.03 0.12
v 0.0 0.03 0.11
v 0.0 0.03 0.11
v -0.01 0.03 0.11
v -0.01 0.01 0.0
v -0.01 0.01 0.0
v -0.01 0.03 0.17
v -0.01 0.01 0.17
v -0.01 -0.01 0.0
v 0.01 0.0 0.15
v -0.01 0.02 0.11
v -0.01 0.02 0.11
v 0.01 0.03 0.17
v -0.01 0.0 0.34
v 0.0 0.0 0.34
v 0.01 0.01 0.17
v 0.01 0.0 0.34
v 0.01 0.01 0.26
v 0.01 0.01 0.25
v 0.01 0.01 0.25
v 0.01 0.01 0.25
v 0.01 0.02 0.25
v 0.01 0.02 0.26
v 0.01 0.03 0.19
v 0.01 0.03 0.2
v 0.01 0.03 0.2
v 0.01 0.03 0.2
v 0.01 0.02 0.34
v -0.01 0.02 0.26
v -0.01 0.02 0.26
v -0.01 0.02 0.26
v -0.01 0.01 0.26
v -0.01 0.01 0.26
v -0.01 0.01 0.35000000000000003
v -0.01 0.02 0.26
v 0.02 0.01 0.34
v 0.01 0.03 0.2
v 0.01 0.03 0.19
v -0.01 0.0 0.37
v 0.0 0.0 0.38
v 0.0 0.0 0.38
v 0.0 0.01 0.38
v 0.0 0.02 0.41000000000000003
v 0.01 0.01 0.41000000000000003
v 0.01 0.0 0.41000000000000003
v 0.01 0.0 0.4
v 0.02 0.01 0.4
v 0.02 0.01 0.4
v 0.01 0.03 0.41000000000000003
v 0.01 0.03 0.41000000000000003
v 0.01 0.02 0.35000000000000003
v 0.0 0.02 0.35000000000000003
v 0.0 0.03 0.41000000000000003
v 0.0 0.02 0.41000000000000003
v -0.01 0.01 0.38
v -0.01 0.01 0.37
v 0.01 0.0 0.4
v 0.01 0.02 0.41000000000000003
v 0.01 0.01 0.16
v 0.06 0.0 0.15
v 0.06 -0.01 0.16
v 0.06 -0.01 0.15
v 0.06 -0.01 0.15
v 0.01 0.01 0.42
v 0.01 0.02 0.41000000000000003
v 0.02 0.01 0.41000000000000003
v 0.01 0.01 0.42
v 0.01 0.0 0.41000000000000003
v 0.01 0.0 0.16
v 0.01 0.0 0.16
v 0.06 -0.01 0.16
v 0.06 -0.01 0.16
v 0.0 0.02 0.47000000000000003
v 0.01 0.02 0.47000000000000003
v 0.01 0.02 0.47000000000000003
v 0.01 0.02 0.47000000000000003
v 0.01 0.02 0.47000000000000003
v 0.01 0.03 0.47000000000000003
v 0.01 0.02 0.47000000000000003
v 0.0 0.02 0.47000000000000003
v 0.06 -0.01 0.15
v -0.01 0.02 0.27
v -0.01 0.02 0.27
v -0.01 0.01 0.26
v -0.01 0.01 0.27
v -0.06 0.03 0.27
v -0.06 0.04 0.27
v -0.06 0.03 0.27
v -0.06 0.03 0.27
v -0.06 0.03 0.27
v -0.06 0.03 0.26
v -0.06 0.04 0.26
v -0.06 0.03 0.28
v -0.11 0.05 0.29
v -0.11 0.05 0.3
v -0.15 0.06 0.33
v -0.15 0.05 0.32
v -0.11 0.05 0.3
v -0.12 0.04 0.3
v -0.15 0.05 0.34
v -0.15 0.05 0.33
v -0.12 0.04 0.3
v -0.15 0.05 0.33
v -0.12 0.04 0.29
v -0.15 0.05 0.32
v -0.12 0.04 0.29
v -0.15 0.05 0.33
v -0.12 0.04 0.29
v -0.15 0.05 0.33
v -0.19 0.06 0.34
v -0.19 0.06 0.33
v -0.21 0.06 0.36
v -0.21 0.06 0.36
v -0.19 0.06 0.33
v -0.21 0.06 0.36
v -0.19 0.06 0.33
v -0.19 0.06 0.34
v -0.21 0.07 0.36
v -0.21 0.07 0.36
v -0.19 0.06 0.34
v -0.19 0.06 0.34
v -0.21 0.06 0.36
v -0.21 0.07 0.36
v -0.19 0.06 0.33
v -0.21 0.07 0.36
v 0.02 -0.04 0.42
v 0.02 -0.03 0.42
v 0.02 -0.03 0.43
v 0.02 -0.04 0.43
v 0.02 -0.03 0.42
v 0.01 -0.04 0.43
v 0.01 -0.04 0.42
v 0.01 -0.04 0.42
v 0.02 -0.04 0.43
v 0.03 -0.08 0.42
v 0.02 -0.08 0.42
v 0.03 -0.08 0.41000000000000003
v 0.03 -0.07 0.41000000000000003
v 0.03 -0.07 0.42
v 0.03 -0.08 0.42
v 0.03 -0.07 0.41000000000000003
v 0.02 -0.08 0.41000000000000003
v 0.02 -0.08 0.41000000000000003
v 0.06 -0.09 0.45
v 0.06 -0.09 0.45
v 0.06 -0.09 0.45
v 0.06 -0.09 0.45
v 0.06 -0.09 0.45
v 0.06 -0.09 0.45
v 0.06 -0.09 0.45
v 0.06 -0.09 0.45
v 0.06 -0.09 0.45
v 0.06 -0.01 0.15
v 0.08 -0.02 0.16
v 0.08 -0.02 0.16
v 0.08 -0.02 0.16
v 0.08 -0.02 0.16
v 0.08 -0.02 0.16
v 0.08 -0.02 0.17
v 0.08 -0.02 0.17
v 0.08 -0.02 0.17
v 0.1 -0.02 0.17
v 0.1 -0.02 0.17
v 0.1 -0.02 0.17
v 0.1 -0.02 0.17
v 0.1 -0.02 0.17
v 0.1 -0.03 0.17
v 0.1 -0.02 0.17
v 0.1 -0.02 0.17
v -0.04 0.07 0.12
v -0.04 0.07 0.12
v -0.03 0.07 0.13
v -0.03 0.07 0.12
v -0.04 0.07 0.13
v -0.04 0.07 0.13
v -0.05 0.1 0.14
v -0.05 0.1 0.14
v -0.06 0.1 0.14
v -0.06 0.1 0.14
v -0.06 0.1 0.14
v -0.06 0.1 0.14
v 0.03 0.06 0.19
v 0.03 0.05 0.19
v 0.04 0.07 0.2
v 0.04 0.07 0.2
v 0.03 0.06 0.2
v 0.02 0.06 0.19
v 0.04 0.07 0.2
v 0.04 0.07 0.2
v 0.02 0.06 0.19
v 0.04 0.07 0.2
v 0.03 0.05 0.19
v 0.04 0.07 0.2
v 0.05 0.1 0.21
v 0.05 0.1 0.21
v 0.05 0.11 0.22
v 0.05 0.11 0.22
v 0.05 0.1 0.21
v 0.05 0.1 0.21
v 0.05 0.11 0.22
v 0.05 0.11 0.22
v 0.05 0.1 0.21
v 0.05 0.11 0.22
v 0.05 0.1 0.21
v 0.05 0.11 0.22
v -0.04 -0.03 0.4
v -0.04 -0.03 0.4
v -0.04 -0.03 0.4
v -0.04 -0.03 0.41000000000000003
v -0.04 -0.03 0.4
v -0.04 -0.03 0.4
v -0.09 -0.05 0.45
v -0.09 -0.06 0.44
v -0.09 -0.06 0.45
v -0.09 -0.06 0.45
v -0.09 -0.06 0.44
v -0.09 -0.06 0.45
v 0.01 0.01 0.26
v 0.06 0.0 0.26
v 0.06 -0.01 0.26
v 0.01 0.01 0.26
v 0.06 0.0 0.26
v 0.06 0.0 0.26
v 0.06 0.0 0.25
v 0.06 0.0 0.25
v 0.06 -0.01 0.25
v 0.06 0.0 0.26
v 0.08 -0.04 0.25
v 0.08 -0.04 0.25
v 0.08 -0.04 0.25
v 0.08 -0.04 0.25
v 0.08 -0.03 0.25
v 0.08 -0.03 0.25
v 0.08 -0.04 0.25
v 0.08 -0.04 0.25
v -0.06 0.02 0.26
v -0.06 0.03 0.26
v -0.05 0.03 0.26
v -0.06 0.02 0.26
v -0.04 0.02 0.25
v -0.04 0.02 0.26
v -0.04 0.03 0.26
v -0.04 0.03 0.25
v -0.05 0.02 0.26
v -0.05 0.03 0.26
v -0.04 0.02 0.24
v -0.04 0.02 0.24
v -0.04 0.03 0.24
v -0.04 0.03 0.23
v -0.07 0.03 0.23
v -0.07 0.03 0.24
v -0.07 0.02 0.24
v -0.07 0.02 0.23
v -0.06 0.03 0.23
v -0.06 0.02 0.23
v -0.06 0.02 0.23
v -0.05 0.03 0.22
v -0.07 0.03 0.25
v -0.07 0.03 0.26
v -0.07 0.02 0.25
v -0.07 0.02 0.25
v -0.05 0.03 0.23
v -0.05 0.02 0.23
v -0.04 0.02 0.23
v -0.04 0.03 0.23
v -0.07 0.03 0.23
v -0.07 0.02 0.23
v -0.05 0.01 0.24
v -0.05 0.01 0.24
v -0.05 0.01 0.25
v -0.05 0.01 0.25
v -0.06 0.01 0.25
v -0.06 0.01 0.25
v -0.06 0.01 0.25
v -0.06 0.01 0.25
v -0.06 0.01 0.24
v -0.06 0.01 0.24
v -0.06 0.01 0.24
v -0.06 0.01 0.24
v -0.05 0.01 0.24
v -0.05 0.01 0.24
v -0.05 0.01 0.25
v -0.06 0.01 0.24
v -0.06 0.04 0.26
v -0.05 0.04 0.26
v -0.04 0.04 0.25
v -0.04 0.04 0.26
v -0.05 0.04 0.26
v -0.04 0.04 0.24
v -0.04 0.04 0.24
v -0.07 0.04 0.23
v -0.07 0.04 0.24
v -0.05 0.04 0.23
v -0.06 0.04 0.23
v -0.07 0.04 0.25
v -0.07 0.04 0.25
v -0.04 0.04 0.23
v -0.05 0.04 0.23
v -0.07 0.04 0.23
v -0.05 0.05 0.24
v -0.05 0.05 0.24
v -0.05 0.05 0.25
v -0.05 0.05 0.25
v -0.06 0.05 0.25
v -0.06 0.05 0.25
v -0.06 0.05 0.25
v -0.05 0.05 0.25
v -0.05 0.05 0.24
v -0.06 0.05 0.24
v -0.06 0.05 0.24
v -0.06 0.05 0.24
v -0.05 0.05 0.24
v -0.05 0.05 0.24
v -0.05 0.05 0.25
v -0.06 0.05 0.24
v 0.04 -0.01 0.15
v 0.05 0.0 0.15
v 0.05 -0.01 0.15
v 0.04 -0.01 0.15
v 0.04 -0.02 0.14
v 0.04 -0.02 0.14
v 0.05 -0.02 0.14
v 0.05 -0.02 0.14
v 0.04 -0.02 0.15
v 0.05 -0.02 0.15
v 0.04 -0.02 0.13
v 0.04 -0.02 0.13
v 0.05 -0.03 0.13
v 0.05 -0.02 0.13
v 0.05 0.0 0.13
v 0.05 0.0 0.13
v 0.04 0.0 0.13
v 0.04 0.0 0.13
v 0.05 0.0 0.12
v 0.04 -0.01 0.12
v 0.04 -0.01 0.12
v 0.05 -0.01 0.12
v 0.05 0.0 0.14
v 0.05 0.0 0.14
v 0.04 0.0 0.14
v 0.04 0.0 0.14
v 0.05 -0.02 0.12
v 0.04 -0.02 0.12
v 0.04 -0.02 0.12
v 0.05 -0.02 0.12
v 0.05 0.0 0.12
v 0.04 0.0 0.12
v 0.04 -0.02 0.13
v 0.04 -0.02 0.13
v 0.04 -0.02 0.14
v 0.04 -0.01 0.14
v 0.04 -0.01 0.14
v 0.04 -0.01 0.14
v 0.04 -0.01 0.14
v 0.04 -0.01 0.14
v 0.04 -0.01 0.13
v 0.04 -0.01 0.13
v 0.04 -0.01 0.13
v 0.04 -0.01 0.13
v 0.04 -0.01 0.13
v 0.04 -0.02 0.13
v 0.04 -0.01 0.14
v 0.04 -0.01 0.13
v 0.06 -0.01 0.15
v 0.06 -0.01 0.15
v 0.06 -0.02 0.14
v 0.06 -0.02 0.14
v 0.06 -0.02 0.15
v 0.06 -0.02 0.13
v 0.06 -0.02 0.13
v 0.06 0.0 0.13
v 0.06 0.0 0.13
v 0.06 -0.01 0.12
v 0.06 -0.01 0.12
v 0.06 0.0 0.14
v 0.06 0.0 0.14
v 0.06 -0.02 0.12
v 0.06 -0.02 0.12
v 0.06 0.0 0.12
v 0.07 -0.02 0.13
v 0.07 -0.02 0.13
v 0.07 -0.01 0.14
v 0.07 -0.02 0.14
v 0.07 -0.01 0.14
v 0.07 -0.01 0.14
v 0.07 -0.01 0.14
v 0.07 -0.01 0.14
v 0.07 -0.01 0.13
v 0.07 -0.01 0.13
v 0.07 -0.01 0.13
v 0.07 -0.01 0.13
v 0.07 -0.02 0.13
v 0.07 -0.01 0.13
v 0.07 -0.01 0.14
v 0.07 -0.01 0.13
v 0.0 -0.03 0.41000000000000003
v 0.01 -0.04 0.41000000000000003
v 0.01 -0.05 0.41000000000000003
v 0.0 -0.04 0.41000000000000003
v -0.01 -0.05 0.4
v -0.01 -0.05 0.41000000000000003
v 0.0 -0.06 0.41000000000000003
v 0.0 -0.06 0.4
v -0.01 -0.05 0.41000000000000003
v 0.0 -0.05 0.41000000000000003
v -0.01 -0.05 0.39
v -0.01 -0.05 0.4
v 0.0 -0.06 0.4
v 0.0 -0.06 0.39
v 0.01 -0.03 0.39
v 0.01 -0.03 0.4
v 0.0 -0.03 0.4
v 0.0 -0.03 0.39
v 0.01 -0.04 0.38
v 0.0 -0.03 0.38
v 0.0 -0.04 0.38
v 0.01 -0.05 0.38
v 0.01 -0.03 0.4
v 0.01 -0.03 0.41000000000000003
v 0.0 -0.03 0.41000000000000003
v 0.0 -0.03 0.4
v 0.0 -0.05 0.38
v -0.01 -0.05 0.38
v -0.01 -0.05 0.38
v 0.0 -0.06 0.38
v 0.01 -0.03 0.38
v 0.0 -0.03 0.38
v -0.01 -0.04 0.39
v -0.01 -0.04 0.39
v -0.01 -0.04 0.4
v -0.01 -0.04 0.4
v -0.01 -0.03 0.4
v -0.01 -0.03 0.4
v -0.01 -0.04 0.4
v -0.01 -0.03 0.4
v -0.01 -0.03 0.39
v -0.01 -0.04 0.39
v -0.01 -0.03 0.39
v -0.01 -0.03 0.39
v -0.01 -0.04 0.39
v -0.01 -0.04 0.39
v -0.01 -0.04 0.4
v -0.01 -0.03 0.39
v 0.02 -0.04 0.41000000000000003
v 0.02 -0.05 0.41000000000000003
v 0.01 -0.06 0.4
v 0.01 -0.06 0.41000000000000003
v 0.01 -0.06 0.41000000000000003
v 0.01 -0.06 0.39
v 0.01 -0.07 0.4
v 0.02 -0.04 0.39
v 0.02 -0.04 0.4
v 0.02 -0.05 0.38
v 0.02 -0.04 0.38
v 0.02 -0.04 0.4
v 0.02 -0.04 0.41000000000000003
v 0.01 -0.06 0.38
v 0.01 -0.06 0.38
v 0.02 -0.04 0.38
v 0.02 -0.06 0.39
v 0.02 -0.06 0.39
v 0.02 -0.06 0.4
v 0.02 -0.06 0.4
v 0.02 -0.05 0.4
v 0.02 -0.05 0.4
v 0.02 -0.05 0.4
v 0.02 -0.05 0.4
v 0.02 -0.05 0.39
v 0.02 -0.05 0.39
v 0.02 -0.05 0.39
v 0.02 -0.05 0.39
v 0.02 -0.06 0.39
v 0.02 -0.06 0.39
v 0.02 -0.06 0.4
v 0.02 -0.05 0.39
v -0.14 0.05 0.3
v -0.13 0.05 0.3
v -0.13 0.05 0.3
v -0.13 0.05 0.3
v -0.13 0.04 0.29
v -0.13 0.04 0.3
v -0.12 0.04 0.3
v -0.12 0.04 0.29
v -0.13 0.04 0.3
v -0.12 0.04 0.3
v -0.13 0.04 0.28
v -0.13 0.04 0.29
v -0.12 0.03 0.29
v -0.12 0.04 0.28
v -0.13 0.06 0.28
v -0.13 0.06 0.29
v -0.14 0.06 0.29
v -0.14 0.06 0.28
v -0.13 0.05 0.28
v -0.14 0.05 0.28
v -0.13 0.05 0.28
v -0.13 0.05 0.27
v -0.13 0.06 0.29
v -0.13 0.06 0.29
v -0.14 0.06 0.29
v -0.14 0.06 0.29
v -0.12 0.04 0.28
v -0.13 0.04 0.28
v -0.13 0.04 0.28
v -0.12 0.04 0.28
v -0.13 0.06 0.28
v -0.14 0.06 0.28
v -0.14 0.04 0.28
v -0.14 0.04 0.29
v -0.14 0.04 0.29
v -0.14 0.04 0.29
v -0.14 0.05 0.29
v -0.14 0.05 0.29
v -0.14 0.05 0.29
v -0.14 0.05 0.29
v -0.14 0.05 0.28
v -0.14 0.05 0.28
v -0.14 0.05 0.29
v -0.14 0.05 0.28
v -0.14 0.05 0.28
v -0.14 0.04 0.28
v -0.14 0.05 0.29
v -0.14 0.05 0.28
v -0.12 0.05 0.3
v -0.12 0.05 0.3
v -0.11 0.04 0.29
v -0.12 0.04 0.3
v -0.12 0.04 0.3
v -0.11 0.04 0.28
v -0.11 0.04 0.29
v -0.12 0.06 0.28
v -0.12 0.06 0.29
v -0.12 0.05 0.28
v -0.12 0.05 0.28
v -0.12 0.06 0.29
v -0.12 0.06 0.29
v -0.12 0.04 0.28
v -0.12 0.04 0.28
v -0.12 0.06 0.28
v -0.11 0.05 0.29
v -0.11 0.05 0.28
v -0.11 0.05 0.29
v -0.11 0.05 0.29
v -0.11 0.05 0.29
v -0.11 0.05 0.29
v -0.11 0.05 0.29
v -0.11 0.05 0.29
v -0.11 0.05 0.28
v -0.11 0.05 0.28
v -0.11 0.06 0.29
v -0.11 0.05 0.28
v -0.11 0.05 0.28
v -0.11 0.05 0.28
v -0.11 0.05 0.29
v -0.11 0.05 0.28

usemtl rsc_507030
f 1 2 3 4 5 6 7 8 9 10 11 12 13 14 15
f 16 17 18 19 20 21 22 23 24 25 26 27 28 29 30
f 31 32 33 34 35 36 37 38 39 40 41 42 43 44 45
f 46 47 48 49 50 51 52 53 54 55 56 57 58 59 60
f 61 62 63 64 65 66 67 68 69 70 71 72 73 74 75
f 76 77 78 79 80 81 82 83 84 85 86 87 88 89 90
f 91 92 93 94 95 96 97 98 99 100 101 102 103 104 105
f 106 107 108 109 110 111 112 113 114 115 116 117 118 119 120
f 121 122 123 124 125 126 127 128 129 130 131 132 133 134 135
f 136 137 138 139 140 141 142 143 144 145 146 147 148 149 150
f 151 152 153 154 155 156 157 158 159 160 161 162 163 164 165
f 166 167 168 169 170 171 172 173 174 175 176 177 178 179 180
f 181 182 183 184 185 186 187 188 189 190 191 192 193 194 195
f 196 197 198 199 200 201 202 203 204 205 206 207 208 209 210
f 211 212 213 214 215 216 217 218 219 220 221 222 223 224 225
f 226 227 228 229
f 230 231 232 233
f 234 235 236 237
f 238 239 240 241
f 233 232 239 238
f 229 228 231 230
f 226 234 237 227
f 235 241 240 236
f 242 243 244 245 246
f 247 248 249 250 251
f 252 253 254 255 256 257 258 259
f 260 261 262 263
f 263 262 244 243
f 248 242 246 264 249
f 259 258 265 266 255 254 261 260
f 247 251 267 253 252
f 245 244 268 269
f 267 270 271 272 273 274 275 276 277
f 253 278 279 280 281 282 283 284 254
f 261 285 286 287 262
f 262 287 288 268 244
f 270 245 269 271
f 254 284 289 285 261
f 267 277 290 282 281 291 292 278 253
f 269 268 293 294 295 296 297 298 299
f 290 271 300 301 302
f 282 303 304 305
f 306 307 308 288
f 288 308 297 296 309 310 293 268
f 271 269 299 311 300
f 305 304 307 306
f 290 302 312 303 282
f 313 251 314 315
f 264 246 316 317
f 318 319 312 302 320 321
f 322 299 298 319 318
f 323 324 325 326
f 227 237 236 240 239 232 231 228
f 298 297 327 328
f 312 319 329 330
f 303 331 332 304
f 307 333 334 308
f 308 334 327 297
f 319 298 328 329
f 304 332 333 307
f 312 330 331 303
f 328 327 241 235
f 330 329 234 226
f 331 229 230 332
f 333 233 238 334
f 334 238 241 327
f 329 328 235 234
f 332 230 233 333
f 330 226 229 331
f 323 246 245 270 324
f 249 264 317 335
f 251 313 324 270 267
f 336 284 305 306 337
f 284 283 282 305
f 287 286 285
f 338 339 337 306 288 287
f 284 336 340 341
f 339 338 342 343
f 338 287 344 342
f 287 285 345 344
f 289 284 341 346
f 336 337 347 340
f 337 339 343 347
f 285 289 346 345
f 348 349 350 351
f 352 353 354 355
f 353 356 357 354
f 358 348 351 359
f 349 352 355 350
f 360 358 359 361
f 356 362 363 357
f 362 360 361 363
f 364 365 366 367
f 365 368 369 366
f 370 371 372 373
f 374 375 376 377
f 375 364 367 376
f 378 370 373 379
f 371 374 377 372
f 368 378 379 369
f 301 300 380 381
f 321 320 382 383
f 302 301 381 384
f 299 322 385 386
f 300 311 387 380
f 318 321 383 388
f 311 299 386 387
f 320 302 384 382
f 322 318 388 385
f 385 388 389 390
f 381 380 391 392
f 383 382 393 394
f 384 381 392 395
f 386 385 390 396
f 380 387 397 391
f 388 383 394 389
f 387 386 396 397
f 382 384 395 393
f 389 394 398 399
f 397 396 400 401
f 393 395 402 403
f 390 389 399 404
f 392 391 405 406
f 394 393 403 398
f 395 392 406 402
f 396 390 404 400
f 391 397 401 405
f 246 323 326 316
f 324 313 315 325
f 250 249 335 407
f 251 250 407 314
f 407 335 408 409
f 314 407 409 410
f 317 316 411 412
f 335 317 412 408
f 316 326 413 411
f 315 314 410 414
f 326 325 415 413
f 325 315 414 415
f 415 414 416 417
f 409 408 418 419
f 410 409 419 420
f 412 411 421 422
f 411 413 423 421
f 408 412 422 418
f 414 410 420 416
f 413 415 417 423
f 265 258 424 425
f 257 256 426 427
f 266 265 425 428
f 255 266 428 429
f 258 257 427 424
f 256 255 429 426
f 427 426 430 431
f 428 425 432 433
f 429 428 433 434
f 424 427 431 435
f 426 429 434 430
f 425 424 435 432
f 436 437 438 439
f 440 441 442 443
f 444 436 439 445
f 446 440 443 447
f 441 444 445 442
f 437 446 447 438
f 448 449 450 451
f 452 453 454 455
f 456 448 451 457
f 458 456 457 459
f 449 452 455 450
f 453 458 459 454
f 294 293 460 461
f 296 295 462 463
f 310 309 464 465
f 293 310 465 460
f 309 296 463 464
f 295 294 461 462
f 465 464 466 467
f 463 462 468 469
f 460 465 467 470
f 461 460 470 471
f 464 463 469 466
f 462 461 471 468
f 379 373 372 377 376 367 366 369
f 423 417 416 420 419 418 422 421
f 457 451 450 455 454 459
f 442 445 458 453
f 447 443 452 449
f 445 439 456 458
f 439 438 448 456
f 443 442 453 452
f 438 447 449 448
f 292 291 446 437
f 280 279 444 441
f 291 281 440 446
f 279 278 436 444
f 281 280 441 440
f 278 292 437 436
f 342 344 360 362
f 343 342 362 356
f 344 345 358 360
f 341 340 352 349
f 345 346 348 358
f 347 343 356 353
f 340 347 353 352
f 346 341 349 348
f 361 359 378 368
f 350 355 374 371
f 359 351 370 378
f 354 357 364 375
f 355 354 375 374
f 351 350 371 370
f 363 361 368 365
f 357 363 365 364
f 398 403 402 406 405 401 400 404 399
f 433 432 435 431 430 434
f 272 472 473 474
f 475 472 272 271 290 277
f 277 276 476 477
f 275 274 478 479
f 273 272 474 480
f 472 475 481 473
f 475 277 477 481
f 276 275 479 476
f 274 273 480 478
f 478 480 482 483
f 474 473 484 485
f 477 476 486 487
f 479 478 483 488
f 480 474 485 482
f 473 481 489 484
f 481 477 487 489
f 476 479 488 486
f 489 487 486 488 483 482 485 484
usemtl rsc_f80008
f 490 491 492 493
f 494 495 496 497
f 498 499 496 495
f 500 501 502 503
f 504 505 506 507
f 508 509 510 511
f 512 513 514 515
f 516 517 518 519
f 505 512 515 506
f 501 494 497 502
f 520 504 507 521
f 518 500 503 519
f 511 510 517 516
f 493 492 499 498
f 520 521 509 508
f 514 513 491 490
f 501 500 522 523
f 495 494 524 525
f 494 501 523 524
f 515 514 526 527
f 490 493 528 529
f 510 509 530 531
f 514 490 529 526
f 506 515 527 532
f 509 521 533 530
f 518 517 534 535
f 493 498 536 528
f 521 507 537 533
f 517 510 531 534
f 500 518 535 522
f 507 506 532 537
f 498 495 525 536
f 533 537 532 527 526 529 528 536 525 524 523 522 535 534 531 530
f 538 539 492 491
f 540 497 496 541
f 542 541 496 499
f 543 503 502 544
f 504 545 546 505
f 508 511 547 548
f 512 549 550 513
f 516 519 551 552
f 505 546 549 512
f 544 502 497 540
f 520 553 545 504
f 551 519 503 543
f 511 516 552 547
f 539 542 499 492
f 520 508 548 553
f 550 538 491 513
f 544 554 555 543
f 541 556 557 540
f 540 557 554 544
f 549 558 559 550
f 538 560 561 539
f 547 562 563 548
f 550 559 560 538
f 546 564 558 549
f 548 563 565 553
f 551 566 567 552
f 539 561 568 542
f 553 565 569 545
f 552 567 562 547
f 543 555 566 551
f 545 569 564 546
f 542 568 556 541
f 565 563 562 567 566 555 554 557 556 568 561 560 559 558 564 569
f 570 571 572 573
f 574 575 576 577
f 578 579 576 575
f 580 581 582 583
f 584 585 586 587
f 588 589 590 591
f 592 593 594 595
f 596 597 598 599
f 585 592 595 586
f 581 574 577 582
f 600 584 587 601
f 598 580 583 599
f 591 590 597 596
f 573 572 579 578
f 600 601 589 588
f 594 593 571 570
f 581 580 602 603
f 575 574 604 605
f 574 581 603 604
f 595 594 606 607
f 570 573 608 609
f 590 589 610 611
f 594 570 609 606
f 586 595 607 612
f 589 601 613 610
f 598 597 614 615
f 573 578 616 608
f 601 587 617 613
f 597 590 611 614
f 580 598 615 602
f 587 586 612 617
f 578 575 605 616
f 613 617 612 607 606 609 608 616 605 604 603 602 615 614 611 610
f 618 619 572 571
f 620 577 576 621
f 622 621 576 579
f 623 583 582 624
f 584 625 626 585
f 588 591 627 628
f 592 629 630 593
f 596 599 631 632
f 585 626 629 592
f 624 582 577 620
f 600 633 625 584
f 631 599 583 623
f 591 596 632 627
f 619 622 579 572
f 600 588 628 633
f 630 618 571 593
f 624 634 635 623
f 621 636 637 620
f 620 637 634 624
f 629 638 639 630
f 618 640 641 619
f 627 642 643 628
f 630 639 640 618
f 626 644 638 629
f 628 643 645 633
f 631 646 647 632
f 619 641 648 622
f 633 645 649 625
f 632 647 642 627
f 623 635 646 631
f 625 649 644 626
f 622 648 636 621
f 645 643 642 647 646 635 634 637 636 648 641 640 639 638 644 649
f 650 651 652 653
f 654 655 656 657
f 658 659 656 655
f 660 661 662 663
f 664 665 666 667
f 668 669 670 671
f 672 673 674 675
f 676 677 678 679
f 665 672 675 666
f 661 654 657 662
f 680 664 667 681
f 678 660 663 679
f 671 670 677 676
f 653 652 659 658
f 680 681 669 668
f 674 673 651 650
f 661 660 682 683
f 655 654 684 685
f 654 661 683 684
f 675 674 686 687
f 650 653 688 689
f 670 669 690 691
f 674 650 689 686
f 666 675 687 692
f 669 681 693 690
f 678 677 694 695
f 653 658 696 688
f 681 667 697 693
f 677 670 691 694
f 660 678 695 682
f 667 666 692 697
f 658 655 685 696
f 693 697 692 687 686 689 688 696 685 684 683 682 695 694 691 690
f 698 699 652 651
f 700 657 656 701
f 702 701 656 659
f 703 663 662 704
f 664 705 706 665
f 668 671 707 708
f 672 709 710 673
f 676 679 711 712
f 665 706 709 672
f 704 662 657 700
f 680 713 705 664
f 711 679 663 703
f 671 676 712 707
f 699 702 659 652
f 680 668 708 713
f 710 698 651 673
f 704 714 715 703
f 701 716 717 700
f 700 717 714 704
f 709 718 719 710
f 698 720 721 699
f 707 722 723 708
f 710 719 720 698
f 706 724 718 709
f 708 723 725 713
f 711 726 727 712
f 699 721 728 702
f 713 725 729 705
f 712 727 722 707
f 703 715 726 711
f 705 729 724 706
f 702 728 716 701
f 725 723 722 727 726 715 714 717 716 728 721 720 719 718 724 729
f 730 731 732 733
f 734 735 736 737
f 738 739 736 735
f 740 741 742 743
f 744 745 746 747
f 748 749 750 751
f 752 753 754 755
f 756 757 758 759
f 745 752 755 746
f 741 734 737 742
f 760 744 747 761
f 758 740 743 759
f 751 750 757 756
f 733 732 739 738
f 760 761 749 748
f 754 753 731 730
f 741 740 762 763
f 735 734 764 765
f 734 741 763 764
f 755 754 766 767
f 730 733 768 769
f 750 749 770 771
f 754 730 769 766
f 746 755 767 772
f 749 761 773 770
f 758 757 774 775
f 733 738 776 768
f 761 747 777 773
f 757 750 771 774
f 740 758 775 762
f 747 746 772 777
f 738 735 765 776
f 773 777 772 767 766 769 768 776 765 764 763 762 775 774 771 770
f 778 779 732 731
f 780 737 736 781
f 782 781 736 739
f 783 743 742 784
f 744 785 786 745
f 748 751 787 788
f 752 789 790 753
f 756 759 791 792
f 745 786 789 752
f 784 742 737 780
f 760 793 785 744
f 791 759 743 783
f 751 756 792 787
f 779 782 739 732
f 760 748 788 793
f 790 778 731 753
f 784 794 795 783
f 781 796 797 780
f 780 797 794 784
f 789 798 799 790
f 778 800 801 779
f 787 802 803 788
f 790 799 800 778
f 786 804 798 789
f 788 803 805 793
f 791 806 807 792
f 779 801 808 782
f 793 805 809 785
f 792 807 802 787
f 783 795 806 791
f 785 809 804 786
f 782 808 796 781
f 805 803 802 807 806 795 794 797 796 808 801 800 799 798 804 809
