# OGRS RSC model extracted from .ob3
# vertices: 35  faces: 23
mtllib treestump.mtl

o treestump
v -0.25 0.0 0.3
v -0.2 -0.2 0.3
v 0.0 -0.25 0.3
v 0.2 -0.2 0.3
v 0.25 0.0 0.3
v 0.2 0.2 0.3
v 0.0 0.25 0.3
v -0.2 0.2 0.3
v -0.34 0.19 0.0
v -0.23 0.23 0.23
v -0.6 0.6 0.0
v -0.19 0.34 0.0
v -0.3 -0.3 0.0
v 0.0 -0.4 0.0
v 0.0 0.4 0.0
v -0.3 0.3 0.0
v -0.4 0.0 0.0
v 0.3 0.3 0.0
v 0.4 0.0 0.0
v 0.3 -0.3 0.0
v 0.35000000000000003 0.15 0.0
v 0.3 0.0 0.2
v 0.45 0.0 0.25
v 0.5 0.15 0.05
v 0.35000000000000003 -0.15 0.0
v 0.5 -0.15 0.05
v 0.6 0.0 0.15
v 0.6 0.15 0.0
v 0.6 -0.15 0.0
v 0.7000000000000001 0.0 0.05
v 0.9 0.0 0.0
v -0.35000000000000003 -0.35000000000000003 0.05
v -0.35000000000000003 -0.15 0.0
v -0.15 -0.35000000000000003 0.0
v -0.6 -0.6 0.0

usemtl tex_32767
f 1 2 3 4 5 6 7 8
f 9 10 11
f 10 12 11
f 13 14 3 2
f 15 16 8 7
f 17 13 2 1
f 1 8 16 17
f 7 6 18 15
f 19 18 6 5
f 5 4 20 19
f 4 3 14 20
f 21 22 23 24
f 22 25 26 23
f 23 27 28 24
f 26 29 27 23
f 28 27 30
f 30 27 29
f 28 30 31
f 30 29 31
f 32 2 33
f 2 32 34
f 35 34 32
f 35 32 33
