# OGRS RSC model extracted from .ob3
# vertices: 52  faces: 21
mtllib vine.mtl

o vine
v 0.64 0.08 0.0
v 0.64 0.08 0.16
v 0.64 -0.08 0.16
v 0.64 -0.08 0.0
v -0.64 -0.08 0.16
v -0.64 0.08 0.16
v -0.64 0.08 0.0
v -0.64 -0.08 0.0
v -0.56 -0.08 0.16
v -0.6 -0.12 0.16
v -0.6 -0.2 0.16
v -0.52 -0.32 0.16
v -0.44 -0.2 0.16
v -0.44 -0.12 0.16
v -0.48 -0.08 0.16
v -0.4 0.08 0.24
v -0.4 0.08 0.08
v -0.4 -0.08 0.08
v -0.4 -0.08 0.24
v -0.16 -0.16 0.08
v -0.16 -0.16 0.24
v -0.16 0.0 0.24
v -0.16 0.0 0.08
v 0.16 0.16 0.16
v 0.16 0.16 0.0
v 0.16 0.0 0.0
v 0.16 0.0 0.16
v 0.4 0.08 0.16
v 0.4 0.08 0.0
v 0.4 -0.08 0.0
v 0.4 -0.08 0.16
v -0.28 0.04 0.16
v -0.16 0.0 0.16
v -0.12 0.04 0.16
v -0.08 0.16 0.16
v -0.12 0.28 0.16
v -0.24 0.2 0.16
v -0.28 0.12 0.16
v 0.12 -0.02 0.12
v -0.04 -0.1 0.12
v -0.04 -0.18 0.12
v 0.04 -0.26 0.12
v 0.16 -0.3 0.12
v 0.2 -0.18 0.12
v 0.2 -0.06 0.12
v 0.56 0.08 0.16
v 0.6 0.12 0.16
v 0.6 0.2 0.16
v 0.52 0.32 0.16
v 0.44 0.2 0.16
v 0.44 0.12 0.16
v 0.48 0.08 0.16

usemtl tex_32767
f 1 2 3 4
f 5 6 7 8
f 9 10 11 12 13 14 15
f 7 6 16 17
f 18 19 5 8
f 20 21 19 18
f 17 16 22 23
f 23 22 24 25
f 26 27 21 20
f 25 24 28 29
f 30 31 27 26
f 28 2 1 29
f 30 4 3 31
f 3 2 28 31
f 31 28 24 27
f 22 21 27 24
f 19 21 22 16
f 6 5 19 16
f 32 33 34 35 36 37 38
f 39 40 41 42 43 44 45
f 46 47 48 49 50 51 52
