# Blender 4.0.2
# www.blender.org
mtllib 3_growing.mtl
o kwuarm_3_growing
v 0.000000 -0.060000 0.000000
v 0.000000 -0.060000 0.040000
v -0.042426 -0.042426 0.000000
v -0.042426 -0.042426 0.040000
v -0.060000 0.000000 0.000000
v -0.060000 0.000000 0.040000
v -0.042426 0.042426 0.000000
v -0.042426 0.042426 0.040000
v 0.000000 0.060000 0.000000
v 0.000000 0.060000 0.040000
v 0.042426 0.042426 0.000000
v 0.042426 0.042426 0.040000
v 0.060000 0.000000 0.000000
v 0.060000 0.000000 0.040000
v 0.042426 -0.042426 0.000000
v 0.042426 -0.042426 0.040000
v -0.040561 -0.050701 0.014305
v -0.058651 -0.019873 0.058300
v -0.033651 -0.018142 0.057239
v -0.018200 -0.022674 0.060018
v -0.033651 -0.027207 0.062796
v -0.058651 -0.025475 0.061735
v -0.047470 0.027207 0.131204
v -0.022471 0.025475 0.132265
v -0.022471 0.019873 0.135700
v -0.047470 0.018142 0.136761
v -0.062921 0.022674 0.133982
v -0.040561 0.050701 0.179695
v 0.001664 -0.071142 0.017494
v -0.033669 -0.057177 0.059561
v -0.015588 -0.039832 0.058398
v -0.000951 -0.033239 0.061444
v -0.009986 -0.046508 0.064489
v -0.030207 -0.061303 0.063326
v -0.058122 -0.010641 0.129511
v -0.037901 0.004153 0.130674
v -0.034439 0.000027 0.134439
v -0.052520 -0.017317 0.135602
v -0.067157 -0.023911 0.132556
v -0.069773 0.013993 0.176506
v 0.050953 -0.057916 0.020969
v 0.012484 -0.069502 0.060958
v 0.015257 -0.044606 0.059696
v 0.022044 -0.030113 0.062998
v 0.023465 -0.046053 0.066299
v 0.017556 -0.070397 0.065038
v -0.040201 -0.048860 0.127701
v -0.034292 -0.024516 0.128962
v -0.029219 -0.025411 0.133042
v -0.031993 -0.050307 0.134304
v -0.038780 -0.064800 0.131002
v -0.067688 -0.036997 0.173031
v 0.064188 -0.009776 0.014305
v 0.046536 -0.040856 0.058300
v 0.032537 -0.020072 0.057239
v 0.028736 -0.004425 0.060018
v 0.040387 -0.015539 0.062796
v 0.051388 -0.038055 0.061735
v 0.000174 -0.054714 0.131204
v -0.010827 -0.032198 0.132265
v -0.005975 -0.029397 0.135700
v 0.008024 -0.050181 0.136761
v 0.011824 -0.065828 0.133982
v -0.023628 -0.060477 0.179695
v 0.060779 0.037013 0.017494
v 0.066351 -0.000570 0.059561
v 0.042290 0.006416 0.058398
v 0.029261 0.015796 0.061444
v 0.045271 0.014606 0.064489
v 0.068193 0.004491 0.063326
v 0.038277 -0.045015 0.129511
v 0.015354 -0.034900 0.130674
v 0.017196 -0.029839 0.134439
v 0.041257 -0.036825 0.135602
v 0.054286 -0.046204 0.132556
v 0.022768 -0.067421 0.176506
v 0.024681 0.073084 0.020969
v 0.053949 0.045562 0.060958
v 0.031001 0.035516 0.059696
v 0.015057 0.034147 0.062998
v 0.028151 0.043348 0.066299
v 0.052187 0.050402 0.065038
v 0.062414 -0.010385 0.127701
v 0.038378 -0.017440 0.128962
v 0.036616 -0.012599 0.133042
v 0.059563 -0.002553 0.134304
v 0.075508 -0.001184 0.131002
v 0.065884 -0.040122 0.173031
v -0.023628 0.060477 0.014305
v 0.012115 0.060729 0.058300
v 0.001114 0.038213 0.057239
v -0.010536 0.027099 0.060018
v -0.006736 0.042746 0.062796
v 0.007263 0.063530 0.061735
v 0.047297 0.027507 0.131204
v 0.033298 0.006722 0.132265
v 0.028446 0.009524 0.135700
v 0.039446 0.032040 0.136761
v 0.051097 0.043154 0.133982
v 0.064188 0.009776 0.179695
v -0.062443 0.034130 0.017494
v -0.032682 0.057747 0.059561
v -0.026702 0.033416 0.058398
v -0.028310 0.017443 0.061444
v -0.035284 0.031902 0.064489
v -0.037986 0.056811 0.063326
v 0.019846 0.055656 0.129511
v 0.022547 0.030747 0.130674
v 0.017243 0.029812 0.134439
v 0.011263 0.054142 0.135602
v 0.012871 0.070115 0.132556
v 0.047004 0.053428 0.176506
v -0.075633 -0.015168 0.020969
v -0.066432 0.023940 0.060958
v -0.046258 0.009090 0.059696
v -0.037101 -0.004034 0.062998
v -0.051616 0.002705 0.066299
v -0.069743 0.019994 0.065038
v -0.022213 0.059245 0.127701
v -0.004086 0.041956 0.128962
v -0.007397 0.038010 0.133042
v -0.027571 0.052860 0.134304
v -0.036728 0.065984 0.131002
v 0.001804 0.077118 0.173031
vn -0.3827 -0.9239 -0.0000
vn -0.9239 -0.3827 -0.0000
vn -0.9239 0.3827 -0.0000
vn -0.3827 0.9239 -0.0000
vn 0.3827 0.9239 -0.0000
vn 0.9239 0.3827 -0.0000
vn -0.0000 -0.0000 1.0000
vn 0.9239 -0.3827 -0.0000
vn 0.3827 -0.9239 -0.0000
vn -0.0000 -0.0000 -1.0000
vn -0.0807 0.8004 -0.5940
vn -0.9475 -0.1671 -0.2725
vn 0.3224 0.7285 -0.6044
vn 0.3224 -0.8691 0.3751
vn -0.0807 -0.8924 0.4439
vn -0.9988 -0.0257 -0.0419
vn -0.0810 0.8429 -0.5319
vn 0.3253 0.7956 -0.5110
vn 0.3253 -0.8163 0.4773
vn -0.0810 -0.8564 0.5099
vn -0.3253 0.8163 -0.4773
vn 0.0810 0.8564 -0.5099
vn 0.9988 0.0257 0.0419
vn 0.0810 -0.8429 0.5319
vn -0.3253 -0.7956 0.5110
vn -0.3224 0.8691 -0.3751
vn 0.0806 0.8924 -0.4439
vn 0.9475 0.1671 0.2725
vn 0.0807 -0.8004 0.5940
vn -0.3224 -0.7285 0.6044
vn -0.5524 0.5329 -0.6409
vn -0.6081 -0.7493 -0.2620
vn -0.1972 0.7366 -0.6470
vn 0.7902 -0.4401 0.4266
vn 0.4937 -0.7139 0.4966
vn -0.7470 -0.6636 -0.0403
vn -0.5824 0.5681 -0.5815
vn -0.2416 0.7940 -0.5578
vn 0.7546 -0.3932 0.5254
vn 0.4678 -0.6835 0.5604
vn -0.7546 0.3932 -0.5254
vn -0.4678 0.6835 -0.5604
vn 0.7470 0.6636 0.0403
vn 0.5824 -0.5681 0.5815
vn 0.2416 -0.7940 0.5578
vn -0.7902 0.4401 -0.4266
vn -0.4937 0.7139 -0.4966
vn 0.6081 0.7493 0.2620
vn 0.5524 -0.5329 0.6409
vn 0.1972 -0.7366 0.6470
vn -0.7265 0.0462 -0.6856
vn 0.0310 -0.9676 -0.2506
vn -0.5851 0.4305 -0.6873
vn 0.8615 0.1755 0.4765
vn 0.8062 -0.2241 0.5475
vn -0.1434 -0.9889 -0.0385
vn -0.7755 0.0545 -0.6290
vn -0.6612 0.4469 -0.6026
vn 0.7984 0.1895 0.5716
vn 0.7631 -0.2168 0.6088
vn -0.7984 -0.1895 -0.5716
vn -0.7631 0.2168 -0.6088
vn 0.1434 0.9889 0.0385
vn 0.7755 -0.0545 0.6290
vn 0.6612 -0.4469 0.6026
vn -0.8615 -0.1755 -0.4765
vn -0.8062 0.2241 -0.5475
vn -0.0310 0.9676 0.2506
vn 0.7265 -0.0462 0.6856
vn 0.5851 -0.4305 0.6873
vn -0.6528 -0.4700 -0.5940
vn 0.6185 -0.7370 -0.2725
vn -0.7921 -0.0851 -0.6044
vn 0.5915 0.7138 0.3751
vn 0.8132 0.3764 0.4439
vn 0.5217 -0.8521 -0.0419
vn -0.6895 -0.4916 -0.5319
vn -0.8517 -0.1161 -0.5110
vn 0.5443 0.6899 0.4773
vn 0.7821 0.3581 0.5099
vn -0.5443 -0.6899 -0.4773
vn -0.7821 -0.3581 -0.5099
vn -0.5217 0.8521 0.0419
vn 0.6895 0.4916 0.5319
vn 0.8517 0.1161 0.5110
vn -0.5915 -0.7138 -0.3751
vn -0.8132 -0.3764 -0.4439
vn -0.6185 0.7370 0.2725
vn 0.6528 0.4700 0.5940
vn 0.7921 0.0851 0.6044
vn -0.1853 -0.7449 -0.6409
vn 0.9530 -0.1520 -0.2620
vn -0.5393 -0.5390 -0.6470
vn -0.0139 0.9043 0.4266
vn 0.3714 0.7845 0.4966
vn 0.9482 -0.3151 -0.0403
vn -0.2008 -0.7884 -0.5815
vn -0.5668 -0.6063 -0.5578
vn -0.0368 0.8501 0.5254
vn 0.3580 0.7469 0.5604
vn 0.0368 -0.8501 -0.5254
vn -0.3580 -0.7469 -0.5604
vn -0.9482 0.3151 0.0403
vn 0.2008 0.7884 0.5815
vn 0.5668 0.6063 0.5578
vn 0.0139 -0.9043 -0.4266
vn -0.3714 -0.7845 -0.4966
vn -0.9530 0.1520 0.2620
vn 0.1853 0.7449 0.6409
vn 0.5393 0.5390 0.6470
vn 0.3233 -0.6523 -0.6856
vn 0.8225 0.5106 -0.2506
vn -0.0803 -0.7220 -0.6873
vn -0.5827 0.6583 0.4765
vn -0.2091 0.8102 0.5475
vn 0.9281 0.3703 -0.0385
vn 0.3405 -0.6989 -0.6290
vn -0.0564 -0.7960 -0.6026
vn -0.5633 0.5966 0.5716
vn -0.1938 0.7693 0.6088
vn 0.5633 -0.5966 -0.5716
vn 0.1938 -0.7693 -0.6088
vn -0.9281 -0.3703 0.0385
vn -0.3405 0.6989 0.6290
vn 0.0564 0.7960 0.6026
vn 0.5827 -0.6583 -0.4765
vn 0.2091 -0.8102 -0.5475
vn -0.8225 -0.5106 0.2506
vn -0.3233 0.6523 0.6856
vn 0.0803 0.7220 0.6873
vn 0.7335 -0.3304 -0.5940
vn 0.3291 0.9041 -0.2725
vn 0.4697 -0.6435 -0.6044
vn -0.9139 0.1553 0.3751
vn -0.7326 0.5161 0.4439
vn 0.4771 0.8778 -0.0419
vn 0.7705 -0.3513 -0.5319
vn 0.5264 -0.6795 -0.5110
vn -0.8696 0.1264 0.4773
vn -0.7012 0.4983 0.5099
vn 0.8696 -0.1264 -0.4773
vn 0.7012 -0.4983 -0.5099
vn -0.4771 -0.8778 0.0419
vn -0.7705 0.3513 0.5319
vn -0.5264 0.6795 0.5110
vn 0.9139 -0.1553 -0.3751
vn 0.7326 -0.5161 -0.4439
vn -0.3291 -0.9041 0.2725
vn -0.7335 0.3304 0.5940
vn -0.4697 0.6435 0.6044
vn 0.7377 0.2120 -0.6409
vn -0.3449 0.9013 -0.2620
vn 0.7365 -0.1975 -0.6470
vn -0.7762 -0.4643 0.4266
vn -0.8651 -0.0706 0.4966
vn -0.2012 0.9787 -0.0403
vn 0.7831 0.2203 -0.5815
vn 0.8084 -0.1878 -0.5578
vn -0.7178 -0.4569 0.5254
vn -0.8258 -0.0634 0.5604
vn 0.7178 0.4569 -0.5254
vn 0.8258 0.0634 -0.5604
vn 0.2012 -0.9787 0.0403
vn -0.7831 -0.2203 0.5815
vn -0.8084 0.1878 0.5578
vn 0.7762 0.4643 -0.4266
vn 0.8651 0.0706 -0.4966
vn 0.3449 -0.9013 0.2620
vn -0.7377 -0.2120 0.6409
vn -0.7365 0.1975 0.6470
vn 0.4033 0.6061 -0.6856
vn -0.8534 0.4570 -0.2506
vn 0.6654 0.2914 -0.6873
vn -0.2788 -0.8338 0.4765
vn -0.5972 -0.5862 0.5475
vn -0.7847 0.6186 -0.0385
vn 0.4350 0.6443 -0.6290
vn 0.7176 0.3491 -0.6026
vn -0.2350 -0.7862 0.5716
vn -0.5693 -0.5525 0.6088
vn 0.2350 0.7862 -0.5716
vn 0.5693 0.5525 -0.6088
vn 0.7847 -0.6186 0.0385
vn -0.4350 -0.6443 0.6290
vn -0.7176 -0.3491 0.6026
vn 0.2788 0.8338 -0.4765
vn 0.5972 0.5862 -0.5475
vn 0.8534 -0.4570 0.2506
vn -0.4033 -0.6061 0.6856
vn -0.6654 -0.2914 0.6873
vt 1.000000 0.500000
vt 1.000000 1.000000
vt 0.875000 1.000000
vt 0.875000 0.500000
vt 0.750000 1.000000
vt 0.750000 0.500000
vt 0.625000 1.000000
vt 0.625000 0.500000
vt 0.500000 1.000000
vt 0.500000 0.500000
vt 0.375000 1.000000
vt 0.375000 0.500000
vt 0.250000 1.000000
vt 0.250000 0.500000
vt 0.419706 0.419706
vt 0.250000 0.490000
vt 0.080294 0.419706
vt 0.010000 0.250000
vt 0.080294 0.080294
vt 0.250000 0.010000
vt 0.419706 0.080294
vt 0.490000 0.250000
vt 0.125000 1.000000
vt 0.125000 0.500000
vt 0.000000 1.000000
vt 0.000000 0.500000
vt 0.750000 0.490000
vt 0.919706 0.419706
vt 0.990000 0.250000
vt 0.919706 0.080294
vt 0.750000 0.010000
vt 0.580294 0.080294
vt 0.510000 0.250000
vt 0.580294 0.419706
vt 0.181819 0.000000
vt 0.272728 0.157461
vt 0.090910 0.157461
vt 0.363637 0.000000
vt 0.454546 0.157461
vt 0.909091 0.000000
vt 1.000000 0.157461
vt 0.818182 0.157461
vt 0.727273 0.000000
vt 0.636364 0.157461
vt 0.545455 0.000000
vt 0.363637 0.314921
vt 0.181819 0.314921
vt 0.909091 0.314921
vt 0.727273 0.314921
vt 0.545455 0.314921
vt 0.000000 0.314921
vt 0.272728 0.472382
vt 0.090910 0.472382
vt 0.818182 0.472382
vt 0.636364 0.472382
vt 0.454546 0.472382
s 0
usemtl bark
f 1/1/1 2/2/1 4/3/1 3/4/1
f 3/4/2 4/3/2 6/5/2 5/6/2
f 5/6/3 6/5/3 8/7/3 7/8/3
f 7/8/4 8/7/4 10/9/4 9/10/4
f 9/10/5 10/9/5 12/11/5 11/12/5
f 11/12/6 12/11/6 14/13/6 13/14/6
f 4/15/7 2/16/7 16/17/7 14/18/7 12/19/7 10/20/7 8/21/7 6/22/7
f 13/14/8 14/13/8 16/23/8 15/24/8
f 15/24/9 16/23/9 2/25/9 1/26/9
f 1/27/10 3/28/10 5/29/10 7/30/10 9/31/10 11/32/10 13/33/10 15/34/10
usemtl leaf_light_kwuarm
f 17/35/11 18/36/11 19/37/11
f 18/36/12 17/38/12 22/39/12
f 17/40/13 19/41/13 20/42/13
f 17/43/14 20/42/14 21/44/14
f 17/45/15 21/44/15 22/39/15
f 18/36/16 22/39/16 27/46/16
f 19/37/17 18/36/17 23/47/17
f 20/42/18 19/41/18 24/48/18
f 21/44/19 20/42/19 25/49/19
f 22/39/20 21/44/20 26/50/20
f 18/36/21 27/46/21 23/47/21
f 19/37/22 23/47/22 24/51/22
f 20/42/23 24/48/23 25/49/23
f 21/44/24 25/49/24 26/50/24
f 22/39/25 26/50/25 27/46/25
f 23/47/26 27/46/26 28/52/26
f 24/51/27 23/47/27 28/53/27
f 25/49/28 24/48/28 28/54/28
f 26/50/29 25/49/29 28/55/29
f 27/46/30 26/50/30 28/56/30
f 53/35/71 54/36/71 55/37/71
f 54/36/72 53/38/72 58/39/72
f 53/40/73 55/41/73 56/42/73
f 53/43/74 56/42/74 57/44/74
f 53/45/75 57/44/75 58/39/75
f 54/36/76 58/39/76 63/46/76
f 55/37/77 54/36/77 59/47/77
f 56/42/78 55/41/78 60/48/78
f 57/44/79 56/42/79 61/49/79
f 58/39/80 57/44/80 62/50/80
f 54/36/81 63/46/81 59/47/81
f 55/37/82 59/47/82 60/51/82
f 56/42/83 60/48/83 61/49/83
f 57/44/84 61/49/84 62/50/84
f 58/39/85 62/50/85 63/46/85
f 59/47/86 63/46/86 64/52/86
f 60/51/87 59/47/87 64/53/87
f 61/49/88 60/48/88 64/54/88
f 62/50/89 61/49/89 64/55/89
f 63/46/90 62/50/90 64/56/90
f 89/35/131 90/36/131 91/37/131
f 90/36/132 89/38/132 94/39/132
f 89/40/133 91/41/133 92/42/133
f 89/43/134 92/42/134 93/44/134
f 89/45/135 93/44/135 94/39/135
f 90/36/136 94/39/136 99/46/136
f 91/37/137 90/36/137 95/47/137
f 92/42/138 91/41/138 96/48/138
f 93/44/139 92/42/139 97/49/139
f 94/39/140 93/44/140 98/50/140
f 90/36/141 99/46/141 95/47/141
f 91/37/142 95/47/142 96/51/142
f 92/42/143 96/48/143 97/49/143
f 93/44/144 97/49/144 98/50/144
f 94/39/145 98/50/145 99/46/145
f 95/47/146 99/46/146 100/52/146
f 96/51/147 95/47/147 100/53/147
f 97/49/148 96/48/148 100/54/148
f 98/50/149 97/49/149 100/55/149
f 99/46/150 98/50/150 100/56/150
usemtl leaf_kwuarm
f 29/35/31 30/36/31 31/37/31
f 30/36/32 29/38/32 34/39/32
f 29/40/33 31/41/33 32/42/33
f 29/43/34 32/42/34 33/44/34
f 29/45/35 33/44/35 34/39/35
f 30/36/36 34/39/36 39/46/36
f 31/37/37 30/36/37 35/47/37
f 32/42/38 31/41/38 36/48/38
f 33/44/39 32/42/39 37/49/39
f 34/39/40 33/44/40 38/50/40
f 30/36/41 39/46/41 35/47/41
f 31/37/42 35/47/42 36/51/42
f 32/42/43 36/48/43 37/49/43
f 33/44/44 37/49/44 38/50/44
f 34/39/45 38/50/45 39/46/45
f 35/47/46 39/46/46 40/52/46
f 36/51/47 35/47/47 40/53/47
f 37/49/48 36/48/48 40/54/48
f 38/50/49 37/49/49 40/55/49
f 39/46/50 38/50/50 40/56/50
f 41/35/51 42/36/51 43/37/51
f 42/36/52 41/38/52 46/39/52
f 41/40/53 43/41/53 44/42/53
f 41/43/54 44/42/54 45/44/54
f 41/45/55 45/44/55 46/39/55
f 42/36/56 46/39/56 51/46/56
f 43/37/57 42/36/57 47/47/57
f 44/42/58 43/41/58 48/48/58
f 45/44/59 44/42/59 49/49/59
f 46/39/60 45/44/60 50/50/60
f 42/36/61 51/46/61 47/47/61
f 43/37/62 47/47/62 48/51/62
f 44/42/63 48/48/63 49/49/63
f 45/44/64 49/49/64 50/50/64
f 46/39/65 50/50/65 51/46/65
f 47/47/66 51/46/66 52/52/66
f 48/51/67 47/47/67 52/53/67
f 49/49/68 48/48/68 52/54/68
f 50/50/69 49/49/69 52/55/69
f 51/46/70 50/50/70 52/56/70
f 65/35/91 66/36/91 67/37/91
f 66/36/92 65/38/92 70/39/92
f 65/40/93 67/41/93 68/42/93
f 65/43/94 68/42/94 69/44/94
f 65/45/95 69/44/95 70/39/95
f 66/36/96 70/39/96 75/46/96
f 67/37/97 66/36/97 71/47/97
f 68/42/98 67/41/98 72/48/98
f 69/44/99 68/42/99 73/49/99
f 70/39/100 69/44/100 74/50/100
f 66/36/101 75/46/101 71/47/101
f 67/37/102 71/47/102 72/51/102
f 68/42/103 72/48/103 73/49/103
f 69/44/104 73/49/104 74/50/104
f 70/39/105 74/50/105 75/46/105
f 71/47/106 75/46/106 76/52/106
f 72/51/107 71/47/107 76/53/107
f 73/49/108 72/48/108 76/54/108
f 74/50/109 73/49/109 76/55/109
f 75/46/110 74/50/110 76/56/110
f 77/35/111 78/36/111 79/37/111
f 78/36/112 77/38/112 82/39/112
f 77/40/113 79/41/113 80/42/113
f 77/43/114 80/42/114 81/44/114
f 77/45/115 81/44/115 82/39/115
f 78/36/116 82/39/116 87/46/116
f 79/37/117 78/36/117 83/47/117
f 80/42/118 79/41/118 84/48/118
f 81/44/119 80/42/119 85/49/119
f 82/39/120 81/44/120 86/50/120
f 78/36/121 87/46/121 83/47/121
f 79/37/122 83/47/122 84/51/122
f 80/42/123 84/48/123 85/49/123
f 81/44/124 85/49/124 86/50/124
f 82/39/125 86/50/125 87/46/125
f 83/47/126 87/46/126 88/52/126
f 84/51/127 83/47/127 88/53/127
f 85/49/128 84/48/128 88/54/128
f 86/50/129 85/49/129 88/55/129
f 87/46/130 86/50/130 88/56/130
f 101/35/151 102/36/151 103/37/151
f 102/36/152 101/38/152 106/39/152
f 101/40/153 103/41/153 104/42/153
f 101/43/154 104/42/154 105/44/154
f 101/45/155 105/44/155 106/39/155
f 102/36/156 106/39/156 111/46/156
f 103/37/157 102/36/157 107/47/157
f 104/42/158 103/41/158 108/48/158
f 105/44/159 104/42/159 109/49/159
f 106/39/160 105/44/160 110/50/160
f 102/36/161 111/46/161 107/47/161
f 103/37/162 107/47/162 108/51/162
f 104/42/163 108/48/163 109/49/163
f 105/44/164 109/49/164 110/50/164
f 106/39/165 110/50/165 111/46/165
f 107/47/166 111/46/166 112/52/166
f 108/51/167 107/47/167 112/53/167
f 109/49/168 108/48/168 112/54/168
f 110/50/169 109/49/169 112/55/169
f 111/46/170 110/50/170 112/56/170
f 113/35/171 114/36/171 115/37/171
f 114/36/172 113/38/172 118/39/172
f 113/40/173 115/41/173 116/42/173
f 113/43/174 116/42/174 117/44/174
f 113/45/175 117/44/175 118/39/175
f 114/36/176 118/39/176 123/46/176
f 115/37/177 114/36/177 119/47/177
f 116/42/178 115/41/178 120/48/178
f 117/44/179 116/42/179 121/49/179
f 118/39/180 117/44/180 122/50/180
f 114/36/181 123/46/181 119/47/181
f 115/37/182 119/47/182 120/51/182
f 116/42/183 120/48/183 121/49/183
f 117/44/184 121/49/184 122/50/184
f 118/39/185 122/50/185 123/46/185
f 119/47/186 123/46/186 124/52/186
f 120/51/187 119/47/187 124/53/187
f 121/49/188 120/48/188 124/54/188
f 122/50/189 121/49/189 124/55/189
f 123/46/190 122/50/190 124/56/190
