# Blender 4.0.2
# www.blender.org
mtllib 4_mature.mtl
o yanillian_4_mature
v 0.000000 -0.150000 0.000000
v 0.000000 -0.150000 0.020000
v -0.088168 -0.121353 0.000000
v -0.088168 -0.121353 0.020000
v -0.142658 -0.046353 0.000000
v -0.142658 -0.046353 0.020000
v -0.142658 0.046353 0.000000
v -0.142658 0.046353 0.020000
v -0.088168 0.121353 0.000000
v -0.088168 0.121353 0.020000
v 0.000000 0.150000 0.000000
v 0.000000 0.150000 0.020000
v 0.088168 0.121353 0.000000
v 0.088168 0.121353 0.020000
v 0.142658 0.046353 0.000000
v 0.142658 0.046353 0.020000
v 0.142658 -0.046353 0.000000
v 0.142658 -0.046353 0.020000
v 0.088168 -0.121353 0.000000
v 0.088168 -0.121353 0.020000
v 0.000000 -0.018000 0.020000
v 0.000000 -0.018000 0.660000
v -0.015588 -0.009000 0.020000
v -0.015588 -0.009000 0.660000
v -0.015588 0.009000 0.020000
v -0.015588 0.009000 0.660000
v 0.000000 0.018000 0.020000
v 0.000000 0.018000 0.660000
v 0.015588 0.009000 0.020000
v 0.015588 0.009000 0.660000
v 0.015588 -0.009000 0.020000
v 0.015588 -0.009000 0.660000
v -0.101962 0.030000 0.138700
v -0.140307 0.064887 0.142183
v -0.076275 0.035797 0.142183
v -0.047740 -0.001305 0.142183
v -0.094138 0.004856 0.142183
v -0.151348 0.045765 0.142183
v -0.109785 0.055144 0.147817
v -0.052576 0.014235 0.147817
v -0.063616 -0.004887 0.147817
v -0.127648 0.024203 0.147817
v -0.156183 0.061305 0.147817
v -0.101962 0.030000 0.151300
v -0.107956 0.015529 0.138700
v -0.154024 0.039303 0.142183
v -0.084644 0.027777 0.142183
v -0.047479 -0.000675 0.142183
v -0.093891 -0.006733 0.142183
v -0.159739 0.017975 0.142183
v -0.122020 0.037791 0.147817
v -0.056172 0.013083 0.147817
v -0.061887 -0.008244 0.147817
v -0.131267 0.003282 0.147817
v -0.168432 0.031734 0.147817
v -0.107956 0.015529 0.151300
v -0.110000 0.000000 0.138700
v -0.160652 0.011040 0.142183
v -0.090653 0.017863 0.142183
v -0.047390 0.000000 0.142183
v -0.090653 -0.017863 0.142183
v -0.160652 -0.011040 0.142183
v -0.129347 0.017863 0.147817
v -0.059348 0.011040 0.147817
v -0.059348 -0.011040 0.147817
v -0.129347 -0.017863 0.147817
v -0.172610 0.000000 0.147817
v -0.110000 0.000000 0.151300
v -0.107956 -0.015529 0.138700
v -0.159739 -0.017975 0.142183
v -0.093891 0.006733 0.142183
v -0.047479 0.000675 0.142183
v -0.084644 -0.027777 0.142183
v -0.154024 -0.039303 0.142183
v -0.131267 -0.003282 0.147817
v -0.061887 0.008244 0.147817
v -0.056172 -0.013083 0.147817
v -0.122020 -0.037791 0.147817
v -0.168432 -0.031734 0.147817
v -0.107956 -0.015529 0.151300
v -0.101962 -0.030000 0.138700
v -0.151348 -0.045765 0.142183
v -0.094138 -0.004856 0.142183
v -0.047740 0.001305 0.142183
v -0.076275 -0.035797 0.142183
v -0.140307 -0.064887 0.142183
v -0.127648 -0.024203 0.147817
v -0.063616 0.004887 0.147817
v -0.052576 -0.014235 0.147817
v -0.109785 -0.055144 0.147817
v -0.156183 -0.061305 0.147817
v -0.101962 -0.030000 0.151300
v 0.101962 -0.030000 0.138700
v 0.140307 -0.064887 0.142183
v 0.076275 -0.035797 0.142183
v 0.047740 0.001305 0.142183
v 0.094138 -0.004856 0.142183
v 0.151348 -0.045765 0.142183
v 0.109785 -0.055144 0.147817
v 0.052576 -0.014235 0.147817
v 0.063616 0.004887 0.147817
v 0.127648 -0.024203 0.147817
v 0.156183 -0.061305 0.147817
v 0.101962 -0.030000 0.151300
v 0.107956 -0.015529 0.138700
v 0.154024 -0.039303 0.142183
v 0.084644 -0.027777 0.142183
v 0.047479 0.000675 0.142183
v 0.093891 0.006733 0.142183
v 0.159739 -0.017975 0.142183
v 0.122020 -0.037791 0.147817
v 0.056172 -0.013083 0.147817
v 0.061887 0.008245 0.147817
v 0.131267 -0.003282 0.147817
v 0.168432 -0.031734 0.147817
v 0.107956 -0.015529 0.151300
v 0.110000 -0.000000 0.138700
v 0.160652 -0.011040 0.142183
v 0.090653 -0.017863 0.142183
v 0.047390 -0.000000 0.142183
v 0.090653 0.017863 0.142183
v 0.160652 0.011040 0.142183
v 0.129347 -0.017863 0.147817
v 0.059348 -0.011040 0.147817
v 0.059348 0.011040 0.147817
v 0.129347 0.017863 0.147817
v 0.172610 0.000000 0.147817
v 0.110000 -0.000000 0.151300
v 0.107956 0.015529 0.138700
v 0.159739 0.017975 0.142183
v 0.093891 -0.006733 0.142183
v 0.047479 -0.000675 0.142183
v 0.084644 0.027777 0.142183
v 0.154024 0.039303 0.142183
v 0.131267 0.003282 0.147817
v 0.061887 -0.008244 0.147817
v 0.056172 0.013083 0.147817
v 0.122020 0.037791 0.147817
v 0.168432 0.031734 0.147817
v 0.107956 0.015529 0.151300
v 0.101962 0.030000 0.138700
v 0.151348 0.045765 0.142183
v 0.094138 0.004856 0.142183
v 0.047740 -0.001305 0.142183
v 0.076275 0.035797 0.142183
v 0.140307 0.064887 0.142183
v 0.127648 0.024203 0.147817
v 0.063616 -0.004887 0.147817
v 0.052576 0.014235 0.147817
v 0.109785 0.055144 0.147817
v 0.156183 0.061305 0.147817
v 0.101962 0.030000 0.151300
v 0.009156 -0.125263 0.278700
v -0.012174 -0.172513 0.282183
v -0.004294 -0.102625 0.282183
v 0.022174 -0.064021 0.282183
v 0.030652 -0.110053 0.282183
v 0.009424 -0.177103 0.282183
v -0.012339 -0.140473 0.287817
v 0.008889 -0.073422 0.287817
v 0.030486 -0.078013 0.287817
v 0.022607 -0.147901 0.287817
v -0.003861 -0.186504 0.287817
v 0.009156 -0.125263 0.291300
v 0.024771 -0.126492 0.278700
v 0.016397 -0.177652 0.282183
v 0.005920 -0.108106 0.282183
v 0.021495 -0.063968 0.282183
v 0.041598 -0.106236 0.282183
v 0.038447 -0.176497 0.282183
v 0.007945 -0.146747 0.287817
v 0.011095 -0.076487 0.287817
v 0.033145 -0.075331 0.287817
v 0.043623 -0.144877 0.287817
v 0.028048 -0.189016 0.287817
v 0.024771 -0.126492 0.291300
v 0.040172 -0.123637 0.278700
v 0.045325 -0.175222 0.282183
v 0.017205 -0.110757 0.282183
v 0.020825 -0.064092 0.282183
v 0.051183 -0.099717 0.282183
v 0.066324 -0.168399 0.282183
v 0.029162 -0.147557 0.287817
v 0.014020 -0.078876 0.287817
v 0.035020 -0.072053 0.287817
v 0.063140 -0.136517 0.287817
v 0.059520 -0.183183 0.287817
v 0.040172 -0.123637 0.291300
v 0.054310 -0.116894 0.278700
v 0.072638 -0.165387 0.282183
v 0.028791 -0.110398 0.282183
v 0.020210 -0.064385 0.282183
v 0.058754 -0.090939 0.282183
v 0.091156 -0.153362 0.282183
v 0.049865 -0.142849 0.287817
v 0.017463 -0.080427 0.287817
v 0.035981 -0.068401 0.287817
v 0.079828 -0.123391 0.287817
v 0.088409 -0.169403 0.287817
v 0.054310 -0.116894 0.291300
v 0.066220 -0.106722 0.278700
v 0.096474 -0.148819 0.282183
v 0.039889 -0.107051 0.282183
v 0.019692 -0.064828 0.282183
v 0.063795 -0.080501 0.282183
v 0.111249 -0.132410 0.282183
v 0.068644 -0.132943 0.287817
v 0.021191 -0.081033 0.287817
v 0.035965 -0.064625 0.287817
v 0.092550 -0.106392 0.287817
v 0.112748 -0.148616 0.287817
v 0.066220 -0.106722 0.291300
v -0.009156 0.125263 0.278700
v 0.012174 0.172513 0.282183
v 0.004294 0.102625 0.282183
v -0.022174 0.064021 0.282183
v -0.030652 0.110053 0.282183
v -0.009424 0.177103 0.282183
v 0.012339 0.140473 0.287817
v -0.008889 0.073422 0.287817
v -0.030487 0.078013 0.287817
v -0.022607 0.147901 0.287817
v 0.003861 0.186504 0.287817
v -0.009156 0.125263 0.291300
v -0.024771 0.126492 0.278700
v -0.016397 0.177652 0.282183
v -0.005920 0.108106 0.282183
v -0.021495 0.063968 0.282183
v -0.041598 0.106236 0.282183
v -0.038447 0.176497 0.282183
v -0.007945 0.146747 0.287817
v -0.011095 0.076487 0.287817
v -0.033145 0.075331 0.287817
v -0.043623 0.144877 0.287817
v -0.028048 0.189016 0.287817
v -0.024771 0.126492 0.291300
v -0.040172 0.123637 0.278700
v -0.045325 0.175222 0.282183
v -0.017205 0.110757 0.282183
v -0.020825 0.064092 0.282183
v -0.051183 0.099717 0.282183
v -0.066324 0.168399 0.282183
v -0.029162 0.147557 0.287817
v -0.014020 0.078876 0.287817
v -0.035020 0.072053 0.287817
v -0.063140 0.136517 0.287817
v -0.059520 0.183183 0.287817
v -0.040172 0.123637 0.291300
v -0.054310 0.116894 0.278700
v -0.072638 0.165387 0.282183
v -0.028791 0.110398 0.282183
v -0.020210 0.064385 0.282183
v -0.058754 0.090939 0.282183
v -0.091156 0.153362 0.282183
v -0.049865 0.142849 0.287817
v -0.017463 0.080427 0.287817
v -0.035981 0.068401 0.287817
v -0.079828 0.123391 0.287817
v -0.088409 0.169403 0.287817
v -0.054310 0.116894 0.291300
v -0.066220 0.106722 0.278700
v -0.096474 0.148819 0.282183
v -0.039889 0.107051 0.282183
v -0.019692 0.064828 0.282183
v -0.063795 0.080501 0.282183
v -0.111249 0.132410 0.282183
v -0.068644 0.132943 0.287817
v -0.021191 0.081033 0.287817
v -0.035965 0.064625 0.287817
v -0.092550 0.106392 0.287817
v -0.112748 0.148616 0.287817
v -0.066220 0.106722 0.291300
v 0.124393 0.053295 0.418700
v 0.175921 0.047609 0.422183
v 0.107019 0.033507 0.422183
v 0.062126 0.046750 0.422183
v 0.103284 0.069038 0.422183
v 0.173613 0.069569 0.422183
v 0.145501 0.037551 0.427817
v 0.075172 0.037020 0.427817
v 0.072864 0.058980 0.427817
v 0.141766 0.073082 0.427817
v 0.186659 0.059839 0.427817
v 0.124393 0.053295 0.431300
v 0.120736 0.068525 0.418700
v 0.171980 0.076370 0.422183
v 0.109076 0.044915 0.422183
v 0.062285 0.046088 0.422183
v 0.096273 0.078269 0.422183
v 0.164067 0.096984 0.422183
v 0.145200 0.058781 0.427817
v 0.077405 0.040066 0.427817
v 0.069492 0.060680 0.427817
v 0.132396 0.092135 0.427817
v 0.179187 0.090962 0.427817
v 0.120736 0.068525 0.431300
v 0.113262 0.082290 0.418700
v 0.160730 0.103131 0.422183
v 0.108110 0.056466 0.422183
v 0.062610 0.045489 0.422183
v 0.087110 0.085370 0.422183
v 0.147751 0.120994 0.422183
v 0.139414 0.079210 0.427817
v 0.078773 0.043586 0.427817
v 0.065795 0.061449 0.427817
v 0.118415 0.108114 0.427817
v 0.163915 0.119091 0.427817
v 0.113262 0.082290 0.431300
v 0.102481 0.093652 0.418700
v 0.142937 0.126068 0.422183
v 0.104188 0.067374 0.422183
v 0.063079 0.044995 0.422183
v 0.076423 0.089858 0.422183
v 0.125777 0.139963 0.422183
v 0.128539 0.097445 0.427817
v 0.079184 0.047340 0.427817
v 0.062024 0.061235 0.427817
v 0.100774 0.119929 0.427817
v 0.141882 0.142308 0.427817
v 0.102481 0.093652 0.431300
v 0.089126 0.101836 0.418700
v 0.119813 0.143618 0.422183
v 0.097576 0.076896 0.422183
v 0.063660 0.044639 0.422183
v 0.064937 0.091427 0.422183
v 0.099642 0.152599 0.422183
v 0.113314 0.112244 0.427817
v 0.078609 0.051072 0.427817
v 0.058438 0.060053 0.427817
v 0.080676 0.126776 0.427817
v 0.114591 0.159032 0.427817
v 0.089126 0.101836 0.431300
v -0.124393 -0.053295 0.418700
v -0.175921 -0.047609 0.422183
v -0.107019 -0.033507 0.422183
v -0.062126 -0.046750 0.422183
v -0.103284 -0.069038 0.422183
v -0.173613 -0.069569 0.422183
v -0.145501 -0.037551 0.427817
v -0.075172 -0.037020 0.427817
v -0.072864 -0.058980 0.427817
v -0.141766 -0.073082 0.427817
v -0.186659 -0.059839 0.427817
v -0.124393 -0.053295 0.431300
v -0.120736 -0.068525 0.418700
v -0.171980 -0.076370 0.422183
v -0.109076 -0.044915 0.422183
v -0.062285 -0.046088 0.422183
v -0.096273 -0.078269 0.422183
v -0.164067 -0.096984 0.422183
v -0.145200 -0.058781 0.427817
v -0.077405 -0.040066 0.427817
v -0.069492 -0.060680 0.427817
v -0.132396 -0.092135 0.427817
v -0.179187 -0.090962 0.427817
v -0.120736 -0.068525 0.431300
v -0.113262 -0.082290 0.418700
v -0.160730 -0.103131 0.422183
v -0.108110 -0.056466 0.422183
v -0.062610 -0.045489 0.422183
v -0.087111 -0.085370 0.422183
v -0.147751 -0.120994 0.422183
v -0.139414 -0.079210 0.427817
v -0.078773 -0.043586 0.427817
v -0.065795 -0.061449 0.427817
v -0.118415 -0.108114 0.427817
v -0.163915 -0.119091 0.427817
v -0.113262 -0.082290 0.431300
v -0.102481 -0.093652 0.418700
v -0.142937 -0.126068 0.422183
v -0.104188 -0.067374 0.422183
v -0.063079 -0.044995 0.422183
v -0.076423 -0.089858 0.422183
v -0.125777 -0.139963 0.422183
v -0.128539 -0.097445 0.427817
v -0.079184 -0.047340 0.427817
v -0.062024 -0.061235 0.427817
v -0.100774 -0.119929 0.427817
v -0.141882 -0.142308 0.427817
v -0.102481 -0.093652 0.431300
v -0.089126 -0.101836 0.418700
v -0.119813 -0.143618 0.422183
v -0.097576 -0.076896 0.422183
v -0.063660 -0.044639 0.422183
v -0.064937 -0.091427 0.422183
v -0.099642 -0.152599 0.422183
v -0.113314 -0.112244 0.427817
v -0.078609 -0.051072 0.427817
v -0.058438 -0.060053 0.427817
v -0.080676 -0.126776 0.427817
v -0.114591 -0.159032 0.427817
v -0.089126 -0.101836 0.431300
v -0.081035 0.095958 0.558700
v -0.091552 0.146721 0.562183
v -0.056847 0.085549 0.562183
v -0.055570 0.038761 0.562183
v -0.089485 0.071018 0.562183
v -0.111723 0.137740 0.562183
v -0.072585 0.120898 0.567817
v -0.050348 0.054175 0.567817
v -0.070519 0.045194 0.567817
v -0.105224 0.106366 0.567817
v -0.106501 0.153155 0.567817
v -0.081035 0.095958 0.571300
v -0.094390 0.087774 0.558700
v -0.117687 0.134085 0.562183
v -0.068332 0.083980 0.562183
v -0.054989 0.039117 0.562183
v -0.096097 0.061496 0.562183
v -0.134847 0.120190 0.562183
v -0.092683 0.114051 0.567817
v -0.053934 0.055358 0.567817
v -0.071094 0.041462 0.567817
v -0.120448 0.091567 0.567817
v -0.133792 0.136431 0.567817
v -0.094390 0.087774 0.571300
v -0.105172 0.076412 0.558700
v -0.139661 0.115116 0.562183
v -0.079020 0.079492 0.562183
v -0.054520 0.039611 0.562183
v -0.100020 0.050588 0.562183
v -0.152640 0.097253 0.562183
v -0.110324 0.102236 0.567817
v -0.057705 0.055571 0.567817
v -0.070683 0.037708 0.567817
v -0.131324 0.073332 0.567817
v -0.155825 0.113213 0.567817
v -0.105172 0.076412 0.571300
v -0.112646 0.062647 0.558700
v -0.155977 0.091106 0.562183
v -0.088182 0.072391 0.562183
v -0.054195 0.040210 0.562183
v -0.100986 0.039037 0.562183
v -0.163890 0.070492 0.562183
v -0.124306 0.086257 0.567817
v -0.061402 0.054802 0.567817
v -0.069315 0.034188 0.567817
v -0.137110 0.052903 0.567817
v -0.171097 0.085084 0.567817
v -0.112646 0.062647 0.571300
v -0.116303 0.047417 0.558700
v -0.165523 0.063691 0.562183
v -0.095194 0.063160 0.562183
v -0.054036 0.040872 0.562183
v -0.098929 0.027629 0.562183
v -0.167831 0.041732 0.562183
v -0.133676 0.067205 0.567817
v -0.064774 0.053102 0.567817
v -0.067082 0.031142 0.567817
v -0.137411 0.031673 0.567817
v -0.178569 0.053961 0.567817
v -0.116303 0.047417 0.571300
v 0.081035 -0.095958 0.558700
v 0.091552 -0.146721 0.562183
v 0.056847 -0.085549 0.562183
v 0.055570 -0.038761 0.562183
v 0.089485 -0.071018 0.562183
v 0.111723 -0.137740 0.562183
v 0.072585 -0.120898 0.567817
v 0.050348 -0.054175 0.567817
v 0.070519 -0.045194 0.567817
v 0.105224 -0.106366 0.567817
v 0.106501 -0.153155 0.567817
v 0.081035 -0.095958 0.571300
v 0.094390 -0.087774 0.558700
v 0.117687 -0.134085 0.562183
v 0.068332 -0.083980 0.562183
v 0.054989 -0.039117 0.562183
v 0.096097 -0.061496 0.562183
v 0.134847 -0.120190 0.562183
v 0.092683 -0.114051 0.567817
v 0.053934 -0.055358 0.567817
v 0.071094 -0.041462 0.567817
v 0.120448 -0.091567 0.567817
v 0.133792 -0.136431 0.567817
v 0.094390 -0.087774 0.571300
v 0.105172 -0.076412 0.558700
v 0.139661 -0.115116 0.562183
v 0.079020 -0.079492 0.562183
v 0.054520 -0.039611 0.562183
v 0.100020 -0.050588 0.562183
v 0.152640 -0.097253 0.562183
v 0.110324 -0.102236 0.567817
v 0.057705 -0.055571 0.567817
v 0.070683 -0.037708 0.567817
v 0.131324 -0.073332 0.567817
v 0.155825 -0.113213 0.567817
v 0.105172 -0.076412 0.571300
v 0.112646 -0.062647 0.558700
v 0.155977 -0.091106 0.562183
v 0.088182 -0.072391 0.562183
v 0.054195 -0.040210 0.562183
v 0.100986 -0.039037 0.562183
v 0.163890 -0.070492 0.562183
v 0.124306 -0.086257 0.567817
v 0.061402 -0.054802 0.567817
v 0.069315 -0.034188 0.567817
v 0.137110 -0.052903 0.567817
v 0.171097 -0.085084 0.567817
v 0.112646 -0.062647 0.571300
v 0.116303 -0.047417 0.558700
v 0.165523 -0.063691 0.562183
v 0.095194 -0.063160 0.562183
v 0.054036 -0.040872 0.562183
v 0.098929 -0.027629 0.562183
v 0.167831 -0.041732 0.562183
v 0.133676 -0.067205 0.567817
v 0.064774 -0.053102 0.567817
v 0.067082 -0.031142 0.567817
v 0.137411 -0.031673 0.567817
v 0.178569 -0.053961 0.567817
v 0.116303 -0.047417 0.571300
v 0.118565 -0.015293 0.240906
v 0.118565 -0.028293 0.200906
v 0.102977 -0.024293 0.240906
v 0.114235 -0.030793 0.200906
v 0.102977 -0.042293 0.240906
v 0.114235 -0.035793 0.200906
v 0.118565 -0.051293 0.240906
v 0.118565 -0.038293 0.200906
v 0.134154 -0.042293 0.240906
v 0.122895 -0.035793 0.200906
v 0.134154 -0.024293 0.240906
v 0.122895 -0.030793 0.200906
v 0.114944 -0.004733 0.248763
v 0.114944 -0.017733 0.208763
v 0.099356 -0.013733 0.248763
v 0.110614 -0.020233 0.208763
v 0.099356 -0.031733 0.248763
v 0.110614 -0.025233 0.208763
v 0.114944 -0.040733 0.248763
v 0.114944 -0.027733 0.208763
v 0.130533 -0.031733 0.248763
v 0.119274 -0.025233 0.208763
v 0.130533 -0.013733 0.248763
v 0.119274 -0.020233 0.208763
v 0.103048 -0.013532 0.257654
v 0.103048 -0.026532 0.217654
v 0.087460 -0.022532 0.257654
v 0.098718 -0.029032 0.217654
v 0.087460 -0.040532 0.257654
v 0.098718 -0.034032 0.217654
v 0.103048 -0.049532 0.257654
v 0.103048 -0.036532 0.217654
v 0.118637 -0.040532 0.257654
v 0.107379 -0.034032 0.217654
v 0.118637 -0.022532 0.257654
v 0.107379 -0.029032 0.217654
v 0.121746 -0.014943 0.249181
v 0.121746 -0.027943 0.209181
v 0.106157 -0.023943 0.249181
v 0.117416 -0.030443 0.209181
v 0.106157 -0.041943 0.249181
v 0.117416 -0.035443 0.209181
v 0.121746 -0.050943 0.249181
v 0.121746 -0.037943 0.209181
v 0.137334 -0.041943 0.249181
v 0.126076 -0.035443 0.209181
v 0.137334 -0.023943 0.249181
v 0.126076 -0.030443 0.209181
v -0.076039 -0.054589 0.235869
v -0.076039 -0.067589 0.195869
v -0.091627 -0.063589 0.235869
v -0.080369 -0.070089 0.195869
v -0.091627 -0.081589 0.235869
v -0.080369 -0.075089 0.195869
v -0.076039 -0.090589 0.235869
v -0.076039 -0.077589 0.195869
v -0.060450 -0.081589 0.235869
v -0.071709 -0.075089 0.195869
v -0.060450 -0.063589 0.235869
v -0.071709 -0.070089 0.195869
v -0.086324 -0.062760 0.243413
v -0.086324 -0.075760 0.203413
v -0.101912 -0.071760 0.243413
v -0.090654 -0.078260 0.203413
v -0.101912 -0.089760 0.243413
v -0.090654 -0.083260 0.203413
v -0.086324 -0.098760 0.243413
v -0.086324 -0.085760 0.203413
v -0.070735 -0.089760 0.243413
v -0.081994 -0.083260 0.203413
v -0.070735 -0.071760 0.243413
v -0.081994 -0.078260 0.203413
v -0.065040 -0.055397 0.252787
v -0.065040 -0.068397 0.212787
v -0.080629 -0.064397 0.252787
v -0.069370 -0.070897 0.212787
v -0.080629 -0.082397 0.252787
v -0.069370 -0.075897 0.212787
v -0.065040 -0.091397 0.252787
v -0.065040 -0.078397 0.212787
v -0.049452 -0.082397 0.252787
v -0.060710 -0.075897 0.212787
v -0.049452 -0.064397 0.252787
v -0.060710 -0.070897 0.212787
v -0.079377 -0.055117 0.235722
v -0.079377 -0.068117 0.195722
v -0.094966 -0.064117 0.235722
v -0.083707 -0.070617 0.195722
v -0.094966 -0.082117 0.235722
v -0.083707 -0.075617 0.195722
v -0.079377 -0.091117 0.235722
v -0.079377 -0.078117 0.195722
v -0.063789 -0.082117 0.235722
v -0.075047 -0.075617 0.195722
v -0.063789 -0.064117 0.235722
v -0.075047 -0.070617 0.195722
v -0.026224 0.123908 0.398586
v -0.026224 0.110908 0.358586
v -0.041813 0.114908 0.398586
v -0.030555 0.108408 0.358586
v -0.041813 0.096908 0.398586
v -0.030555 0.103408 0.358586
v -0.026224 0.087908 0.398586
v -0.026224 0.100908 0.358586
v -0.010636 0.096908 0.398586
v -0.021894 0.103408 0.358586
v -0.010636 0.114908 0.398586
v -0.021894 0.108408 0.358586
v -0.000090 0.127278 0.381601
v -0.000090 0.114278 0.341601
v -0.015678 0.118278 0.381601
v -0.004420 0.111778 0.341601
v -0.015678 0.100278 0.381601
v -0.004420 0.106778 0.341601
v -0.000090 0.091278 0.381601
v -0.000090 0.104278 0.341601
v 0.015499 0.100278 0.381601
v 0.004241 0.106778 0.341601
v 0.015499 0.118278 0.381601
v 0.004241 0.111778 0.341601
v -0.017635 0.143099 0.384851
v -0.017635 0.130099 0.344851
v -0.033224 0.134099 0.384851
v -0.021965 0.127599 0.344851
v -0.033224 0.116099 0.384851
v -0.021965 0.122599 0.344851
v -0.017635 0.107099 0.384851
v -0.017635 0.120099 0.344851
v -0.002047 0.116099 0.384851
v -0.013305 0.122599 0.344851
v -0.002047 0.134099 0.384851
v -0.013305 0.127599 0.344851
v -0.015747 0.134907 0.396040
v -0.015747 0.121907 0.356040
v -0.031336 0.125907 0.396040
v -0.020078 0.119407 0.356040
v -0.031336 0.107907 0.396040
v -0.020078 0.114407 0.356040
v -0.015747 0.098907 0.396040
v -0.015747 0.111907 0.356040
v -0.000159 0.107907 0.396040
v -0.011417 0.114407 0.356040
v -0.000159 0.125907 0.396040
v -0.011417 0.119407 0.356040
v 0.120180 -0.034287 0.395758
v 0.120180 -0.047287 0.355758
v 0.104592 -0.043287 0.395758
v 0.115850 -0.049787 0.355758
v 0.104592 -0.061287 0.395758
v 0.115850 -0.054787 0.355758
v 0.120180 -0.070287 0.395758
v 0.120180 -0.057287 0.355758
v 0.135769 -0.061287 0.395758
v 0.124510 -0.054787 0.355758
v 0.135769 -0.043287 0.395758
v 0.124510 -0.049787 0.355758
v 0.103250 -0.034043 0.390392
v 0.103250 -0.047043 0.350392
v 0.087662 -0.043043 0.390392
v 0.098920 -0.049543 0.350392
v 0.087662 -0.061043 0.390392
v 0.098920 -0.054543 0.350392
v 0.103250 -0.070043 0.390392
v 0.103250 -0.057043 0.350392
v 0.118839 -0.061043 0.390392
v 0.107580 -0.054543 0.350392
v 0.118839 -0.043043 0.390392
v 0.107580 -0.049543 0.350392
v 0.106101 -0.032796 0.398919
v 0.106101 -0.045796 0.358919
v 0.090512 -0.041796 0.398919
v 0.101770 -0.048296 0.358919
v 0.090512 -0.059796 0.398919
v 0.101770 -0.053296 0.358919
v 0.106101 -0.068796 0.398919
v 0.106101 -0.055796 0.358919
v 0.121689 -0.059796 0.398919
v 0.110431 -0.053296 0.358919
v 0.121689 -0.041796 0.398919
v 0.110431 -0.048296 0.358919
v 0.108722 -0.034398 0.387010
v 0.108722 -0.047398 0.347010
v 0.093133 -0.043398 0.387010
v 0.104392 -0.049898 0.347010
v 0.093133 -0.061398 0.387010
v 0.104392 -0.054898 0.347010
v 0.108722 -0.070398 0.387010
v 0.108722 -0.057398 0.347010
v 0.124310 -0.061398 0.387010
v 0.113052 -0.054898 0.347010
v 0.124310 -0.043398 0.387010
v 0.113052 -0.049898 0.347010
v -0.092629 -0.028068 0.530751
v -0.092629 -0.041068 0.490751
v -0.108217 -0.037068 0.530751
v -0.096959 -0.043568 0.490751
v -0.108217 -0.055068 0.530751
v -0.096959 -0.048568 0.490751
v -0.092629 -0.064068 0.530751
v -0.092629 -0.051068 0.490751
v -0.077040 -0.055068 0.530751
v -0.088299 -0.048568 0.490751
v -0.077040 -0.037068 0.530751
v -0.088299 -0.043568 0.490751
v -0.103608 -0.030513 0.538362
v -0.103608 -0.043513 0.498362
v -0.119196 -0.039513 0.538362
v -0.107938 -0.046013 0.498362
v -0.119196 -0.057513 0.538362
v -0.107938 -0.051013 0.498362
v -0.103608 -0.066513 0.538362
v -0.103608 -0.053513 0.498362
v -0.088019 -0.057513 0.538362
v -0.099277 -0.051013 0.498362
v -0.088019 -0.039513 0.538362
v -0.099277 -0.046013 0.498362
v -0.085885 -0.036865 0.533516
v -0.085885 -0.049865 0.493516
v -0.101473 -0.045865 0.533516
v -0.090215 -0.052365 0.493516
v -0.101473 -0.063865 0.533516
v -0.090215 -0.057365 0.493516
v -0.085885 -0.072865 0.533516
v -0.085885 -0.059865 0.493516
v -0.070297 -0.063865 0.533516
v -0.081555 -0.057365 0.493516
v -0.070297 -0.045865 0.533516
v -0.081555 -0.052365 0.493516
v -0.092520 -0.041610 0.528243
v -0.092520 -0.054610 0.488243
v -0.108108 -0.050610 0.528243
v -0.096850 -0.057110 0.488243
v -0.108108 -0.068610 0.528243
v -0.096850 -0.062110 0.488243
v -0.092520 -0.077610 0.528243
v -0.092520 -0.064610 0.488243
v -0.076931 -0.068610 0.528243
v -0.088190 -0.062110 0.488243
v -0.076931 -0.050610 0.528243
v -0.088190 -0.057110 0.488243
v -0.002873 0.128708 0.522029
v -0.002873 0.115708 0.482029
v -0.018462 0.119708 0.522029
v -0.007203 0.113208 0.482029
v -0.018462 0.101708 0.522029
v -0.007203 0.108208 0.482029
v -0.002873 0.092708 0.522029
v -0.002873 0.105708 0.482029
v 0.012715 0.101708 0.522029
v 0.001457 0.108208 0.482029
v 0.012715 0.119708 0.522029
v 0.001457 0.113208 0.482029
v 0.004452 0.135950 0.538049
v 0.004452 0.122950 0.498049
v -0.011137 0.126950 0.538049
v 0.000121 0.120450 0.498049
v -0.011137 0.108950 0.538049
v 0.000121 0.115450 0.498049
v 0.004452 0.099950 0.538049
v 0.004452 0.112950 0.498049
v 0.020040 0.108950 0.538049
v 0.008782 0.115450 0.498049
v 0.020040 0.126950 0.538049
v 0.008782 0.120450 0.498049
v 0.008416 0.138740 0.530444
v 0.008416 0.125740 0.490444
v -0.007173 0.129740 0.530444
v 0.004086 0.123240 0.490444
v -0.007173 0.111740 0.530444
v 0.004086 0.118240 0.490444
v 0.008416 0.102740 0.530444
v 0.008416 0.115740 0.490444
v 0.024004 0.111740 0.530444
v 0.012746 0.118240 0.490444
v 0.024004 0.129740 0.530444
v 0.012746 0.123240 0.490444
v -0.000193 0.116233 0.537033
v -0.000193 0.103233 0.497033
v -0.015781 0.107233 0.537033
v -0.004523 0.100733 0.497033
v -0.015781 0.089233 0.537033
v -0.004523 0.095733 0.497033
v -0.000193 0.080233 0.537033
v -0.000193 0.093233 0.497033
v 0.015396 0.089233 0.537033
v 0.004137 0.095733 0.497033
v 0.015396 0.107233 0.537033
v 0.004137 0.100733 0.497033
vn -0.3090 -0.9511 -0.0000
vn -0.8090 -0.5878 -0.0000
vn -1.0000 -0.0000 -0.0000
vn -0.8090 0.5878 -0.0000
vn -0.3090 0.9511 -0.0000
vn 0.3090 0.9511 -0.0000
vn 0.8090 0.5878 -0.0000
vn 1.0000 -0.0000 -0.0000
vn -0.0000 -0.0000 1.0000
vn 0.8090 -0.5878 -0.0000
vn 0.3090 -0.9511 -0.0000
vn -0.0000 -0.0000 -1.0000
vn -0.5000 -0.8660 -0.0000
vn -0.5000 0.8660 -0.0000
vn 0.5000 0.8660 -0.0000
vn 0.5000 -0.8660 -0.0000
vn 0.0885 0.1948 -0.9768
vn -0.0594 0.0343 -0.9976
vn 0.1143 0.0879 -0.9895
vn -0.0190 -0.1430 -0.9895
vn -0.1244 -0.1740 -0.9768
vn -0.3692 0.2131 -0.9046
vn 0.3442 0.7577 -0.5544
vn 0.5602 0.4309 -0.7075
vn -0.0930 -0.7006 -0.7075
vn -0.4841 -0.6770 -0.5544
vn 0.0930 0.7006 0.7075
vn 0.4841 0.6770 0.5544
vn 0.3692 -0.2131 0.9046
vn -0.3442 -0.7577 0.5544
vn -0.5602 -0.4309 0.7075
vn 0.0190 0.1430 0.9895
vn 0.1244 0.1740 0.9768
vn 0.0594 -0.0343 0.9976
vn -0.0885 -0.1948 0.9768
vn -0.1143 -0.0879 0.9895
vn 0.0351 0.2110 -0.9768
vn -0.0663 0.0178 -0.9976
vn 0.0877 0.1145 -0.9895
vn 0.0187 -0.1430 -0.9895
vn -0.0752 -0.2003 -0.9768
vn -0.4117 0.1103 -0.9046
vn 0.1364 0.8210 -0.5544
vn 0.4296 0.5612 -0.7075
vn 0.0915 -0.7008 -0.7075
vn -0.2924 -0.7792 -0.5544
vn -0.0915 0.7008 0.7075
vn 0.2924 0.7792 0.5544
vn 0.4118 -0.1103 0.9046
vn -0.1364 -0.8210 0.5544
vn -0.4296 -0.5612 0.7075
vn -0.0187 0.1430 0.9895
vn 0.0752 0.2003 0.9768
vn 0.0663 -0.0178 0.9976
vn -0.0351 -0.2110 0.9768
vn -0.0877 -0.1145 0.9895
vn -0.0208 0.2129 -0.9768
vn -0.0686 -0.0000 -0.9976
vn 0.0550 0.1333 -0.9895
vn 0.0550 -0.1333 -0.9895
vn -0.0208 -0.2129 -0.9768
vn -0.4263 -0.0000 -0.9046
vn -0.0807 0.8283 -0.5544
vn 0.2697 0.6532 -0.7075
vn 0.2697 -0.6532 -0.7075
vn -0.0807 -0.8283 -0.5544
vn -0.2697 0.6532 0.7075
vn 0.0807 0.8283 0.5544
vn 0.4263 -0.0000 0.9046
vn 0.0807 -0.8283 0.5544
vn -0.2697 -0.6532 0.7075
vn -0.0550 0.1333 0.9895
vn 0.0208 0.2129 0.9768
vn 0.0686 -0.0000 0.9976
vn 0.0208 -0.2129 0.9768
vn -0.0550 -0.1333 0.9895
vn -0.0752 0.2003 -0.9768
vn -0.0663 -0.0178 -0.9976
vn 0.0187 0.1430 -0.9895
vn 0.0877 -0.1145 -0.9895
vn 0.0351 -0.2110 -0.9768
vn -0.4117 -0.1103 -0.9046
vn -0.2924 0.7792 -0.5544
vn 0.0915 0.7008 -0.7075
vn 0.4296 -0.5612 -0.7075
vn 0.1364 -0.8210 -0.5544
vn -0.4296 0.5612 0.7075
vn -0.1364 0.8210 0.5544
vn 0.4118 0.1103 0.9046
vn 0.2924 -0.7792 0.5544
vn -0.0915 -0.7008 0.7075
vn -0.0877 0.1145 0.9895
vn -0.0351 0.2110 0.9768
vn 0.0663 0.0178 0.9976
vn 0.0752 -0.2003 0.9768
vn -0.0187 -0.1430 0.9895
vn -0.1244 0.1740 -0.9768
vn -0.0594 -0.0343 -0.9976
vn -0.0190 0.1430 -0.9895
vn 0.1143 -0.0879 -0.9895
vn 0.0885 -0.1948 -0.9768
vn -0.3692 -0.2131 -0.9046
vn -0.4841 0.6770 -0.5544
vn -0.0930 0.7006 -0.7075
vn 0.5602 -0.4309 -0.7075
vn 0.3442 -0.7577 -0.5544
vn -0.5602 0.4309 0.7075
vn -0.3442 0.7577 0.5544
vn 0.3692 0.2131 0.9046
vn 0.4841 -0.6770 0.5544
vn 0.0930 -0.7006 0.7075
vn -0.1143 0.0879 0.9895
vn -0.0885 0.1948 0.9768
vn 0.0594 0.0343 0.9976
vn 0.1244 -0.1740 0.9768
vn 0.0190 -0.1430 0.9895
vn -0.0885 -0.1948 -0.9768
vn 0.0594 -0.0343 -0.9976
vn -0.1143 -0.0879 -0.9895
vn 0.0190 0.1430 -0.9895
vn 0.1244 0.1740 -0.9768
vn 0.3692 -0.2131 -0.9046
vn -0.3442 -0.7577 -0.5544
vn -0.5602 -0.4309 -0.7075
vn 0.0930 0.7006 -0.7075
vn 0.4841 0.6770 -0.5544
vn -0.0930 -0.7006 0.7075
vn -0.4841 -0.6770 0.5544
vn -0.3692 0.2131 0.9046
vn 0.3442 0.7577 0.5544
vn 0.5602 0.4309 0.7075
vn -0.0190 -0.1430 0.9895
vn -0.1244 -0.1740 0.9768
vn -0.0594 0.0343 0.9976
vn 0.0885 0.1948 0.9768
vn 0.1143 0.0879 0.9895
vn -0.0351 -0.2110 -0.9768
vn 0.0663 -0.0178 -0.9976
vn -0.0877 -0.1145 -0.9895
vn -0.0187 0.1430 -0.9895
vn 0.0752 0.2003 -0.9768
vn 0.4117 -0.1103 -0.9046
vn -0.1364 -0.8210 -0.5544
vn -0.4296 -0.5612 -0.7075
vn -0.0915 0.7008 -0.7075
vn 0.2924 0.7792 -0.5544
vn 0.0915 -0.7008 0.7075
vn -0.2924 -0.7792 0.5544
vn -0.4118 0.1103 0.9046
vn 0.1364 0.8210 0.5544
vn 0.4296 0.5612 0.7075
vn 0.0187 -0.1430 0.9895
vn -0.0752 -0.2003 0.9768
vn -0.0663 0.0178 0.9976
vn 0.0351 0.2110 0.9768
vn 0.0877 0.1145 0.9895
vn 0.0208 -0.2129 -0.9768
vn 0.0686 -0.0000 -0.9976
vn -0.0550 -0.1333 -0.9895
vn -0.0550 0.1333 -0.9895
vn 0.0208 0.2129 -0.9768
vn 0.4263 -0.0000 -0.9046
vn 0.0807 -0.8283 -0.5544
vn -0.2697 -0.6532 -0.7075
vn -0.2697 0.6532 -0.7075
vn 0.0807 0.8283 -0.5544
vn 0.2697 -0.6532 0.7075
vn -0.0807 -0.8283 0.5544
vn -0.4263 -0.0000 0.9046
vn -0.0807 0.8283 0.5544
vn 0.2697 0.6532 0.7075
vn 0.0550 -0.1333 0.9895
vn -0.0208 -0.2129 0.9768
vn -0.0686 -0.0000 0.9976
vn -0.0208 0.2129 0.9768
vn 0.0550 0.1333 0.9895
vn 0.0752 -0.2003 -0.9768
vn 0.0663 0.0178 -0.9976
vn -0.0187 -0.1430 -0.9895
vn -0.0877 0.1145 -0.9895
vn -0.0351 0.2110 -0.9768
vn 0.4117 0.1103 -0.9046
vn 0.2924 -0.7792 -0.5544
vn -0.0915 -0.7008 -0.7075
vn -0.4296 0.5612 -0.7075
vn -0.1364 0.8210 -0.5544
vn 0.4296 -0.5612 0.7075
vn 0.1364 -0.8210 0.5544
vn -0.4118 -0.1103 0.9046
vn -0.2924 0.7792 0.5544
vn 0.0915 0.7008 0.7075
vn 0.0877 -0.1145 0.9895
vn 0.0351 -0.2110 0.9768
vn -0.0663 -0.0178 0.9976
vn -0.0752 0.2003 0.9768
vn 0.0187 0.1430 0.9895
vn 0.1244 -0.1740 -0.9768
vn 0.0594 0.0343 -0.9976
vn 0.0190 -0.1430 -0.9895
vn -0.1143 0.0879 -0.9895
vn -0.0885 0.1948 -0.9768
vn 0.3692 0.2131 -0.9046
vn 0.4841 -0.6770 -0.5544
vn 0.0930 -0.7006 -0.7075
vn -0.5602 0.4309 -0.7075
vn -0.3442 0.7577 -0.5544
vn 0.5602 -0.4309 0.7075
vn 0.3442 -0.7577 0.5544
vn -0.3692 -0.2131 0.9046
vn -0.4841 0.6770 0.5544
vn -0.0930 0.7006 0.7075
vn 0.1143 -0.0879 0.9895
vn 0.0885 -0.1948 0.9768
vn -0.0594 -0.0343 0.9976
vn -0.1244 0.1740 0.9768
vn -0.0190 0.1430 0.9895
vn -0.2126 0.0240 -0.9769
vn -0.0143 -0.0671 -0.9976
vn -0.1189 0.0816 -0.9895
vn 0.1418 0.0261 -0.9895
vn 0.2039 -0.0646 -0.9768
vn -0.0886 -0.4170 -0.9046
vn -0.8270 0.0932 -0.5544
vn -0.5829 0.3996 -0.7075
vn 0.6950 0.1280 -0.7075
vn 0.7934 -0.2512 -0.5544
vn -0.6950 -0.1280 0.7075
vn -0.7934 0.2512 0.5544
vn 0.0886 0.4170 0.9046
vn 0.8270 -0.0932 0.5544
vn 0.5829 -0.3997 0.7075
vn -0.1418 -0.0261 0.9895
vn -0.2040 0.0646 0.9768
vn 0.0143 0.0671 0.9976
vn 0.2126 -0.0240 0.9768
vn 0.1189 -0.0816 0.9895
vn -0.2115 -0.0319 -0.9768
vn 0.0036 -0.0685 -0.9976
vn -0.1360 0.0480 -0.9895
vn 0.1302 0.0619 -0.9895
vn 0.2137 -0.0096 -0.9768
vn 0.0223 -0.4257 -0.9046
vn -0.8229 -0.1240 -0.5544
vn -0.6665 0.2352 -0.7075
vn 0.6382 0.3035 -0.7075
vn 0.8314 -0.0373 -0.5544
vn -0.6382 -0.3035 0.7075
vn -0.8314 0.0373 0.5544
vn -0.0223 0.4257 0.9046
vn 0.8229 0.1240 0.5544
vn 0.6665 -0.2352 0.7075
vn -0.1302 -0.0619 0.9895
vn -0.2137 0.0096 0.9768
vn -0.0036 0.0685 0.9976
vn 0.2115 0.0319 0.9768
vn 0.1360 -0.0480 0.9895
vn -0.1961 -0.0855 -0.9768
vn 0.0212 -0.0652 -0.9976
vn -0.1438 0.0112 -0.9895
vn 0.1098 0.0935 -0.9895
vn 0.2089 0.0461 -0.9769
vn 0.1317 -0.4054 -0.9046
vn -0.7628 -0.3327 -0.5544
vn -0.7046 0.0547 -0.7075
vn 0.5379 0.4584 -0.7075
vn 0.8127 0.1792 -0.5544
vn -0.5379 -0.4584 0.7075
vn -0.8127 -0.1792 0.5544
vn -0.1317 0.4054 0.9046
vn 0.7628 0.3327 0.5544
vn 0.7046 -0.0547 0.7075
vn -0.1098 -0.0935 0.9895
vn -0.2089 -0.0461 0.9769
vn -0.0212 0.0652 0.9976
vn 0.1961 0.0855 0.9768
vn 0.1438 -0.0112 0.9895
vn -0.1673 -0.1334 -0.9768
vn 0.0374 -0.0575 -0.9976
vn -0.1418 -0.0264 -0.9895
vn 0.0818 0.1188 -0.9895
vn 0.1899 0.0986 -0.9768
vn 0.2322 -0.3575 -0.9046
vn -0.6507 -0.5188 -0.5544
vn -0.6948 -0.1296 -0.7075
vn 0.4010 0.5820 -0.7075
vn 0.7386 0.3834 -0.5544
vn -0.4010 -0.5820 0.7075
vn -0.7386 -0.3834 0.5544
vn -0.2322 0.3575 0.9046
vn 0.6507 0.5188 0.5544
vn 0.6948 0.1296 0.7075
vn -0.0818 -0.1188 0.9895
vn -0.1899 -0.0986 0.9768
vn -0.0374 0.0575 0.9976
vn 0.1673 0.1334 0.9768
vn 0.1418 0.0264 0.9895
vn -0.1270 -0.1721 -0.9768
vn 0.0510 -0.0459 -0.9976
vn -0.1301 -0.0622 -0.9895
vn 0.0483 0.1359 -0.9895
vn 0.1579 0.1443 -0.9768
vn 0.3168 -0.2852 -0.9046
vn -0.4942 -0.6696 -0.5544
vn -0.6376 -0.3050 -0.7075
vn 0.2367 0.6659 -0.7075
vn 0.6142 0.5615 -0.5544
vn -0.2367 -0.6659 0.7075
vn -0.6142 -0.5615 0.5544
vn -0.3168 0.2852 0.9046
vn 0.4942 0.6696 0.5544
vn 0.6376 0.3050 0.7075
vn -0.0483 -0.1359 0.9895
vn -0.1579 -0.1443 0.9768
vn -0.0510 0.0459 0.9976
vn 0.1270 0.1721 0.9768
vn 0.1301 0.0622 0.9895
vn 0.2126 -0.0240 -0.9769
vn 0.0143 0.0671 -0.9976
vn 0.1189 -0.0816 -0.9895
vn -0.1418 -0.0261 -0.9895
vn -0.2039 0.0646 -0.9768
vn 0.0886 0.4170 -0.9046
vn 0.8270 -0.0932 -0.5544
vn 0.5829 -0.3997 -0.7075
vn -0.6950 -0.1280 -0.7075
vn -0.7934 0.2512 -0.5544
vn 0.6950 0.1280 0.7075
vn 0.7934 -0.2512 0.5544
vn -0.0886 -0.4170 0.9046
vn -0.8270 0.0932 0.5544
vn -0.5829 0.3997 0.7075
vn 0.1418 0.0261 0.9895
vn 0.2040 -0.0646 0.9768
vn -0.0143 -0.0671 0.9976
vn -0.2126 0.0240 0.9768
vn -0.1189 0.0816 0.9895
vn 0.2115 0.0319 -0.9768
vn -0.0036 0.0685 -0.9976
vn 0.1360 -0.0480 -0.9895
vn -0.1302 -0.0619 -0.9895
vn -0.2137 0.0096 -0.9768
vn -0.0223 0.4257 -0.9046
vn 0.8229 0.1240 -0.5544
vn 0.6665 -0.2352 -0.7075
vn -0.6382 -0.3035 -0.7075
vn -0.8314 0.0373 -0.5544
vn 0.6382 0.3035 0.7075
vn 0.8314 -0.0373 0.5544
vn 0.0223 -0.4257 0.9046
vn -0.8229 -0.1240 0.5544
vn -0.6665 0.2352 0.7075
vn 0.1302 0.0619 0.9895
vn 0.2137 -0.0096 0.9768
vn 0.0036 -0.0685 0.9976
vn -0.2115 -0.0319 0.9768
vn -0.1360 0.0480 0.9895
vn 0.1961 0.0855 -0.9768
vn -0.0212 0.0652 -0.9976
vn 0.1438 -0.0112 -0.9895
vn -0.1098 -0.0935 -0.9895
vn -0.2089 -0.0461 -0.9769
vn -0.1317 0.4054 -0.9046
vn 0.7628 0.3327 -0.5544
vn 0.7046 -0.0547 -0.7075
vn -0.5379 -0.4584 -0.7075
vn -0.8127 -0.1792 -0.5544
vn 0.5379 0.4584 0.7075
vn 0.8127 0.1792 0.5544
vn 0.1317 -0.4054 0.9046
vn -0.7628 -0.3327 0.5544
vn -0.7046 0.0547 0.7075
vn 0.1098 0.0935 0.9895
vn 0.2089 0.0461 0.9768
vn 0.0212 -0.0652 0.9976
vn -0.1961 -0.0855 0.9768
vn -0.1438 0.0112 0.9895
vn 0.1673 0.1334 -0.9768
vn -0.0374 0.0575 -0.9976
vn 0.1418 0.0264 -0.9895
vn -0.0818 -0.1188 -0.9895
vn -0.1899 -0.0986 -0.9768
vn -0.2322 0.3575 -0.9046
vn 0.6507 0.5188 -0.5544
vn 0.6948 0.1296 -0.7075
vn -0.4010 -0.5820 -0.7075
vn -0.7386 -0.3834 -0.5544
vn 0.4010 0.5820 0.7075
vn 0.7386 0.3834 0.5544
vn 0.2322 -0.3575 0.9046
vn -0.6507 -0.5188 0.5544
vn -0.6948 -0.1296 0.7075
vn 0.0818 0.1188 0.9895
vn 0.1899 0.0986 0.9768
vn 0.0374 -0.0575 0.9976
vn -0.1673 -0.1334 0.9768
vn -0.1418 -0.0264 0.9895
vn 0.1270 0.1721 -0.9768
vn -0.0510 0.0459 -0.9976
vn 0.1301 0.0622 -0.9895
vn -0.0483 -0.1359 -0.9895
vn -0.1579 -0.1443 -0.9768
vn -0.3168 0.2852 -0.9046
vn 0.4942 0.6696 -0.5544
vn 0.6376 0.3050 -0.7075
vn -0.2367 -0.6659 -0.7075
vn -0.6142 -0.5615 -0.5544
vn 0.2367 0.6659 0.7075
vn 0.6142 0.5615 0.5544
vn 0.3168 -0.2852 0.9046
vn -0.4942 -0.6696 0.5544
vn -0.6376 -0.3050 0.7075
vn 0.0483 0.1359 0.9895
vn 0.1579 0.1443 0.9768
vn 0.0510 -0.0459 0.9976
vn -0.1270 -0.1721 0.9768
vn -0.1301 -0.0622 0.9895
vn 0.0429 -0.2096 -0.9768
vn 0.0682 0.0072 -0.9976
vn -0.0408 -0.1383 -0.9895
vn -0.0687 0.1268 -0.9895
vn -0.0016 0.2139 -0.9768
vn 0.4239 0.0446 -0.9046
vn 0.1669 -0.8153 -0.5544
vn -0.2000 -0.6779 -0.7075
vn -0.3365 0.6215 -0.7075
vn -0.0063 0.8322 -0.5544
vn 0.3365 -0.6215 0.7075
vn 0.0063 -0.8322 0.5544
vn -0.4239 -0.0446 0.9046
vn -0.1669 0.8153 0.5544
vn 0.2000 0.6779 0.7075
vn 0.0687 -0.1268 0.9895
vn 0.0016 -0.2139 0.9768
vn -0.0682 -0.0072 0.9976
vn -0.0429 0.2096 0.9768
vn 0.0408 0.1383 0.9895
vn 0.0957 -0.1913 -0.9768
vn 0.0640 0.0246 -0.9976
vn -0.0036 -0.1442 -0.9895
vn -0.0992 0.1047 -0.9895
vn -0.0569 0.2062 -0.9768
vn 0.3980 0.1528 -0.9046
vn 0.3722 -0.7444 -0.5544
vn -0.0177 -0.7065 -0.7075
vn -0.4859 0.5132 -0.7075
vn -0.2215 0.8022 -0.5544
vn 0.4859 -0.5132 0.7075
vn 0.2215 -0.8022 0.5544
vn -0.3980 -0.1528 0.9046
vn -0.3722 0.7444 0.5544
vn 0.0177 0.7065 0.7075
vn 0.0992 -0.1047 0.9895
vn 0.0569 -0.2062 0.9768
vn -0.0640 -0.0246 0.9976
vn -0.0957 0.1913 0.9768
vn 0.0036 0.1442 0.9895
vn 0.1419 -0.1601 -0.9768
vn 0.0555 0.0403 -0.9976
vn 0.0338 -0.1402 -0.9895
vn -0.1229 0.0755 -0.9895
vn -0.1084 0.1845 -0.9768
vn 0.3449 0.2506 -0.9046
vn 0.5522 -0.6226 -0.5544
vn 0.1658 -0.6870 -0.7075
vn -0.6022 0.3699 -0.7075
vn -0.4215 0.7176 -0.5544
vn 0.6022 -0.3699 0.7075
vn 0.4215 -0.7176 0.5544
vn -0.3449 -0.2506 0.9046
vn -0.5522 0.6227 0.5544
vn -0.1658 0.6870 0.7075
vn 0.1229 -0.0755 0.9895
vn 0.1084 -0.1845 0.9768
vn -0.0555 -0.0403 0.9976
vn -0.1419 0.1601 0.9768
vn -0.0338 0.1402 0.9895
vn 0.1785 -0.1179 -0.9768
vn 0.0432 0.0533 -0.9976
vn 0.0690 -0.1267 -0.9895
vn -0.1382 0.0411 -0.9895
vn -0.1524 0.1501 -0.9768
vn 0.2683 0.3313 -0.9046
vn 0.6945 -0.4585 -0.5544
vn 0.3379 -0.6207 -0.7075
vn -0.6774 0.2015 -0.7075
vn -0.5929 0.5840 -0.5544
vn 0.6774 -0.2015 0.7075
vn 0.5929 -0.5840 0.5544
vn -0.2683 -0.3313 0.9046
vn -0.6945 0.4585 0.5544
vn -0.3379 0.6207 0.7075
vn 0.1382 -0.0411 0.9895
vn 0.1524 -0.1501 0.9768
vn -0.0432 -0.0533 0.9976
vn -0.1785 0.1179 0.9768
vn -0.0690 0.1267 0.9895
vn 0.2030 -0.0676 -0.9768
vn 0.0279 0.0627 -0.9976
vn 0.0994 -0.1045 -0.9895
vn -0.1442 0.0039 -0.9895
vn -0.1861 0.1056 -0.9768
vn 0.1734 0.3894 -0.9046
vn 0.7895 -0.2631 -0.5544
vn 0.4871 -0.5121 -0.7075
vn -0.7065 0.0193 -0.7075
vn -0.7239 0.4107 -0.5544
vn 0.7065 -0.0193 0.7075
vn 0.7239 -0.4107 0.5544
vn -0.1734 -0.3894 0.9046
vn -0.7895 0.2631 0.5544
vn -0.4871 0.5121 0.7075
vn 0.1442 -0.0039 0.9895
vn 0.1861 -0.1056 0.9768
vn -0.0279 -0.0627 0.9976
vn -0.2030 0.0676 0.9768
vn -0.0994 0.1045 0.9895
vn -0.0429 0.2096 -0.9768
vn -0.0682 -0.0072 -0.9976
vn 0.0408 0.1383 -0.9895
vn 0.0687 -0.1268 -0.9895
vn 0.0016 -0.2139 -0.9768
vn -0.4239 -0.0446 -0.9046
vn -0.1669 0.8153 -0.5544
vn 0.2000 0.6779 -0.7075
vn 0.3365 -0.6215 -0.7075
vn 0.0063 -0.8322 -0.5544
vn -0.3365 0.6215 0.7075
vn -0.0063 0.8322 0.5544
vn 0.4239 0.0446 0.9046
vn 0.1669 -0.8153 0.5544
vn -0.2000 -0.6779 0.7075
vn -0.0687 0.1268 0.9895
vn -0.0016 0.2139 0.9768
vn 0.0682 0.0072 0.9976
vn 0.0429 -0.2096 0.9768
vn -0.0408 -0.1383 0.9895
vn -0.0957 0.1913 -0.9768
vn -0.0640 -0.0246 -0.9976
vn 0.0036 0.1442 -0.9895
vn 0.0992 -0.1047 -0.9895
vn 0.0569 -0.2062 -0.9768
vn -0.3980 -0.1528 -0.9046
vn -0.3722 0.7444 -0.5544
vn 0.0177 0.7065 -0.7075
vn 0.4859 -0.5132 -0.7075
vn 0.2215 -0.8022 -0.5544
vn -0.4859 0.5132 0.7075
vn -0.2215 0.8022 0.5544
vn 0.3980 0.1528 0.9046
vn 0.3722 -0.7444 0.5544
vn -0.0177 -0.7065 0.7075
vn -0.0992 0.1047 0.9895
vn -0.0569 0.2062 0.9768
vn 0.0640 0.0246 0.9976
vn 0.0957 -0.1913 0.9768
vn -0.0036 -0.1442 0.9895
vn -0.1419 0.1601 -0.9768
vn -0.0555 -0.0403 -0.9976
vn -0.0338 0.1402 -0.9895
vn 0.1229 -0.0755 -0.9895
vn 0.1084 -0.1845 -0.9768
vn -0.3449 -0.2506 -0.9046
vn -0.5522 0.6227 -0.5544
vn -0.1658 0.6870 -0.7075
vn 0.6022 -0.3699 -0.7075
vn 0.4215 -0.7176 -0.5544
vn -0.6022 0.3699 0.7075
vn -0.4215 0.7176 0.5544
vn 0.3449 0.2506 0.9046
vn 0.5522 -0.6227 0.5544
vn 0.1658 -0.6870 0.7075
vn -0.1229 0.0755 0.9895
vn -0.1084 0.1845 0.9768
vn 0.0555 0.0403 0.9976
vn 0.1419 -0.1601 0.9768
vn 0.0338 -0.1402 0.9895
vn -0.1785 0.1179 -0.9768
vn -0.0432 -0.0533 -0.9976
vn -0.0690 0.1267 -0.9895
vn 0.1382 -0.0411 -0.9895
vn 0.1524 -0.1501 -0.9768
vn -0.2683 -0.3313 -0.9046
vn -0.6945 0.4585 -0.5544
vn -0.3379 0.6207 -0.7075
vn 0.6774 -0.2015 -0.7075
vn 0.5929 -0.5840 -0.5544
vn -0.6774 0.2015 0.7075
vn -0.5929 0.5840 0.5544
vn 0.2683 0.3313 0.9046
vn 0.6945 -0.4585 0.5544
vn 0.3379 -0.6207 0.7075
vn -0.1382 0.0411 0.9895
vn -0.1524 0.1501 0.9768
vn 0.0432 0.0533 0.9976
vn 0.1785 -0.1179 0.9768
vn 0.0690 -0.1267 0.9895
vn -0.2030 0.0676 -0.9768
vn -0.0279 -0.0627 -0.9976
vn -0.0994 0.1045 -0.9895
vn 0.1442 -0.0039 -0.9895
vn 0.1861 -0.1056 -0.9768
vn -0.1734 -0.3894 -0.9046
vn -0.7895 0.2631 -0.5544
vn -0.4871 0.5121 -0.7075
vn 0.7065 -0.0193 -0.7075
vn 0.7239 -0.4107 -0.5544
vn -0.7065 0.0193 0.7075
vn -0.7239 0.4107 0.5544
vn 0.1734 0.3894 0.9046
vn 0.7895 -0.2631 0.5544
vn 0.4871 -0.5121 0.7075
vn -0.1442 0.0039 0.9895
vn -0.1861 0.1056 0.9768
vn 0.0279 0.0627 0.9976
vn 0.2030 -0.0676 0.9768
vn 0.0994 -0.1045 0.9895
vn 0.1861 0.1056 -0.9768
vn -0.0279 0.0627 -0.9976
vn 0.1442 0.0039 -0.9895
vn -0.0994 -0.1045 -0.9895
vn -0.2030 -0.0676 -0.9769
vn -0.1734 0.3894 -0.9046
vn 0.7239 0.4107 -0.5544
vn 0.7065 0.0193 -0.7075
vn -0.4871 -0.5121 -0.7075
vn -0.7895 -0.2631 -0.5544
vn 0.4871 0.5121 0.7075
vn 0.7895 0.2631 0.5544
vn 0.1734 -0.3894 0.9046
vn -0.7238 -0.4107 0.5544
vn -0.7065 -0.0193 0.7075
vn 0.0994 0.1045 0.9895
vn 0.2030 0.0676 0.9768
vn 0.0279 -0.0627 0.9976
vn -0.1861 -0.1056 0.9768
vn -0.1442 -0.0039 0.9895
vn 0.1524 0.1501 -0.9768
vn -0.0432 0.0533 -0.9976
vn 0.1382 0.0411 -0.9895
vn -0.0690 -0.1267 -0.9895
vn -0.1785 -0.1179 -0.9768
vn -0.2683 0.3313 -0.9046
vn 0.5929 0.5840 -0.5544
vn 0.6774 0.2015 -0.7075
vn -0.3379 -0.6207 -0.7075
vn -0.6945 -0.4585 -0.5544
vn 0.3379 0.6207 0.7075
vn 0.6945 0.4585 0.5544
vn 0.2683 -0.3313 0.9046
vn -0.5929 -0.5840 0.5544
vn -0.6774 -0.2015 0.7075
vn 0.0690 0.1267 0.9895
vn 0.1785 0.1179 0.9768
vn 0.0432 -0.0533 0.9976
vn -0.1524 -0.1501 0.9768
vn -0.1382 -0.0411 0.9895
vn 0.1084 0.1845 -0.9768
vn -0.0555 0.0403 -0.9976
vn 0.1229 0.0755 -0.9895
vn -0.0338 -0.1402 -0.9895
vn -0.1419 -0.1601 -0.9768
vn -0.3449 0.2506 -0.9046
vn 0.4215 0.7176 -0.5544
vn 0.6022 0.3699 -0.7075
vn -0.1658 -0.6870 -0.7075
vn -0.5522 -0.6227 -0.5544
vn 0.1658 0.6870 0.7075
vn 0.5522 0.6227 0.5544
vn 0.3449 -0.2506 0.9046
vn -0.4215 -0.7176 0.5544
vn -0.6022 -0.3699 0.7075
vn 0.0338 0.1402 0.9895
vn 0.1419 0.1601 0.9768
vn 0.0555 -0.0403 0.9976
vn -0.1084 -0.1845 0.9768
vn -0.1229 -0.0755 0.9895
vn 0.0569 0.2062 -0.9768
vn -0.0640 0.0246 -0.9976
vn 0.0992 0.1047 -0.9895
vn 0.0036 -0.1442 -0.9895
vn -0.0957 -0.1913 -0.9768
vn -0.3980 0.1528 -0.9046
vn 0.2215 0.8022 -0.5544
vn 0.4859 0.5132 -0.7075
vn 0.0177 -0.7065 -0.7075
vn -0.3722 -0.7444 -0.5544
vn -0.0177 0.7065 0.7075
vn 0.3722 0.7444 0.5544
vn 0.3980 -0.1528 0.9046
vn -0.2215 -0.8022 0.5544
vn -0.4859 -0.5132 0.7075
vn -0.0036 0.1442 0.9895
vn 0.0957 0.1913 0.9768
vn 0.0640 -0.0246 0.9976
vn -0.0569 -0.2062 0.9768
vn -0.0992 -0.1047 0.9895
vn 0.0016 0.2139 -0.9768
vn -0.0682 0.0072 -0.9976
vn 0.0687 0.1268 -0.9895
vn 0.0408 -0.1383 -0.9895
vn -0.0429 -0.2096 -0.9768
vn -0.4239 0.0446 -0.9046
vn 0.0063 0.8322 -0.5544
vn 0.3365 0.6215 -0.7075
vn 0.2000 -0.6779 -0.7075
vn -0.1669 -0.8153 -0.5544
vn -0.2000 0.6779 0.7075
vn 0.1669 0.8153 0.5544
vn 0.4239 -0.0446 0.9046
vn -0.0063 -0.8322 0.5544
vn -0.3365 -0.6215 0.7075
vn -0.0408 0.1383 0.9895
vn 0.0429 0.2096 0.9768
vn 0.0682 -0.0072 0.9976
vn -0.0016 -0.2139 0.9768
vn -0.0687 -0.1268 0.9895
vn -0.1861 -0.1056 -0.9768
vn 0.0279 -0.0627 -0.9976
vn -0.1442 -0.0039 -0.9895
vn 0.0994 0.1045 -0.9895
vn 0.2030 0.0676 -0.9769
vn 0.1734 -0.3894 -0.9046
vn -0.7239 -0.4107 -0.5544
vn -0.7065 -0.0193 -0.7075
vn 0.4871 0.5121 -0.7075
vn 0.7895 0.2631 -0.5544
vn -0.4871 -0.5121 0.7075
vn -0.7895 -0.2631 0.5544
vn -0.1734 0.3894 0.9046
vn 0.7239 0.4107 0.5544
vn 0.7065 0.0193 0.7075
vn -0.0994 -0.1045 0.9895
vn -0.2030 -0.0676 0.9768
vn -0.0279 0.0627 0.9976
vn 0.1861 0.1056 0.9768
vn 0.1442 0.0039 0.9895
vn -0.1524 -0.1501 -0.9768
vn 0.0432 -0.0533 -0.9976
vn -0.1382 -0.0411 -0.9895
vn 0.0690 0.1267 -0.9895
vn 0.1785 0.1179 -0.9768
vn 0.2683 -0.3313 -0.9046
vn -0.5929 -0.5840 -0.5544
vn -0.6774 -0.2015 -0.7075
vn 0.3379 0.6207 -0.7075
vn 0.6945 0.4585 -0.5544
vn -0.3379 -0.6207 0.7075
vn -0.6945 -0.4585 0.5544
vn -0.2683 0.3313 0.9046
vn 0.5929 0.5840 0.5544
vn 0.6774 0.2015 0.7075
vn -0.0690 -0.1267 0.9895
vn -0.1785 -0.1179 0.9768
vn -0.0432 0.0533 0.9976
vn 0.1524 0.1501 0.9768
vn 0.1382 0.0411 0.9895
vn -0.1084 -0.1845 -0.9768
vn 0.0555 -0.0403 -0.9976
vn -0.1229 -0.0755 -0.9895
vn 0.0338 0.1402 -0.9895
vn 0.1419 0.1601 -0.9768
vn 0.3449 -0.2506 -0.9046
vn -0.4215 -0.7176 -0.5544
vn -0.6022 -0.3699 -0.7075
vn 0.1658 0.6870 -0.7075
vn 0.5522 0.6227 -0.5544
vn -0.1658 -0.6870 0.7075
vn -0.5522 -0.6227 0.5544
vn -0.3449 0.2506 0.9046
vn 0.4215 0.7176 0.5544
vn 0.6022 0.3699 0.7075
vn -0.0338 -0.1402 0.9895
vn -0.1419 -0.1601 0.9768
vn -0.0555 0.0403 0.9976
vn 0.1084 0.1845 0.9768
vn 0.1229 0.0755 0.9895
vn -0.0569 -0.2062 -0.9768
vn 0.0640 -0.0246 -0.9976
vn -0.0992 -0.1047 -0.9895
vn -0.0036 0.1442 -0.9895
vn 0.0957 0.1913 -0.9768
vn 0.3980 -0.1528 -0.9046
vn -0.2215 -0.8022 -0.5544
vn -0.4859 -0.5132 -0.7075
vn -0.0177 0.7065 -0.7075
vn 0.3722 0.7444 -0.5544
vn 0.0177 -0.7065 0.7075
vn -0.3722 -0.7444 0.5544
vn -0.3980 0.1528 0.9046
vn 0.2215 0.8022 0.5544
vn 0.4859 0.5132 0.7075
vn 0.0036 -0.1442 0.9895
vn -0.0957 -0.1913 0.9768
vn -0.0640 0.0246 0.9976
vn 0.0569 0.2062 0.9768
vn 0.0992 0.1047 0.9895
vn -0.0016 -0.2139 -0.9768
vn 0.0682 -0.0072 -0.9976
vn -0.0687 -0.1268 -0.9895
vn -0.0408 0.1383 -0.9895
vn 0.0429 0.2096 -0.9768
vn 0.4239 -0.0446 -0.9046
vn -0.0063 -0.8322 -0.5544
vn -0.3365 -0.6215 -0.7075
vn -0.2000 0.6779 -0.7075
vn 0.1669 0.8153 -0.5544
vn 0.2000 -0.6779 0.7075
vn -0.1669 -0.8153 0.5544
vn -0.4239 0.0446 0.9046
vn 0.0063 0.8322 0.5544
vn 0.3365 0.6215 0.7075
vn 0.0408 -0.1383 0.9895
vn -0.0429 -0.2096 0.9768
vn -0.0682 0.0072 0.9976
vn 0.0016 0.2139 0.9768
vn 0.0687 0.1268 0.9895
vn -0.4813 0.8336 -0.2709
vn -0.9626 -0.0000 -0.2709
vn -0.4813 -0.8336 -0.2709
vn 0.4813 -0.8336 -0.2709
vn 0.9626 -0.0000 -0.2709
vn 0.4813 0.8336 -0.2709
vt 1.000000 0.500000
vt 1.000000 1.000000
vt 0.900000 1.000000
vt 0.900000 0.500000
vt 0.800000 1.000000
vt 0.800000 0.500000
vt 0.700000 1.000000
vt 0.700000 0.500000
vt 0.600000 1.000000
vt 0.600000 0.500000
vt 0.500000 1.000000
vt 0.500000 0.500000
vt 0.400000 1.000000
vt 0.400000 0.500000
vt 0.300000 1.000000
vt 0.300000 0.500000
vt 0.200000 1.000000
vt 0.200000 0.500000
vt 0.391068 0.444164
vt 0.250000 0.490000
vt 0.108932 0.444164
vt 0.021746 0.324164
vt 0.021746 0.175836
vt 0.108932 0.055836
vt 0.250000 0.010000
vt 0.391068 0.055836
vt 0.478254 0.175836
vt 0.478254 0.324164
vt 0.100000 1.000000
vt 0.100000 0.500000
vt -0.000000 1.000000
vt -0.000000 0.500000
vt 0.750000 0.490000
vt 0.891068 0.444164
vt 0.978254 0.324164
vt 0.978254 0.175836
vt 0.891068 0.055836
vt 0.750000 0.010000
vt 0.608932 0.055836
vt 0.521746 0.175836
vt 0.521746 0.324164
vt 0.608932 0.444164
vt 0.833333 1.000000
vt 0.833333 0.500000
vt 0.666667 1.000000
vt 0.666667 0.500000
vt 0.500000 1.000000
vt 0.500000 0.500000
vt 0.333333 1.000000
vt 0.333333 0.500000
vt 0.457846 0.370000
vt 0.042154 0.370000
vt 0.042154 0.130000
vt 0.457846 0.130000
vt 0.166667 1.000000
vt 0.166667 0.500000
vt -0.000000 1.000000
vt -0.000000 0.500000
vt 0.957846 0.370000
vt 0.957846 0.130000
vt 0.542154 0.130000
vt 0.542154 0.370000
vt 0.181819 0.000000
vt 0.272728 0.157461
vt 0.090910 0.157461
vt 0.363637 0.000000
vt 0.454546 0.157461
vt 0.909091 0.000000
vt 1.000000 0.157461
vt 0.818182 0.157461
vt 0.727273 0.000000
vt 0.636364 0.157461
vt 0.545455 0.000000
vt 0.363637 0.314921
vt 0.181819 0.314921
vt 0.909091 0.314921
vt 0.727273 0.314921
vt 0.545455 0.314921
vt 0.000000 0.314921
vt 0.272728 0.472382
vt 0.090910 0.472382
vt 0.818182 0.472382
vt 0.636364 0.472382
vt 0.454546 0.472382
s 0
usemtl soil
f 1/1/1 2/2/1 4/3/1 3/4/1
f 3/4/2 4/3/2 6/5/2 5/6/2
f 5/6/3 6/5/3 8/7/3 7/8/3
f 7/8/4 8/7/4 10/9/4 9/10/4
f 9/10/5 10/9/5 12/11/5 11/12/5
f 11/12/6 12/11/6 14/13/6 13/14/6
f 13/14/7 14/13/7 16/15/7 15/16/7
f 15/16/8 16/15/8 18/17/8 17/18/8
f 4/19/9 2/20/9 20/21/9 18/22/9 16/23/9 14/24/9 12/25/9 10/26/9 8/27/9 6/28/9
f 17/18/10 18/17/10 20/29/10 19/30/10
f 19/30/11 20/29/11 2/31/11 1/32/11
f 1/33/12 3/34/12 5/35/12 7/36/12 9/37/12 11/38/12 13/39/12 15/40/12 17/41/12 19/42/12
usemtl pole
f 21/1/13 22/2/13 24/43/13 23/44/13
f 23/44/3 24/43/3 26/45/3 25/46/3
f 25/46/14 26/45/14 28/47/14 27/48/14
f 27/48/15 28/47/15 30/49/15 29/50/15
f 24/51/9 22/20/9 32/52/9 30/53/9 28/25/9 26/54/9
f 29/50/8 30/49/8 32/55/8 31/56/8
f 31/56/16 32/55/16 22/57/16 21/58/16
f 21/33/12 23/59/12 25/60/12 27/38/12 29/61/12 31/62/12
usemtl leaf_dark
f 33/63/17 34/64/17 35/65/17
f 34/64/18 33/66/18 38/67/18
f 33/68/19 35/69/19 36/70/19
f 33/71/20 36/70/20 37/72/20
f 33/73/21 37/72/21 38/67/21
f 34/64/22 38/67/22 43/74/22
f 35/65/23 34/64/23 39/75/23
f 36/70/24 35/69/24 40/76/24
f 37/72/25 36/70/25 41/77/25
f 38/67/26 37/72/26 42/78/26
f 34/64/27 43/74/27 39/75/27
f 35/65/28 39/75/28 40/79/28
f 36/70/29 40/76/29 41/77/29
f 37/72/30 41/77/30 42/78/30
f 38/67/31 42/78/31 43/74/31
f 39/75/32 43/74/32 44/80/32
f 40/79/33 39/75/33 44/81/33
f 41/77/34 40/76/34 44/82/34
f 42/78/35 41/77/35 44/83/35
f 43/74/36 42/78/36 44/84/36
f 57/63/57 58/64/57 59/65/57
f 58/64/58 57/66/58 62/67/58
f 57/68/59 59/69/59 60/70/59
f 57/71/60 60/70/60 61/72/60
f 57/73/61 61/72/61 62/67/61
f 58/64/62 62/67/62 67/74/62
f 59/65/63 58/64/63 63/75/63
f 60/70/64 59/69/64 64/76/64
f 61/72/65 60/70/65 65/77/65
f 62/67/66 61/72/66 66/78/66
f 58/64/67 67/74/67 63/75/67
f 59/65/68 63/75/68 64/79/68
f 60/70/69 64/76/69 65/77/69
f 61/72/70 65/77/70 66/78/70
f 62/67/71 66/78/71 67/74/71
f 63/75/72 67/74/72 68/80/72
f 64/79/73 63/75/73 68/81/73
f 65/77/74 64/76/74 68/82/74
f 66/78/75 65/77/75 68/83/75
f 67/74/76 66/78/76 68/84/76
f 81/63/97 82/64/97 83/65/97
f 82/64/98 81/66/98 86/67/98
f 81/68/99 83/69/99 84/70/99
f 81/71/100 84/70/100 85/72/100
f 81/73/101 85/72/101 86/67/101
f 82/64/102 86/67/102 91/74/102
f 83/65/103 82/64/103 87/75/103
f 84/70/104 83/69/104 88/76/104
f 85/72/105 84/70/105 89/77/105
f 86/67/106 85/72/106 90/78/106
f 82/64/107 91/74/107 87/75/107
f 83/65/108 87/75/108 88/79/108
f 84/70/109 88/76/109 89/77/109
f 85/72/110 89/77/110 90/78/110
f 86/67/111 90/78/111 91/74/111
f 87/75/112 91/74/112 92/80/112
f 88/79/113 87/75/113 92/81/113
f 89/77/114 88/76/114 92/82/114
f 90/78/115 89/77/115 92/83/115
f 91/74/116 90/78/116 92/84/116
f 93/63/117 94/64/117 95/65/117
f 94/64/118 93/66/118 98/67/118
f 93/68/119 95/69/119 96/70/119
f 93/71/120 96/70/120 97/72/120
f 93/73/121 97/72/121 98/67/121
f 94/64/122 98/67/122 103/74/122
f 95/65/123 94/64/123 99/75/123
f 96/70/124 95/69/124 100/76/124
f 97/72/125 96/70/125 101/77/125
f 98/67/126 97/72/126 102/78/126
f 94/64/127 103/74/127 99/75/127
f 95/65/128 99/75/128 100/79/128
f 96/70/129 100/76/129 101/77/129
f 97/72/130 101/77/130 102/78/130
f 98/67/131 102/78/131 103/74/131
f 99/75/132 103/74/132 104/80/132
f 100/79/133 99/75/133 104/81/133
f 101/77/134 100/76/134 104/82/134
f 102/78/135 101/77/135 104/83/135
f 103/74/136 102/78/136 104/84/136
f 117/63/157 118/64/157 119/65/157
f 118/64/158 117/66/158 122/67/158
f 117/68/159 119/69/159 120/70/159
f 117/71/160 120/70/160 121/72/160
f 117/73/161 121/72/161 122/67/161
f 118/64/162 122/67/162 127/74/162
f 119/65/163 118/64/163 123/75/163
f 120/70/164 119/69/164 124/76/164
f 121/72/165 120/70/165 125/77/165
f 122/67/166 121/72/166 126/78/166
f 118/64/167 127/74/167 123/75/167
f 119/65/168 123/75/168 124/79/168
f 120/70/169 124/76/169 125/77/169
f 121/72/170 125/77/170 126/78/170
f 122/67/171 126/78/171 127/74/171
f 123/75/172 127/74/172 128/80/172
f 124/79/173 123/75/173 128/81/173
f 125/77/174 124/76/174 128/82/174
f 126/78/175 125/77/175 128/83/175
f 127/74/176 126/78/176 128/84/176
f 141/63/197 142/64/197 143/65/197
f 142/64/198 141/66/198 146/67/198
f 141/68/199 143/69/199 144/70/199
f 141/71/200 144/70/200 145/72/200
f 141/73/201 145/72/201 146/67/201
f 142/64/202 146/67/202 151/74/202
f 143/65/203 142/64/203 147/75/203
f 144/70/204 143/69/204 148/76/204
f 145/72/205 144/70/205 149/77/205
f 146/67/206 145/72/206 150/78/206
f 142/64/207 151/74/207 147/75/207
f 143/65/208 147/75/208 148/79/208
f 144/70/209 148/76/209 149/77/209
f 145/72/210 149/77/210 150/78/210
f 146/67/211 150/78/211 151/74/211
f 147/75/212 151/74/212 152/80/212
f 148/79/213 147/75/213 152/81/213
f 149/77/214 148/76/214 152/82/214
f 150/78/215 149/77/215 152/83/215
f 151/74/216 150/78/216 152/84/216
f 153/63/217 154/64/217 155/65/217
f 154/64/218 153/66/218 158/67/218
f 153/68/219 155/69/219 156/70/219
f 153/71/220 156/70/220 157/72/220
f 153/73/221 157/72/221 158/67/221
f 154/64/222 158/67/222 163/74/222
f 155/65/223 154/64/223 159/75/223
f 156/70/224 155/69/224 160/76/224
f 157/72/225 156/70/225 161/77/225
f 158/67/226 157/72/226 162/78/226
f 154/64/227 163/74/227 159/75/227
f 155/65/228 159/75/228 160/79/228
f 156/70/229 160/76/229 161/77/229
f 157/72/230 161/77/230 162/78/230
f 158/67/231 162/78/231 163/74/231
f 159/75/232 163/74/232 164/80/232
f 160/79/233 159/75/233 164/81/233
f 161/77/234 160/76/234 164/82/234
f 162/78/235 161/77/235 164/83/235
f 163/74/236 162/78/236 164/84/236
f 177/63/257 178/64/257 179/65/257
f 178/64/258 177/66/258 182/67/258
f 177/68/259 179/69/259 180/70/259
f 177/71/260 180/70/260 181/72/260
f 177/73/261 181/72/261 182/67/261
f 178/64/262 182/67/262 187/74/262
f 179/65/263 178/64/263 183/75/263
f 180/70/264 179/69/264 184/76/264
f 181/72/265 180/70/265 185/77/265
f 182/67/266 181/72/266 186/78/266
f 178/64/267 187/74/267 183/75/267
f 179/65/268 183/75/268 184/79/268
f 180/70/269 184/76/269 185/77/269
f 181/72/270 185/77/270 186/78/270
f 182/67/271 186/78/271 187/74/271
f 183/75/272 187/74/272 188/80/272
f 184/79/273 183/75/273 188/81/273
f 185/77/274 184/76/274 188/82/274
f 186/78/275 185/77/275 188/83/275
f 187/74/276 186/78/276 188/84/276
f 201/63/297 202/64/297 203/65/297
f 202/64/298 201/66/298 206/67/298
f 201/68/299 203/69/299 204/70/299
f 201/71/300 204/70/300 205/72/300
f 201/73/301 205/72/301 206/67/301
f 202/64/302 206/67/302 211/74/302
f 203/65/303 202/64/303 207/75/303
f 204/70/304 203/69/304 208/76/304
f 205/72/305 204/70/305 209/77/305
f 206/67/306 205/72/306 210/78/306
f 202/64/307 211/74/307 207/75/307
f 203/65/308 207/75/308 208/79/308
f 204/70/309 208/76/309 209/77/309
f 205/72/310 209/77/310 210/78/310
f 206/67/311 210/78/311 211/74/311
f 207/75/312 211/74/312 212/80/312
f 208/79/313 207/75/313 212/81/313
f 209/77/314 208/76/314 212/82/314
f 210/78/315 209/77/315 212/83/315
f 211/74/316 210/78/316 212/84/316
f 213/63/317 214/64/317 215/65/317
f 214/64/318 213/66/318 218/67/318
f 213/68/319 215/69/319 216/70/319
f 213/71/320 216/70/320 217/72/320
f 213/73/321 217/72/321 218/67/321
f 214/64/322 218/67/322 223/74/322
f 215/65/323 214/64/323 219/75/323
f 216/70/324 215/69/324 220/76/324
f 217/72/325 216/70/325 221/77/325
f 218/67/326 217/72/326 222/78/326
f 214/64/327 223/74/327 219/75/327
f 215/65/328 219/75/328 220/79/328
f 216/70/329 220/76/329 221/77/329
f 217/72/330 221/77/330 222/78/330
f 218/67/331 222/78/331 223/74/331
f 219/75/332 223/74/332 224/80/332
f 220/79/333 219/75/333 224/81/333
f 221/77/334 220/76/334 224/82/334
f 222/78/335 221/77/335 224/83/335
f 223/74/336 222/78/336 224/84/336
f 237/63/357 238/64/357 239/65/357
f 238/64/358 237/66/358 242/67/358
f 237/68/359 239/69/359 240/70/359
f 237/71/360 240/70/360 241/72/360
f 237/73/361 241/72/361 242/67/361
f 238/64/362 242/67/362 247/74/362
f 239/65/363 238/64/363 243/75/363
f 240/70/364 239/69/364 244/76/364
f 241/72/365 240/70/365 245/77/365
f 242/67/366 241/72/366 246/78/366
f 238/64/367 247/74/367 243/75/367
f 239/65/368 243/75/368 244/79/368
f 240/70/369 244/76/369 245/77/369
f 241/72/370 245/77/370 246/78/370
f 242/67/371 246/78/371 247/74/371
f 243/75/372 247/74/372 248/80/372
f 244/79/373 243/75/373 248/81/373
f 245/77/374 244/76/374 248/82/374
f 246/78/375 245/77/375 248/83/375
f 247/74/376 246/78/376 248/84/376
f 261/63/397 262/64/397 263/65/397
f 262/64/398 261/66/398 266/67/398
f 261/68/399 263/69/399 264/70/399
f 261/71/400 264/70/400 265/72/400
f 261/73/401 265/72/401 266/67/401
f 262/64/402 266/67/402 271/74/402
f 263/65/403 262/64/403 267/75/403
f 264/70/404 263/69/404 268/76/404
f 265/72/405 264/70/405 269/77/405
f 266/67/406 265/72/406 270/78/406
f 262/64/407 271/74/407 267/75/407
f 263/65/408 267/75/408 268/79/408
f 264/70/409 268/76/409 269/77/409
f 265/72/410 269/77/410 270/78/410
f 266/67/411 270/78/411 271/74/411
f 267/75/412 271/74/412 272/80/412
f 268/79/413 267/75/413 272/81/413
f 269/77/414 268/76/414 272/82/414
f 270/78/415 269/77/415 272/83/415
f 271/74/416 270/78/416 272/84/416
f 273/63/417 274/64/417 275/65/417
f 274/64/418 273/66/418 278/67/418
f 273/68/419 275/69/419 276/70/419
f 273/71/420 276/70/420 277/72/420
f 273/73/421 277/72/421 278/67/421
f 274/64/422 278/67/422 283/74/422
f 275/65/423 274/64/423 279/75/423
f 276/70/424 275/69/424 280/76/424
f 277/72/425 276/70/425 281/77/425
f 278/67/426 277/72/426 282/78/426
f 274/64/427 283/74/427 279/75/427
f 275/65/428 279/75/428 280/79/428
f 276/70/429 280/76/429 281/77/429
f 277/72/430 281/77/430 282/78/430
f 278/67/431 282/78/431 283/74/431
f 279/75/432 283/74/432 284/80/432
f 280/79/433 279/75/433 284/81/433
f 281/77/434 280/76/434 284/82/434
f 282/78/435 281/77/435 284/83/435
f 283/74/436 282/78/436 284/84/436
f 297/63/457 298/64/457 299/65/457
f 298/64/458 297/66/458 302/67/458
f 297/68/459 299/69/459 300/70/459
f 297/71/460 300/70/460 301/72/460
f 297/73/461 301/72/461 302/67/461
f 298/64/462 302/67/462 307/74/462
f 299/65/463 298/64/463 303/75/463
f 300/70/464 299/69/464 304/76/464
f 301/72/465 300/70/465 305/77/465
f 302/67/466 301/72/466 306/78/466
f 298/64/467 307/74/467 303/75/467
f 299/65/468 303/75/468 304/79/468
f 300/70/469 304/76/469 305/77/469
f 301/72/470 305/77/470 306/78/470
f 302/67/471 306/78/471 307/74/471
f 303/75/472 307/74/472 308/80/472
f 304/79/473 303/75/473 308/81/473
f 305/77/474 304/76/474 308/82/474
f 306/78/475 305/77/475 308/83/475
f 307/74/476 306/78/476 308/84/476
f 321/63/497 322/64/497 323/65/497
f 322/64/498 321/66/498 326/67/498
f 321/68/499 323/69/499 324/70/499
f 321/71/500 324/70/500 325/72/500
f 321/73/501 325/72/501 326/67/501
f 322/64/502 326/67/502 331/74/502
f 323/65/503 322/64/503 327/75/503
f 324/70/504 323/69/504 328/76/504
f 325/72/505 324/70/505 329/77/505
f 326/67/506 325/72/506 330/78/506
f 322/64/507 331/74/507 327/75/507
f 323/65/508 327/75/508 328/79/508
f 324/70/509 328/76/509 329/77/509
f 325/72/510 329/77/510 330/78/510
f 326/67/511 330/78/511 331/74/511
f 327/75/512 331/74/512 332/80/512
f 328/79/513 327/75/513 332/81/513
f 329/77/514 328/76/514 332/82/514
f 330/78/515 329/77/515 332/83/515
f 331/74/516 330/78/516 332/84/516
f 333/63/517 334/64/517 335/65/517
f 334/64/518 333/66/518 338/67/518
f 333/68/519 335/69/519 336/70/519
f 333/71/520 336/70/520 337/72/520
f 333/73/521 337/72/521 338/67/521
f 334/64/522 338/67/522 343/74/522
f 335/65/523 334/64/523 339/75/523
f 336/70/524 335/69/524 340/76/524
f 337/72/525 336/70/525 341/77/525
f 338/67/526 337/72/526 342/78/526
f 334/64/527 343/74/527 339/75/527
f 335/65/528 339/75/528 340/79/528
f 336/70/529 340/76/529 341/77/529
f 337/72/530 341/77/530 342/78/530
f 338/67/531 342/78/531 343/74/531
f 339/75/532 343/74/532 344/80/532
f 340/79/533 339/75/533 344/81/533
f 341/77/534 340/76/534 344/82/534
f 342/78/535 341/77/535 344/83/535
f 343/74/536 342/78/536 344/84/536
f 357/63/557 358/64/557 359/65/557
f 358/64/558 357/66/558 362/67/558
f 357/68/559 359/69/559 360/70/559
f 357/71/560 360/70/560 361/72/560
f 357/73/561 361/72/561 362/67/561
f 358/64/562 362/67/562 367/74/562
f 359/65/563 358/64/563 363/75/563
f 360/70/564 359/69/564 364/76/564
f 361/72/565 360/70/565 365/77/565
f 362/67/566 361/72/566 366/78/566
f 358/64/567 367/74/567 363/75/567
f 359/65/568 363/75/568 364/79/568
f 360/70/569 364/76/569 365/77/569
f 361/72/570 365/77/570 366/78/570
f 362/67/571 366/78/571 367/74/571
f 363/75/572 367/74/572 368/80/572
f 364/79/573 363/75/573 368/81/573
f 365/77/574 364/76/574 368/82/574
f 366/78/575 365/77/575 368/83/575
f 367/74/576 366/78/576 368/84/576
f 381/63/597 382/64/597 383/65/597
f 382/64/598 381/66/598 386/67/598
f 381/68/599 383/69/599 384/70/599
f 381/71/600 384/70/600 385/72/600
f 381/73/601 385/72/601 386/67/601
f 382/64/602 386/67/602 391/74/602
f 383/65/603 382/64/603 387/75/603
f 384/70/604 383/69/604 388/76/604
f 385/72/605 384/70/605 389/77/605
f 386/67/606 385/72/606 390/78/606
f 382/64/607 391/74/607 387/75/607
f 383/65/608 387/75/608 388/79/608
f 384/70/609 388/76/609 389/77/609
f 385/72/610 389/77/610 390/78/610
f 386/67/611 390/78/611 391/74/611
f 387/75/612 391/74/612 392/80/612
f 388/79/613 387/75/613 392/81/613
f 389/77/614 388/76/614 392/82/614
f 390/78/615 389/77/615 392/83/615
f 391/74/616 390/78/616 392/84/616
f 393/63/617 394/64/617 395/65/617
f 394/64/618 393/66/618 398/67/618
f 393/68/619 395/69/619 396/70/619
f 393/71/620 396/70/620 397/72/620
f 393/73/621 397/72/621 398/67/621
f 394/64/622 398/67/622 403/74/622
f 395/65/623 394/64/623 399/75/623
f 396/70/624 395/69/624 400/76/624
f 397/72/625 396/70/625 401/77/625
f 398/67/626 397/72/626 402/78/626
f 394/64/627 403/74/627 399/75/627
f 395/65/628 399/75/628 400/79/628
f 396/70/629 400/76/629 401/77/629
f 397/72/630 401/77/630 402/78/630
f 398/67/631 402/78/631 403/74/631
f 399/75/632 403/74/632 404/80/632
f 400/79/633 399/75/633 404/81/633
f 401/77/634 400/76/634 404/82/634
f 402/78/635 401/77/635 404/83/635
f 403/74/636 402/78/636 404/84/636
f 417/63/657 418/64/657 419/65/657
f 418/64/658 417/66/658 422/67/658
f 417/68/659 419/69/659 420/70/659
f 417/71/660 420/70/660 421/72/660
f 417/73/661 421/72/661 422/67/661
f 418/64/662 422/67/662 427/74/662
f 419/65/663 418/64/663 423/75/663
f 420/70/664 419/69/664 424/76/664
f 421/72/665 420/70/665 425/77/665
f 422/67/666 421/72/666 426/78/666
f 418/64/667 427/74/667 423/75/667
f 419/65/668 423/75/668 424/79/668
f 420/70/669 424/76/669 425/77/669
f 421/72/670 425/77/670 426/78/670
f 422/67/671 426/78/671 427/74/671
f 423/75/672 427/74/672 428/80/672
f 424/79/673 423/75/673 428/81/673
f 425/77/674 424/76/674 428/82/674
f 426/78/675 425/77/675 428/83/675
f 427/74/676 426/78/676 428/84/676
f 441/63/697 442/64/697 443/65/697
f 442/64/698 441/66/698 446/67/698
f 441/68/699 443/69/699 444/70/699
f 441/71/700 444/70/700 445/72/700
f 441/73/701 445/72/701 446/67/701
f 442/64/702 446/67/702 451/74/702
f 443/65/703 442/64/703 447/75/703
f 444/70/704 443/69/704 448/76/704
f 445/72/705 444/70/705 449/77/705
f 446/67/706 445/72/706 450/78/706
f 442/64/707 451/74/707 447/75/707
f 443/65/708 447/75/708 448/79/708
f 444/70/709 448/76/709 449/77/709
f 445/72/710 449/77/710 450/78/710
f 446/67/711 450/78/711 451/74/711
f 447/75/712 451/74/712 452/80/712
f 448/79/713 447/75/713 452/81/713
f 449/77/714 448/76/714 452/82/714
f 450/78/715 449/77/715 452/83/715
f 451/74/716 450/78/716 452/84/716
f 453/63/717 454/64/717 455/65/717
f 454/64/718 453/66/718 458/67/718
f 453/68/719 455/69/719 456/70/719
f 453/71/720 456/70/720 457/72/720
f 453/73/721 457/72/721 458/67/721
f 454/64/722 458/67/722 463/74/722
f 455/65/723 454/64/723 459/75/723
f 456/70/724 455/69/724 460/76/724
f 457/72/725 456/70/725 461/77/725
f 458/67/726 457/72/726 462/78/726
f 454/64/727 463/74/727 459/75/727
f 455/65/728 459/75/728 460/79/728
f 456/70/729 460/76/729 461/77/729
f 457/72/730 461/77/730 462/78/730
f 458/67/731 462/78/731 463/74/731
f 459/75/732 463/74/732 464/80/732
f 460/79/733 459/75/733 464/81/733
f 461/77/734 460/76/734 464/82/734
f 462/78/735 461/77/735 464/83/735
f 463/74/736 462/78/736 464/84/736
f 477/63/757 478/64/757 479/65/757
f 478/64/758 477/66/758 482/67/758
f 477/68/759 479/69/759 480/70/759
f 477/71/760 480/70/760 481/72/760
f 477/73/761 481/72/761 482/67/761
f 478/64/762 482/67/762 487/74/762
f 479/65/763 478/64/763 483/75/763
f 480/70/764 479/69/764 484/76/764
f 481/72/765 480/70/765 485/77/765
f 482/67/766 481/72/766 486/78/766
f 478/64/767 487/74/767 483/75/767
f 479/65/768 483/75/768 484/79/768
f 480/70/769 484/76/769 485/77/769
f 481/72/770 485/77/770 486/78/770
f 482/67/771 486/78/771 487/74/771
f 483/75/772 487/74/772 488/80/772
f 484/79/773 483/75/773 488/81/773
f 485/77/774 484/76/774 488/82/774
f 486/78/775 485/77/775 488/83/775
f 487/74/776 486/78/776 488/84/776
f 501/63/797 502/64/797 503/65/797
f 502/64/798 501/66/798 506/67/798
f 501/68/799 503/69/799 504/70/799
f 501/71/800 504/70/800 505/72/800
f 501/73/801 505/72/801 506/67/801
f 502/64/802 506/67/802 511/74/802
f 503/65/803 502/64/803 507/75/803
f 504/70/804 503/69/804 508/76/804
f 505/72/805 504/70/805 509/77/805
f 506/67/806 505/72/806 510/78/806
f 502/64/807 511/74/807 507/75/807
f 503/65/808 507/75/808 508/79/808
f 504/70/809 508/76/809 509/77/809
f 505/72/810 509/77/810 510/78/810
f 506/67/811 510/78/811 511/74/811
f 507/75/812 511/74/812 512/80/812
f 508/79/813 507/75/813 512/81/813
f 509/77/814 508/76/814 512/82/814
f 510/78/815 509/77/815 512/83/815
f 511/74/816 510/78/816 512/84/816
usemtl leaf_light
f 45/63/37 46/64/37 47/65/37
f 46/64/38 45/66/38 50/67/38
f 45/68/39 47/69/39 48/70/39
f 45/71/40 48/70/40 49/72/40
f 45/73/41 49/72/41 50/67/41
f 46/64/42 50/67/42 55/74/42
f 47/65/43 46/64/43 51/75/43
f 48/70/44 47/69/44 52/76/44
f 49/72/45 48/70/45 53/77/45
f 50/67/46 49/72/46 54/78/46
f 46/64/47 55/74/47 51/75/47
f 47/65/48 51/75/48 52/79/48
f 48/70/49 52/76/49 53/77/49
f 49/72/50 53/77/50 54/78/50
f 50/67/51 54/78/51 55/74/51
f 51/75/52 55/74/52 56/80/52
f 52/79/53 51/75/53 56/81/53
f 53/77/54 52/76/54 56/82/54
f 54/78/55 53/77/55 56/83/55
f 55/74/56 54/78/56 56/84/56
f 69/63/77 70/64/77 71/65/77
f 70/64/78 69/66/78 74/67/78
f 69/68/79 71/69/79 72/70/79
f 69/71/80 72/70/80 73/72/80
f 69/73/81 73/72/81 74/67/81
f 70/64/82 74/67/82 79/74/82
f 71/65/83 70/64/83 75/75/83
f 72/70/84 71/69/84 76/76/84
f 73/72/85 72/70/85 77/77/85
f 74/67/86 73/72/86 78/78/86
f 70/64/87 79/74/87 75/75/87
f 71/65/88 75/75/88 76/79/88
f 72/70/89 76/76/89 77/77/89
f 73/72/90 77/77/90 78/78/90
f 74/67/91 78/78/91 79/74/91
f 75/75/92 79/74/92 80/80/92
f 76/79/93 75/75/93 80/81/93
f 77/77/94 76/76/94 80/82/94
f 78/78/95 77/77/95 80/83/95
f 79/74/96 78/78/96 80/84/96
f 105/63/137 106/64/137 107/65/137
f 106/64/138 105/66/138 110/67/138
f 105/68/139 107/69/139 108/70/139
f 105/71/140 108/70/140 109/72/140
f 105/73/141 109/72/141 110/67/141
f 106/64/142 110/67/142 115/74/142
f 107/65/143 106/64/143 111/75/143
f 108/70/144 107/69/144 112/76/144
f 109/72/145 108/70/145 113/77/145
f 110/67/146 109/72/146 114/78/146
f 106/64/147 115/74/147 111/75/147
f 107/65/148 111/75/148 112/79/148
f 108/70/149 112/76/149 113/77/149
f 109/72/150 113/77/150 114/78/150
f 110/67/151 114/78/151 115/74/151
f 111/75/152 115/74/152 116/80/152
f 112/79/153 111/75/153 116/81/153
f 113/77/154 112/76/154 116/82/154
f 114/78/155 113/77/155 116/83/155
f 115/74/156 114/78/156 116/84/156
f 129/63/177 130/64/177 131/65/177
f 130/64/178 129/66/178 134/67/178
f 129/68/179 131/69/179 132/70/179
f 129/71/180 132/70/180 133/72/180
f 129/73/181 133/72/181 134/67/181
f 130/64/182 134/67/182 139/74/182
f 131/65/183 130/64/183 135/75/183
f 132/70/184 131/69/184 136/76/184
f 133/72/185 132/70/185 137/77/185
f 134/67/186 133/72/186 138/78/186
f 130/64/187 139/74/187 135/75/187
f 131/65/188 135/75/188 136/79/188
f 132/70/189 136/76/189 137/77/189
f 133/72/190 137/77/190 138/78/190
f 134/67/191 138/78/191 139/74/191
f 135/75/192 139/74/192 140/80/192
f 136/79/193 135/75/193 140/81/193
f 137/77/194 136/76/194 140/82/194
f 138/78/195 137/77/195 140/83/195
f 139/74/196 138/78/196 140/84/196
f 165/63/237 166/64/237 167/65/237
f 166/64/238 165/66/238 170/67/238
f 165/68/239 167/69/239 168/70/239
f 165/71/240 168/70/240 169/72/240
f 165/73/241 169/72/241 170/67/241
f 166/64/242 170/67/242 175/74/242
f 167/65/243 166/64/243 171/75/243
f 168/70/244 167/69/244 172/76/244
f 169/72/245 168/70/245 173/77/245
f 170/67/246 169/72/246 174/78/246
f 166/64/247 175/74/247 171/75/247
f 167/65/248 171/75/248 172/79/248
f 168/70/249 172/76/249 173/77/249
f 169/72/250 173/77/250 174/78/250
f 170/67/251 174/78/251 175/74/251
f 171/75/252 175/74/252 176/80/252
f 172/79/253 171/75/253 176/81/253
f 173/77/254 172/76/254 176/82/254
f 174/78/255 173/77/255 176/83/255
f 175/74/256 174/78/256 176/84/256
f 189/63/277 190/64/277 191/65/277
f 190/64/278 189/66/278 194/67/278
f 189/68/279 191/69/279 192/70/279
f 189/71/280 192/70/280 193/72/280
f 189/73/281 193/72/281 194/67/281
f 190/64/282 194/67/282 199/74/282
f 191/65/283 190/64/283 195/75/283
f 192/70/284 191/69/284 196/76/284
f 193/72/285 192/70/285 197/77/285
f 194/67/286 193/72/286 198/78/286
f 190/64/287 199/74/287 195/75/287
f 191/65/288 195/75/288 196/79/288
f 192/70/289 196/76/289 197/77/289
f 193/72/290 197/77/290 198/78/290
f 194/67/291 198/78/291 199/74/291
f 195/75/292 199/74/292 200/80/292
f 196/79/293 195/75/293 200/81/293
f 197/77/294 196/76/294 200/82/294
f 198/78/295 197/77/295 200/83/295
f 199/74/296 198/78/296 200/84/296
f 225/63/337 226/64/337 227/65/337
f 226/64/338 225/66/338 230/67/338
f 225/68/339 227/69/339 228/70/339
f 225/71/340 228/70/340 229/72/340
f 225/73/341 229/72/341 230/67/341
f 226/64/342 230/67/342 235/74/342
f 227/65/343 226/64/343 231/75/343
f 228/70/344 227/69/344 232/76/344
f 229/72/345 228/70/345 233/77/345
f 230/67/346 229/72/346 234/78/346
f 226/64/347 235/74/347 231/75/347
f 227/65/348 231/75/348 232/79/348
f 228/70/349 232/76/349 233/77/349
f 229/72/350 233/77/350 234/78/350
f 230/67/351 234/78/351 235/74/351
f 231/75/352 235/74/352 236/80/352
f 232/79/353 231/75/353 236/81/353
f 233/77/354 232/76/354 236/82/354
f 234/78/355 233/77/355 236/83/355
f 235/74/356 234/78/356 236/84/356
f 249/63/377 250/64/377 251/65/377
f 250/64/378 249/66/378 254/67/378
f 249/68/379 251/69/379 252/70/379
f 249/71/380 252/70/380 253/72/380
f 249/73/381 253/72/381 254/67/381
f 250/64/382 254/67/382 259/74/382
f 251/65/383 250/64/383 255/75/383
f 252/70/384 251/69/384 256/76/384
f 253/72/385 252/70/385 257/77/385
f 254/67/386 253/72/386 258/78/386
f 250/64/387 259/74/387 255/75/387
f 251/65/388 255/75/388 256/79/388
f 252/70/389 256/76/389 257/77/389
f 253/72/390 257/77/390 258/78/390
f 254/67/391 258/78/391 259/74/391
f 255/75/392 259/74/392 260/80/392
f 256/79/393 255/75/393 260/81/393
f 257/77/394 256/76/394 260/82/394
f 258/78/395 257/77/395 260/83/395
f 259/74/396 258/78/396 260/84/396
f 285/63/437 286/64/437 287/65/437
f 286/64/438 285/66/438 290/67/438
f 285/68/439 287/69/439 288/70/439
f 285/71/440 288/70/440 289/72/440
f 285/73/441 289/72/441 290/67/441
f 286/64/442 290/67/442 295/74/442
f 287/65/443 286/64/443 291/75/443
f 288/70/444 287/69/444 292/76/444
f 289/72/445 288/70/445 293/77/445
f 290/67/446 289/72/446 294/78/446
f 286/64/447 295/74/447 291/75/447
f 287/65/448 291/75/448 292/79/448
f 288/70/449 292/76/449 293/77/449
f 289/72/450 293/77/450 294/78/450
f 290/67/451 294/78/451 295/74/451
f 291/75/452 295/74/452 296/80/452
f 292/79/453 291/75/453 296/81/453
f 293/77/454 292/76/454 296/82/454
f 294/78/455 293/77/455 296/83/455
f 295/74/456 294/78/456 296/84/456
f 309/63/477 310/64/477 311/65/477
f 310/64/478 309/66/478 314/67/478
f 309/68/479 311/69/479 312/70/479
f 309/71/480 312/70/480 313/72/480
f 309/73/481 313/72/481 314/67/481
f 310/64/482 314/67/482 319/74/482
f 311/65/483 310/64/483 315/75/483
f 312/70/484 311/69/484 316/76/484
f 313/72/485 312/70/485 317/77/485
f 314/67/486 313/72/486 318/78/486
f 310/64/487 319/74/487 315/75/487
f 311/65/488 315/75/488 316/79/488
f 312/70/489 316/76/489 317/77/489
f 313/72/490 317/77/490 318/78/490
f 314/67/491 318/78/491 319/74/491
f 315/75/492 319/74/492 320/80/492
f 316/79/493 315/75/493 320/81/493
f 317/77/494 316/76/494 320/82/494
f 318/78/495 317/77/495 320/83/495
f 319/74/496 318/78/496 320/84/496
f 345/63/537 346/64/537 347/65/537
f 346/64/538 345/66/538 350/67/538
f 345/68/539 347/69/539 348/70/539
f 345/71/540 348/70/540 349/72/540
f 345/73/541 349/72/541 350/67/541
f 346/64/542 350/67/542 355/74/542
f 347/65/543 346/64/543 351/75/543
f 348/70/544 347/69/544 352/76/544
f 349/72/545 348/70/545 353/77/545
f 350/67/546 349/72/546 354/78/546
f 346/64/547 355/74/547 351/75/547
f 347/65/548 351/75/548 352/79/548
f 348/70/549 352/76/549 353/77/549
f 349/72/550 353/77/550 354/78/550
f 350/67/551 354/78/551 355/74/551
f 351/75/552 355/74/552 356/80/552
f 352/79/553 351/75/553 356/81/553
f 353/77/554 352/76/554 356/82/554
f 354/78/555 353/77/555 356/83/555
f 355/74/556 354/78/556 356/84/556
f 369/63/577 370/64/577 371/65/577
f 370/64/578 369/66/578 374/67/578
f 369/68/579 371/69/579 372/70/579
f 369/71/580 372/70/580 373/72/580
f 369/73/581 373/72/581 374/67/581
f 370/64/582 374/67/582 379/74/582
f 371/65/583 370/64/583 375/75/583
f 372/70/584 371/69/584 376/76/584
f 373/72/585 372/70/585 377/77/585
f 374/67/586 373/72/586 378/78/586
f 370/64/587 379/74/587 375/75/587
f 371/65/588 375/75/588 376/79/588
f 372/70/589 376/76/589 377/77/589
f 373/72/590 377/77/590 378/78/590
f 374/67/591 378/78/591 379/74/591
f 375/75/592 379/74/592 380/80/592
f 376/79/593 375/75/593 380/81/593
f 377/77/594 376/76/594 380/82/594
f 378/78/595 377/77/595 380/83/595
f 379/74/596 378/78/596 380/84/596
f 405/63/637 406/64/637 407/65/637
f 406/64/638 405/66/638 410/67/638
f 405/68/639 407/69/639 408/70/639
f 405/71/640 408/70/640 409/72/640
f 405/73/641 409/72/641 410/67/641
f 406/64/642 410/67/642 415/74/642
f 407/65/643 406/64/643 411/75/643
f 408/70/644 407/69/644 412/76/644
f 409/72/645 408/70/645 413/77/645
f 410/67/646 409/72/646 414/78/646
f 406/64/647 415/74/647 411/75/647
f 407/65/648 411/75/648 412/79/648
f 408/70/649 412/76/649 413/77/649
f 409/72/650 413/77/650 414/78/650
f 410/67/651 414/78/651 415/74/651
f 411/75/652 415/74/652 416/80/652
f 412/79/653 411/75/653 416/81/653
f 413/77/654 412/76/654 416/82/654
f 414/78/655 413/77/655 416/83/655
f 415/74/656 414/78/656 416/84/656
f 429/63/677 430/64/677 431/65/677
f 430/64/678 429/66/678 434/67/678
f 429/68/679 431/69/679 432/70/679
f 429/71/680 432/70/680 433/72/680
f 429/73/681 433/72/681 434/67/681
f 430/64/682 434/67/682 439/74/682
f 431/65/683 430/64/683 435/75/683
f 432/70/684 431/69/684 436/76/684
f 433/72/685 432/70/685 437/77/685
f 434/67/686 433/72/686 438/78/686
f 430/64/687 439/74/687 435/75/687
f 431/65/688 435/75/688 436/79/688
f 432/70/689 436/76/689 437/77/689
f 433/72/690 437/77/690 438/78/690
f 434/67/691 438/78/691 439/74/691
f 435/75/692 439/74/692 440/80/692
f 436/79/693 435/75/693 440/81/693
f 437/77/694 436/76/694 440/82/694
f 438/78/695 437/77/695 440/83/695
f 439/74/696 438/78/696 440/84/696
f 465/63/737 466/64/737 467/65/737
f 466/64/738 465/66/738 470/67/738
f 465/68/739 467/69/739 468/70/739
f 465/71/740 468/70/740 469/72/740
f 465/73/741 469/72/741 470/67/741
f 466/64/742 470/67/742 475/74/742
f 467/65/743 466/64/743 471/75/743
f 468/70/744 467/69/744 472/76/744
f 469/72/745 468/70/745 473/77/745
f 470/67/746 469/72/746 474/78/746
f 466/64/747 475/74/747 471/75/747
f 467/65/748 471/75/748 472/79/748
f 468/70/749 472/76/749 473/77/749
f 469/72/750 473/77/750 474/78/750
f 470/67/751 474/78/751 475/74/751
f 471/75/752 475/74/752 476/80/752
f 472/79/753 471/75/753 476/81/753
f 473/77/754 472/76/754 476/82/754
f 474/78/755 473/77/755 476/83/755
f 475/74/756 474/78/756 476/84/756
f 489/63/777 490/64/777 491/65/777
f 490/64/778 489/66/778 494/67/778
f 489/68/779 491/69/779 492/70/779
f 489/71/780 492/70/780 493/72/780
f 489/73/781 493/72/781 494/67/781
f 490/64/782 494/67/782 499/74/782
f 491/65/783 490/64/783 495/75/783
f 492/70/784 491/69/784 496/76/784
f 493/72/785 492/70/785 497/77/785
f 494/67/786 493/72/786 498/78/786
f 490/64/787 499/74/787 495/75/787
f 491/65/788 495/75/788 496/79/788
f 492/70/789 496/76/789 497/77/789
f 493/72/790 497/77/790 498/78/790
f 494/67/791 498/78/791 499/74/791
f 495/75/792 499/74/792 500/80/792
f 496/79/793 495/75/793 500/81/793
f 497/77/794 496/76/794 500/82/794
f 498/78/795 497/77/795 500/83/795
f 499/74/796 498/78/796 500/84/796
usemtl cone_yanillian
f 513/1/817 514/2/817 516/43/817 515/44/817
f 515/44/818 516/43/818 518/45/818 517/46/818
f 517/46/819 518/45/819 520/47/819 519/48/819
f 519/48/820 520/47/820 522/49/820 521/50/820
f 516/51/12 514/20/12 524/52/12 522/53/12 520/25/12 518/54/12
f 521/50/821 522/49/821 524/55/821 523/56/821
f 523/56/822 524/55/822 514/57/822 513/58/822
f 513/33/9 515/59/9 517/60/9 519/38/9 521/61/9 523/62/9
f 525/1/817 526/2/817 528/43/817 527/44/817
f 527/44/818 528/43/818 530/45/818 529/46/818
f 529/46/819 530/45/819 532/47/819 531/48/819
f 531/48/820 532/47/820 534/49/820 533/50/820
f 528/51/12 526/20/12 536/52/12 534/53/12 532/25/12 530/54/12
f 533/50/821 534/49/821 536/55/821 535/56/821
f 535/56/822 536/55/822 526/57/822 525/58/822
f 525/33/9 527/59/9 529/60/9 531/38/9 533/61/9 535/62/9
f 537/1/817 538/2/817 540/43/817 539/44/817
f 539/44/818 540/43/818 542/45/818 541/46/818
f 541/46/819 542/45/819 544/47/819 543/48/819
f 543/48/820 544/47/820 546/49/820 545/50/820
f 540/51/12 538/20/12 548/52/12 546/53/12 544/25/12 542/54/12
f 545/50/821 546/49/821 548/55/821 547/56/821
f 547/56/822 548/55/822 538/57/822 537/58/822
f 537/33/9 539/59/9 541/60/9 543/38/9 545/61/9 547/62/9
f 549/1/817 550/2/817 552/43/817 551/44/817
f 551/44/818 552/43/818 554/45/818 553/46/818
f 553/46/819 554/45/819 556/47/819 555/48/819
f 555/48/820 556/47/820 558/49/820 557/50/820
f 552/51/12 550/20/12 560/52/12 558/53/12 556/25/12 554/54/12
f 557/50/821 558/49/821 560/55/821 559/56/821
f 559/56/822 560/55/822 550/57/822 549/58/822
f 549/33/9 551/59/9 553/60/9 555/38/9 557/61/9 559/62/9
f 561/1/817 562/2/817 564/43/817 563/44/817
f 563/44/818 564/43/818 566/45/818 565/46/818
f 565/46/819 566/45/819 568/47/819 567/48/819
f 567/48/820 568/47/820 570/49/820 569/50/820
f 564/51/12 562/20/12 572/52/12 570/53/12 568/25/12 566/54/12
f 569/50/821 570/49/821 572/55/821 571/56/821
f 571/56/822 572/55/822 562/57/822 561/58/822
f 561/33/9 563/59/9 565/60/9 567/38/9 569/61/9 571/62/9
f 573/1/817 574/2/817 576/43/817 575/44/817
f 575/44/818 576/43/818 578/45/818 577/46/818
f 577/46/819 578/45/819 580/47/819 579/48/819
f 579/48/820 580/47/820 582/49/820 581/50/820
f 576/51/12 574/20/12 584/52/12 582/53/12 580/25/12 578/54/12
f 581/50/821 582/49/821 584/55/821 583/56/821
f 583/56/822 584/55/822 574/57/822 573/58/822
f 573/33/9 575/59/9 577/60/9 579/38/9 581/61/9 583/62/9
f 585/1/817 586/2/817 588/43/817 587/44/817
f 587/44/818 588/43/818 590/45/818 589/46/818
f 589/46/819 590/45/819 592/47/819 591/48/819
f 591/48/820 592/47/820 594/49/820 593/50/820
f 588/51/12 586/20/12 596/52/12 594/53/12 592/25/12 590/54/12
f 593/50/821 594/49/821 596/55/821 595/56/821
f 595/56/822 596/55/822 586/57/822 585/58/822
f 585/33/9 587/59/9 589/60/9 591/38/9 593/61/9 595/62/9
f 597/1/817 598/2/817 600/43/817 599/44/817
f 599/44/818 600/43/818 602/45/818 601/46/818
f 601/46/819 602/45/819 604/47/819 603/48/819
f 603/48/820 604/47/820 606/49/820 605/50/820
f 600/51/12 598/20/12 608/52/12 606/53/12 604/25/12 602/54/12
f 605/50/821 606/49/821 608/55/821 607/56/821
f 607/56/822 608/55/822 598/57/822 597/58/822
f 597/33/9 599/59/9 601/60/9 603/38/9 605/61/9 607/62/9
f 609/1/817 610/2/817 612/43/817 611/44/817
f 611/44/818 612/43/818 614/45/818 613/46/818
f 613/46/819 614/45/819 616/47/819 615/48/819
f 615/48/820 616/47/820 618/49/820 617/50/820
f 612/51/12 610/20/12 620/52/12 618/53/12 616/25/12 614/54/12
f 617/50/821 618/49/821 620/55/821 619/56/821
f 619/56/822 620/55/822 610/57/822 609/58/822
f 609/33/9 611/59/9 613/60/9 615/38/9 617/61/9 619/62/9
f 621/1/817 622/2/817 624/43/817 623/44/817
f 623/44/818 624/43/818 626/45/818 625/46/818
f 625/46/819 626/45/819 628/47/819 627/48/819
f 627/48/820 628/47/820 630/49/820 629/50/820
f 624/51/12 622/20/12 632/52/12 630/53/12 628/25/12 626/54/12
f 629/50/821 630/49/821 632/55/821 631/56/821
f 631/56/822 632/55/822 622/57/822 621/58/822
f 621/33/9 623/59/9 625/60/9 627/38/9 629/61/9 631/62/9
f 633/1/817 634/2/817 636/43/817 635/44/817
f 635/44/818 636/43/818 638/45/818 637/46/818
f 637/46/819 638/45/819 640/47/819 639/48/819
f 639/48/820 640/47/820 642/49/820 641/50/820
f 636/51/12 634/20/12 644/52/12 642/53/12 640/25/12 638/54/12
f 641/50/821 642/49/821 644/55/821 643/56/821
f 643/56/822 644/55/822 634/57/822 633/58/822
f 633/33/9 635/59/9 637/60/9 639/38/9 641/61/9 643/62/9
f 645/1/817 646/2/817 648/43/817 647/44/817
f 647/44/818 648/43/818 650/45/818 649/46/818
f 649/46/819 650/45/819 652/47/819 651/48/819
f 651/48/820 652/47/820 654/49/820 653/50/820
f 648/51/12 646/20/12 656/52/12 654/53/12 652/25/12 650/54/12
f 653/50/821 654/49/821 656/55/821 655/56/821
f 655/56/822 656/55/822 646/57/822 645/58/822
f 645/33/9 647/59/9 649/60/9 651/38/9 653/61/9 655/62/9
f 657/1/817 658/2/817 660/43/817 659/44/817
f 659/44/818 660/43/818 662/45/818 661/46/818
f 661/46/819 662/45/819 664/47/819 663/48/819
f 663/48/820 664/47/820 666/49/820 665/50/820
f 660/51/12 658/20/12 668/52/12 666/53/12 664/25/12 662/54/12
f 665/50/821 666/49/821 668/55/821 667/56/821
f 667/56/822 668/55/822 658/57/822 657/58/822
f 657/33/9 659/59/9 661/60/9 663/38/9 665/61/9 667/62/9
f 669/1/817 670/2/817 672/43/817 671/44/817
f 671/44/818 672/43/818 674/45/818 673/46/818
f 673/46/819 674/45/819 676/47/819 675/48/819
f 675/48/820 676/47/820 678/49/820 677/50/820
f 672/51/12 670/20/12 680/52/12 678/53/12 676/25/12 674/54/12
f 677/50/821 678/49/821 680/55/821 679/56/821
f 679/56/822 680/55/822 670/57/822 669/58/822
f 669/33/9 671/59/9 673/60/9 675/38/9 677/61/9 679/62/9
f 681/1/817 682/2/817 684/43/817 683/44/817
f 683/44/818 684/43/818 686/45/818 685/46/818
f 685/46/819 686/45/819 688/47/819 687/48/819
f 687/48/820 688/47/820 690/49/820 689/50/820
f 684/51/12 682/20/12 692/52/12 690/53/12 688/25/12 686/54/12
f 689/50/821 690/49/821 692/55/821 691/56/821
f 691/56/822 692/55/822 682/57/822 681/58/822
f 681/33/9 683/59/9 685/60/9 687/38/9 689/61/9 691/62/9
f 693/1/817 694/2/817 696/43/817 695/44/817
f 695/44/818 696/43/818 698/45/818 697/46/818
f 697/46/819 698/45/819 700/47/819 699/48/819
f 699/48/820 700/47/820 702/49/820 701/50/820
f 696/51/12 694/20/12 704/52/12 702/53/12 700/25/12 698/54/12
f 701/50/821 702/49/821 704/55/821 703/56/821
f 703/56/822 704/55/822 694/57/822 693/58/822
f 693/33/9 695/59/9 697/60/9 699/38/9 701/61/9 703/62/9
f 705/1/817 706/2/817 708/43/817 707/44/817
f 707/44/818 708/43/818 710/45/818 709/46/818
f 709/46/819 710/45/819 712/47/819 711/48/819
f 711/48/820 712/47/820 714/49/820 713/50/820
f 708/51/12 706/20/12 716/52/12 714/53/12 712/25/12 710/54/12
f 713/50/821 714/49/821 716/55/821 715/56/821
f 715/56/822 716/55/822 706/57/822 705/58/822
f 705/33/9 707/59/9 709/60/9 711/38/9 713/61/9 715/62/9
f 717/1/817 718/2/817 720/43/817 719/44/817
f 719/44/818 720/43/818 722/45/818 721/46/818
f 721/46/819 722/45/819 724/47/819 723/48/819
f 723/48/820 724/47/820 726/49/820 725/50/820
f 720/51/12 718/20/12 728/52/12 726/53/12 724/25/12 722/54/12
f 725/50/821 726/49/821 728/55/821 727/56/821
f 727/56/822 728/55/822 718/57/822 717/58/822
f 717/33/9 719/59/9 721/60/9 723/38/9 725/61/9 727/62/9
f 729/1/817 730/2/817 732/43/817 731/44/817
f 731/44/818 732/43/818 734/45/818 733/46/818
f 733/46/819 734/45/819 736/47/819 735/48/819
f 735/48/820 736/47/820 738/49/820 737/50/820
f 732/51/12 730/20/12 740/52/12 738/53/12 736/25/12 734/54/12
f 737/50/821 738/49/821 740/55/821 739/56/821
f 739/56/822 740/55/822 730/57/822 729/58/822
f 729/33/9 731/59/9 733/60/9 735/38/9 737/61/9 739/62/9
f 741/1/817 742/2/817 744/43/817 743/44/817
f 743/44/818 744/43/818 746/45/818 745/46/818
f 745/46/819 746/45/819 748/47/819 747/48/819
f 747/48/820 748/47/820 750/49/820 749/50/820
f 744/51/12 742/20/12 752/52/12 750/53/12 748/25/12 746/54/12
f 749/50/821 750/49/821 752/55/821 751/56/821
f 751/56/822 752/55/822 742/57/822 741/58/822
f 741/33/9 743/59/9 745/60/9 747/38/9 749/61/9 751/62/9
f 753/1/817 754/2/817 756/43/817 755/44/817
f 755/44/818 756/43/818 758/45/818 757/46/818
f 757/46/819 758/45/819 760/47/819 759/48/819
f 759/48/820 760/47/820 762/49/820 761/50/820
f 756/51/12 754/20/12 764/52/12 762/53/12 760/25/12 758/54/12
f 761/50/821 762/49/821 764/55/821 763/56/821
f 763/56/822 764/55/822 754/57/822 753/58/822
f 753/33/9 755/59/9 757/60/9 759/38/9 761/61/9 763/62/9
f 765/1/817 766/2/817 768/43/817 767/44/817
f 767/44/818 768/43/818 770/45/818 769/46/818
f 769/46/819 770/45/819 772/47/819 771/48/819
f 771/48/820 772/47/820 774/49/820 773/50/820
f 768/51/12 766/20/12 776/52/12 774/53/12 772/25/12 770/54/12
f 773/50/821 774/49/821 776/55/821 775/56/821
f 775/56/822 776/55/822 766/57/822 765/58/822
f 765/33/9 767/59/9 769/60/9 771/38/9 773/61/9 775/62/9
f 777/1/817 778/2/817 780/43/817 779/44/817
f 779/44/818 780/43/818 782/45/818 781/46/818
f 781/46/819 782/45/819 784/47/819 783/48/819
f 783/48/820 784/47/820 786/49/820 785/50/820
f 780/51/12 778/20/12 788/52/12 786/53/12 784/25/12 782/54/12
f 785/50/821 786/49/821 788/55/821 787/56/821
f 787/56/822 788/55/822 778/57/822 777/58/822
f 777/33/9 779/59/9 781/60/9 783/38/9 785/61/9 787/62/9
f 789/1/817 790/2/817 792/43/817 791/44/817
f 791/44/818 792/43/818 794/45/818 793/46/818
f 793/46/819 794/45/819 796/47/819 795/48/819
f 795/48/820 796/47/820 798/49/820 797/50/820
f 792/51/12 790/20/12 800/52/12 798/53/12 796/25/12 794/54/12
f 797/50/821 798/49/821 800/55/821 799/56/821
f 799/56/822 800/55/822 790/57/822 789/58/822
f 789/33/9 791/59/9 793/60/9 795/38/9 797/61/9 799/62/9
