# Blender 4.0.2
# www.blender.org
mtllib 1_seedling.mtl
o lantadyme_1_seedling
v 0.000000 -0.060000 0.000000
v 0.000000 -0.060000 0.040000
v -0.042426 -0.042426 0.000000
v -0.042426 -0.042426 0.040000
v -0.060000 0.000000 0.000000
v -0.060000 0.000000 0.040000
v -0.042426 0.042426 0.000000
v -0.042426 0.042426 0.040000
v 0.000000 0.060000 0.000000
v 0.000000 0.060000 0.040000
v 0.042426 0.042426 0.000000
v 0.042426 0.042426 0.040000
v 0.060000 0.000000 0.000000
v 0.060000 0.000000 0.040000
v 0.042426 -0.042426 0.000000
v 0.042426 -0.042426 0.040000
v -0.021744 -0.027180 0.007669
v -0.039834 -0.009354 0.030457
v -0.014834 -0.007623 0.029396
v 0.000617 -0.012155 0.032174
v -0.014834 -0.016688 0.034953
v -0.039834 -0.014956 0.033892
v -0.028653 0.016688 0.069047
v -0.003654 0.014956 0.070108
v -0.003654 0.009354 0.073543
v -0.028653 0.007623 0.074604
v -0.044104 0.012155 0.071826
v -0.021744 0.027180 0.096331
v 0.037714 -0.005744 0.009378
v 0.030166 -0.030990 0.031057
v 0.016224 -0.010172 0.029893
v 0.012273 0.005387 0.032939
v 0.023772 -0.005815 0.035985
v 0.034830 -0.028297 0.034821
v 0.000059 -0.035462 0.068015
v -0.010999 -0.012980 0.069179
v -0.006334 -0.010287 0.072943
v 0.007607 -0.031105 0.074107
v 0.011559 -0.046664 0.071061
v -0.013882 -0.035533 0.094622
v -0.015049 0.038518 0.011241
v 0.011686 0.043971 0.031732
v 0.000564 0.021525 0.030471
v -0.010770 0.010228 0.033772
v -0.006654 0.025692 0.037074
v 0.007225 0.046547 0.035812
v 0.032487 0.019052 0.066926
v 0.018608 -0.001803 0.068188
v 0.014148 0.000773 0.072268
v 0.025269 0.023219 0.073529
v 0.036603 0.034516 0.070228
v 0.040882 0.006226 0.092759
vn -0.3827 -0.9239 -0.0000
vn -0.9239 -0.3827 -0.0000
vn -0.9239 0.3827 -0.0000
vn -0.3827 0.9239 -0.0000
vn 0.3827 0.9239 -0.0000
vn 0.9239 0.3827 -0.0000
vn -0.0000 -0.0000 1.0000
vn 0.9239 -0.3827 -0.0000
vn 0.3827 -0.9239 -0.0000
vn -0.0000 -0.0000 -1.0000
vn -0.0799 0.7534 -0.6527
vn -0.8463 -0.2784 -0.4541
vn 0.3154 0.6532 -0.6883
vn 0.3154 -0.9097 0.2700
vn -0.0799 -0.9234 0.3753
vn -0.9958 -0.0478 -0.0780
vn -0.0809 0.8369 -0.5413
vn 0.3251 0.7863 -0.5254
vn 0.3251 -0.8249 0.4625
vn -0.0809 -0.8621 0.5003
vn -0.3251 0.8249 -0.4625
vn 0.0809 0.8621 -0.5003
vn 0.9958 0.0478 0.0780
vn 0.0809 -0.8369 0.5413
vn -0.3251 -0.7863 0.5254
vn -0.3154 0.9097 -0.2700
vn 0.0799 0.9234 -0.3753
vn 0.8463 0.2784 0.4541
vn 0.0799 -0.7534 0.6527
vn -0.3154 -0.6532 0.6883
vn -0.5774 -0.4256 -0.6967
vn 0.6874 -0.5804 -0.4366
vn -0.6867 -0.0322 -0.7263
vn 0.6147 0.7191 0.3240
vn 0.8187 0.3805 0.4300
vn 0.5433 -0.8362 -0.0749
vn -0.6549 -0.4716 -0.5905
vn -0.8150 -0.0951 -0.5716
vn 0.5265 0.6794 0.5111
vn 0.7597 0.3452 0.5511
vn -0.5265 -0.6794 -0.5111
vn -0.7597 -0.3452 -0.5511
vn -0.5433 0.8362 0.0749
vn 0.6549 0.4716 0.5905
vn 0.8150 0.0951 0.5716
vn -0.6147 -0.7191 -0.3240
vn -0.8187 -0.3805 -0.4300
vn -0.6874 0.5804 0.4366
vn 0.5774 0.4256 0.6967
vn 0.6867 0.0322 0.7263
vn 0.6200 -0.2657 -0.7382
vn 0.1367 0.8983 -0.4175
vn 0.3326 -0.5562 -0.7616
vn -0.9119 0.1623 0.3769
vn -0.7151 0.5051 0.4832
vn 0.4487 0.8908 -0.0717
vn 0.7039 -0.3129 -0.6376
vn 0.4590 -0.6405 -0.6157
vn -0.8239 0.1002 0.5579
vn -0.6488 0.4681 0.5999
vn 0.8239 -0.1002 -0.5579
vn 0.6488 -0.4681 -0.5999
vn -0.4487 -0.8908 0.0717
vn -0.7039 0.3129 0.6376
vn -0.4590 0.6405 0.6157
vn 0.9119 -0.1623 -0.3769
vn 0.7151 -0.5051 -0.4832
vn -0.1367 -0.8983 0.4175
vn -0.6200 0.2657 0.7382
vn -0.3326 0.5562 0.7616
vt 1.000000 0.500000
vt 1.000000 1.000000
vt 0.875000 1.000000
vt 0.875000 0.500000
vt 0.750000 1.000000
vt 0.750000 0.500000
vt 0.625000 1.000000
vt 0.625000 0.500000
vt 0.500000 1.000000
vt 0.500000 0.500000
vt 0.375000 1.000000
vt 0.375000 0.500000
vt 0.250000 1.000000
vt 0.250000 0.500000
vt 0.419706 0.419706
vt 0.250000 0.490000
vt 0.080294 0.419706
vt 0.010000 0.250000
vt 0.080294 0.080294
vt 0.250000 0.010000
vt 0.419706 0.080294
vt 0.490000 0.250000
vt 0.125000 1.000000
vt 0.125000 0.500000
vt 0.000000 1.000000
vt 0.000000 0.500000
vt 0.750000 0.490000
vt 0.919706 0.419706
vt 0.990000 0.250000
vt 0.919706 0.080294
vt 0.750000 0.010000
vt 0.580294 0.080294
vt 0.510000 0.250000
vt 0.580294 0.419706
vt 0.181819 0.000000
vt 0.272728 0.157461
vt 0.090910 0.157461
vt 0.363637 0.000000
vt 0.454546 0.157461
vt 0.909091 0.000000
vt 1.000000 0.157461
vt 0.818182 0.157461
vt 0.727273 0.000000
vt 0.636364 0.157461
vt 0.545455 0.000000
vt 0.363637 0.314921
vt 0.181819 0.314921
vt 0.909091 0.314921
vt 0.727273 0.314921
vt 0.545455 0.314921
vt 0.000000 0.314921
vt 0.272728 0.472382
vt 0.090910 0.472382
vt 0.818182 0.472382
vt 0.636364 0.472382
vt 0.454546 0.472382
s 0
usemtl bark
f 1/1/1 2/2/1 4/3/1 3/4/1
f 3/4/2 4/3/2 6/5/2 5/6/2
f 5/6/3 6/5/3 8/7/3 7/8/3
f 7/8/4 8/7/4 10/9/4 9/10/4
f 9/10/5 10/9/5 12/11/5 11/12/5
f 11/12/6 12/11/6 14/13/6 13/14/6
f 4/15/7 2/16/7 16/17/7 14/18/7 12/19/7 10/20/7 8/21/7 6/22/7
f 13/14/8 14/13/8 16/23/8 15/24/8
f 15/24/9 16/23/9 2/25/9 1/26/9
f 1/27/10 3/28/10 5/29/10 7/30/10 9/31/10 11/32/10 13/33/10 15/34/10
usemtl leaf_light_lantadyme
f 17/35/11 18/36/11 19/37/11
f 18/36/12 17/38/12 22/39/12
f 17/40/13 19/41/13 20/42/13
f 17/43/14 20/42/14 21/44/14
f 17/45/15 21/44/15 22/39/15
f 18/36/16 22/39/16 27/46/16
f 19/37/17 18/36/17 23/47/17
f 20/42/18 19/41/18 24/48/18
f 21/44/19 20/42/19 25/49/19
f 22/39/20 21/44/20 26/50/20
f 18/36/21 27/46/21 23/47/21
f 19/37/22 23/47/22 24/51/22
f 20/42/23 24/48/23 25/49/23
f 21/44/24 25/49/24 26/50/24
f 22/39/25 26/50/25 27/46/25
f 23/47/26 27/46/26 28/52/26
f 24/51/27 23/47/27 28/53/27
f 25/49/28 24/48/28 28/54/28
f 26/50/29 25/49/29 28/55/29
f 27/46/30 26/50/30 28/56/30
usemtl leaf_lantadyme
f 29/35/31 30/36/31 31/37/31
f 30/36/32 29/38/32 34/39/32
f 29/40/33 31/41/33 32/42/33
f 29/43/34 32/42/34 33/44/34
f 29/45/35 33/44/35 34/39/35
f 30/36/36 34/39/36 39/46/36
f 31/37/37 30/36/37 35/47/37
f 32/42/38 31/41/38 36/48/38
f 33/44/39 32/42/39 37/49/39
f 34/39/40 33/44/40 38/50/40
f 30/36/41 39/46/41 35/47/41
f 31/37/42 35/47/42 36/51/42
f 32/42/43 36/48/43 37/49/43
f 33/44/44 37/49/44 38/50/44
f 34/39/45 38/50/45 39/46/45
f 35/47/46 39/46/46 40/52/46
f 36/51/47 35/47/47 40/53/47
f 37/49/48 36/48/48 40/54/48
f 38/50/49 37/49/49 40/55/49
f 39/46/50 38/50/50 40/56/50
f 41/35/51 42/36/51 43/37/51
f 42/36/52 41/38/52 46/39/52
f 41/40/53 43/41/53 44/42/53
f 41/43/54 44/42/54 45/44/54
f 41/45/55 45/44/55 46/39/55
f 42/36/56 46/39/56 51/46/56
f 43/37/57 42/36/57 47/47/57
f 44/42/58 43/41/58 48/48/58
f 45/44/59 44/42/59 49/49/59
f 46/39/60 45/44/60 50/50/60
f 42/36/61 51/46/61 47/47/61
f 43/37/62 47/47/62 48/51/62
f 44/42/63 48/48/63 49/49/63
f 45/44/64 49/49/64 50/50/64
f 46/39/65 50/50/65 51/46/65
f 47/47/66 51/46/66 52/52/66
f 48/51/67 47/47/67 52/53/67
f 49/49/68 48/48/68 52/54/68
f 50/50/69 49/49/69 52/55/69
f 51/46/70 50/50/70 52/56/70
