# Blender 4.0.2
# www.blender.org
mtllib bonemeal_pile.mtl
o bonemeal_pile
v 0.022065 -0.002692 0.057981
v 0.013549 -0.023637 0.056449
v 0.006895 -0.000881 0.068617
v 0.021118 0.013733 0.076584
v 0.036563 0.000009 0.069340
v 0.031885 -0.023087 0.056896
v 0.007339 -0.020156 0.074104
v 0.012017 0.002940 0.086549
v 0.030353 0.003490 0.086996
v 0.037008 -0.019265 0.074828
v 0.022785 -0.033880 0.066860
v 0.021838 -0.017454 0.085463
v -0.128078 -0.059250 0.037163
v -0.103780 -0.057297 0.016811
v -0.110930 -0.067275 0.053541
v -0.133681 -0.056379 0.071871
v -0.140591 -0.039666 0.046469
v -0.122111 -0.040234 0.012441
v -0.094366 -0.053219 0.038942
v -0.112845 -0.052651 0.072970
v -0.131176 -0.035588 0.068600
v -0.124026 -0.025610 0.031870
v -0.101276 -0.036506 0.013540
v -0.106878 -0.033635 0.048248
v 0.101838 0.111177 0.077186
v 0.090086 0.101717 0.054631
v 0.079350 0.101421 0.084185
v 0.100720 0.103998 0.104334
v 0.124664 0.105887 0.087232
v 0.118091 0.104478 0.056514
v 0.081704 0.088691 0.067839
v 0.088277 0.090101 0.098557
v 0.116282 0.092861 0.100440
v 0.127018 0.093158 0.070886
v 0.105648 0.090581 0.050737
v 0.104530 0.083401 0.077885
v 0.067027 0.069428 0.045699
v 0.052243 0.065227 0.023909
v 0.058486 0.046991 0.047622
v 0.082423 0.051030 0.060411
v 0.090974 0.071762 0.044602
v 0.072321 0.080536 0.022042
v 0.058502 0.044232 0.025154
v 0.077154 0.035458 0.047713
v 0.097232 0.050767 0.045847
v 0.090989 0.069003 0.022134
v 0.067052 0.064964 0.009345
v 0.082448 0.046565 0.024057
v -0.019331 0.054751 0.072306
v -0.049119 0.073990 0.065726
v -0.035597 0.050686 0.098431
v -0.012962 0.022589 0.093141
v -0.012495 0.028529 0.057164
v -0.034841 0.060296 0.040221
v -0.061159 0.053718 0.082493
v -0.038813 0.021951 0.099436
v -0.024535 0.008257 0.073932
v -0.038057 0.031560 0.041226
v -0.060692 0.059657 0.046517
v -0.054323 0.027495 0.067352
v 0.047185 -0.083769 0.066203
v 0.046399 -0.065888 0.056690
v 0.051380 -0.071755 0.078851
v 0.042769 -0.088830 0.086712
v 0.032466 -0.093516 0.069409
v 0.034710 -0.079338 0.050855
v 0.041498 -0.059899 0.071321
v 0.039255 -0.074077 0.089875
v 0.027565 -0.087526 0.084040
v 0.022584 -0.081660 0.061879
v 0.031195 -0.064585 0.054018
v 0.026780 -0.069646 0.074527
v -0.098939 0.033615 0.027805
v -0.113387 0.046821 0.010881
v -0.107689 0.055912 0.036398
v -0.105010 0.034786 0.053201
v -0.109052 0.012640 0.038068
v -0.114229 0.020078 0.011913
v -0.128387 0.056155 0.025818
v -0.123210 0.048717 0.051973
v -0.124052 0.021973 0.053005
v -0.129750 0.012883 0.027488
v -0.132429 0.034009 0.010685
v -0.138500 0.035180 0.036081
v -0.036867 0.069465 0.037530
v -0.043129 0.073492 -0.001309
v -0.005723 0.069687 0.027316
v -0.005760 0.081722 0.064890
v -0.043190 0.092966 0.059486
v -0.066285 0.087880 0.018573
v -0.015892 0.088239 0.002047
v 0.007203 0.093325 0.042960
v -0.015953 0.107713 0.062842
v -0.053359 0.111518 0.034217
v -0.053322 0.099483 -0.003357
v -0.022215 0.111740 0.024003
vn -0.5299 0.2742 -0.8025
vn 0.0224 0.0639 -0.9977
vn -0.3579 0.6908 -0.6282
vn 0.3460 0.7120 -0.6110
vn 0.5510 0.3066 -0.7762
vn 0.0384 -0.6951 -0.7179
vn -0.9442 -0.1101 -0.3104
vn -0.7326 0.6776 0.0649
vn 0.6866 0.7202 0.0995
vn 0.9631 -0.0529 -0.2639
vn -0.6866 -0.7202 -0.0995
vn -0.9631 0.0529 0.2639
vn -0.0384 0.6951 0.7179
vn 0.9442 0.1101 0.3104
vn 0.7326 -0.6776 -0.0649
vn -0.3460 -0.7120 0.6110
vn -0.5510 -0.3066 0.7762
vn -0.0224 -0.0639 0.9977
vn 0.5299 -0.2742 0.8025
vn 0.3579 -0.6908 0.6282
vn -0.1658 -0.9430 -0.2885
vn -0.4579 -0.6478 -0.6088
vn -0.4283 -0.9036 0.0056
vn -0.8590 -0.5027 -0.0971
vn -0.8347 -0.3204 -0.4479
vn 0.0813 -0.1645 -0.9830
vn 0.5892 -0.8014 -0.1030
vn 0.1092 -0.7890 0.6046
vn -0.9180 0.1672 0.3597
vn -0.7737 0.4673 -0.4279
vn 0.9180 -0.1672 -0.3597
vn 0.7737 -0.4673 0.4279
vn -0.0813 0.1645 0.9830
vn -0.5892 0.8014 0.1030
vn -0.1092 0.7890 -0.6046
vn 0.8590 0.5027 0.0971
vn 0.8347 0.3204 0.4479
vn 0.4579 0.6478 0.6088
vn 0.1658 0.9430 0.2885
vn 0.4283 0.9036 -0.0056
vn -0.4320 0.8896 -0.1480
vn -0.0680 0.9322 -0.3555
vn -0.3266 0.9170 0.2291
vn 0.1088 0.9599 0.2583
vn 0.2666 0.9585 -0.1010
vn 0.0268 0.3632 -0.9313
vn -0.9101 0.2530 -0.3281
vn -0.6698 0.3215 0.6693
vn 0.4998 0.4368 0.7479
vn 0.8789 0.4293 -0.2078
vn -0.4998 -0.4368 -0.7479
vn -0.8789 -0.4293 0.2078
vn -0.0268 -0.3632 0.9313
vn 0.9101 -0.2530 0.3281
vn 0.6698 -0.3215 -0.6693
vn -0.1088 -0.9599 -0.2583
vn -0.2666 -0.9585 0.1010
vn 0.0680 -0.9322 0.3555
vn 0.4320 -0.8896 0.1480
vn 0.3266 -0.9170 -0.2291
vn -0.8056 0.3478 0.4796
vn -0.5746 0.7828 0.2390
vn -0.4888 0.2575 0.8335
vn -0.0235 0.6123 0.7903
vn -0.0697 0.9089 0.4112
vn -0.5359 0.6350 -0.5564
vn -0.9583 -0.2836 0.0342
vn -0.3295 -0.5272 0.7833
vn 0.6822 0.2442 0.6892
vn 0.5231 0.8459 -0.1035
vn -0.6822 -0.2442 -0.6892
vn -0.5231 -0.8459 0.1035
vn 0.5359 -0.6350 0.5564
vn 0.9583 0.2836 -0.0342
vn 0.3295 0.5272 -0.7833
vn 0.0235 -0.6123 -0.7903
vn 0.0697 -0.9089 -0.4112
vn 0.5746 -0.7828 -0.2390
vn 0.8056 -0.3478 -0.4796
vn 0.4888 -0.2575 -0.8335
vn 0.4347 0.8086 0.3964
vn 0.5579 0.8200 -0.1280
vn 0.7115 0.4758 0.5170
vn 0.9731 0.2250 0.0498
vn 0.8452 0.4149 -0.3369
vn -0.1501 0.8336 -0.5316
vn -0.3109 0.7086 0.6334
vn 0.2364 0.0075 0.9716
vn 0.8259 -0.5579 -0.0814
vn 0.5195 -0.0879 -0.8499
vn -0.8259 0.5579 0.0814
vn -0.5195 0.0879 0.8499
vn 0.1501 -0.8336 0.5316
vn 0.3109 -0.7086 -0.6334
vn -0.2364 -0.0075 -0.9716
vn -0.9731 -0.2250 -0.0498
vn -0.8452 -0.4149 0.3369
vn -0.5579 -0.8200 0.1280
vn -0.4347 -0.8086 -0.3965
vn -0.7115 -0.4758 -0.5170
vn 0.9671 -0.0851 -0.2399
vn 0.6894 -0.3164 -0.6517
vn 0.9056 -0.4139 0.0928
vn 0.5359 -0.8393 -0.0917
vn 0.3846 -0.7553 -0.5307
vn 0.1883 0.2486 -0.9501
vn 0.7693 0.6388 -0.0038
vn 0.6725 0.0015 0.7401
vn -0.1388 -0.9319 0.3350
vn -0.3985 -0.7049 -0.5868
vn 0.1388 0.9319 -0.3350
vn 0.3985 0.7049 0.5868
vn -0.1883 -0.2486 0.9501
vn -0.7693 -0.6388 0.0038
vn -0.6725 -0.0015 -0.7401
vn -0.5359 0.8393 0.0917
vn -0.3846 0.7553 0.5307
vn -0.6894 0.3164 0.6517
vn -0.9671 0.0851 0.2399
vn -0.9056 0.4139 -0.0928
vn 0.8207 0.4552 -0.3454
vn 0.7403 -0.0492 -0.6704
vn 0.9349 0.2858 0.2103
vn 0.9156 -0.3270 0.2340
vn 0.7896 -0.5311 -0.3073
vn 0.0370 -0.0397 -0.9985
vn 0.1988 0.9083 -0.3680
vn 0.4119 0.5987 0.6870
vn 0.3751 -0.5687 0.7321
vn 0.1404 -0.9447 -0.2965
vn -0.3751 0.5687 -0.7321
vn -0.1404 0.9447 0.2965
vn -0.0370 0.0397 0.9985
vn -0.1988 -0.9083 0.3680
vn -0.4119 -0.5987 -0.6870
vn -0.9156 0.3270 -0.2340
vn -0.7896 0.5311 0.3073
vn -0.7403 0.0492 0.6704
vn -0.8207 -0.4552 0.3454
vn -0.9349 -0.2858 -0.2103
vn -0.0254 -0.9948 -0.0991
vn -0.5294 -0.8484 -0.0026
vn 0.1063 -0.9469 0.3034
vn -0.3026 -0.6929 0.6545
vn -0.6638 -0.5981 0.4491
vn -0.7247 -0.3318 -0.6039
vn 0.4251 -0.6395 -0.6406
vn 0.8078 -0.5612 0.1806
vn -0.1355 0.0249 0.9905
vn -0.8677 0.1638 0.4694
vn 0.1355 -0.0249 -0.9905
vn 0.8677 -0.1638 -0.4694
vn 0.7247 0.3318 0.6039
vn -0.4251 0.6395 0.6406
vn -0.8078 0.5612 -0.1806
vn 0.3026 0.6929 -0.6545
vn 0.6638 0.5981 -0.4491
vn 0.5294 0.8484 0.0026
vn 0.0254 0.9948 0.0991
vn -0.1063 0.9469 -0.3034
vt 0.181819 0.000000
vt 0.272728 0.157461
vt 0.090910 0.157461
vt 0.363637 0.000000
vt 0.454546 0.157461
vt 0.909091 0.000000
vt 1.000000 0.157461
vt 0.818182 0.157461
vt 0.727273 0.000000
vt 0.636364 0.157461
vt 0.545455 0.000000
vt 0.363637 0.314921
vt 0.181819 0.314921
vt 0.909091 0.314921
vt 0.727273 0.314921
vt 0.545455 0.314921
vt 0.000000 0.314921
vt 0.272728 0.472382
vt 0.090910 0.472382
vt 0.818182 0.472382
vt 0.636364 0.472382
vt 0.454546 0.472382
s 0
usemtl bone
f 1/1/1 2/2/1 3/3/1
f 2/2/2 1/4/2 6/5/2
f 1/6/3 3/7/3 4/8/3
f 1/9/4 4/8/4 5/10/4
f 1/11/5 5/10/5 6/5/5
f 2/2/6 6/5/6 11/12/6
f 3/3/7 2/2/7 7/13/7
f 4/8/8 3/7/8 8/14/8
f 5/10/9 4/8/9 9/15/9
f 6/5/10 5/10/10 10/16/10
f 2/2/11 11/12/11 7/13/11
f 3/3/12 7/13/12 8/17/12
f 4/8/13 8/14/13 9/15/13
f 5/10/14 9/15/14 10/16/14
f 6/5/15 10/16/15 11/12/15
f 7/13/16 11/12/16 12/18/16
f 8/17/17 7/13/17 12/19/17
f 9/15/18 8/14/18 12/20/18
f 10/16/19 9/15/19 12/21/19
f 11/12/20 10/16/20 12/22/20
f 13/1/21 14/2/21 15/3/21
f 14/2/22 13/4/22 18/5/22
f 13/6/23 15/7/23 16/8/23
f 13/9/24 16/8/24 17/10/24
f 13/11/25 17/10/25 18/5/25
f 14/2/26 18/5/26 23/12/26
f 15/3/27 14/2/27 19/13/27
f 16/8/28 15/7/28 20/14/28
f 17/10/29 16/8/29 21/15/29
f 18/5/30 17/10/30 22/16/30
f 14/2/31 23/12/31 19/13/31
f 15/3/32 19/13/32 20/17/32
f 16/8/33 20/14/33 21/15/33
f 17/10/34 21/15/34 22/16/34
f 18/5/35 22/16/35 23/12/35
f 19/13/36 23/12/36 24/18/36
f 20/17/37 19/13/37 24/19/37
f 21/15/38 20/14/38 24/20/38
f 22/16/39 21/15/39 24/21/39
f 23/12/40 22/16/40 24/22/40
f 25/1/41 26/2/41 27/3/41
f 26/2/42 25/4/42 30/5/42
f 25/6/43 27/7/43 28/8/43
f 25/9/44 28/8/44 29/10/44
f 25/11/45 29/10/45 30/5/45
f 26/2/46 30/5/46 35/12/46
f 27/3/47 26/2/47 31/13/47
f 28/8/48 27/7/48 32/14/48
f 29/10/49 28/8/49 33/15/49
f 30/5/50 29/10/50 34/16/50
f 26/2/51 35/12/51 31/13/51
f 27/3/52 31/13/52 32/17/52
f 28/8/53 32/14/53 33/15/53
f 29/10/54 33/15/54 34/16/54
f 30/5/55 34/16/55 35/12/55
f 31/13/56 35/12/56 36/18/56
f 32/17/57 31/13/57 36/19/57
f 33/15/58 32/14/58 36/20/58
f 34/16/59 33/15/59 36/21/59
f 35/12/60 34/16/60 36/22/60
f 37/1/61 38/2/61 39/3/61
f 38/2/62 37/4/62 42/5/62
f 37/6/63 39/7/63 40/8/63
f 37/9/64 40/8/64 41/10/64
f 37/11/65 41/10/65 42/5/65
f 38/2/66 42/5/66 47/12/66
f 39/3/67 38/2/67 43/13/67
f 40/8/68 39/7/68 44/14/68
f 41/10/69 40/8/69 45/15/69
f 42/5/70 41/10/70 46/16/70
f 38/2/71 47/12/71 43/13/71
f 39/3/72 43/13/72 44/17/72
f 40/8/73 44/14/73 45/15/73
f 41/10/74 45/15/74 46/16/74
f 42/5/75 46/16/75 47/12/75
f 43/13/76 47/12/76 48/18/76
f 44/17/77 43/13/77 48/19/77
f 45/15/78 44/14/78 48/20/78
f 46/16/79 45/15/79 48/21/79
f 47/12/80 46/16/80 48/22/80
f 49/1/81 50/2/81 51/3/81
f 50/2/82 49/4/82 54/5/82
f 49/6/83 51/7/83 52/8/83
f 49/9/84 52/8/84 53/10/84
f 49/11/85 53/10/85 54/5/85
f 50/2/86 54/5/86 59/12/86
f 51/3/87 50/2/87 55/13/87
f 52/8/88 51/7/88 56/14/88
f 53/10/89 52/8/89 57/15/89
f 54/5/90 53/10/90 58/16/90
f 50/2/91 59/12/91 55/13/91
f 51/3/92 55/13/92 56/17/92
f 52/8/93 56/14/93 57/15/93
f 53/10/94 57/15/94 58/16/94
f 54/5/95 58/16/95 59/12/95
f 55/13/96 59/12/96 60/18/96
f 56/17/97 55/13/97 60/19/97
f 57/15/98 56/14/98 60/20/98
f 58/16/99 57/15/99 60/21/99
f 59/12/100 58/16/100 60/22/100
f 61/1/101 62/2/101 63/3/101
f 62/2/102 61/4/102 66/5/102
f 61/6/103 63/7/103 64/8/103
f 61/9/104 64/8/104 65/10/104
f 61/11/105 65/10/105 66/5/105
f 62/2/106 66/5/106 71/12/106
f 63/3/107 62/2/107 67/13/107
f 64/8/108 63/7/108 68/14/108
f 65/10/109 64/8/109 69/15/109
f 66/5/110 65/10/110 70/16/110
f 62/2/111 71/12/111 67/13/111
f 63/3/112 67/13/112 68/17/112
f 64/8/113 68/14/113 69/15/113
f 65/10/114 69/15/114 70/16/114
f 66/5/115 70/16/115 71/12/115
f 67/13/116 71/12/116 72/18/116
f 68/17/117 67/13/117 72/19/117
f 69/15/118 68/14/118 72/20/118
f 70/16/119 69/15/119 72/21/119
f 71/12/120 70/16/120 72/22/120
f 73/1/121 74/2/121 75/3/121
f 74/2/122 73/4/122 78/5/122
f 73/6/123 75/7/123 76/8/123
f 73/9/124 76/8/124 77/10/124
f 73/11/125 77/10/125 78/5/125
f 74/2/126 78/5/126 83/12/126
f 75/3/127 74/2/127 79/13/127
f 76/8/128 75/7/128 80/14/128
f 77/10/129 76/8/129 81/15/129
f 78/5/130 77/10/130 82/16/130
f 74/2/131 83/12/131 79/13/131
f 75/3/132 79/13/132 80/17/132
f 76/8/133 80/14/133 81/15/133
f 77/10/134 81/15/134 82/16/134
f 78/5/135 82/16/135 83/12/135
f 79/13/136 83/12/136 84/18/136
f 80/17/137 79/13/137 84/19/137
f 81/15/138 80/14/138 84/20/138
f 82/16/139 81/15/139 84/21/139
f 83/12/140 82/16/140 84/22/140
f 85/1/141 86/2/141 87/3/141
f 86/2/142 85/4/142 90/5/142
f 85/6/143 87/7/143 88/8/143
f 85/9/144 88/8/144 89/10/144
f 85/11/145 89/10/145 90/5/145
f 86/2/146 90/5/146 95/12/146
f 87/3/147 86/2/147 91/13/147
f 88/8/148 87/7/148 92/14/148
f 89/10/149 88/8/149 93/15/149
f 90/5/150 89/10/150 94/16/150
f 86/2/151 95/12/151 91/13/151
f 87/3/152 91/13/152 92/17/152
f 88/8/153 92/14/153 93/15/153
f 89/10/154 93/15/154 94/16/154
f 90/5/155 94/16/155 95/12/155
f 91/13/156 95/12/156 96/18/156
f 92/17/157 91/13/157 96/19/157
f 93/15/158 92/14/158 96/20/158
f 94/16/159 93/15/159 96/21/159
f 95/12/160 94/16/160 96/22/160
