# Blender 4.0.2
# www.blender.org
mtllib compost_bin.mtl
o compost_bin
v 0.200000 0.182000 0.000000
v 0.200000 0.182000 0.400000
v 0.182881 0.194438 0.000000
v 0.182881 0.194438 0.400000
v 0.189420 0.214562 0.000000
v 0.189420 0.214562 0.400000
v 0.210580 0.214562 0.000000
v 0.210580 0.214562 0.400000
v 0.217119 0.194438 0.000000
v 0.217119 0.194438 0.400000
v 0.200000 -0.218000 0.000000
v 0.200000 -0.218000 0.400000
v 0.182881 -0.205562 0.000000
v 0.182881 -0.205562 0.400000
v 0.189420 -0.185438 0.000000
v 0.189420 -0.185438 0.400000
v 0.210580 -0.185438 0.000000
v 0.210580 -0.185438 0.400000
v 0.217119 -0.205562 0.000000
v 0.217119 -0.205562 0.400000
v -0.200000 0.182000 0.000000
v -0.200000 0.182000 0.400000
v -0.217119 0.194438 0.000000
v -0.217119 0.194438 0.400000
v -0.210580 0.214562 0.000000
v -0.210580 0.214562 0.400000
v -0.189420 0.214562 0.000000
v -0.189420 0.214562 0.400000
v -0.182881 0.194438 0.000000
v -0.182881 0.194438 0.400000
v -0.200000 -0.218000 0.000000
v -0.200000 -0.218000 0.400000
v -0.217119 -0.205562 0.000000
v -0.217119 -0.205562 0.400000
v -0.210580 -0.185438 0.000000
v -0.210580 -0.185438 0.400000
v -0.189420 -0.185438 0.000000
v -0.189420 -0.185438 0.400000
v -0.182881 -0.205562 0.000000
v -0.182881 -0.205562 0.400000
v 0.210000 0.212500 0.087500
v 0.210000 0.212500 0.112500
v 0.210000 0.187500 0.087500
v 0.210000 0.187500 0.112500
v -0.210000 0.212500 0.087500
v -0.210000 0.212500 0.112500
v -0.210000 0.187500 0.087500
v -0.210000 0.187500 0.112500
v 0.210000 -0.187500 0.087500
v 0.210000 -0.187500 0.112500
v 0.210000 -0.212500 0.087500
v 0.210000 -0.212500 0.112500
v -0.210000 -0.187500 0.087500
v -0.210000 -0.187500 0.112500
v -0.210000 -0.212500 0.087500
v -0.210000 -0.212500 0.112500
v 0.212500 0.210000 0.087500
v 0.212500 0.210000 0.112500
v 0.212500 -0.210000 0.087500
v 0.212500 -0.210000 0.112500
v 0.187500 0.210000 0.087500
v 0.187500 0.210000 0.112500
v 0.187500 -0.210000 0.087500
v 0.187500 -0.210000 0.112500
v -0.187500 0.210000 0.087500
v -0.187500 0.210000 0.112500
v -0.187500 -0.210000 0.087500
v -0.187500 -0.210000 0.112500
v -0.212500 0.210000 0.087500
v -0.212500 0.210000 0.112500
v -0.212500 -0.210000 0.087500
v -0.212500 -0.210000 0.112500
v 0.210000 0.212500 0.207500
v 0.210000 0.212500 0.232500
v 0.210000 0.187500 0.207500
v 0.210000 0.187500 0.232500
v -0.210000 0.212500 0.207500
v -0.210000 0.212500 0.232500
v -0.210000 0.187500 0.207500
v -0.210000 0.187500 0.232500
v 0.210000 -0.187500 0.207500
v 0.210000 -0.187500 0.232500
v 0.210000 -0.212500 0.207500
v 0.210000 -0.212500 0.232500
v -0.210000 -0.187500 0.207500
v -0.210000 -0.187500 0.232500
v -0.210000 -0.212500 0.207500
v -0.210000 -0.212500 0.232500
v 0.212500 0.210000 0.207500
v 0.212500 0.210000 0.232500
v 0.212500 -0.210000 0.207500
v 0.212500 -0.210000 0.232500
v 0.187500 0.210000 0.207500
v 0.187500 0.210000 0.232500
v 0.187500 -0.210000 0.207500
v 0.187500 -0.210000 0.232500
v -0.187500 0.210000 0.207500
v -0.187500 0.210000 0.232500
v -0.187500 -0.210000 0.207500
v -0.187500 -0.210000 0.232500
v -0.212500 0.210000 0.207500
v -0.212500 0.210000 0.232500
v -0.212500 -0.210000 0.207500
v -0.212500 -0.210000 0.232500
v 0.210000 0.212500 0.337500
v 0.210000 0.212500 0.362500
v 0.210000 0.187500 0.337500
v 0.210000 0.187500 0.362500
v -0.210000 0.212500 0.337500
v -0.210000 0.212500 0.362500
v -0.210000 0.187500 0.337500
v -0.210000 0.187500 0.362500
v 0.210000 -0.187500 0.337500
v 0.210000 -0.187500 0.362500
v 0.210000 -0.212500 0.337500
v 0.210000 -0.212500 0.362500
v -0.210000 -0.187500 0.337500
v -0.210000 -0.187500 0.362500
v -0.210000 -0.212500 0.337500
v -0.210000 -0.212500 0.362500
v 0.212500 0.210000 0.337500
v 0.212500 0.210000 0.362500
v 0.212500 -0.210000 0.337500
v 0.212500 -0.210000 0.362500
v 0.187500 0.210000 0.337500
v 0.187500 0.210000 0.362500
v 0.187500 -0.210000 0.337500
v 0.187500 -0.210000 0.362500
v -0.187500 0.210000 0.337500
v -0.187500 0.210000 0.362500
v -0.187500 -0.210000 0.337500
v -0.187500 -0.210000 0.362500
v -0.212500 0.210000 0.337500
v -0.212500 0.210000 0.362500
v -0.212500 -0.210000 0.337500
v -0.212500 -0.210000 0.362500
v -0.018285 -0.034381 0.113557
v -0.060485 -0.003721 0.136124
v -0.002167 0.015228 0.136124
v 0.033876 -0.034381 0.136124
v -0.002167 -0.083989 0.136124
v -0.060485 -0.065040 0.136124
v -0.034404 0.015228 0.172637
v 0.023914 -0.003721 0.172637
v 0.023914 -0.065040 0.172637
v -0.034404 -0.083989 0.172637
v -0.070447 -0.034381 0.172637
v -0.018285 -0.034381 0.195204
v -0.039484 -0.101611 0.128319
v -0.079712 -0.072383 0.149832
v -0.024118 -0.054319 0.149832
v 0.010242 -0.101611 0.149832
v -0.024118 -0.148903 0.149832
v -0.079712 -0.130838 0.149832
v -0.054849 -0.054319 0.184640
v 0.000745 -0.072383 0.184640
v 0.000745 -0.130838 0.184640
v -0.054849 -0.148903 0.184640
v -0.089209 -0.101611 0.184640
v -0.039484 -0.101611 0.206153
v -0.039449 -0.030450 0.055185
v -0.096603 0.011074 0.085749
v -0.017619 0.036738 0.085749
v 0.031198 -0.030450 0.085749
v -0.017619 -0.097639 0.085749
v -0.096603 -0.071975 0.085749
v -0.061280 0.036738 0.135202
v 0.017705 0.011074 0.135202
v 0.017705 -0.071975 0.135202
v -0.061280 -0.097639 0.135202
v -0.110096 -0.030450 0.135202
v -0.039449 -0.030450 0.165765
v -0.007349 0.014234 0.123751
v -0.057327 0.050545 0.150477
v 0.011740 0.072986 0.150477
v 0.054427 0.014234 0.150477
v 0.011740 -0.044519 0.150477
v -0.057327 -0.022077 0.150477
v -0.026439 0.072986 0.193721
v 0.042629 0.050545 0.193721
v 0.042629 -0.022077 0.193721
v -0.026439 -0.044519 0.193721
v -0.069126 0.014234 0.193721
v -0.007349 0.014234 0.220447
v 0.051663 0.049593 0.073350
v 0.014342 0.076708 0.093308
v 0.065919 0.093467 0.093308
v 0.097796 0.049593 0.093308
v 0.065919 0.005718 0.093308
v 0.014342 0.022477 0.093308
v 0.037408 0.093467 0.125601
v 0.088985 0.076708 0.125601
v 0.088985 0.022477 0.125601
v 0.037408 0.005718 0.125601
v 0.005531 0.049593 0.125601
v 0.051663 0.049593 0.145559
v -0.027971 -0.061322 0.046882
v -0.082529 -0.021684 0.076057
v -0.007132 0.002814 0.076057
v 0.039466 -0.061322 0.076057
v -0.007132 -0.125458 0.076057
v -0.082529 -0.100960 0.076057
v -0.048810 0.002814 0.123263
v 0.026586 -0.021684 0.123263
v 0.026586 -0.100960 0.123263
v -0.048810 -0.125458 0.123263
v -0.095409 -0.061322 0.123263
v -0.027971 -0.061322 0.152438
v -0.111276 -0.014458 0.097927
v -0.150001 0.013677 0.118636
v -0.096484 0.031066 0.118636
v -0.063408 -0.014458 0.118636
v -0.096484 -0.059982 0.118636
v -0.150001 -0.042593 0.118636
v -0.126067 0.031066 0.152143
v -0.072551 0.013677 0.152143
v -0.072551 -0.042593 0.152143
v -0.126067 -0.059982 0.152143
v -0.159144 -0.014458 0.152143
v -0.111276 -0.014458 0.172852
v 0.115435 -0.124806 0.040341
v 0.074623 -0.095155 0.062165
v 0.131023 -0.076829 0.062165
v 0.165881 -0.124806 0.062165
v 0.131023 -0.172783 0.062165
v 0.074623 -0.154457 0.062165
v 0.099847 -0.076829 0.097478
v 0.156247 -0.095155 0.097478
v 0.156247 -0.154457 0.097478
v 0.099847 -0.172783 0.097478
v 0.064989 -0.124806 0.097478
v 0.115435 -0.124806 0.119302
vn -0.5878 -0.8090 -0.0000
vn -0.9511 0.3090 -0.0000
vn -0.0000 1.0000 -0.0000
vn -0.0000 -0.0000 1.0000
vn 0.9511 0.3090 -0.0000
vn 0.5878 -0.8090 -0.0000
vn -0.0000 -0.0000 -1.0000
vn 1.0000 -0.0000 -0.0000
vn -0.0000 -1.0000 -0.0000
vn -1.0000 -0.0000 -0.0000
vn -0.1457 0.4485 -0.8818
vn -0.4716 -0.0000 -0.8818
vn 0.3815 0.2772 -0.8818
vn 0.3815 -0.2772 -0.8818
vn -0.1457 -0.4485 -0.8818
vn -0.9647 -0.0000 -0.2632
vn -0.2981 0.9175 -0.2632
vn 0.7805 0.5671 -0.2632
vn 0.7805 -0.5671 -0.2632
vn -0.2981 -0.9175 -0.2632
vn -0.7805 0.5671 0.2632
vn 0.2981 0.9175 0.2632
vn 0.9647 -0.0000 0.2632
vn 0.2981 -0.9175 0.2632
vn -0.7805 -0.5671 0.2632
vn -0.3815 0.2772 0.8818
vn 0.1457 0.4485 0.8818
vn 0.4716 -0.0000 0.8818
vn 0.1457 -0.4485 0.8818
vn -0.3815 -0.2772 0.8818
vt 1.000000 0.500000
vt 1.000000 1.000000
vt 0.800000 1.000000
vt 0.800000 0.500000
vt 0.600000 1.000000
vt 0.600000 0.500000
vt 0.400000 1.000000
vt 0.400000 0.500000
vt 0.478254 0.324164
vt 0.250000 0.490000
vt 0.021746 0.324164
vt 0.108932 0.055836
vt 0.391068 0.055836
vt 0.200000 1.000000
vt 0.200000 0.500000
vt 0.000000 1.000000
vt 0.000000 0.500000
vt 0.750000 0.490000
vt 0.978254 0.324164
vt 0.891068 0.055836
vt 0.608932 0.055836
vt 0.521746 0.324164
vt 0.375000 0.000000
vt 0.625000 0.000000
vt 0.625000 0.250000
vt 0.375000 0.250000
vt 0.625000 0.500000
vt 0.375000 0.500000
vt 0.625000 0.750000
vt 0.375000 0.750000
vt 0.625000 1.000000
vt 0.375000 1.000000
vt 0.125000 0.500000
vt 0.125000 0.750000
vt 0.875000 0.500000
vt 0.875000 0.750000
vt 0.181819 0.000000
vt 0.272728 0.157461
vt 0.090910 0.157461
vt 0.363637 0.000000
vt 0.454546 0.157461
vt 0.909091 0.000000
vt 1.000000 0.157461
vt 0.818182 0.157461
vt 0.727273 0.000000
vt 0.636364 0.157461
vt 0.545455 0.000000
vt 0.363637 0.314921
vt 0.181819 0.314921
vt 0.909091 0.314921
vt 0.727273 0.314921
vt 0.545455 0.314921
vt 0.000000 0.314921
vt 0.272728 0.472382
vt 0.090910 0.472382
vt 0.818182 0.472382
vt 0.636364 0.472382
vt 0.454546 0.472382
s 0
usemtl bark
f 1/1/1 2/2/1 4/3/1 3/4/1
f 3/4/2 4/3/2 6/5/2 5/6/2
f 5/6/3 6/5/3 8/7/3 7/8/3
f 4/9/4 2/10/4 10/11/4 8/12/4 6/13/4
f 7/8/5 8/7/5 10/14/5 9/15/5
f 9/15/6 10/14/6 2/16/6 1/17/6
f 1/18/7 3/19/7 5/20/7 7/21/7 9/22/7
f 11/1/1 12/2/1 14/3/1 13/4/1
f 13/4/2 14/3/2 16/5/2 15/6/2
f 15/6/3 16/5/3 18/7/3 17/8/3
f 14/9/4 12/10/4 20/11/4 18/12/4 16/13/4
f 17/8/5 18/7/5 20/14/5 19/15/5
f 19/15/6 20/14/6 12/16/6 11/17/6
f 11/18/7 13/19/7 15/20/7 17/21/7 19/22/7
f 21/1/1 22/2/1 24/3/1 23/4/1
f 23/4/2 24/3/2 26/5/2 25/6/2
f 25/6/3 26/5/3 28/7/3 27/8/3
f 24/9/4 22/10/4 30/11/4 28/12/4 26/13/4
f 27/8/5 28/7/5 30/14/5 29/15/5
f 29/15/6 30/14/6 22/16/6 21/17/6
f 21/18/7 23/19/7 25/20/7 27/21/7 29/22/7
f 31/1/1 32/2/1 34/3/1 33/4/1
f 33/4/2 34/3/2 36/5/2 35/6/2
f 35/6/3 36/5/3 38/7/3 37/8/3
f 34/9/4 32/10/4 40/11/4 38/12/4 36/13/4
f 37/8/5 38/7/5 40/14/5 39/15/5
f 39/15/6 40/14/6 32/16/6 31/17/6
f 31/18/7 33/19/7 35/20/7 37/21/7 39/22/7
f 41/23/8 42/24/8 44/25/8 43/26/8
f 43/26/9 44/25/9 48/27/9 47/28/9
f 47/28/10 48/27/10 46/29/10 45/30/10
f 45/30/3 46/29/3 42/31/3 41/32/3
f 43/33/7 47/28/7 45/30/7 41/34/7
f 48/27/4 44/35/4 42/36/4 46/29/4
f 49/23/8 50/24/8 52/25/8 51/26/8
f 51/26/9 52/25/9 56/27/9 55/28/9
f 55/28/10 56/27/10 54/29/10 53/30/10
f 53/30/3 54/29/3 50/31/3 49/32/3
f 51/33/7 55/28/7 53/30/7 49/34/7
f 56/27/4 52/35/4 50/36/4 54/29/4
f 57/23/8 58/24/8 60/25/8 59/26/8
f 59/26/9 60/25/9 64/27/9 63/28/9
f 63/28/10 64/27/10 62/29/10 61/30/10
f 61/30/3 62/29/3 58/31/3 57/32/3
f 59/33/7 63/28/7 61/30/7 57/34/7
f 64/27/4 60/35/4 58/36/4 62/29/4
f 65/23/8 66/24/8 68/25/8 67/26/8
f 67/26/9 68/25/9 72/27/9 71/28/9
f 71/28/10 72/27/10 70/29/10 69/30/10
f 69/30/3 70/29/3 66/31/3 65/32/3
f 67/33/7 71/28/7 69/30/7 65/34/7
f 72/27/4 68/35/4 66/36/4 70/29/4
f 73/23/8 74/24/8 76/25/8 75/26/8
f 75/26/9 76/25/9 80/27/9 79/28/9
f 79/28/10 80/27/10 78/29/10 77/30/10
f 77/30/3 78/29/3 74/31/3 73/32/3
f 75/33/7 79/28/7 77/30/7 73/34/7
f 80/27/4 76/35/4 74/36/4 78/29/4
f 81/23/8 82/24/8 84/25/8 83/26/8
f 83/26/9 84/25/9 88/27/9 87/28/9
f 87/28/10 88/27/10 86/29/10 85/30/10
f 85/30/3 86/29/3 82/31/3 81/32/3
f 83/33/7 87/28/7 85/30/7 81/34/7
f 88/27/4 84/35/4 82/36/4 86/29/4
f 89/23/8 90/24/8 92/25/8 91/26/8
f 91/26/9 92/25/9 96/27/9 95/28/9
f 95/28/10 96/27/10 94/29/10 93/30/10
f 93/30/3 94/29/3 90/31/3 89/32/3
f 91/33/7 95/28/7 93/30/7 89/34/7
f 96/27/4 92/35/4 90/36/4 94/29/4
f 97/23/8 98/24/8 100/25/8 99/26/8
f 99/26/9 100/25/9 104/27/9 103/28/9
f 103/28/10 104/27/10 102/29/10 101/30/10
f 101/30/3 102/29/3 98/31/3 97/32/3
f 99/33/7 103/28/7 101/30/7 97/34/7
f 104/27/4 100/35/4 98/36/4 102/29/4
f 105/23/8 106/24/8 108/25/8 107/26/8
f 107/26/9 108/25/9 112/27/9 111/28/9
f 111/28/10 112/27/10 110/29/10 109/30/10
f 109/30/3 110/29/3 106/31/3 105/32/3
f 107/33/7 111/28/7 109/30/7 105/34/7
f 112/27/4 108/35/4 106/36/4 110/29/4
f 113/23/8 114/24/8 116/25/8 115/26/8
f 115/26/9 116/25/9 120/27/9 119/28/9
f 119/28/10 120/27/10 118/29/10 117/30/10
f 117/30/3 118/29/3 114/31/3 113/32/3
f 115/33/7 119/28/7 117/30/7 113/34/7
f 120/27/4 116/35/4 114/36/4 118/29/4
f 121/23/8 122/24/8 124/25/8 123/26/8
f 123/26/9 124/25/9 128/27/9 127/28/9
f 127/28/10 128/27/10 126/29/10 125/30/10
f 125/30/3 126/29/3 122/31/3 121/32/3
f 123/33/7 127/28/7 125/30/7 121/34/7
f 128/27/4 124/35/4 122/36/4 126/29/4
f 129/23/8 130/24/8 132/25/8 131/26/8
f 131/26/9 132/25/9 136/27/9 135/28/9
f 135/28/10 136/27/10 134/29/10 133/30/10
f 133/30/3 134/29/3 130/31/3 129/32/3
f 131/33/7 135/28/7 133/30/7 129/34/7
f 136/27/4 132/35/4 130/36/4 134/29/4
usemtl compost
f 137/37/11 138/38/11 139/39/11
f 138/38/12 137/40/12 142/41/12
f 137/42/13 139/43/13 140/44/13
f 137/45/14 140/44/14 141/46/14
f 137/47/15 141/46/15 142/41/15
f 138/38/16 142/41/16 147/48/16
f 139/39/17 138/38/17 143/49/17
f 140/44/18 139/43/18 144/50/18
f 141/46/19 140/44/19 145/51/19
f 142/41/20 141/46/20 146/52/20
f 138/38/21 147/48/21 143/49/21
f 139/39/22 143/49/22 144/53/22
f 140/44/23 144/50/23 145/51/23
f 141/46/24 145/51/24 146/52/24
f 142/41/25 146/52/25 147/48/25
f 143/49/26 147/48/26 148/54/26
f 144/53/27 143/49/27 148/55/27
f 145/51/28 144/50/28 148/56/28
f 146/52/29 145/51/29 148/57/29
f 147/48/30 146/52/30 148/58/30
f 149/37/11 150/38/11 151/39/11
f 150/38/12 149/40/12 154/41/12
f 149/42/13 151/43/13 152/44/13
f 149/45/14 152/44/14 153/46/14
f 149/47/15 153/46/15 154/41/15
f 150/38/16 154/41/16 159/48/16
f 151/39/17 150/38/17 155/49/17
f 152/44/18 151/43/18 156/50/18
f 153/46/19 152/44/19 157/51/19
f 154/41/20 153/46/20 158/52/20
f 150/38/21 159/48/21 155/49/21
f 151/39/22 155/49/22 156/53/22
f 152/44/23 156/50/23 157/51/23
f 153/46/24 157/51/24 158/52/24
f 154/41/25 158/52/25 159/48/25
f 155/49/26 159/48/26 160/54/26
f 156/53/27 155/49/27 160/55/27
f 157/51/28 156/50/28 160/56/28
f 158/52/29 157/51/29 160/57/29
f 159/48/30 158/52/30 160/58/30
f 161/37/11 162/38/11 163/39/11
f 162/38/12 161/40/12 166/41/12
f 161/42/13 163/43/13 164/44/13
f 161/45/14 164/44/14 165/46/14
f 161/47/15 165/46/15 166/41/15
f 162/38/16 166/41/16 171/48/16
f 163/39/17 162/38/17 167/49/17
f 164/44/18 163/43/18 168/50/18
f 165/46/19 164/44/19 169/51/19
f 166/41/20 165/46/20 170/52/20
f 162/38/21 171/48/21 167/49/21
f 163/39/22 167/49/22 168/53/22
f 164/44/23 168/50/23 169/51/23
f 165/46/24 169/51/24 170/52/24
f 166/41/25 170/52/25 171/48/25
f 167/49/26 171/48/26 172/54/26
f 168/53/27 167/49/27 172/55/27
f 169/51/28 168/50/28 172/56/28
f 170/52/29 169/51/29 172/57/29
f 171/48/30 170/52/30 172/58/30
f 173/37/11 174/38/11 175/39/11
f 174/38/12 173/40/12 178/41/12
f 173/42/13 175/43/13 176/44/13
f 173/45/14 176/44/14 177/46/14
f 173/47/15 177/46/15 178/41/15
f 174/38/16 178/41/16 183/48/16
f 175/39/17 174/38/17 179/49/17
f 176/44/18 175/43/18 180/50/18
f 177/46/19 176/44/19 181/51/19
f 178/41/20 177/46/20 182/52/20
f 174/38/21 183/48/21 179/49/21
f 175/39/22 179/49/22 180/53/22
f 176/44/23 180/50/23 181/51/23
f 177/46/24 181/51/24 182/52/24
f 178/41/25 182/52/25 183/48/25
f 179/49/26 183/48/26 184/54/26
f 180/53/27 179/49/27 184/55/27
f 181/51/28 180/50/28 184/56/28
f 182/52/29 181/51/29 184/57/29
f 183/48/30 182/52/30 184/58/30
f 185/37/11 186/38/11 187/39/11
f 186/38/12 185/40/12 190/41/12
f 185/42/13 187/43/13 188/44/13
f 185/45/14 188/44/14 189/46/14
f 185/47/15 189/46/15 190/41/15
f 186/38/16 190/41/16 195/48/16
f 187/39/17 186/38/17 191/49/17
f 188/44/18 187/43/18 192/50/18
f 189/46/19 188/44/19 193/51/19
f 190/41/20 189/46/20 194/52/20
f 186/38/21 195/48/21 191/49/21
f 187/39/22 191/49/22 192/53/22
f 188/44/23 192/50/23 193/51/23
f 189/46/24 193/51/24 194/52/24
f 190/41/25 194/52/25 195/48/25
f 191/49/26 195/48/26 196/54/26
f 192/53/27 191/49/27 196/55/27
f 193/51/28 192/50/28 196/56/28
f 194/52/29 193/51/29 196/57/29
f 195/48/30 194/52/30 196/58/30
f 197/37/11 198/38/11 199/39/11
f 198/38/12 197/40/12 202/41/12
f 197/42/13 199/43/13 200/44/13
f 197/45/14 200/44/14 201/46/14
f 197/47/15 201/46/15 202/41/15
f 198/38/16 202/41/16 207/48/16
f 199/39/17 198/38/17 203/49/17
f 200/44/18 199/43/18 204/50/18
f 201/46/19 200/44/19 205/51/19
f 202/41/20 201/46/20 206/52/20
f 198/38/21 207/48/21 203/49/21
f 199/39/22 203/49/22 204/53/22
f 200/44/23 204/50/23 205/51/23
f 201/46/24 205/51/24 206/52/24
f 202/41/25 206/52/25 207/48/25
f 203/49/26 207/48/26 208/54/26
f 204/53/27 203/49/27 208/55/27
f 205/51/28 204/50/28 208/56/28
f 206/52/29 205/51/29 208/57/29
f 207/48/30 206/52/30 208/58/30
f 209/37/11 210/38/11 211/39/11
f 210/38/12 209/40/12 214/41/12
f 209/42/13 211/43/13 212/44/13
f 209/45/14 212/44/14 213/46/14
f 209/47/15 213/46/15 214/41/15
f 210/38/16 214/41/16 219/48/16
f 211/39/17 210/38/17 215/49/17
f 212/44/18 211/43/18 216/50/18
f 213/46/19 212/44/19 217/51/19
f 214/41/20 213/46/20 218/52/20
f 210/38/21 219/48/21 215/49/21
f 211/39/22 215/49/22 216/53/22
f 212/44/23 216/50/23 217/51/23
f 213/46/24 217/51/24 218/52/24
f 214/41/25 218/52/25 219/48/25
f 215/49/26 219/48/26 220/54/26
f 216/53/27 215/49/27 220/55/27
f 217/51/28 216/50/28 220/56/28
f 218/52/29 217/51/29 220/57/29
f 219/48/30 218/52/30 220/58/30
f 221/37/11 222/38/11 223/39/11
f 222/38/12 221/40/12 226/41/12
f 221/42/13 223/43/13 224/44/13
f 221/45/14 224/44/14 225/46/14
f 221/47/15 225/46/15 226/41/15
f 222/38/16 226/41/16 231/48/16
f 223/39/17 222/38/17 227/49/17
f 224/44/18 223/43/18 228/50/18
f 225/46/19 224/44/19 229/51/19
f 226/41/20 225/46/20 230/52/20
f 222/38/21 231/48/21 227/49/21
f 223/39/22 227/49/22 228/53/22
f 224/44/23 228/50/23 229/51/23
f 225/46/24 229/51/24 230/52/24
f 226/41/25 230/52/25 231/48/25
f 227/49/26 231/48/26 232/54/26
f 228/53/27 227/49/27 232/55/27
f 229/51/28 228/50/28 232/56/28
f 230/52/29 229/51/29 232/57/29
f 231/48/30 230/52/30 232/58/30
