# Blender 4.0.2
# www.blender.org
mtllib corner_stake.mtl
o corner_stake
v 0.000000 -0.014000 0.000000
v 0.000000 -0.014000 0.300000
v -0.013315 -0.004326 0.000000
v -0.013315 -0.004326 0.300000
v -0.008229 0.011326 0.000000
v -0.008229 0.011326 0.300000
v 0.008229 0.011326 0.000000
v 0.008229 0.011326 0.300000
v 0.013315 -0.004326 0.000000
v 0.013315 -0.004326 0.300000
v 0.000000 -0.020000 0.196000
v 0.000000 -0.020000 0.204000
v -0.017321 -0.010000 0.196000
v -0.017321 -0.010000 0.204000
v -0.017321 0.010000 0.196000
v -0.017321 0.010000 0.204000
v 0.000000 0.020000 0.196000
v 0.000000 0.020000 0.204000
v 0.017321 0.010000 0.196000
v 0.017321 0.010000 0.204000
v 0.017321 -0.010000 0.196000
v 0.017321 -0.010000 0.204000
v 0.000000 -0.020000 0.221000
v 0.000000 -0.020000 0.229000
v -0.017321 -0.010000 0.221000
v -0.017321 -0.010000 0.229000
v -0.017321 0.010000 0.221000
v -0.017321 0.010000 0.229000
v 0.000000 0.020000 0.221000
v 0.000000 0.020000 0.229000
v 0.017321 0.010000 0.221000
v 0.017321 0.010000 0.229000
v 0.017321 -0.010000 0.221000
v 0.017321 -0.010000 0.229000
v 0.000000 -0.020000 0.246000
v 0.000000 -0.020000 0.254000
v -0.017321 -0.010000 0.246000
v -0.017321 -0.010000 0.254000
v -0.017321 0.010000 0.246000
v -0.017321 0.010000 0.254000
v 0.000000 0.020000 0.246000
v 0.000000 0.020000 0.254000
v 0.017321 0.010000 0.246000
v 0.017321 0.010000 0.254000
v 0.017321 -0.010000 0.246000
v 0.017321 -0.010000 0.254000
v 0.000000 -0.014000 0.300000
v -0.013315 -0.004326 0.300000
v -0.008229 0.011326 0.300000
v 0.008229 0.011326 0.300000
v 0.013315 -0.004326 0.300000
v 0.000000 0.000000 0.340000
vn -0.5878 -0.8090 -0.0000
vn -0.9511 0.3090 -0.0000
vn -0.0000 1.0000 -0.0000
vn -0.0000 -0.0000 1.0000
vn 0.9511 0.3090 -0.0000
vn 0.5878 -0.8090 -0.0000
vn -0.0000 -0.0000 -1.0000
vn -0.5000 -0.8660 -0.0000
vn -1.0000 -0.0000 -0.0000
vn -0.5000 0.8660 -0.0000
vn 0.5000 0.8660 -0.0000
vn 1.0000 -0.0000 -0.0000
vn 0.5000 -0.8660 -0.0000
vn -0.5656 -0.7784 0.2724
vn -0.9151 0.2973 0.2724
vn -0.0000 0.9622 0.2724
vn 0.9151 0.2973 0.2724
vn 0.5656 -0.7784 0.2724
vt 1.000000 0.500000
vt 1.000000 1.000000
vt 0.800000 1.000000
vt 0.800000 0.500000
vt 0.600000 1.000000
vt 0.600000 0.500000
vt 0.400000 1.000000
vt 0.400000 0.500000
vt 0.478254 0.324164
vt 0.250000 0.490000
vt 0.021746 0.324164
vt 0.108932 0.055836
vt 0.391068 0.055836
vt 0.200000 1.000000
vt 0.200000 0.500000
vt 0.000000 1.000000
vt 0.000000 0.500000
vt 0.750000 0.490000
vt 0.978254 0.324164
vt 0.891068 0.055836
vt 0.608932 0.055836
vt 0.521746 0.324164
vt 0.833333 1.000000
vt 0.833333 0.500000
vt 0.666667 1.000000
vt 0.666667 0.500000
vt 0.500000 1.000000
vt 0.500000 0.500000
vt 0.333333 1.000000
vt 0.333333 0.500000
vt 0.457846 0.370000
vt 0.042154 0.370000
vt 0.042154 0.130000
vt 0.250000 0.010000
vt 0.457846 0.130000
vt 0.166667 1.000000
vt 0.166667 0.500000
vt -0.000000 1.000000
vt -0.000000 0.500000
vt 0.957846 0.370000
vt 0.957846 0.130000
vt 0.750000 0.010000
vt 0.542154 0.130000
vt 0.542154 0.370000
vt 0.250000 0.250000
s 0
usemtl bark
f 1/1/1 2/2/1 4/3/1 3/4/1
f 3/4/2 4/3/2 6/5/2 5/6/2
f 5/6/3 6/5/3 8/7/3 7/8/3
f 4/9/4 2/10/4 10/11/4 8/12/4 6/13/4
f 7/8/5 8/7/5 10/14/5 9/15/5
f 9/15/6 10/14/6 2/16/6 1/17/6
f 1/18/7 3/19/7 5/20/7 7/21/7 9/22/7
f 47/10/14 52/45/14 48/9/14
f 48/9/15 52/45/15 49/13/15
f 49/13/16 52/45/16 50/12/16
f 47/18/7 48/19/7 49/20/7 50/21/7 51/22/7
f 50/12/17 52/45/17 51/11/17
f 51/11/18 52/45/18 47/10/18
usemtl twine
f 11/1/8 12/2/8 14/23/8 13/24/8
f 13/24/9 14/23/9 16/25/9 15/26/9
f 15/26/10 16/25/10 18/27/10 17/28/10
f 17/28/11 18/27/11 20/29/11 19/30/11
f 14/31/4 12/10/4 22/32/4 20/33/4 18/34/4 16/35/4
f 19/30/12 20/29/12 22/36/12 21/37/12
f 21/37/13 22/36/13 12/38/13 11/39/13
f 11/18/7 13/40/7 15/41/7 17/42/7 19/43/7 21/44/7
f 23/1/8 24/2/8 26/23/8 25/24/8
f 25/24/9 26/23/9 28/25/9 27/26/9
f 27/26/10 28/25/10 30/27/10 29/28/10
f 29/28/11 30/27/11 32/29/11 31/30/11
f 26/31/4 24/10/4 34/32/4 32/33/4 30/34/4 28/35/4
f 31/30/12 32/29/12 34/36/12 33/37/12
f 33/37/13 34/36/13 24/38/13 23/39/13
f 23/18/7 25/40/7 27/41/7 29/42/7 31/43/7 33/44/7
f 35/1/8 36/2/8 38/23/8 37/24/8
f 37/24/9 38/23/9 40/25/9 39/26/9
f 39/26/10 40/25/10 42/27/10 41/28/10
f 41/28/11 42/27/11 44/29/11 43/30/11
f 38/31/4 36/10/4 46/32/4 44/33/4 42/34/4 40/35/4
f 43/30/12 44/29/12 46/36/12 45/37/12
f 45/37/13 46/36/13 36/38/13 35/39/13
f 35/18/7 37/40/7 39/41/7 41/42/7 43/43/7 45/44/7
