# Blender 4.0.2
# www.blender.org
mtllib fence_section.mtl
o fence_section
v 0.500000 -0.025000 0.000000
v 0.500000 -0.025000 0.600000
v 0.476224 -0.007725 0.000000
v 0.476224 -0.007725 0.600000
v 0.485305 0.020225 0.000000
v 0.485305 0.020225 0.600000
v 0.514695 0.020225 0.000000
v 0.514695 0.020225 0.600000
v 0.523776 -0.007725 0.000000
v 0.523776 -0.007725 0.600000
v -0.500000 -0.025000 0.000000
v -0.500000 -0.025000 0.600000
v -0.523776 -0.007725 0.000000
v -0.523776 -0.007725 0.600000
v -0.514695 0.020225 0.000000
v -0.514695 0.020225 0.600000
v -0.485305 0.020225 0.000000
v -0.485305 0.020225 0.600000
v -0.476224 -0.007725 0.000000
v -0.476224 -0.007725 0.600000
v 0.312500 0.010000 0.050000
v 0.312500 0.010000 0.450000
v 0.312500 -0.010000 0.050000
v 0.312500 -0.010000 0.450000
v 0.287500 0.010000 0.050000
v 0.287500 0.010000 0.450000
v 0.287500 -0.010000 0.050000
v 0.287500 -0.010000 0.450000
v 0.112500 0.010000 0.050000
v 0.112500 0.010000 0.450000
v 0.112500 -0.010000 0.050000
v 0.112500 -0.010000 0.450000
v 0.087500 0.010000 0.050000
v 0.087500 0.010000 0.450000
v 0.087500 -0.010000 0.050000
v 0.087500 -0.010000 0.450000
v -0.087500 0.010000 0.050000
v -0.087500 0.010000 0.450000
v -0.087500 -0.010000 0.050000
v -0.087500 -0.010000 0.450000
v -0.112500 0.010000 0.050000
v -0.112500 0.010000 0.450000
v -0.112500 -0.010000 0.050000
v -0.112500 -0.010000 0.450000
v -0.287500 0.010000 0.050000
v -0.287500 0.010000 0.450000
v -0.287500 -0.010000 0.050000
v -0.287500 -0.010000 0.450000
v -0.312500 0.010000 0.050000
v -0.312500 0.010000 0.450000
v -0.312500 -0.010000 0.050000
v -0.312500 -0.010000 0.450000
v 0.525000 0.012500 0.487500
v 0.525000 0.012500 0.512500
v 0.525000 -0.012500 0.487500
v 0.525000 -0.012500 0.512500
v -0.525000 0.012500 0.487500
v -0.525000 0.012500 0.512500
v -0.525000 -0.012500 0.487500
v -0.525000 -0.012500 0.512500
v 0.525000 0.012500 0.087500
v 0.525000 0.012500 0.112500
v 0.525000 -0.012500 0.087500
v 0.525000 -0.012500 0.112500
v -0.525000 0.012500 0.087500
v -0.525000 0.012500 0.112500
v -0.525000 -0.012500 0.087500
v -0.525000 -0.012500 0.112500
vn -0.5878 -0.8090 -0.0000
vn -0.9511 0.3090 -0.0000
vn -0.0000 1.0000 -0.0000
vn -0.0000 -0.0000 1.0000
vn 0.9511 0.3090 -0.0000
vn 0.5878 -0.8090 -0.0000
vn -0.0000 -0.0000 -1.0000
vn 1.0000 -0.0000 -0.0000
vn -0.0000 -1.0000 -0.0000
vn -1.0000 -0.0000 -0.0000
vt 1.000000 0.500000
vt 1.000000 1.000000
vt 0.800000 1.000000
vt 0.800000 0.500000
vt 0.600000 1.000000
vt 0.600000 0.500000
vt 0.400000 1.000000
vt 0.400000 0.500000
vt 0.478254 0.324164
vt 0.250000 0.490000
vt 0.021746 0.324164
vt 0.108932 0.055836
vt 0.391068 0.055836
vt 0.200000 1.000000
vt 0.200000 0.500000
vt 0.000000 1.000000
vt 0.000000 0.500000
vt 0.750000 0.490000
vt 0.978254 0.324164
vt 0.891068 0.055836
vt 0.608932 0.055836
vt 0.521746 0.324164
vt 0.375000 0.000000
vt 0.625000 0.000000
vt 0.625000 0.250000
vt 0.375000 0.250000
vt 0.625000 0.500000
vt 0.375000 0.500000
vt 0.625000 0.750000
vt 0.375000 0.750000
vt 0.625000 1.000000
vt 0.375000 1.000000
vt 0.125000 0.500000
vt 0.125000 0.750000
vt 0.875000 0.500000
vt 0.875000 0.750000
s 0
usemtl bark
f 1/1/1 2/2/1 4/3/1 3/4/1
f 3/4/2 4/3/2 6/5/2 5/6/2
f 5/6/3 6/5/3 8/7/3 7/8/3
f 4/9/4 2/10/4 10/11/4 8/12/4 6/13/4
f 7/8/5 8/7/5 10/14/5 9/15/5
f 9/15/6 10/14/6 2/16/6 1/17/6
f 1/18/7 3/19/7 5/20/7 7/21/7 9/22/7
f 11/1/1 12/2/1 14/3/1 13/4/1
f 13/4/2 14/3/2 16/5/2 15/6/2
f 15/6/3 16/5/3 18/7/3 17/8/3
f 14/9/4 12/10/4 20/11/4 18/12/4 16/13/4
f 17/8/5 18/7/5 20/14/5 19/15/5
f 19/15/6 20/14/6 12/16/6 11/17/6
f 11/18/7 13/19/7 15/20/7 17/21/7 19/22/7
f 21/23/8 22/24/8 24/25/8 23/26/8
f 23/26/9 24/25/9 28/27/9 27/28/9
f 27/28/10 28/27/10 26/29/10 25/30/10
f 25/30/3 26/29/3 22/31/3 21/32/3
f 23/33/7 27/28/7 25/30/7 21/34/7
f 28/27/4 24/35/4 22/36/4 26/29/4
f 29/23/8 30/24/8 32/25/8 31/26/8
f 31/26/9 32/25/9 36/27/9 35/28/9
f 35/28/10 36/27/10 34/29/10 33/30/10
f 33/30/3 34/29/3 30/31/3 29/32/3
f 31/33/7 35/28/7 33/30/7 29/34/7
f 36/27/4 32/35/4 30/36/4 34/29/4
f 37/23/8 38/24/8 40/25/8 39/26/8
f 39/26/9 40/25/9 44/27/9 43/28/9
f 43/28/10 44/27/10 42/29/10 41/30/10
f 41/30/3 42/29/3 38/31/3 37/32/3
f 39/33/7 43/28/7 41/30/7 37/34/7
f 44/27/4 40/35/4 38/36/4 42/29/4
f 45/23/8 46/24/8 48/25/8 47/26/8
f 47/26/9 48/25/9 52/27/9 51/28/9
f 51/28/10 52/27/10 50/29/10 49/30/10
f 49/30/3 50/29/3 46/31/3 45/32/3
f 47/33/7 51/28/7 49/30/7 45/34/7
f 52/27/4 48/35/4 46/36/4 50/29/4
f 53/23/8 54/24/8 56/25/8 55/26/8
f 55/26/9 56/25/9 60/27/9 59/28/9
f 59/28/10 60/27/10 58/29/10 57/30/10
f 57/30/3 58/29/3 54/31/3 53/32/3
f 55/33/7 59/28/7 57/30/7 53/34/7
f 60/27/4 56/35/4 54/36/4 58/29/4
f 61/23/8 62/24/8 64/25/8 63/26/8
f 63/26/9 64/25/9 68/27/9 67/28/9
f 67/28/10 68/27/10 66/29/10 65/30/10
f 65/30/3 66/29/3 62/31/3 61/32/3
f 63/33/7 67/28/7 65/30/7 61/34/7
f 68/27/4 64/35/4 62/36/4 66/29/4
