# Blender 4.0.2
# www.blender.org
mtllib leprechaun_stand.mtl
o leprechaun_stand
v 0.000000 -0.025000 0.000000
v 0.000000 -0.025000 0.800000
v -0.021651 -0.012500 0.000000
v -0.021651 -0.012500 0.800000
v -0.021651 0.012500 0.000000
v -0.021651 0.012500 0.800000
v 0.000000 0.025000 0.000000
v 0.000000 0.025000 0.800000
v 0.021651 0.012500 0.000000
v 0.021651 0.012500 0.800000
v 0.021651 -0.012500 0.000000
v 0.021651 -0.012500 0.800000
v 0.150000 0.020000 0.600000
v 0.150000 0.020000 0.800000
v 0.150000 -0.020000 0.600000
v 0.150000 -0.020000 0.800000
v -0.150000 0.020000 0.600000
v -0.150000 0.020000 0.800000
v -0.150000 -0.020000 0.600000
v -0.150000 -0.020000 0.800000
v 0.000000 -0.080000 0.850000
v 0.000000 -0.020000 0.990000
v -0.056569 -0.056569 0.850000
v -0.014142 -0.014142 0.990000
v -0.080000 0.000000 0.850000
v -0.020000 0.000000 0.990000
v -0.056569 0.056569 0.850000
v -0.014142 0.014142 0.990000
v 0.000000 0.080000 0.850000
v 0.000000 0.020000 0.990000
v 0.056569 0.056569 0.850000
v 0.014142 0.014142 0.990000
v 0.080000 0.000000 0.850000
v 0.020000 0.000000 0.990000
v 0.056569 -0.056569 0.850000
v 0.014142 -0.014142 0.990000
v 0.000000 -0.100000 0.840000
v 0.000000 -0.100000 0.860000
v -0.070711 -0.070711 0.840000
v -0.070711 -0.070711 0.860000
v -0.100000 0.000000 0.840000
v -0.100000 0.000000 0.860000
v -0.070711 0.070711 0.840000
v -0.070711 0.070711 0.860000
v 0.000000 0.100000 0.840000
v 0.000000 0.100000 0.860000
v 0.070711 0.070711 0.840000
v 0.070711 0.070711 0.860000
v 0.100000 0.000000 0.840000
v 0.100000 0.000000 0.860000
v 0.070711 -0.070711 0.840000
v 0.070711 -0.070711 0.860000
v 0.080000 0.010000 0.865000
v 0.080000 0.010000 0.895000
v 0.080000 -0.010000 0.865000
v 0.080000 -0.010000 0.895000
v -0.080000 0.010000 0.865000
v -0.080000 0.010000 0.895000
v -0.080000 -0.010000 0.865000
v -0.080000 -0.010000 0.895000
vn -0.5000 -0.8660 -0.0000
vn -1.0000 -0.0000 -0.0000
vn -0.5000 0.8660 -0.0000
vn 0.5000 0.8660 -0.0000
vn -0.0000 -0.0000 1.0000
vn 1.0000 -0.0000 -0.0000
vn 0.5000 -0.8660 -0.0000
vn -0.0000 -0.0000 -1.0000
vn -0.0000 -1.0000 -0.0000
vn -0.0000 1.0000 -0.0000
vn -0.3558 -0.8590 0.3681
vn -0.8590 -0.3558 0.3681
vn -0.8590 0.3558 0.3681
vn -0.3558 0.8590 0.3681
vn 0.3558 0.8590 0.3681
vn 0.8590 0.3558 0.3681
vn 0.8590 -0.3558 0.3681
vn 0.3558 -0.8590 0.3681
vn -0.3827 -0.9239 -0.0000
vn -0.9239 -0.3827 -0.0000
vn -0.9239 0.3827 -0.0000
vn -0.3827 0.9239 -0.0000
vn 0.3827 0.9239 -0.0000
vn 0.9239 0.3827 -0.0000
vn 0.9239 -0.3827 -0.0000
vn 0.3827 -0.9239 -0.0000
vt 1.000000 0.500000
vt 1.000000 1.000000
vt 0.833333 1.000000
vt 0.833333 0.500000
vt 0.666667 1.000000
vt 0.666667 0.500000
vt 0.500000 1.000000
vt 0.500000 0.500000
vt 0.333333 1.000000
vt 0.333333 0.500000
vt 0.457846 0.370000
vt 0.250000 0.490000
vt 0.042154 0.370000
vt 0.042154 0.130000
vt 0.250000 0.010000
vt 0.457846 0.130000
vt 0.166667 1.000000
vt 0.166667 0.500000
vt -0.000000 1.000000
vt -0.000000 0.500000
vt 0.750000 0.490000
vt 0.957846 0.370000
vt 0.957846 0.130000
vt 0.750000 0.010000
vt 0.542154 0.130000
vt 0.542154 0.370000
vt 0.375000 0.000000
vt 0.625000 0.000000
vt 0.625000 0.250000
vt 0.375000 0.250000
vt 0.625000 0.500000
vt 0.375000 0.500000
vt 0.625000 0.750000
vt 0.375000 0.750000
vt 0.625000 1.000000
vt 0.375000 1.000000
vt 0.125000 0.500000
vt 0.125000 0.750000
vt 0.875000 0.500000
vt 0.875000 0.750000
vt 0.875000 1.000000
vt 0.750000 1.000000
vt 0.750000 0.500000
vt 0.500000 1.000000
vt 0.500000 0.500000
vt 0.250000 1.000000
vt 0.250000 0.500000
vt 0.419706 0.419706
vt 0.080294 0.419706
vt 0.010000 0.250000
vt 0.080294 0.080294
vt 0.419706 0.080294
vt 0.490000 0.250000
vt 0.125000 1.000000
vt 0.000000 1.000000
vt 0.000000 0.500000
vt 0.919706 0.419706
vt 0.990000 0.250000
vt 0.919706 0.080294
vt 0.580294 0.080294
vt 0.510000 0.250000
vt 0.580294 0.419706
s 0
usemtl bark
f 1/1/1 2/2/1 4/3/1 3/4/1
f 3/4/2 4/3/2 6/5/2 5/6/2
f 5/6/3 6/5/3 8/7/3 7/8/3
f 7/8/4 8/7/4 10/9/4 9/10/4
f 4/11/5 2/12/5 12/13/5 10/14/5 8/15/5 6/16/5
f 9/10/6 10/9/6 12/17/6 11/18/6
f 11/18/7 12/17/7 2/19/7 1/20/7
f 1/21/8 3/22/8 5/23/8 7/24/8 9/25/8 11/26/8
f 13/27/6 14/28/6 16/29/6 15/30/6
f 15/30/9 16/29/9 20/31/9 19/32/9
f 19/32/2 20/31/2 18/33/2 17/34/2
f 17/34/10 18/33/10 14/35/10 13/36/10
f 15/37/8 19/32/8 17/34/8 13/38/8
f 20/31/5 16/39/5 14/40/5 18/33/5
usemtl lep_green
f 21/1/11 22/2/11 24/41/11 23/39/11
f 23/39/12 24/41/12 26/42/12 25/43/12
f 25/43/13 26/42/13 28/35/13 27/31/13
f 27/31/14 28/35/14 30/44/14 29/45/14
f 29/45/15 30/44/15 32/36/15 31/32/15
f 31/32/16 32/36/16 34/46/16 33/47/16
f 24/48/5 22/12/5 36/49/5 34/50/5 32/51/5 30/15/5 28/52/5 26/53/5
f 33/47/17 34/46/17 36/54/17 35/37/17
f 35/37/18 36/54/18 22/55/18 21/56/18
f 21/21/8 23/57/8 25/58/8 27/59/8 29/24/8 31/60/8 33/61/8 35/62/8
f 37/1/19 38/2/19 40/41/19 39/39/19
f 39/39/20 40/41/20 42/42/20 41/43/20
f 41/43/21 42/42/21 44/35/21 43/31/21
f 43/31/22 44/35/22 46/44/22 45/45/22
f 45/45/23 46/44/23 48/36/23 47/32/23
f 47/32/24 48/36/24 50/46/24 49/47/24
f 40/48/5 38/12/5 52/49/5 50/50/5 48/51/5 46/15/5 44/52/5 42/53/5
f 49/47/25 50/46/25 52/54/25 51/37/25
f 51/37/26 52/54/26 38/55/26 37/56/26
f 37/21/8 39/57/8 41/58/8 43/59/8 45/24/8 47/60/8 49/61/8 51/62/8
usemtl metal
f 53/27/6 54/28/6 56/29/6 55/30/6
f 55/30/9 56/29/9 60/31/9 59/32/9
f 59/32/2 60/31/2 58/33/2 57/34/2
f 57/34/10 58/33/10 54/35/10 53/36/10
f 55/37/8 59/32/8 57/34/8 53/38/8
f 60/31/5 56/39/5 54/40/5 58/33/5
