# Blender 4.0.2
# www.blender.org
mtllib patch_weeded.mtl
o patch_weeded
v 0.750000 0.750000 0.000000
v 0.750000 0.750000 0.020000
v 0.750000 -0.750000 0.000000
v 0.750000 -0.750000 0.020000
v -0.750000 0.750000 0.000000
v -0.750000 0.750000 0.020000
v -0.750000 -0.750000 0.000000
v -0.750000 -0.750000 0.020000
v -0.639527 0.487527 0.010961
v -0.646384 0.491282 0.035035
v -0.631070 0.495280 0.031532
v -0.620834 0.489375 0.029424
v -0.629821 0.481728 0.031624
v -0.645612 0.482906 0.035091
v -0.631929 0.495450 0.068376
v -0.616138 0.494272 0.064909
v -0.615366 0.485896 0.064965
v -0.630680 0.481898 0.068468
v -0.640916 0.487803 0.070576
v -0.622223 0.489651 0.089039
v -0.575139 0.455921 0.010645
v -0.567271 0.444569 0.031855
v -0.579142 0.455424 0.033850
v -0.580034 0.467395 0.033841
v -0.568715 0.463938 0.031840
v -0.560827 0.449830 0.030612
v -0.567303 0.449027 0.068160
v -0.575191 0.463135 0.069388
v -0.568747 0.468396 0.068145
v -0.556876 0.457540 0.066150
v -0.555983 0.445570 0.066159
v -0.560879 0.457044 0.089355
v -0.610456 0.501335 0.011383
v -0.612928 0.492961 0.035141
v -0.609008 0.508626 0.033734
v -0.599149 0.514879 0.030940
v -0.596976 0.503077 0.030620
v -0.605492 0.489531 0.033217
v -0.603149 0.501329 0.069380
v -0.594634 0.514875 0.066783
v -0.587198 0.511446 0.064859
v -0.591118 0.495780 0.066266
v -0.600976 0.489527 0.069060
v -0.589670 0.503071 0.088617
v 0.644194 -0.623921 0.010811
v 0.635416 -0.621802 0.034456
v 0.648701 -0.613091 0.031236
v 0.660394 -0.615350 0.029727
v 0.654335 -0.625456 0.032015
v 0.638897 -0.629444 0.034937
v 0.646190 -0.611920 0.067985
v 0.661627 -0.607932 0.065063
v 0.665109 -0.615575 0.065544
v 0.651823 -0.624285 0.068764
v 0.640131 -0.622026 0.070273
v 0.656330 -0.613455 0.089189
v 0.621167 -0.648865 0.010673
v 0.629874 -0.653980 0.033883
v 0.614586 -0.648627 0.033288
v 0.609159 -0.638072 0.031483
v 0.621095 -0.636902 0.030963
v 0.633897 -0.646734 0.032446
v 0.623247 -0.646348 0.069037
v 0.610445 -0.636517 0.067554
v 0.614468 -0.629271 0.066117
v 0.629757 -0.634624 0.066712
v 0.635183 -0.645178 0.068517
v 0.623175 -0.634385 0.089327
v 0.639818 -0.614294 0.012061
v 0.632845 -0.618681 0.035994
v 0.647326 -0.611616 0.034225
v 0.658301 -0.615076 0.030809
v 0.650603 -0.624280 0.030467
v 0.634870 -0.626508 0.033671
v 0.647019 -0.622174 0.069533
v 0.662752 -0.619946 0.066329
v 0.664777 -0.627773 0.064006
v 0.650296 -0.634838 0.065775
v 0.639321 -0.631378 0.069191
v 0.657804 -0.632159 0.087939
v 0.438104 0.480813 0.011025
v 0.431443 0.477878 0.035267
v 0.442913 0.489011 0.032576
v 0.454609 0.488931 0.029877
v 0.450368 0.477748 0.030899
v 0.436051 0.470917 0.034230
v 0.443832 0.484181 0.069101
v 0.458149 0.491013 0.065770
v 0.462757 0.484052 0.064733
v 0.451287 0.472919 0.067424
v 0.439591 0.472998 0.070123
v 0.456096 0.481117 0.088975
v 0.421913 0.519052 0.010888
v 0.429269 0.515512 0.034846
v 0.413454 0.518464 0.032862
v 0.406668 0.528052 0.030389
v 0.418289 0.531025 0.030845
v 0.432257 0.523275 0.033599
v 0.418570 0.522323 0.069155
v 0.404602 0.530074 0.066401
v 0.407591 0.537837 0.065154
v 0.423405 0.534885 0.067138
v 0.430191 0.525297 0.069611
v 0.414946 0.534297 0.089112
v 0.426154 0.531542 0.010696
v 0.434770 0.523812 0.033205
v 0.418829 0.521960 0.030927
v 0.409209 0.529137 0.030716
v 0.419206 0.535426 0.032864
v 0.435003 0.532135 0.034402
v 0.423150 0.516630 0.067136
v 0.407353 0.519921 0.065598
v 0.407586 0.528244 0.066795
v 0.423528 0.530097 0.069073
v 0.433147 0.522919 0.069284
v 0.416202 0.520514 0.089304
v -0.179719 0.198217 0.010199
v -0.177016 0.185315 0.031806
v -0.185547 0.199045 0.033005
v -0.183095 0.210796 0.033092
v -0.173048 0.204327 0.031947
v -0.169291 0.188579 0.031152
v -0.178721 0.189919 0.068053
v -0.182479 0.205667 0.068848
v -0.174754 0.208932 0.068194
v -0.166223 0.195201 0.066995
v -0.168674 0.183451 0.066908
v -0.172051 0.196029 0.089801
v -0.160867 0.229862 0.011225
v -0.172890 0.230528 0.033488
v -0.162922 0.242996 0.030669
v -0.151048 0.244759 0.030600
v -0.153678 0.233380 0.033377
v -0.167177 0.224585 0.035162
v -0.170502 0.245836 0.066623
v -0.157003 0.254631 0.064838
v -0.151290 0.248689 0.066512
v -0.161258 0.236221 0.069331
v -0.173132 0.234458 0.069400
v -0.163313 0.249355 0.088775
v -0.228997 0.205931 0.010816
v -0.231974 0.192090 0.031797
v -0.241048 0.205501 0.031049
v -0.239199 0.217298 0.032273
v -0.228983 0.211178 0.033778
v -0.224518 0.195598 0.033484
v -0.244016 0.194903 0.066222
v -0.248481 0.210483 0.066516
v -0.241024 0.213992 0.068203
v -0.231951 0.200580 0.068951
v -0.233800 0.188783 0.067727
v -0.244001 0.200151 0.089184
v -0.525537 0.377006 0.011828
v -0.531118 0.368970 0.035172
v -0.520815 0.381465 0.034469
v -0.509254 0.383020 0.031638
v -0.512411 0.371486 0.030591
v -0.525924 0.362803 0.032775
v -0.518284 0.370018 0.069409
v -0.504771 0.378701 0.067225
v -0.499578 0.372534 0.064828
v -0.509880 0.360039 0.065531
v -0.521442 0.358485 0.068362
v -0.505159 0.364498 0.088172
v -0.542647 0.384555 0.011646
v -0.548445 0.383002 0.036235
v -0.534588 0.390724 0.032901
v -0.523516 0.387581 0.029493
v -0.530529 0.377917 0.030721
v -0.545936 0.375087 0.034887
v -0.532897 0.385068 0.069279
v -0.517489 0.387899 0.065113
v -0.514981 0.379984 0.063765
v -0.528837 0.372262 0.067099
v -0.539910 0.375404 0.070507
v -0.520778 0.378431 0.088354
v -0.525565 0.318337 0.010187
v -0.533707 0.311994 0.033298
v -0.526280 0.326369 0.032318
v -0.514970 0.330224 0.031168
v -0.515407 0.318231 0.031438
v -0.526987 0.306964 0.032754
v -0.528144 0.319960 0.068562
v -0.516565 0.331226 0.067246
v -0.509845 0.326197 0.066702
v -0.517271 0.311822 0.067682
v -0.528581 0.307967 0.068832
v -0.517986 0.319854 0.089813
v -0.619222 0.228602 0.010219
v -0.630183 0.225903 0.032873
v -0.620497 0.238818 0.031403
v -0.608660 0.240781 0.031047
v -0.611031 0.229080 0.032297
v -0.624332 0.219885 0.033425
v -0.626395 0.236415 0.067703
v -0.613094 0.245610 0.066575
v -0.607243 0.239592 0.067127
v -0.616928 0.226677 0.068597
v -0.628765 0.224714 0.068953
v -0.618203 0.236893 0.089781
v -0.611466 0.200012 0.010133
v -0.605773 0.187173 0.031190
v -0.618441 0.197206 0.032455
v -0.620051 0.209070 0.033327
v -0.608377 0.206368 0.032602
v -0.599553 0.192835 0.031281
v -0.610839 0.188295 0.067398
v -0.619663 0.201828 0.068719
v -0.613444 0.207491 0.068810
v -0.600775 0.197457 0.067545
v -0.599165 0.185594 0.066673
v -0.607750 0.194651 0.089867
v -0.586931 0.199051 0.010527
v -0.585164 0.189328 0.033828
v -0.592067 0.203970 0.032981
v -0.588310 0.215239 0.031258
v -0.579084 0.207562 0.031039
v -0.577140 0.191548 0.032628
v -0.585450 0.199506 0.068961
v -0.587394 0.215520 0.067372
v -0.579370 0.217740 0.066172
v -0.572467 0.203098 0.067019
v -0.576225 0.191829 0.068742
v -0.577603 0.208017 0.089473
v -0.124439 -0.579653 0.012062
v -0.136091 -0.582113 0.034396
v -0.131831 -0.566971 0.030483
v -0.121626 -0.560662 0.030094
v -0.119579 -0.571905 0.033768
v -0.128519 -0.585163 0.036427
v -0.140480 -0.564644 0.066232
v -0.131540 -0.551386 0.063573
v -0.123968 -0.554436 0.065604
v -0.128228 -0.569578 0.069517
v -0.138433 -0.575887 0.069906
v -0.135620 -0.556897 0.087938
v -0.121433 -0.526862 0.011942
v -0.112019 -0.538057 0.032598
v -0.122405 -0.525946 0.035458
v -0.122113 -0.513959 0.034893
v -0.111545 -0.518662 0.031685
v -0.105307 -0.533556 0.030266
v -0.106880 -0.532074 0.068315
v -0.113119 -0.517181 0.069734
v -0.106406 -0.512679 0.067402
v -0.096020 -0.524791 0.064542
v -0.096313 -0.536778 0.065107
v -0.096992 -0.523875 0.088058
v -0.135037 -0.532464 0.010432
v -0.128221 -0.545948 0.030738
v -0.142515 -0.538403 0.031963
v -0.146244 -0.527120 0.033660
v -0.134255 -0.527693 0.033484
v -0.123116 -0.539329 0.031678
v -0.135216 -0.548939 0.066516
v -0.146355 -0.537303 0.068322
v -0.141250 -0.530683 0.069262
v -0.126957 -0.538229 0.068037
v -0.123227 -0.549512 0.066340
v -0.134434 -0.544168 0.089568
v -0.263759 -0.563987 0.011383
v -0.265959 -0.570576 0.035722
v -0.263998 -0.554711 0.033032
v -0.254917 -0.547503 0.029924
v -0.251265 -0.558912 0.030694
v -0.258089 -0.573171 0.034277
v -0.258476 -0.558162 0.069306
v -0.251652 -0.543903 0.065723
v -0.243782 -0.546498 0.064278
v -0.245743 -0.562363 0.066968
v -0.254824 -0.569571 0.070076
v -0.245982 -0.553087 0.088617
v -0.251050 -0.588540 0.011901
v -0.246199 -0.595972 0.035605
v -0.253826 -0.581730 0.034277
v -0.250815 -0.570544 0.031131
v -0.241328 -0.577872 0.030515
v -0.238475 -0.593587 0.033279
v -0.242967 -0.582570 0.069485
v -0.245820 -0.566854 0.066721
v -0.238096 -0.564470 0.064395
v -0.230469 -0.578711 0.065723
v -0.233480 -0.589898 0.068869
v -0.233245 -0.571902 0.088099
v -0.228518 -0.524427 0.010443
v -0.227269 -0.536728 0.032529
v -0.232647 -0.521464 0.033442
v -0.227788 -0.510506 0.032790
v -0.219407 -0.518999 0.031474
v -0.219086 -0.535204 0.031313
v -0.225767 -0.530409 0.068526
v -0.226088 -0.514203 0.068687
v -0.217906 -0.512680 0.067471
v -0.212527 -0.527944 0.066558
v -0.217386 -0.538901 0.067210
v -0.216656 -0.524980 0.089557
v -0.235865 0.539493 0.011921
v -0.227094 0.536194 0.035433
v -0.241610 0.543340 0.034437
v -0.245738 0.554199 0.031414
v -0.233774 0.553764 0.030542
v -0.222251 0.542637 0.033026
v -0.231546 0.548861 0.069458
v -0.243069 0.559988 0.066974
v -0.238226 0.566431 0.064567
v -0.223710 0.559285 0.065563
v -0.219582 0.548427 0.068586
v -0.229455 0.563132 0.088079
v -0.294914 0.597426 0.011713
v -0.298463 0.592393 0.036263
v -0.302503 0.607400 0.031655
v -0.296625 0.617450 0.028736
v -0.288952 0.608655 0.031540
v -0.290088 0.593169 0.036192
v -0.302368 0.609307 0.068460
v -0.301231 0.624793 0.063808
v -0.292856 0.625569 0.063737
v -0.288816 0.610563 0.068345
v -0.294694 0.600512 0.071264
v -0.296405 0.620537 0.088287
v -0.261750 0.551706 0.010648
v -0.257378 0.542794 0.033931
v -0.272600 0.547623 0.031151
v -0.278305 0.558132 0.030099
v -0.266610 0.559797 0.032228
v -0.253676 0.550317 0.034597
v -0.271232 0.543711 0.067772
v -0.284166 0.553191 0.065403
v -0.280464 0.560715 0.066069
v -0.265242 0.555885 0.068849
v -0.259537 0.545376 0.069901
v -0.276092 0.551802 0.089352
v -0.520937 -0.087500 0.010615
v -0.513161 -0.100363 0.030980
v -0.528511 -0.095188 0.031551
v -0.534061 -0.084684 0.033277
v -0.522139 -0.083368 0.033772
v -0.509223 -0.093058 0.032352
v -0.521478 -0.105496 0.066228
v -0.534395 -0.095806 0.067648
v -0.530456 -0.088501 0.069020
v -0.515106 -0.093677 0.068449
v -0.509557 -0.104180 0.066723
v -0.522680 -0.101364 0.089385
v -0.504796 -0.151392 0.011890
v -0.515376 -0.144522 0.033833
v -0.501205 -0.137397 0.030492
v -0.489646 -0.140634 0.030557
v -0.496673 -0.149759 0.033938
v -0.512575 -0.152162 0.035963
v -0.506766 -0.129518 0.066062
v -0.490864 -0.127115 0.064037
v -0.488063 -0.134755 0.066167
v -0.502234 -0.141880 0.069508
v -0.513793 -0.138644 0.069443
v -0.498643 -0.127886 0.088110
v -0.515381 -0.162826 0.012103
v -0.510576 -0.165256 0.036835
v -0.525441 -0.159910 0.033200
v -0.530249 -0.149603 0.029361
v -0.518355 -0.148579 0.030623
v -0.506197 -0.158253 0.035242
v -0.522475 -0.153536 0.069377
v -0.534633 -0.143862 0.064758
v -0.530254 -0.136859 0.063165
v -0.515389 -0.142205 0.066800
v -0.510581 -0.152512 0.070639
v -0.525449 -0.139289 0.087897
v 0.240341 0.400615 0.010541
v 0.225930 0.394296 0.030366
v 0.236028 0.406725 0.032875
v 0.247819 0.408091 0.034664
v 0.245008 0.396505 0.033259
v 0.231480 0.387980 0.030603
v 0.224500 0.397867 0.066741
v 0.238029 0.406392 0.069397
v 0.243579 0.400076 0.069634
v 0.233481 0.387647 0.067125
v 0.221689 0.386281 0.065336
v 0.229167 0.393757 0.089459
v 0.249456 0.393619 0.010873
v 0.247121 0.378109 0.030739
v 0.244770 0.393821 0.033955
v 0.251692 0.403553 0.035163
v 0.258321 0.393855 0.032693
v 0.255496 0.378130 0.029959
v 0.247914 0.378458 0.067307
v 0.250740 0.394183 0.070041
v 0.259115 0.394204 0.069261
v 0.261465 0.378492 0.066045
v 0.254543 0.368760 0.064837
v 0.256780 0.378695 0.089127
v 0.228826 0.355491 0.012038
v 0.244438 0.352987 0.031803
v 0.228742 0.354471 0.035570
v 0.220690 0.363370 0.035817
v 0.231409 0.367386 0.032203
v 0.246086 0.360969 0.029722
v 0.245950 0.359319 0.067797
v 0.231273 0.365736 0.070278
v 0.232921 0.373717 0.068197
v 0.248617 0.372233 0.064430
v 0.256669 0.363335 0.064183
v 0.248533 0.371214 0.087962
v -0.464629 -0.129079 0.011371
v -0.481373 -0.124148 0.029700
v -0.466321 -0.118827 0.032509
v -0.455824 -0.123752 0.035615
v -0.464388 -0.132116 0.034726
v -0.480178 -0.132360 0.031071
v -0.482915 -0.115773 0.065274
v -0.467125 -0.115529 0.068929
v -0.465931 -0.123741 0.070300
v -0.480982 -0.129062 0.067491
v -0.491480 -0.124137 0.064385
v -0.482674 -0.118810 0.088629
v -0.418556 -0.095364 0.010487
v -0.413784 -0.106396 0.032762
v -0.428791 -0.100509 0.031067
v -0.433900 -0.089646 0.031116
v -0.422049 -0.088820 0.032842
v -0.409617 -0.099172 0.033859
v -0.426179 -0.107496 0.067158
v -0.438612 -0.097144 0.066141
v -0.434445 -0.089920 0.067238
v -0.419437 -0.095807 0.068933
v -0.414329 -0.106669 0.068884
v -0.429673 -0.100951 0.089513
v -0.412099 -0.138278 0.010723
v -0.427849 -0.134946 0.030255
v -0.412296 -0.131533 0.033290
v -0.402242 -0.137824 0.035143
v -0.411582 -0.145125 0.033254
v -0.427408 -0.143346 0.030232
v -0.427727 -0.132432 0.066746
v -0.411901 -0.134211 0.069768
v -0.411459 -0.142611 0.069745
v -0.427012 -0.146024 0.066710
v -0.437066 -0.139733 0.064857
v -0.427209 -0.139279 0.089277
v -0.563492 -0.357264 0.020000
v -0.563492 -0.357264 0.118448
v -0.570512 -0.362031 0.020000
v -0.570512 -0.362031 0.118448
v -0.575279 -0.355011 0.020000
v -0.575279 -0.355011 0.118448
v -0.568259 -0.350244 0.020000
v -0.568259 -0.350244 0.118448
v -0.083484 -0.252554 0.020000
v -0.083484 -0.252554 0.104493
v -0.080860 -0.260624 0.020000
v -0.080860 -0.260624 0.104493
v -0.088930 -0.263247 0.020000
v -0.088930 -0.263247 0.104493
v -0.091553 -0.255178 0.020000
v -0.091553 -0.255178 0.104493
v 0.319181 -0.596868 0.020000
v 0.319181 -0.596868 0.092499
v 0.310930 -0.598848 0.020000
v 0.310930 -0.598848 0.092499
v 0.308950 -0.590597 0.020000
v 0.308950 -0.590597 0.092499
v 0.317201 -0.588617 0.020000
v 0.317201 -0.588617 0.092499
v -0.361290 -0.586694 0.020000
v -0.361290 -0.586694 0.106035
v -0.361112 -0.595177 0.020000
v -0.361112 -0.595177 0.106035
v -0.369595 -0.595355 0.020000
v -0.369595 -0.595355 0.106035
v -0.369773 -0.586872 0.020000
v -0.369773 -0.586872 0.106035
v 0.467237 -0.428404 0.020000
v 0.467237 -0.428404 0.106700
v 0.459499 -0.424921 0.020000
v 0.459499 -0.424921 0.106700
v 0.462982 -0.417184 0.020000
v 0.462982 -0.417184 0.106700
v 0.470720 -0.420666 0.020000
v 0.470720 -0.420666 0.106700
v 0.413926 0.582127 0.020000
v 0.413926 0.582127 0.101273
v 0.405453 0.581674 0.020000
v 0.405453 0.581674 0.101273
v 0.405000 0.590147 0.020000
v 0.405000 0.590147 0.101273
v 0.413473 0.590600 0.020000
v 0.413473 0.590600 0.101273
v 0.612271 -0.548335 0.020000
v 0.612271 -0.548335 0.100251
v 0.612327 -0.556820 0.020000
v 0.612327 -0.556820 0.100251
v 0.603841 -0.556875 0.020000
v 0.603841 -0.556875 0.100251
v 0.603786 -0.548390 0.020000
v 0.603786 -0.548390 0.100251
v -0.016533 0.118298 0.020000
v -0.016533 0.118298 0.106440
v -0.021932 0.111753 0.020000
v -0.021932 0.111753 0.106440
v -0.028478 0.117153 0.020000
v -0.028478 0.117153 0.106440
v -0.023078 0.123698 0.020000
v -0.023078 0.123698 0.106440
vn 1.0000 -0.0000 -0.0000
vn -0.0000 -1.0000 -0.0000
vn -1.0000 -0.0000 -0.0000
vn -0.0000 1.0000 -0.0000
vn -0.0000 -0.0000 -1.0000
vn -0.0000 -0.0000 1.0000
vn -0.2945 0.9279 -0.2286
vn -0.9614 -0.0904 -0.2598
vn 0.3718 0.8078 -0.4573
vn 0.5138 -0.7323 -0.4469
vn -0.1197 -0.9691 -0.2158
vn -0.9857 -0.0899 0.1428
vn -0.2548 0.9669 -0.0104
vn 0.4632 0.8676 -0.1810
vn 0.6142 -0.7707 -0.1699
vn -0.0738 -0.9973 0.0029
vn -0.6142 0.7707 0.1699
vn 0.0738 0.9973 -0.0029
vn 0.9857 0.0899 -0.1428
vn 0.2548 -0.9669 0.0104
vn -0.4632 -0.8676 0.1810
vn -0.5138 0.7323 0.4469
vn 0.1197 0.9691 0.2158
vn 0.9614 0.0904 0.2598
vn 0.2945 -0.9279 0.2286
vn -0.3718 -0.8078 0.4573
vn -0.6809 -0.7202 -0.1329
vn 0.4644 -0.6976 -0.5456
vn -0.9825 -0.0734 -0.1710
vn 0.2025 0.8941 -0.3995
vn 0.7786 0.4714 -0.4143
vn 0.6021 -0.7789 -0.1754
vn -0.6637 -0.7425 0.0906
vn -0.9893 -0.0737 0.1260
vn 0.2711 0.9554 -0.1171
vn 0.8475 0.4914 -0.2008
vn -0.2711 -0.9554 0.1171
vn -0.8475 -0.4914 0.2008
vn -0.6021 0.7789 0.1754
vn 0.6637 0.7425 -0.0906
vn 0.9893 0.0737 -0.1260
vn -0.2025 -0.8941 0.3995
vn -0.7786 -0.4714 0.4143
vn -0.4644 0.6976 0.5456
vn 0.6809 0.7202 0.1329
vn 0.9825 0.0734 0.1710
vn -0.9703 0.2414 -0.0159
vn -0.4648 -0.8188 -0.3370
vn -0.5663 0.7936 -0.2222
vn 0.8010 0.1631 -0.5760
vn 0.7138 -0.5353 -0.4517
vn -0.4073 -0.9119 0.0512
vn -0.9444 0.2549 0.2074
vn -0.5211 0.8510 0.0657
vn 0.9333 0.1803 -0.3106
vn 0.7993 -0.5492 -0.2438
vn -0.9333 -0.1803 0.3106
vn -0.7993 0.5492 0.2438
vn 0.4073 0.9119 -0.0512
vn 0.9444 -0.2550 -0.2074
vn 0.5211 -0.8510 -0.0657
vn -0.8010 -0.1631 0.5760
vn -0.7138 0.5353 0.4517
vn 0.4648 0.8188 0.3370
vn 0.9703 -0.2414 0.0159
vn 0.5663 -0.7936 0.2222
vn -0.5729 0.7697 -0.2817
vn -0.8656 -0.4122 -0.2844
vn 0.1054 0.8687 -0.4839
vn 0.7455 -0.5365 -0.3954
vn 0.2156 -0.9611 -0.1727
vn -0.9065 -0.4056 0.1168
vn -0.5580 0.8273 -0.0645
vn 0.1596 0.9650 -0.2081
vn 0.8405 -0.5297 -0.1140
vn 0.2584 -0.9648 0.0484
vn -0.8405 0.5297 0.1140
vn -0.2584 0.9648 -0.0484
vn 0.9065 0.4056 -0.1168
vn 0.5580 -0.8273 0.0645
vn -0.1596 -0.9650 0.2081
vn -0.7455 0.5365 0.3954
vn -0.2156 0.9611 0.1727
vn 0.8656 0.4122 0.2844
vn 0.5729 -0.7697 0.2817
vn -0.1054 -0.8687 0.4839
vn -0.3263 -0.9414 -0.0851
vn 0.7661 -0.5043 -0.3985
vn -0.8457 -0.4760 -0.2411
vn -0.1060 0.8564 -0.5053
vn 0.5848 0.6997 -0.4104
vn 0.8734 -0.4869 -0.0101
vn -0.3320 -0.9328 0.1399
vn -0.8917 -0.4497 0.0512
vn -0.1049 0.9676 -0.2298
vn 0.6114 0.7664 -0.1970
vn 0.1049 -0.9676 0.2298
vn -0.6114 -0.7664 0.1970
vn -0.8734 0.4869 0.0101
vn 0.3320 0.9328 -0.1399
vn 0.8917 0.4497 -0.0512
vn 0.1060 -0.8564 0.5053
vn -0.5848 -0.6997 0.4104
vn -0.7661 0.5043 0.3985
vn 0.3263 0.9414 0.0851
vn 0.8457 0.4760 0.2411
vn -0.4344 0.8999 0.0384
vn -0.9408 -0.1537 -0.3023
vn 0.2389 0.9511 -0.1959
vn 0.6113 -0.4881 -0.6230
vn 0.0243 -0.8727 -0.4877
vn -0.9586 -0.2726 0.0827
vn -0.3976 0.8800 0.2597
vn 0.3244 0.9418 0.0885
vn 0.7205 -0.5891 -0.3658
vn 0.0772 -0.9554 -0.2850
vn -0.7205 0.5891 0.3659
vn -0.0772 0.9554 0.2850
vn 0.9586 0.2726 -0.0827
vn 0.3976 -0.8800 -0.2597
vn -0.3244 -0.9418 -0.0885
vn -0.6113 0.4881 0.6230
vn -0.0243 0.8727 0.4877
vn 0.9408 0.1537 0.3023
vn 0.4344 -0.8999 -0.0384
vn -0.2389 -0.9511 0.1959
vn -0.7054 0.7004 -0.1090
vn -0.8182 -0.4991 -0.2853
vn -0.0722 0.9375 -0.3405
vn 0.7750 -0.3425 -0.5311
vn 0.3381 -0.8761 -0.3437
vn -0.8206 -0.5601 0.1134
vn -0.6783 0.7261 0.1131
vn -0.0064 0.9983 -0.0573
vn 0.8947 -0.3631 -0.2600
vn 0.4022 -0.9063 -0.1300
vn -0.8947 0.3631 0.2600
vn -0.4022 0.9063 0.1300
vn 0.8206 0.5601 -0.1134
vn 0.6783 -0.7261 -0.1131
vn 0.0064 -0.9983 0.0573
vn -0.7750 0.3425 0.5311
vn -0.3381 0.8761 0.3437
vn 0.8182 0.4991 0.2853
vn 0.7054 -0.7004 0.1090
vn 0.0722 -0.9375 0.3405
vn -0.1715 -0.9808 -0.0923
vn 0.8649 -0.3847 -0.3224
vn -0.7401 -0.6014 -0.3010
vn -0.1906 0.8261 -0.5302
vn 0.5053 0.7774 -0.3747
vn 0.9346 -0.3480 0.0732
vn -0.1978 -0.9714 0.1312
vn -0.8145 -0.5801 -0.0142
vn -0.2300 0.9384 -0.2580
vn 0.5030 0.8491 -0.1612
vn 0.2300 -0.9384 0.2580
vn -0.5030 -0.8491 0.1612
vn -0.9346 0.3480 -0.0732
vn 0.1978 0.9714 -0.1312
vn 0.8145 0.5801 0.0142
vn 0.1906 -0.8261 0.5302
vn -0.5053 -0.7774 0.3747
vn -0.8649 0.3847 0.3224
vn 0.1715 0.9808 0.0923
vn 0.7401 0.6014 0.3010
vn 0.1597 -0.9133 -0.3747
vn 0.9364 0.0241 -0.3501
vn -0.5065 -0.6938 -0.5120
vn -0.4636 0.8366 -0.2919
vn 0.2125 0.9716 -0.1036
vn 0.9984 -0.0343 0.0441
vn 0.1365 -0.9776 -0.1602
vn -0.5776 -0.7811 -0.2371
vn -0.5320 0.8467 -0.0030
vn 0.1912 0.9741 0.1205
vn 0.5320 -0.8467 0.0030
vn -0.1912 -0.9741 -0.1205
vn -0.9984 0.0343 -0.0441
vn -0.1365 0.9776 0.1602
vn 0.5776 0.7811 0.2371
vn 0.4636 -0.8366 0.2919
vn -0.2125 -0.9716 0.1036
vn -0.9364 -0.0241 0.3501
vn -0.1597 0.9133 0.3747
vn 0.5065 0.6938 0.5120
vn -0.8404 -0.5050 -0.1964
vn 0.2958 -0.8034 -0.5168
vn -0.9476 0.1996 -0.2494
vn 0.4728 0.7998 -0.3697
vn 0.9090 0.2343 -0.3446
vn 0.3756 -0.9165 -0.1379
vn -0.8480 -0.5293 0.0273
vn -0.9779 0.2037 0.0461
vn 0.5329 0.8422 -0.0819
vn 0.9635 0.2362 -0.1261
vn -0.5329 -0.8422 0.0819
vn -0.9635 -0.2362 0.1261
vn -0.3756 0.9165 0.1379
vn 0.8480 0.5293 -0.0273
vn 0.9779 -0.2037 -0.0461
vn -0.4728 -0.7998 0.3697
vn -0.9090 -0.2343 0.3446
vn -0.2957 0.8034 0.5168
vn 0.8404 0.5050 0.1964
vn 0.9476 -0.1996 0.2494
vn -0.7524 0.5062 -0.4215
vn -0.6355 -0.7017 -0.3222
vn -0.1244 0.8161 -0.5644
vn 0.9261 -0.2767 -0.2566
vn 0.5415 -0.8397 -0.0423
vn -0.7289 -0.6811 0.0696
vn -0.7862 0.5807 -0.2116
vn -0.1419 0.9443 -0.2970
vn 0.9755 -0.2180 0.0304
vn 0.5536 -0.8129 0.1809
vn -0.9755 0.2180 -0.0304
vn -0.5536 0.8129 -0.1809
vn 0.7289 0.6811 -0.0696
vn 0.7862 -0.5807 0.2116
vn 0.1419 -0.9443 0.2970
vn -0.9261 0.2767 0.2566
vn -0.5415 0.8397 0.0423
vn 0.6355 0.7017 0.3222
vn 0.7524 -0.5062 0.4215
vn 0.1244 -0.8161 0.5644
vn -0.7297 -0.5186 -0.4456
vn 0.4618 -0.7691 -0.4418
vn -0.8461 0.1845 -0.5000
vn 0.5250 0.8296 -0.1899
vn 0.9590 0.2761 -0.0637
vn 0.4361 -0.8978 -0.0605
vn -0.7991 -0.5537 -0.2343
vn -0.9587 0.1736 -0.2253
vn 0.4997 0.8599 0.1045
vn 0.9495 0.2691 0.1612
vn -0.4997 -0.8599 -0.1045
vn -0.9495 -0.2691 -0.1612
vn -0.4361 0.8978 0.0605
vn 0.7991 0.5537 0.2343
vn 0.9587 -0.1736 0.2253
vn -0.5250 -0.8296 0.1899
vn -0.9590 -0.2761 0.0637
vn -0.4618 0.7691 0.4418
vn 0.7297 0.5186 0.4456
vn 0.8461 -0.1845 0.5000
vn -0.7701 0.6370 0.0351
vn -0.7775 -0.5138 -0.3627
vn -0.1692 0.9731 -0.1564
vn 0.7859 -0.1610 -0.5971
vn 0.4062 -0.7598 -0.5077
vn -0.7615 -0.6480 0.0173
vn -0.7383 0.6233 0.2577
vn -0.1002 0.9861 0.1323
vn 0.9156 -0.2201 -0.3365
vn 0.4796 -0.8230 -0.3044
vn -0.9156 0.2201 0.3365
vn -0.4796 0.8230 0.3044
vn 0.7615 0.6480 -0.0173
vn 0.7383 -0.6233 -0.2577
vn 0.1002 -0.9861 -0.1323
vn -0.7859 0.1610 0.5971
vn -0.4062 0.7598 0.5077
vn 0.7775 0.5138 0.3627
vn 0.7701 -0.6370 -0.0351
vn 0.1692 -0.9731 0.1564
vn -0.4973 0.8653 -0.0626
vn -0.9370 -0.2566 -0.2371
vn 0.1619 0.9296 -0.3312
vn 0.6232 -0.5258 -0.5789
vn 0.0709 -0.9272 -0.3677
vn -0.9327 -0.3230 0.1607
vn -0.4515 0.8782 0.1575
vn 0.2577 0.9648 -0.0522
vn 0.7484 -0.5833 -0.3157
vn 0.1368 -0.9779 -0.1584
vn -0.7484 0.5833 0.3157
vn -0.1368 0.9779 0.1584
vn 0.9327 0.3230 -0.1607
vn 0.4515 -0.8782 -0.1575
vn -0.2577 -0.9648 0.0522
vn -0.6232 0.5258 0.5789
vn -0.0709 0.9272 0.3677
vn 0.9370 0.2566 0.2371
vn 0.4973 -0.8653 0.0626
vn -0.1619 -0.9296 0.3312
vn -0.8777 0.4406 -0.1883
vn -0.5701 -0.7187 -0.3981
vn -0.3344 0.8824 -0.3311
vn 0.9013 -0.0425 -0.4310
vn 0.6442 -0.6985 -0.3114
vn -0.5994 -0.8004 -0.0042
vn -0.8869 0.4606 0.0358
vn -0.3260 0.9445 -0.0407
vn 0.9884 -0.0393 -0.1470
vn 0.6890 -0.7189 -0.0917
vn -0.9884 0.0393 0.1470
vn -0.6890 0.7189 0.0917
vn 0.5994 0.8004 0.0042
vn 0.8869 -0.4606 -0.0358
vn 0.3260 -0.9445 0.0407
vn -0.9013 0.0425 0.4310
vn -0.6442 0.6985 0.3114
vn 0.5701 0.7187 0.3981
vn 0.8777 -0.4406 0.1883
vn 0.3344 -0.8824 0.3311
vn -0.7770 0.5474 -0.3107
vn -0.6423 -0.6602 -0.3894
vn -0.1600 0.8853 -0.4366
vn 0.9159 -0.2213 -0.3350
vn 0.5480 -0.8156 -0.1857
vn -0.7172 -0.6968 0.0052
vn -0.8016 0.5908 -0.0911
vn -0.1662 0.9741 -0.1531
vn 0.9781 -0.2030 -0.0451
vn 0.5704 -0.8205 0.0384
vn -0.9781 0.2030 0.0451
vn -0.5704 0.8205 -0.0384
vn 0.7172 0.6968 -0.0052
vn 0.8016 -0.5908 0.0911
vn 0.1662 -0.9741 0.1531
vn -0.9159 0.2213 0.3350
vn -0.5480 0.8156 0.1857
vn 0.6423 0.6602 0.3894
vn 0.7770 -0.5474 0.3107
vn 0.1600 -0.8853 0.4366
vn -0.6126 -0.7376 -0.2841
vn 0.5735 -0.6213 -0.5339
vn -0.9453 -0.1056 -0.3087
vn 0.1984 0.9356 -0.2919
vn 0.7961 0.5448 -0.2635
vn 0.6662 -0.7292 -0.1565
vn -0.6235 -0.7793 -0.0631
vn -0.9909 -0.1333 -0.0164
vn 0.2255 0.9742 0.0014
vn 0.8351 0.5486 -0.0418
vn -0.2255 -0.9742 -0.0014
vn -0.8351 -0.5486 0.0418
vn -0.6662 0.7292 0.1565
vn 0.6235 0.7793 0.0631
vn 0.9909 0.1333 0.0164
vn -0.1984 -0.9356 0.2919
vn -0.7961 -0.5448 0.2635
vn -0.5735 0.6213 0.5339
vn 0.6125 0.7376 0.2841
vn 0.9453 0.1056 0.3087
vn -0.8964 -0.4291 -0.1111
vn 0.1908 -0.9007 -0.3903
vn -0.9250 0.2671 -0.2701
vn 0.5504 0.6754 -0.4908
vn 0.9208 0.0738 -0.3829
vn 0.2668 -0.9638 0.0007
vn -0.9012 -0.4183 0.1138
vn -0.9474 0.3192 0.0215
vn 0.6220 0.7535 -0.2132
vn 0.9805 0.1024 -0.1676
vn -0.6220 -0.7535 0.2132
vn -0.9805 -0.1024 0.1676
vn -0.2668 0.9638 -0.0007
vn 0.9012 0.4183 -0.1138
vn 0.9474 -0.3192 -0.0215
vn -0.5504 -0.6754 0.4908
vn -0.9208 -0.0738 0.3829
vn -0.1908 0.9007 0.3903
vn 0.8964 0.4290 0.1111
vn 0.9250 -0.2671 0.2701
vn -0.8846 0.1334 -0.4468
vn -0.3006 -0.9182 -0.2580
vn -0.4285 0.6547 -0.6227
vn 0.9638 0.0940 -0.2493
vn 0.8302 -0.5573 0.0130
vn -0.4007 -0.9066 0.1325
vn -0.9484 0.2041 -0.2427
vn -0.4995 0.7854 -0.3655
vn 0.9815 0.1890 0.0316
vn 0.8273 -0.5110 0.2334
vn -0.9815 -0.1890 -0.0316
vn -0.8273 0.5110 -0.2334
vn 0.4007 0.9066 -0.1325
vn 0.9484 -0.2041 0.2427
vn 0.4995 -0.7854 0.3655
vn -0.9638 -0.0940 0.2493
vn -0.8302 0.5573 -0.0130
vn 0.3006 0.9182 0.2580
vn 0.8846 -0.1334 0.4468
vn 0.4285 -0.6547 0.6227
vn -0.7598 -0.6501 -0.0061
vn 0.3185 -0.7650 -0.5598
vn -0.9989 0.0224 -0.0422
vn 0.2354 0.8502 -0.4710
vn 0.7604 0.3694 -0.5342
vn 0.4948 -0.8443 -0.2058
vn -0.7159 -0.6645 0.2143
vn -0.9668 0.0355 0.2529
vn 0.3460 0.9160 -0.2032
vn 0.8582 0.3911 -0.3325
vn -0.3460 -0.9160 0.2032
vn -0.8582 -0.3911 0.3325
vn -0.4948 0.8443 0.2058
vn 0.7159 0.6645 -0.2143
vn 0.9668 -0.0355 -0.2529
vn -0.2354 -0.8502 0.4710
vn -0.7604 -0.3694 0.5342
vn -0.3185 0.7650 0.5598
vn 0.7598 0.6501 0.0061
vn 0.9989 -0.0224 0.0422
vn -0.4570 -0.8040 -0.3805
vn 0.7006 -0.4632 -0.5428
vn -0.8949 -0.2392 -0.3768
vn 0.0437 0.9780 -0.2039
vn 0.6990 0.6952 -0.1676
vn 0.7919 -0.5866 -0.1698
vn -0.4715 -0.8664 -0.1646
vn -0.9495 -0.3002 -0.0912
vn 0.0488 0.9945 0.0927
vn 0.7256 0.6859 0.0559
vn -0.0488 -0.9945 -0.0927
vn -0.7256 -0.6859 -0.0559
vn -0.7919 0.5866 0.1698
vn 0.4715 0.8664 0.1646
vn 0.9495 0.3002 0.0912
vn -0.0437 -0.9780 0.2039
vn -0.6990 -0.6952 0.1676
vn -0.7006 0.4632 0.5428
vn 0.4570 0.8040 0.3805
vn 0.8949 0.2392 0.3768
vn -0.9919 0.1125 -0.0592
vn -0.3463 -0.8972 -0.2741
vn -0.6540 0.6927 -0.3040
vn 0.7931 0.2154 -0.5697
vn 0.7904 -0.4754 -0.3864
vn -0.2907 -0.9490 0.1219
vn -0.9755 0.1481 0.1626
vn -0.6261 0.7795 -0.0213
vn 0.9131 0.2718 -0.3039
vn 0.8699 -0.4606 -0.1763
vn -0.9131 -0.2718 0.3039
vn -0.8699 0.4606 0.1763
vn 0.2907 0.9490 -0.1219
vn 0.9755 -0.1481 -0.1626
vn 0.6261 -0.7795 0.0213
vn -0.7931 -0.2154 0.5697
vn -0.7904 0.4754 0.3864
vn 0.3463 0.8972 0.2741
vn 0.9919 -0.1125 0.0592
vn 0.6540 -0.6927 0.3040
vn -0.8823 -0.4694 0.0334
vn 0.1869 -0.9258 -0.3285
vn -0.9611 0.2074 -0.1823
vn 0.4592 0.6458 -0.6099
vn 0.8670 0.0706 -0.4933
vn 0.3096 -0.9493 0.0550
vn -0.8620 -0.4378 0.2554
vn -0.9527 0.2857 0.1041
vn 0.5581 0.7520 -0.3507
vn 0.9493 0.1213 -0.2899
vn -0.5581 -0.7520 0.3507
vn -0.9493 -0.1213 0.2899
vn -0.3096 0.9493 -0.0550
vn 0.8620 0.4378 -0.2554
vn 0.9527 -0.2857 -0.1041
vn -0.4592 -0.6458 0.6100
vn -0.8670 -0.0706 0.4933
vn -0.1869 0.9258 0.3285
vn 0.8823 0.4694 -0.0334
vn 0.9611 -0.2074 0.1823
vn -0.9379 -0.3229 -0.1268
vn 0.0890 -0.8680 -0.4885
vn -0.8982 0.3857 -0.2109
vn 0.6065 0.6658 -0.4346
vn 0.9153 0.0221 -0.4022
vn 0.1663 -0.9801 -0.1088
vn -0.9368 -0.3359 0.0980
vn -0.9090 0.4081 0.0851
vn 0.6915 0.7061 -0.1528
vn 0.9821 0.0213 -0.1872
vn -0.6915 -0.7061 0.1528
vn -0.9821 -0.0213 0.1872
vn -0.1663 0.9801 0.1088
vn 0.9368 0.3359 -0.0980
vn 0.9090 -0.4081 -0.0851
vn -0.6065 -0.6658 0.4346
vn -0.9153 -0.0221 0.4022
vn -0.0890 0.8680 0.4885
vn 0.9379 0.3229 0.1268
vn 0.8982 -0.3857 0.2109
vn -0.4435 -0.8954 0.0398
vn 0.6837 -0.6429 -0.3452
vn -0.9059 -0.3902 -0.1645
vn -0.0154 0.7945 -0.6071
vn 0.6533 0.5637 -0.5054
vn 0.8052 -0.5919 0.0359
vn -0.4406 -0.8586 0.2620
vn -0.9385 -0.3226 0.1230
vn 0.0087 0.9375 -0.3479
vn 0.6950 0.6522 -0.3026
vn -0.0087 -0.9375 0.3479
vn -0.6950 -0.6522 0.3026
vn -0.8052 0.5919 -0.0359
vn 0.4406 0.8586 -0.2620
vn 0.9385 0.3226 -0.1230
vn 0.0154 -0.7945 0.6071
vn -0.6533 -0.5637 0.5054
vn -0.6837 0.6429 0.3452
vn 0.4435 0.8954 -0.0398
vn 0.9059 0.3902 0.1645
vn -0.9295 -0.3111 -0.1981
vn 0.0890 -0.9782 -0.1877
vn -0.8119 0.3363 -0.4772
vn 0.7282 0.4790 -0.4902
vn 0.9674 -0.1353 -0.2143
vn 0.0919 -0.9721 0.2156
vn -0.9668 -0.2551 0.0168
vn -0.8694 0.4481 -0.2080
vn 0.7687 0.5999 -0.2219
vn 0.9973 -0.0731 0.0001
vn -0.7687 -0.5999 0.2219
vn -0.9973 0.0731 -0.0001
vn -0.0919 0.9721 -0.2156
vn 0.9668 0.2551 -0.0168
vn 0.8694 -0.4481 0.2080
vn -0.7282 -0.4790 0.4902
vn -0.9674 0.1353 0.2143
vn -0.0890 0.9782 0.1877
vn 0.9295 0.3111 0.1981
vn 0.8119 -0.3363 0.4772
vn -0.2361 -0.9215 -0.3084
vn 0.8626 -0.3967 -0.3138
vn -0.7469 -0.4542 -0.4857
vn -0.0662 0.9293 -0.3633
vn 0.6024 0.7825 -0.1577
vn 0.8910 -0.4460 0.0855
vn -0.2860 -0.9539 -0.0912
vn -0.8505 -0.4827 -0.2087
vn -0.1265 0.9889 -0.0786
vn 0.5822 0.8105 0.0648
vn 0.1265 -0.9889 0.0786
vn -0.5822 -0.8105 -0.0648
vn -0.8910 0.4460 -0.0855
vn 0.2860 0.9539 0.0912
vn 0.8505 0.4827 0.2087
vn 0.0662 -0.9293 0.3633
vn -0.6024 -0.7825 0.1577
vn -0.8626 0.3967 0.3138
vn 0.2361 0.9215 0.3084
vn 0.7469 0.4542 0.4857
vn -0.3035 -0.8537 -0.4233
vn 0.7927 -0.3312 -0.5119
vn -0.8247 -0.3647 -0.4323
vn -0.1006 0.9785 -0.1798
vn 0.5884 0.8008 -0.1123
vn 0.8825 -0.4500 -0.1370
vn -0.3193 -0.9241 -0.2099
vn -0.8840 -0.4421 -0.1517
vn -0.1138 0.9866 0.1168
vn 0.6042 0.7890 0.1120
vn 0.1138 -0.9866 -0.1168
vn -0.6042 -0.7890 -0.1120
vn -0.8825 0.4500 0.1370
vn 0.3193 0.9241 0.2099
vn 0.8840 0.4421 0.1517
vn 0.1006 -0.9785 0.1798
vn -0.5884 -0.8008 0.1123
vn -0.7927 0.3312 0.5119
vn 0.3035 0.8536 0.4233
vn 0.8247 0.3647 0.4323
vn -0.4828 0.7421 -0.4651
vn -0.8682 -0.4001 -0.2934
vn 0.2162 0.7597 -0.6133
vn 0.7312 -0.6452 -0.2216
vn 0.1516 -0.9883 0.0173
vn -0.9429 -0.3193 0.0946
vn -0.4820 0.8365 -0.2606
vn 0.2540 0.9000 -0.3542
vn 0.8018 -0.5943 0.0625
vn 0.1748 -0.9552 0.2389
vn -0.8018 0.5943 -0.0625
vn -0.1748 0.9552 -0.2389
vn 0.9429 0.3193 -0.0946
vn 0.4820 -0.8365 0.2606
vn -0.2540 -0.9000 0.3542
vn -0.7312 0.6452 0.2216
vn -0.1516 0.9883 -0.0173
vn 0.8682 0.4001 0.2934
vn 0.4828 -0.7421 0.4651
vn -0.2162 -0.7597 0.6133
vn -0.3322 -0.9428 -0.0281
vn 0.8065 -0.5523 -0.2110
vn -0.8087 -0.4954 -0.3172
vn -0.0035 0.7923 -0.6101
vn 0.6596 0.6432 -0.3889
vn 0.8516 -0.4904 0.1850
vn -0.3731 -0.9080 0.1906
vn -0.8996 -0.4349 -0.0409
vn -0.0431 0.9348 -0.3524
vn 0.6537 0.7343 -0.1830
vn 0.0431 -0.9348 0.3524
vn -0.6538 -0.7343 0.1830
vn -0.8516 0.4904 -0.1850
vn 0.3731 0.9080 -0.1906
vn 0.8996 0.4349 0.0409
vn 0.0035 -0.7923 0.6101
vn -0.6596 -0.6432 0.3889
vn -0.8065 0.5523 0.2110
vn 0.3322 0.9428 0.0281
vn 0.8087 0.4954 0.3172
vn -0.7061 0.6364 -0.3105
vn -0.5893 -0.5404 -0.6006
vn -0.0692 0.9588 -0.2757
vn 0.9513 -0.2027 -0.2321
vn 0.5509 -0.7941 -0.2568
vn -0.7255 -0.6464 -0.2361
vn -0.7635 0.6391 -0.0927
vn -0.1173 0.9930 0.0155
vn 0.9682 -0.2424 0.0618
vn 0.5380 -0.8421 -0.0372
vn -0.9682 0.2424 -0.0618
vn -0.5380 0.8421 0.0372
vn 0.7255 0.6464 0.2361
vn 0.7635 -0.6391 0.0927
vn 0.1173 -0.9930 -0.0155
vn -0.9513 0.2027 0.2321
vn -0.5509 0.7941 0.2568
vn 0.5893 0.5404 0.6006
vn 0.7061 -0.6364 0.3105
vn 0.0692 -0.9588 0.2757
vn -0.9747 -0.1055 -0.1970
vn -0.0556 -0.7838 -0.6185
vn -0.7937 0.5852 -0.1663
vn 0.7464 0.5891 -0.3097
vn 0.9221 -0.1007 -0.3736
vn -0.0218 -0.9654 -0.2599
vn -0.9880 -0.1525 0.0229
vn -0.8155 0.5641 0.1293
vn 0.8226 0.5682 -0.0233
vn 0.9760 -0.1476 -0.1600
vn -0.8226 -0.5682 0.0233
vn -0.9760 0.1476 0.1600
vn 0.0218 0.9654 0.2599
vn 0.9880 0.1525 -0.0229
vn 0.8156 -0.5641 -0.1293
vn -0.7464 -0.5891 0.3097
vn -0.9221 0.1007 0.3736
vn 0.0556 0.7838 0.6185
vn 0.9747 0.1055 0.1970
vn 0.7937 -0.5852 0.1663
vn -0.1044 -0.9936 -0.0434
vn 0.7266 -0.3099 -0.6132
vn -0.7416 -0.6701 -0.0317
vn -0.4385 0.7976 -0.4143
vn 0.2690 0.8141 -0.5147
vn 0.9276 -0.2612 -0.2670
vn -0.0509 -0.9832 0.1751
vn -0.7117 -0.6513 0.2633
vn -0.3893 0.9098 -0.1437
vn 0.3356 0.8885 -0.3129
vn 0.3893 -0.9098 0.1437
vn -0.3356 -0.8885 0.3129
vn -0.9276 0.2612 0.2669
vn 0.0509 0.9832 -0.1751
vn 0.7117 0.6513 -0.2633
vn 0.4385 -0.7976 0.4143
vn -0.2690 -0.8141 0.5147
vn -0.7266 0.3099 0.6132
vn 0.1044 0.9936 0.0434
vn 0.7416 0.6701 0.0317
vn -0.2253 0.8694 -0.4397
vn -0.7492 -0.2136 -0.6269
vn 0.4808 0.8034 -0.3512
vn 0.7005 -0.7067 -0.0991
vn 0.0453 -0.9906 -0.1293
vn -0.9438 -0.1832 -0.2750
vn -0.2856 0.9300 -0.2313
vn 0.4408 0.8948 -0.0713
vn 0.6745 -0.7116 0.1968
vn -0.0054 -0.9959 0.0901
vn -0.6745 0.7116 -0.1968
vn 0.0054 0.9959 -0.0901
vn 0.9438 0.1832 0.2750
vn 0.2856 -0.9300 0.2313
vn -0.4408 -0.8948 0.0713
vn -0.7005 0.7067 0.0991
vn -0.0453 0.9906 0.1293
vn 0.7492 0.2136 0.6269
vn 0.2253 -0.8694 0.4397
vn -0.4808 -0.8034 0.3512
vn -0.3027 -0.8783 -0.3701
vn 0.8241 -0.4172 -0.3831
vn -0.7916 -0.3701 -0.4862
vn -0.0254 0.9583 -0.2845
vn 0.6410 0.7578 -0.1217
vn 0.8656 -0.5007 0.0093
vn -0.3457 -0.9256 -0.1542
vn -0.8855 -0.4155 -0.2081
vn -0.0705 0.9975 0.0065
vn 0.6315 0.7685 0.1031
vn 0.0705 -0.9975 -0.0065
vn -0.6315 -0.7685 -0.1031
vn -0.8656 0.5007 -0.0093
vn 0.3457 0.9256 0.1542
vn 0.8855 0.4155 0.2081
vn 0.0254 -0.9583 0.2845
vn -0.6410 -0.7578 0.1217
vn -0.8241 0.4172 0.3831
vn 0.3027 0.8783 0.3701
vn 0.7916 0.3701 0.4862
vn -0.1522 0.9466 -0.2843
vn -0.7811 -0.0394 -0.6232
vn 0.5464 0.8038 -0.2355
vn 0.6275 -0.7408 -0.2395
vn -0.0522 -0.9558 -0.2893
vn -0.9634 -0.0500 -0.2635
vn -0.2014 0.9772 -0.0666
vn 0.5220 0.8510 0.0568
vn 0.6084 -0.7919 0.0525
vn -0.0979 -0.9926 -0.0718
vn -0.6084 0.7919 -0.0525
vn 0.0979 0.9926 0.0718
vn 0.9634 0.0500 0.2635
vn 0.2014 -0.9772 0.0666
vn -0.5220 -0.8510 -0.0568
vn -0.6275 0.7408 0.2395
vn 0.0522 0.9558 0.2893
vn 0.7811 0.0394 0.6232
vn 0.1522 -0.9466 0.2843
vn -0.5464 -0.8038 0.2355
vn 0.5618 -0.8273 -0.0000
vn -0.8273 -0.5618 -0.0000
vn -0.5618 0.8273 -0.0000
vn 0.8273 0.5618 -0.0000
vn 0.9510 0.3092 -0.0000
vn 0.3092 -0.9510 -0.0000
vn -0.9510 -0.3092 -0.0000
vn -0.3092 0.9510 -0.0000
vn 0.2334 -0.9724 -0.0000
vn -0.9724 -0.2334 -0.0000
vn -0.2334 0.9724 -0.0000
vn 0.9724 0.2334 -0.0000
vn 0.9998 0.0210 -0.0000
vn 0.0210 -0.9998 -0.0000
vn -0.9998 -0.0210 -0.0000
vn -0.0210 0.9998 -0.0000
vn -0.4104 -0.9119 -0.0000
vn -0.9119 0.4104 -0.0000
vn 0.4104 0.9119 -0.0000
vn 0.9119 -0.4104 -0.0000
vn 0.0534 -0.9986 -0.0000
vn -0.9986 -0.0534 -0.0000
vn -0.0534 0.9986 -0.0000
vn 0.9986 0.0534 -0.0000
vn 1.0000 0.0065 -0.0000
vn 0.0065 -1.0000 -0.0000
vn -1.0000 -0.0065 -0.0000
vn -0.0065 1.0000 -0.0000
vn 0.7714 -0.6364 -0.0000
vn -0.6364 -0.7714 -0.0000
vn -0.7714 0.6364 -0.0000
vn 0.6364 0.7714 -0.0000
vt 0.375000 0.000000
vt 0.625000 0.000000
vt 0.625000 0.250000
vt 0.375000 0.250000
vt 0.625000 0.500000
vt 0.375000 0.500000
vt 0.625000 0.750000
vt 0.375000 0.750000
vt 0.625000 1.000000
vt 0.375000 1.000000
vt 0.125000 0.500000
vt 0.125000 0.750000
vt 0.875000 0.500000
vt 0.875000 0.750000
vt 0.181819 0.000000
vt 0.272728 0.157461
vt 0.090910 0.157461
vt 0.363637 0.000000
vt 0.454546 0.157461
vt 0.909091 0.000000
vt 1.000000 0.157461
vt 0.818182 0.157461
vt 0.727273 0.000000
vt 0.636364 0.157461
vt 0.545455 0.000000
vt 0.363637 0.314921
vt 0.181819 0.314921
vt 0.909091 0.314921
vt 0.727273 0.314921
vt 0.545455 0.314921
vt 0.000000 0.314921
vt 0.272728 0.472382
vt 0.090910 0.472382
vt 0.818182 0.472382
vt 0.636364 0.472382
vt 0.454546 0.472382
vt 1.000000 0.500000
vt 1.000000 1.000000
vt 0.750000 1.000000
vt 0.750000 0.500000
vt 0.500000 1.000000
vt 0.500000 0.500000
vt 0.490000 0.250000
vt 0.250000 0.490000
vt 0.010000 0.250000
vt 0.250000 0.010000
vt 0.250000 1.000000
vt 0.250000 0.500000
vt 0.000000 1.000000
vt 0.000000 0.500000
vt 0.750000 0.490000
vt 0.990000 0.250000
vt 0.750000 0.010000
vt 0.510000 0.250000
s 0
usemtl soil
f 1/1/1 2/2/1 4/3/1 3/4/1
f 3/4/2 4/3/2 8/5/2 7/6/2
f 7/6/3 8/5/3 6/7/3 5/8/3
f 5/8/4 6/7/4 2/9/4 1/10/4
f 3/11/5 7/6/5 5/8/5 1/12/5
f 8/5/6 4/13/6 2/14/6 6/7/6
usemtl grass_dark
f 9/15/7 10/16/7 11/17/7
f 10/16/8 9/18/8 14/19/8
f 9/20/9 11/21/9 12/22/9
f 9/23/10 12/22/10 13/24/10
f 9/25/11 13/24/11 14/19/11
f 10/16/12 14/19/12 19/26/12
f 11/17/13 10/16/13 15/27/13
f 12/22/14 11/21/14 16/28/14
f 13/24/15 12/22/15 17/29/15
f 14/19/16 13/24/16 18/30/16
f 10/16/17 19/26/17 15/27/17
f 11/17/18 15/27/18 16/31/18
f 12/22/19 16/28/19 17/29/19
f 13/24/20 17/29/20 18/30/20
f 14/19/21 18/30/21 19/26/21
f 15/27/22 19/26/22 20/32/22
f 16/31/23 15/27/23 20/33/23
f 17/29/24 16/28/24 20/34/24
f 18/30/25 17/29/25 20/35/25
f 19/26/26 18/30/26 20/36/26
f 21/15/27 22/16/27 23/17/27
f 22/16/28 21/18/28 26/19/28
f 21/20/29 23/21/29 24/22/29
f 21/23/30 24/22/30 25/24/30
f 21/25/31 25/24/31 26/19/31
f 22/16/32 26/19/32 31/26/32
f 23/17/33 22/16/33 27/27/33
f 24/22/34 23/21/34 28/28/34
f 25/24/35 24/22/35 29/29/35
f 26/19/36 25/24/36 30/30/36
f 22/16/37 31/26/37 27/27/37
f 23/17/38 27/27/38 28/31/38
f 24/22/39 28/28/39 29/29/39
f 25/24/40 29/29/40 30/30/40
f 26/19/41 30/30/41 31/26/41
f 27/27/42 31/26/42 32/32/42
f 28/31/43 27/27/43 32/33/43
f 29/29/44 28/28/44 32/34/44
f 30/30/45 29/29/45 32/35/45
f 31/26/46 30/30/46 32/36/46
f 33/15/47 34/16/47 35/17/47
f 34/16/48 33/18/48 38/19/48
f 33/20/49 35/21/49 36/22/49
f 33/23/50 36/22/50 37/24/50
f 33/25/51 37/24/51 38/19/51
f 34/16/52 38/19/52 43/26/52
f 35/17/53 34/16/53 39/27/53
f 36/22/54 35/21/54 40/28/54
f 37/24/55 36/22/55 41/29/55
f 38/19/56 37/24/56 42/30/56
f 34/16/57 43/26/57 39/27/57
f 35/17/58 39/27/58 40/31/58
f 36/22/59 40/28/59 41/29/59
f 37/24/60 41/29/60 42/30/60
f 38/19/61 42/30/61 43/26/61
f 39/27/62 43/26/62 44/32/62
f 40/31/63 39/27/63 44/33/63
f 41/29/64 40/28/64 44/34/64
f 42/30/65 41/29/65 44/35/65
f 43/26/66 42/30/66 44/36/66
f 45/15/67 46/16/67 47/17/67
f 46/16/68 45/18/68 50/19/68
f 45/20/69 47/21/69 48/22/69
f 45/23/70 48/22/70 49/24/70
f 45/25/71 49/24/71 50/19/71
f 46/16/72 50/19/72 55/26/72
f 47/17/73 46/16/73 51/27/73
f 48/22/74 47/21/74 52/28/74
f 49/24/75 48/22/75 53/29/75
f 50/19/76 49/24/76 54/30/76
f 46/16/77 55/26/77 51/27/77
f 47/17/78 51/27/78 52/31/78
f 48/22/79 52/28/79 53/29/79
f 49/24/80 53/29/80 54/30/80
f 50/19/81 54/30/81 55/26/81
f 51/27/82 55/26/82 56/32/82
f 52/31/83 51/27/83 56/33/83
f 53/29/84 52/28/84 56/34/84
f 54/30/85 53/29/85 56/35/85
f 55/26/86 54/30/86 56/36/86
f 57/15/87 58/16/87 59/17/87
f 58/16/88 57/18/88 62/19/88
f 57/20/89 59/21/89 60/22/89
f 57/23/90 60/22/90 61/24/90
f 57/25/91 61/24/91 62/19/91
f 58/16/92 62/19/92 67/26/92
f 59/17/93 58/16/93 63/27/93
f 60/22/94 59/21/94 64/28/94
f 61/24/95 60/22/95 65/29/95
f 62/19/96 61/24/96 66/30/96
f 58/16/97 67/26/97 63/27/97
f 59/17/98 63/27/98 64/31/98
f 60/22/99 64/28/99 65/29/99
f 61/24/100 65/29/100 66/30/100
f 62/19/101 66/30/101 67/26/101
f 63/27/102 67/26/102 68/32/102
f 64/31/103 63/27/103 68/33/103
f 65/29/104 64/28/104 68/34/104
f 66/30/105 65/29/105 68/35/105
f 67/26/106 66/30/106 68/36/106
f 69/15/107 70/16/107 71/17/107
f 70/16/108 69/18/108 74/19/108
f 69/20/109 71/21/109 72/22/109
f 69/23/110 72/22/110 73/24/110
f 69/25/111 73/24/111 74/19/111
f 70/16/112 74/19/112 79/26/112
f 71/17/113 70/16/113 75/27/113
f 72/22/114 71/21/114 76/28/114
f 73/24/115 72/22/115 77/29/115
f 74/19/116 73/24/116 78/30/116
f 70/16/117 79/26/117 75/27/117
f 71/17/118 75/27/118 76/31/118
f 72/22/119 76/28/119 77/29/119
f 73/24/120 77/29/120 78/30/120
f 74/19/121 78/30/121 79/26/121
f 75/27/122 79/26/122 80/32/122
f 76/31/123 75/27/123 80/33/123
f 77/29/124 76/28/124 80/34/124
f 78/30/125 77/29/125 80/35/125
f 79/26/126 78/30/126 80/36/126
f 81/15/127 82/16/127 83/17/127
f 82/16/128 81/18/128 86/19/128
f 81/20/129 83/21/129 84/22/129
f 81/23/130 84/22/130 85/24/130
f 81/25/131 85/24/131 86/19/131
f 82/16/132 86/19/132 91/26/132
f 83/17/133 82/16/133 87/27/133
f 84/22/134 83/21/134 88/28/134
f 85/24/135 84/22/135 89/29/135
f 86/19/136 85/24/136 90/30/136
f 82/16/137 91/26/137 87/27/137
f 83/17/138 87/27/138 88/31/138
f 84/22/139 88/28/139 89/29/139
f 85/24/140 89/29/140 90/30/140
f 86/19/141 90/30/141 91/26/141
f 87/27/142 91/26/142 92/32/142
f 88/31/143 87/27/143 92/33/143
f 89/29/144 88/28/144 92/34/144
f 90/30/145 89/29/145 92/35/145
f 91/26/146 90/30/146 92/36/146
f 93/15/147 94/16/147 95/17/147
f 94/16/148 93/18/148 98/19/148
f 93/20/149 95/21/149 96/22/149
f 93/23/150 96/22/150 97/24/150
f 93/25/151 97/24/151 98/19/151
f 94/16/152 98/19/152 103/26/152
f 95/17/153 94/16/153 99/27/153
f 96/22/154 95/21/154 100/28/154
f 97/24/155 96/22/155 101/29/155
f 98/19/156 97/24/156 102/30/156
f 94/16/157 103/26/157 99/27/157
f 95/17/158 99/27/158 100/31/158
f 96/22/159 100/28/159 101/29/159
f 97/24/160 101/29/160 102/30/160
f 98/19/161 102/30/161 103/26/161
f 99/27/162 103/26/162 104/32/162
f 100/31/163 99/27/163 104/33/163
f 101/29/164 100/28/164 104/34/164
f 102/30/165 101/29/165 104/35/165
f 103/26/166 102/30/166 104/36/166
f 105/15/167 106/16/167 107/17/167
f 106/16/168 105/18/168 110/19/168
f 105/20/169 107/21/169 108/22/169
f 105/23/170 108/22/170 109/24/170
f 105/25/171 109/24/171 110/19/171
f 106/16/172 110/19/172 115/26/172
f 107/17/173 106/16/173 111/27/173
f 108/22/174 107/21/174 112/28/174
f 109/24/175 108/22/175 113/29/175
f 110/19/176 109/24/176 114/30/176
f 106/16/177 115/26/177 111/27/177
f 107/17/178 111/27/178 112/31/178
f 108/22/179 112/28/179 113/29/179
f 109/24/180 113/29/180 114/30/180
f 110/19/181 114/30/181 115/26/181
f 111/27/182 115/26/182 116/32/182
f 112/31/183 111/27/183 116/33/183
f 113/29/184 112/28/184 116/34/184
f 114/30/185 113/29/185 116/35/185
f 115/26/186 114/30/186 116/36/186
f 117/15/187 118/16/187 119/17/187
f 118/16/188 117/18/188 122/19/188
f 117/20/189 119/21/189 120/22/189
f 117/23/190 120/22/190 121/24/190
f 117/25/191 121/24/191 122/19/191
f 118/16/192 122/19/192 127/26/192
f 119/17/193 118/16/193 123/27/193
f 120/22/194 119/21/194 124/28/194
f 121/24/195 120/22/195 125/29/195
f 122/19/196 121/24/196 126/30/196
f 118/16/197 127/26/197 123/27/197
f 119/17/198 123/27/198 124/31/198
f 120/22/199 124/28/199 125/29/199
f 121/24/200 125/29/200 126/30/200
f 122/19/201 126/30/201 127/26/201
f 123/27/202 127/26/202 128/32/202
f 124/31/203 123/27/203 128/33/203
f 125/29/204 124/28/204 128/34/204
f 126/30/205 125/29/205 128/35/205
f 127/26/206 126/30/206 128/36/206
f 129/15/207 130/16/207 131/17/207
f 130/16/208 129/18/208 134/19/208
f 129/20/209 131/21/209 132/22/209
f 129/23/210 132/22/210 133/24/210
f 129/25/211 133/24/211 134/19/211
f 130/16/212 134/19/212 139/26/212
f 131/17/213 130/16/213 135/27/213
f 132/22/214 131/21/214 136/28/214
f 133/24/215 132/22/215 137/29/215
f 134/19/216 133/24/216 138/30/216
f 130/16/217 139/26/217 135/27/217
f 131/17/218 135/27/218 136/31/218
f 132/22/219 136/28/219 137/29/219
f 133/24/220 137/29/220 138/30/220
f 134/19/221 138/30/221 139/26/221
f 135/27/222 139/26/222 140/32/222
f 136/31/223 135/27/223 140/33/223
f 137/29/224 136/28/224 140/34/224
f 138/30/225 137/29/225 140/35/225
f 139/26/226 138/30/226 140/36/226
f 141/15/227 142/16/227 143/17/227
f 142/16/228 141/18/228 146/19/228
f 141/20/229 143/21/229 144/22/229
f 141/23/230 144/22/230 145/24/230
f 141/25/231 145/24/231 146/19/231
f 142/16/232 146/19/232 151/26/232
f 143/17/233 142/16/233 147/27/233
f 144/22/234 143/21/234 148/28/234
f 145/24/235 144/22/235 149/29/235
f 146/19/236 145/24/236 150/30/236
f 142/16/237 151/26/237 147/27/237
f 143/17/238 147/27/238 148/31/238
f 144/22/239 148/28/239 149/29/239
f 145/24/240 149/29/240 150/30/240
f 146/19/241 150/30/241 151/26/241
f 147/27/242 151/26/242 152/32/242
f 148/31/243 147/27/243 152/33/243
f 149/29/244 148/28/244 152/34/244
f 150/30/245 149/29/245 152/35/245
f 151/26/246 150/30/246 152/36/246
f 153/15/247 154/16/247 155/17/247
f 154/16/248 153/18/248 158/19/248
f 153/20/249 155/21/249 156/22/249
f 153/23/250 156/22/250 157/24/250
f 153/25/251 157/24/251 158/19/251
f 154/16/252 158/19/252 163/26/252
f 155/17/253 154/16/253 159/27/253
f 156/22/254 155/21/254 160/28/254
f 157/24/255 156/22/255 161/29/255
f 158/19/256 157/24/256 162/30/256
f 154/16/257 163/26/257 159/27/257
f 155/17/258 159/27/258 160/31/258
f 156/22/259 160/28/259 161/29/259
f 157/24/260 161/29/260 162/30/260
f 158/19/261 162/30/261 163/26/261
f 159/27/262 163/26/262 164/32/262
f 160/31/263 159/27/263 164/33/263
f 161/29/264 160/28/264 164/34/264
f 162/30/265 161/29/265 164/35/265
f 163/26/266 162/30/266 164/36/266
f 165/15/267 166/16/267 167/17/267
f 166/16/268 165/18/268 170/19/268
f 165/20/269 167/21/269 168/22/269
f 165/23/270 168/22/270 169/24/270
f 165/25/271 169/24/271 170/19/271
f 166/16/272 170/19/272 175/26/272
f 167/17/273 166/16/273 171/27/273
f 168/22/274 167/21/274 172/28/274
f 169/24/275 168/22/275 173/29/275
f 170/19/276 169/24/276 174/30/276
f 166/16/277 175/26/277 171/27/277
f 167/17/278 171/27/278 172/31/278
f 168/22/279 172/28/279 173/29/279
f 169/24/280 173/29/280 174/30/280
f 170/19/281 174/30/281 175/26/281
f 171/27/282 175/26/282 176/32/282
f 172/31/283 171/27/283 176/33/283
f 173/29/284 172/28/284 176/34/284
f 174/30/285 173/29/285 176/35/285
f 175/26/286 174/30/286 176/36/286
f 177/15/287 178/16/287 179/17/287
f 178/16/288 177/18/288 182/19/288
f 177/20/289 179/21/289 180/22/289
f 177/23/290 180/22/290 181/24/290
f 177/25/291 181/24/291 182/19/291
f 178/16/292 182/19/292 187/26/292
f 179/17/293 178/16/293 183/27/293
f 180/22/294 179/21/294 184/28/294
f 181/24/295 180/22/295 185/29/295
f 182/19/296 181/24/296 186/30/296
f 178/16/297 187/26/297 183/27/297
f 179/17/298 183/27/298 184/31/298
f 180/22/299 184/28/299 185/29/299
f 181/24/300 185/29/300 186/30/300
f 182/19/301 186/30/301 187/26/301
f 183/27/302 187/26/302 188/32/302
f 184/31/303 183/27/303 188/33/303
f 185/29/304 184/28/304 188/34/304
f 186/30/305 185/29/305 188/35/305
f 187/26/306 186/30/306 188/36/306
f 189/15/307 190/16/307 191/17/307
f 190/16/308 189/18/308 194/19/308
f 189/20/309 191/21/309 192/22/309
f 189/23/310 192/22/310 193/24/310
f 189/25/311 193/24/311 194/19/311
f 190/16/312 194/19/312 199/26/312
f 191/17/313 190/16/313 195/27/313
f 192/22/314 191/21/314 196/28/314
f 193/24/315 192/22/315 197/29/315
f 194/19/316 193/24/316 198/30/316
f 190/16/317 199/26/317 195/27/317
f 191/17/318 195/27/318 196/31/318
f 192/22/319 196/28/319 197/29/319
f 193/24/320 197/29/320 198/30/320
f 194/19/321 198/30/321 199/26/321
f 195/27/322 199/26/322 200/32/322
f 196/31/323 195/27/323 200/33/323
f 197/29/324 196/28/324 200/34/324
f 198/30/325 197/29/325 200/35/325
f 199/26/326 198/30/326 200/36/326
f 201/15/327 202/16/327 203/17/327
f 202/16/328 201/18/328 206/19/328
f 201/20/329 203/21/329 204/22/329
f 201/23/330 204/22/330 205/24/330
f 201/25/331 205/24/331 206/19/331
f 202/16/332 206/19/332 211/26/332
f 203/17/333 202/16/333 207/27/333
f 204/22/334 203/21/334 208/28/334
f 205/24/335 204/22/335 209/29/335
f 206/19/336 205/24/336 210/30/336
f 202/16/337 211/26/337 207/27/337
f 203/17/338 207/27/338 208/31/338
f 204/22/339 208/28/339 209/29/339
f 205/24/340 209/29/340 210/30/340
f 206/19/341 210/30/341 211/26/341
f 207/27/342 211/26/342 212/32/342
f 208/31/343 207/27/343 212/33/343
f 209/29/344 208/28/344 212/34/344
f 210/30/345 209/29/345 212/35/345
f 211/26/346 210/30/346 212/36/346
f 213/15/347 214/16/347 215/17/347
f 214/16/348 213/18/348 218/19/348
f 213/20/349 215/21/349 216/22/349
f 213/23/350 216/22/350 217/24/350
f 213/25/351 217/24/351 218/19/351
f 214/16/352 218/19/352 223/26/352
f 215/17/353 214/16/353 219/27/353
f 216/22/354 215/21/354 220/28/354
f 217/24/355 216/22/355 221/29/355
f 218/19/356 217/24/356 222/30/356
f 214/16/357 223/26/357 219/27/357
f 215/17/358 219/27/358 220/31/358
f 216/22/359 220/28/359 221/29/359
f 217/24/360 221/29/360 222/30/360
f 218/19/361 222/30/361 223/26/361
f 219/27/362 223/26/362 224/32/362
f 220/31/363 219/27/363 224/33/363
f 221/29/364 220/28/364 224/34/364
f 222/30/365 221/29/365 224/35/365
f 223/26/366 222/30/366 224/36/366
f 225/15/367 226/16/367 227/17/367
f 226/16/368 225/18/368 230/19/368
f 225/20/369 227/21/369 228/22/369
f 225/23/370 228/22/370 229/24/370
f 225/25/371 229/24/371 230/19/371
f 226/16/372 230/19/372 235/26/372
f 227/17/373 226/16/373 231/27/373
f 228/22/374 227/21/374 232/28/374
f 229/24/375 228/22/375 233/29/375
f 230/19/376 229/24/376 234/30/376
f 226/16/377 235/26/377 231/27/377
f 227/17/378 231/27/378 232/31/378
f 228/22/379 232/28/379 233/29/379
f 229/24/380 233/29/380 234/30/380
f 230/19/381 234/30/381 235/26/381
f 231/27/382 235/26/382 236/32/382
f 232/31/383 231/27/383 236/33/383
f 233/29/384 232/28/384 236/34/384
f 234/30/385 233/29/385 236/35/385
f 235/26/386 234/30/386 236/36/386
f 237/15/387 238/16/387 239/17/387
f 238/16/388 237/18/388 242/19/388
f 237/20/389 239/21/389 240/22/389
f 237/23/390 240/22/390 241/24/390
f 237/25/391 241/24/391 242/19/391
f 238/16/392 242/19/392 247/26/392
f 239/17/393 238/16/393 243/27/393
f 240/22/394 239/21/394 244/28/394
f 241/24/395 240/22/395 245/29/395
f 242/19/396 241/24/396 246/30/396
f 238/16/397 247/26/397 243/27/397
f 239/17/398 243/27/398 244/31/398
f 240/22/399 244/28/399 245/29/399
f 241/24/400 245/29/400 246/30/400
f 242/19/401 246/30/401 247/26/401
f 243/27/402 247/26/402 248/32/402
f 244/31/403 243/27/403 248/33/403
f 245/29/404 244/28/404 248/34/404
f 246/30/405 245/29/405 248/35/405
f 247/26/406 246/30/406 248/36/406
f 249/15/407 250/16/407 251/17/407
f 250/16/408 249/18/408 254/19/408
f 249/20/409 251/21/409 252/22/409
f 249/23/410 252/22/410 253/24/410
f 249/25/411 253/24/411 254/19/411
f 250/16/412 254/19/412 259/26/412
f 251/17/413 250/16/413 255/27/413
f 252/22/414 251/21/414 256/28/414
f 253/24/415 252/22/415 257/29/415
f 254/19/416 253/24/416 258/30/416
f 250/16/417 259/26/417 255/27/417
f 251/17/418 255/27/418 256/31/418
f 252/22/419 256/28/419 257/29/419
f 253/24/420 257/29/420 258/30/420
f 254/19/421 258/30/421 259/26/421
f 255/27/422 259/26/422 260/32/422
f 256/31/423 255/27/423 260/33/423
f 257/29/424 256/28/424 260/34/424
f 258/30/425 257/29/425 260/35/425
f 259/26/426 258/30/426 260/36/426
f 261/15/427 262/16/427 263/17/427
f 262/16/428 261/18/428 266/19/428
f 261/20/429 263/21/429 264/22/429
f 261/23/430 264/22/430 265/24/430
f 261/25/431 265/24/431 266/19/431
f 262/16/432 266/19/432 271/26/432
f 263/17/433 262/16/433 267/27/433
f 264/22/434 263/21/434 268/28/434
f 265/24/435 264/22/435 269/29/435
f 266/19/436 265/24/436 270/30/436
f 262/16/437 271/26/437 267/27/437
f 263/17/438 267/27/438 268/31/438
f 264/22/439 268/28/439 269/29/439
f 265/24/440 269/29/440 270/30/440
f 266/19/441 270/30/441 271/26/441
f 267/27/442 271/26/442 272/32/442
f 268/31/443 267/27/443 272/33/443
f 269/29/444 268/28/444 272/34/444
f 270/30/445 269/29/445 272/35/445
f 271/26/446 270/30/446 272/36/446
f 273/15/447 274/16/447 275/17/447
f 274/16/448 273/18/448 278/19/448
f 273/20/449 275/21/449 276/22/449
f 273/23/450 276/22/450 277/24/450
f 273/25/451 277/24/451 278/19/451
f 274/16/452 278/19/452 283/26/452
f 275/17/453 274/16/453 279/27/453
f 276/22/454 275/21/454 280/28/454
f 277/24/455 276/22/455 281/29/455
f 278/19/456 277/24/456 282/30/456
f 274/16/457 283/26/457 279/27/457
f 275/17/458 279/27/458 280/31/458
f 276/22/459 280/28/459 281/29/459
f 277/24/460 281/29/460 282/30/460
f 278/19/461 282/30/461 283/26/461
f 279/27/462 283/26/462 284/32/462
f 280/31/463 279/27/463 284/33/463
f 281/29/464 280/28/464 284/34/464
f 282/30/465 281/29/465 284/35/465
f 283/26/466 282/30/466 284/36/466
f 285/15/467 286/16/467 287/17/467
f 286/16/468 285/18/468 290/19/468
f 285/20/469 287/21/469 288/22/469
f 285/23/470 288/22/470 289/24/470
f 285/25/471 289/24/471 290/19/471
f 286/16/472 290/19/472 295/26/472
f 287/17/473 286/16/473 291/27/473
f 288/22/474 287/21/474 292/28/474
f 289/24/475 288/22/475 293/29/475
f 290/19/476 289/24/476 294/30/476
f 286/16/477 295/26/477 291/27/477
f 287/17/478 291/27/478 292/31/478
f 288/22/479 292/28/479 293/29/479
f 289/24/480 293/29/480 294/30/480
f 290/19/481 294/30/481 295/26/481
f 291/27/482 295/26/482 296/32/482
f 292/31/483 291/27/483 296/33/483
f 293/29/484 292/28/484 296/34/484
f 294/30/485 293/29/485 296/35/485
f 295/26/486 294/30/486 296/36/486
f 297/15/487 298/16/487 299/17/487
f 298/16/488 297/18/488 302/19/488
f 297/20/489 299/21/489 300/22/489
f 297/23/490 300/22/490 301/24/490
f 297/25/491 301/24/491 302/19/491
f 298/16/492 302/19/492 307/26/492
f 299/17/493 298/16/493 303/27/493
f 300/22/494 299/21/494 304/28/494
f 301/24/495 300/22/495 305/29/495
f 302/19/496 301/24/496 306/30/496
f 298/16/497 307/26/497 303/27/497
f 299/17/498 303/27/498 304/31/498
f 300/22/499 304/28/499 305/29/499
f 301/24/500 305/29/500 306/30/500
f 302/19/501 306/30/501 307/26/501
f 303/27/502 307/26/502 308/32/502
f 304/31/503 303/27/503 308/33/503
f 305/29/504 304/28/504 308/34/504
f 306/30/505 305/29/505 308/35/505
f 307/26/506 306/30/506 308/36/506
f 309/15/507 310/16/507 311/17/507
f 310/16/508 309/18/508 314/19/508
f 309/20/509 311/21/509 312/22/509
f 309/23/510 312/22/510 313/24/510
f 309/25/511 313/24/511 314/19/511
f 310/16/512 314/19/512 319/26/512
f 311/17/513 310/16/513 315/27/513
f 312/22/514 311/21/514 316/28/514
f 313/24/515 312/22/515 317/29/515
f 314/19/516 313/24/516 318/30/516
f 310/16/517 319/26/517 315/27/517
f 311/17/518 315/27/518 316/31/518
f 312/22/519 316/28/519 317/29/519
f 313/24/520 317/29/520 318/30/520
f 314/19/521 318/30/521 319/26/521
f 315/27/522 319/26/522 320/32/522
f 316/31/523 315/27/523 320/33/523
f 317/29/524 316/28/524 320/34/524
f 318/30/525 317/29/525 320/35/525
f 319/26/526 318/30/526 320/36/526
f 321/15/527 322/16/527 323/17/527
f 322/16/528 321/18/528 326/19/528
f 321/20/529 323/21/529 324/22/529
f 321/23/530 324/22/530 325/24/530
f 321/25/531 325/24/531 326/19/531
f 322/16/532 326/19/532 331/26/532
f 323/17/533 322/16/533 327/27/533
f 324/22/534 323/21/534 328/28/534
f 325/24/535 324/22/535 329/29/535
f 326/19/536 325/24/536 330/30/536
f 322/16/537 331/26/537 327/27/537
f 323/17/538 327/27/538 328/31/538
f 324/22/539 328/28/539 329/29/539
f 325/24/540 329/29/540 330/30/540
f 326/19/541 330/30/541 331/26/541
f 327/27/542 331/26/542 332/32/542
f 328/31/543 327/27/543 332/33/543
f 329/29/544 328/28/544 332/34/544
f 330/30/545 329/29/545 332/35/545
f 331/26/546 330/30/546 332/36/546
f 333/15/547 334/16/547 335/17/547
f 334/16/548 333/18/548 338/19/548
f 333/20/549 335/21/549 336/22/549
f 333/23/550 336/22/550 337/24/550
f 333/25/551 337/24/551 338/19/551
f 334/16/552 338/19/552 343/26/552
f 335/17/553 334/16/553 339/27/553
f 336/22/554 335/21/554 340/28/554
f 337/24/555 336/22/555 341/29/555
f 338/19/556 337/24/556 342/30/556
f 334/16/557 343/26/557 339/27/557
f 335/17/558 339/27/558 340/31/558
f 336/22/559 340/28/559 341/29/559
f 337/24/560 341/29/560 342/30/560
f 338/19/561 342/30/561 343/26/561
f 339/27/562 343/26/562 344/32/562
f 340/31/563 339/27/563 344/33/563
f 341/29/564 340/28/564 344/34/564
f 342/30/565 341/29/565 344/35/565
f 343/26/566 342/30/566 344/36/566
f 345/15/567 346/16/567 347/17/567
f 346/16/568 345/18/568 350/19/568
f 345/20/569 347/21/569 348/22/569
f 345/23/570 348/22/570 349/24/570
f 345/25/571 349/24/571 350/19/571
f 346/16/572 350/19/572 355/26/572
f 347/17/573 346/16/573 351/27/573
f 348/22/574 347/21/574 352/28/574
f 349/24/575 348/22/575 353/29/575
f 350/19/576 349/24/576 354/30/576
f 346/16/577 355/26/577 351/27/577
f 347/17/578 351/27/578 352/31/578
f 348/22/579 352/28/579 353/29/579
f 349/24/580 353/29/580 354/30/580
f 350/19/581 354/30/581 355/26/581
f 351/27/582 355/26/582 356/32/582
f 352/31/583 351/27/583 356/33/583
f 353/29/584 352/28/584 356/34/584
f 354/30/585 353/29/585 356/35/585
f 355/26/586 354/30/586 356/36/586
f 357/15/587 358/16/587 359/17/587
f 358/16/588 357/18/588 362/19/588
f 357/20/589 359/21/589 360/22/589
f 357/23/590 360/22/590 361/24/590
f 357/25/591 361/24/591 362/19/591
f 358/16/592 362/19/592 367/26/592
f 359/17/593 358/16/593 363/27/593
f 360/22/594 359/21/594 364/28/594
f 361/24/595 360/22/595 365/29/595
f 362/19/596 361/24/596 366/30/596
f 358/16/597 367/26/597 363/27/597
f 359/17/598 363/27/598 364/31/598
f 360/22/599 364/28/599 365/29/599
f 361/24/600 365/29/600 366/30/600
f 362/19/601 366/30/601 367/26/601
f 363/27/602 367/26/602 368/32/602
f 364/31/603 363/27/603 368/33/603
f 365/29/604 364/28/604 368/34/604
f 366/30/605 365/29/605 368/35/605
f 367/26/606 366/30/606 368/36/606
f 369/15/607 370/16/607 371/17/607
f 370/16/608 369/18/608 374/19/608
f 369/20/609 371/21/609 372/22/609
f 369/23/610 372/22/610 373/24/610
f 369/25/611 373/24/611 374/19/611
f 370/16/612 374/19/612 379/26/612
f 371/17/613 370/16/613 375/27/613
f 372/22/614 371/21/614 376/28/614
f 373/24/615 372/22/615 377/29/615
f 374/19/616 373/24/616 378/30/616
f 370/16/617 379/26/617 375/27/617
f 371/17/618 375/27/618 376/31/618
f 372/22/619 376/28/619 377/29/619
f 373/24/620 377/29/620 378/30/620
f 374/19/621 378/30/621 379/26/621
f 375/27/622 379/26/622 380/32/622
f 376/31/623 375/27/623 380/33/623
f 377/29/624 376/28/624 380/34/624
f 378/30/625 377/29/625 380/35/625
f 379/26/626 378/30/626 380/36/626
f 381/15/627 382/16/627 383/17/627
f 382/16/628 381/18/628 386/19/628
f 381/20/629 383/21/629 384/22/629
f 381/23/630 384/22/630 385/24/630
f 381/25/631 385/24/631 386/19/631
f 382/16/632 386/19/632 391/26/632
f 383/17/633 382/16/633 387/27/633
f 384/22/634 383/21/634 388/28/634
f 385/24/635 384/22/635 389/29/635
f 386/19/636 385/24/636 390/30/636
f 382/16/637 391/26/637 387/27/637
f 383/17/638 387/27/638 388/31/638
f 384/22/639 388/28/639 389/29/639
f 385/24/640 389/29/640 390/30/640
f 386/19/641 390/30/641 391/26/641
f 387/27/642 391/26/642 392/32/642
f 388/31/643 387/27/643 392/33/643
f 389/29/644 388/28/644 392/34/644
f 390/30/645 389/29/645 392/35/645
f 391/26/646 390/30/646 392/36/646
f 393/15/647 394/16/647 395/17/647
f 394/16/648 393/18/648 398/19/648
f 393/20/649 395/21/649 396/22/649
f 393/23/650 396/22/650 397/24/650
f 393/25/651 397/24/651 398/19/651
f 394/16/652 398/19/652 403/26/652
f 395/17/653 394/16/653 399/27/653
f 396/22/654 395/21/654 400/28/654
f 397/24/655 396/22/655 401/29/655
f 398/19/656 397/24/656 402/30/656
f 394/16/657 403/26/657 399/27/657
f 395/17/658 399/27/658 400/31/658
f 396/22/659 400/28/659 401/29/659
f 397/24/660 401/29/660 402/30/660
f 398/19/661 402/30/661 403/26/661
f 399/27/662 403/26/662 404/32/662
f 400/31/663 399/27/663 404/33/663
f 401/29/664 400/28/664 404/34/664
f 402/30/665 401/29/665 404/35/665
f 403/26/666 402/30/666 404/36/666
f 405/15/667 406/16/667 407/17/667
f 406/16/668 405/18/668 410/19/668
f 405/20/669 407/21/669 408/22/669
f 405/23/670 408/22/670 409/24/670
f 405/25/671 409/24/671 410/19/671
f 406/16/672 410/19/672 415/26/672
f 407/17/673 406/16/673 411/27/673
f 408/22/674 407/21/674 412/28/674
f 409/24/675 408/22/675 413/29/675
f 410/19/676 409/24/676 414/30/676
f 406/16/677 415/26/677 411/27/677
f 407/17/678 411/27/678 412/31/678
f 408/22/679 412/28/679 413/29/679
f 409/24/680 413/29/680 414/30/680
f 410/19/681 414/30/681 415/26/681
f 411/27/682 415/26/682 416/32/682
f 412/31/683 411/27/683 416/33/683
f 413/29/684 412/28/684 416/34/684
f 414/30/685 413/29/685 416/35/685
f 415/26/686 414/30/686 416/36/686
f 417/15/687 418/16/687 419/17/687
f 418/16/688 417/18/688 422/19/688
f 417/20/689 419/21/689 420/22/689
f 417/23/690 420/22/690 421/24/690
f 417/25/691 421/24/691 422/19/691
f 418/16/692 422/19/692 427/26/692
f 419/17/693 418/16/693 423/27/693
f 420/22/694 419/21/694 424/28/694
f 421/24/695 420/22/695 425/29/695
f 422/19/696 421/24/696 426/30/696
f 418/16/697 427/26/697 423/27/697
f 419/17/698 423/27/698 424/31/698
f 420/22/699 424/28/699 425/29/699
f 421/24/700 425/29/700 426/30/700
f 422/19/701 426/30/701 427/26/701
f 423/27/702 427/26/702 428/32/702
f 424/31/703 423/27/703 428/33/703
f 425/29/704 424/28/704 428/34/704
f 426/30/705 425/29/705 428/35/705
f 427/26/706 426/30/706 428/36/706
f 429/15/707 430/16/707 431/17/707
f 430/16/708 429/18/708 434/19/708
f 429/20/709 431/21/709 432/22/709
f 429/23/710 432/22/710 433/24/710
f 429/25/711 433/24/711 434/19/711
f 430/16/712 434/19/712 439/26/712
f 431/17/713 430/16/713 435/27/713
f 432/22/714 431/21/714 436/28/714
f 433/24/715 432/22/715 437/29/715
f 434/19/716 433/24/716 438/30/716
f 430/16/717 439/26/717 435/27/717
f 431/17/718 435/27/718 436/31/718
f 432/22/719 436/28/719 437/29/719
f 433/24/720 437/29/720 438/30/720
f 434/19/721 438/30/721 439/26/721
f 435/27/722 439/26/722 440/32/722
f 436/31/723 435/27/723 440/33/723
f 437/29/724 436/28/724 440/34/724
f 438/30/725 437/29/725 440/35/725
f 439/26/726 438/30/726 440/36/726
usemtl weed
f 441/37/727 442/38/727 444/39/727 443/40/727
f 443/40/728 444/39/728 446/41/728 445/42/728
f 444/43/6 442/44/6 448/45/6 446/46/6
f 445/42/729 446/41/729 448/47/729 447/48/729
f 447/48/730 448/47/730 442/49/730 441/50/730
f 441/51/5 443/52/5 445/53/5 447/54/5
f 449/37/731 450/38/731 452/39/731 451/40/731
f 451/40/732 452/39/732 454/41/732 453/42/732
f 452/43/6 450/44/6 456/45/6 454/46/6
f 453/42/733 454/41/733 456/47/733 455/48/733
f 455/48/734 456/47/734 450/49/734 449/50/734
f 449/51/5 451/52/5 453/53/5 455/54/5
f 457/37/735 458/38/735 460/39/735 459/40/735
f 459/40/736 460/39/736 462/41/736 461/42/736
f 460/43/6 458/44/6 464/45/6 462/46/6
f 461/42/737 462/41/737 464/47/737 463/48/737
f 463/48/738 464/47/738 458/49/738 457/50/738
f 457/51/5 459/52/5 461/53/5 463/54/5
f 465/37/739 466/38/739 468/39/739 467/40/739
f 467/40/740 468/39/740 470/41/740 469/42/740
f 468/43/6 466/44/6 472/45/6 470/46/6
f 469/42/741 470/41/741 472/47/741 471/48/741
f 471/48/742 472/47/742 466/49/742 465/50/742
f 465/51/5 467/52/5 469/53/5 471/54/5
f 473/37/743 474/38/743 476/39/743 475/40/743
f 475/40/744 476/39/744 478/41/744 477/42/744
f 476/43/6 474/44/6 480/45/6 478/46/6
f 477/42/745 478/41/745 480/47/745 479/48/745
f 479/48/746 480/47/746 474/49/746 473/50/746
f 473/51/5 475/52/5 477/53/5 479/54/5
f 481/37/747 482/38/747 484/39/747 483/40/747
f 483/40/748 484/39/748 486/41/748 485/42/748
f 484/43/6 482/44/6 488/45/6 486/46/6
f 485/42/749 486/41/749 488/47/749 487/48/749
f 487/48/750 488/47/750 482/49/750 481/50/750
f 481/51/5 483/52/5 485/53/5 487/54/5
f 489/37/751 490/38/751 492/39/751 491/40/751
f 491/40/752 492/39/752 494/41/752 493/42/752
f 492/43/6 490/44/6 496/45/6 494/46/6
f 493/42/753 494/41/753 496/47/753 495/48/753
f 495/48/754 496/47/754 490/49/754 489/50/754
f 489/51/5 491/52/5 493/53/5 495/54/5
f 497/37/755 498/38/755 500/39/755 499/40/755
f 499/40/756 500/39/756 502/41/756 501/42/756
f 500/43/6 498/44/6 504/45/6 502/46/6
f 501/42/757 502/41/757 504/47/757 503/48/757
f 503/48/758 504/47/758 498/49/758 497/50/758
f 497/51/5 499/52/5 501/53/5 503/54/5
