# Blender 4.0.2
# www.blender.org
mtllib patch_planted.mtl
o patch_planted
v 0.750000 0.750000 0.000000
v 0.750000 0.750000 0.020000
v 0.750000 -0.750000 0.000000
v 0.750000 -0.750000 0.020000
v -0.750000 0.750000 0.000000
v -0.750000 0.750000 0.020000
v -0.750000 -0.750000 0.000000
v -0.750000 -0.750000 0.020000
v 0.600000 0.430000 0.020000
v 0.600000 0.430000 0.040000
v 0.600000 0.370000 0.020000
v 0.600000 0.370000 0.040000
v -0.600000 0.430000 0.020000
v -0.600000 0.430000 0.040000
v -0.600000 0.370000 0.020000
v -0.600000 0.370000 0.040000
v 0.600000 0.030000 0.020000
v 0.600000 0.030000 0.040000
v 0.600000 -0.030000 0.020000
v 0.600000 -0.030000 0.040000
v -0.600000 0.030000 0.020000
v -0.600000 0.030000 0.040000
v -0.600000 -0.030000 0.020000
v -0.600000 -0.030000 0.040000
v 0.600000 -0.370000 0.020000
v 0.600000 -0.370000 0.040000
v 0.600000 -0.430000 0.020000
v 0.600000 -0.430000 0.040000
v -0.600000 -0.370000 0.020000
v -0.600000 -0.370000 0.040000
v -0.600000 -0.430000 0.020000
v -0.600000 -0.430000 0.040000
v 0.000000 0.000000 0.015000
v -0.101304 0.073601 0.034347
v 0.038694 0.119090 0.034347
v 0.125219 0.000000 0.034347
v 0.038694 -0.119090 0.034347
v -0.101304 -0.073601 0.034347
v -0.038694 0.119090 0.065653
v 0.101304 0.073601 0.065653
v 0.101304 -0.073601 0.065653
v -0.038694 -0.119090 0.065653
v -0.125219 0.000000 0.065653
v 0.000000 0.000000 0.085000
v 0.000000 -0.012000 0.020000
v 0.000000 -0.012000 0.220000
v -0.011413 -0.003708 0.020000
v -0.011413 -0.003708 0.220000
v -0.007053 0.009708 0.020000
v -0.007053 0.009708 0.220000
v 0.007053 0.009708 0.020000
v 0.007053 0.009708 0.220000
v 0.011413 -0.003708 0.020000
v 0.011413 -0.003708 0.220000
v 0.000000 -0.018000 0.172500
v 0.000000 -0.018000 0.187500
v -0.015588 -0.009000 0.172500
v -0.015588 -0.009000 0.187500
v -0.015588 0.009000 0.172500
v -0.015588 0.009000 0.187500
v 0.000000 0.018000 0.172500
v 0.000000 0.018000 0.187500
v 0.015588 0.009000 0.172500
v 0.015588 0.009000 0.187500
v 0.015588 -0.009000 0.172500
v 0.015588 -0.009000 0.187500
vn 1.0000 -0.0000 -0.0000
vn -0.0000 -1.0000 -0.0000
vn -1.0000 -0.0000 -0.0000
vn -0.0000 1.0000 -0.0000
vn -0.0000 -0.0000 -1.0000
vn -0.0000 -0.0000 1.0000
vn -0.0580 0.1784 -0.9822
vn -0.1876 -0.0000 -0.9822
vn 0.1518 0.1103 -0.9822
vn 0.1518 -0.1103 -0.9822
vn -0.0580 -0.1784 -0.9822
vn -0.7946 -0.0000 -0.6071
vn -0.2456 0.7558 -0.6071
vn 0.6429 0.4671 -0.6071
vn 0.6429 -0.4671 -0.6071
vn -0.2456 -0.7558 -0.6071
vn -0.6429 0.4671 0.6071
vn 0.2456 0.7558 0.6071
vn 0.7946 -0.0000 0.6071
vn 0.2456 -0.7558 0.6071
vn -0.6429 -0.4671 0.6071
vn -0.1518 0.1103 0.9822
vn 0.0580 0.1784 0.9822
vn 0.1876 -0.0000 0.9822
vn 0.0580 -0.1784 0.9822
vn -0.1518 -0.1103 0.9822
vn -0.5878 -0.8090 -0.0000
vn -0.9511 0.3090 -0.0000
vn 0.9511 0.3090 -0.0000
vn 0.5878 -0.8090 -0.0000
vn -0.5000 -0.8660 -0.0000
vn -0.5000 0.8660 -0.0000
vn 0.5000 0.8660 -0.0000
vn 0.5000 -0.8660 -0.0000
vt 0.375000 0.000000
vt 0.625000 0.000000
vt 0.625000 0.250000
vt 0.375000 0.250000
vt 0.625000 0.500000
vt 0.375000 0.500000
vt 0.625000 0.750000
vt 0.375000 0.750000
vt 0.625000 1.000000
vt 0.375000 1.000000
vt 0.125000 0.500000
vt 0.125000 0.750000
vt 0.875000 0.500000
vt 0.875000 0.750000
vt 0.181819 0.000000
vt 0.272728 0.157461
vt 0.090910 0.157461
vt 0.363637 0.000000
vt 0.454546 0.157461
vt 0.909091 0.000000
vt 1.000000 0.157461
vt 0.818182 0.157461
vt 0.727273 0.000000
vt 0.636364 0.157461
vt 0.545455 0.000000
vt 0.363637 0.314921
vt 0.181819 0.314921
vt 0.909091 0.314921
vt 0.727273 0.314921
vt 0.545455 0.314921
vt 0.000000 0.314921
vt 0.272728 0.472382
vt 0.090910 0.472382
vt 0.818182 0.472382
vt 0.636364 0.472382
vt 0.454546 0.472382
vt 1.000000 0.500000
vt 1.000000 1.000000
vt 0.800000 1.000000
vt 0.800000 0.500000
vt 0.600000 1.000000
vt 0.600000 0.500000
vt 0.400000 1.000000
vt 0.400000 0.500000
vt 0.478254 0.324164
vt 0.250000 0.490000
vt 0.021746 0.324164
vt 0.108932 0.055836
vt 0.391068 0.055836
vt 0.200000 1.000000
vt 0.200000 0.500000
vt 0.000000 1.000000
vt 0.000000 0.500000
vt 0.750000 0.490000
vt 0.978254 0.324164
vt 0.891068 0.055836
vt 0.608932 0.055836
vt 0.521746 0.324164
vt 0.833333 1.000000
vt 0.833333 0.500000
vt 0.666667 1.000000
vt 0.666667 0.500000
vt 0.500000 1.000000
vt 0.500000 0.500000
vt 0.333333 1.000000
vt 0.333333 0.500000
vt 0.457846 0.370000
vt 0.042154 0.370000
vt 0.042154 0.130000
vt 0.250000 0.010000
vt 0.457846 0.130000
vt 0.166667 1.000000
vt 0.166667 0.500000
vt -0.000000 1.000000
vt -0.000000 0.500000
vt 0.957846 0.370000
vt 0.957846 0.130000
vt 0.750000 0.010000
vt 0.542154 0.130000
vt 0.542154 0.370000
s 0
usemtl soil_light
f 1/1/1 2/2/1 4/3/1 3/4/1
f 3/4/2 4/3/2 8/5/2 7/6/2
f 7/6/3 8/5/3 6/7/3 5/8/3
f 5/8/4 6/7/4 2/9/4 1/10/4
f 3/11/5 7/6/5 5/8/5 1/12/5
f 8/5/6 4/13/6 2/14/6 6/7/6
usemtl soil_dark
f 9/1/1 10/2/1 12/3/1 11/4/1
f 11/4/2 12/3/2 16/5/2 15/6/2
f 15/6/3 16/5/3 14/7/3 13/8/3
f 13/8/4 14/7/4 10/9/4 9/10/4
f 11/11/5 15/6/5 13/8/5 9/12/5
f 16/5/6 12/13/6 10/14/6 14/7/6
f 17/1/1 18/2/1 20/3/1 19/4/1
f 19/4/2 20/3/2 24/5/2 23/6/2
f 23/6/3 24/5/3 22/7/3 21/8/3
f 21/8/4 22/7/4 18/9/4 17/10/4
f 19/11/5 23/6/5 21/8/5 17/12/5
f 24/5/6 20/13/6 18/14/6 22/7/6
f 25/1/1 26/2/1 28/3/1 27/4/1
f 27/4/2 28/3/2 32/5/2 31/6/2
f 31/6/3 32/5/3 30/7/3 29/8/3
f 29/8/4 30/7/4 26/9/4 25/10/4
f 27/11/5 31/6/5 29/8/5 25/12/5
f 32/5/6 28/13/6 26/14/6 30/7/6
f 33/15/7 34/16/7 35/17/7
f 34/16/8 33/18/8 38/19/8
f 33/20/9 35/21/9 36/22/9
f 33/23/10 36/22/10 37/24/10
f 33/25/11 37/24/11 38/19/11
f 34/16/12 38/19/12 43/26/12
f 35/17/13 34/16/13 39/27/13
f 36/22/14 35/21/14 40/28/14
f 37/24/15 36/22/15 41/29/15
f 38/19/16 37/24/16 42/30/16
f 34/16/17 43/26/17 39/27/17
f 35/17/18 39/27/18 40/31/18
f 36/22/19 40/28/19 41/29/19
f 37/24/20 41/29/20 42/30/20
f 38/19/21 42/30/21 43/26/21
f 39/27/22 43/26/22 44/32/22
f 40/31/23 39/27/23 44/33/23
f 41/29/24 40/28/24 44/34/24
f 42/30/25 41/29/25 44/35/25
f 43/26/26 42/30/26 44/36/26
usemtl bark
f 45/37/27 46/38/27 48/39/27 47/40/27
f 47/40/28 48/39/28 50/41/28 49/42/28
f 49/42/4 50/41/4 52/43/4 51/44/4
f 48/45/6 46/46/6 54/47/6 52/48/6 50/49/6
f 51/44/29 52/43/29 54/50/29 53/51/29
f 53/51/30 54/50/30 46/52/30 45/53/30
f 45/54/5 47/55/5 49/56/5 51/57/5 53/58/5
usemtl twine
f 55/37/31 56/38/31 58/59/31 57/60/31
f 57/60/3 58/59/3 60/61/3 59/62/3
f 59/62/32 60/61/32 62/63/32 61/64/32
f 61/64/33 62/63/33 64/65/33 63/66/33
f 58/67/6 56/46/6 66/68/6 64/69/6 62/70/6 60/71/6
f 63/66/1 64/65/1 66/72/1 65/73/1
f 65/73/34 66/72/34 56/74/34 55/75/34
f 55/54/5 57/76/5 59/77/5 61/78/5 63/79/5 65/80/5
