# Blender 4.0.2
# www.blender.org
mtllib scarecrow.mtl
o scarecrow
v 0.000000 -0.020000 0.000000
v 0.000000 -0.020000 1.200000
v -0.017321 -0.010000 0.000000
v -0.017321 -0.010000 1.200000
v -0.017321 0.010000 0.000000
v -0.017321 0.010000 1.200000
v 0.000000 0.020000 0.000000
v 0.000000 0.020000 1.200000
v 0.017321 0.010000 0.000000
v 0.017321 0.010000 1.200000
v 0.017321 -0.010000 0.000000
v 0.017321 -0.010000 1.200000
v 0.250000 -0.015000 0.850000
v -0.250000 -0.015000 0.850000
v 0.250000 -0.004635 0.835734
v -0.250000 -0.004635 0.835734
v 0.250000 0.012135 0.841183
v -0.250000 0.012135 0.841183
v 0.250000 0.012135 0.858817
v -0.250000 0.012135 0.858817
v 0.250000 -0.004635 0.864266
v -0.250000 -0.004635 0.864266
v 0.150000 0.080000 0.510000
v 0.150000 0.080000 0.790000
v 0.150000 -0.080000 0.510000
v 0.150000 -0.080000 0.790000
v -0.150000 0.080000 0.510000
v -0.150000 0.080000 0.790000
v -0.150000 -0.080000 0.510000
v -0.150000 -0.080000 0.790000
v -0.050000 -0.060000 0.500000
v -0.050000 -0.060000 0.600000
v -0.050000 -0.100000 0.500000
v -0.050000 -0.100000 0.600000
v -0.150000 -0.060000 0.500000
v -0.150000 -0.060000 0.600000
v -0.150000 -0.100000 0.500000
v -0.150000 -0.100000 0.600000
v 0.120000 -0.060000 0.680000
v 0.120000 -0.060000 0.760000
v 0.120000 -0.100000 0.680000
v 0.120000 -0.100000 0.760000
v 0.040000 -0.060000 0.680000
v 0.040000 -0.060000 0.760000
v 0.040000 -0.100000 0.680000
v 0.040000 -0.100000 0.760000
v 0.000000 0.000000 0.857000
v -0.094068 0.068344 0.936048
v 0.035930 0.110583 0.936048
v 0.116275 0.000000 0.936048
v 0.035930 -0.110583 0.936048
v -0.094068 -0.068344 0.936048
v -0.035930 0.110583 1.063952
v 0.094068 0.068344 1.063952
v 0.094068 -0.068344 1.063952
v -0.035930 -0.110583 1.063952
v -0.116275 0.000000 1.063952
v 0.000000 0.000000 1.143000
v 0.000000 -0.160000 1.120000
v 0.000000 -0.160000 1.140000
v -0.113137 -0.113137 1.120000
v -0.113137 -0.113137 1.140000
v -0.160000 0.000000 1.120000
v -0.160000 0.000000 1.140000
v -0.113137 0.113137 1.120000
v -0.113137 0.113137 1.140000
v 0.000000 0.160000 1.120000
v 0.000000 0.160000 1.140000
v 0.113137 0.113137 1.120000
v 0.113137 0.113137 1.140000
v 0.160000 0.000000 1.120000
v 0.160000 0.000000 1.140000
v 0.113137 -0.113137 1.120000
v 0.113137 -0.113137 1.140000
v 0.000000 -0.100000 1.130000
v 0.000000 -0.020000 1.230000
v -0.070711 -0.070711 1.130000
v -0.014142 -0.014142 1.230000
v -0.100000 0.000000 1.130000
v -0.020000 0.000000 1.230000
v -0.070711 0.070711 1.130000
v -0.014142 0.014142 1.230000
v 0.000000 0.100000 1.130000
v 0.000000 0.020000 1.230000
v 0.070711 0.070711 1.130000
v 0.014142 0.014142 1.230000
v 0.100000 0.000000 1.130000
v 0.020000 0.000000 1.230000
v 0.070711 -0.070711 1.130000
v 0.014142 -0.014142 1.230000
v -0.220000 0.000000 0.830000
v -0.263416 0.010514 0.841056
v -0.203417 0.017013 0.841056
v -0.166335 0.000000 0.841056
v -0.203417 -0.017013 0.841056
v -0.263416 -0.010514 0.841056
v -0.236583 0.017013 0.858944
v -0.176584 0.010514 0.858944
v -0.176584 -0.010514 0.858944
v -0.236583 -0.017013 0.858944
v -0.273665 0.000000 0.858944
v -0.220000 0.000000 0.870000
v 0.220000 0.000000 0.830000
v 0.176584 0.010514 0.841056
v 0.236583 0.017013 0.841056
v 0.273665 0.000000 0.841056
v 0.236583 -0.017013 0.841056
v 0.176584 -0.010514 0.841056
v 0.203417 0.017013 0.858944
v 0.263416 0.010514 0.858944
v 0.263416 -0.010514 0.858944
v 0.203417 -0.017013 0.858944
v 0.166335 0.000000 0.858944
v 0.220000 0.000000 0.870000
vn -0.5000 -0.8660 -0.0000
vn -1.0000 -0.0000 -0.0000
vn -0.5000 0.8660 -0.0000
vn 0.5000 0.8660 -0.0000
vn -0.0000 -0.0000 1.0000
vn 1.0000 -0.0000 -0.0000
vn 0.5000 -0.8660 -0.0000
vn -0.0000 -0.0000 -1.0000
vn -0.0000 -0.8090 -0.5878
vn -0.0000 0.3090 -0.9511
vn -0.0000 1.0000 -0.0000
vn -0.0000 0.3090 0.9511
vn -0.0000 -0.8090 0.5878
vn -0.0000 -1.0000 -0.0000
vn -0.1988 0.6119 -0.7656
vn -0.6433 -0.0000 -0.7656
vn 0.5205 0.3782 -0.7656
vn 0.5205 -0.3782 -0.7656
vn -0.1988 -0.6119 -0.7656
vn -0.9853 -0.0000 -0.1711
vn -0.3045 0.9370 -0.1711
vn 0.7971 0.5791 -0.1711
vn 0.7971 -0.5791 -0.1711
vn -0.3045 -0.9370 -0.1711
vn -0.7971 0.5791 0.1711
vn 0.3045 0.9370 0.1711
vn 0.9853 -0.0000 0.1711
vn 0.3045 -0.9370 0.1711
vn -0.7971 -0.5791 0.1711
vn -0.5205 0.3782 0.7656
vn 0.1988 0.6119 0.7656
vn 0.6433 -0.0000 0.7656
vn 0.1988 -0.6119 0.7656
vn -0.5205 -0.3782 0.7656
vn -0.3827 -0.9239 -0.0000
vn -0.9239 -0.3827 -0.0000
vn -0.9239 0.3827 -0.0000
vn -0.3827 0.9239 -0.0000
vn 0.3827 0.9239 -0.0000
vn 0.9239 0.3827 -0.0000
vn 0.9239 -0.3827 -0.0000
vn 0.3827 -0.9239 -0.0000
vn -0.3077 -0.7430 0.5944
vn -0.7430 -0.3077 0.5944
vn -0.7430 0.3077 0.5944
vn -0.3077 0.7430 0.5944
vn 0.3077 0.7430 0.5944
vn 0.7430 0.3077 0.5944
vn 0.7430 -0.3077 0.5944
vn 0.3077 -0.7430 0.5944
vn -0.0635 0.5866 -0.8074
vn -0.2468 -0.0000 -0.9691
vn 0.1847 0.4026 -0.8966
vn 0.1847 -0.4026 -0.8966
vn -0.0635 -0.5866 -0.8074
vn -0.8677 -0.0000 -0.4971
vn -0.1056 0.9749 -0.1958
vn 0.3999 0.8717 -0.2832
vn 0.3999 -0.8717 -0.2832
vn -0.1056 -0.9749 -0.1958
vn -0.3999 0.8717 0.2832
vn 0.1056 0.9749 0.1958
vn 0.8677 -0.0000 0.4971
vn 0.1056 -0.9749 0.1958
vn -0.3999 -0.8717 0.2832
vn -0.1847 0.4026 0.8966
vn 0.0635 0.5866 0.8074
vn 0.2468 -0.0000 0.9691
vn 0.0635 -0.5866 0.8074
vn -0.1847 -0.4026 0.8966
vt 1.000000 0.500000
vt 1.000000 1.000000
vt 0.833333 1.000000
vt 0.833333 0.500000
vt 0.666667 1.000000
vt 0.666667 0.500000
vt 0.500000 1.000000
vt 0.500000 0.500000
vt 0.333333 1.000000
vt 0.333333 0.500000
vt 0.457846 0.370000
vt 0.250000 0.490000
vt 0.042154 0.370000
vt 0.042154 0.130000
vt 0.250000 0.010000
vt 0.457846 0.130000
vt 0.166667 1.000000
vt 0.166667 0.500000
vt -0.000000 1.000000
vt -0.000000 0.500000
vt 0.750000 0.490000
vt 0.957846 0.370000
vt 0.957846 0.130000
vt 0.750000 0.010000
vt 0.542154 0.130000
vt 0.542154 0.370000
vt 0.800000 1.000000
vt 0.800000 0.500000
vt 0.600000 1.000000
vt 0.600000 0.500000
vt 0.400000 1.000000
vt 0.400000 0.500000
vt 0.478254 0.324164
vt 0.021746 0.324164
vt 0.108932 0.055836
vt 0.391068 0.055836
vt 0.200000 1.000000
vt 0.200000 0.500000
vt 0.000000 1.000000
vt 0.000000 0.500000
vt 0.978254 0.324164
vt 0.891068 0.055836
vt 0.608932 0.055836
vt 0.521746 0.324164
vt 0.375000 0.000000
vt 0.625000 0.000000
vt 0.625000 0.250000
vt 0.375000 0.250000
vt 0.625000 0.500000
vt 0.375000 0.500000
vt 0.625000 0.750000
vt 0.375000 0.750000
vt 0.625000 1.000000
vt 0.375000 1.000000
vt 0.125000 0.500000
vt 0.125000 0.750000
vt 0.875000 0.500000
vt 0.875000 0.750000
vt 0.181819 0.000000
vt 0.272728 0.157461
vt 0.090910 0.157461
vt 0.363637 0.000000
vt 0.454546 0.157461
vt 0.909091 0.000000
vt 1.000000 0.157461
vt 0.818182 0.157461
vt 0.727273 0.000000
vt 0.636364 0.157461
vt 0.545455 0.000000
vt 0.363637 0.314921
vt 0.181819 0.314921
vt 0.909091 0.314921
vt 0.727273 0.314921
vt 0.545455 0.314921
vt 0.000000 0.314921
vt 0.272728 0.472382
vt 0.090910 0.472382
vt 0.818182 0.472382
vt 0.636364 0.472382
vt 0.454546 0.472382
vt 0.875000 1.000000
vt 0.750000 1.000000
vt 0.750000 0.500000
vt 0.500000 1.000000
vt 0.500000 0.500000
vt 0.250000 1.000000
vt 0.250000 0.500000
vt 0.419706 0.419706
vt 0.080294 0.419706
vt 0.010000 0.250000
vt 0.080294 0.080294
vt 0.419706 0.080294
vt 0.490000 0.250000
vt 0.125000 1.000000
vt 0.000000 1.000000
vt 0.000000 0.500000
vt 0.919706 0.419706
vt 0.990000 0.250000
vt 0.919706 0.080294
vt 0.580294 0.080294
vt 0.510000 0.250000
vt 0.580294 0.419706
s 0
usemtl bark
f 1/1/1 2/2/1 4/3/1 3/4/1
f 3/4/2 4/3/2 6/5/2 5/6/2
f 5/6/3 6/5/3 8/7/3 7/8/3
f 7/8/4 8/7/4 10/9/4 9/10/4
f 4/11/5 2/12/5 12/13/5 10/14/5 8/15/5 6/16/5
f 9/10/6 10/9/6 12/17/6 11/18/6
f 11/18/7 12/17/7 2/19/7 1/20/7
f 1/21/8 3/22/8 5/23/8 7/24/8 9/25/8 11/26/8
f 13/1/9 14/2/9 16/27/9 15/28/9
f 15/28/10 16/27/10 18/29/10 17/30/10
f 17/30/11 18/29/11 20/31/11 19/32/11
f 16/33/2 14/12/2 22/34/2 20/35/2 18/36/2
f 19/32/12 20/31/12 22/37/12 21/38/12
f 21/38/13 22/37/13 14/39/13 13/40/13
f 13/21/6 15/41/6 17/42/6 19/43/6 21/44/6
usemtl cloth
f 23/45/6 24/46/6 26/47/6 25/48/6
f 25/48/14 26/47/14 30/49/14 29/50/14
f 29/50/2 30/49/2 28/51/2 27/52/2
f 27/52/11 28/51/11 24/53/11 23/54/11
f 25/55/8 29/50/8 27/52/8 23/56/8
f 30/49/5 26/57/5 24/58/5 28/51/5
usemtl cloth_dark
f 31/45/6 32/46/6 34/47/6 33/48/6
f 33/48/14 34/47/14 38/49/14 37/50/14
f 37/50/2 38/49/2 36/51/2 35/52/2
f 35/52/11 36/51/11 32/53/11 31/54/11
f 33/55/8 37/50/8 35/52/8 31/56/8
f 38/49/5 34/57/5 32/58/5 36/51/5
f 39/45/6 40/46/6 42/47/6 41/48/6
f 41/48/14 42/47/14 46/49/14 45/50/14
f 45/50/2 46/49/2 44/51/2 43/52/2
f 43/52/11 44/51/11 40/53/11 39/54/11
f 41/55/8 45/50/8 43/52/8 39/56/8
f 46/49/5 42/57/5 40/58/5 44/51/5
f 59/1/35 60/2/35 62/81/35 61/57/35
f 61/57/36 62/81/36 64/82/36 63/83/36
f 63/83/37 64/82/37 66/53/37 65/49/37
f 65/49/38 66/53/38 68/84/38 67/85/38
f 67/85/39 68/84/39 70/54/39 69/50/39
f 69/50/40 70/54/40 72/86/40 71/87/40
f 62/88/5 60/12/5 74/89/5 72/90/5 70/91/5 68/15/5 66/92/5 64/93/5
f 71/87/41 72/86/41 74/94/41 73/55/41
f 73/55/42 74/94/42 60/95/42 59/96/42
f 59/21/8 61/97/8 63/98/8 65/99/8 67/24/8 69/100/8 71/101/8 73/102/8
f 75/1/43 76/2/43 78/81/43 77/57/43
f 77/57/44 78/81/44 80/82/44 79/83/44
f 79/83/45 80/82/45 82/53/45 81/49/45
f 81/49/46 82/53/46 84/84/46 83/85/46
f 83/85/47 84/84/47 86/54/47 85/50/47
f 85/50/48 86/54/48 88/86/48 87/87/48
f 78/88/5 76/12/5 90/89/5 88/90/5 86/91/5 84/15/5 82/92/5 80/93/5
f 87/87/49 88/86/49 90/94/49 89/55/49
f 89/55/50 90/94/50 76/95/50 75/96/50
f 75/21/8 77/97/8 79/98/8 81/99/8 83/24/8 85/100/8 87/101/8 89/102/8
usemtl straw
f 47/59/15 48/60/15 49/61/15
f 48/60/16 47/62/16 52/63/16
f 47/64/17 49/65/17 50/66/17
f 47/67/18 50/66/18 51/68/18
f 47/69/19 51/68/19 52/63/19
f 48/60/20 52/63/20 57/70/20
f 49/61/21 48/60/21 53/71/21
f 50/66/22 49/65/22 54/72/22
f 51/68/23 50/66/23 55/73/23
f 52/63/24 51/68/24 56/74/24
f 48/60/25 57/70/25 53/71/25
f 49/61/26 53/71/26 54/75/26
f 50/66/27 54/72/27 55/73/27
f 51/68/28 55/73/28 56/74/28
f 52/63/29 56/74/29 57/70/29
f 53/71/30 57/70/30 58/76/30
f 54/75/31 53/71/31 58/77/31
f 55/73/32 54/72/32 58/78/32
f 56/74/33 55/73/33 58/79/33
f 57/70/34 56/74/34 58/80/34
usemtl straw_dark
f 91/59/51 92/60/51 93/61/51
f 92/60/52 91/62/52 96/63/52
f 91/64/53 93/65/53 94/66/53
f 91/67/54 94/66/54 95/68/54
f 91/69/55 95/68/55 96/63/55
f 92/60/56 96/63/56 101/70/56
f 93/61/57 92/60/57 97/71/57
f 94/66/58 93/65/58 98/72/58
f 95/68/59 94/66/59 99/73/59
f 96/63/60 95/68/60 100/74/60
f 92/60/61 101/70/61 97/71/61
f 93/61/62 97/71/62 98/75/62
f 94/66/63 98/72/63 99/73/63
f 95/68/64 99/73/64 100/74/64
f 96/63/65 100/74/65 101/70/65
f 97/71/66 101/70/66 102/76/66
f 98/75/67 97/71/67 102/77/67
f 99/73/68 98/72/68 102/78/68
f 100/74/69 99/73/69 102/79/69
f 101/70/70 100/74/70 102/80/70
f 103/59/51 104/60/51 105/61/51
f 104/60/52 103/62/52 108/63/52
f 103/64/53 105/65/53 106/66/53
f 103/67/54 106/66/54 107/68/54
f 103/69/55 107/68/55 108/63/55
f 104/60/56 108/63/56 113/70/56
f 105/61/57 104/60/57 109/71/57
f 106/66/58 105/65/58 110/72/58
f 107/68/59 106/66/59 111/73/59
f 108/63/60 107/68/60 112/74/60
f 104/60/61 113/70/61 109/71/61
f 105/61/62 109/71/62 110/75/62
f 106/66/63 110/72/63 111/73/63
f 107/68/64 111/73/64 112/74/64
f 108/63/65 112/74/65 113/70/65
f 109/71/66 113/70/66 114/76/66
f 110/75/67 109/71/67 114/77/67
f 111/73/68 110/72/68 114/78/68
f 112/74/69 111/73/69 114/79/69
f 113/70/70 112/74/70 114/80/70
