# Blender 4.0.2
# www.blender.org
mtllib tool_rack.mtl
o tool_rack
v 0.000000 -0.025000 0.000000
v 0.000000 -0.025000 1.000000
v -0.021651 -0.012500 0.000000
v -0.021651 -0.012500 1.000000
v -0.021651 0.012500 0.000000
v -0.021651 0.012500 1.000000
v 0.000000 0.025000 0.000000
v 0.000000 0.025000 1.000000
v 0.021651 0.012500 0.000000
v 0.021651 0.012500 1.000000
v 0.021651 -0.012500 0.000000
v 0.021651 -0.012500 1.000000
v 0.000000 -0.010000 0.300000
v -0.100000 -0.010000 0.300000
v 0.000000 0.000000 0.290000
v -0.100000 0.000000 0.290000
v 0.000000 0.010000 0.300000
v -0.100000 0.010000 0.300000
v 0.000000 0.000000 0.310000
v -0.100000 0.000000 0.310000
v 0.000000 -0.010000 0.550000
v -0.100000 -0.010000 0.550000
v 0.000000 0.000000 0.540000
v -0.100000 0.000000 0.540000
v 0.000000 0.010000 0.550000
v -0.100000 0.010000 0.550000
v 0.000000 0.000000 0.560000
v -0.100000 0.000000 0.560000
v 0.000000 -0.010000 0.800000
v -0.100000 -0.010000 0.800000
v 0.000000 0.000000 0.790000
v -0.100000 0.000000 0.790000
v 0.000000 0.010000 0.800000
v -0.100000 0.010000 0.800000
v 0.000000 0.000000 0.810000
v -0.100000 0.000000 0.810000
v -0.200000 -0.012000 0.100000
v -0.200000 -0.012000 0.500000
v -0.212000 0.000000 0.100000
v -0.212000 0.000000 0.500000
v -0.200000 0.012000 0.100000
v -0.200000 0.012000 0.500000
v -0.188000 0.000000 0.100000
v -0.188000 0.000000 0.500000
v -0.160000 0.010000 0.080000
v -0.160000 0.010000 0.120000
v -0.160000 -0.010000 0.080000
v -0.160000 -0.010000 0.120000
v -0.240000 0.010000 0.080000
v -0.240000 0.010000 0.120000
v -0.240000 -0.010000 0.080000
v -0.240000 -0.010000 0.120000
v -0.200000 -0.012000 0.350000
v -0.200000 -0.012000 0.750000
v -0.212000 0.000000 0.350000
v -0.212000 0.000000 0.750000
v -0.200000 0.012000 0.350000
v -0.200000 0.012000 0.750000
v -0.188000 0.000000 0.350000
v -0.188000 0.000000 0.750000
v -0.140000 -0.006000 0.290000
v -0.140000 -0.006000 0.350000
v -0.145196 0.003000 0.290000
v -0.145196 0.003000 0.350000
v -0.134804 0.003000 0.290000
v -0.134804 0.003000 0.350000
v -0.180000 -0.006000 0.290000
v -0.180000 -0.006000 0.350000
v -0.185196 0.003000 0.290000
v -0.185196 0.003000 0.350000
v -0.174804 0.003000 0.290000
v -0.174804 0.003000 0.350000
v -0.220000 -0.006000 0.290000
v -0.220000 -0.006000 0.350000
v -0.225196 0.003000 0.290000
v -0.225196 0.003000 0.350000
v -0.214804 0.003000 0.290000
v -0.214804 0.003000 0.350000
v -0.260000 -0.006000 0.290000
v -0.260000 -0.006000 0.350000
v -0.265196 0.003000 0.290000
v -0.265196 0.003000 0.350000
v -0.254804 0.003000 0.290000
v -0.254804 0.003000 0.350000
v -0.200000 -0.012000 0.600000
v -0.200000 -0.012000 1.000000
v -0.212000 0.000000 0.600000
v -0.212000 0.000000 1.000000
v -0.200000 0.012000 0.600000
v -0.200000 0.012000 1.000000
v -0.188000 0.000000 0.600000
v -0.188000 0.000000 1.000000
v -0.170000 0.010000 0.540000
v -0.170000 0.010000 0.620000
v -0.170000 -0.010000 0.540000
v -0.170000 -0.010000 0.620000
v -0.230000 0.010000 0.540000
v -0.230000 0.010000 0.620000
v -0.230000 -0.010000 0.540000
v -0.230000 -0.010000 0.620000
vn -0.5000 -0.8660 -0.0000
vn -1.0000 -0.0000 -0.0000
vn -0.5000 0.8660 -0.0000
vn 0.5000 0.8660 -0.0000
vn -0.0000 -0.0000 1.0000
vn 1.0000 -0.0000 -0.0000
vn 0.5000 -0.8660 -0.0000
vn -0.0000 -0.0000 -1.0000
vn -0.0000 -0.7071 -0.7071
vn -0.0000 0.7071 -0.7071
vn -0.0000 0.7071 0.7071
vn -0.0000 -0.7071 0.7071
vn -0.7071 -0.7071 -0.0000
vn -0.7071 0.7071 -0.0000
vn 0.7071 0.7071 -0.0000
vn 0.7071 -0.7071 -0.0000
vn -0.0000 -1.0000 -0.0000
vn -0.0000 1.0000 -0.0000
vn -0.8660 -0.5000 -0.0000
vn 0.8660 -0.5000 -0.0000
vt 1.000000 0.500000
vt 1.000000 1.000000
vt 0.833333 1.000000
vt 0.833333 0.500000
vt 0.666667 1.000000
vt 0.666667 0.500000
vt 0.500000 1.000000
vt 0.500000 0.500000
vt 0.333333 1.000000
vt 0.333333 0.500000
vt 0.457846 0.370000
vt 0.250000 0.490000
vt 0.042154 0.370000
vt 0.042154 0.130000
vt 0.250000 0.010000
vt 0.457846 0.130000
vt 0.166667 1.000000
vt 0.166667 0.500000
vt -0.000000 1.000000
vt -0.000000 0.500000
vt 0.750000 0.490000
vt 0.957846 0.370000
vt 0.957846 0.130000
vt 0.750000 0.010000
vt 0.542154 0.130000
vt 0.542154 0.370000
vt 0.750000 1.000000
vt 0.750000 0.500000
vt 0.500000 1.000000
vt 0.500000 0.500000
vt 0.490000 0.250000
vt 0.010000 0.250000
vt 0.250000 1.000000
vt 0.250000 0.500000
vt 0.000000 1.000000
vt 0.000000 0.500000
vt 0.990000 0.250000
vt 0.510000 0.250000
vt 0.010000 0.250000
vt 0.250000 0.010000
vt 0.750000 0.010000
vt 0.375000 0.000000
vt 0.625000 0.000000
vt 0.625000 0.250000
vt 0.375000 0.250000
vt 0.625000 0.500000
vt 0.375000 0.500000
vt 0.625000 0.750000
vt 0.375000 0.750000
vt 0.625000 1.000000
vt 0.375000 1.000000
vt 0.125000 0.500000
vt 0.125000 0.750000
vt 0.875000 0.500000
vt 0.875000 0.750000
vt 0.333333 1.000000
vt 0.333333 0.500000
vt 0.457846 0.130000
vt 0.042154 0.130000
vt -0.000000 1.000000
vt -0.000000 0.500000
vt 0.957846 0.130000
vt 0.542154 0.130000
s 0
usemtl bark
f 1/1/1 2/2/1 4/3/1 3/4/1
f 3/4/2 4/3/2 6/5/2 5/6/2
f 5/6/3 6/5/3 8/7/3 7/8/3
f 7/8/4 8/7/4 10/9/4 9/10/4
f 4/11/5 2/12/5 12/13/5 10/14/5 8/15/5 6/16/5
f 9/10/6 10/9/6 12/17/6 11/18/6
f 11/18/7 12/17/7 2/19/7 1/20/7
f 1/21/8 3/22/8 5/23/8 7/24/8 9/25/8 11/26/8
f 13/1/9 14/2/9 16/27/9 15/28/9
f 15/28/10 16/27/10 18/29/10 17/30/10
f 16/31/2 14/12/2 20/32/2 18/15/2
f 17/30/11 18/29/11 20/33/11 19/34/11
f 19/34/12 20/33/12 14/35/12 13/36/12
f 13/21/6 15/37/6 17/24/6 19/38/6
f 21/1/9 22/2/9 24/27/9 23/28/9
f 23/28/10 24/27/10 26/29/10 25/30/10
f 24/31/2 22/12/2 28/32/2 26/15/2
f 25/30/11 26/29/11 28/33/11 27/34/11
f 27/34/12 28/33/12 22/35/12 21/36/12
f 21/21/6 23/37/6 25/24/6 27/38/6
f 29/1/9 30/2/9 32/27/9 31/28/9
f 31/28/10 32/27/10 34/29/10 33/30/10
f 32/31/2 30/12/2 36/32/2 34/15/2
f 33/30/11 34/29/11 36/33/11 35/34/11
f 35/34/12 36/33/12 30/35/12 29/36/12
f 29/21/6 31/37/6 33/24/6 35/38/6
f 37/1/13 38/2/13 40/27/13 39/28/13
f 39/28/14 40/27/14 42/29/14 41/30/14
f 40/31/5 38/12/5 44/39/5 42/40/5
f 41/30/15 42/29/15 44/33/15 43/34/15
f 43/34/16 44/33/16 38/35/16 37/36/16
f 37/21/8 39/37/8 41/41/8 43/38/8
f 53/1/13 54/2/13 56/27/13 55/28/13
f 55/28/14 56/27/14 58/29/14 57/30/14
f 56/31/5 54/12/5 60/39/5 58/40/5
f 57/30/15 58/29/15 60/33/15 59/34/15
f 59/34/16 60/33/16 54/35/16 53/36/16
f 53/21/8 55/37/8 57/41/8 59/38/8
f 85/1/13 86/2/13 88/27/13 87/28/13
f 87/28/14 88/27/14 90/29/14 89/30/14
f 88/31/5 86/12/5 92/39/5 90/40/5
f 89/30/15 90/29/15 92/33/15 91/34/15
f 91/34/16 92/33/16 86/35/16 85/36/16
f 85/21/8 87/37/8 89/41/8 91/38/8
usemtl metal
f 45/42/6 46/43/6 48/44/6 47/45/6
f 47/45/17 48/44/17 52/46/17 51/47/17
f 51/47/2 52/46/2 50/48/2 49/49/2
f 49/49/18 50/48/18 46/50/18 45/51/18
f 47/52/8 51/47/8 49/49/8 45/53/8
f 52/46/5 48/54/5 46/55/5 50/48/5
f 61/1/19 62/2/19 64/5/19 63/6/19
f 63/6/18 64/5/18 66/56/18 65/57/18
f 64/58/5 62/12/5 66/59/5
f 65/57/20 66/56/20 62/60/20 61/61/20
f 61/21/8 63/62/8 65/63/8
f 67/1/19 68/2/19 70/5/19 69/6/19
f 69/6/18 70/5/18 72/56/18 71/57/18
f 70/58/5 68/12/5 72/59/5
f 71/57/20 72/56/20 68/60/20 67/61/20
f 67/21/8 69/62/8 71/63/8
f 73/1/19 74/2/19 76/5/19 75/6/19
f 75/6/18 76/5/18 78/56/18 77/57/18
f 76/58/5 74/12/5 78/59/5
f 77/57/20 78/56/20 74/60/20 73/61/20
f 73/21/8 75/62/8 77/63/8
f 79/1/19 80/2/19 82/5/19 81/6/19
f 81/6/18 82/5/18 84/56/18 83/57/18
f 82/58/5 80/12/5 84/59/5
f 83/57/20 84/56/20 80/60/20 79/61/20
f 79/21/8 81/62/8 83/63/8
f 93/42/6 94/43/6 96/44/6 95/45/6
f 95/45/17 96/44/17 100/46/17 99/47/17
f 99/47/2 100/46/2 98/48/2 97/49/2
f 97/49/18 98/48/18 94/50/18 93/51/18
f 95/52/8 99/47/8 97/49/8 93/53/8
f 100/46/5 96/54/5 94/55/5 98/48/5
