# Blender 4.0.2
# www.blender.org
mtllib water_can_stand.mtl
o water_can_stand
v 0.000000 -0.022000 0.000000
v 0.000000 -0.022000 0.800000
v -0.019053 -0.011000 0.000000
v -0.019053 -0.011000 0.800000
v -0.019053 0.011000 0.000000
v -0.019053 0.011000 0.800000
v 0.000000 0.022000 0.000000
v 0.000000 0.022000 0.800000
v 0.019053 0.011000 0.000000
v 0.019053 0.011000 0.800000
v 0.019053 -0.011000 0.000000
v 0.019053 -0.011000 0.800000
v -0.030000 -0.012000 0.550000
v -0.130000 -0.012000 0.550000
v -0.030000 0.000000 0.538000
v -0.130000 0.000000 0.538000
v -0.030000 0.012000 0.550000
v -0.130000 0.012000 0.550000
v -0.030000 0.000000 0.562000
v -0.130000 0.000000 0.562000
v -0.070000 0.050000 0.330000
v -0.070000 0.050000 0.470000
v -0.070000 -0.050000 0.330000
v -0.070000 -0.050000 0.470000
v -0.230000 0.050000 0.330000
v -0.230000 0.050000 0.470000
v -0.230000 -0.050000 0.330000
v -0.230000 -0.050000 0.470000
v -0.183067 -0.015000 0.426706
v -0.356933 -0.015000 0.473294
v -0.186759 -0.004635 0.412927
v -0.360626 -0.004635 0.459514
v -0.185349 0.012135 0.418190
v -0.359215 0.012135 0.464777
v -0.180785 0.012135 0.435223
v -0.354651 0.012135 0.481810
v -0.179374 -0.004635 0.440486
v -0.353241 -0.004635 0.487073
v -0.150000 -0.040000 0.515000
v -0.150000 0.040000 0.515000
v -0.165000 -0.040000 0.500000
v -0.165000 0.040000 0.500000
v -0.150000 -0.040000 0.485000
v -0.150000 0.040000 0.485000
v -0.135000 -0.040000 0.500000
v -0.135000 0.040000 0.500000
vn -0.5000 -0.8660 -0.0000
vn -1.0000 -0.0000 -0.0000
vn -0.5000 0.8660 -0.0000
vn 0.5000 0.8660 -0.0000
vn -0.0000 -0.0000 1.0000
vn 1.0000 -0.0000 -0.0000
vn 0.5000 -0.8660 -0.0000
vn -0.0000 -0.0000 -1.0000
vn -0.0000 -0.7071 -0.7071
vn -0.0000 0.7071 -0.7071
vn -0.0000 0.7071 0.7071
vn -0.0000 -0.7071 0.7071
vn -0.0000 -1.0000 -0.0000
vn -0.0000 1.0000 -0.0000
vn -0.1521 -0.8090 -0.5678
vn -0.2462 0.3090 -0.9187
vn -0.9659 -0.0000 0.2588
vn 0.2462 0.3090 0.9187
vn 0.1521 -0.8090 0.5678
vn 0.9659 -0.0000 -0.2588
vn -0.7071 -0.0000 0.7071
vn -0.7071 -0.0000 -0.7071
vn 0.7071 -0.0000 -0.7071
vn 0.7071 -0.0000 0.7071
vt 1.000000 0.500000
vt 1.000000 1.000000
vt 0.833333 1.000000
vt 0.833333 0.500000
vt 0.666667 1.000000
vt 0.666667 0.500000
vt 0.500000 1.000000
vt 0.500000 0.500000
vt 0.333333 1.000000
vt 0.333333 0.500000
vt 0.457846 0.370000
vt 0.250000 0.490000
vt 0.042154 0.370000
vt 0.042154 0.130000
vt 0.250000 0.010000
vt 0.457846 0.130000
vt 0.166667 1.000000
vt 0.166667 0.500000
vt -0.000000 1.000000
vt -0.000000 0.500000
vt 0.750000 0.490000
vt 0.957846 0.370000
vt 0.957846 0.130000
vt 0.750000 0.010000
vt 0.542154 0.130000
vt 0.542154 0.370000
vt 0.750000 1.000000
vt 0.750000 0.500000
vt 0.500000 1.000000
vt 0.500000 0.500000
vt 0.490000 0.250000
vt 0.010000 0.250000
vt 0.250000 0.010000
vt 0.250000 1.000000
vt 0.250000 0.500000
vt 0.000000 1.000000
vt 0.000000 0.500000
vt 0.990000 0.250000
vt 0.750000 0.010000
vt 0.510000 0.250000
vt 0.375000 0.000000
vt 0.625000 0.000000
vt 0.625000 0.250000
vt 0.375000 0.250000
vt 0.625000 0.500000
vt 0.375000 0.500000
vt 0.625000 0.750000
vt 0.375000 0.750000
vt 0.625000 1.000000
vt 0.375000 1.000000
vt 0.125000 0.500000
vt 0.125000 0.750000
vt 0.875000 0.500000
vt 0.875000 0.750000
vt 0.800000 1.000000
vt 0.800000 0.500000
vt 0.600000 1.000000
vt 0.600000 0.500000
vt 0.400000 1.000000
vt 0.400000 0.500000
vt 0.478254 0.324164
vt 0.021746 0.324164
vt 0.108932 0.055836
vt 0.391068 0.055836
vt 0.200000 1.000000
vt 0.200000 0.500000
vt 0.000000 1.000000
vt 0.000000 0.500000
vt 0.978254 0.324164
vt 0.891068 0.055836
vt 0.608932 0.055836
vt 0.521746 0.324164
vt 0.010000 0.250000
s 0
usemtl bark
f 1/1/1 2/2/1 4/3/1 3/4/1
f 3/4/2 4/3/2 6/5/2 5/6/2
f 5/6/3 6/5/3 8/7/3 7/8/3
f 7/8/4 8/7/4 10/9/4 9/10/4
f 4/11/5 2/12/5 12/13/5 10/14/5 8/15/5 6/16/5
f 9/10/6 10/9/6 12/17/6 11/18/6
f 11/18/7 12/17/7 2/19/7 1/20/7
f 1/21/8 3/22/8 5/23/8 7/24/8 9/25/8 11/26/8
f 13/1/9 14/2/9 16/27/9 15/28/9
f 15/28/10 16/27/10 18/29/10 17/30/10
f 16/31/2 14/12/2 20/32/2 18/33/2
f 17/30/11 18/29/11 20/34/11 19/35/11
f 19/35/12 20/34/12 14/36/12 13/37/12
f 13/21/6 15/38/6 17/39/6 19/40/6
usemtl metal
f 21/41/6 22/42/6 24/43/6 23/44/6
f 23/44/13 24/43/13 28/45/13 27/46/13
f 27/46/2 28/45/2 26/47/2 25/48/2
f 25/48/14 26/47/14 22/49/14 21/50/14
f 23/51/8 27/46/8 25/48/8 21/52/8
f 28/45/5 24/53/5 22/54/5 26/47/5
usemtl metal_dark
f 29/1/15 30/2/15 32/55/15 31/56/15
f 31/56/16 32/55/16 34/57/16 33/58/16
f 33/58/14 34/57/14 36/59/14 35/60/14
f 32/61/17 30/12/17 38/62/17 36/63/17 34/64/17
f 35/60/18 36/59/18 38/65/18 37/66/18
f 37/66/19 38/65/19 30/67/19 29/68/19
f 29/21/20 31/69/20 33/70/20 35/71/20 37/72/20
f 39/1/21 40/2/21 42/27/21 41/28/21
f 41/28/22 42/27/22 44/29/22 43/30/22
f 42/31/14 40/12/14 46/73/14 44/15/14
f 43/30/23 44/29/23 46/34/23 45/35/23
f 45/35/24 46/34/24 40/36/24 39/37/24
f 39/21/13 41/38/13 43/24/13 45/40/13
