# Blender 4.0.2
# www.blender.org
mtllib 1_sapling.mtl
o pineapple_1_sapling
v 0.030000 -0.070000 0.080000
v -0.010000 -0.122500 0.080000
v -0.030000 -0.070000 0.080000
v 0.025000 -0.117500 0.080000
v 0.017500 -0.002500 0.050000
v -0.025000 -0.005000 0.050000
v 0.010000 -0.160000 0.050000
v -0.020000 0.015000 0.072500
v 0.042500 0.045000 0.072500
v 0.020000 0.002500 0.072500
v -0.007500 0.065000 0.072500
v -0.000000 -0.002500 0.050000
v -0.035000 0.067500 0.105000
v 0.002500 0.120000 0.087500
v 0.017500 0.080000 0.097500
v -0.032500 0.112500 0.090000
v -0.027500 0.017500 0.077500
v 0.010000 0.030000 0.070000
v -0.027500 0.142500 0.062500
v -0.000000 -0.002500 0.035000
v -0.055000 0.005000 0.067500
v -0.062500 0.062500 0.065000
v -0.027500 0.052500 0.067500
v -0.080000 0.030000 0.065000
v -0.015000 -0.007500 0.040000
v 0.000000 0.017500 0.040000
v -0.097500 0.065000 0.030000
v 0.045000 0.055000 0.065000
v 0.110000 0.037500 0.067500
v 0.070000 0.012500 0.070000
v 0.087500 0.067500 0.067500
v -0.007500 0.010000 0.035000
v 0.012500 -0.010000 0.035000
v 0.135000 0.072500 0.037500
v 0.080000 0.025000 0.095000
v 0.112500 -0.020000 0.082500
v 0.072500 -0.030000 0.095000
v 0.115000 0.015000 0.082500
v 0.015000 0.012500 0.072500
v 0.010000 -0.022500 0.072500
v 0.142500 -0.010000 0.050000
v 0.055000 -0.022500 0.100000
v 0.050000 -0.090000 0.087500
v 0.015000 -0.062500 0.100000
v 0.077500 -0.062500 0.087500
v 0.015000 0.005000 0.070000
v -0.007500 -0.017500 0.070000
v 0.090000 -0.090000 0.060000
v -0.037500 -0.095000 0.105000
v -0.105000 -0.102500 0.112500
v -0.080000 -0.057500 0.112500
v -0.080000 -0.122500 0.107500
v -0.000000 -0.035000 0.070000
v -0.032500 -0.007500 0.077500
v -0.120000 -0.137500 0.077500
v -0.052500 -0.042500 0.085000
v -0.107500 -0.007500 0.080000
v -0.067500 0.012500 0.085000
v -0.100000 -0.042500 0.080000
v -0.012500 -0.022500 0.062500
v -0.025000 0.017500 0.062500
v -0.152500 -0.037500 0.050000
v 0.000000 0.017500 0.035000
v -0.000000 -0.015000 0.035000
v -0.017500 0.002500 0.035000
v 0.015000 0.002500 0.035000
v 0.000000 0.017500 0.000000
v -0.017500 0.002500 0.000000
v -0.000000 -0.015000 0.000000
v 0.015000 0.002500 0.000000
vn -0.0000 -0.0000 -1.0000
vn 0.0247 -0.4205 -0.9070
vn -0.0000 -0.4061 -0.9138
vn -0.0849 0.5944 -0.7997
vn 0.2692 0.8614 -0.4307
vn -0.0735 -0.2677 -0.9607
vn -0.0000 -0.3162 -0.9487
vn -0.3256 0.4927 -0.8070
vn -0.2292 0.4425 -0.8670
vn 0.0941 -0.6812 -0.7260
vn -0.3598 0.7327 -0.5776
vn 0.0611 -0.0354 -0.9975
vn 0.0648 -0.0349 -0.9973
vn -0.4730 0.2838 -0.8341
vn -0.4830 0.2797 -0.8297
vn 0.6498 -0.3499 -0.6748
vn 0.0080 -0.1122 -0.9937
vn 0.0481 0.0361 -0.9982
vn 0.3720 0.3720 -0.8504
vn 0.4045 0.1315 -0.9050
vn -0.4724 -0.3543 -0.8070
vn -0.3075 0.0419 -0.9506
vn -0.3303 0.0236 -0.9436
vn 0.3333 -0.0476 -0.9416
vn 0.3346 -0.0456 -0.9413
vn -0.7418 0.0530 -0.6685
vn 0.9374 -0.1339 -0.3214
vn -0.1925 0.1925 -0.9623
vn 0.3763 -0.3763 -0.8466
vn -0.4929 0.4929 -0.7170
vn 0.6835 -0.6835 -0.2563
vn -0.1173 0.0652 -0.9909
vn -0.1205 0.0964 -0.9880
vn -0.4034 -0.2356 -0.8841
vn -0.3920 -0.2683 -0.8800
vn 0.3282 0.5939 -0.7346
vn -0.6136 -0.5786 -0.5373
vn 0.1093 0.0298 -0.9936
vn 0.1047 0.0224 -0.9943
vn -0.4503 -0.1407 -0.8817
vn -0.4404 -0.1201 -0.8897
vn 0.5010 0.1073 -0.8588
vn -0.5465 -0.1708 -0.8198
vn 0.6508 -0.7593 -0.0000
vn 0.7071 0.7071 -0.0000
vn -0.7593 0.6508 -0.0000
vn -0.7071 -0.7071 -0.0000
s 0
usemtl rsc_005008
f 1//1 2//1 3//1
f 1//1 4//1 2//1
f 5//2 3//2 6//2
f 5//3 1//3 3//3
f 4//4 7//4 2//4
f 8//1 9//1 10//1
f 8//1 11//1 9//1
f 12//5 8//5 10//5
f 13//6 14//6 15//6
f 13//7 16//7 14//7
f 17//8 15//8 18//8
f 17//9 13//9 15//9
f 16//10 19//10 14//10
f 20//11 17//11 18//11
f 21//12 22//12 23//12
f 21//13 24//13 22//13
f 25//14 23//14 26//14
f 25//15 21//15 23//15
f 24//16 27//16 22//16
f 28//17 29//17 30//17
f 28//18 31//18 29//18
f 32//19 30//19 33//19
f 32//20 28//20 30//20
f 31//21 34//21 29//21
f 35//22 36//22 37//22
f 35//23 38//23 36//23
f 39//24 37//24 40//24
f 39//25 35//25 37//25
f 38//26 41//26 36//26
f 20//27 39//27 40//27
f 42//28 43//28 44//28
f 42//28 45//28 43//28
f 46//29 44//29 47//29
f 46//29 42//29 44//29
f 45//30 48//30 43//30
f 12//31 46//31 47//31
f 49//32 50//32 51//32
f 49//33 52//33 50//33
f 53//34 51//34 54//34
f 53//35 49//35 51//35
f 52//36 55//36 50//36
f 20//37 53//37 54//37
f 56//38 57//38 58//38
f 56//39 59//39 57//39
f 60//40 58//40 61//40
f 60//41 56//41 58//41
f 59//42 62//42 57//42
f 12//43 60//43 61//43
usemtl rsc_904008
f 63//1 64//1 65//1
f 63//1 66//1 64//1
f 67//44 65//44 68//44
f 67//44 63//44 65//44
f 68//45 64//45 69//45
f 68//45 65//45 64//45
f 69//46 66//46 70//46
f 69//46 64//46 66//46
f 70//47 63//47 67//47
f 70//47 66//47 63//47
