# Blender 4.0.2
# www.blender.org
mtllib 2_young.mtl
o pineapple_2_young
v 0.066000 -0.154000 0.176000
v -0.022000 -0.269500 0.176000
v -0.066000 -0.154000 0.176000
v 0.055000 -0.258500 0.176000
v 0.038500 -0.005500 0.110000
v -0.055000 -0.011000 0.110000
v 0.022000 -0.352000 0.110000
v -0.044000 0.033000 0.159500
v 0.093500 0.099000 0.159500
v 0.044000 0.005500 0.159500
v -0.016500 0.143000 0.159500
v -0.000000 -0.005500 0.110000
v -0.077000 0.148500 0.231000
v 0.005500 0.264000 0.192500
v 0.038500 0.176000 0.214500
v -0.071500 0.247500 0.198000
v -0.060500 0.038500 0.170500
v 0.022000 0.066000 0.154000
v -0.060500 0.313500 0.137500
v -0.000000 -0.005500 0.077000
v -0.121000 0.011000 0.148500
v -0.137500 0.137500 0.143000
v -0.060500 0.115500 0.148500
v -0.176000 0.066000 0.143000
v -0.033000 -0.016500 0.088000
v 0.000000 0.038500 0.088000
v -0.214500 0.143000 0.066000
v 0.099000 0.121000 0.143000
v 0.242000 0.082500 0.148500
v 0.154000 0.027500 0.154000
v 0.192500 0.148500 0.148500
v -0.016500 0.022000 0.077000
v 0.027500 -0.022000 0.077000
v 0.297000 0.159500 0.082500
v 0.176000 0.055000 0.209000
v 0.247500 -0.044000 0.181500
v 0.159500 -0.066000 0.209000
v 0.253000 0.033000 0.181500
v 0.033000 0.027500 0.159500
v 0.022000 -0.049500 0.159500
v 0.313500 -0.022000 0.110000
v 0.121000 -0.049500 0.220000
v 0.110000 -0.198000 0.192500
v 0.033000 -0.137500 0.220000
v 0.170500 -0.137500 0.192500
v 0.033000 0.011000 0.154000
v -0.016500 -0.038500 0.154000
v 0.198000 -0.198000 0.132000
v -0.082500 -0.209000 0.231000
v -0.231000 -0.225500 0.247500
v -0.176000 -0.126500 0.247500
v -0.176000 -0.269500 0.236500
v -0.000000 -0.077000 0.154000
v -0.071500 -0.016500 0.170500
v -0.264000 -0.302500 0.170500
v -0.115500 -0.093500 0.187000
v -0.236500 -0.016500 0.176000
v -0.148500 0.027500 0.187000
v -0.220000 -0.093500 0.176000
v -0.027500 -0.049500 0.137500
v -0.055000 0.038500 0.137500
v -0.335500 -0.082500 0.110000
v 0.000000 0.038500 0.077000
v -0.000000 -0.033000 0.077000
v -0.038500 0.005500 0.077000
v 0.033000 0.005500 0.077000
v 0.000000 0.038500 0.000000
v -0.038500 0.005500 0.000000
v -0.000000 -0.033000 0.000000
v 0.033000 0.005500 0.000000
vn -0.0000 -0.0000 -1.0000
vn 0.0247 -0.4205 -0.9070
vn -0.0000 -0.4061 -0.9138
vn -0.0849 0.5944 -0.7997
vn 0.2692 0.8614 -0.4307
vn -0.0735 -0.2677 -0.9607
vn -0.0000 -0.3162 -0.9487
vn -0.3256 0.4927 -0.8070
vn -0.2292 0.4425 -0.8670
vn 0.0941 -0.6812 -0.7260
vn -0.3598 0.7327 -0.5776
vn 0.0611 -0.0354 -0.9975
vn 0.0648 -0.0349 -0.9973
vn -0.4730 0.2838 -0.8341
vn -0.4830 0.2797 -0.8297
vn 0.6498 -0.3499 -0.6748
vn 0.0080 -0.1122 -0.9937
vn 0.0481 0.0361 -0.9982
vn 0.3720 0.3720 -0.8504
vn 0.4045 0.1315 -0.9050
vn -0.4724 -0.3543 -0.8070
vn -0.3075 0.0419 -0.9506
vn -0.3303 0.0236 -0.9436
vn 0.3333 -0.0476 -0.9416
vn 0.3346 -0.0456 -0.9413
vn -0.7418 0.0530 -0.6685
vn 0.9374 -0.1339 -0.3214
vn -0.1924 0.1925 -0.9623
vn -0.1925 0.1925 -0.9623
vn 0.3763 -0.3763 -0.8466
vn -0.4929 0.4929 -0.7170
vn 0.6835 -0.6835 -0.2563
vn -0.1173 0.0652 -0.9909
vn -0.1205 0.0964 -0.9880
vn -0.4034 -0.2356 -0.8841
vn -0.3920 -0.2683 -0.8800
vn 0.3282 0.5939 -0.7346
vn -0.6136 -0.5786 -0.5373
vn 0.1093 0.0298 -0.9936
vn 0.1047 0.0224 -0.9943
vn -0.4503 -0.1407 -0.8817
vn -0.4404 -0.1201 -0.8897
vn 0.5010 0.1073 -0.8588
vn -0.5465 -0.1708 -0.8198
vn 0.6508 -0.7593 -0.0000
vn 0.7071 0.7071 -0.0000
vn -0.7593 0.6508 -0.0000
vn -0.7071 -0.7071 -0.0000
s 0
usemtl rsc_005008
f 1//1 2//1 3//1
f 1//1 4//1 2//1
f 5//2 3//2 6//2
f 5//3 1//3 3//3
f 4//4 7//4 2//4
f 8//1 9//1 10//1
f 8//1 11//1 9//1
f 12//5 8//5 10//5
f 13//6 14//6 15//6
f 13//7 16//7 14//7
f 17//8 15//8 18//8
f 17//9 13//9 15//9
f 16//10 19//10 14//10
f 20//11 17//11 18//11
f 21//12 22//12 23//12
f 21//13 24//13 22//13
f 25//14 23//14 26//14
f 25//15 21//15 23//15
f 24//16 27//16 22//16
f 28//17 29//17 30//17
f 28//18 31//18 29//18
f 32//19 30//19 33//19
f 32//20 28//20 30//20
f 31//21 34//21 29//21
f 35//22 36//22 37//22
f 35//23 38//23 36//23
f 39//24 37//24 40//24
f 39//25 35//25 37//25
f 38//26 41//26 36//26
f 20//27 39//27 40//27
f 42//28 43//28 44//28
f 42//29 45//29 43//29
f 46//30 44//30 47//30
f 46//30 42//30 44//30
f 45//31 48//31 43//31
f 12//32 46//32 47//32
f 49//33 50//33 51//33
f 49//34 52//34 50//34
f 53//35 51//35 54//35
f 53//36 49//36 51//36
f 52//37 55//37 50//37
f 20//38 53//38 54//38
f 56//39 57//39 58//39
f 56//40 59//40 57//40
f 60//41 58//41 61//41
f 60//42 56//42 58//42
f 59//43 62//43 57//43
f 12//44 60//44 61//44
usemtl rsc_904008
f 63//1 64//1 65//1
f 63//1 66//1 64//1
f 67//45 65//45 68//45
f 67//45 63//45 65//45
f 68//46 64//46 69//46
f 68//46 65//46 64//46
f 69//47 66//47 70//47
f 69//47 64//47 66//47
f 70//48 63//48 67//48
f 70//48 66//48 63//48
