# OGRS RSC model extracted from .ob3
# vertices: 70  faces: 58
mtllib 3_mature_empty.mtl

o depletedplant
v 0.12 -0.28 0.32
v -0.04 -0.49 0.32
v -0.12 -0.28 0.32
v 0.1 -0.47000000000000003 0.32
v 0.07 -0.01 0.2
v -0.1 -0.02 0.2
v 0.04 -0.64 0.2
v -0.08 0.06 0.29
v 0.17 0.18 0.29
v 0.08 0.01 0.29
v -0.03 0.26 0.29
v 0.0 -0.01 0.2
v -0.14 0.27 0.42
v 0.01 0.48 0.35000000000000003
v 0.07 0.32 0.39
v -0.13 0.45 0.36
v -0.11 0.07 0.31
v 0.04 0.12 0.28
v -0.11 0.5700000000000001 0.25
v 0.0 -0.01 0.14
v -0.22 0.02 0.27
v -0.25 0.25 0.26
v -0.11 0.21 0.27
v -0.32 0.12 0.26
v -0.06 -0.03 0.16
v 0.0 0.07 0.16
v -0.39 0.26 0.12
v 0.18 0.22 0.26
v 0.44 0.15 0.27
v 0.28 0.05 0.28
v 0.35000000000000003 0.27 0.27
v -0.03 0.04 0.14
v 0.05 -0.04 0.14
v 0.54 0.29 0.15
v 0.32 0.1 0.38
v 0.45 -0.08 0.33
v 0.29 -0.12 0.38
v 0.46 0.06 0.33
v 0.06 0.05 0.29
v 0.04 -0.09 0.29
v 0.5700000000000001 -0.04 0.2
v 0.22 -0.09 0.4
v 0.2 -0.36 0.35000000000000003
v 0.06 -0.25 0.4
v 0.31 -0.25 0.35000000000000003
v 0.06 0.02 0.28
v -0.03 -0.07 0.28
v 0.36 -0.36 0.24
v -0.15 -0.38 0.42
v -0.42 -0.41000000000000003 0.45
v -0.32 -0.23 0.45
v -0.32 -0.49 0.43
v 0.0 -0.14 0.28
v -0.13 -0.03 0.31
v -0.48 -0.55 0.31
v -0.21 -0.17 0.34
v -0.43 -0.03 0.32
v -0.27 0.05 0.34
v -0.4 -0.17 0.32
v -0.05 -0.09 0.25
v -0.1 0.07 0.25
v -0.61 -0.15 0.2
v 0.0 0.07 0.14
v 0.0 -0.06 0.14
v -0.07 0.01 0.14
v 0.06 0.01 0.14
v 0.0 0.07 0.0
v -0.07 0.01 0.0
v 0.0 -0.06 0.0
v 0.06 0.01 0.0

usemtl rsc_005008
f 1 2 3
f 1 4 2
f 5 3 6
f 5 1 3
f 4 7 2
f 8 9 10
f 8 11 9
f 12 8 10
f 13 14 15
f 13 16 14
f 17 15 18
f 17 13 15
f 16 19 14
f 20 17 18
f 21 22 23
f 21 24 22
f 25 23 26
f 25 21 23
f 24 27 22
f 28 29 30
f 28 31 29
f 32 30 33
f 32 28 30
f 31 34 29
f 35 36 37
f 35 38 36
f 39 37 40
f 39 35 37
f 38 41 36
f 20 39 40
f 42 43 44
f 42 45 43
f 46 44 47
f 46 42 44
f 45 48 43
f 12 46 47
f 49 50 51
f 49 52 50
f 53 51 54
f 53 49 51
f 52 55 50
f 20 53 54
f 56 57 58
f 56 59 57
f 60 58 61
f 60 56 58
f 59 62 57
f 12 60 61
usemtl rsc_904008
f 63 64 65
f 63 66 64
f 67 65 68
f 67 63 65
f 68 64 69
f 68 65 64
f 69 66 70
f 69 64 66
f 70 63 67
f 70 66 63
