# Blender 4.0.2
# www.blender.org
mtllib 4_mature_partial.mtl
o pineapple_4_partial
v 0.120000 -0.280000 0.320000
v -0.040000 -0.490000 0.320000
v -0.120000 -0.280000 0.320000
v 0.100000 -0.470000 0.320000
v 0.070000 -0.010000 0.200000
v -0.100000 -0.020000 0.200000
v 0.040000 -0.640000 0.200000
v -0.030000 0.260000 0.290000
v 0.200000 0.370000 0.230000
v 0.170000 0.180000 0.290000
v 0.060000 0.420000 0.230000
v -0.080000 0.060000 0.290000
v 0.080000 0.010000 0.290000
v 0.190000 0.560000 0.100000
v -0.000000 -0.010000 0.200000
v -0.140000 0.270000 0.420000
v 0.010000 0.480000 0.350000
v 0.070000 0.320000 0.390000
v -0.130000 0.450000 0.360000
v -0.110000 0.070000 0.310000
v 0.040000 0.120000 0.280000
v -0.110000 0.570000 0.250000
v -0.000000 -0.010000 0.140000
v -0.220000 0.020000 0.270000
v -0.250000 0.250000 0.260000
v -0.110000 0.210000 0.270000
v -0.320000 0.120000 0.260000
v -0.060000 -0.030000 0.160000
v 0.000000 0.070000 0.160000
v -0.390000 0.260000 0.120000
v 0.180000 0.220000 0.260000
v 0.440000 0.150000 0.270000
v 0.280000 0.050000 0.280000
v 0.350000 0.270000 0.270000
v -0.030000 0.040000 0.140000
v 0.050000 -0.040000 0.140000
v 0.540000 0.290000 0.150000
v 0.320000 0.100000 0.380000
v 0.450000 -0.080000 0.330000
v 0.290000 -0.120000 0.380000
v 0.460000 0.060000 0.330000
v 0.060000 0.050000 0.290000
v 0.040000 -0.090000 0.290000
v 0.570000 -0.040000 0.200000
v 0.220000 -0.090000 0.400000
v 0.200000 -0.360000 0.350000
v 0.060000 -0.250000 0.400000
v 0.310000 -0.250000 0.350000
v 0.060000 0.020000 0.280000
v -0.030000 -0.070000 0.280000
v 0.360000 -0.360000 0.240000
v -0.150000 -0.380000 0.420000
v -0.420000 -0.410000 0.450000
v -0.320000 -0.230000 0.450000
v -0.320000 -0.490000 0.430000
v -0.000000 -0.140000 0.280000
v -0.130000 -0.030000 0.310000
v -0.480000 -0.550000 0.310000
v -0.210000 -0.170000 0.340000
v -0.430000 -0.030000 0.320000
v -0.270000 0.050000 0.340000
v -0.400000 -0.170000 0.320000
v -0.050000 -0.090000 0.250000
v -0.100000 0.070000 0.250000
v -0.610000 -0.150000 0.200000
v 0.000000 0.070000 0.140000
v -0.000000 -0.060000 0.140000
v -0.070000 0.010000 0.140000
v 0.060000 0.010000 0.140000
v 0.000000 0.070000 0.000000
v -0.070000 0.010000 0.000000
v -0.000000 -0.060000 0.000000
v 0.060000 0.010000 0.000000
v 0.020000 0.040000 0.350000
v 0.000000 0.040000 0.350000
v -0.000000 -0.040000 0.350000
v -0.000000 -0.040000 0.370000
v 0.020000 -0.040000 0.370000
v 0.020000 -0.040000 0.350000
v 0.030000 0.020000 0.370000
v 0.030000 -0.000000 0.370000
v 0.010000 0.050000 0.400000
v 0.000000 0.030000 0.370000
v 0.020000 0.030000 0.370000
v -0.000000 -0.010000 0.330000
v 0.020000 -0.010000 0.330000
v 0.020000 0.010000 0.330000
v 0.000000 0.010000 0.330000
v 0.020000 -0.000000 0.330000
v 0.030000 -0.020000 0.350000
v 0.030000 -0.000000 0.350000
v 0.020000 -0.040000 0.390000
v 0.030000 -0.000000 0.390000
v 0.030000 0.020000 0.390000
v 0.030000 -0.020000 0.370000
v 0.030000 -0.020000 0.390000
v 0.050000 -0.010000 0.390000
v 0.030000 0.020000 0.350000
v 0.030000 0.030000 0.390000
v 0.010000 -0.040000 0.390000
v 0.050000 -0.010000 0.370000
v 0.030000 0.030000 0.370000
v 0.010000 0.050000 0.370000
v 0.020000 0.040000 0.390000
v 0.020000 0.040000 0.410000
v 0.000000 0.040000 0.410000
v 0.000000 0.040000 0.390000
v -0.000000 -0.040000 0.410000
v 0.020000 -0.040000 0.410000
v 0.030000 0.020000 0.410000
v 0.030000 -0.000000 0.410000
v 0.010000 0.040000 0.440000
v 0.000000 0.030000 0.410000
v 0.020000 0.030000 0.410000
v -0.000000 -0.030000 0.440000
v 0.020000 -0.030000 0.440000
v 0.030000 -0.000000 0.440000
v 0.030000 0.010000 0.440000
v 0.030000 -0.020000 0.410000
v 0.040000 -0.010000 0.440000
v 0.000000 0.030000 0.440000
v 0.030000 -0.030000 0.420000
v 0.000000 0.020000 0.440000
v 0.010000 -0.020000 0.440000
v 0.030000 -0.020000 0.440000
v 0.020000 -0.000000 0.440000
v 0.020000 0.010000 0.440000
v -0.000000 -0.020000 0.440000
v -0.000000 -0.010000 0.450000
v 0.010000 -0.010000 0.450000
v 0.020000 -0.000000 0.450000
v 0.000000 0.010000 0.450000
v 0.010000 -0.000000 0.450000
v 0.000000 0.010000 0.460000
v 0.010000 -0.000000 0.460000
v 0.010000 -0.010000 0.460000
v -0.000000 -0.010000 0.460000
v -0.000000 -0.020000 0.470000
v 0.020000 -0.020000 0.470000
v -0.000000 -0.050000 0.460000
v 0.020000 -0.050000 0.460000
v -0.000000 -0.080000 0.440000
v 0.030000 -0.030000 0.470000
v 0.030000 -0.000000 0.470000
v 0.030000 0.020000 0.470000
v 0.060000 -0.020000 0.470000
v 0.060000 -0.000000 0.470000
v 0.060000 0.010000 0.470000
v 0.070000 -0.010000 0.460000
v 0.070000 -0.000000 0.460000
v 0.000000 0.020000 0.480000
v 0.030000 0.020000 0.480000
v 0.000000 0.060000 0.490000
v 0.020000 0.060000 0.490000
v 0.000000 0.070000 0.460000
v -0.020000 0.040000 0.350000
v -0.020000 0.040000 0.370000
v -0.020000 -0.040000 0.350000
v -0.020000 -0.040000 0.370000
v -0.030000 0.020000 0.370000
v -0.030000 0.000000 0.370000
v -0.020000 -0.010000 0.330000
v -0.020000 0.010000 0.330000
v -0.020000 0.000000 0.330000
v -0.030000 0.000000 0.350000
v -0.030000 -0.020000 0.350000
v -0.020000 -0.040000 0.390000
v -0.030000 0.020000 0.390000
v -0.030000 0.000000 0.390000
v -0.030000 -0.020000 0.370000
v -0.030000 -0.030000 0.390000
v -0.030000 -0.020000 0.390000
v -0.050000 -0.010000 0.390000
v -0.030000 0.020000 0.350000
v -0.030000 -0.030000 0.370000
v -0.030000 0.030000 0.370000
v -0.010000 0.050000 0.370000
v -0.020000 0.040000 0.390000
v -0.020000 0.040000 0.410000
v -0.020000 -0.040000 0.410000
v -0.030000 0.020000 0.410000
v -0.030000 0.000000 0.410000
v -0.020000 0.030000 0.410000
v -0.020000 -0.030000 0.440000
v -0.030000 0.010000 0.440000
v -0.030000 0.000000 0.440000
v -0.030000 -0.020000 0.410000
v -0.020000 0.030000 0.440000
v -0.030000 -0.010000 0.440000
v -0.030000 0.030000 0.440000
v -0.010000 -0.030000 0.440000
v -0.030000 -0.030000 0.420000
v -0.010000 0.020000 0.440000
v -0.030000 -0.020000 0.440000
v -0.010000 -0.020000 0.440000
v -0.020000 0.000000 0.440000
v -0.020000 0.010000 0.440000
v -0.010000 -0.010000 0.450000
v -0.020000 0.000000 0.450000
v -0.010000 0.010000 0.450000
v -0.010000 0.000000 0.450000
v -0.010000 0.000000 0.460000
v -0.010000 -0.010000 0.460000
v -0.020000 -0.020000 0.470000
v -0.020000 -0.050000 0.460000
v -0.030000 0.000000 0.470000
v -0.030000 -0.030000 0.470000
v -0.030000 0.020000 0.470000
v -0.060000 0.000000 0.470000
v -0.060000 -0.020000 0.470000
v -0.060000 0.010000 0.470000
v -0.070000 0.000000 0.460000
v -0.070000 -0.010000 0.460000
v -0.030000 0.020000 0.480000
v -0.020000 0.060000 0.490000
v 0.070000 -0.090000 0.310000
v 0.070000 -0.090000 0.340000
v 0.080000 -0.080000 0.340000
v 0.080000 -0.070000 0.320000
v 0.010000 -0.050000 0.330000
v 0.020000 -0.050000 0.350000
v 0.010000 -0.060000 0.350000
v 0.010000 -0.060000 0.330000
v 0.050000 -0.100000 0.340000
v 0.030000 -0.090000 0.340000
v 0.090000 -0.090000 0.360000
v 0.040000 -0.060000 0.310000
v 0.030000 -0.070000 0.310000
v 0.040000 -0.080000 0.310000
v 0.050000 -0.060000 0.310000
v 0.030000 -0.080000 0.310000
v 0.020000 -0.080000 0.320000
v 0.030000 -0.090000 0.320000
v 0.020000 -0.050000 0.380000
v 0.010000 -0.060000 0.370000
v 0.040000 -0.090000 0.370000
v 0.050000 -0.100000 0.360000
v 0.020000 -0.090000 0.350000
v 0.070000 -0.090000 0.360000
v 0.020000 -0.090000 0.370000
v 0.020000 -0.100000 0.370000
v 0.050000 -0.100000 0.320000
v 0.080000 -0.080000 0.360000
v 0.070000 -0.110000 0.360000
v 0.010000 -0.050000 0.380000
v 0.010000 -0.050000 0.350000
v 0.060000 -0.110000 0.340000
v 0.040000 -0.110000 0.340000
v 0.080000 -0.090000 0.380000
v 0.080000 -0.080000 0.380000
v 0.020000 -0.050000 0.370000
v 0.020000 -0.050000 0.400000
v 0.010000 -0.070000 0.390000
v 0.050000 -0.100000 0.380000
v 0.040000 -0.100000 0.390000
v 0.090000 -0.090000 0.410000
v 0.030000 -0.060000 0.420000
v 0.020000 -0.070000 0.420000
v 0.040000 -0.100000 0.410000
v 0.050000 -0.100000 0.410000
v 0.020000 -0.090000 0.390000
v 0.070000 -0.090000 0.410000
v 0.030000 -0.090000 0.410000
v 0.030000 -0.100000 0.410000
v 0.010000 -0.080000 0.400000
v 0.010000 -0.060000 0.400000
v 0.070000 -0.110000 0.380000
v 0.030000 -0.070000 0.420000
v 0.030000 -0.090000 0.420000
v 0.040000 -0.090000 0.420000
v 0.050000 -0.100000 0.420000
v 0.040000 -0.060000 0.430000
v 0.040000 -0.070000 0.430000
v 0.040000 -0.080000 0.430000
v 0.050000 -0.080000 0.420000
v 0.060000 -0.080000 0.420000
v 0.060000 -0.070000 0.420000
v 0.060000 -0.070000 0.430000
v 0.060000 -0.080000 0.430000
v 0.060000 -0.080000 0.440000
v 0.060000 -0.070000 0.440000
v 0.050000 -0.070000 0.430000
v 0.050000 -0.080000 0.430000
v 0.050000 -0.080000 0.440000
v 0.040000 -0.070000 0.440000
v 0.050000 -0.070000 0.440000
v 0.030000 -0.060000 0.450000
v 0.020000 -0.080000 0.450000
v 0.010000 -0.050000 0.450000
v -0.000000 -0.060000 0.450000
v -0.020000 -0.040000 0.440000
v 0.020000 -0.090000 0.450000
v 0.040000 -0.100000 0.450000
v 0.070000 -0.110000 0.440000
v 0.020000 -0.110000 0.450000
v 0.030000 -0.120000 0.440000
v 0.050000 -0.130000 0.440000
v 0.020000 -0.130000 0.430000
v 0.020000 -0.140000 0.430000
v 0.020000 -0.140000 0.420000
v 0.070000 -0.080000 0.450000
v 0.060000 -0.100000 0.450000
v 0.110000 -0.100000 0.450000
v 0.100000 -0.120000 0.450000
v 0.120000 -0.100000 0.420000
v 0.080000 -0.060000 0.320000
v 0.090000 -0.060000 0.340000
v 0.020000 -0.030000 0.330000
v 0.020000 -0.030000 0.350000
v 0.080000 -0.040000 0.340000
v 0.060000 -0.030000 0.350000
v 0.080000 -0.030000 0.370000
v 0.050000 -0.040000 0.310000
v 0.060000 -0.050000 0.310000
v 0.060000 -0.030000 0.330000
v 0.040000 -0.020000 0.330000
v 0.020000 -0.040000 0.380000
v 0.080000 -0.040000 0.370000
v 0.060000 -0.030000 0.370000
v 0.050000 -0.030000 0.350000
v 0.040000 -0.030000 0.350000
v 0.090000 -0.060000 0.360000
v 0.050000 -0.030000 0.370000
v 0.080000 -0.040000 0.320000
v 0.060000 -0.020000 0.350000
v 0.090000 -0.050000 0.340000
v 0.080000 -0.020000 0.350000
v 0.090000 -0.070000 0.380000
v 0.030000 -0.040000 0.400000
v 0.080000 -0.040000 0.390000
v 0.060000 -0.040000 0.390000
v 0.080000 -0.030000 0.420000
v 0.030000 -0.040000 0.420000
v 0.080000 -0.050000 0.410000
v 0.070000 -0.040000 0.390000
v 0.050000 -0.030000 0.390000
v 0.040000 -0.030000 0.420000
v 0.090000 -0.060000 0.410000
v 0.060000 -0.030000 0.420000
v 0.090000 -0.050000 0.410000
v 0.030000 -0.030000 0.400000
v 0.060000 -0.020000 0.400000
v 0.100000 -0.050000 0.380000
v 0.080000 -0.030000 0.390000
v 0.080000 -0.070000 0.420000
v 0.050000 -0.040000 0.420000
v 0.040000 -0.050000 0.420000
v 0.060000 -0.050000 0.420000
v 0.070000 -0.050000 0.420000
v 0.050000 -0.060000 0.430000
v 0.060000 -0.050000 0.430000
v 0.050000 -0.050000 0.430000
v 0.070000 -0.060000 0.420000
v 0.060000 -0.060000 0.430000
v 0.060000 -0.060000 0.440000
v 0.050000 -0.060000 0.440000
v 0.040000 -0.040000 0.450000
v 0.010000 -0.030000 0.450000
v 0.070000 -0.040000 0.450000
v 0.040000 -0.030000 0.450000
v 0.090000 -0.060000 0.440000
v 0.080000 -0.020000 0.450000
v 0.060000 -0.010000 0.450000
v 0.090000 -0.030000 0.450000
v 0.080000 -0.000000 0.440000
v 0.090000 -0.000000 0.440000
v 0.080000 -0.060000 0.450000
v 0.120000 -0.070000 0.450000
v 0.130000 -0.100000 0.420000
v -0.020000 0.070000 0.300000
v -0.030000 0.080000 0.320000
v -0.040000 0.080000 0.320000
v -0.040000 0.080000 0.300000
v -0.060000 0.010000 0.310000
v -0.060000 0.010000 0.330000
v -0.040000 0.010000 0.330000
v -0.040000 0.010000 0.310000
v -0.010000 0.050000 0.330000
v -0.010000 0.050000 0.360000
v -0.020000 0.040000 0.330000
v -0.030000 0.090000 0.340000
v -0.050000 0.030000 0.290000
v -0.030000 0.040000 0.290000
v -0.050000 0.050000 0.290000
v -0.020000 0.020000 0.310000
v -0.060000 0.010000 0.350000
v -0.050000 0.010000 0.360000
v -0.020000 0.060000 0.350000
v -0.030000 0.080000 0.340000
v -0.010000 0.050000 0.300000
v -0.040000 0.080000 0.340000
v -0.010000 0.070000 0.350000
v -0.030000 0.010000 0.340000
v -0.050000 0.000000 0.330000
v -0.010000 0.070000 0.320000
v -0.030000 0.090000 0.320000
v -0.030000 0.080000 0.360000
v -0.050000 0.080000 0.360000
v -0.060000 0.020000 0.370000
v -0.050000 0.010000 0.380000
v -0.050000 0.010000 0.350000
v -0.020000 0.060000 0.370000
v -0.060000 0.030000 0.390000
v -0.050000 0.020000 0.400000
v -0.030000 0.050000 0.400000
v -0.030000 0.030000 0.380000
v -0.030000 0.080000 0.390000
v -0.020000 0.040000 0.400000
v -0.050000 0.080000 0.390000
v -0.020000 0.070000 0.390000
v -0.060000 0.020000 0.400000
v -0.060000 0.010000 0.380000
v -0.010000 0.080000 0.370000
v -0.040000 0.100000 0.360000
v -0.040000 0.070000 0.400000
v -0.050000 0.030000 0.400000
v -0.040000 0.030000 0.400000
v -0.030000 0.060000 0.400000
v -0.060000 0.030000 0.400000
v -0.060000 0.040000 0.400000
v -0.050000 0.040000 0.410000
v -0.050000 0.050000 0.410000
v -0.040000 0.050000 0.410000
v -0.050000 0.060000 0.400000
v -0.060000 0.060000 0.400000
v -0.040000 0.060000 0.410000
v -0.060000 0.040000 0.410000
v -0.060000 0.060000 0.410000
v -0.050000 0.060000 0.410000
v -0.060000 0.070000 0.410000
v -0.050000 0.050000 0.420000
v -0.060000 0.040000 0.420000
v -0.060000 0.050000 0.420000
v -0.050000 0.060000 0.420000
v -0.070000 0.030000 0.430000
v -0.040000 0.030000 0.430000
v -0.070000 0.010000 0.420000
v -0.060000 0.000000 0.430000
v -0.080000 -0.020000 0.410000
v -0.070000 -0.020000 0.410000
v -0.040000 0.020000 0.440000
v -0.030000 0.050000 0.430000
v -0.030000 0.080000 0.430000
v -0.010000 0.030000 0.440000
v -0.010000 0.040000 0.430000
v 0.000000 0.060000 0.430000
v 0.010000 0.030000 0.420000
v 0.010000 0.040000 0.420000
v -0.060000 0.080000 0.430000
v -0.030000 0.070000 0.430000
v -0.050000 0.110000 0.430000
v -0.030000 0.110000 0.430000
v -0.040000 0.130000 0.400000
v -0.050000 0.080000 0.290000
v -0.060000 0.080000 0.310000
v -0.070000 0.010000 0.300000
v -0.070000 0.020000 0.330000
v -0.080000 0.070000 0.310000
v -0.080000 0.050000 0.320000
v -0.070000 0.040000 0.290000
v -0.060000 0.050000 0.280000
v -0.070000 0.050000 0.290000
v -0.080000 0.050000 0.290000
v -0.080000 0.030000 0.300000
v -0.080000 0.020000 0.350000
v -0.080000 0.070000 0.340000
v -0.080000 0.060000 0.340000
v -0.090000 0.040000 0.320000
v -0.060000 0.090000 0.340000
v -0.090000 0.040000 0.340000
v -0.070000 0.050000 0.280000
v -0.080000 0.070000 0.290000
v -0.070000 0.010000 0.350000
v -0.090000 0.020000 0.330000
v -0.070000 0.090000 0.310000
v -0.050000 0.100000 0.320000
v -0.060000 0.090000 0.360000
v -0.080000 0.020000 0.370000
v -0.080000 0.080000 0.360000
v -0.090000 0.060000 0.360000
v -0.080000 0.030000 0.390000
v -0.080000 0.070000 0.380000
v -0.090000 0.060000 0.380000
v -0.090000 0.040000 0.360000
v -0.070000 0.080000 0.380000
v -0.090000 0.050000 0.390000
v -0.080000 0.070000 0.330000
v -0.080000 0.090000 0.380000
v -0.100000 0.050000 0.360000
v -0.100000 0.070000 0.360000
v -0.050000 0.100000 0.360000
v -0.060000 0.080000 0.390000
v -0.070000 0.040000 0.400000
v -0.080000 0.060000 0.390000
v -0.080000 0.070000 0.390000
v -0.070000 0.050000 0.400000
v -0.070000 0.060000 0.400000
v -0.060000 0.070000 0.400000
v -0.060000 0.050000 0.410000
v -0.070000 0.060000 0.410000
v -0.070000 0.050000 0.410000
v -0.070000 0.050000 0.420000
v -0.090000 0.040000 0.420000
v -0.090000 0.010000 0.420000
v -0.090000 0.060000 0.420000
v -0.080000 0.090000 0.410000
v -0.110000 0.070000 0.410000
v -0.120000 0.050000 0.420000
v -0.110000 0.090000 0.410000
v -0.130000 0.070000 0.390000
v -0.080000 0.080000 0.430000
v -0.070000 0.120000 0.430000
v 0.050000 0.100000 0.280000
v 0.050000 0.100000 0.300000
v 0.040000 0.100000 0.310000
v 0.030000 0.100000 0.280000
v 0.060000 0.030000 0.280000
v 0.060000 0.030000 0.300000
v 0.080000 0.040000 0.300000
v 0.070000 0.040000 0.270000
v 0.070000 0.090000 0.290000
v 0.090000 0.090000 0.310000
v 0.080000 0.080000 0.290000
v 0.040000 0.120000 0.330000
v 0.060000 0.060000 0.260000
v 0.060000 0.080000 0.260000
v 0.040000 0.070000 0.270000
v 0.060000 0.070000 0.260000
v 0.080000 0.060000 0.270000
v 0.080000 0.080000 0.270000
v 0.070000 0.030000 0.320000
v 0.080000 0.040000 0.320000
v 0.080000 0.080000 0.320000
v 0.090000 0.060000 0.290000
v 0.090000 0.040000 0.320000
v 0.060000 0.100000 0.320000
v 0.090000 0.060000 0.310000
v 0.100000 0.070000 0.310000
v 0.070000 0.090000 0.270000
v 0.040000 0.100000 0.330000
v 0.070000 0.030000 0.300000
v 0.060000 0.110000 0.320000
v 0.060000 0.110000 0.340000
v 0.050000 0.100000 0.350000
v 0.060000 0.030000 0.320000
v 0.070000 0.030000 0.340000
v 0.080000 0.040000 0.340000
v 0.080000 0.090000 0.340000
v 0.090000 0.080000 0.340000
v 0.060000 0.110000 0.370000
v 0.070000 0.040000 0.370000
v 0.090000 0.050000 0.360000
v 0.090000 0.080000 0.360000
v 0.090000 0.090000 0.360000
v 0.080000 0.080000 0.310000
v 0.090000 0.060000 0.330000
v 0.070000 0.100000 0.370000
v 0.090000 0.060000 0.360000
v 0.050000 0.090000 0.370000
v 0.080000 0.090000 0.310000
v 0.080000 0.040000 0.360000
v 0.080000 0.030000 0.340000
v 0.080000 0.110000 0.340000
v 0.100000 0.090000 0.330000
v 0.050000 0.120000 0.350000
v 0.070000 0.090000 0.370000
v 0.060000 0.090000 0.380000
v 0.080000 0.050000 0.370000
v 0.090000 0.060000 0.370000
v 0.090000 0.080000 0.370000
v 0.080000 0.090000 0.370000
v 0.070000 0.050000 0.370000
v 0.070000 0.060000 0.380000
v 0.080000 0.060000 0.380000
v 0.080000 0.070000 0.380000
v 0.070000 0.080000 0.380000
v 0.060000 0.080000 0.380000
v 0.080000 0.080000 0.380000
v 0.070000 0.060000 0.390000
v 0.060000 0.080000 0.390000
v 0.070000 0.080000 0.390000
v 0.070000 0.070000 0.380000
v 0.070000 0.070000 0.390000
v 0.080000 0.070000 0.390000
v 0.080000 0.050000 0.400000
v 0.100000 0.050000 0.390000
v 0.080000 0.020000 0.390000
v 0.100000 0.020000 0.390000
v 0.090000 -0.010000 0.370000
v 0.090000 -0.000000 0.370000
v 0.100000 0.080000 0.390000
v 0.090000 0.100000 0.400000
v 0.120000 0.070000 0.380000
v 0.120000 0.090000 0.380000
v 0.110000 0.100000 0.390000
v 0.140000 0.090000 0.360000
v 0.130000 0.090000 0.360000
v 0.060000 0.090000 0.410000
v 0.090000 0.090000 0.400000
v 0.050000 0.120000 0.420000
v 0.070000 0.130000 0.410000
v 0.040000 0.140000 0.400000
v 0.050000 0.140000 0.400000
v 0.020000 0.090000 0.290000
v 0.020000 0.090000 0.310000
v 0.040000 0.030000 0.280000
v 0.050000 0.030000 0.310000
v 0.010000 0.070000 0.320000
v 0.020000 0.060000 0.310000
v 0.010000 0.060000 0.340000
v 0.030000 0.110000 0.330000
v 0.020000 0.070000 0.280000
v 0.010000 0.060000 0.290000
v 0.020000 0.040000 0.290000
v 0.050000 0.030000 0.330000
v 0.020000 0.070000 0.340000
v 0.020000 0.060000 0.340000
v 0.020000 0.040000 0.310000
v 0.030000 0.040000 0.310000
v 0.040000 0.030000 0.330000
v 0.030000 0.090000 0.330000
v 0.030000 0.040000 0.340000
v 0.020000 0.040000 0.340000
v 0.010000 0.070000 0.290000
v 0.060000 0.020000 0.330000
v 0.010000 0.090000 0.320000
v 0.000000 0.060000 0.320000
v 0.030000 0.110000 0.310000
v 0.030000 0.100000 0.330000
v 0.030000 0.100000 0.350000
v 0.050000 0.030000 0.350000
v 0.020000 0.070000 0.360000
v 0.030000 0.060000 0.360000
v 0.020000 0.060000 0.380000
v 0.040000 0.100000 0.380000
v 0.060000 0.040000 0.370000
v 0.030000 0.070000 0.380000
v 0.030000 0.060000 0.380000
v 0.030000 0.040000 0.330000
v 0.020000 0.060000 0.330000
v 0.030000 0.040000 0.360000
v 0.040000 0.090000 0.380000
v 0.040000 0.040000 0.380000
v 0.020000 0.040000 0.360000
v 0.010000 0.060000 0.360000
v 0.050000 0.080000 0.380000
v 0.040000 0.050000 0.380000
v 0.060000 0.040000 0.380000
v 0.040000 0.060000 0.380000
v 0.040000 0.070000 0.380000
v 0.060000 0.050000 0.380000
v 0.050000 0.060000 0.390000
v 0.050000 0.070000 0.390000
v 0.060000 0.080000 0.400000
v 0.060000 0.060000 0.400000
v 0.060000 0.070000 0.400000
v 0.050000 0.040000 0.410000
v 0.070000 0.010000 0.400000
v 0.040000 0.060000 0.410000
v 0.050000 0.030000 0.410000
v 0.030000 0.080000 0.410000
v 0.020000 0.050000 0.420000
v 0.020000 0.030000 0.420000
v 0.010000 0.070000 0.420000
v 0.040000 0.080000 0.420000
v 0.030000 0.110000 0.430000
v -0.060000 -0.080000 0.250000
v -0.070000 -0.080000 0.270000
v -0.050000 -0.090000 0.280000
v -0.050000 -0.080000 0.260000
v -0.040000 -0.010000 0.280000
v -0.040000 -0.020000 0.300000
v -0.060000 -0.020000 0.290000
v -0.060000 -0.010000 0.270000
v -0.080000 -0.060000 0.280000
v -0.100000 -0.060000 0.300000
v -0.080000 -0.050000 0.280000
v -0.070000 -0.100000 0.300000
v -0.040000 -0.040000 0.260000
v -0.060000 -0.040000 0.250000
v -0.060000 -0.050000 0.250000
v -0.040000 -0.050000 0.250000
v -0.080000 -0.030000 0.260000
v -0.080000 -0.040000 0.260000
v -0.050000 -0.020000 0.320000
v -0.060000 -0.020000 0.320000
v -0.060000 -0.010000 0.290000
v -0.080000 -0.050000 0.300000
v -0.090000 -0.070000 0.300000
v -0.080000 -0.030000 0.290000
v -0.080000 -0.020000 0.310000
v -0.070000 -0.090000 0.300000
v -0.080000 -0.030000 0.310000
v -0.080000 -0.060000 0.250000
v -0.060000 -0.090000 0.300000
v -0.090000 -0.080000 0.290000
v -0.060000 -0.010000 0.320000
v -0.100000 -0.050000 0.280000
v -0.060000 -0.100000 0.280000
v -0.070000 -0.090000 0.290000
v -0.080000 -0.090000 0.320000
v -0.060000 -0.090000 0.320000
v -0.050000 -0.020000 0.340000
v -0.070000 -0.020000 0.340000
v -0.060000 -0.020000 0.310000
v -0.090000 -0.070000 0.320000
v -0.090000 -0.050000 0.320000
v -0.070000 -0.100000 0.340000
v -0.070000 -0.030000 0.360000
v -0.090000 -0.060000 0.350000
v -0.090000 -0.070000 0.340000
v -0.090000 -0.030000 0.330000
v -0.080000 -0.030000 0.360000
v -0.080000 -0.090000 0.340000
v -0.060000 -0.090000 0.350000
v -0.080000 -0.020000 0.330000
v -0.060000 -0.010000 0.340000
v -0.090000 -0.090000 0.310000
v -0.060000 -0.080000 0.350000
v -0.080000 -0.060000 0.350000
v -0.090000 -0.070000 0.350000
v -0.060000 -0.050000 0.370000
v -0.070000 -0.050000 0.370000
v -0.070000 -0.050000 0.360000
v -0.080000 -0.060000 0.360000
v -0.070000 -0.070000 0.360000
v -0.060000 -0.070000 0.360000
v -0.060000 -0.070000 0.370000
v -0.070000 -0.070000 0.370000
v -0.070000 -0.060000 0.370000
v -0.070000 -0.060000 0.380000
v -0.070000 -0.050000 0.380000
v -0.060000 -0.050000 0.380000
v -0.060000 -0.040000 0.390000
v -0.090000 -0.040000 0.380000
v -0.060000 -0.010000 0.390000
v -0.070000 -0.010000 0.390000
v -0.090000 -0.030000 0.390000
v -0.090000 -0.060000 0.380000
v -0.100000 -0.090000 0.370000
v -0.120000 -0.040000 0.380000
v -0.120000 -0.060000 0.370000
v -0.120000 -0.070000 0.370000
v -0.130000 -0.040000 0.360000
v -0.130000 -0.050000 0.350000
v -0.070000 -0.080000 0.390000
v -0.090000 -0.080000 0.380000
v -0.070000 -0.120000 0.390000
v -0.100000 -0.120000 0.380000
v -0.070000 -0.140000 0.360000
v -0.080000 -0.140000 0.360000
v -0.040000 -0.090000 0.280000
v -0.030000 -0.020000 0.280000
v -0.030000 -0.020000 0.300000
v -0.020000 -0.070000 0.290000
v -0.020000 -0.060000 0.300000
v -0.050000 -0.100000 0.300000
v -0.030000 -0.040000 0.260000
v -0.030000 -0.060000 0.260000
v -0.020000 -0.050000 0.260000
v -0.010000 -0.050000 0.270000
v -0.010000 -0.040000 0.280000
v -0.030000 -0.020000 0.320000
v -0.020000 -0.080000 0.310000
v -0.020000 -0.060000 0.320000
v -0.010000 -0.040000 0.300000
v -0.040000 -0.090000 0.300000
v -0.020000 -0.040000 0.320000
v -0.010000 -0.050000 0.320000
v -0.020000 -0.090000 0.310000
v -0.020000 -0.020000 0.310000
v -0.040000 -0.010000 0.300000
v -0.040000 -0.090000 0.320000
v -0.040000 -0.030000 0.340000
v -0.030000 -0.080000 0.330000
v -0.020000 -0.060000 0.340000
v -0.020000 -0.070000 0.360000
v -0.030000 -0.070000 0.360000
v -0.020000 -0.050000 0.340000
v -0.050000 -0.090000 0.350000
v -0.030000 -0.050000 0.360000
v -0.020000 -0.030000 0.350000
v -0.040000 -0.020000 0.340000
v -0.060000 -0.110000 0.320000
v -0.050000 -0.080000 0.360000
v -0.030000 -0.050000 0.370000
v -0.050000 -0.040000 0.370000
v -0.050000 -0.050000 0.370000
v -0.050000 -0.060000 0.370000
v -0.050000 -0.070000 0.370000
v -0.060000 -0.070000 0.380000
v -0.050000 -0.060000 0.380000
v -0.040000 -0.050000 0.400000
v -0.040000 -0.020000 0.400000
v -0.040000 -0.070000 0.390000
v -0.030000 -0.040000 0.400000
v -0.040000 -0.090000 0.390000
v -0.010000 -0.070000 0.400000
v -0.010000 -0.060000 0.400000
v -0.010000 -0.090000 0.390000
v 0.010000 -0.080000 0.390000
v -0.040000 -0.090000 0.400000
v -0.050000 -0.130000 0.390000
vn -0.0000 -0.0000 -1.0000
vn 0.0247 -0.4205 -0.9070
vn -0.0000 -0.4061 -0.9138
vn -0.0849 0.5944 -0.7997
vn -0.1132 -0.2829 -0.9524
vn -0.1059 -0.2964 -0.9492
vn -0.2001 -0.5604 -0.8037
vn 0.2692 0.8614 -0.4307
vn -0.0735 -0.2677 -0.9607
vn -0.0000 -0.3162 -0.9487
vn -0.3256 0.4927 -0.8070
vn -0.2292 0.4425 -0.8670
vn 0.0941 -0.6812 -0.7260
vn -0.3598 0.7327 -0.5776
vn 0.0611 -0.0354 -0.9975
vn 0.0648 -0.0349 -0.9973
vn -0.4730 0.2838 -0.8341
vn -0.4830 0.2797 -0.8297
vn 0.6498 -0.3499 -0.6748
vn 0.0080 -0.1122 -0.9937
vn 0.0481 0.0361 -0.9982
vn 0.3720 0.3720 -0.8504
vn 0.4045 0.1315 -0.9050
vn -0.4724 -0.3543 -0.8070
vn -0.3075 0.0419 -0.9506
vn -0.3303 0.0236 -0.9436
vn 0.3333 -0.0476 -0.9416
vn 0.3346 -0.0456 -0.9413
vn -0.7418 0.0530 -0.6685
vn 0.9374 -0.1339 -0.3214
vn -0.1925 0.1925 -0.9623
vn 0.3763 -0.3763 -0.8466
vn -0.4929 0.4929 -0.7170
vn 0.6835 -0.6835 -0.2563
vn -0.1173 0.0652 -0.9909
vn -0.1205 0.0964 -0.9880
vn -0.4034 -0.2356 -0.8841
vn -0.3920 -0.2683 -0.8800
vn 0.3282 0.5939 -0.7346
vn -0.6136 -0.5786 -0.5373
vn 0.1093 0.0298 -0.9936
vn 0.1047 0.0224 -0.9943
vn -0.4503 -0.1407 -0.8817
vn -0.4404 -0.1201 -0.8897
vn 0.5010 0.1073 -0.8588
vn -0.5465 -0.1708 -0.8198
vn 0.6508 -0.7593 -0.0000
vn 0.7071 0.7071 -0.0000
vn -0.7593 0.6508 -0.0000
vn -0.7071 -0.7071 -0.0000
vn -0.0000 -0.8321 0.5547
vn -0.0000 0.5547 0.8321
vn -1.0000 -0.0000 -0.0000
vn 0.7071 -0.0000 -0.7071
vn 0.3841 0.7682 -0.5121
vn 0.6667 0.6667 -0.3333
vn -0.8018 0.2673 0.5345
vn -0.0000 1.0000 -0.0000
vn 0.8729 0.4364 -0.2182
vn -0.0000 -0.8944 0.4472
vn -0.0000 -1.0000 -0.0000
vn -0.0000 -0.9487 0.3162
vn -0.0000 0.9487 -0.3162
vn 0.9487 -0.0000 -0.3162
vn -0.8944 -0.4472 -0.0000
vn -0.8944 0.4472 -0.0000
vn 0.8847 -0.4423 -0.1474
vn -0.8944 -0.0000 0.4472
vn -0.0000 -0.0000 1.0000
vn -0.0000 0.7071 -0.7071
vn 0.2306 0.0923 -0.9687
vn 0.1543 -0.7715 -0.6172
vn 0.3015 -0.3015 0.9045
vn 0.4472 -0.0000 0.8944
vn -0.1596 -0.2394 0.9577
vn -0.2592 -0.1728 0.9503
vn -0.4423 0.1474 0.8847
vn 1.0000 -0.0000 -0.0000
vn -0.8729 -0.4364 -0.2182
vn -0.7071 -0.0000 -0.7071
vn 0.8944 0.4472 -0.0000
vn 0.8018 -0.2673 0.5345
vn 0.8944 -0.4472 -0.0000
vn -0.8729 0.4364 -0.2182
vn -0.6882 0.6882 -0.2294
vn -0.8847 -0.4423 -0.1474
vn -0.0000 -0.7071 -0.7071
vn 0.6667 -0.3333 -0.6667
vn -0.7071 -0.0000 0.7071
vn -0.1690 0.5071 0.8452
vn -0.4472 -0.0000 0.8944
vn -0.5774 -0.5773 0.5774
vn 0.1455 0.8001 -0.5819
vn 0.3710 -0.0464 -0.9275
vn -0.5774 0.5774 0.5773
vn 0.5071 0.8452 0.1690
vn -0.4082 -0.8165 -0.4082
vn 0.1474 -0.8847 -0.4423
vn -0.7071 0.7071 -0.0000
vn 0.4472 0.8944 -0.0000
vn 0.9487 0.3162 -0.0000
vn 0.2673 0.5345 0.8018
vn -0.4472 0.8944 -0.0000
vn 0.3333 -0.6667 -0.6667
vn 0.7071 -0.0000 0.7071
vn 0.6882 -0.6882 0.2294
vn 0.1690 -0.8452 -0.5071
vn -0.3714 -0.7428 -0.5571
vn -0.9487 -0.0000 0.3162
vn 0.8165 -0.4082 -0.4082
vn -0.3707 0.9267 -0.0618
vn -0.4364 -0.8729 -0.2182
vn 0.9245 0.3698 0.0924
vn -0.9283 -0.3094 -0.2063
vn 0.7071 -0.7071 -0.0000
vn 0.4082 0.8165 -0.4082
vn -0.3652 0.1826 -0.9129
vn -0.8890 -0.2540 0.3810
vn 0.4082 0.8165 0.4082
vn -0.9045 0.3015 0.3015
vn 0.3015 0.9045 -0.3015
vn -0.3123 0.1562 0.9370
vn -0.4472 -0.8944 -0.0000
vn -0.3123 -0.9370 -0.1562
vn 0.1482 -0.9636 -0.2224
vn -0.3714 -0.7428 0.5571
vn 0.8944 -0.0000 -0.4472
vn 0.1374 0.8242 -0.5494
vn 0.9045 -0.3015 -0.3015
vn -0.5071 0.8452 -0.1690
vn 0.6882 0.6882 -0.2294
vn -0.9364 -0.3405 -0.0851
vn 0.8890 0.3810 -0.2540
vn -0.3094 0.9283 -0.2063
vn 0.5773 0.5774 -0.5774
vn 0.2981 -0.5963 0.7454
vn -0.5571 -0.3714 -0.7428
vn -0.2403 -0.3605 0.9013
vn 0.1907 -0.4767 0.8581
vn -0.0000 -0.3162 0.9487
vn -0.0000 0.4472 0.8944
vn 0.8165 0.4082 -0.4082
vn -0.3651 -0.1826 0.9129
vn 0.4423 -0.8847 -0.1474
vn -0.0000 0.8944 0.4472
vn 0.5071 0.8452 -0.1690
vn 0.8018 0.5345 -0.2673
vn 0.9129 0.3651 -0.1826
vn -0.5947 0.7930 -0.1322
vn 0.8242 0.1374 -0.5494
vn -0.0000 -0.7071 0.7071
vn 0.5774 0.5773 -0.5773
vn -0.4082 0.4082 -0.8165
vn -0.4083 0.4082 -0.8165
vn 0.2182 -0.4364 -0.8729
vn -0.2417 -0.0806 0.9670
vn -0.0000 -0.4472 -0.8944
vn -0.1961 -0.5883 0.7845
vn -0.1054 0.5270 0.8433
vn 0.9428 -0.2357 0.2357
vn 0.8242 -0.5494 0.1374
vn 0.6667 0.3333 0.6667
vn 0.3698 -0.9245 0.0924
vn 0.5345 0.2673 0.8018
vn 0.6667 0.6667 0.3333
vn -0.8165 -0.4082 -0.4082
vn -0.2481 0.7442 -0.6202
vn -0.4851 -0.7276 0.4851
vn 0.2357 0.9428 -0.2357
vn -0.0000 0.8944 -0.4472
vn -0.4082 0.8165 -0.4082
vn -0.7428 0.3714 -0.5571
vn -0.7276 -0.4851 -0.4851
vn 0.5345 -0.8018 -0.2673
vn 0.5773 -0.5774 -0.5774
vn 0.4472 -0.0000 -0.8944
vn -0.4924 0.1231 -0.8616
vn -0.7276 0.4851 -0.4851
vn 0.3651 0.1826 0.9129
vn 0.3581 0.0716 0.9309
vn -0.5270 0.8433 0.1054
vn 0.5774 0.5774 -0.5773
vn 0.5773 -0.5774 0.5774
vn -0.9428 -0.2357 0.2357
vn 0.7428 -0.5571 -0.3714
vn 0.7428 0.3714 -0.5571
vn -0.4364 -0.2182 0.8729
vn -0.5345 0.8018 0.2673
vn 0.4924 -0.8616 -0.1231
vn -0.5883 0.7845 -0.1961
vn -0.8729 -0.4364 0.2182
vn -0.5866 -0.8066 0.0733
vn -0.9300 0.3487 0.1162
vn -0.4082 0.8165 0.4082
vn 0.4851 0.7276 -0.4851
vn 0.5657 -0.7071 0.4243
vn -0.4082 -0.4082 -0.8165
vn -0.6667 0.3333 -0.6667
vn -0.6667 -0.3333 -0.6667
vn 0.3906 0.1302 0.9113
vn 0.4423 0.1474 0.8847
vn 0.7715 -0.1543 0.6172
vn 0.4924 -0.1231 0.8616
vn -0.4082 -0.8165 0.4082
vn 0.5270 -0.8433 -0.1054
vn -0.8018 -0.5345 -0.2673
vn 0.3714 -0.7428 0.5571
vn 0.5883 -0.1961 0.7845
vn 0.8452 0.5071 -0.1690
vn -0.8571 -0.4286 -0.2857
vn -0.0000 0.7071 0.7071
vn 0.5494 -0.8242 -0.1374
vn 0.3581 0.9309 -0.0716
vn 0.3015 0.9045 0.3015
vn -0.8571 0.4286 -0.2857
vn -0.9487 -0.0000 -0.3162
vn 0.7845 -0.5883 0.1961
vn -0.6667 -0.6667 -0.3333
vn -0.1162 0.9300 -0.3487
vn 0.9428 0.2357 -0.2357
vn -0.1162 -0.9300 -0.3487
vn 0.9487 -0.3162 -0.0000
vn -0.9045 0.3015 -0.3015
vn -0.0000 0.4472 -0.8944
vn -0.3862 0.0966 -0.9173
vn -0.1231 0.8616 -0.4924
vn 0.8165 0.4082 0.4082
vn 0.2182 -0.8729 -0.4364
vn 0.1374 0.8242 0.5494
vn -0.3094 0.2063 0.9283
vn -0.2357 -0.9428 -0.2357
vn 0.9370 -0.3123 0.1562
vn -0.6667 0.6667 -0.3333
vn 0.7877 0.5013 0.3581
vn 0.2357 0.9428 0.2357
vn -0.7454 0.2981 -0.5963
vn -0.4851 0.7276 0.4851
vn -0.5071 0.8452 0.1690
vn 0.8085 0.5659 0.1617
vn -0.0000 -0.8944 -0.4472
vn -0.3015 -0.9045 0.3015
vn 0.4815 -0.2408 0.8427
vn 0.8165 -0.4082 0.4082
vn -0.2981 -0.5963 0.7454
vn -0.5774 -0.5773 0.5773
vn -0.9300 0.3487 -0.1162
vn -0.9428 0.2357 -0.2357
vn 0.8729 -0.4364 -0.2182
vn 0.1302 -0.3906 0.9113
vn 0.7276 -0.4851 -0.4851
vn -0.5774 -0.5774 0.5773
vn -0.3015 -0.9045 -0.3015
vn 0.9129 -0.3651 -0.1826
vn -0.8944 -0.0000 -0.4472
vn -0.9117 0.3419 -0.2279
vn -0.4924 0.8616 -0.1231
vn 0.8847 0.4423 -0.1474
vn 0.4083 0.4082 -0.8165
vn 0.2394 -0.1596 0.9577
vn 0.2673 0.8018 0.5345
vn -0.3586 -0.7171 -0.5976
vn -0.0000 -0.5547 0.8321
vn -0.0000 0.2425 -0.9701
vn -0.0000 -0.9487 -0.3162
vn 0.4082 -0.4082 0.8165
vn -0.2357 0.2357 0.9428
vn 0.2822 0.1881 0.9407
vn 0.1361 -0.2722 0.9526
vn 0.0733 -0.2933 0.9532
vn -0.2673 -0.5345 0.8018
vn 0.6882 -0.2294 -0.6882
vn 0.1826 0.3651 0.9129
vn 0.4423 -0.1474 0.8847
vn -0.0924 -0.3698 0.9245
vn -0.3162 -0.0000 0.9487
vn 0.1078 -0.2157 0.9705
vn -0.0000 -0.4472 0.8944
vn 0.2182 0.4364 0.8729
vn 0.1961 0.5883 0.7845
vn -0.2621 -0.0874 0.9611
vn -0.5345 -0.2673 0.8018
vn 0.5345 -0.2673 -0.8018
vn 0.5571 0.3714 0.7428
vn -0.4082 0.4082 0.8165
vn 0.3714 0.7428 -0.5571
vn 0.4364 -0.2182 0.8729
vn -0.1474 0.4423 0.8847
vn -0.2822 -0.1881 0.9407
vn -0.0000 -0.8321 -0.5547
vn -0.0874 0.2621 0.9611
vn -0.1483 0.2224 0.9636
vn -0.5774 0.5773 0.5773
s 0
usemtl rsc_005008
f 1//1 2//1 3//1
f 1//1 4//1 2//1
f 5//2 3//2 6//2
f 5//3 1//3 3//3
f 4//4 7//4 2//4
f 8//5 9//5 10//5
f 8//6 11//6 9//6
f 12//1 10//1 13//1
f 12//1 8//1 10//1
f 11//7 14//7 9//7
f 15//8 12//8 13//8
f 16//9 17//9 18//9
f 16//10 19//10 17//10
f 20//11 18//11 21//11
f 20//12 16//12 18//12
f 19//13 22//13 17//13
f 23//14 20//14 21//14
f 24//15 25//15 26//15
f 24//16 27//16 25//16
f 28//17 26//17 29//17
f 28//18 24//18 26//18
f 27//19 30//19 25//19
f 31//20 32//20 33//20
f 31//21 34//21 32//21
f 35//22 33//22 36//22
f 35//23 31//23 33//23
f 34//24 37//24 32//24
f 38//25 39//25 40//25
f 38//26 41//26 39//26
f 42//27 40//27 43//27
f 42//28 38//28 40//28
f 41//29 44//29 39//29
f 23//30 42//30 43//30
f 45//31 46//31 47//31
f 45//31 48//31 46//31
f 49//32 47//32 50//32
f 49//32 45//32 47//32
f 48//33 51//33 46//33
f 15//34 49//34 50//34
f 52//35 53//35 54//35
f 52//36 55//36 53//36
f 56//37 54//37 57//37
f 56//38 52//38 54//38
f 55//39 58//39 53//39
f 23//40 56//40 57//40
f 59//41 60//41 61//41
f 59//42 62//42 60//42
f 63//43 61//43 64//43
f 63//44 59//44 61//44
f 62//45 65//45 60//45
f 15//46 63//46 64//46
usemtl rsc_904008
f 66//1 67//1 68//1
f 66//1 69//1 67//1
f 70//47 68//47 71//47
f 70//47 66//47 68//47
f 71//48 67//48 72//48
f 71//48 68//48 67//48
f 72//49 69//49 73//49
f 72//49 67//49 69//49
f 73//50 66//50 70//50
f 73//50 69//50 66//50
usemtl rsc_b88838
f 82//51 83//51 84//51
f 85//52 76//52 79//52 86//52
f 81//53 93//53 94//53 80//53
f 90//53 95//53 81//53 91//53
f 81//54 97//54 95//54
f 91//53 81//53 80//53 98//53
f 99//56 80//56 84//56
f 86//57 79//57 90//57 89//57
f 100//58 78//58 77//58
f 91//54 101//54 90//54
f 102//59 98//59 74//59
f 103//60 75//60 74//60
f 104//61 105//61 106//61 107//61
f 112//62 113//62 114//62
f 108//63 115//63 116//63 109//63
f 111//64 120//64 119//64
f 104//65 94//65 110//65 105//65
f 92//66 109//66 119//66 96//66
f 96//67 122//67 92//67
f 89//68 91//68 98//68
f 118//1 117//1 126//1 127//1
f 86//69 89//69 87//69 88//69 85//69
f 124//70 130//70 125//70
f 131//1 130//1 133//1
f 132//50 133//50 135//50 134//50
f 85//52 162//52 158//52 76//52
f 161//78 160//78 168//78 169//78
f 166//78 165//78 161//78 170//78
f 170//79 159//79 171//79
f 161//80 170//80 173//80
f 159//81 170//81 172//81 167//81
f 163//82 156//82 174//82 164//82
f 156//83 157//83 160//83 174//83
f 166//79 158//79 175//79
f 176//84 156//84 174//84
f 177//60 156//60 75//60
f 108//63 180//63 184//63 115//63
f 187//78 182//78 186//78 189//78
f 183//61 113//61 121//61 188//61
f 178//83 179//83 181//83 168//83
f 190//85 183//85 181//85
f 191//63 108//63 180//63
f 172//86 167//86 192//86
f 184//1 195//1 128//1 115//1
f 185//1 197//1 196//1 186//1
f 164//69 162//69 85//69 88//69 163//69
f 123//87 132//87 200//87 193//87
f 193//88 200//88 201//88 197//88
f 194//70 198//70 195//70
f 201//1 198//1 199//1
f 132//1 201//1 200//1
f 203//1 202//1 134//1 137//1
f 198//58 203//58 137//58 129//58
f 226//95 218//95 217//95
f 232//96 238//96 225//96 233//96
f 238//58 240//58 236//58 225//58
f 225//97 241//97 238//97
f 217//99 239//99 243//99 218//99
f 233//100 225//100 224//100 242//100
f 222//101 235//101 240//101 238//101
f 229//102 233//102 242//102
f 216//103 242//103 224//103 217//103
f 244//104 224//104 217//104
f 228//105 223//105 232//105 231//105
f 245//106 222//106 221//106
f 246//78 223//78 220//78
f 247//107 242//107 216//107
f 242//108 248//108 233//108
f 256//109 250//109 249//109
f 252//110 257//110 258//110 253//110
f 249//111 254//111 260//111 262//111
f 255//112 264//112 261//112
f 235//113 253//113 261//113 240//113
f 240//114 265//114 235//114
f 266//115 235//115 251//115
f 267//104 237//104 239//104
f 228//69 231//69 229//69 230//69 227//69
f 259//116 263//116 269//116 270//116
f 269//54 268//54 273//54 274//54
f 262//117 271//117 275//117 276//117
f 257//1 268//1 258//1
f 275//1 271//1 270//1
f 278//53 279//53 280//53 281//53
f 275//70 274//70 282//70 283//70
f 277//53 276//53 279//53 278//53
f 283//58 284//58 280//58
f 282//119 273//119 285//119 284//119
f 306//120 219//120 218//120 307//120
f 310//121 311//121 312//121
f 314//122 230//122 219//122 306//122
f 221//78 309//78 317//78 234//78
f 311//123 310//123 318//123 319//123
f 316//124 315//124 311//124 320//124
f 307//66 218//66 243//66 322//66
f 309//125 321//125 323//125 317//125
f 313//126 315//126 316//126
f 315//116 316//116 325//116
f 326//127 306//127 324//127
f 324//128 315//128 327//128
f 330//63 331//63 332//63
f 252//129 329//129 333//129 257//129
f 323//124 319//124 335//124 336//124
f 336//130 329//130 337//130
f 328//65 338//65 334//65 330//65
f 331//131 336//131 339//131
f 319//124 318//124 330//124 335//124
f 322//132 328//132 330//132 318//132
f 340//133 328//133 330//133
f 333//115 252//115 329//115
f 323//134 78//134 341//134
f 319//63 323//63 342//63
f 343//135 322//135 318//135
f 318//116 319//116 344//116
f 313//136 316//136 308//136
f 338//137 345//137 349//137 334//137
f 347//104 350//104 272//104 257//104
f 348//97 351//97 352//97 346//97
f 346//88 352//88 350//88 347//88
f 351//1 354//1 350//1 352//1
f 277//99 278//99 353//99
f 374//58 375//58 376//58 377//58
f 378//115 379//115 380//115
f 381//60 372//60 371//60
f 375//58 386//58 387//58 376//58
f 371//61 389//61 391//61 372//61
f 392//142 378//142 371//142
f 383//143 390//143 370//143
f 385//144 393//144 377//144
f 394//145 377//145 374//145
f 395//142 390//142 370//142
f 396//126 373//126 370//126
f 389//61 397//61 398//61 391//61
f 386//146 399//146 400//146 401//146
f 399//147 403//147 404//147 400//147
f 157//115 408//115 406//115
f 397//61 407//61 409//61 398//61
f 410//148 402//148 397//148
f 401//149 400//149 406//149 174//149
f 411//48 400//48 399//48
f 412//58 401//58 386//58
f 413//150 388//150 389//150
f 414//151 391//151 389//151
f 404//152 403//152 419//152 416//152
f 405//153 417//153 422//153 423//153
f 417//154 416//154 421//154 422//154
f 409//155 415//155 424//155 425//155
f 415//87 418//87 426//87 424//87
f 420//58 427//58 421//58
f 430//69 428//69 429//69
f 425//61 424//61 429//61 428//61
f 426//1 423//1 422//1 429//1
f 432//157 433//157 430//157 429//157 434//157 431//157
f 433//78 432//78 427//78
f 422//99 427//99 432//99 431//99
f 454//61 373//61 372//61 455//61
f 382//159 460//159 456//159 374//159
f 459//78 458//78 466//78 467//78
f 464//160 463//160 459//160 468//160
f 468//161 459//161 467//161 470//161
f 462//162 471//162 472//162 463//162
f 454//163 455//163 458//163 472//163
f 460//164 464//164 456//164
f 473//165 375//165 457//165
f 464//166 456//166 474//166
f 475//167 454//167 472//167
f 476//168 454//168 373//168
f 386//169 465//169 478//169 399//169
f 399//170 478//170 481//170 403//170
f 484//78 480//78 483//78 486//78
f 467//160 487//160 479//160 480//160
f 488//171 477//171 479//171
f 467//172 470//172 489//172
f 487//173 467//173 490//173
f 491//126 469//126 391//126
f 382//141 384//141 461//141 471//141 462//141 460//141
f 485//174 492//174 495//174 482//174
f 483//175 494//175 486//175
f 486//176 496//176 493//176
f 495//54 497//54 494//54
f 498//1 425//1 497//1
f 517//181 518//181 519//181 520//181
f 521//182 522//182 523//182
f 524//183 515//183 514//183
f 501//58 502//58 499//58
f 529//184 534//184 523//184 530//184
f 534//185 535//185 519//185
f 534//65 537//65 533//65 523//65
f 523//186 538//186 534//186
f 528//187 530//187 539//187 526//187
f 514//61 536//61 540//61 515//61
f 519//66 532//66 537//66 534//66
f 513//123 539//123 521//123 514//123
f 525//77 520//77 529//77 528//77
f 541//188 520//188 517//188
f 542//189 543//189 544//189 540//189
f 550//115 544//115 543//115
f 546//190 551//190 552//190 547//190
f 549//191 553//191 554//191 548//191
f 543//192 548//192 554//192 557//192
f 547//193 552//193 558//193 556//193
f 542//50 560//50 548//50 543//50
f 561//99 547//99 546//99
f 562//194 532//194 545//194
f 563//195 560//195 542//195
f 560//54 564//54 555//54
f 565//196 540//196 542//196
f 557//197 554//197 571//197 566//197
f 568//70 572//70 573//70 574//70
f 569//198 568//198 574//198 575//198
f 566//87 571//87 578//87 576//87
f 571//199 570//199 575//199 578//199
f 581//1 583//1 584//1 579//1 580//1
f 582//204 574//204 584//204 583//204
f 574//171 573//171 579//171 584//171
f 604//205 516//205 515//205 605//205
f 517//58 606//58 607//58 518//58
f 608//206 609//206 610//206
f 611//207 605//207 515//207
f 612//208 527//208 516//208 604//208
f 518//58 607//58 615//58 531//58
f 609//209 608//209 616//209 617//209
f 619//112 607//112 620//112
f 609//210 619//210 623//210
f 605//212 515//212 540//212 621//212
f 607//100 619//100 622//100 615//100
f 606//213 614//213 618//213 607//213
f 625//214 518//214 607//214
f 626//215 604//215 624//215
f 624//216 613//216 627//216
f 628//217 604//217 516//217
f 632//218 633//218 634//218
f 635//61 630//61 544//61
f 546//219 631//219 636//219 551//219
f 633//59 632//59 637//59 638//59
f 641//220 633//220 638//220 643//220
f 630//221 544//221 559//221 642//221
f 640//209 616//209 632//209 633//209
f 629//222 630//222 632//222 616//222
f 640//210 639//210 644//210
f 616//223 640//223 645//223
f 559//87 567//87 646//87 642//87
f 637//1 650//1 649//1 638//1
f 647//224 652//224 651//224 648//224
f 567//157 577//157 653//157 646//157
f 646//175 653//175 650//175
f 671//228 672//228 673//228 674//228
f 675//80 676//80 677//80
f 678//229 669//229 668//229
f 681//230 667//230 670//230 682//230
f 672//231 685//231 686//231 687//231
f 677//232 688//232 689//232 675//232
f 690//233 691//233 687//233
f 668//234 675//234 689//234 692//234
f 690//78 693//78 688//78 677//78
f 668//235 692//235 695//235 669//235
f 684//78 677//78 675//78 694//78
f 683//74 684//74 680//74
f 696//80 675//80 668//80
f 694//69 667//69 681//69
f 697//123 687//123 672//123
f 694//236 698//236 684//236
f 699//237 670//237 667//237
f 708//145 702//145 701//145
f 707//78 710//78 711//78 706//78
f 712//238 713//238 704//238
f 701//81 706//81 711//81 714//81
f 701//58 714//58 715//58 702//58
f 700//239 689//239 706//239 701//239
f 709//240 704//240 703//240
f 693//171 716//171 705//171
f 717//241 705//241 685//241
f 718//199 689//199 700//199
f 711//54 710//54 720//54 721//54
f 724//54 723//54 722//54 730//54
f 725//48 729//48 726//48
f 730//243 722//243 732//243 731//243
f 757//145 752//145 669//145
f 679//244 758//244 753//244 671//244
f 760//245 761//245 762//245
f 756//53 755//53 764//53 765//53
f 762//246 761//246 756//246 766//246
f 766//247 756//247 765//247 768//247
f 756//248 766//248 769//248
f 752//58 669//58 695//58 767//58
f 770//250 752//250 755//250
f 758//251 760//251 762//251 753//251
f 753//50 762//50 766//50 754//50
f 762//131 753//131 771//131
f 772//50 671//50 753//50
f 685//252 763//252 774//252 703//252
f 775//253 776//253 777//253
f 779//254 776//254 778//254 781//254
f 773//58 702//58 715//58 780//58
f 765//255 764//255 775//255 776//255
f 767//256 773//256 775//256 764//256
f 768//257 763//257 782//257
f 783//61 685//61 763//61
f 784//211 767//211 695//211
f 715//258 719//258 785//258 780//258
f 759//143 760//143 758//143 679//143 682//143
f 786//1 789//1 788//1 787//1
f 727//58 728//58 790//58
usemtl rsc_306020
f 750//55 748//55 803//55
f 802//71 803//71 748//71 746//71
f 791//72 802//72 746//72 728//72
f 800//73 801//73 253//73 798//73
f 799//74 798//74 253//74
f 797//75 800//75 798//75 795//75
f 795//76 798//76 799//76 796//76
f 791//77 797//77 795//77 792//77
f 792//89 795//89 796//89
f 736//90 794//90 400//90
f 793//91 794//91 736//91 734//91
f 733//92 793//92 734//92
f 749//93 748//93 750//93 751//93
f 747//94 746//94 748//94 749//94
f 729//98 728//98 746//98 747//98
f 743//68 742//68 745//68
f 742//118 741//118 744//118 745//118
f 740//76 739//76 742//76 743//76
f 739//138 738//138 741//138 742//138
f 729//139 731//139 739//139 740//139
f 731//140 738//140 739//140
f 737//141 736//141 400//141
f 735//156 734//156 736//156 737//156
f 732//158 733//158 734//158 735//158
f 602//87 600//87 666//87
f 665//177 666//177 600//177 598//177
f 654//178 665//178 598//178 580//178
f 661//179 664//179 662//179 659//179
f 659//180 662//180 663//180 660//180
f 656//200 661//200 659//200 655//200
f 655//201 659//201 660//201
f 587//202 658//202 589//202
f 657//203 658//203 587//203 585//203
f 579//211 657//211 585//211
f 601//87 600//87 602//87 603//87
f 599//225 598//225 600//225 601//225
f 581//226 580//226 598//226 599//226
f 595//227 594//227 597//227
f 594//162 593//162 596//162 597//162
f 592//242 591//242 594//242 595//242
f 591//74 586//74 593//74 594//74
f 591//249 592//249 583//249
f 583//69 584//69 586//69 591//69
f 588//136 587//136 589//136 590//136
f 586//259 585//259 587//259 588//259
f 579//260 585//260 586//260
f 453//261 451//261 512//261
f 511//1 512//1 451//1 449//1
f 137//211 138//211 139//211
f 139//140 138//140 140//140 141//140
f 511//170 449//170 430//170
f 135//91 136//91 143//91 144//91
f 141//262 140//262 142//262
f 144//69 143//69 146//69 147//69
f 145//69 144//69 147//69 148//69
f 147//105 146//105 149//105 150//105
f 135//91 144//91 145//91
f 148//105 147//105 150//105
f 152//263 151//263 153//263 154//263
f 134//170 151//170 152//170
f 154//264 153//264 155//264
f 204//140 205//140 140//140 138//140
f 204//211 138//211 137//211
f 202//74 206//74 207//74 203//74
f 142//262 140//262 205//262
f 206//69 209//69 210//69 207//69
f 208//69 211//69 209//69 206//69
f 209//89 212//89 213//89 210//89
f 208//74 206//74 202//74
f 212//89 209//89 211//89
f 214//263 215//263 153//263 151//263
f 214//170 151//170 134//170
f 285//265 286//265 287//265 288//265
f 288//69 287//69 289//69 290//69
f 155//264 153//264 215//264
f 291//266 290//266 289//266
f 280//267 284//267 293//267 294//267
f 293//268 292//268 295//268 296//268
f 294//269 293//269 296//269 297//269
f 296//270 295//270 298//270 299//270
f 297//151 296//151 299//151 300//151
f 280//271 281//271 301//271 302//271
f 302//1 301//1 303//1 304//1
f 292//272 293//272 284//272
f 356//273 357//273 287//273 286//273
f 357//69 358//69 289//69 287//69
f 304//215 303//215 305//215
f 355//274 359//274 360//274 356//274
f 291//275 289//275 358//275
f 359//69 362//69 363//69 360//69
f 361//276 364//276 362//276 359//276
f 361//277 359//277 355//277
f 364//272 366//272 365//272 362//272
f 365//278 363//278 362//278
f 367//1 368//1 303//1 301//1
f 368//178 369//178 305//178 303//178
f 432//279 433//279 435//279 436//279
f 436//280 435//280 437//280 438//280
f 438//281 437//281 439//281 440//281
f 281//282 367//282 301//282
f 434//91 431//91 442//91 443//91
f 442//141 441//141 444//141 445//141
f 443//69 442//69 445//69 446//69
f 445//283 444//283 447//283 448//283
f 431//284 441//284 442//284
f 429//285 430//285 449//285 450//285
f 450//1 449//1 451//1 452//1
f 448//286 446//286 445//286
f 502//287 503//287 435//287 433//287
f 503//288 504//288 437//288 435//288
f 453//289 452//289 451//289
f 500//74 505//74 503//74 501//74
f 439//140 437//140 504//140
f 505//290 507//290 508//290 503//290
f 506//291 509//291 507//291 505//291
f 506//201 505//201 500//201
f 510//292 508//292 507//292
f 510//89 507//89 509//89
