# Blender 4.0.2
# www.blender.org
mtllib 4_mature_partial.mtl
o lemon_4_partial
v -0.010000 0.000000 1.930000
v 0.140000 -0.140000 0.220000
v 0.180000 -0.000000 0.220000
v 0.140000 0.140000 0.220000
v 0.000000 0.180000 0.210000
v -0.140000 0.140000 0.210000
v -0.180000 0.000000 0.210000
v -0.000000 -0.180000 0.210000
v -0.140000 -0.140000 0.210000
v -0.010000 0.800000 1.820000
v -0.010000 0.700000 1.460000
v 0.460000 0.470000 1.460000
v 0.530000 0.540000 1.820000
v -0.550000 0.540000 1.810000
v -0.480000 0.470000 1.460000
v -0.810000 0.000000 1.810000
v -0.710000 0.000000 1.460000
v 0.530000 -0.540000 1.820000
v 0.460000 -0.470000 1.460000
v -0.010000 -0.690000 1.460000
v -0.010000 -0.800000 1.820000
v 0.790000 -0.000000 1.820000
v 0.690000 -0.000000 1.460000
v -0.480000 -0.470000 1.460000
v -0.550000 -0.540000 1.810000
v -0.010000 0.670000 2.210000
v -0.010000 0.890000 1.780000
v 0.610000 0.620000 1.780000
v 0.450000 0.470000 2.210000
v -0.480000 0.470000 2.210000
v -0.630000 0.620000 1.780000
v -0.480000 -0.470000 2.210000
v -0.630000 -0.620000 1.780000
v -0.900000 0.000000 1.780000
v -0.680000 0.000000 2.210000
v 0.890000 -0.000000 1.790000
v 0.650000 -0.000000 2.210000
v -0.010000 -0.670000 2.210000
v -0.010000 -0.890000 1.780000
v 0.450000 -0.470000 2.210000
v 0.610000 -0.620000 1.780000
v -0.010000 0.800000 2.160000
v -0.010000 0.000000 2.480000
v -0.550000 0.540000 2.160000
v -0.810000 0.000000 2.160000
v 0.790000 -0.000000 2.160000
v 0.530000 0.540000 2.160000
v -0.550000 -0.540000 2.160000
v -0.010000 -0.800000 2.160000
v 0.530000 -0.540000 2.160000
v -0.430000 0.430000 0.000000
v -0.240000 0.140000 0.000000
v -0.170000 0.160000 0.160000
v -0.140000 0.240000 0.000000
v -0.000000 -0.290000 0.000000
v -0.210000 -0.210000 0.000000
v -0.210000 0.210000 0.000000
v 0.000000 0.290000 0.000000
v -0.290000 0.000000 0.000000
v 0.210000 0.210000 0.000000
v 0.290000 -0.000000 0.000000
v 0.210000 -0.210000 0.000000
v 0.360000 0.110000 0.040000
v 0.210000 -0.000000 0.140000
v 0.320000 -0.000000 0.180000
v 0.250000 0.110000 0.000000
v 0.250000 -0.110000 0.000000
v 0.360000 -0.110000 0.040000
v 0.430000 -0.000000 0.110000
v 0.430000 0.110000 0.000000
v 0.430000 -0.110000 0.000000
v 0.500000 -0.000000 0.040000
v 0.640000 -0.000000 0.000000
v -0.250000 -0.110000 0.000000
v -0.250000 -0.250000 0.030000
v -0.110000 -0.250000 0.000000
v -0.430000 -0.430000 0.000000
v 0.680000 -0.240000 1.430000
v 0.720000 -0.230000 1.410000
v 0.690000 -0.210000 1.430000
v 0.710000 -0.260000 1.410000
v 0.420000 0.030000 1.260000
v 0.050000 -0.060000 1.140000
v 0.420000 -0.030000 1.260000
v 0.050000 0.060000 1.140000
v 0.050000 -0.060000 1.030000
v 0.480000 -0.030000 1.200000
v 0.480000 0.030000 1.200000
v 0.050000 0.060000 1.030000
v 0.500000 -0.000000 1.280000
v 0.540000 -0.000000 1.230000
v 0.500000 0.110000 1.300000
v 0.540000 0.080000 1.300000
v 0.520000 0.110000 1.250000
v 0.540000 0.080000 1.230000
v -0.490000 0.270000 1.540000
v -0.470000 0.250000 1.560000
v -0.470000 0.270000 1.560000
v -0.490000 0.250000 1.540000
v -0.010000 0.060000 1.280000
v -0.240000 0.210000 1.390000
v -0.070000 0.010000 1.280000
v -0.210000 0.240000 1.390000
v -0.260000 0.240000 1.340000
v -0.070000 0.010000 1.170000
v -0.010000 0.060000 1.170000
v -0.230000 0.260000 1.340000
v -0.260000 0.260000 1.420000
v -0.280000 0.290000 1.370000
v -0.230000 0.310000 1.430000
v -0.200000 0.310000 1.430000
v -0.210000 0.320000 1.380000
v -0.230000 0.310000 1.370000
v -0.840000 -0.020000 1.670000
v -0.820000 0.000000 1.700000
v -0.830000 -0.040000 1.690000
v -0.800000 -0.080000 1.690000
v -0.820000 -0.070000 1.690000
v -0.790000 -0.050000 1.720000
v -0.780000 -0.060000 1.720000
v -0.820000 -0.060000 1.690000
v -0.810000 -0.040000 1.720000
v -0.770000 -0.080000 1.660000
v -0.780000 -0.080000 1.680000
v -0.760000 -0.070000 1.710000
v -0.750000 -0.060000 1.690000
v -0.780000 0.020000 1.640000
v -0.800000 0.020000 1.660000
v -0.820000 -0.010000 1.640000
v -0.800000 -0.010000 1.630000
v -0.760000 0.000000 1.640000
v -0.780000 -0.020000 1.620000
v -0.770000 -0.040000 1.630000
v -0.740000 -0.020000 1.650000
v -0.820000 0.010000 1.680000
v -0.840000 -0.020000 1.660000
v -0.830000 -0.010000 1.650000
v -0.740000 -0.040000 1.660000
v -0.760000 -0.060000 1.640000
v -0.770000 -0.070000 1.650000
v -0.740000 -0.050000 1.680000
v -0.770000 0.010000 1.640000
v -0.790000 -0.020000 1.620000
v -0.810000 -0.070000 1.660000
v -0.820000 -0.060000 1.660000
v -0.830000 -0.040000 1.650000
v -0.830000 -0.050000 1.660000
v -0.830000 -0.040000 1.660000
v -0.800000 -0.040000 1.630000
v -0.790000 -0.050000 1.630000
v -0.820000 -0.030000 1.640000
v -0.790000 -0.060000 1.640000
v -0.810000 -0.040000 1.630000
v -0.800000 0.020000 1.720000
v -0.800000 0.000000 1.730000
v -0.760000 -0.040000 1.730000
v -0.730000 -0.040000 1.710000
v -0.750000 -0.040000 1.720000
v -0.760000 0.030000 1.670000
v -0.780000 0.030000 1.680000
v -0.730000 0.000000 1.680000
v -0.740000 0.020000 1.670000
v -0.790000 0.030000 1.700000
v -0.800000 0.030000 1.710000
v -0.730000 -0.030000 1.700000
v -0.730000 -0.020000 1.690000
v -0.750000 0.030000 1.670000
v -0.750000 -0.010000 1.720000
v -0.740000 -0.010000 1.710000
v -0.760000 0.000000 1.730000
v -0.750000 -0.010000 1.730000
v -0.770000 0.020000 1.710000
v -0.770000 0.020000 1.720000
v -0.770000 0.010000 1.730000
v -0.740000 0.010000 1.700000
v -0.740000 0.020000 1.700000
v -0.760000 0.030000 1.700000
v -0.750000 0.020000 1.700000
v -0.740000 0.000000 1.710000
v -0.730000 0.000000 1.700000
v -0.280000 -0.150000 2.430000
v -0.240000 -0.140000 2.440000
v -0.280000 -0.210000 2.410000
v -0.280000 -0.200000 2.430000
v -0.240000 -0.210000 2.430000
v -0.240000 -0.220000 2.410000
v -0.280000 -0.190000 2.430000
v -0.240000 -0.190000 2.440000
v -0.280000 -0.210000 2.370000
v -0.280000 -0.210000 2.390000
v -0.240000 -0.120000 2.360000
v -0.240000 -0.110000 2.390000
v -0.280000 -0.120000 2.390000
v -0.280000 -0.130000 2.360000
v -0.240000 -0.140000 2.340000
v -0.280000 -0.150000 2.350000
v -0.280000 -0.170000 2.340000
v -0.240000 -0.170000 2.330000
v -0.240000 -0.120000 2.410000
v -0.240000 -0.130000 2.420000
v -0.280000 -0.140000 2.420000
v -0.280000 -0.130000 2.410000
v -0.240000 -0.190000 2.340000
v -0.280000 -0.190000 2.350000
v -0.280000 -0.200000 2.360000
v -0.240000 -0.130000 2.350000
v -0.280000 -0.140000 2.350000
v -0.300000 -0.190000 2.380000
v -0.300000 -0.190000 2.390000
v -0.300000 -0.190000 2.400000
v -0.300000 -0.180000 2.410000
v -0.300000 -0.150000 2.400000
v -0.300000 -0.160000 2.370000
v -0.300000 -0.170000 2.360000
v -0.300000 -0.150000 2.370000
v -0.300000 -0.180000 2.370000
v -0.200000 -0.150000 2.430000
v -0.200000 -0.170000 2.440000
v -0.200000 -0.210000 2.410000
v -0.200000 -0.200000 2.430000
v -0.200000 -0.190000 2.430000
v -0.200000 -0.210000 2.370000
v -0.200000 -0.130000 2.360000
v -0.200000 -0.120000 2.390000
v -0.200000 -0.170000 2.340000
v -0.200000 -0.150000 2.350000
v -0.200000 -0.130000 2.410000
v -0.200000 -0.140000 2.420000
v -0.200000 -0.200000 2.360000
v -0.200000 -0.190000 2.350000
v -0.200000 -0.140000 2.350000
v -0.180000 -0.190000 2.380000
v -0.180000 -0.180000 2.410000
v -0.180000 -0.150000 2.400000
v -0.180000 -0.160000 2.410000
v -0.180000 -0.170000 2.410000
v -0.180000 -0.180000 2.370000
v 0.120000 -0.740000 1.560000
v 0.160000 -0.710000 1.520000
v 0.150000 -0.710000 1.540000
v 0.130000 -0.680000 1.540000
v 0.140000 -0.670000 1.530000
v 0.140000 -0.720000 1.550000
v 0.160000 -0.700000 1.500000
v 0.150000 -0.670000 1.500000
v 0.140000 -0.670000 1.470000
v 0.060000 -0.750000 1.470000
v 0.060000 -0.750000 1.500000
v 0.090000 -0.770000 1.500000
v 0.090000 -0.770000 1.470000
v 0.080000 -0.730000 1.450000
v 0.110000 -0.750000 1.450000
v 0.120000 -0.740000 1.450000
v 0.100000 -0.710000 1.440000
v 0.060000 -0.750000 1.530000
v 0.090000 -0.770000 1.530000
v 0.120000 -0.690000 1.450000
v 0.140000 -0.720000 1.460000
v 0.150000 -0.710000 1.460000
v 0.140000 -0.680000 1.460000
v 0.070000 -0.740000 1.460000
v 0.100000 -0.760000 1.460000
v 0.150000 -0.730000 1.500000
v 0.150000 -0.740000 1.510000
v 0.150000 -0.740000 1.520000
v 0.130000 -0.750000 1.530000
v 0.130000 -0.750000 1.480000
v 0.140000 -0.740000 1.480000
v 0.150000 -0.740000 1.480000
v 0.140000 -0.740000 1.530000
v 0.080000 -0.680000 1.560000
v 0.110000 -0.650000 1.520000
v 0.100000 -0.670000 1.550000
v 0.110000 -0.650000 1.480000
v 0.120000 -0.650000 1.500000
v 0.050000 -0.710000 1.470000
v 0.060000 -0.700000 1.450000
v 0.050000 -0.710000 1.530000
v 0.050000 -0.710000 1.540000
v 0.110000 -0.660000 1.460000
v 0.100000 -0.670000 1.460000
v 0.050000 -0.710000 1.460000
v 0.080000 -0.660000 1.490000
v 0.050000 -0.690000 1.510000
v 0.050000 -0.680000 1.520000
v 0.070000 -0.670000 1.530000
v 0.060000 -0.680000 1.480000
v 0.050000 -0.680000 1.480000
v 0.080000 -0.660000 1.480000
v 0.080000 -0.660000 1.530000
v 0.050000 -0.690000 1.490000
v -0.150000 0.810000 2.000000
v -0.130000 0.830000 2.010000
v -0.120000 0.800000 2.010000
v -0.140000 0.790000 2.010000
v -0.130000 0.750000 1.980000
v -0.130000 0.760000 2.000000
v -0.100000 0.770000 2.000000
v -0.100000 0.760000 1.980000
v -0.140000 0.770000 2.000000
v -0.110000 0.780000 2.010000
v -0.130000 0.750000 1.940000
v -0.130000 0.750000 1.960000
v -0.090000 0.750000 1.960000
v -0.100000 0.760000 1.940000
v -0.140000 0.860000 1.960000
v -0.160000 0.830000 1.960000
v -0.160000 0.830000 1.940000
v -0.130000 0.830000 1.920000
v -0.150000 0.810000 1.920000
v -0.140000 0.790000 1.920000
v -0.120000 0.800000 1.910000
v -0.140000 0.850000 1.980000
v -0.130000 0.840000 2.000000
v -0.160000 0.820000 1.990000
v -0.160000 0.830000 1.980000
v -0.140000 0.770000 1.920000
v -0.130000 0.760000 1.930000
v -0.160000 0.820000 1.930000
v -0.150000 0.770000 1.950000
v -0.150000 0.770000 1.960000
v -0.150000 0.770000 1.970000
v -0.160000 0.800000 1.980000
v -0.170000 0.810000 1.970000
v -0.160000 0.790000 1.990000
v -0.160000 0.800000 1.940000
v -0.170000 0.810000 1.960000
v -0.150000 0.780000 1.940000
v -0.150000 0.780000 1.980000
v -0.170000 0.810000 1.950000
v -0.100000 0.840000 2.000000
v -0.090000 0.810000 2.010000
v -0.070000 0.780000 1.980000
v -0.080000 0.780000 2.000000
v -0.080000 0.790000 2.000000
v -0.070000 0.770000 1.940000
v -0.070000 0.770000 1.960000
v -0.100000 0.850000 1.940000
v -0.110000 0.860000 1.960000
v -0.090000 0.810000 1.920000
v -0.100000 0.840000 1.920000
v -0.100000 0.850000 1.980000
v -0.100000 0.850000 1.990000
v -0.080000 0.780000 1.930000
v -0.080000 0.790000 1.920000
v -0.070000 0.800000 1.950000
v -0.070000 0.810000 1.980000
v -0.080000 0.840000 1.970000
v -0.080000 0.840000 1.980000
v -0.080000 0.830000 1.980000
v -0.070000 0.820000 1.990000
v -0.070000 0.820000 1.940000
v -0.080000 0.830000 1.940000
v -0.080000 0.840000 1.960000
v -0.070000 0.810000 1.950000
v -0.070000 0.810000 1.940000
v -0.080000 0.840000 1.950000
v 0.850000 0.100000 1.960000
v 0.870000 0.090000 1.930000
v 0.870000 0.060000 1.950000
v 0.850000 0.080000 1.970000
v 0.820000 0.040000 1.980000
v 0.840000 0.050000 1.980000
v 0.850000 0.030000 1.960000
v 0.830000 0.020000 1.960000
v 0.840000 0.060000 1.980000
v 0.860000 0.040000 1.960000
v 0.810000 0.010000 1.950000
v 0.810000 0.110000 1.890000
v 0.830000 0.110000 1.900000
v 0.820000 0.120000 1.930000
v 0.800000 0.110000 1.920000
v 0.790000 0.080000 1.900000
v 0.780000 0.100000 1.920000
v 0.770000 0.080000 1.930000
v 0.780000 0.060000 1.900000
v 0.850000 0.110000 1.910000
v 0.860000 0.100000 1.920000
v 0.840000 0.110000 1.950000
v 0.840000 0.110000 1.940000
v 0.780000 0.040000 1.920000
v 0.770000 0.060000 1.940000
v 0.790000 0.030000 1.930000
v 0.800000 0.100000 1.890000
v 0.790000 0.110000 1.920000
v 0.810000 0.070000 1.980000
v 0.820000 0.070000 1.980000
v 0.790000 0.090000 1.950000
v 0.780000 0.080000 1.950000
v 0.810000 0.100000 1.950000
v 0.780000 0.080000 1.960000
v 0.820000 0.080000 1.980000
v 0.800000 0.100000 1.950000
v 0.880000 0.070000 1.910000
v 0.880000 0.050000 1.920000
v 0.840000 0.010000 1.930000
v 0.860000 0.020000 1.930000
v 0.870000 0.030000 1.930000
v 0.810000 0.010000 1.910000
v 0.830000 0.010000 1.920000
v 0.820000 0.080000 1.870000
v 0.840000 0.090000 1.880000
v 0.800000 0.070000 1.870000
v 0.870000 0.080000 1.900000
v 0.800000 0.020000 1.900000
v 0.800000 0.030000 1.890000
v 0.810000 0.080000 1.870000
v 0.840000 0.020000 1.900000
v 0.830000 0.020000 1.890000
v 0.850000 0.030000 1.900000
v 0.850000 0.020000 1.900000
v 0.850000 0.060000 1.880000
v 0.860000 0.050000 1.890000
v 0.860000 0.040000 1.900000
v 0.820000 0.040000 1.880000
v 0.820000 0.050000 1.870000
v 0.840000 0.060000 1.880000
v 0.830000 0.050000 1.870000
v 0.820000 0.030000 1.890000
v 0.820000 0.030000 1.880000
v 0.860000 0.030000 1.900000
v 0.830000 0.060000 1.870000
vn 0.9561 -0.2732 0.1062
vn 0.9561 0.2732 0.1062
vn -0.2734 0.9568 0.0985
vn -0.9572 0.2735 0.0946
vn 0.2666 -0.9584 0.1018
vn 0.2666 0.9584 0.1018
vn -0.9572 -0.2735 0.0946
vn -0.2734 -0.9568 0.0985
vn -0.7672 -0.5026 0.3985
vn 0.4860 0.7418 0.4620
vn -0.2454 -0.8588 0.4498
vn -0.3270 -0.8584 0.3952
vn -0.2540 0.8890 0.3810
vn -0.3197 0.8393 0.4396
vn -0.8890 -0.2540 0.3810
vn -0.8393 -0.3197 0.4396
vn -0.8584 0.3270 0.3952
vn -0.8588 0.2454 0.4498
vn 0.3293 0.8645 0.3798
vn 0.2148 0.8652 0.4532
vn 0.8948 0.2557 0.3661
vn 0.8466 0.3225 0.4233
vn 0.8645 -0.3293 0.3798
vn 0.8666 -0.2476 0.4333
vn 0.3197 -0.8393 0.4396
vn 0.2322 -0.9031 0.3612
vn -0.2063 0.7972 0.5674
vn -0.2063 -0.7972 0.5674
vn 0.3746 0.6556 0.6556
vn 0.4033 0.6600 0.6338
vn 0.4103 -0.6448 0.6448
vn 0.3643 -0.6789 0.6375
vn 0.5774 0.5774 0.5774
vn 0.5774 -0.5774 0.5774
vn 0.2433 0.4645 0.8515
vn 0.2433 -0.4645 0.8515
vn -0.8752 0.1013 0.4729
vn 0.1013 -0.8752 0.4729
vn 0.1963 -0.3491 0.9163
vn -0.3491 0.1963 0.9163
vn 0.4729 -0.1576 0.8669
vn -0.3085 -0.0000 0.9512
vn 0.0499 -0.9975 0.0499
vn 0.0808 -0.9967 -0.0000
vn 0.0610 0.9963 0.0610
vn 0.0696 0.9976 -0.0000
vn -0.4527 0.1509 0.8788
vn -0.3415 0.3218 0.8831
vn -0.6199 -0.7678 -0.1620
vn -0.4018 -0.8228 -0.4018
vn 0.6389 0.7366 0.2219
vn 0.5253 0.7399 0.4202
vn -0.2425 -0.0000 0.9701
vn -0.2988 -0.1707 0.9389
vn -0.1330 -0.1773 0.9751
vn -0.4851 0.7276 -0.4851
vn -0.7619 0.5715 -0.3048
vn 0.8944 -0.4472 -0.0000
vn 0.7809 -0.0000 0.6247
vn 0.8320 0.5547 -0.0000
vn 0.5834 0.7779 0.2334
vn 0.3677 -0.0000 -0.9300
vn 0.5639 -0.1880 -0.8041
vn 0.5237 -0.2262 -0.8213
vn 0.4472 -0.0000 -0.8944
vn -0.0300 0.5405 -0.8408
vn -0.7071 -0.0000 0.7071
vn 0.2474 -0.2969 0.9223
vn 0.2679 -0.2679 0.9255
vn -0.7710 -0.6369 -0.0000
vn -0.7775 -0.6255 -0.0643
vn 0.6690 0.7433 -0.0000
vn 0.6811 0.7319 0.0203
vn 0.5441 -0.2609 0.7975
vn 0.5547 -0.0000 0.8321
vn -0.3592 -0.8566 -0.3703
vn -0.0990 -0.9901 0.0990
vn 0.3058 0.8654 0.3969
vn -0.0525 0.9972 0.0525
vn 0.3665 -0.3665 0.8552
vn -0.0000 -0.4961 0.8682
vn 0.3570 -0.3845 0.8513
vn 0.9352 0.0652 -0.3480
vn 0.9594 -0.1693 -0.2257
vn -0.8575 0.5145 -0.0000
vn -0.3034 0.7586 0.5766
vn -0.4472 0.8944 -0.0000
vn -0.0000 0.9806 0.1961
vn -0.3201 0.3841 -0.8661
vn -0.2757 0.4136 -0.8677
vn -0.6292 -0.0000 -0.7772
vn -0.6393 0.1911 -0.7448
vn -0.2744 0.4116 -0.8690
vn -0.2016 0.5039 -0.8399
vn 0.1690 0.5071 -0.8452
vn -0.4230 -0.8718 0.2470
vn 0.4206 -0.8720 0.2503
vn 0.8703 -0.4222 0.2536
vn -0.4147 0.8725 0.2584
vn -0.8718 0.4230 0.2470
vn -0.8718 -0.4230 0.2470
vn 0.4121 0.8727 0.2619
vn -0.3613 -0.8303 -0.4244
vn 0.3592 -0.8329 -0.4210
vn 0.8329 0.3592 -0.4210
vn -0.8165 -0.3637 -0.4484
vn 0.3592 0.8329 -0.4210
vn -0.3613 0.8303 -0.4244
vn -0.8165 0.3637 -0.4484
vn 0.1760 -0.3656 -0.9140
vn 0.3656 -0.1760 -0.9140
vn -0.3656 -0.1760 -0.9140
vn -0.1760 -0.3656 -0.9140
vn 0.3656 0.1760 -0.9140
vn 0.1760 0.3656 -0.9140
vn -0.1760 0.3656 -0.9140
vn -0.3656 0.1760 -0.9140
vn 0.8329 -0.3592 -0.4210
vn 0.8703 0.4222 0.2536
vn 0.5145 0.5145 -0.6860
vn -0.5398 0.8397 -0.0600
vn 0.4685 -0.6247 0.6247
vn -0.5993 -0.0499 0.7990
vn -0.0000 0.8944 -0.4472
vn -0.6963 0.1741 0.6963
vn -0.2408 -0.4815 0.8427
vn 0.5455 0.8182 0.1818
vn 0.7071 -0.0000 0.7071
vn 0.9487 0.3162 -0.0000
vn -0.3974 0.4586 0.7948
vn 0.4472 -0.0000 0.8944
vn -0.1054 0.5270 0.8433
vn 0.5271 -0.1054 0.8433
vn -0.0000 0.7071 0.7071
vn 0.1790 -0.9545 0.2386
vn -0.9503 0.2592 0.1728
vn -0.3468 0.5203 -0.7804
vn -0.3586 -0.7171 0.5976
vn 0.8363 -0.4562 -0.3041
vn -0.5523 -0.0921 -0.8285
vn 0.0921 -0.5523 -0.8285
vn -0.9300 -0.3487 -0.1162
vn -0.0000 -0.9487 -0.3162
vn -0.4423 -0.8847 -0.1474
vn -0.8944 -0.0000 -0.4472
vn -0.3162 -0.9487 -0.0000
vn 0.2182 0.8729 -0.4364
vn 0.1562 0.3123 -0.9370
vn 0.2308 -0.9231 0.3077
vn 0.2683 -0.3578 0.8944
vn 0.2182 -0.4364 0.8729
vn 0.2673 -0.8018 -0.5345
vn 0.7071 0.7071 -0.0000
vn -0.5766 -0.5406 -0.6126
vn 0.6965 -0.3980 0.5970
vn 0.7276 -0.4851 -0.4851
vn 0.7276 0.4851 0.4851
vn 0.7071 -0.0000 -0.7071
vn -0.2182 0.8729 -0.4364
vn -0.1562 0.3123 -0.9370
vn -0.2308 -0.9231 0.3077
vn -0.2683 -0.3578 0.8944
vn -0.2182 -0.8729 -0.4364
vn -0.1741 -0.6963 0.6963
vn -0.2182 0.4364 0.8729
vn -0.7276 -0.4851 -0.4851
vn -0.7845 0.1961 -0.5883
vn -0.7276 0.4851 0.4851
vn -0.7071 -0.0000 -0.7071
vn -0.7301 -0.3319 -0.5974
vn 0.5547 0.8321 -0.0000
vn -0.3162 -0.0000 0.9487
vn -0.9023 -0.3509 -0.2506
vn 0.3244 0.4867 0.8111
vn -0.4472 -0.0000 0.8944
vn -0.9407 0.2822 0.1881
vn -0.2981 0.5963 0.7454
vn -0.6985 0.5433 -0.4657
vn -0.6985 0.5433 0.4657
vn -0.7379 0.4216 -0.5270
vn -0.5185 -0.8296 0.2074
vn -0.0851 -0.3405 0.9364
vn -0.5185 -0.8296 -0.2074
vn 0.4867 0.3244 0.8111
vn 1.0000 -0.0000 -0.0000
vn 0.5774 -0.5773 0.5773
vn 0.3468 -0.7804 -0.5203
vn 0.3015 -0.9045 0.3015
vn 0.4851 -0.4851 0.7276
vn 0.2933 -0.0733 -0.9532
vn -0.2857 0.8571 -0.4286
vn -0.1361 0.9526 0.2722
vn 0.2933 -0.0733 0.9532
vn 0.5773 -0.5773 -0.5774
vn 0.7715 -0.6172 -0.1543
vn 0.0874 0.2621 -0.9611
vn 0.8944 -0.0000 -0.4472
vn 0.8083 -0.1155 -0.5773
vn 0.8018 0.2673 -0.5345
vn 0.7442 0.6202 0.2481
vn 0.7379 0.5270 -0.4216
vn 0.8944 -0.0000 0.4472
vn 0.8018 0.2673 0.5345
vn -0.0976 -0.1952 -0.9759
vn -0.4867 0.8111 -0.3244
vn -0.0000 -0.8944 -0.4472
vn -0.5482 0.6852 -0.4796
vn -0.4472 -0.8944 -0.0000
vn -0.5774 -0.5773 -0.5773
vn -0.6667 -0.3333 0.6667
vn -0.9526 0.2722 0.1361
vn -0.8285 0.0921 -0.5523
vn -0.8242 -0.1374 0.5494
vn -0.5270 -0.8433 0.1054
vn -0.8246 -0.2910 -0.4851
vn 0.8018 -0.2673 0.5345
vn -0.2741 -0.9593 0.0685
vn 0.4286 -0.8571 0.2857
vn 0.9545 0.1790 0.2386
vn -0.6172 -0.7715 -0.1543
vn -0.0000 -0.0000 -1.0000
vn 0.6965 -0.5970 -0.3980
vn 0.9045 -0.3015 -0.3015
vn 0.4083 -0.8165 -0.4082
vn -0.9459 -0.1669 -0.2782
vn -0.4082 0.8165 -0.4082
vn -0.6396 0.6396 -0.4264
vn 0.7845 0.5883 0.1961
vn -0.1596 0.9577 -0.2394
vn 0.2673 -0.5345 0.8018
vn -0.8890 0.2540 -0.3810
vn -0.7845 -0.5883 0.1961
vn -0.2063 0.9283 0.3094
vn -0.6882 0.6882 0.2294
vn -0.1562 0.9370 0.3123
vn -0.0000 -0.0000 1.0000
vn -0.0000 0.8944 0.4472
vn -0.8165 0.4082 0.4082
vn -0.5270 -0.1054 0.8433
vn -0.4286 0.8571 0.2857
s 0
usemtl tex_32767
f 1//1 2//1 3//1
f 1//2 3//2 4//2
f 1//3 5//3 6//3
f 1//4 6//4 7//4
f 1//5 8//5 2//5
f 1//6 4//6 5//6
f 1//7 7//7 9//7
f 1//8 9//8 8//8
f 51//9 52//9 53//9
f 51//10 53//10 54//10
f 9//11 55//11 8//11
f 9//12 56//12 55//12
f 5//13 57//13 6//13
f 5//14 58//14 57//14
f 7//15 56//15 9//15
f 7//16 59//16 56//16
f 59//17 6//17 57//17
f 59//18 7//18 6//18
f 58//19 4//19 60//19
f 58//20 5//20 4//20
f 3//21 60//21 4//21
f 3//22 61//22 60//22
f 61//23 2//23 62//23
f 61//24 3//24 2//24
f 62//25 8//25 55//25
f 62//26 2//26 8//26
f 63//27 64//27 65//27
f 63//27 66//27 64//27
f 65//28 67//28 68//28
f 65//28 64//28 67//28
f 63//29 69//29 70//29
f 63//30 65//30 69//30
f 65//31 71//31 69//31
f 65//32 68//32 71//32
f 72//33 70//33 69//33
f 71//34 72//34 69//34
f 73//35 70//35 72//35
f 73//36 72//36 71//36
f 74//37 75//37 9//37
f 76//38 9//38 75//38
f 75//39 77//39 76//39
f 74//40 77//40 75//40
f 78//41 79//41 80//41
f 78//41 81//41 79//41
f 82//42 83//42 84//42
f 82//42 85//42 83//42
f 84//43 86//43 87//43
f 84//44 83//44 86//44
f 88//45 85//45 82//45
f 88//46 89//46 85//46
f 80//47 84//47 78//47
f 80//48 90//48 84//48
f 78//49 87//49 81//49
f 78//50 84//50 87//50
f 79//51 90//51 80//51
f 79//52 91//52 90//52
f 90//53 82//53 84//53
f 90//54 92//54 82//54
f 90//55 93//55 92//55
f 92//56 88//56 82//56
f 94//57 88//57 92//57
f 90//58 95//58 93//58
f 90//59 91//59 95//59
f 94//60 93//60 95//60
f 94//61 92//61 93//61
f 87//62 89//62 88//62
f 87//62 86//62 89//62
f 81//63 91//63 79//63
f 81//64 87//64 91//64
f 91//65 87//65 88//65
f 88//65 95//65 91//65
f 95//66 88//66 94//66
f 96//67 97//67 98//67
f 99//67 97//67 96//67
f 100//68 101//68 102//68
f 100//69 103//69 101//69
f 102//70 104//70 105//70
f 102//71 101//71 104//71
f 106//72 103//72 100//72
f 106//73 107//73 103//73
f 108//74 97//74 101//74
f 108//75 98//75 97//75
f 101//76 99//76 104//76
f 101//77 97//77 99//77
f 109//78 98//78 108//78
f 109//79 96//79 98//79
f 103//80 108//80 101//80
f 110//81 103//81 111//81
f 110//82 108//82 103//82
f 107//83 111//83 103//83
f 107//84 112//84 111//84
f 113//85 108//85 110//85
f 109//86 108//86 113//86
f 110//87 112//87 113//87
f 111//88 112//88 110//88
f 105//89 107//89 106//89
f 105//90 104//90 107//90
f 109//91 99//91 96//91
f 104//92 99//92 109//92
f 104//93 109//93 107//93
f 113//94 107//94 109//94
f 107//95 113//95 112//95
usemtl tex_65
f 10//96 11//96 12//96 13//96
f 14//97 15//97 11//97 10//97
f 16//98 17//98 15//98 14//98
f 18//99 19//99 20//99 21//99
f 22//100 23//100 19//100 18//100
f 13//101 12//101 23//101 22//101
f 21//102 20//102 24//102 25//102
f 26//103 27//103 28//103 29//103
f 30//104 31//104 27//104 26//104
f 32//105 33//105 34//105 35//105
f 29//106 28//106 36//106 37//106
f 38//107 39//107 33//107 32//107
f 40//108 41//108 39//108 38//108
f 37//109 36//109 41//109 40//109
f 42//110 43//110 44//110
f 44//111 43//111 45//111
f 46//112 43//112 47//112
f 47//113 43//113 42//113
f 45//114 43//114 48//114
f 48//115 43//115 49//115
f 49//116 43//116 50//116
f 50//117 43//117 46//117
f 35//118 34//118 31//118 30//118
f 25//119 24//119 17//119 16//119
usemtl rsc_e8d038
f 121//120 122//120 119//120 118//120
f 123//121 124//121 125//121 126//121
f 127//122 128//122 129//122 130//122
f 131//123 132//123 133//123 134//123
f 124//124 117//124 120//124 125//124
f 134//125 133//125 139//125 138//125
f 142//126 143//126 132//126 131//126
f 118//127 117//127 144//127 145//127
f 137//128 136//128 146//128
f 114//129 116//129 147//129 148//129
f 408//130 411//130 410//130 421//130 414//130 413//130 412//130 417//130 422//130 418//130 416//130 415//130 420//130 419//130 409//130
f 143//131 130//131 153//131 149//131
f 139//132 133//132 150//132 152//132
f 130//133 129//133 151//133 153//133
f 152//134 140//134 139//134
f 127//135 159//135 160//135 128//135
f 138//136 141//136 165//136 166//136
f 158//137 125//137 120//137 156//137
f 142//138 167//138 159//138 127//138
f 164//139 154//139 115//139 135//139
f 158//140 168//140 169//140 157//140
f 154//141 173//141 174//141 155//141
f 161//142 175//142 176//142 162//142
f 160//143 177//143 172//143 163//143
f 162//144 176//144 178//144 167//144
f 165//145 179//145 180//145 166//145
f 159//146 178//146 177//146 160//146
f 183//147 184//147 185//147 186//147
f 187//148 188//148 185//148 184//148
f 191//149 192//149 193//149 194//149
f 195//150 196//150 197//150 198//150
f 206//151 207//151 196//151 195//151
f 201//152 200//152 182//152 181//152
f 183//153 190//153 209//153 210//153
f 174//154 173//154 172//154 177//154 178//154 176//154 175//154 180//154 179//154 169//154 168//154 171//154 170//154
f 197//155 196//155 213//155 214//155
f 196//128 207//128 215//128 213//128
f 202//156 201//156 212//156
f 189//157 205//157 216//157 208//157
f 204//157 216//157 205//157
f 211//158 187//158 184//158
f 219//159 186//159 185//159 220//159
f 221//160 220//160 185//160 188//160
f 191//161 223//161 224//161 192//161
f 195//162 198//162 225//162 226//162
f 192//163 224//163 227//163 199//163
f 206//164 231//164 223//164 191//164
f 198//165 203//165 230//165 225//165
f 228//166 234//166 235//166 217//166
f 234//166 228//166 227//166
f 218//167 236//167 233//167 221//167
f 222//168 232//168 237//168 229//168
f 220//169 221//169 233//169
f 239//170 240//170 241//170 242//170
f 247//171 248//171 249//171 250//171
f 257//172 258//172 259//172 260//172
f 248//171 255//171 256//171 249//171
f 244//173 239//173 242//173 245//173
f 261//174 247//174 250//174 262//174
f 254//175 253//175 258//175 257//175
f 261//174 262//174 252//174 251//174
f 239//176 244//176 263//176 264//176
f 259//177 258//177 268//177 269//177
f 238//178 243//178 270//178 266//178
f 258//179 253//179 267//179 268//179
f 243//180 240//180 265//180 270//180
f 274//181 246//181 245//181 275//181
f 257//182 260//182 280//182 281//182
f 275//183 245//183 242//183 272//183
f 261//184 251//184 277//184 282//184
f 278//185 284//185 285//185 279//185
f 277//186 287//186 288//186 282//186
f 271//187 286//187 290//187 273//187
f 282//185 288//185 291//185 276//185
f 274//188 283//188 289//188 280//188
f 281//189 280//189 289//189
f 292//190 293//190 294//190 295//190
f 296//191 297//191 298//191 299//191
f 302//192 303//192 304//192 305//192
f 309//193 310//193 311//193 312//193
f 313//194 314//194 315//194 316//194
f 306//195 313//195 316//195 307//195
f 295//196 294//196 301//196 300//196
f 296//153 303//153 321//153 322//153
f 316//197 315//197 323//197 324//197
f 292//198 295//198 325//198 323//198
f 307//58 316//58 324//58 327//58
f 315//199 292//199 323//199
f 318//200 317//200 328//200 320//200
f 295//201 300//201 329//201 325//201
f 319//202 308//202 330//202 326//202
f 310//203 319//203 326//203
f 318//157 320//157 302//157
f 331//204 332//204 294//204 293//204
f 333//205 299//205 298//205 334//205
f 306//206 339//206 342//206 313//206
f 337//207 304//207 299//207 333//207
f 342//208 348//208 349//208 343//208
f 331//209 350//209 351//209 332//209
f 340//210 352//210 353//210 341//210
f 344//211 355//211 356//211 345//211
f 332//212 351//212 347//212 335//212
f 336//213 346//213 355//213 344//213
f 338//214 357//214 354//214 339//214
f 358//215 359//215 360//215 361//215
f 373//216 374//216 375//216 376//216
f 370//217 377//217 380//217 371//217
f 384//218 369//218 372//218 385//218
f 376//219 375//219 382//219 381//219
f 379//220 378//220 359//220 358//220
f 363//221 362//221 386//221 387//221
f 375//222 374//222 388//222 389//222
f 382//223 375//223 389//223 391//223
f 372//224 371//224 390//224 393//224
f 366//221 363//221 387//221 392//221
f 394//225 395//225 360//225 359//225
f 396//226 365//226 364//226 397//226
f 398//227 397//227 364//227 367//227
f 381//228 383//228 405//228 406//228
f 400//229 368//229 365//229 396//229
f 384//230 407//230 401//230 369//230
f 395//231 398//231 367//231 360//231
f 404//232 394//232 359//232 378//232
f 400//233 408//233 409//233 399//233
f 397//234 410//234 411//234 396//234
f 396//235 411//235 408//235 400//235
f 403//236 416//236 418//236 407//236
f 405//237 419//237 420//237 406//237
f 395//238 414//238 421//238 398//238
f 401//239 422//239 417//239 402//239
f 398//240 421//240 410//240 397//240
f 413//67 394//67 404//67
