# Blender 4.0.2
# www.blender.org
mtllib 2_young.mtl
o dragonfruit_2_young
v 0.071500 0.143000 0.000000
v -0.071500 0.143000 0.000000
v -0.071500 0.143000 1.287000
v 0.071500 0.143000 1.287000
v -0.143000 0.000000 0.000000
v -0.143000 0.000000 1.287000
v -0.071500 -0.143000 0.000000
v -0.071500 -0.143000 1.287000
v 0.071500 -0.143000 0.000000
v 0.071500 -0.143000 1.287000
v 0.143000 -0.000000 0.000000
v 0.143000 -0.000000 1.287000
v 0.000000 0.000000 1.545500
v -0.313500 0.055000 0.451000
v -0.313500 -0.033000 0.451000
v -0.313500 -0.033000 1.204500
v -0.313500 0.055000 1.204500
v -0.357500 0.011000 0.451000
v -0.357500 0.011000 1.204500
v -0.242000 0.011000 1.413500
v -0.187000 0.055000 1.413500
v -0.049500 0.055000 1.496000
v -0.049500 0.011000 1.496000
v -0.297000 0.011000 1.358500
v -0.242000 0.055000 1.358500
v -0.324500 0.011000 1.303500
v -0.280500 0.055000 1.303500
v -0.187000 -0.033000 1.413500
v -0.044000 -0.038500 1.496000
v -0.242000 -0.033000 1.358500
v -0.280500 -0.033000 1.303500
v 0.044000 0.319000 0.451000
v -0.044000 0.319000 0.451000
v -0.044000 0.319000 1.204500
v 0.044000 0.319000 1.204500
v 0.000000 0.363000 0.451000
v 0.000000 0.363000 1.204500
v 0.000000 0.247500 1.413500
v 0.044000 0.192500 1.413500
v 0.049500 0.055000 1.496000
v 0.000000 0.055000 1.496000
v 0.000000 0.302500 1.358500
v 0.044000 0.247500 1.358500
v 0.000000 0.330000 1.303500
v 0.044000 0.286000 1.303500
v -0.044000 0.192500 1.413500
v -0.044000 0.247500 1.358500
v -0.044000 0.286000 1.303500
v -0.038500 -0.297000 0.451000
v 0.044000 -0.297000 0.451000
v 0.044000 -0.297000 1.204500
v -0.038500 -0.297000 1.204500
v -0.000000 -0.341000 0.451000
v -0.000000 -0.341000 1.204500
v -0.000000 -0.225500 1.413500
v -0.038500 -0.170500 1.413500
v -0.000000 -0.038500 1.496000
v -0.000000 -0.280500 1.358500
v -0.038500 -0.225500 1.358500
v -0.000000 -0.308000 1.303500
v -0.038500 -0.264000 1.303500
v 0.044000 -0.170500 1.413500
v 0.049500 -0.038500 1.496000
v 0.044000 -0.225500 1.358500
v 0.044000 -0.264000 1.303500
v 0.313500 -0.033000 0.451000
v 0.313500 0.049500 0.451000
v 0.313500 0.049500 1.204500
v 0.313500 -0.033000 1.204500
v 0.357500 0.011000 0.451000
v 0.357500 0.011000 1.204500
v 0.242000 0.011000 1.413500
v 0.187000 -0.033000 1.413500
v 0.049500 0.011000 1.496000
v 0.297000 0.011000 1.358500
v 0.242000 -0.033000 1.358500
v 0.324500 0.011000 1.303500
v 0.280500 -0.033000 1.303500
v 0.187000 0.049500 1.413500
v 0.242000 0.049500 1.358500
v 0.280500 0.049500 1.303500
v -0.242000 0.291500 0.451000
v -0.297000 0.225500 0.451000
v -0.297000 0.225500 1.204500
v -0.242000 0.291500 1.204500
v -0.302500 0.286000 0.451000
v -0.302500 0.286000 1.204500
v -0.214500 0.209000 1.413500
v -0.143000 0.209000 1.413500
v -0.044000 0.121000 1.496000
v -0.258500 0.247500 1.358500
v -0.187000 0.242000 1.358500
v -0.280500 0.264000 1.303500
v -0.214500 0.269500 1.303500
v -0.203500 0.143000 1.413500
v -0.104500 0.055000 1.496000
v -0.242000 0.176000 1.358500
v -0.275000 0.203500 1.303500
v 0.291500 0.242000 0.451000
v 0.231000 0.302500 0.451000
v 0.231000 0.302500 1.204500
v 0.291500 0.242000 1.204500
v 0.291500 0.302500 0.451000
v 0.291500 0.302500 1.204500
v 0.209000 0.214500 1.413500
v 0.198000 0.148500 1.413500
v 0.110000 0.055000 1.496000
v 0.247500 0.258500 1.358500
v 0.236500 0.192500 1.358500
v 0.269500 0.280500 1.303500
v 0.269500 0.209000 1.303500
v 0.143000 0.214500 1.413500
v 0.049500 0.121000 1.496000
v 0.170500 0.253000 1.358500
v 0.209000 0.280500 1.303500
v 0.242000 -0.269500 0.451000
v 0.297000 -0.209000 0.451000
v 0.297000 -0.209000 1.204500
v 0.242000 -0.269500 1.204500
v 0.302500 -0.269500 0.451000
v 0.302500 -0.269500 1.204500
v 0.214500 -0.192500 1.413500
v 0.143000 -0.192500 1.413500
v 0.044000 -0.104500 1.496000
v 0.258500 -0.231000 1.358500
v 0.187000 -0.225500 1.358500
v 0.280500 -0.247500 1.303500
v 0.214500 -0.253000 1.303500
v 0.203500 -0.126500 1.413500
v 0.104500 -0.038500 1.496000
v 0.242000 -0.154000 1.358500
v 0.275000 -0.187000 1.303500
v -0.291500 -0.231000 0.451000
v -0.231000 -0.291500 0.451000
v -0.231000 -0.291500 1.204500
v -0.291500 -0.231000 1.204500
v -0.291500 -0.291500 0.451000
v -0.291500 -0.291500 1.204500
v -0.209000 -0.198000 1.413500
v -0.198000 -0.137500 1.413500
v -0.110000 -0.038500 1.496000
v -0.247500 -0.247500 1.358500
v -0.236500 -0.181500 1.358500
v -0.269500 -0.269500 1.303500
v -0.269500 -0.198000 1.303500
v -0.143000 -0.203500 1.413500
v -0.044000 -0.110000 1.496000
v -0.170500 -0.242000 1.358500
v -0.209000 -0.264000 1.303500
v 0.033000 0.044000 1.545500
v -0.033000 0.044000 1.545500
v -0.033000 -0.022000 1.545500
v 0.033000 -0.022000 1.545500
vn -0.0000 1.0000 -0.0000
vn -0.8944 0.4472 -0.0000
vn -0.8944 -0.4472 -0.0000
vn -0.0000 -1.0000 -0.0000
vn 0.8944 -0.4472 -0.0000
vn 0.8944 0.4472 -0.0000
vn -0.8017 0.4008 0.4435
vn -0.8017 -0.4008 0.4435
vn -0.0000 -0.8750 0.4841
vn 0.8017 -0.4008 0.4435
vn 0.8017 0.4008 0.4435
vn -0.0000 0.8750 0.4841
vn -1.0000 -0.0000 -0.0000
vn 0.7071 -0.7071 -0.0000
vn 0.7071 0.7071 -0.0000
vn 0.4307 -0.2692 -0.8614
vn 0.5298 -0.6623 -0.5298
vn 0.6171 -0.6943 -0.3703
vn 0.6882 -0.6882 -0.2294
vn 0.4277 0.2768 -0.8605
vn 0.5298 0.6623 -0.5298
vn -0.8192 -0.0000 0.5735
vn 0.6882 0.6882 -0.2294
vn 0.6171 0.6943 -0.3703
vn -0.0000 -0.0000 1.0000
vn -0.9487 -0.0000 0.3162
vn -0.0000 -0.0000 -1.0000
vn -0.5072 -0.0154 0.8617
vn -0.7071 -0.0000 0.7071
vn -0.7071 -0.7071 -0.0000
vn -0.2563 -0.4357 -0.8628
vn -0.6623 -0.5298 -0.5298
vn -0.6943 -0.6171 -0.3703
vn -0.6882 -0.6882 -0.2294
vn 0.2563 -0.4357 -0.8628
vn 0.6623 -0.5298 -0.5298
vn -0.0000 0.8192 0.5735
vn 0.6943 -0.6171 -0.3703
vn -0.0000 0.9487 0.3162
vn -0.0000 0.5145 0.8575
vn -0.0000 0.7071 0.7071
vn 0.7526 0.6585 -0.0000
vn -0.7071 0.7071 -0.0000
vn 0.2953 0.4429 -0.8465
vn 0.7107 0.4975 -0.4975
vn 0.7407 0.5761 -0.3457
vn 0.7351 0.6432 -0.2144
vn -0.2628 0.4468 -0.8551
vn -0.6623 0.5298 -0.5298
vn -0.0000 -0.8192 0.5735
vn -0.6882 0.6882 -0.2294
vn -0.6943 0.6171 -0.3703
vn -0.0000 -0.9487 0.3162
vn -0.0000 -0.5300 0.8480
vn -0.0000 -0.7071 0.7071
vn 1.0000 -0.0000 -0.0000
vn -0.6585 -0.7526 -0.0000
vn -0.4357 0.2563 -0.8628
vn -0.5298 0.6623 -0.5298
vn -0.6171 0.6943 -0.3703
vn -0.4321 -0.2881 -0.8546
vn -0.4975 -0.7107 -0.4975
vn 0.8192 -0.0000 0.5735
vn -0.6432 -0.7351 -0.2144
vn -0.5761 -0.7407 -0.3457
vn 0.9487 -0.0000 0.3162
vn 0.5145 -0.0000 0.8575
vn 0.7071 -0.0000 0.7071
vn -0.7682 0.6402 -0.0000
vn 0.0905 -0.9959 -0.0000
vn 0.9959 0.0905 -0.0000
vn 0.2740 -0.3196 -0.9071
vn -0.0327 -0.8497 -0.5262
vn -0.0000 -0.9285 -0.3714
vn 0.0842 -0.9681 -0.2362
vn 0.3516 -0.2344 -0.9063
vn 0.8379 0.1676 -0.5195
vn -0.6040 0.5285 0.5965
vn 0.9763 0.0888 -0.1972
vn 0.9070 0.1512 -0.3930
vn -0.7137 0.6245 0.3172
vn -0.3898 0.3573 0.8488
vn -0.5430 0.4751 0.6924
vn -0.3413 -0.2560 -0.9044
vn -0.8610 0.1435 -0.4879
vn -0.9020 0.0722 -0.4257
vn -0.9762 -0.0000 -0.2169
vn -0.2961 -0.2961 -0.9081
vn 0.0311 -0.8085 -0.5877
vn 0.5787 0.5546 0.5980
vn -0.0000 -0.9762 -0.2169
vn 0.0367 -0.9187 -0.3932
vn 0.6954 0.6375 0.3316
vn 0.4035 0.3531 0.8441
vn 0.5234 0.5006 0.6895
vn 0.7399 -0.6727 -0.0000
vn -0.9959 -0.0905 -0.0000
vn -0.2740 0.3196 -0.9071
vn 0.0327 0.8497 -0.5262
vn -0.0000 0.9285 -0.3714
vn -0.0426 0.9787 -0.2009
vn -0.3516 0.2344 -0.9063
vn -0.8334 -0.1603 -0.5289
vn 0.6053 -0.5084 0.6125
vn -0.9763 -0.0888 -0.1972
vn -0.9095 -0.1455 -0.3893
vn 0.7042 -0.6430 0.3011
vn 0.3898 -0.3573 0.8488
vn 0.5613 -0.4715 0.6802
vn 0.3075 0.2796 -0.9095
vn 0.8654 -0.1505 -0.4779
vn 0.9020 -0.0722 -0.4257
vn 0.9762 -0.0000 -0.2169
vn 0.3127 0.2680 -0.9113
vn -0.0000 0.7809 -0.6247
vn -0.5774 -0.5774 0.5773
vn -0.0442 0.9715 -0.2331
vn -0.0752 0.9394 -0.3344
vn -0.6773 -0.6479 0.3485
vn -0.3941 -0.3468 0.8512
vn -0.5234 -0.5006 0.6895
vn -0.0000 0.9487 -0.3162
vn -0.9487 -0.0000 -0.3162
vn 0.9625 0.0332 -0.2692
s 0
usemtl rsc_904008
f 1//1 2//1 3//1 4//1
f 2//2 5//2 6//2 3//2
f 5//3 7//3 8//3 6//3
f 7//4 9//4 10//4 8//4
f 9//5 11//5 12//5 10//5
f 11//6 1//6 4//6 12//6
f 3//7 6//7 13//7
f 6//8 8//8 13//8
f 8//9 10//9 13//9
f 10//10 12//10 13//10
f 12//11 4//11 13//11
f 4//12 3//12 13//12
usemtl rsc_005008
f 14//13 15//13 16//13 17//13
f 18//14 14//14 17//14 19//14
f 15//15 18//15 19//15 16//15
f 20//16 21//16 22//16 23//16
f 24//17 25//17 21//17 20//17
f 26//18 27//18 25//18 24//18
f 19//19 17//19 27//19 26//19
f 28//20 20//20 23//20 29//20
f 30//21 24//21 20//21 28//21
f 27//22 31//22 30//22 25//22
f 16//23 19//23 26//23 31//23
f 31//24 26//24 24//24 30//24
f 31//25 27//25 26//25
f 17//26 16//26 31//26 27//26
f 24//27 25//27 30//27
f 21//28 28//28 29//28 22//28
f 23//27 22//27 29//27
f 25//29 30//29 28//29 21//29
f 32//1 33//1 34//1 35//1
f 36//30 32//30 35//30 37//30
f 33//14 36//14 37//14 34//14
f 38//31 39//31 40//31 41//31
f 42//32 43//32 39//32 38//32
f 44//33 45//33 43//33 42//33
f 37//34 35//34 45//34 44//34
f 46//35 38//35 41//35 22//35
f 47//36 42//36 38//36 46//36
f 45//37 48//37 47//37 43//37
f 34//19 37//19 44//19 48//19
f 48//38 44//38 42//38 47//38
f 48//25 45//25 44//25
f 35//39 34//39 48//39 45//39
f 42//27 43//27 47//27
f 39//40 46//40 22//40 40//40
f 41//25 40//25 22//25
f 43//41 47//41 46//41 39//41
f 49//4 50//4 51//4 52//4
f 53//42 49//42 52//42 54//42
f 50//43 53//43 54//43 51//43
f 55//44 56//44 29//44 57//44
f 58//45 59//45 56//45 55//45
f 60//46 61//46 59//46 58//46
f 54//47 52//47 61//47 60//47
f 62//48 55//48 57//48 63//48
f 64//49 58//49 55//49 62//49
f 61//50 65//50 64//50 59//50
f 51//51 54//51 60//51 65//51
f 65//52 60//52 58//52 64//52
f 65//25 61//25 60//25
f 52//53 51//53 65//53 61//53
f 58//27 59//27 64//27
f 56//54 62//54 63//54 29//54
f 57//25 29//25 63//25
f 59//55 64//55 62//55 56//55
f 66//56 67//56 68//56 69//56
f 70//43 66//43 69//43 71//43
f 67//57 70//57 71//57 68//57
f 72//58 73//58 63//58 74//58
f 75//59 76//59 73//59 72//59
f 77//60 78//60 76//60 75//60
f 71//51 69//51 78//51 77//51
f 79//61 72//61 74//61 40//61
f 80//62 75//62 72//62 79//62
f 78//63 81//63 80//63 76//63
f 68//64 71//64 77//64 81//64
f 81//65 77//65 75//65 80//65
f 81//25 78//25 77//25
f 69//66 68//66 81//66 78//66
f 75//27 76//27 80//27
f 73//67 79//67 40//67 63//67
f 74//25 63//25 40//25
f 76//68 80//68 79//68 73//68
f 82//69 83//69 84//69 85//69
f 86//70 82//70 85//70 87//70
f 83//71 86//71 87//71 84//71
f 88//72 89//72 90//72 22//72
f 91//73 92//73 89//73 88//73
f 93//74 94//74 92//74 91//74
f 87//75 85//75 94//75 93//75
f 95//76 88//76 22//76 96//76
f 97//77 91//77 88//77 95//77
f 94//78 98//78 97//78 92//78
f 84//79 87//79 93//79 98//79
f 98//80 93//80 91//80 97//80
f 98//25 94//25 93//25
f 85//81 84//81 98//81 94//81
f 91//27 92//27 97//27
f 89//82 95//82 96//82 90//82
f 22//25 90//25 96//25
f 92//83 97//83 95//83 89//83
f 99//15 100//15 101//15 102//15
f 103//13 99//13 102//13 104//13
f 100//4 103//4 104//4 101//4
f 105//84 106//84 107//84 40//84
f 108//85 109//85 106//85 105//85
f 110//86 111//86 109//86 108//86
f 104//87 102//87 111//87 110//87
f 112//88 105//88 40//88 113//88
f 114//89 108//89 105//89 112//89
f 111//90 115//90 114//90 109//90
f 101//91 104//91 110//91 115//91
f 115//92 110//92 108//92 114//92
f 115//25 111//25 110//25
f 102//93 101//93 115//93 111//93
f 108//27 109//27 114//27
f 106//94 112//94 113//94 107//94
f 40//25 107//25 113//25
f 109//95 114//95 112//95 106//95
f 116//96 117//96 118//96 119//96
f 120//1 116//1 119//1 121//1
f 117//97 120//97 121//97 118//97
f 122//98 123//98 124//98 63//98
f 125//99 126//99 123//99 122//99
f 127//100 128//100 126//100 125//100
f 121//101 119//101 128//101 127//101
f 129//102 122//102 63//102 130//102
f 131//103 125//103 122//103 129//103
f 128//104 132//104 131//104 126//104
f 118//105 121//105 127//105 132//105
f 132//106 127//106 125//106 131//106
f 132//25 128//25 127//25
f 119//107 118//107 132//107 128//107
f 125//27 126//27 131//27
f 123//108 129//108 130//108 124//108
f 63//25 124//25 130//25
f 126//109 131//109 129//109 123//109
f 133//30 134//30 135//30 136//30
f 137//56 133//56 136//56 138//56
f 134//1 137//1 138//1 135//1
f 139//110 140//110 141//110 29//110
f 142//111 143//111 140//111 139//111
f 144//112 145//112 143//112 142//112
f 138//113 136//113 145//113 144//113
f 146//114 139//114 29//114 147//114
f 148//115 142//115 139//115 146//115
f 145//116 149//116 148//116 143//116
f 135//117 138//117 144//117 149//117
f 149//118 144//118 142//118 148//118
f 149//25 145//25 144//25
f 136//119 135//119 149//119 145//119
f 142//27 143//27 148//27
f 140//120 146//120 147//120 141//120
f 29//25 141//25 147//25
f 143//121 148//121 146//121 140//121
f 22//91 40//91 150//91 151//91
f 63//122 29//122 152//122 153//122
f 40//123 63//123 153//123 150//123
f 29//124 22//124 151//124 152//124
f 151//27 150//27 153//27 152//27
