# Blender 4.0.2
# www.blender.org
mtllib 4_mature_partial.mtl
o dragonfruit_4_partial
v 0.130000 0.260000 0.000000
v -0.130000 0.260000 0.000000
v -0.130000 0.260000 2.340000
v 0.130000 0.260000 2.340000
v -0.260000 0.000000 0.000000
v -0.260000 0.000000 2.340000
v -0.130000 -0.260000 0.000000
v -0.130000 -0.260000 2.340000
v 0.130000 -0.260000 0.000000
v 0.130000 -0.260000 2.340000
v 0.260000 -0.000000 0.000000
v 0.260000 -0.000000 2.340000
v 0.000000 0.000000 2.810000
v -0.570000 0.100000 0.820000
v -0.570000 -0.060000 0.820000
v -0.570000 -0.060000 2.190000
v -0.570000 0.100000 2.190000
v -0.650000 0.020000 0.820000
v -0.650000 0.020000 2.190000
v -0.440000 0.020000 2.570000
v -0.340000 0.100000 2.570000
v -0.090000 0.100000 2.720000
v -0.090000 0.020000 2.720000
v -0.540000 0.020000 2.470000
v -0.440000 0.100000 2.470000
v -0.590000 0.020000 2.370000
v -0.510000 0.100000 2.370000
v -0.340000 -0.060000 2.570000
v -0.080000 -0.070000 2.720000
v -0.440000 -0.060000 2.470000
v -0.510000 -0.060000 2.370000
v 0.080000 0.580000 0.820000
v -0.080000 0.580000 0.820000
v -0.080000 0.580000 2.190000
v 0.080000 0.580000 2.190000
v 0.000000 0.660000 0.820000
v 0.000000 0.660000 2.190000
v 0.000000 0.450000 2.570000
v 0.080000 0.350000 2.570000
v 0.090000 0.100000 2.720000
v 0.000000 0.100000 2.720000
v 0.000000 0.550000 2.470000
v 0.080000 0.450000 2.470000
v 0.000000 0.600000 2.370000
v 0.080000 0.520000 2.370000
v -0.080000 0.350000 2.570000
v -0.080000 0.450000 2.470000
v -0.080000 0.520000 2.370000
v -0.070000 -0.540000 0.820000
v 0.080000 -0.540000 0.820000
v 0.080000 -0.540000 2.190000
v -0.070000 -0.540000 2.190000
v -0.000000 -0.620000 0.820000
v -0.000000 -0.620000 2.190000
v -0.000000 -0.410000 2.570000
v -0.070000 -0.310000 2.570000
v -0.000000 -0.070000 2.720000
v -0.000000 -0.510000 2.470000
v -0.070000 -0.410000 2.470000
v -0.000000 -0.560000 2.370000
v -0.070000 -0.480000 2.370000
v 0.080000 -0.310000 2.570000
v 0.090000 -0.070000 2.720000
v 0.080000 -0.410000 2.470000
v 0.080000 -0.480000 2.370000
v 0.570000 -0.060000 0.820000
v 0.570000 0.090000 0.820000
v 0.570000 0.090000 2.190000
v 0.570000 -0.060000 2.190000
v 0.650000 0.020000 0.820000
v 0.650000 0.020000 2.190000
v 0.440000 0.020000 2.570000
v 0.340000 -0.060000 2.570000
v 0.090000 0.020000 2.720000
v 0.540000 0.020000 2.470000
v 0.440000 -0.060000 2.470000
v 0.590000 0.020000 2.370000
v 0.510000 -0.060000 2.370000
v 0.340000 0.090000 2.570000
v 0.440000 0.090000 2.470000
v 0.510000 0.090000 2.370000
v -0.440000 0.530000 0.820000
v -0.540000 0.410000 0.820000
v -0.540000 0.410000 2.190000
v -0.440000 0.530000 2.190000
v -0.550000 0.520000 0.820000
v -0.550000 0.520000 2.190000
v -0.390000 0.380000 2.570000
v -0.260000 0.380000 2.570000
v -0.080000 0.220000 2.720000
v -0.470000 0.450000 2.470000
v -0.340000 0.440000 2.470000
v -0.510000 0.480000 2.370000
v -0.390000 0.490000 2.370000
v -0.370000 0.260000 2.570000
v -0.190000 0.100000 2.720000
v -0.440000 0.320000 2.470000
v -0.500000 0.370000 2.370000
v 0.530000 0.440000 0.820000
v 0.420000 0.550000 0.820000
v 0.420000 0.550000 2.190000
v 0.530000 0.440000 2.190000
v 0.530000 0.550000 0.820000
v 0.530000 0.550000 2.190000
v 0.380000 0.390000 2.570000
v 0.360000 0.270000 2.570000
v 0.200000 0.100000 2.720000
v 0.450000 0.470000 2.470000
v 0.430000 0.350000 2.470000
v 0.490000 0.510000 2.370000
v 0.490000 0.380000 2.370000
v 0.260000 0.390000 2.570000
v 0.090000 0.220000 2.720000
v 0.310000 0.460000 2.470000
v 0.380000 0.510000 2.370000
v 0.440000 -0.490000 0.820000
v 0.540000 -0.380000 0.820000
v 0.540000 -0.380000 2.190000
v 0.440000 -0.490000 2.190000
v 0.550000 -0.490000 0.820000
v 0.550000 -0.490000 2.190000
v 0.390000 -0.350000 2.570000
v 0.260000 -0.350000 2.570000
v 0.080000 -0.190000 2.720000
v 0.470000 -0.420000 2.470000
v 0.340000 -0.410000 2.470000
v 0.510000 -0.450000 2.370000
v 0.390000 -0.460000 2.370000
v 0.370000 -0.230000 2.570000
v 0.190000 -0.070000 2.720000
v 0.440000 -0.280000 2.470000
v 0.500000 -0.340000 2.370000
v -0.530000 -0.420000 0.820000
v -0.420000 -0.530000 0.820000
v -0.420000 -0.530000 2.190000
v -0.530000 -0.420000 2.190000
v -0.530000 -0.530000 0.820000
v -0.530000 -0.530000 2.190000
v -0.380000 -0.360000 2.570000
v -0.360000 -0.250000 2.570000
v -0.200000 -0.070000 2.720000
v -0.450000 -0.450000 2.470000
v -0.430000 -0.330000 2.470000
v -0.490000 -0.490000 2.370000
v -0.490000 -0.360000 2.370000
v -0.260000 -0.370000 2.570000
v -0.080000 -0.200000 2.720000
v -0.310000 -0.440000 2.470000
v -0.380000 -0.480000 2.370000
v 0.060000 0.080000 2.810000
v -0.060000 0.080000 2.810000
v -0.060000 -0.040000 2.810000
v 0.060000 -0.040000 2.810000
v 0.000000 0.590000 1.120000
v 0.070000 0.600000 1.090000
v 0.040000 0.530000 1.090000
v -0.050000 0.550000 1.090000
v -0.070000 0.620000 1.100000
v 0.010000 0.660000 1.100000
v 0.020000 0.710000 1.030000
v -0.050000 0.700000 0.820000
v -0.090000 0.650000 0.810000
v -0.110000 0.580000 0.820000
v -0.040000 0.590000 0.740000
v -0.010000 0.640000 0.740000
v -0.010000 0.590000 0.700000
v 0.010000 0.590000 0.670000
v 0.000000 0.610000 0.700000
v -0.070000 0.520000 0.810000
v -0.020000 0.480000 0.820000
v 0.000000 0.550000 0.740000
v 0.040000 0.580000 0.740000
v 0.030000 0.590000 0.710000
v 0.050000 0.500000 0.810000
v 0.110000 0.540000 0.820000
v 0.010000 0.570000 0.710000
v 0.090000 0.660000 0.830000
v 0.140000 0.610000 1.030000
v 0.130000 0.570000 0.920000
v -0.010000 0.730000 0.920000
v 0.020000 0.700000 0.810000
v 0.060000 0.710000 0.920000
v -0.090000 0.510000 1.010000
v -0.060000 0.480000 0.920000
v -0.110000 0.540000 0.920000
v 0.060000 0.470000 1.020000
v 0.120000 0.530000 1.040000
v 0.100000 0.500000 0.920000
v 0.080000 0.670000 1.040000
v -0.020000 0.480000 1.030000
v 0.020000 0.470000 0.920000
v -0.120000 0.580000 1.030000
v -0.120000 0.650000 1.020000
v -0.120000 0.660000 1.010000
v -0.120000 0.670000 0.980000
v -0.120000 0.680000 0.970000
v -0.110000 0.690000 0.950000
v -0.090000 0.700000 0.930000
v -0.080000 0.710000 0.950000
v -0.080000 0.710000 0.970000
v -0.080000 0.700000 1.000000
v -0.070000 0.700000 1.020000
v -0.060000 0.690000 1.030000
v -0.090000 0.670000 1.030000
v 0.150000 0.570000 0.940000
v 0.150000 0.570000 0.950000
v 0.150000 0.560000 0.970000
v 0.140000 0.560000 0.990000
v 0.140000 0.550000 1.010000
v 0.130000 0.550000 1.020000
v 0.120000 0.540000 1.040000
v 0.120000 0.580000 1.030000
v 0.130000 0.610000 1.030000
v 0.140000 0.600000 1.020000
v 0.140000 0.600000 1.000000
v 0.150000 0.590000 0.990000
v 0.150000 0.580000 0.970000
v 0.150000 0.580000 0.950000
v 0.000000 0.450000 0.920000
v 0.000000 0.460000 0.940000
v 0.000000 0.460000 0.960000
v 0.000000 0.460000 0.980000
v -0.010000 0.470000 1.000000
v -0.010000 0.480000 1.020000
v -0.020000 0.500000 1.040000
v 0.030000 0.490000 1.030000
v 0.060000 0.480000 1.030000
v 0.050000 0.470000 1.010000
v 0.050000 0.470000 1.000000
v 0.040000 0.460000 0.980000
v 0.030000 0.460000 0.950000
v 0.020000 0.450000 0.940000
v -0.070000 0.510000 1.020000
v -0.110000 0.510000 0.990000
v -0.130000 0.520000 0.970000
v -0.140000 0.520000 0.950000
v -0.160000 0.540000 0.940000
v -0.160000 0.560000 0.960000
v -0.150000 0.560000 0.980000
v -0.130000 0.570000 1.010000
v -0.110000 0.590000 1.040000
v -0.090000 0.550000 1.030000
v -0.130000 0.570000 0.820000
v -0.130000 0.580000 0.830000
v -0.130000 0.580000 0.860000
v -0.130000 0.590000 0.880000
v -0.130000 0.600000 0.900000
v -0.120000 0.610000 0.910000
v -0.110000 0.620000 0.930000
v -0.110000 0.590000 0.930000
v -0.100000 0.560000 0.940000
v -0.110000 0.560000 0.920000
v -0.120000 0.560000 0.910000
v -0.120000 0.560000 0.890000
v -0.130000 0.560000 0.860000
v -0.130000 0.560000 0.840000
v 0.000000 0.470000 0.900000
v 0.000000 0.460000 0.880000
v -0.010000 0.460000 0.860000
v -0.010000 0.460000 0.830000
v -0.020000 0.460000 0.810000
v -0.030000 0.460000 0.830000
v -0.030000 0.460000 0.850000
v -0.040000 0.470000 0.880000
v -0.050000 0.470000 0.900000
v -0.050000 0.480000 0.910000
v -0.020000 0.480000 0.910000
v 0.000000 0.470000 0.910000
v -0.030000 0.720000 0.720000
v -0.020000 0.720000 0.740000
v -0.010000 0.720000 0.760000
v 0.000000 0.710000 0.780000
v 0.020000 0.710000 0.800000
v 0.040000 0.680000 0.830000
v -0.010000 0.680000 0.840000
v -0.050000 0.680000 0.850000
v -0.040000 0.700000 0.820000
v -0.040000 0.700000 0.810000
v -0.040000 0.710000 0.790000
v -0.040000 0.720000 0.760000
v -0.040000 0.720000 0.740000
v -0.040000 0.590000 0.750000
v -0.050000 0.600000 0.730000
v -0.040000 0.600000 0.710000
v -0.040000 0.600000 0.680000
v -0.040000 0.600000 0.660000
v -0.030000 0.600000 0.640000
v -0.030000 0.620000 0.660000
v -0.030000 0.620000 0.680000
v -0.030000 0.630000 0.710000
v -0.020000 0.640000 0.740000
v -0.020000 0.640000 0.750000
v -0.030000 0.620000 0.750000
v 0.120000 0.600000 0.800000
v 0.130000 0.590000 0.780000
v 0.130000 0.580000 0.760000
v 0.130000 0.570000 0.740000
v 0.130000 0.560000 0.710000
v 0.120000 0.540000 0.740000
v 0.120000 0.540000 0.770000
v 0.110000 0.550000 0.790000
v 0.100000 0.540000 0.820000
v 0.090000 0.540000 0.830000
v 0.100000 0.580000 0.820000
v 0.110000 0.610000 0.820000
v -0.060000 0.580000 0.680000
v -0.070000 0.580000 0.710000
v -0.080000 0.580000 0.740000
v -0.090000 0.570000 0.770000
v -0.100000 0.580000 0.800000
v -0.110000 0.580000 0.830000
v -0.110000 0.590000 0.860000
v -0.090000 0.550000 0.860000
v -0.070000 0.510000 0.850000
v -0.080000 0.520000 0.820000
v -0.070000 0.530000 0.800000
v -0.080000 0.540000 0.770000
v -0.070000 0.550000 0.730000
v -0.060000 0.560000 0.710000
v 0.010000 0.580000 0.620000
v 0.010000 0.570000 0.640000
v 0.010000 0.570000 0.650000
v 0.010000 0.560000 0.680000
v 0.010000 0.550000 0.700000
v 0.010000 0.550000 0.730000
v 0.000000 0.550000 0.750000
v 0.030000 0.560000 0.750000
v 0.040000 0.570000 0.750000
v 0.040000 0.570000 0.720000
v 0.030000 0.570000 0.700000
v 0.030000 0.570000 0.680000
v 0.020000 0.580000 0.650000
v 0.020000 0.580000 0.640000
v 0.100000 0.690000 0.810000
v 0.100000 0.680000 0.830000
v 0.100000 0.680000 0.850000
v 0.100000 0.680000 0.870000
v 0.110000 0.670000 0.890000
v 0.100000 0.670000 0.910000
v 0.100000 0.660000 0.920000
v 0.080000 0.680000 0.920000
v 0.070000 0.700000 0.920000
v 0.070000 0.700000 0.910000
v 0.080000 0.700000 0.890000
v 0.090000 0.700000 0.870000
v 0.090000 0.700000 0.850000
v 0.090000 0.700000 0.830000
v 0.030000 0.720000 1.020000
v 0.040000 0.720000 0.990000
v 0.050000 0.720000 0.980000
v 0.060000 0.720000 0.960000
v 0.070000 0.710000 0.940000
v 0.080000 0.700000 0.960000
v 0.080000 0.700000 0.980000
v 0.080000 0.700000 1.010000
v 0.080000 0.690000 1.030000
v 0.050000 0.690000 1.040000
v 0.500000 0.510000 1.120000
v 0.570000 0.520000 1.090000
v 0.540000 0.450000 1.090000
v 0.450000 0.460000 1.090000
v 0.430000 0.540000 1.100000
v 0.510000 0.580000 1.100000
v 0.520000 0.630000 1.030000
v 0.380000 0.560000 1.030000
v 0.450000 0.610000 0.820000
v 0.410000 0.560000 0.810000
v 0.390000 0.490000 0.820000
v 0.460000 0.500000 0.740000
v 0.490000 0.550000 0.740000
v 0.490000 0.500000 0.700000
v 0.510000 0.500000 0.670000
v 0.480000 0.390000 0.820000
v 0.500000 0.460000 0.740000
v 0.540000 0.490000 0.740000
v 0.540000 0.540000 0.740000
v 0.530000 0.520000 0.710000
v 0.530000 0.500000 0.710000
v 0.610000 0.450000 0.820000
v 0.510000 0.490000 0.710000
v 0.610000 0.520000 0.810000
v 0.590000 0.580000 0.830000
v 0.640000 0.520000 1.030000
v 0.620000 0.560000 0.920000
v 0.630000 0.490000 0.920000
v 0.490000 0.640000 0.920000
v 0.520000 0.610000 0.810000
v 0.560000 0.620000 0.920000
v 0.370000 0.530000 0.920000
v 0.410000 0.600000 0.920000
v 0.410000 0.430000 1.010000
v 0.440000 0.390000 0.920000
v 0.560000 0.380000 1.020000
v 0.580000 0.590000 1.040000
v 0.480000 0.390000 1.030000
v 0.520000 0.380000 0.920000
v 0.380000 0.490000 1.030000
v 0.380000 0.560000 1.020000
v 0.380000 0.580000 1.010000
v 0.380000 0.590000 0.980000
v 0.380000 0.590000 0.970000
v 0.390000 0.600000 0.950000
v 0.410000 0.610000 0.930000
v 0.420000 0.620000 0.950000
v 0.420000 0.620000 0.970000
v 0.420000 0.610000 1.000000
v 0.430000 0.610000 1.020000
v 0.440000 0.600000 1.030000
v 0.410000 0.580000 1.030000
v 0.650000 0.480000 0.940000
v 0.650000 0.480000 0.950000
v 0.650000 0.470000 0.970000
v 0.640000 0.470000 0.990000
v 0.640000 0.460000 1.010000
v 0.630000 0.460000 1.020000
v 0.620000 0.460000 1.040000
v 0.620000 0.490000 1.030000
v 0.630000 0.520000 1.030000
v 0.640000 0.520000 1.020000
v 0.640000 0.510000 1.000000
v 0.650000 0.500000 0.990000
v 0.650000 0.500000 0.970000
v 0.650000 0.500000 0.950000
v 0.500000 0.370000 0.920000
v 0.500000 0.370000 0.940000
v 0.500000 0.370000 0.960000
v 0.500000 0.380000 0.980000
v 0.490000 0.390000 1.000000
v 0.490000 0.400000 1.020000
v 0.480000 0.410000 1.040000
v 0.530000 0.400000 1.030000
v 0.560000 0.400000 1.030000
v 0.550000 0.390000 1.010000
v 0.550000 0.380000 1.000000
v 0.540000 0.370000 0.980000
v 0.530000 0.370000 0.950000
v 0.520000 0.370000 0.940000
v 0.430000 0.430000 1.020000
v 0.390000 0.430000 0.990000
v 0.370000 0.430000 0.970000
v 0.360000 0.440000 0.950000
v 0.340000 0.450000 0.940000
v 0.340000 0.470000 0.960000
v 0.350000 0.470000 0.980000
v 0.370000 0.480000 1.010000
v 0.390000 0.500000 1.040000
v 0.410000 0.460000 1.030000
v 0.370000 0.480000 0.820000
v 0.370000 0.490000 0.830000
v 0.370000 0.500000 0.860000
v 0.370000 0.500000 0.880000
v 0.370000 0.520000 0.900000
v 0.380000 0.520000 0.910000
v 0.390000 0.540000 0.930000
v 0.390000 0.500000 0.930000
v 0.400000 0.470000 0.940000
v 0.390000 0.470000 0.920000
v 0.380000 0.470000 0.910000
v 0.380000 0.470000 0.890000
v 0.370000 0.470000 0.860000
v 0.370000 0.470000 0.840000
v 0.500000 0.380000 0.900000
v 0.500000 0.370000 0.880000
v 0.490000 0.370000 0.860000
v 0.490000 0.370000 0.830000
v 0.480000 0.370000 0.810000
v 0.470000 0.370000 0.830000
v 0.470000 0.370000 0.850000
v 0.460000 0.380000 0.880000
v 0.450000 0.380000 0.900000
v 0.450000 0.390000 0.910000
v 0.480000 0.390000 0.910000
v 0.500000 0.390000 0.910000
v 0.470000 0.640000 0.720000
v 0.480000 0.630000 0.740000
v 0.490000 0.630000 0.760000
v 0.500000 0.630000 0.780000
v 0.520000 0.620000 0.800000
v 0.540000 0.600000 0.830000
v 0.490000 0.600000 0.840000
v 0.450000 0.600000 0.850000
v 0.460000 0.610000 0.820000
v 0.460000 0.620000 0.810000
v 0.460000 0.630000 0.790000
v 0.460000 0.630000 0.760000
v 0.460000 0.630000 0.740000
v 0.460000 0.510000 0.750000
v 0.450000 0.510000 0.730000
v 0.460000 0.510000 0.710000
v 0.460000 0.510000 0.680000
v 0.460000 0.510000 0.660000
v 0.470000 0.520000 0.640000
v 0.470000 0.530000 0.660000
v 0.470000 0.540000 0.680000
v 0.470000 0.540000 0.710000
v 0.480000 0.550000 0.740000
v 0.480000 0.550000 0.750000
v 0.470000 0.530000 0.750000
v 0.620000 0.510000 0.800000
v 0.630000 0.500000 0.780000
v 0.630000 0.500000 0.760000
v 0.630000 0.490000 0.740000
v 0.630000 0.470000 0.710000
v 0.620000 0.460000 0.740000
v 0.620000 0.460000 0.770000
v 0.610000 0.460000 0.790000
v 0.600000 0.450000 0.820000
v 0.590000 0.460000 0.830000
v 0.600000 0.490000 0.820000
v 0.610000 0.520000 0.820000
v 0.440000 0.490000 0.680000
v 0.430000 0.490000 0.710000
v 0.420000 0.490000 0.740000
v 0.410000 0.480000 0.770000
v 0.400000 0.490000 0.800000
v 0.390000 0.490000 0.830000
v 0.390000 0.500000 0.860000
v 0.410000 0.460000 0.860000
v 0.430000 0.430000 0.850000
v 0.420000 0.440000 0.820000
v 0.430000 0.440000 0.800000
v 0.420000 0.450000 0.770000
v 0.430000 0.460000 0.730000
v 0.440000 0.470000 0.710000
v 0.510000 0.490000 0.620000
v 0.510000 0.490000 0.640000
v 0.510000 0.480000 0.650000
v 0.510000 0.470000 0.680000
v 0.510000 0.470000 0.700000
v 0.510000 0.460000 0.730000
v 0.500000 0.460000 0.750000
v 0.530000 0.470000 0.750000
v 0.540000 0.480000 0.750000
v 0.540000 0.480000 0.720000
v 0.530000 0.480000 0.700000
v 0.530000 0.480000 0.680000
v 0.520000 0.490000 0.650000
v 0.520000 0.490000 0.640000
v 0.600000 0.600000 0.810000
v 0.600000 0.600000 0.830000
v 0.600000 0.590000 0.850000
v 0.600000 0.590000 0.870000
v 0.610000 0.580000 0.890000
v 0.600000 0.580000 0.910000
v 0.600000 0.570000 0.920000
v 0.580000 0.590000 0.920000
v 0.570000 0.610000 0.920000
v 0.570000 0.610000 0.910000
v 0.580000 0.610000 0.890000
v 0.590000 0.610000 0.870000
v 0.590000 0.610000 0.850000
v 0.590000 0.610000 0.830000
v 0.520000 0.620000 1.030000
v 0.530000 0.630000 1.020000
v 0.540000 0.630000 0.990000
v 0.550000 0.630000 0.980000
v 0.560000 0.630000 0.960000
v 0.570000 0.620000 0.940000
v 0.580000 0.620000 0.960000
v 0.580000 0.620000 0.980000
v 0.580000 0.610000 1.010000
v 0.580000 0.600000 1.030000
v 0.550000 0.600000 1.040000
v 0.590000 0.010000 1.120000
v 0.660000 0.020000 1.090000
v 0.620000 -0.050000 1.090000
v 0.540000 -0.040000 1.090000
v 0.510000 0.040000 1.100000
v 0.600000 0.080000 1.100000
v 0.530000 0.110000 1.040000
v 0.610000 0.130000 1.030000
v 0.470000 0.060000 1.030000
v 0.540000 0.110000 0.820000
v 0.500000 0.060000 0.810000
v 0.480000 -0.010000 0.820000
v 0.550000 -0.000000 0.740000
v 0.570000 0.050000 0.740000
v 0.600000 -0.000000 0.670000
v 0.590000 0.020000 0.700000
v 0.570000 -0.110000 0.820000
v 0.580000 -0.040000 0.740000
v 0.630000 -0.010000 0.740000
v 0.620000 0.040000 0.740000
v 0.610000 0.020000 0.710000
v 0.620000 -0.000000 0.710000
v 0.640000 -0.090000 0.810000
v 0.700000 -0.050000 0.820000
v 0.600000 -0.010000 0.710000
v 0.700000 0.020000 0.810000
v 0.680000 0.080000 0.830000
v 0.720000 0.020000 1.030000
v 0.710000 0.060000 0.920000
v 0.720000 -0.010000 0.920000
v 0.570000 0.140000 0.920000
v 0.610000 0.110000 0.810000
v 0.460000 0.030000 0.920000
v 0.500000 0.100000 0.920000
v 0.500000 -0.070000 1.010000
v 0.530000 -0.110000 0.920000
v 0.480000 -0.050000 0.920000
v 0.640000 -0.120000 1.020000
v 0.710000 -0.060000 1.040000
v 0.670000 0.090000 1.040000
v 0.570000 -0.110000 1.030000
v 0.610000 -0.120000 0.920000
v 0.470000 -0.010000 1.030000
v 0.470000 0.060000 1.020000
v 0.470000 0.080000 1.010000
v 0.470000 0.090000 0.980000
v 0.470000 0.090000 0.970000
v 0.480000 0.100000 0.950000
v 0.490000 0.110000 0.930000
v 0.500000 0.120000 0.950000
v 0.500000 0.120000 0.970000
v 0.510000 0.110000 1.000000
v 0.520000 0.110000 1.020000
v 0.530000 0.100000 1.030000
v 0.500000 0.080000 1.030000
v 0.740000 -0.020000 0.940000
v 0.740000 -0.020000 0.950000
v 0.730000 -0.030000 0.970000
v 0.730000 -0.030000 0.990000
v 0.720000 -0.040000 1.010000
v 0.720000 -0.040000 1.020000
v 0.700000 -0.040000 1.040000
v 0.710000 -0.010000 1.030000
v 0.710000 0.020000 1.030000
v 0.720000 0.020000 1.020000
v 0.730000 0.010000 1.000000
v 0.740000 -0.000000 0.990000
v 0.740000 -0.000000 0.970000
v 0.740000 -0.000000 0.950000
v 0.590000 -0.130000 0.920000
v 0.590000 -0.130000 0.940000
v 0.580000 -0.130000 0.960000
v 0.590000 -0.120000 0.980000
v 0.580000 -0.110000 1.000000
v 0.580000 -0.100000 1.020000
v 0.570000 -0.090000 1.040000
v 0.620000 -0.100000 1.030000
v 0.650000 -0.100000 1.030000
v 0.640000 -0.110000 1.010000
v 0.630000 -0.120000 1.000000
v 0.620000 -0.130000 0.980000
v 0.610000 -0.130000 0.950000
v 0.610000 -0.130000 0.940000
v 0.520000 -0.070000 1.020000
v 0.490000 -0.070000 1.010000
v 0.470000 -0.070000 0.990000
v 0.460000 -0.070000 0.970000
v 0.450000 -0.060000 0.950000
v 0.430000 -0.050000 0.940000
v 0.430000 -0.030000 0.960000
v 0.440000 -0.030000 0.980000
v 0.450000 -0.020000 1.010000
v 0.480000 -0.000000 1.040000
v 0.500000 -0.040000 1.030000
v 0.460000 -0.020000 0.820000
v 0.460000 -0.010000 0.830000
v 0.460000 -0.000000 0.860000
v 0.460000 -0.000000 0.880000
v 0.460000 0.020000 0.900000
v 0.470000 0.020000 0.910000
v 0.480000 0.040000 0.930000
v 0.480000 -0.000000 0.930000
v 0.490000 -0.030000 0.940000
v 0.480000 -0.030000 0.920000
v 0.470000 -0.030000 0.910000
v 0.460000 -0.030000 0.890000
v 0.460000 -0.030000 0.860000
v 0.460000 -0.030000 0.840000
v 0.590000 -0.120000 0.900000
v 0.580000 -0.130000 0.880000
v 0.580000 -0.130000 0.860000
v 0.580000 -0.130000 0.830000
v 0.570000 -0.130000 0.810000
v 0.560000 -0.130000 0.830000
v 0.550000 -0.130000 0.850000
v 0.550000 -0.120000 0.880000
v 0.540000 -0.120000 0.900000
v 0.540000 -0.110000 0.910000
v 0.560000 -0.110000 0.910000
v 0.590000 -0.110000 0.910000
v 0.560000 0.140000 0.720000
v 0.570000 0.130000 0.740000
v 0.580000 0.130000 0.760000
v 0.590000 0.130000 0.780000
v 0.600000 0.120000 0.800000
v 0.630000 0.100000 0.830000
v 0.580000 0.100000 0.840000
v 0.540000 0.100000 0.850000
v 0.540000 0.120000 0.810000
v 0.550000 0.130000 0.790000
v 0.550000 0.130000 0.760000
v 0.550000 0.130000 0.740000
v 0.550000 0.010000 0.750000
v 0.540000 0.010000 0.730000
v 0.540000 0.010000 0.710000
v 0.540000 0.010000 0.680000
v 0.550000 0.010000 0.660000
v 0.560000 0.020000 0.640000
v 0.560000 0.030000 0.660000
v 0.560000 0.040000 0.680000
v 0.560000 0.040000 0.710000
v 0.560000 0.050000 0.740000
v 0.570000 0.050000 0.750000
v 0.560000 0.030000 0.750000
v 0.710000 0.010000 0.800000
v 0.720000 -0.000000 0.780000
v 0.720000 -0.000000 0.760000
v 0.720000 -0.010000 0.740000
v 0.710000 -0.030000 0.710000
v 0.710000 -0.040000 0.740000
v 0.710000 -0.040000 0.770000
v 0.700000 -0.040000 0.790000
v 0.690000 -0.050000 0.820000
v 0.680000 -0.040000 0.830000
v 0.690000 -0.010000 0.820000
v 0.700000 0.020000 0.820000
v 0.530000 -0.010000 0.680000
v 0.520000 -0.010000 0.710000
v 0.510000 -0.010000 0.740000
v 0.500000 -0.020000 0.770000
v 0.480000 -0.010000 0.800000
v 0.480000 -0.010000 0.830000
v 0.470000 -0.000000 0.860000
v 0.500000 -0.040000 0.860000
v 0.510000 -0.070000 0.850000
v 0.510000 -0.060000 0.820000
v 0.510000 -0.060000 0.800000
v 0.510000 -0.050000 0.770000
v 0.520000 -0.040000 0.730000
v 0.530000 -0.030000 0.710000
v 0.600000 -0.010000 0.620000
v 0.600000 -0.010000 0.640000
v 0.600000 -0.020000 0.650000
v 0.600000 -0.030000 0.680000
v 0.590000 -0.030000 0.700000
v 0.590000 -0.040000 0.730000
v 0.590000 -0.040000 0.750000
v 0.610000 -0.030000 0.750000
v 0.630000 -0.020000 0.750000
v 0.630000 -0.020000 0.720000
v 0.620000 -0.020000 0.700000
v 0.620000 -0.020000 0.680000
v 0.610000 -0.010000 0.650000
v 0.610000 -0.010000 0.640000
v 0.690000 0.100000 0.810000
v 0.690000 0.100000 0.830000
v 0.690000 0.090000 0.850000
v 0.690000 0.090000 0.870000
v 0.700000 0.080000 0.890000
v 0.690000 0.080000 0.910000
v 0.690000 0.070000 0.920000
v 0.670000 0.090000 0.920000
v 0.650000 0.110000 0.920000
v 0.660000 0.110000 0.910000
v 0.670000 0.110000 0.890000
v 0.670000 0.110000 0.870000
v 0.680000 0.110000 0.850000
v 0.680000 0.110000 0.830000
v 0.600000 0.120000 1.030000
v 0.620000 0.130000 1.020000
v 0.630000 0.130000 0.990000
v 0.640000 0.130000 0.980000
v 0.640000 0.130000 0.960000
v 0.660000 0.120000 0.940000
v 0.670000 0.120000 0.960000
v 0.670000 0.120000 0.980000
v 0.670000 0.110000 1.010000
v 0.670000 0.100000 1.030000
v 0.640000 0.100000 1.040000
v 0.500000 -0.490000 1.120000
v 0.570000 -0.480000 1.090000
v 0.430000 -0.460000 1.100000
v 0.510000 -0.420000 1.100000
v 0.520000 -0.370000 1.030000
v 0.380000 -0.440000 1.030000
v 0.450000 -0.390000 0.820000
v 0.410000 -0.440000 0.810000
v 0.390000 -0.510000 0.820000
v 0.460000 -0.500000 0.740000
v 0.490000 -0.450000 0.740000
v 0.510000 -0.500000 0.670000
v 0.500000 -0.480000 0.700000
v 0.430000 -0.570000 0.810000
v 0.480000 -0.610000 0.820000
v 0.500000 -0.540000 0.740000
v 0.540000 -0.510000 0.740000
v 0.540000 -0.460000 0.740000
v 0.530000 -0.480000 0.710000
v 0.530000 -0.500000 0.710000
v 0.510000 -0.510000 0.710000
v 0.590000 -0.420000 0.830000
v 0.640000 -0.480000 1.030000
v 0.620000 -0.440000 0.920000
v 0.490000 -0.360000 0.920000
v 0.520000 -0.390000 0.810000
v 0.560000 -0.380000 0.920000
v 0.370000 -0.470000 0.920000
v 0.410000 -0.570000 1.010000
v 0.440000 -0.610000 0.920000
v 0.390000 -0.550000 0.920000
v 0.580000 -0.410000 1.040000
v 0.380000 -0.510000 1.030000
v 0.380000 -0.440000 1.020000
v 0.380000 -0.420000 1.010000
v 0.380000 -0.410000 0.980000
v 0.380000 -0.410000 0.970000
v 0.390000 -0.400000 0.950000
v 0.410000 -0.390000 0.930000
v 0.420000 -0.380000 0.950000
v 0.420000 -0.380000 0.970000
v 0.420000 -0.390000 1.000000
v 0.430000 -0.390000 1.020000
v 0.440000 -0.400000 1.030000
v 0.410000 -0.420000 1.030000
v 0.650000 -0.520000 0.940000
v 0.650000 -0.520000 0.950000
v 0.650000 -0.530000 0.970000
v 0.640000 -0.530000 0.990000
v 0.640000 -0.540000 1.010000
v 0.630000 -0.540000 1.020000
v 0.620000 -0.540000 1.040000
v 0.620000 -0.510000 1.030000
v 0.630000 -0.480000 1.030000
v 0.640000 -0.480000 1.020000
v 0.640000 -0.490000 1.000000
v 0.650000 -0.500000 0.990000
v 0.650000 -0.500000 0.970000
v 0.650000 -0.500000 0.950000
v 0.500000 -0.630000 0.920000
v 0.500000 -0.630000 0.940000
v 0.500000 -0.630000 0.960000
v 0.500000 -0.620000 0.980000
v 0.490000 -0.610000 1.000000
v 0.490000 -0.600000 1.020000
v 0.480000 -0.590000 1.040000
v 0.530000 -0.600000 1.030000
v 0.560000 -0.600000 1.030000
v 0.550000 -0.610000 1.010000
v 0.550000 -0.620000 1.000000
v 0.540000 -0.630000 0.980000
v 0.530000 -0.630000 0.950000
v 0.520000 -0.630000 0.940000
v 0.430000 -0.570000 1.020000
v 0.390000 -0.570000 0.990000
v 0.370000 -0.570000 0.970000
v 0.360000 -0.560000 0.950000
v 0.340000 -0.550000 0.940000
v 0.340000 -0.530000 0.960000
v 0.350000 -0.530000 0.980000
v 0.370000 -0.520000 1.010000
v 0.390000 -0.500000 1.040000
v 0.410000 -0.540000 1.030000
v 0.370000 -0.520000 0.820000
v 0.370000 -0.510000 0.830000
v 0.370000 -0.500000 0.860000
v 0.370000 -0.500000 0.880000
v 0.370000 -0.480000 0.900000
v 0.380000 -0.480000 0.910000
v 0.390000 -0.460000 0.930000
v 0.390000 -0.500000 0.930000
v 0.400000 -0.530000 0.940000
v 0.390000 -0.530000 0.920000
v 0.380000 -0.530000 0.910000
v 0.380000 -0.530000 0.890000
v 0.370000 -0.530000 0.860000
v 0.370000 -0.530000 0.840000
v 0.500000 -0.620000 0.900000
v 0.500000 -0.630000 0.880000
v 0.490000 -0.630000 0.860000
v 0.490000 -0.630000 0.830000
v 0.480000 -0.630000 0.810000
v 0.470000 -0.630000 0.830000
v 0.470000 -0.630000 0.850000
v 0.460000 -0.620000 0.880000
v 0.450000 -0.620000 0.900000
v 0.450000 -0.610000 0.910000
v 0.480000 -0.610000 0.910000
v 0.500000 -0.610000 0.910000
v 0.470000 -0.360000 0.720000
v 0.480000 -0.370000 0.740000
v 0.490000 -0.370000 0.760000
v 0.500000 -0.370000 0.780000
v 0.520000 -0.380000 0.800000
v 0.540000 -0.400000 0.830000
v 0.490000 -0.400000 0.840000
v 0.450000 -0.400000 0.850000
v 0.460000 -0.390000 0.820000
v 0.460000 -0.380000 0.810000
v 0.460000 -0.370000 0.790000
v 0.460000 -0.370000 0.760000
v 0.460000 -0.370000 0.740000
v 0.460000 -0.490000 0.750000
v 0.450000 -0.490000 0.730000
v 0.460000 -0.490000 0.710000
v 0.460000 -0.490000 0.680000
v 0.460000 -0.490000 0.660000
v 0.470000 -0.480000 0.640000
v 0.470000 -0.470000 0.660000
v 0.470000 -0.460000 0.680000
v 0.470000 -0.460000 0.710000
v 0.480000 -0.450000 0.740000
v 0.480000 -0.450000 0.750000
v 0.470000 -0.470000 0.750000
v 0.620000 -0.490000 0.800000
v 0.630000 -0.500000 0.780000
v 0.630000 -0.500000 0.760000
v 0.630000 -0.510000 0.740000
v 0.630000 -0.530000 0.710000
v 0.620000 -0.540000 0.740000
v 0.620000 -0.540000 0.770000
v 0.610000 -0.540000 0.790000
v 0.600000 -0.550000 0.820000
v 0.590000 -0.540000 0.830000
v 0.600000 -0.510000 0.820000
v 0.610000 -0.480000 0.820000
v 0.440000 -0.510000 0.680000
v 0.430000 -0.510000 0.710000
v 0.420000 -0.510000 0.740000
v 0.410000 -0.520000 0.770000
v 0.400000 -0.510000 0.800000
v 0.390000 -0.510000 0.830000
v 0.390000 -0.500000 0.860000
v 0.410000 -0.540000 0.860000
v 0.430000 -0.570000 0.850000
v 0.420000 -0.560000 0.820000
v 0.430000 -0.560000 0.800000
v 0.420000 -0.550000 0.770000
v 0.430000 -0.540000 0.730000
v 0.440000 -0.530000 0.710000
v 0.510000 -0.510000 0.620000
v 0.510000 -0.510000 0.640000
v 0.510000 -0.520000 0.650000
v 0.510000 -0.530000 0.680000
v 0.510000 -0.530000 0.700000
v 0.510000 -0.540000 0.730000
v 0.500000 -0.540000 0.750000
v 0.530000 -0.530000 0.750000
v 0.540000 -0.520000 0.750000
v 0.540000 -0.520000 0.720000
v 0.530000 -0.520000 0.700000
v 0.530000 -0.520000 0.680000
v 0.520000 -0.510000 0.650000
v 0.520000 -0.510000 0.640000
v 0.600000 -0.400000 0.810000
v 0.600000 -0.400000 0.830000
v 0.600000 -0.410000 0.850000
v 0.600000 -0.410000 0.870000
v 0.610000 -0.420000 0.890000
v 0.600000 -0.420000 0.910000
v 0.600000 -0.430000 0.920000
v 0.580000 -0.410000 0.920000
v 0.570000 -0.390000 0.920000
v 0.570000 -0.390000 0.910000
v 0.580000 -0.390000 0.890000
v 0.590000 -0.390000 0.870000
v 0.590000 -0.390000 0.850000
v 0.590000 -0.390000 0.830000
v 0.520000 -0.380000 1.030000
v 0.530000 -0.370000 1.020000
v 0.540000 -0.370000 0.990000
v 0.550000 -0.370000 0.980000
v 0.560000 -0.370000 0.960000
v 0.570000 -0.380000 0.940000
v 0.580000 -0.380000 0.960000
v 0.580000 -0.380000 0.980000
v 0.580000 -0.390000 1.010000
v 0.580000 -0.400000 1.030000
v 0.550000 -0.400000 1.040000
v -0.000000 -0.580000 1.120000
v 0.070000 -0.570000 1.090000
v 0.040000 -0.640000 1.090000
v -0.050000 -0.630000 1.090000
v -0.070000 -0.550000 1.100000
v 0.010000 -0.510000 1.100000
v -0.050000 -0.480000 1.040000
v 0.020000 -0.460000 1.030000
v -0.120000 -0.530000 1.030000
v -0.050000 -0.470000 0.820000
v -0.110000 -0.590000 0.820000
v -0.040000 -0.590000 0.740000
v -0.010000 -0.590000 0.700000
v 0.010000 -0.580000 0.670000
v -0.020000 -0.690000 0.820000
v -0.000000 -0.620000 0.740000
v 0.040000 -0.600000 0.740000
v 0.040000 -0.550000 0.740000
v 0.030000 -0.590000 0.710000
v 0.050000 -0.680000 0.810000
v 0.110000 -0.630000 0.820000
v 0.010000 -0.600000 0.710000
v 0.110000 -0.570000 0.810000
v 0.090000 -0.510000 0.830000
v 0.140000 -0.560000 1.030000
v 0.120000 -0.520000 0.920000
v 0.130000 -0.600000 0.920000
v -0.010000 -0.450000 0.920000
v 0.020000 -0.480000 0.810000
v 0.060000 -0.470000 0.920000
v -0.130000 -0.560000 0.920000
v -0.090000 -0.660000 1.010000
v -0.110000 -0.640000 0.920000
v 0.060000 -0.700000 1.020000
v 0.120000 -0.640000 1.040000
v 0.100000 -0.670000 0.920000
v 0.080000 -0.500000 1.040000
v 0.020000 -0.710000 0.920000
v -0.120000 -0.590000 1.030000
v -0.120000 -0.530000 1.020000
v -0.120000 -0.510000 1.010000
v -0.120000 -0.500000 0.980000
v -0.120000 -0.490000 0.970000
v -0.110000 -0.490000 0.950000
v -0.090000 -0.470000 0.930000
v -0.080000 -0.470000 0.950000
v -0.080000 -0.470000 0.970000
v -0.080000 -0.470000 1.000000
v -0.070000 -0.470000 1.020000
v -0.060000 -0.490000 1.030000
v -0.090000 -0.510000 1.030000
v 0.150000 -0.610000 0.940000
v 0.150000 -0.610000 0.950000
v 0.150000 -0.620000 0.970000
v 0.140000 -0.610000 0.990000
v 0.140000 -0.620000 1.010000
v 0.130000 -0.630000 1.020000
v 0.120000 -0.630000 1.040000
v 0.120000 -0.600000 1.030000
v 0.130000 -0.560000 1.030000
v 0.140000 -0.570000 1.020000
v 0.140000 -0.580000 1.000000
v 0.150000 -0.580000 0.990000
v 0.150000 -0.590000 0.970000
v 0.150000 -0.590000 0.950000
v -0.000000 -0.720000 0.920000
v -0.000000 -0.720000 0.940000
v -0.000000 -0.710000 0.960000
v -0.000000 -0.710000 0.980000
v -0.010000 -0.700000 1.000000
v -0.010000 -0.690000 1.020000
v -0.020000 -0.680000 1.040000
v 0.030000 -0.690000 1.030000
v 0.060000 -0.690000 1.030000
v 0.050000 -0.700000 1.010000
v 0.050000 -0.710000 1.000000
v 0.040000 -0.720000 0.980000
v 0.030000 -0.720000 0.950000
v 0.020000 -0.720000 0.940000
v -0.070000 -0.660000 1.020000
v -0.110000 -0.660000 0.990000
v -0.130000 -0.660000 0.970000
v -0.140000 -0.650000 0.950000
v -0.160000 -0.630000 0.940000
v -0.160000 -0.620000 0.960000
v -0.150000 -0.620000 0.980000
v -0.130000 -0.610000 1.010000
v -0.120000 -0.600000 1.030000
v -0.110000 -0.590000 1.040000
v -0.090000 -0.620000 1.030000
v -0.130000 -0.610000 0.820000
v -0.130000 -0.600000 0.830000
v -0.130000 -0.590000 0.860000
v -0.130000 -0.590000 0.880000
v -0.130000 -0.570000 0.900000
v -0.120000 -0.570000 0.910000
v -0.110000 -0.550000 0.930000
v -0.110000 -0.590000 0.930000
v -0.100000 -0.620000 0.940000
v -0.110000 -0.620000 0.920000
v -0.120000 -0.620000 0.910000
v -0.120000 -0.620000 0.890000
v -0.130000 -0.620000 0.860000
v -0.130000 -0.620000 0.840000
v -0.000000 -0.710000 0.900000
v -0.000000 -0.710000 0.880000
v -0.010000 -0.720000 0.860000
v -0.010000 -0.720000 0.830000
v -0.020000 -0.710000 0.810000
v -0.030000 -0.710000 0.830000
v -0.030000 -0.710000 0.850000
v -0.040000 -0.710000 0.880000
v -0.050000 -0.700000 0.900000
v -0.050000 -0.700000 0.910000
v -0.020000 -0.700000 0.910000
v -0.000000 -0.700000 0.910000
v -0.030000 -0.450000 0.720000
v -0.020000 -0.450000 0.740000
v -0.010000 -0.460000 0.760000
v -0.000000 -0.460000 0.780000
v 0.020000 -0.470000 0.800000
v 0.040000 -0.490000 0.830000
v -0.010000 -0.490000 0.840000
v -0.050000 -0.490000 0.850000
v -0.040000 -0.480000 0.820000
v -0.040000 -0.470000 0.810000
v -0.040000 -0.460000 0.790000
v -0.040000 -0.460000 0.760000
v -0.040000 -0.460000 0.740000
v -0.040000 -0.580000 0.750000
v -0.050000 -0.580000 0.730000
v -0.040000 -0.580000 0.710000
v -0.040000 -0.580000 0.680000
v -0.040000 -0.580000 0.660000
v -0.030000 -0.570000 0.640000
v -0.030000 -0.560000 0.660000
v -0.030000 -0.550000 0.680000
v -0.030000 -0.550000 0.710000
v -0.020000 -0.540000 0.740000
v -0.020000 -0.540000 0.750000
v -0.030000 -0.560000 0.750000
v 0.120000 -0.570000 0.800000
v 0.130000 -0.580000 0.780000
v 0.130000 -0.590000 0.760000
v 0.130000 -0.600000 0.740000
v 0.130000 -0.620000 0.710000
v 0.120000 -0.630000 0.740000
v 0.120000 -0.630000 0.770000
v 0.110000 -0.630000 0.790000
v 0.100000 -0.640000 0.820000
v 0.090000 -0.630000 0.830000
v 0.100000 -0.600000 0.820000
v 0.110000 -0.560000 0.820000
v -0.060000 -0.600000 0.680000
v -0.070000 -0.600000 0.710000
v -0.080000 -0.600000 0.740000
v -0.090000 -0.600000 0.770000
v -0.100000 -0.600000 0.800000
v -0.110000 -0.600000 0.830000
v -0.110000 -0.590000 0.860000
v -0.090000 -0.630000 0.860000
v -0.070000 -0.660000 0.850000
v -0.080000 -0.650000 0.820000
v -0.070000 -0.650000 0.800000
v -0.080000 -0.640000 0.770000
v -0.070000 -0.620000 0.730000
v -0.060000 -0.620000 0.710000
v 0.010000 -0.600000 0.620000
v 0.010000 -0.600000 0.640000
v 0.010000 -0.610000 0.650000
v 0.010000 -0.620000 0.680000
v 0.010000 -0.620000 0.700000
v 0.010000 -0.620000 0.730000
v -0.000000 -0.630000 0.750000
v 0.030000 -0.620000 0.750000
v 0.040000 -0.610000 0.750000
v 0.040000 -0.610000 0.720000
v 0.030000 -0.610000 0.700000
v 0.030000 -0.610000 0.680000
v 0.020000 -0.600000 0.650000
v 0.020000 -0.600000 0.640000
v 0.100000 -0.490000 0.810000
v 0.100000 -0.490000 0.830000
v 0.100000 -0.500000 0.850000
v 0.100000 -0.500000 0.870000
v 0.110000 -0.500000 0.890000
v 0.100000 -0.510000 0.910000
v 0.100000 -0.520000 0.920000
v 0.080000 -0.500000 0.920000
v 0.070000 -0.480000 0.920000
v 0.070000 -0.480000 0.910000
v 0.080000 -0.480000 0.890000
v 0.090000 -0.480000 0.870000
v 0.090000 -0.480000 0.850000
v 0.090000 -0.480000 0.830000
v 0.020000 -0.470000 1.030000
v 0.030000 -0.460000 1.020000
v 0.040000 -0.460000 0.990000
v 0.050000 -0.450000 0.980000
v 0.060000 -0.460000 0.960000
v 0.070000 -0.460000 0.940000
v 0.080000 -0.470000 0.960000
v 0.080000 -0.470000 0.980000
v 0.080000 -0.480000 1.010000
v 0.080000 -0.490000 1.030000
v 0.050000 -0.490000 1.040000
v -0.500000 -0.490000 1.120000
v -0.430000 -0.480000 1.090000
v -0.460000 -0.550000 1.090000
v -0.550000 -0.540000 1.090000
v -0.570000 -0.460000 1.100000
v -0.490000 -0.420000 1.100000
v -0.550000 -0.390000 1.040000
v -0.480000 -0.370000 1.030000
v -0.620000 -0.440000 1.030000
v -0.550000 -0.390000 0.820000
v -0.590000 -0.440000 0.810000
v -0.610000 -0.510000 0.820000
v -0.540000 -0.500000 0.740000
v -0.510000 -0.450000 0.740000
v -0.490000 -0.500000 0.670000
v -0.500000 -0.480000 0.700000
v -0.520000 -0.610000 0.820000
v -0.500000 -0.540000 0.740000
v -0.460000 -0.510000 0.740000
v -0.460000 -0.460000 0.740000
v -0.470000 -0.480000 0.710000
v -0.470000 -0.500000 0.710000
v -0.450000 -0.590000 0.810000
v -0.390000 -0.550000 0.820000
v -0.490000 -0.510000 0.710000
v -0.390000 -0.480000 0.810000
v -0.410000 -0.420000 0.830000
v -0.360000 -0.480000 1.030000
v -0.380000 -0.440000 0.920000
v -0.370000 -0.510000 0.920000
v -0.510000 -0.360000 0.920000
v -0.480000 -0.390000 0.810000
v -0.440000 -0.380000 0.920000
v -0.630000 -0.470000 0.920000
v -0.590000 -0.400000 0.920000
v -0.590000 -0.570000 1.010000
v -0.610000 -0.550000 0.920000
v -0.440000 -0.620000 1.020000
v -0.380000 -0.560000 1.040000
v -0.400000 -0.590000 0.920000
v -0.420000 -0.410000 1.040000
v -0.620000 -0.510000 1.030000
v -0.620000 -0.440000 1.020000
v -0.620000 -0.420000 1.010000
v -0.620000 -0.410000 0.980000
v -0.620000 -0.410000 0.970000
v -0.610000 -0.400000 0.950000
v -0.590000 -0.390000 0.930000
v -0.580000 -0.380000 0.950000
v -0.580000 -0.380000 0.970000
v -0.580000 -0.390000 1.000000
v -0.570000 -0.390000 1.020000
v -0.560000 -0.400000 1.030000
v -0.590000 -0.420000 1.030000
v -0.350000 -0.520000 0.940000
v -0.350000 -0.520000 0.950000
v -0.350000 -0.530000 0.970000
v -0.360000 -0.530000 0.990000
v -0.360000 -0.540000 1.010000
v -0.370000 -0.540000 1.020000
v -0.380000 -0.540000 1.040000
v -0.380000 -0.510000 1.030000
v -0.370000 -0.480000 1.030000
v -0.360000 -0.480000 1.020000
v -0.360000 -0.490000 1.000000
v -0.350000 -0.500000 0.990000
v -0.350000 -0.500000 0.970000
v -0.350000 -0.500000 0.950000
v -0.500000 -0.630000 0.920000
v -0.500000 -0.630000 0.940000
v -0.500000 -0.630000 0.960000
v -0.500000 -0.620000 0.980000
v -0.510000 -0.610000 1.000000
v -0.510000 -0.600000 1.020000
v -0.520000 -0.590000 1.040000
v -0.470000 -0.600000 1.030000
v -0.440000 -0.600000 1.030000
v -0.450000 -0.610000 1.010000
v -0.450000 -0.620000 1.000000
v -0.460000 -0.630000 0.980000
v -0.470000 -0.630000 0.950000
v -0.480000 -0.630000 0.940000
v -0.570000 -0.570000 1.020000
v -0.610000 -0.570000 0.990000
v -0.630000 -0.570000 0.970000
v -0.640000 -0.560000 0.950000
v -0.660000 -0.550000 0.940000
v -0.660000 -0.530000 0.960000
v -0.650000 -0.530000 0.980000
v -0.630000 -0.520000 1.010000
v -0.610000 -0.500000 1.040000
v -0.590000 -0.540000 1.030000
v -0.630000 -0.520000 0.820000
v -0.630000 -0.510000 0.830000
v -0.630000 -0.500000 0.860000
v -0.630000 -0.500000 0.880000
v -0.630000 -0.480000 0.900000
v -0.620000 -0.480000 0.910000
v -0.610000 -0.460000 0.930000
v -0.610000 -0.500000 0.930000
v -0.600000 -0.530000 0.940000
v -0.610000 -0.530000 0.920000
v -0.620000 -0.530000 0.910000
v -0.620000 -0.530000 0.890000
v -0.630000 -0.530000 0.860000
v -0.630000 -0.530000 0.840000
v -0.500000 -0.620000 0.900000
v -0.500000 -0.630000 0.880000
v -0.510000 -0.630000 0.860000
v -0.510000 -0.630000 0.830000
v -0.520000 -0.630000 0.810000
v -0.530000 -0.630000 0.830000
v -0.530000 -0.630000 0.850000
v -0.540000 -0.620000 0.880000
v -0.550000 -0.620000 0.900000
v -0.550000 -0.610000 0.910000
v -0.520000 -0.610000 0.910000
v -0.500000 -0.610000 0.910000
v -0.530000 -0.360000 0.720000
v -0.520000 -0.370000 0.740000
v -0.510000 -0.370000 0.760000
v -0.500000 -0.370000 0.780000
v -0.480000 -0.380000 0.800000
v -0.460000 -0.400000 0.830000
v -0.510000 -0.400000 0.840000
v -0.550000 -0.400000 0.850000
v -0.540000 -0.390000 0.820000
v -0.540000 -0.380000 0.810000
v -0.540000 -0.370000 0.790000
v -0.540000 -0.370000 0.760000
v -0.540000 -0.370000 0.740000
v -0.540000 -0.490000 0.750000
v -0.550000 -0.490000 0.730000
v -0.540000 -0.490000 0.710000
v -0.540000 -0.490000 0.680000
v -0.540000 -0.490000 0.660000
v -0.530000 -0.480000 0.640000
v -0.530000 -0.470000 0.660000
v -0.530000 -0.460000 0.680000
v -0.530000 -0.460000 0.710000
v -0.520000 -0.450000 0.740000
v -0.520000 -0.450000 0.750000
v -0.530000 -0.470000 0.750000
v -0.380000 -0.490000 0.800000
v -0.370000 -0.500000 0.780000
v -0.370000 -0.500000 0.760000
v -0.370000 -0.510000 0.740000
v -0.370000 -0.530000 0.710000
v -0.380000 -0.540000 0.740000
v -0.380000 -0.540000 0.770000
v -0.390000 -0.540000 0.790000
v -0.400000 -0.550000 0.820000
v -0.410000 -0.540000 0.830000
v -0.400000 -0.510000 0.820000
v -0.390000 -0.480000 0.820000
v -0.560000 -0.510000 0.680000
v -0.570000 -0.510000 0.710000
v -0.580000 -0.510000 0.740000
v -0.590000 -0.520000 0.770000
v -0.600000 -0.510000 0.800000
v -0.610000 -0.510000 0.830000
v -0.610000 -0.500000 0.860000
v -0.590000 -0.540000 0.860000
v -0.570000 -0.570000 0.850000
v -0.580000 -0.560000 0.820000
v -0.570000 -0.560000 0.800000
v -0.580000 -0.550000 0.770000
v -0.570000 -0.540000 0.730000
v -0.560000 -0.530000 0.710000
v -0.490000 -0.510000 0.620000
v -0.490000 -0.510000 0.640000
v -0.490000 -0.520000 0.650000
v -0.490000 -0.530000 0.680000
v -0.490000 -0.530000 0.700000
v -0.490000 -0.540000 0.730000
v -0.500000 -0.540000 0.750000
v -0.470000 -0.530000 0.750000
v -0.460000 -0.520000 0.750000
v -0.460000 -0.520000 0.720000
v -0.470000 -0.520000 0.700000
v -0.470000 -0.520000 0.680000
v -0.480000 -0.510000 0.650000
v -0.480000 -0.510000 0.640000
v -0.400000 -0.400000 0.810000
v -0.400000 -0.400000 0.830000
v -0.400000 -0.410000 0.850000
v -0.400000 -0.410000 0.870000
v -0.390000 -0.420000 0.890000
v -0.400000 -0.420000 0.910000
v -0.400000 -0.430000 0.920000
v -0.420000 -0.410000 0.920000
v -0.430000 -0.390000 0.920000
v -0.430000 -0.390000 0.910000
v -0.420000 -0.390000 0.890000
v -0.410000 -0.390000 0.870000
v -0.410000 -0.390000 0.850000
v -0.410000 -0.390000 0.830000
v -0.480000 -0.380000 1.030000
v -0.470000 -0.370000 1.020000
v -0.460000 -0.370000 0.990000
v -0.450000 -0.370000 0.980000
v -0.440000 -0.370000 0.960000
v -0.430000 -0.380000 0.940000
v -0.420000 -0.380000 0.960000
v -0.420000 -0.380000 0.980000
v -0.420000 -0.390000 1.010000
v -0.420000 -0.400000 1.030000
v -0.450000 -0.400000 1.040000
v -0.590000 0.010000 1.120000
v -0.510000 0.020000 1.090000
v -0.550000 -0.050000 1.090000
v -0.640000 -0.040000 1.090000
v -0.660000 0.040000 1.100000
v -0.580000 0.080000 1.100000
v -0.640000 0.110000 1.040000
v -0.570000 0.130000 1.030000
v -0.710000 0.060000 1.030000
v -0.630000 0.110000 0.820000
v -0.600000 0.050000 0.740000
v -0.570000 0.000000 0.670000
v -0.590000 0.020000 0.700000
v -0.540000 -0.010000 0.740000
v -0.550000 0.040000 0.740000
v -0.560000 0.020000 0.710000
v -0.560000 0.000000 0.710000
v -0.480000 -0.050000 0.820000
v -0.500000 0.080000 0.830000
v -0.450000 0.020000 1.030000
v -0.450000 -0.010000 0.920000
v -0.600000 0.140000 0.920000
v -0.560000 0.110000 0.810000
v -0.520000 0.120000 0.920000
v -0.680000 0.100000 0.920000
v -0.680000 -0.070000 1.010000
v -0.530000 -0.120000 1.020000
v -0.470000 -0.060000 1.040000
v -0.490000 -0.090000 0.920000
v -0.500000 0.090000 1.040000
v -0.610000 -0.110000 1.030000
v -0.710000 -0.010000 1.030000
v -0.700000 0.060000 1.020000
v -0.710000 0.080000 1.010000
v -0.710000 0.090000 0.980000
v -0.700000 0.090000 0.970000
v -0.700000 0.100000 0.950000
v -0.680000 0.110000 0.930000
v -0.670000 0.120000 0.950000
v -0.670000 0.120000 0.970000
v -0.660000 0.110000 1.000000
v -0.650000 0.110000 1.020000
v -0.650000 0.100000 1.030000
v -0.670000 0.080000 1.030000
v -0.440000 -0.020000 0.940000
v -0.440000 -0.020000 0.950000
v -0.440000 -0.030000 0.970000
v -0.440000 -0.030000 0.990000
v -0.450000 -0.040000 1.010000
v -0.460000 -0.040000 1.020000
v -0.470000 -0.040000 1.040000
v -0.470000 -0.010000 1.030000
v -0.460000 0.020000 1.030000
v -0.450000 0.020000 1.020000
v -0.450000 0.010000 1.000000
v -0.440000 0.000000 0.990000
v -0.440000 0.000000 0.970000
v -0.440000 0.000000 0.950000
v -0.580000 -0.130000 0.920000
v -0.590000 -0.130000 0.940000
v -0.590000 -0.130000 0.960000
v -0.590000 -0.120000 0.980000
v -0.600000 -0.110000 1.000000
v -0.600000 -0.100000 1.020000
v -0.600000 -0.090000 1.040000
v -0.560000 -0.100000 1.030000
v -0.520000 -0.100000 1.030000
v -0.530000 -0.110000 1.010000
v -0.540000 -0.120000 1.000000
v -0.550000 -0.130000 0.980000
v -0.560000 -0.130000 0.950000
v -0.570000 -0.130000 0.940000
v -0.660000 -0.070000 1.020000
v -0.700000 -0.070000 0.990000
v -0.720000 -0.070000 0.970000
v -0.730000 -0.060000 0.950000
v -0.740000 -0.050000 0.940000
v -0.750000 -0.030000 0.960000
v -0.740000 -0.030000 0.980000
v -0.720000 -0.020000 1.010000
v -0.690000 0.000000 1.040000
v -0.680000 -0.040000 1.030000
v -0.720000 -0.020000 0.820000
v -0.720000 -0.010000 0.830000
v -0.720000 0.000000 0.860000
v -0.720000 0.000000 0.880000
v -0.720000 0.020000 0.900000
v -0.710000 0.020000 0.910000
v -0.700000 0.040000 0.930000
v -0.690000 0.000000 0.930000
v -0.690000 -0.030000 0.940000
v -0.700000 -0.030000 0.920000
v -0.710000 -0.030000 0.910000
v -0.710000 -0.030000 0.890000
v -0.720000 -0.030000 0.860000
v -0.710000 -0.030000 0.840000
v -0.590000 -0.120000 0.900000
v -0.590000 -0.130000 0.880000
v -0.590000 -0.130000 0.860000
v -0.600000 -0.130000 0.830000
v -0.610000 -0.130000 0.810000
v -0.620000 -0.130000 0.830000
v -0.620000 -0.130000 0.850000
v -0.630000 -0.120000 0.880000
v -0.640000 -0.120000 0.900000
v -0.640000 -0.110000 0.910000
v -0.610000 -0.110000 0.910000
v -0.590000 -0.110000 0.910000
v -0.620000 0.140000 0.720000
v -0.610000 0.130000 0.740000
v -0.590000 0.130000 0.760000
v -0.590000 0.130000 0.780000
v -0.570000 0.120000 0.800000
v -0.550000 0.100000 0.830000
v -0.600000 0.100000 0.840000
v -0.640000 0.100000 0.850000
v -0.630000 0.120000 0.810000
v -0.630000 0.130000 0.790000
v -0.630000 0.130000 0.760000
v -0.630000 0.130000 0.740000
v -0.630000 0.010000 0.750000
v -0.630000 0.010000 0.730000
v -0.630000 0.010000 0.710000
v -0.630000 0.010000 0.680000
v -0.630000 0.010000 0.660000
v -0.620000 0.020000 0.640000
v -0.610000 0.030000 0.660000
v -0.620000 0.040000 0.680000
v -0.620000 0.040000 0.710000
v -0.610000 0.050000 0.740000
v -0.610000 0.050000 0.750000
v -0.620000 0.030000 0.750000
v -0.470000 0.010000 0.800000
v -0.460000 0.000000 0.780000
v -0.460000 0.000000 0.760000
v -0.460000 -0.010000 0.740000
v -0.460000 -0.030000 0.710000
v -0.460000 -0.040000 0.740000
v -0.470000 -0.040000 0.770000
v -0.480000 -0.040000 0.790000
v -0.500000 -0.040000 0.830000
v -0.490000 -0.010000 0.820000
v -0.480000 0.020000 0.820000
v -0.640000 -0.010000 0.680000
v -0.660000 -0.010000 0.710000
v -0.670000 -0.010000 0.740000
v -0.680000 -0.020000 0.770000
v -0.690000 -0.010000 0.800000
v -0.700000 -0.010000 0.830000
v -0.700000 0.000000 0.860000
v -0.680000 -0.040000 0.860000
v -0.660000 -0.070000 0.850000
v -0.660000 -0.060000 0.820000
v -0.660000 -0.060000 0.800000
v -0.660000 -0.050000 0.770000
v -0.650000 -0.040000 0.730000
v -0.650000 -0.030000 0.710000
v -0.580000 -0.010000 0.620000
v -0.580000 -0.010000 0.640000
v -0.580000 -0.020000 0.650000
v -0.580000 -0.030000 0.680000
v -0.580000 -0.030000 0.700000
v -0.580000 -0.040000 0.730000
v -0.580000 -0.040000 0.750000
v -0.560000 -0.030000 0.750000
v -0.540000 -0.020000 0.750000
v -0.550000 -0.020000 0.720000
v -0.550000 -0.020000 0.700000
v -0.560000 -0.020000 0.680000
v -0.560000 -0.010000 0.650000
v -0.570000 -0.010000 0.640000
v -0.490000 0.100000 0.810000
v -0.490000 0.100000 0.830000
v -0.480000 0.090000 0.850000
v -0.480000 0.090000 0.870000
v -0.480000 0.080000 0.890000
v -0.480000 0.080000 0.910000
v -0.480000 0.070000 0.920000
v -0.500000 0.090000 0.920000
v -0.520000 0.110000 0.920000
v -0.510000 0.110000 0.910000
v -0.510000 0.110000 0.890000
v -0.500000 0.110000 0.870000
v -0.500000 0.110000 0.850000
v -0.500000 0.110000 0.830000
v -0.570000 0.120000 1.030000
v -0.560000 0.130000 1.020000
v -0.550000 0.130000 0.990000
v -0.540000 0.130000 0.980000
v -0.530000 0.130000 0.960000
v -0.520000 0.120000 0.940000
v -0.500000 0.120000 0.960000
v -0.500000 0.120000 0.980000
v -0.510000 0.110000 1.010000
v -0.500000 0.100000 1.030000
v -0.510000 0.090000 1.040000
v -0.540000 0.100000 1.040000
v -0.500000 0.510000 1.120000
v -0.430000 0.520000 1.090000
v -0.460000 0.450000 1.090000
v -0.550000 0.460000 1.090000
v -0.570000 0.540000 1.100000
v -0.490000 0.580000 1.100000
v -0.550000 0.610000 1.040000
v -0.480000 0.630000 1.030000
v -0.620000 0.560000 1.030000
v -0.550000 0.610000 0.820000
v -0.590000 0.560000 0.810000
v -0.610000 0.490000 0.820000
v -0.540000 0.500000 0.740000
v -0.510000 0.550000 0.740000
v -0.490000 0.500000 0.670000
v -0.570000 0.430000 0.810000
v -0.520000 0.390000 0.820000
v -0.500000 0.460000 0.740000
v -0.460000 0.490000 0.740000
v -0.470000 0.500000 0.710000
v -0.450000 0.410000 0.810000
v -0.390000 0.450000 0.820000
v -0.490000 0.490000 0.710000
v -0.390000 0.520000 0.810000
v -0.410000 0.580000 0.830000
v -0.360000 0.520000 1.030000
v -0.380000 0.560000 0.920000
v -0.370000 0.490000 0.920000
v -0.510000 0.640000 0.920000
v -0.480000 0.610000 0.810000
v -0.440000 0.620000 0.920000
v -0.630000 0.530000 0.920000
v -0.590000 0.600000 0.920000
v -0.590000 0.430000 1.010000
v -0.560000 0.390000 0.920000
v -0.610000 0.450000 0.920000
v -0.440000 0.380000 1.020000
v -0.420000 0.590000 1.040000
v -0.520000 0.390000 1.030000
v -0.620000 0.490000 1.030000
v -0.620000 0.560000 1.020000
v -0.620000 0.580000 1.010000
v -0.620000 0.590000 0.980000
v -0.620000 0.590000 0.970000
v -0.610000 0.600000 0.950000
v -0.590000 0.610000 0.930000
v -0.580000 0.620000 0.950000
v -0.580000 0.620000 0.970000
v -0.580000 0.610000 1.000000
v -0.570000 0.610000 1.020000
v -0.560000 0.600000 1.030000
v -0.590000 0.580000 1.030000
v -0.350000 0.480000 0.940000
v -0.350000 0.480000 0.950000
v -0.350000 0.470000 0.970000
v -0.360000 0.470000 0.990000
v -0.360000 0.460000 1.010000
v -0.370000 0.460000 1.020000
v -0.380000 0.460000 1.040000
v -0.380000 0.490000 1.030000
v -0.370000 0.520000 1.030000
v -0.360000 0.520000 1.020000
v -0.360000 0.510000 1.000000
v -0.350000 0.500000 0.990000
v -0.350000 0.500000 0.970000
v -0.350000 0.500000 0.950000
v -0.500000 0.370000 0.920000
v -0.500000 0.370000 0.940000
v -0.500000 0.370000 0.960000
v -0.500000 0.380000 0.980000
v -0.510000 0.390000 1.000000
v -0.510000 0.400000 1.020000
v -0.520000 0.410000 1.040000
v -0.470000 0.400000 1.030000
v -0.440000 0.400000 1.030000
v -0.450000 0.390000 1.010000
v -0.450000 0.380000 1.000000
v -0.460000 0.370000 0.980000
v -0.470000 0.370000 0.950000
v -0.480000 0.370000 0.940000
v -0.570000 0.430000 1.020000
v -0.610000 0.430000 0.990000
v -0.630000 0.430000 0.970000
v -0.640000 0.440000 0.950000
v -0.660000 0.450000 0.940000
v -0.660000 0.470000 0.960000
v -0.650000 0.470000 0.980000
v -0.630000 0.480000 1.010000
v -0.610000 0.500000 1.040000
v -0.590000 0.460000 1.030000
v -0.630000 0.480000 0.820000
v -0.630000 0.490000 0.830000
v -0.630000 0.500000 0.860000
v -0.630000 0.500000 0.880000
v -0.630000 0.520000 0.900000
v -0.620000 0.520000 0.910000
v -0.610000 0.540000 0.930000
v -0.610000 0.500000 0.930000
v -0.600000 0.470000 0.940000
v -0.610000 0.470000 0.920000
v -0.620000 0.470000 0.910000
v -0.620000 0.470000 0.890000
v -0.630000 0.470000 0.860000
v -0.630000 0.470000 0.840000
v -0.500000 0.380000 0.900000
v -0.500000 0.370000 0.880000
v -0.510000 0.370000 0.860000
v -0.510000 0.370000 0.830000
v -0.520000 0.370000 0.810000
v -0.530000 0.370000 0.830000
v -0.530000 0.370000 0.850000
v -0.540000 0.380000 0.880000
v -0.550000 0.380000 0.900000
v -0.550000 0.390000 0.910000
v -0.520000 0.390000 0.910000
v -0.500000 0.390000 0.910000
v -0.530000 0.640000 0.720000
v -0.520000 0.630000 0.740000
v -0.510000 0.630000 0.760000
v -0.500000 0.630000 0.780000
v -0.480000 0.620000 0.800000
v -0.460000 0.600000 0.830000
v -0.510000 0.600000 0.840000
v -0.550000 0.600000 0.850000
v -0.540000 0.610000 0.820000
v -0.540000 0.620000 0.810000
v -0.540000 0.630000 0.790000
v -0.540000 0.630000 0.760000
v -0.540000 0.630000 0.740000
v -0.540000 0.510000 0.750000
v -0.550000 0.510000 0.730000
v -0.540000 0.510000 0.710000
v -0.540000 0.510000 0.680000
v -0.540000 0.510000 0.660000
v -0.530000 0.520000 0.640000
v -0.530000 0.530000 0.660000
v -0.530000 0.540000 0.680000
v -0.530000 0.540000 0.710000
v -0.520000 0.550000 0.740000
v -0.520000 0.550000 0.750000
v -0.530000 0.530000 0.750000
v -0.380000 0.510000 0.800000
v -0.370000 0.500000 0.780000
v -0.370000 0.500000 0.760000
v -0.370000 0.490000 0.740000
v -0.370000 0.470000 0.710000
v -0.380000 0.460000 0.740000
v -0.380000 0.460000 0.770000
v -0.390000 0.460000 0.790000
v -0.400000 0.450000 0.820000
v -0.410000 0.460000 0.830000
v -0.400000 0.490000 0.820000
v -0.390000 0.520000 0.820000
v -0.560000 0.490000 0.680000
v -0.570000 0.490000 0.710000
v -0.580000 0.490000 0.740000
v -0.590000 0.480000 0.770000
v -0.600000 0.490000 0.800000
v -0.610000 0.490000 0.830000
v -0.610000 0.500000 0.860000
v -0.590000 0.460000 0.860000
v -0.570000 0.430000 0.850000
v -0.580000 0.440000 0.820000
v -0.570000 0.440000 0.800000
v -0.580000 0.450000 0.770000
v -0.570000 0.460000 0.730000
v -0.560000 0.470000 0.710000
v -0.490000 0.490000 0.620000
v -0.490000 0.490000 0.640000
v -0.490000 0.480000 0.650000
v -0.490000 0.470000 0.680000
v -0.490000 0.470000 0.700000
v -0.490000 0.460000 0.730000
v -0.500000 0.460000 0.750000
v -0.470000 0.470000 0.750000
v -0.460000 0.480000 0.750000
v -0.460000 0.480000 0.720000
v -0.470000 0.480000 0.700000
v -0.470000 0.480000 0.680000
v -0.480000 0.490000 0.650000
v -0.480000 0.490000 0.640000
v -0.400000 0.600000 0.810000
v -0.400000 0.600000 0.830000
v -0.400000 0.590000 0.850000
v -0.400000 0.590000 0.870000
v -0.390000 0.580000 0.890000
v -0.400000 0.580000 0.910000
v -0.400000 0.570000 0.920000
v -0.420000 0.590000 0.920000
v -0.430000 0.610000 0.920000
v -0.430000 0.610000 0.910000
v -0.420000 0.610000 0.890000
v -0.410000 0.610000 0.870000
v -0.410000 0.610000 0.850000
v -0.410000 0.610000 0.830000
v -0.480000 0.620000 1.030000
v -0.470000 0.630000 1.020000
v -0.460000 0.630000 0.990000
v -0.450000 0.630000 0.980000
v -0.440000 0.630000 0.960000
v -0.430000 0.620000 0.940000
v -0.420000 0.620000 0.960000
v -0.420000 0.620000 0.980000
v -0.420000 0.610000 1.010000
v -0.420000 0.600000 1.030000
v -0.450000 0.600000 1.040000
vn -0.0000 1.0000 -0.0000
vn -0.8944 0.4472 -0.0000
vn -0.8944 -0.4472 -0.0000
vn -0.0000 -1.0000 -0.0000
vn 0.8944 -0.4472 -0.0000
vn 0.8944 0.4472 -0.0000
vn -0.8017 0.4008 0.4435
vn -0.8017 -0.4008 0.4435
vn -0.0000 -0.8750 0.4841
vn 0.8017 -0.4008 0.4435
vn 0.8017 0.4008 0.4435
vn -0.0000 0.8750 0.4841
vn -1.0000 -0.0000 -0.0000
vn 0.7071 -0.7071 -0.0000
vn 0.7071 0.7071 -0.0000
vn 0.4307 -0.2692 -0.8614
vn 0.5298 -0.6623 -0.5298
vn 0.6171 -0.6943 -0.3703
vn 0.6882 -0.6882 -0.2294
vn 0.4277 0.2768 -0.8605
vn 0.5298 0.6623 -0.5298
vn -0.8192 -0.0000 0.5735
vn 0.6882 0.6882 -0.2294
vn 0.6171 0.6943 -0.3703
vn -0.0000 -0.0000 1.0000
vn -0.9487 -0.0000 0.3162
vn -0.0000 -0.0000 -1.0000
vn -0.5072 -0.0154 0.8617
vn -0.7071 -0.0000 0.7071
vn -0.7071 -0.7071 -0.0000
vn -0.2563 -0.4357 -0.8628
vn -0.6623 -0.5298 -0.5298
vn -0.6943 -0.6171 -0.3703
vn -0.6882 -0.6882 -0.2294
vn 0.2563 -0.4357 -0.8628
vn 0.6623 -0.5298 -0.5298
vn -0.0000 0.8192 0.5735
vn 0.6943 -0.6171 -0.3703
vn -0.0000 0.9487 0.3162
vn -0.0000 0.5145 0.8575
vn -0.0000 0.7071 0.7071
vn 0.7526 0.6585 -0.0000
vn -0.7071 0.7071 -0.0000
vn 0.2953 0.4429 -0.8465
vn 0.7107 0.4975 -0.4975
vn 0.7407 0.5761 -0.3457
vn 0.7351 0.6432 -0.2144
vn -0.2628 0.4468 -0.8551
vn -0.6623 0.5298 -0.5298
vn -0.0000 -0.8192 0.5735
vn -0.6882 0.6882 -0.2294
vn -0.6943 0.6171 -0.3703
vn -0.0000 -0.9487 0.3162
vn -0.0000 -0.5300 0.8480
vn -0.0000 -0.7071 0.7071
vn 1.0000 -0.0000 -0.0000
vn -0.6585 -0.7526 -0.0000
vn -0.4357 0.2563 -0.8628
vn -0.5298 0.6623 -0.5298
vn -0.6171 0.6943 -0.3703
vn -0.4321 -0.2881 -0.8546
vn -0.4975 -0.7107 -0.4975
vn 0.8192 -0.0000 0.5735
vn -0.6432 -0.7351 -0.2144
vn -0.5761 -0.7407 -0.3457
vn 0.9487 -0.0000 0.3162
vn 0.5145 -0.0000 0.8575
vn 0.7071 -0.0000 0.7071
vn -0.7682 0.6402 -0.0000
vn 0.0905 -0.9959 -0.0000
vn 0.9959 0.0905 -0.0000
vn 0.2740 -0.3196 -0.9071
vn -0.0327 -0.8497 -0.5262
vn -0.0000 -0.9285 -0.3714
vn 0.0842 -0.9681 -0.2362
vn 0.3516 -0.2344 -0.9063
vn 0.8379 0.1676 -0.5195
vn -0.6040 0.5285 0.5965
vn 0.9763 0.0888 -0.1972
vn 0.9070 0.1512 -0.3930
vn -0.7137 0.6245 0.3172
vn -0.3898 0.3573 0.8488
vn -0.5430 0.4751 0.6924
vn -0.3413 -0.2560 -0.9044
vn -0.8610 0.1435 -0.4879
vn -0.9020 0.0722 -0.4257
vn -0.9762 -0.0000 -0.2169
vn -0.2961 -0.2961 -0.9081
vn 0.0311 -0.8085 -0.5877
vn 0.5787 0.5546 0.5980
vn -0.0000 -0.9762 -0.2169
vn 0.0367 -0.9187 -0.3932
vn 0.6954 0.6375 0.3316
vn 0.4035 0.3531 0.8441
vn 0.5234 0.5006 0.6895
vn 0.7399 -0.6727 -0.0000
vn -0.9959 -0.0905 -0.0000
vn -0.2740 0.3196 -0.9071
vn 0.0327 0.8497 -0.5262
vn -0.0000 0.9285 -0.3714
vn -0.0426 0.9787 -0.2009
vn -0.3516 0.2344 -0.9063
vn -0.8334 -0.1603 -0.5289
vn 0.6053 -0.5084 0.6125
vn -0.9763 -0.0888 -0.1972
vn -0.9095 -0.1455 -0.3893
vn 0.7042 -0.6430 0.3011
vn 0.3898 -0.3573 0.8488
vn 0.5613 -0.4715 0.6802
vn 0.3075 0.2796 -0.9095
vn 0.8654 -0.1505 -0.4779
vn 0.9020 -0.0722 -0.4257
vn 0.9762 -0.0000 -0.2169
vn 0.3127 0.2680 -0.9113
vn -0.0000 0.7809 -0.6247
vn -0.5774 -0.5774 0.5773
vn -0.0442 0.9715 -0.2331
vn -0.0752 0.9394 -0.3344
vn -0.6773 -0.6479 0.3485
vn -0.3941 -0.3468 0.8512
vn -0.5234 -0.5006 0.6895
vn -0.0000 0.9487 -0.3162
vn -0.9487 -0.0000 -0.3162
vn 0.9625 0.0332 -0.2692
vn 0.1118 0.5030 -0.8570
vn 0.6387 -0.3400 0.6902
vn 0.7432 -0.4153 0.5246
vn 0.5371 0.5002 0.6792
vn -0.2774 -0.9469 0.1626
vn 0.7458 0.6459 0.1631
vn -0.8932 0.4495 0.0115
vn 0.2080 0.7210 -0.6609
vn -0.3773 0.9073 0.1857
vn -0.4089 0.1752 -0.8956
vn 0.0527 0.4745 -0.8787
vn 0.3479 0.2014 -0.9156
vn -0.9350 -0.0000 0.3547
vn 0.4525 0.7383 0.5001
vn -0.4764 0.7741 0.4168
vn -0.9745 -0.1499 0.1670
vn -0.2441 -0.9541 0.1735
vn 0.8659 -0.4655 0.1831
vn -0.6894 -0.7223 -0.0547
vn -0.1929 -0.7503 0.6324
vn 0.2271 0.9720 -0.0606
vn -0.5249 -0.5197 -0.6741
vn 0.1986 0.7042 -0.6816
vn 0.3175 0.2339 -0.9190
vn 0.1286 -0.2894 -0.9485
vn 0.3410 -0.7161 -0.6090
vn 0.6738 -0.3152 0.6683
vn -0.3233 0.6417 0.6955
vn -0.9781 -0.1505 0.1436
vn -0.1911 -0.7377 0.6475
vn 0.4698 -0.8808 -0.0587
vn 0.2347 0.9702 -0.0595
vn 0.9721 0.2342 -0.0160
vn -0.5452 -0.5132 -0.6628
vn -0.5034 0.3310 -0.7981
vn -0.2046 -0.8184 0.5371
vn 0.7477 0.6476 0.1469
vn -0.1712 -0.8131 0.5563
vn 0.3549 -0.7098 -0.6084
vn 0.3860 0.7978 0.4632
vn -0.7331 -0.1222 0.6691
vn -0.9738 -0.1452 0.1750
vn 0.9716 0.2356 -0.0194
vn 0.7531 0.2667 -0.6014
vn -0.3600 -0.2084 -0.9094
vn -0.4280 0.8882 0.1671
vn -0.3435 0.6402 0.6871
vn -0.9043 0.4264 0.0190
vn 0.4461 -0.8923 -0.0690
vn 0.7413 0.2663 -0.6160
vn -0.5219 0.3103 -0.7946
vn 0.1455 -0.2910 -0.9456
vn -0.2370 -0.9573 0.1653
vn -0.8819 0.4714 -0.0000
vn 0.4464 -0.8929 -0.0585
vn -0.5064 -0.5362 -0.6753
vn -0.5307 0.3442 -0.7745
vn -0.3187 -0.2180 -0.9225
vn -0.1682 -0.8202 0.5468
vn 0.3577 0.2314 -0.9047
vn -0.6205 0.7014 0.3507
vn 0.6104 -0.7242 -0.3207
vn -0.9008 0.0763 -0.4275
vn 0.0582 0.9024 -0.4269
vn 0.6454 0.4533 -0.6147
vn 0.9459 0.1066 -0.3064
vn 0.1013 0.9621 -0.2532
vn -0.0521 -0.9034 -0.4256
vn 0.8943 -0.4472 -0.0154
vn -0.9051 0.2263 -0.3600
vn 0.9006 0.4082 0.1490
vn -0.5708 0.8086 0.1427
vn -0.7853 -0.5770 -0.2244
vn -0.4437 -0.8154 -0.3717
vn 0.5544 -0.7610 -0.3370
vn -0.9225 0.0678 -0.3799
vn 0.0994 0.9246 -0.3678
vn 0.6214 0.5092 -0.5955
vn 0.9513 0.0940 -0.2936
vn 0.0838 0.9549 -0.2848
vn -0.0629 -0.9345 -0.3504
vn 0.9031 -0.4294 -0.0000
vn -0.9081 0.2323 -0.3485
vn 0.8896 0.4311 0.1506
vn -0.4756 0.8663 0.1529
vn -0.7588 -0.6070 -0.2361
vn -0.3431 -0.8640 -0.3685
vn -0.4450 0.8065 0.3893
vn 0.5924 -0.7086 -0.3833
vn -0.9034 0.1196 -0.4118
vn 0.1081 0.9193 -0.3785
vn 0.6203 0.4911 -0.6117
vn 0.9549 0.0354 -0.2947
vn 0.0824 0.9564 -0.2803
vn -0.0605 -0.9332 -0.3543
vn 0.8673 -0.4976 -0.0142
vn -0.9178 0.2348 -0.3202
vn 0.8867 0.4297 0.1705
vn -0.4135 0.9008 0.1329
vn -0.7149 -0.6514 -0.2542
vn -0.3190 -0.8742 -0.3662
vn -0.4082 0.8165 0.4082
vn 0.5752 -0.7189 -0.3903
vn -0.9110 0.0701 -0.4064
vn 0.1385 0.9202 -0.3661
vn 0.6097 0.5066 -0.6097
vn 0.2185 0.9582 -0.1849
vn -0.0268 -0.9300 -0.3666
vn -0.9094 0.2084 -0.3600
vn -0.4047 0.8974 0.1760
vn -0.7279 -0.6391 -0.2485
vn -0.3689 -0.8362 -0.4058
vn -0.9085 -0.0940 0.4072
vn 0.5352 -0.7556 -0.3778
vn -0.9198 0.0135 -0.3923
vn 0.0949 0.9203 -0.3795
vn 0.6241 0.5028 -0.5981
vn 0.9265 0.1258 -0.3546
vn 0.0775 0.9615 -0.2636
vn -0.0591 -0.9364 -0.3459
vn 0.9027 -0.4292 0.0296
vn -0.9222 0.1287 -0.3646
vn 0.8339 0.5196 0.1860
vn -0.4161 0.8917 0.1783
vn -0.6949 -0.6949 -0.1853
vn -0.2990 -0.8860 -0.3544
s 0
usemtl rsc_904008
f 1//1 2//1 3//1 4//1
f 2//2 5//2 6//2 3//2
f 5//3 7//3 8//3 6//3
f 7//4 9//4 10//4 8//4
f 9//5 11//5 12//5 10//5
f 11//6 1//6 4//6 12//6
f 3//7 6//7 13//7
f 6//8 8//8 13//8
f 8//9 10//9 13//9
f 10//10 12//10 13//10
f 12//11 4//11 13//11
f 4//12 3//12 13//12
usemtl rsc_005008
f 14//13 15//13 16//13 17//13
f 18//14 14//14 17//14 19//14
f 15//15 18//15 19//15 16//15
f 20//16 21//16 22//16 23//16
f 24//17 25//17 21//17 20//17
f 26//18 27//18 25//18 24//18
f 19//19 17//19 27//19 26//19
f 28//20 20//20 23//20 29//20
f 30//21 24//21 20//21 28//21
f 27//22 31//22 30//22 25//22
f 16//23 19//23 26//23 31//23
f 31//24 26//24 24//24 30//24
f 31//25 27//25 26//25
f 17//26 16//26 31//26 27//26
f 24//27 25//27 30//27
f 21//28 28//28 29//28 22//28
f 23//27 22//27 29//27
f 25//29 30//29 28//29 21//29
f 32//1 33//1 34//1 35//1
f 36//30 32//30 35//30 37//30
f 33//14 36//14 37//14 34//14
f 38//31 39//31 40//31 41//31
f 42//32 43//32 39//32 38//32
f 44//33 45//33 43//33 42//33
f 37//34 35//34 45//34 44//34
f 46//35 38//35 41//35 22//35
f 47//36 42//36 38//36 46//36
f 45//37 48//37 47//37 43//37
f 34//19 37//19 44//19 48//19
f 48//38 44//38 42//38 47//38
f 48//25 45//25 44//25
f 35//39 34//39 48//39 45//39
f 42//27 43//27 47//27
f 39//40 46//40 22//40 40//40
f 41//25 40//25 22//25
f 43//41 47//41 46//41 39//41
f 49//4 50//4 51//4 52//4
f 53//42 49//42 52//42 54//42
f 50//43 53//43 54//43 51//43
f 55//44 56//44 29//44 57//44
f 58//45 59//45 56//45 55//45
f 60//46 61//46 59//46 58//46
f 54//47 52//47 61//47 60//47
f 62//48 55//48 57//48 63//48
f 64//49 58//49 55//49 62//49
f 61//50 65//50 64//50 59//50
f 51//51 54//51 60//51 65//51
f 65//52 60//52 58//52 64//52
f 65//25 61//25 60//25
f 52//53 51//53 65//53 61//53
f 58//27 59//27 64//27
f 56//54 62//54 63//54 29//54
f 57//25 29//25 63//25
f 59//55 64//55 62//55 56//55
f 66//56 67//56 68//56 69//56
f 70//43 66//43 69//43 71//43
f 67//57 70//57 71//57 68//57
f 72//58 73//58 63//58 74//58
f 75//59 76//59 73//59 72//59
f 77//60 78//60 76//60 75//60
f 71//51 69//51 78//51 77//51
f 79//61 72//61 74//61 40//61
f 80//62 75//62 72//62 79//62
f 78//63 81//63 80//63 76//63
f 68//64 71//64 77//64 81//64
f 81//65 77//65 75//65 80//65
f 81//25 78//25 77//25
f 69//66 68//66 81//66 78//66
f 75//27 76//27 80//27
f 73//67 79//67 40//67 63//67
f 74//25 63//25 40//25
f 76//68 80//68 79//68 73//68
f 82//69 83//69 84//69 85//69
f 86//70 82//70 85//70 87//70
f 83//71 86//71 87//71 84//71
f 88//72 89//72 90//72 22//72
f 91//73 92//73 89//73 88//73
f 93//74 94//74 92//74 91//74
f 87//75 85//75 94//75 93//75
f 95//76 88//76 22//76 96//76
f 97//77 91//77 88//77 95//77
f 94//78 98//78 97//78 92//78
f 84//79 87//79 93//79 98//79
f 98//80 93//80 91//80 97//80
f 98//25 94//25 93//25
f 85//81 84//81 98//81 94//81
f 91//27 92//27 97//27
f 89//82 95//82 96//82 90//82
f 22//25 90//25 96//25
f 92//83 97//83 95//83 89//83
f 99//15 100//15 101//15 102//15
f 103//13 99//13 102//13 104//13
f 100//4 103//4 104//4 101//4
f 105//84 106//84 107//84 40//84
f 108//85 109//85 106//85 105//85
f 110//86 111//86 109//86 108//86
f 104//87 102//87 111//87 110//87
f 112//88 105//88 40//88 113//88
f 114//89 108//89 105//89 112//89
f 111//90 115//90 114//90 109//90
f 101//91 104//91 110//91 115//91
f 115//92 110//92 108//92 114//92
f 115//25 111//25 110//25
f 102//93 101//93 115//93 111//93
f 108//27 109//27 114//27
f 106//94 112//94 113//94 107//94
f 40//25 107//25 113//25
f 109//95 114//95 112//95 106//95
f 116//96 117//96 118//96 119//96
f 120//1 116//1 119//1 121//1
f 117//97 120//97 121//97 118//97
f 122//98 123//98 124//98 63//98
f 125//99 126//99 123//99 122//99
f 127//100 128//100 126//100 125//100
f 121//101 119//101 128//101 127//101
f 129//102 122//102 63//102 130//102
f 131//103 125//103 122//103 129//103
f 128//104 132//104 131//104 126//104
f 118//105 121//105 127//105 132//105
f 132//106 127//106 125//106 131//106
f 132//25 128//25 127//25
f 119//107 118//107 132//107 128//107
f 125//27 126//27 131//27
f 123//108 129//108 130//108 124//108
f 63//25 124//25 130//25
f 126//109 131//109 129//109 123//109
f 133//30 134//30 135//30 136//30
f 137//56 133//56 136//56 138//56
f 134//1 137//1 138//1 135//1
f 139//110 140//110 141//110 29//110
f 142//111 143//111 140//111 139//111
f 144//112 145//112 143//112 142//112
f 138//113 136//113 145//113 144//113
f 146//114 139//114 29//114 147//114
f 148//115 142//115 139//115 146//115
f 145//116 149//116 148//116 143//116
f 135//117 138//117 144//117 149//117
f 149//118 144//118 142//118 148//118
f 149//25 145//25 144//25
f 136//119 135//119 149//119 145//119
f 142//27 143//27 148//27
f 140//120 146//120 147//120 141//120
f 29//25 141//25 147//25
f 143//121 148//121 146//121 140//121
f 22//91 40//91 150//91 151//91
f 63//122 29//122 152//122 153//122
f 40//123 63//123 153//123 150//123
f 29//124 22//124 151//124 152//124
f 151//27 150//27 153//27 152//27
usemtl rsc_880830
f 154//125 156//125 157//125
f 161//126 162//126 163//126 164//126 165//126
f 165//127 164//127 166//127 167//127 168//127
f 163//128 169//128 170//128 171//128 164//128
f 160//129 180//129 161//129 181//129 177//129 182//129
f 183//130 184//130 170//130 169//130 163//130 185//130
f 186//131 187//131 178//131 179//131 175//131 188//131
f 190//132 183//132 157//132 156//132 186//132
f 186//133 188//133 175//133 174//133 170//133 191//133
f 358//134 359//134 360//134
f 358//135 360//135 361//135
f 358//136 361//136 362//136
f 375//137 376//137 377//137 372//137 378//137
f 369//138 374//138 380//138 372//138 371//138
f 374//139 375//139 378//139 372//139 380//139
f 383//140 384//140 382//140 381//140 379//140 385//140
f 364//141 386//141 366//141 387//141 382//141 388//141
f 365//142 389//142 368//142 367//142 366//142 390//142
f 383//143 394//143 364//143 388//143 382//143 384//143
f 382//144 387//144 366//144 370//144 376//144
f 391//145 395//145 393//145 396//145 373//145 392//145
f 383//146 359//146 363//146 364//146 394//146
f 395//147 391//147 361//147 360//147 393//147
f 564//148 567//148 568//148
f 564//149 568//149 569//149
f 570//150 571//150 569//150 568//150 572//150
f 573//151 574//151 575//151 576//151 577//151
f 580//152 586//152 587//152 582//152 581//152
f 591//153 592//153 590//153 589//153 587//153 593//153
f 590//154 595//154 573//154 577//154 583//154
f 571//155 570//155 572//155 597//155 573//155 594//155
f 598//156 604//156 601//156 605//156 580//156 599//156
f 572//157 606//157 598//157 600//157 575//157 596//157
f 591//158 565//158 569//158 571//158 603//158
f 602//159 601//159 566//159 565//159 591//159
f 583//160 577//160 579//160 578//160 584//160
f 779//126 780//126 781//126 782//126 783//126
f 781//128 786//128 787//128 788//128 782//128
f 789//137 790//137 791//137 784//137 792//137
f 777//141 797//141 779//141 798//141 794//141 799//141
f 801//161 802//161 787//161 786//161 781//161 803//161
f 795//143 804//143 777//143 799//143 794//143 796//143
f 790//162 783//162 785//162 784//162 791//162
f 972//135 974//135 975//135
f 972//136 975//136 976//136
f 978//163 979//163 977//163 976//163 980//163
f 983//164 987//164 993//164 985//164 984//164
f 992//165 994//165 995//165 989//165 988//165
f 996//166 997//166 995//166 994//166 992//166 998//166
f 979//129 999//129 981//129 1000//129 995//129 1001//129
f 1005//131 1006//131 996//131 998//131 992//131 1007//131
f 980//167 1010//167 1003//167 1004//167 982//167 1002//167
f 1010//168 980//168 976//168 975//168 1003//168
f 973//169 972//169 977//169
f 1005//170 1007//170 992//170 991//170 986//170 1009//170
f 1178//134 1179//134 1180//134
f 1187//126 1188//126 1189//126 1190//126 1191//126
f 1194//171 1200//171 1201//171 1196//171 1195//171
f 1205//140 1206//140 1204//140 1203//140 1201//140 1207//140
f 1185//141 1208//141 1187//141 1209//141 1204//141 1210//141
f 1186//142 1211//142 1189//142 1188//142 1187//142 1212//142
f 1215//172 1216//172 1205//172 1207//172 1201//172 1217//172
f 1185//173 1184//173 1186//173 1212//173 1187//173 1208//173
f 1186//157 1219//157 1213//157 1214//157 1189//157 1211//157
f 1205//146 1179//146 1183//146 1185//146 1218//146
f 1219//174 1186//174 1182//174 1181//174 1213//174
f 1216//175 1215//175 1180//175 1179//175 1205//175
f 1197//162 1191//162 1193//162 1192//162 1198//162
f 1386//176 1390//176 1391//176
f 1392//163 1393//163 1391//163 1390//163 1394//163
f 1393//177 1407//177 1395//177 1408//177 1404//177 1409//177
f 1412//178 1413//178 1405//178 1406//178 1403//178 1414//178
f 1393//179 1392//179 1394//179 1410//179 1395//179 1407//179
f 1405//180 1387//180 1391//180 1393//180 1415//180
f 1413//181 1412//181 1388//181 1387//181 1405//181
f 1387//182 1386//182 1391//182
f 1416//147 1411//147 1389//147 1388//147 1412//147
f 1400//183 1396//183 1398//183 1397//183 1401//183
f 1583//134 1584//134 1585//134
f 1583//136 1586//136 1587//136
f 1583//176 1587//176 1588//176
f 1592//126 1593//126 1594//126 1595//126 1596//126
f 1599//171 1603//171 1604//171 1601//171 1600//171
f 1608//140 1609//140 1607//140 1606//140 1604//140 1610//140
f 1590//141 1611//141 1592//141 1612//141 1607//141 1613//141
f 1591//142 1614//142 1594//142 1593//142 1592//142 1615//142
f 1616//161 1617//161 1599//161 1598//161 1594//161 1618//161
f 1608//143 1620//143 1590//143 1613//143 1607//143 1609//143
f 1590//173 1589//173 1591//173 1615//173 1592//173 1611//173
f 1621//147 1616//147 1586//147 1585//147 1619//147
usemtl rsc_708840
f 154//184 157//184 158//184
f 154//176 158//176 159//176
f 171//185 172//185 173//185 167//185 176//185
f 155//169 154//169 159//169
f 193//186 194//186 195//186 196//186 197//186 198//186 199//186 200//186 201//186 202//186 203//186 204//186
f 205//187 206//187 207//187 208//187 209//187 210//187 211//187 212//187 213//187 214//187 215//187 216//187 217//187 218//187
f 219//188 220//188 221//188 222//188 223//188 224//188 225//188 226//188 227//188 228//188 229//188 230//188 231//188 232//188
f 233//189 183//189 234//189 235//189 236//189 237//189 238//189 239//189 240//189 192//189 241//189 242//189
f 233//189 183//189 234//189 235//189 236//189 237//189 238//189 239//189 240//189 192//189 241//189 242//189
f 243//190 244//190 245//190 246//190 247//190 248//190 249//190 250//190 251//190 252//190 253//190 254//190 255//190 256//190
f 257//191 258//191 259//191 260//191 261//191 262//191 263//191 264//191 265//191 266//191 267//191 268//191
f 269//192 270//192 271//192 272//192 273//192 181//192 274//192 275//192 276//192 277//192 278//192 279//192 280//192 281//192
f 282//193 283//193 284//193 285//193 286//193 287//193 288//193 289//193 290//193 291//193 292//193 293//193
f 269//192 270//192 271//192 272//192 273//192 181//192 274//192 275//192 276//192 277//192 278//192 279//192 280//192 281//192
f 294//194 295//194 296//194 297//194 298//194 299//194 300//194 301//194 302//194 303//194 304//194 305//194
f 306//195 307//195 308//195 309//195 310//195 311//195 312//195 313//195 314//195 315//195 316//195 317//195 318//195 319//195
f 320//196 321//196 322//196 323//196 324//196 325//196 326//196 327//196 328//196 329//196 330//196 331//196 332//196 333//196
f 334//197 335//197 336//197 337//197 338//197 339//197 340//197 341//197 342//197 343//197 344//197 345//197 346//197 347//197
f 160//198 348//198 349//198 350//198 351//198 352//198 353//198 354//198 355//198 356//198 189//198 357//198
f 398//199 399//199 400//199 401//199 402//199 403//199 404//199 405//199 406//199 407//199 408//199 409//199
f 410//200 411//200 412//200 413//200 414//200 415//200 416//200 417//200 418//200 419//200 420//200 421//200 422//200 423//200
f 424//201 425//201 426//201 427//201 428//201 429//201 430//201 431//201 432//201 433//201 434//201 435//201 436//201 437//201
f 438//202 391//202 439//202 440//202 441//202 442//202 443//202 444//202 445//202 397//202 446//202 447//202
f 438//202 391//202 439//202 440//202 441//202 442//202 443//202 444//202 445//202 397//202 446//202 447//202
f 448//203 449//203 450//203 451//203 452//203 453//203 454//203 455//203 456//203 457//203 458//203 459//203 460//203 461//203
f 462//204 463//204 464//204 465//204 466//204 467//204 468//204 469//204 470//204 471//204 472//204 473//204
f 474//205 475//205 476//205 477//205 478//205 387//205 479//205 480//205 481//205 482//205 483//205 484//205 485//205 486//205
f 487//206 488//206 489//206 490//206 491//206 492//206 493//206 494//206 495//206 496//206 497//206 498//206
f 474//205 475//205 476//205 477//205 478//205 387//205 479//205 480//205 481//205 482//205 483//205 484//205 485//205 486//205
f 499//207 500//207 501//207 502//207 503//207 504//207 505//207 506//207 507//207 508//207 509//207 510//207
f 511//208 512//208 513//208 514//208 515//208 516//208 517//208 518//208 519//208 520//208 521//208 522//208 523//208 524//208
f 525//209 526//209 527//209 528//209 529//209 530//209 531//209 532//209 533//209 534//209 535//209 536//209 537//209 538//209
f 539//210 540//210 541//210 542//210 543//210 544//210 545//210 546//210 547//210 548//210 549//210 550//210 551//210 552//210
f 553//211 554//211 555//211 556//211 557//211 558//211 559//211 560//211 561//211 562//211 394//211 563//211
f 581//212 582//212 585//212 578//212 588//212
f 565//169 564//169 569//169
f 607//213 608//213 609//213 610//213 611//213 612//213 613//213 614//213 615//213 616//213 617//213 618//213
f 619//214 620//214 621//214 622//214 623//214 624//214 625//214 626//214 627//214 628//214 629//214 630//214 631//214 632//214
f 633//215 634//215 635//215 636//215 637//215 638//215 639//215 640//215 641//215 642//215 643//215 644//215 645//215 646//215
f 647//216 648//216 649//216 650//216 651//216 652//216 653//216 654//216 655//216 606//216 656//216 657//216
f 647//216 648//216 649//216 650//216 651//216 652//216 653//216 654//216 655//216 606//216 656//216 657//216
f 658//217 659//217 660//217 661//217 662//217 663//217 664//217 665//217 666//217 667//217 668//217 669//217 670//217 671//217
f 672//218 673//218 674//218 675//218 676//218 677//218 678//218 679//218 680//218 681//218 682//218 683//218
f 684//219 685//219 686//219 687//219 688//219 595//219 689//219 690//219 691//219 573//219 692//219 693//219 694//219 695//219
f 696//220 697//220 698//220 699//220 700//220 701//220 702//220 703//220 704//220 705//220 706//220 707//220
f 684//219 685//219 686//219 687//219 688//219 595//219 689//219 690//219 691//219 573//219 692//219 693//219 694//219 695//219
f 708//221 709//221 710//221 711//221 712//221 713//221 714//221 715//221 716//221 717//221 718//221 719//221
f 720//222 721//222 722//222 723//222 724//222 725//222 726//222 727//222 728//222 729//222 730//222 731//222 732//222 733//222
f 734//223 735//223 736//223 737//223 738//223 739//223 740//223 741//223 742//223 743//223 744//223 745//223 746//223 747//223
f 748//224 749//224 750//224 751//224 752//224 753//224 754//224 755//224 756//224 757//224 758//224 759//224 760//224 761//224
f 762//225 763//225 764//225 765//225 766//225 767//225 768//225 769//225 770//225 771//225 603//225 772//225
f 773//176 775//176 776//176
f 788//139 789//139 792//139 784//139 793//139
f 778//157 805//157 801//157 803//157 781//157 800//157
f 774//169 773//169 776//169
f 806//199 807//199 808//199 809//199 810//199 811//199 812//199 813//199 814//199 815//199 816//199 817//199
f 818//200 819//200 820//200 821//200 822//200 823//200 824//200 825//200 826//200 827//200 828//200 829//200 830//200 831//200
f 832//201 833//201 834//201 835//201 836//201 837//201 838//201 839//201 840//201 841//201 842//201 843//201 844//201 845//201
f 846//202 801//202 847//202 848//202 849//202 850//202 851//202 852//202 853//202 805//202 854//202 855//202
f 846//202 801//202 847//202 848//202 849//202 850//202 851//202 852//202 853//202 805//202 854//202 855//202
f 856//203 857//203 858//203 859//203 860//203 861//203 862//203 863//203 864//203 865//203 866//203 867//203 868//203 869//203
f 870//204 871//204 872//204 873//204 874//204 875//204 876//204 877//204 878//204 879//204 880//204 881//204
f 882//205 883//205 884//205 885//205 886//205 798//205 887//205 888//205 889//205 890//205 891//205 892//205 893//205 894//205
f 895//206 896//206 897//206 898//206 899//206 900//206 901//206 902//206 903//206 904//206 905//206 906//206
f 882//205 883//205 884//205 885//205 886//205 798//205 887//205 888//205 889//205 890//205 891//205 892//205 893//205 894//205
f 907//207 908//207 909//207 910//207 911//207 912//207 913//207 914//207 915//207 916//207 917//207 918//207
f 919//208 920//208 921//208 922//208 923//208 924//208 925//208 926//208 927//208 928//208 929//208 930//208 931//208 932//208
f 933//209 934//209 935//209 936//209 937//209 938//209 939//209 940//209 941//209 942//209 943//209 944//209 945//209 946//209
f 947//210 948//210 949//210 950//210 951//210 952//210 953//210 954//210 955//210 956//210 957//210 958//210 959//210 960//210
f 961//211 962//211 963//211 964//211 965//211 966//211 967//211 968//211 969//211 970//211 804//211 971//211
f 987//226 988//226 990//226 985//226 993//226
f 1011//227 1012//227 1013//227 1014//227 1015//227 1016//227 1017//227 1018//227 1019//227 1020//227 1021//227 1022//227
f 1023//228 1024//228 1025//228 1026//228 1027//228 1028//228 1029//228 1030//228 1031//228 1032//228 1033//228 1034//228 1035//228 1036//228
f 1037//229 1038//229 1039//229 1040//229 1041//229 1042//229 1043//229 1044//229 1045//229 1046//229 1047//229 1048//229 1049//229 1050//229
f 1051//230 1003//230 1052//230 1053//230 1054//230 1055//230 1056//230 1057//230 1058//230 1059//230 1060//230 1061//230
f 1051//230 1003//230 1052//230 1053//230 1054//230 1055//230 1056//230 1057//230 1058//230 1059//230 1060//230 1061//230
f 1062//203 1063//203 1064//203 1065//203 1066//203 1067//203 1068//203 1069//203 1070//203 1071//203 1072//203 1073//203 1074//203 1075//203
f 1076//231 1077//231 1078//231 1079//231 1080//231 1081//231 1082//231 1083//231 1084//231 1085//231 1086//231 1087//231
f 1088//232 1089//232 1090//232 1091//232 1092//232 1000//232 1093//232 1094//232 1095//232 1096//232 1097//232 1098//232 1099//232 1100//232
f 1101//206 1102//206 1103//206 1104//206 1105//206 1106//206 1107//206 1108//206 1109//206 1110//206 1111//206 1112//206
f 1088//232 1089//232 1090//232 1091//232 1092//232 1000//232 1093//232 1094//232 1095//232 1096//232 1097//232 1098//232 1099//232 1100//232
f 1113//233 1114//233 1115//233 1116//233 1117//233 1118//233 1119//233 1120//233 1121//233 1122//233 1123//233 1124//233
f 1125//208 1126//208 1127//208 1128//208 1129//208 1130//208 1131//208 1132//208 1133//208 1134//208 1135//208 1136//208 1137//208 1138//208
f 1139//234 1140//234 1141//234 1142//234 1143//234 1144//234 1145//234 1146//234 1147//234 1148//234 1149//234 1150//234 1151//234 1152//234
f 1153//235 1154//235 1155//235 1156//235 1157//235 1158//235 1159//235 1160//235 1161//235 1162//235 1163//235 1164//235 1165//235 1166//235
f 1167//236 1168//236 1169//236 1170//236 1171//236 1172//236 1173//236 1174//236 1175//236 1176//236 1008//236 1177//236
f 1196//137 1197//137 1198//137 1192//137 1199//137
f 1195//139 1196//139 1199//139 1192//139 1202//139
f 1220//199 1221//199 1222//199 1223//199 1224//199 1225//199 1226//199 1227//199 1228//199 1229//199 1230//199 1231//199
f 1232//200 1233//200 1234//200 1235//200 1236//200 1237//200 1238//200 1239//200 1240//200 1241//200 1242//200 1243//200 1244//200 1245//200
f 1246//201 1247//201 1248//201 1249//201 1250//201 1251//201 1252//201 1253//201 1254//201 1255//201 1256//201 1257//201 1258//201 1259//201
f 1260//202 1213//202 1261//202 1262//202 1263//202 1264//202 1265//202 1266//202 1267//202 1219//202 1268//202 1269//202
f 1260//202 1213//202 1261//202 1262//202 1263//202 1264//202 1265//202 1266//202 1267//202 1219//202 1268//202 1269//202
f 1270//203 1271//203 1272//203 1273//203 1274//203 1275//203 1276//203 1277//203 1278//203 1279//203 1280//203 1281//203 1282//203 1283//203
f 1284//204 1285//204 1286//204 1287//204 1288//204 1289//204 1290//204 1291//204 1292//204 1293//204 1294//204 1295//204
f 1296//205 1297//205 1298//205 1299//205 1300//205 1209//205 1301//205 1302//205 1303//205 1304//205 1305//205 1306//205 1307//205 1308//205
f 1309//206 1310//206 1311//206 1312//206 1313//206 1314//206 1315//206 1316//206 1317//206 1318//206 1319//206 1320//206
f 1296//205 1297//205 1298//205 1299//205 1300//205 1209//205 1301//205 1302//205 1303//205 1304//205 1305//205 1306//205 1307//205 1308//205
f 1321//207 1322//207 1323//207 1324//207 1325//207 1326//207 1327//207 1328//207 1329//207 1330//207 1331//207 1332//207
f 1333//208 1334//208 1335//208 1336//208 1337//208 1338//208 1339//208 1340//208 1341//208 1342//208 1343//208 1344//208 1345//208 1346//208
f 1347//209 1348//209 1349//209 1350//209 1351//209 1352//209 1353//209 1354//209 1355//209 1356//209 1357//209 1358//209 1359//209 1360//209
f 1361//210 1362//210 1363//210 1364//210 1365//210 1366//210 1367//210 1368//210 1369//210 1370//210 1371//210 1372//210 1373//210 1374//210
f 1375//211 1376//211 1377//211 1378//211 1379//211 1380//211 1381//211 1382//211 1383//211 1384//211 1218//211 1385//211
f 1399//237 1400//237 1401//237 1397//237 1402//237
f 1418//238 1419//238 1420//238 1421//238 1422//238 1423//238 1424//238 1425//238 1426//238 1427//238 1428//238 1429//238
f 1430//239 1431//239 1432//239 1433//239 1434//239 1435//239 1436//239 1437//239 1438//239 1439//239 1440//239 1441//239 1442//239 1443//239
f 1444//240 1445//240 1446//240 1447//240 1448//240 1449//240 1450//240 1451//240 1452//240 1453//240 1454//240 1455//240 1456//240 1457//240
f 1458//241 1411//241 1459//241 1460//241 1461//241 1462//241 1463//241 1464//241 1465//241 1417//241 1466//241 1467//241
f 1458//241 1411//241 1459//241 1460//241 1461//241 1462//241 1463//241 1464//241 1465//241 1417//241 1466//241 1467//241
f 1468//242 1469//242 1470//242 1471//242 1472//242 1473//242 1474//242 1475//242 1476//242 1477//242 1478//242 1479//242 1480//242 1481//242
f 1482//243 1483//243 1484//243 1485//243 1486//243 1487//243 1488//243 1489//243 1490//243 1491//243 1492//243 1493//243
f 1494//244 1495//244 1496//244 1497//244 1498//244 1408//244 1499//244 1500//244 1501//244 1395//244 1502//244 1503//244 1504//244 1505//244
f 1506//245 1507//245 1508//245 1509//245 1510//245 1511//245 1512//245 1513//245 1514//245 1515//245 1516//245 1517//245
f 1494//244 1495//244 1496//244 1497//244 1498//244 1408//244 1499//244 1500//244 1501//244 1395//244 1502//244 1503//244 1504//244 1505//244
f 1518//246 1519//246 1520//246 1521//246 1522//246 1523//246 1524//246 1525//246 1403//246 1526//246 1527//246 1528//246
f 1529//247 1530//247 1531//247 1532//247 1533//247 1534//247 1535//247 1536//247 1537//247 1538//247 1539//247 1540//247 1541//247 1542//247
f 1543//248 1544//248 1545//248 1546//248 1547//248 1548//248 1549//248 1550//248 1551//248 1552//248 1553//248 1554//248 1555//248 1556//248
f 1557//249 1558//249 1559//249 1560//249 1561//249 1562//249 1563//249 1564//249 1565//249 1566//249 1567//249 1568//249 1569//249 1570//249
f 1571//250 1572//250 1573//250 1574//250 1575//250 1576//250 1577//250 1578//250 1579//250 1580//250 1581//250 1582//250
f 1600//139 1601//139 1602//139 1597//139 1605//139
f 1623//199 1624//199 1625//199 1626//199 1627//199 1628//199 1629//199 1630//199 1631//199 1632//199 1633//199 1634//199
f 1635//200 1636//200 1637//200 1638//200 1639//200 1640//200 1641//200 1642//200 1643//200 1644//200 1645//200 1646//200 1647//200 1648//200
f 1649//201 1650//201 1651//201 1652//201 1653//201 1654//201 1655//201 1656//201 1657//201 1658//201 1659//201 1660//201 1661//201 1662//201
f 1663//202 1616//202 1664//202 1665//202 1666//202 1667//202 1668//202 1669//202 1670//202 1622//202 1671//202 1672//202
f 1663//202 1616//202 1664//202 1665//202 1666//202 1667//202 1668//202 1669//202 1670//202 1622//202 1671//202 1672//202
f 1673//203 1674//203 1675//203 1676//203 1677//203 1678//203 1679//203 1680//203 1681//203 1682//203 1683//203 1684//203 1685//203 1686//203
f 1687//204 1688//204 1689//204 1690//204 1691//204 1692//204 1693//204 1694//204 1695//204 1696//204 1697//204 1698//204
f 1699//205 1700//205 1701//205 1702//205 1703//205 1612//205 1704//205 1705//205 1706//205 1707//205 1708//205 1709//205 1710//205 1711//205
f 1712//206 1713//206 1714//206 1715//206 1716//206 1717//206 1718//206 1719//206 1720//206 1721//206 1722//206 1723//206
f 1699//205 1700//205 1701//205 1702//205 1703//205 1612//205 1704//205 1705//205 1706//205 1707//205 1708//205 1709//205 1710//205 1711//205
f 1724//207 1725//207 1726//207 1727//207 1728//207 1729//207 1730//207 1731//207 1732//207 1733//207 1734//207 1735//207
f 1736//208 1737//208 1738//208 1739//208 1740//208 1741//208 1742//208 1743//208 1744//208 1745//208 1746//208 1747//208 1748//208 1749//208
f 1750//209 1751//209 1752//209 1753//209 1754//209 1755//209 1756//209 1757//209 1758//209 1759//209 1760//209 1761//209 1762//209 1763//209
f 1764//210 1765//210 1766//210 1767//210 1768//210 1769//210 1770//210 1771//210 1772//210 1773//210 1774//210 1775//210 1776//210 1777//210
f 1778//211 1779//211 1780//211 1781//211 1782//211 1783//211 1784//211 1785//211 1786//211 1787//211 1620//211 1788//211
