# OGRS RSC model extracted from .ob3
# vertices: 1856  faces: 521
mtllib 5_mature_full.mtl

o dragonfruit
v 0.13 0.26 0.0
v -0.13 0.26 0.0
v -0.13 0.26 2.34
v 0.13 0.26 2.34
v -0.26 0.0 0.0
v -0.26 0.0 2.34
v -0.13 -0.26 0.0
v -0.13 -0.26 2.34
v 0.13 -0.26 0.0
v 0.13 -0.26 2.34
v 0.26 0.0 0.0
v 0.26 0.0 2.34
v 0.0 0.0 2.81
v -0.5700000000000001 0.1 0.8200000000000001
v -0.5700000000000001 -0.06 0.8200000000000001
v -0.5700000000000001 -0.06 2.19
v -0.5700000000000001 0.1 2.19
v -0.65 0.02 0.8200000000000001
v -0.65 0.02 2.19
v -0.44 0.02 2.57
v -0.34 0.1 2.57
v -0.09 0.1 2.72
v -0.09 0.02 2.72
v -0.54 0.02 2.47
v -0.44 0.1 2.47
v -0.59 0.02 2.37
v -0.51 0.1 2.37
v -0.34 -0.06 2.57
v -0.08 -0.07 2.72
v -0.44 -0.06 2.47
v -0.51 -0.06 2.37
v 0.08 0.58 0.8200000000000001
v -0.08 0.58 0.8200000000000001
v -0.08 0.58 2.19
v 0.08 0.58 2.19
v 0.0 0.66 0.8200000000000001
v 0.0 0.66 2.19
v 0.0 0.45 2.57
v 0.08 0.35000000000000003 2.57
v 0.09 0.1 2.72
v 0.0 0.1 2.72
v 0.0 0.55 2.47
v 0.08 0.45 2.47
v 0.0 0.6 2.37
v 0.08 0.52 2.37
v -0.08 0.35000000000000003 2.57
v -0.08 0.45 2.47
v -0.08 0.52 2.37
v -0.07 -0.54 0.8200000000000001
v 0.08 -0.54 0.8200000000000001
v 0.08 -0.54 2.19
v -0.07 -0.54 2.19
v 0.0 -0.62 0.8200000000000001
v 0.0 -0.62 2.19
v 0.0 -0.41000000000000003 2.57
v -0.07 -0.31 2.57
v 0.0 -0.07 2.72
v 0.0 -0.51 2.47
v -0.07 -0.41000000000000003 2.47
v 0.0 -0.56 2.37
v -0.07 -0.48 2.37
v 0.08 -0.31 2.57
v 0.09 -0.07 2.72
v 0.08 -0.41000000000000003 2.47
v 0.08 -0.48 2.37
v 0.5700000000000001 -0.06 0.8200000000000001
v 0.5700000000000001 0.09 0.8200000000000001
v 0.5700000000000001 0.09 2.19
v 0.5700000000000001 -0.06 2.19
v 0.65 0.02 0.8200000000000001
v 0.65 0.02 2.19
v 0.44 0.02 2.57
v 0.34 -0.06 2.57
v 0.09 0.02 2.72
v 0.54 0.02 2.47
v 0.44 -0.06 2.47
v 0.59 0.02 2.37
v 0.51 -0.06 2.37
v 0.34 0.09 2.57
v 0.44 0.09 2.47
v 0.51 0.09 2.37
v -0.44 0.53 0.8200000000000001
v -0.54 0.41000000000000003 0.8200000000000001
v -0.54 0.41000000000000003 2.19
v -0.44 0.53 2.19
v -0.55 0.52 0.8200000000000001
v -0.55 0.52 2.19
v -0.39 0.38 2.57
v -0.26 0.38 2.57
v -0.08 0.22 2.72
v -0.47000000000000003 0.45 2.47
v -0.34 0.44 2.47
v -0.51 0.48 2.37
v -0.39 0.49 2.37
v -0.37 0.26 2.57
v -0.19 0.1 2.72
v -0.44 0.32 2.47
v -0.5 0.37 2.37
v 0.53 0.44 0.8200000000000001
v 0.42 0.55 0.8200000000000001
v 0.42 0.55 2.19
v 0.53 0.44 2.19
v 0.53 0.55 0.8200000000000001
v 0.53 0.55 2.19
v 0.38 0.39 2.57
v 0.36 0.27 2.57
v 0.2 0.1 2.72
v 0.45 0.47000000000000003 2.47
v 0.43 0.35000000000000003 2.47
v 0.49 0.51 2.37
v 0.49 0.38 2.37
v 0.26 0.39 2.57
v 0.09 0.22 2.72
v 0.31 0.46 2.47
v 0.38 0.51 2.37
v 0.44 -0.49 0.8200000000000001
v 0.54 -0.38 0.8200000000000001
v 0.54 -0.38 2.19
v 0.44 -0.49 2.19
v 0.55 -0.49 0.8200000000000001
v 0.55 -0.49 2.19
v 0.39 -0.35000000000000003 2.57
v 0.26 -0.35000000000000003 2.57
v 0.08 -0.19 2.72
v 0.47000000000000003 -0.42 2.47
v 0.34 -0.41000000000000003 2.47
v 0.51 -0.45 2.37
v 0.39 -0.46 2.37
v 0.37 -0.23 2.57
v 0.19 -0.07 2.72
v 0.44 -0.28 2.47
v 0.5 -0.34 2.37
v -0.53 -0.42 0.8200000000000001
v -0.42 -0.53 0.8200000000000001
v -0.42 -0.53 2.19
v -0.53 -0.42 2.19
v -0.53 -0.53 0.8200000000000001
v -0.53 -0.53 2.19
v -0.38 -0.36 2.57
v -0.36 -0.25 2.57
v -0.2 -0.07 2.72
v -0.45 -0.45 2.47
v -0.43 -0.33 2.47
v -0.49 -0.49 2.37
v -0.49 -0.36 2.37
v -0.26 -0.37 2.57
v -0.08 -0.2 2.72
v -0.31 -0.44 2.47
v -0.38 -0.48 2.37
v 0.06 0.08 2.81
v -0.06 0.08 2.81
v -0.06 -0.04 2.81
v 0.06 -0.04 2.81
v 0.0 0.59 1.12
v 0.07 0.6 1.09
v 0.04 0.53 1.09
v -0.05 0.55 1.09
v -0.07 0.62 1.1
v 0.01 0.66 1.1
v -0.05 0.7000000000000001 1.04
v 0.02 0.71 1.03
v -0.12 0.65 1.03
v -0.05 0.7000000000000001 0.8200000000000001
v -0.09 0.65 0.81
v -0.11 0.58 0.8200000000000001
v -0.04 0.59 0.74
v -0.01 0.64 0.74
v -0.01 0.59 0.7000000000000001
v 0.01 0.59 0.67
v 0.0 0.61 0.7000000000000001
v -0.07 0.52 0.81
v -0.02 0.48 0.8200000000000001
v 0.0 0.55 0.74
v 0.04 0.58 0.74
v 0.04 0.63 0.74
v 0.03 0.61 0.71
v 0.03 0.59 0.71
v 0.05 0.5 0.81
v 0.11 0.54 0.8200000000000001
v 0.01 0.5700000000000001 0.71
v 0.11 0.61 0.81
v 0.09 0.66 0.8300000000000001
v 0.14 0.61 1.03
v 0.12 0.65 0.92
v 0.13 0.5700000000000001 0.92
v -0.01 0.73 0.92
v 0.02 0.7000000000000001 0.81
v 0.06 0.71 0.92
v -0.13 0.62 0.92
v -0.09 0.6900000000000001 0.92
v -0.09 0.51 1.01
v -0.06 0.48 0.92
v -0.11 0.54 0.92
v 0.06 0.47000000000000003 1.02
v 0.12 0.53 1.04
v 0.1 0.5 0.92
v 0.08 0.67 1.04
v -0.02 0.48 1.03
v 0.02 0.47000000000000003 0.92
v -0.12 0.58 1.03
v -0.12 0.65 1.02
v -0.12 0.66 1.01
v -0.12 0.67 0.98
v -0.12 0.68 0.97
v -0.11 0.6900000000000001 0.9500000000000001
v -0.09 0.7000000000000001 0.93
v -0.08 0.71 0.9500000000000001
v -0.08 0.71 0.97
v -0.08 0.7000000000000001 1.0
v -0.07 0.7000000000000001 1.02
v -0.06 0.6900000000000001 1.03
v -0.09 0.67 1.03
v 0.15 0.5700000000000001 0.9400000000000001
v 0.15 0.5700000000000001 0.9500000000000001
v 0.15 0.56 0.97
v 0.14 0.56 0.99
v 0.14 0.55 1.01
v 0.13 0.55 1.02
v 0.12 0.54 1.04
v 0.12 0.58 1.03
v 0.13 0.61 1.03
v 0.14 0.6 1.02
v 0.14 0.6 1.0
v 0.15 0.59 0.99
v 0.15 0.58 0.97
v 0.15 0.58 0.9500000000000001
v 0.0 0.45 0.92
v 0.0 0.46 0.9400000000000001
v 0.0 0.46 0.96
v 0.0 0.46 0.98
v -0.01 0.47000000000000003 1.0
v -0.01 0.48 1.02
v -0.02 0.5 1.04
v 0.03 0.49 1.03
v 0.06 0.48 1.03
v 0.05 0.47000000000000003 1.01
v 0.05 0.47000000000000003 1.0
v 0.04 0.46 0.98
v 0.03 0.46 0.9500000000000001
v 0.02 0.45 0.9400000000000001
v -0.07 0.51 1.02
v -0.11 0.51 0.99
v -0.13 0.52 0.97
v -0.14 0.52 0.9500000000000001
v -0.16 0.54 0.9400000000000001
v -0.16 0.56 0.96
v -0.15 0.56 0.98
v -0.13 0.5700000000000001 1.01
v -0.11 0.59 1.04
v -0.09 0.55 1.03
v -0.13 0.5700000000000001 0.8200000000000001
v -0.13 0.58 0.8300000000000001
v -0.13 0.58 0.86
v -0.13 0.59 0.88
v -0.13 0.6 0.9
v -0.12 0.61 0.91
v -0.11 0.62 0.93
v -0.11 0.59 0.93
v -0.1 0.56 0.9400000000000001
v -0.11 0.56 0.92
v -0.12 0.56 0.91
v -0.12 0.56 0.89
v -0.13 0.56 0.86
v -0.13 0.56 0.84
v 0.0 0.47000000000000003 0.9
v 0.0 0.46 0.88
v -0.01 0.46 0.86
v -0.01 0.46 0.8300000000000001
v -0.02 0.46 0.81
v -0.03 0.46 0.8300000000000001
v -0.03 0.46 0.85
v -0.04 0.47000000000000003 0.88
v -0.05 0.47000000000000003 0.9
v -0.05 0.48 0.91
v -0.02 0.48 0.91
v 0.0 0.47000000000000003 0.91
v -0.03 0.72 0.72
v -0.02 0.72 0.74
v -0.01 0.72 0.76
v 0.0 0.71 0.78
v 0.02 0.71 0.8
v 0.04 0.68 0.8300000000000001
v -0.01 0.68 0.84
v -0.05 0.68 0.85
v -0.04 0.7000000000000001 0.8200000000000001
v -0.04 0.7000000000000001 0.81
v -0.04 0.71 0.79
v -0.04 0.72 0.76
v -0.04 0.72 0.74
v -0.04 0.59 0.75
v -0.05 0.6 0.73
v -0.04 0.6 0.71
v -0.04 0.6 0.68
v -0.04 0.6 0.66
v -0.03 0.6 0.64
v -0.03 0.62 0.66
v -0.03 0.62 0.68
v -0.03 0.63 0.71
v -0.02 0.64 0.74
v -0.02 0.64 0.75
v -0.03 0.62 0.75
v 0.12 0.6 0.8
v 0.13 0.59 0.78
v 0.13 0.58 0.76
v 0.13 0.5700000000000001 0.74
v 0.13 0.56 0.71
v 0.12 0.54 0.74
v 0.12 0.54 0.77
v 0.11 0.55 0.79
v 0.1 0.54 0.8200000000000001
v 0.09 0.54 0.8300000000000001
v 0.1 0.58 0.8200000000000001
v 0.11 0.61 0.8200000000000001
v -0.06 0.58 0.68
v -0.07 0.58 0.71
v -0.08 0.58 0.74
v -0.09 0.5700000000000001 0.77
v -0.1 0.58 0.8
v -0.11 0.58 0.8300000000000001
v -0.11 0.59 0.86
v -0.09 0.55 0.86
v -0.07 0.51 0.85
v -0.08 0.52 0.8200000000000001
v -0.07 0.53 0.8
v -0.08 0.54 0.77
v -0.07 0.55 0.73
v -0.06 0.56 0.71
v 0.01 0.58 0.62
v 0.01 0.5700000000000001 0.64
v 0.01 0.5700000000000001 0.65
v 0.01 0.56 0.68
v 0.01 0.55 0.7000000000000001
v 0.01 0.55 0.73
v 0.0 0.55 0.75
v 0.03 0.56 0.75
v 0.04 0.5700000000000001 0.75
v 0.04 0.5700000000000001 0.72
v 0.03 0.5700000000000001 0.7000000000000001
v 0.03 0.5700000000000001 0.68
v 0.02 0.58 0.65
v 0.02 0.58 0.64
v 0.1 0.6900000000000001 0.81
v 0.1 0.68 0.8300000000000001
v 0.1 0.68 0.85
v 0.1 0.68 0.87
v 0.11 0.67 0.89
v 0.1 0.67 0.91
v 0.1 0.66 0.92
v 0.08 0.68 0.92
v 0.07 0.7000000000000001 0.92
v 0.07 0.7000000000000001 0.91
v 0.08 0.7000000000000001 0.89
v 0.09 0.7000000000000001 0.87
v 0.09 0.7000000000000001 0.85
v 0.09 0.7000000000000001 0.8300000000000001
v 0.03 0.72 1.02
v 0.04 0.72 0.99
v 0.05 0.72 0.98
v 0.06 0.72 0.96
v 0.07 0.71 0.9400000000000001
v 0.08 0.7000000000000001 0.96
v 0.08 0.7000000000000001 0.98
v 0.08 0.7000000000000001 1.01
v 0.08 0.6900000000000001 1.03
v 0.05 0.6900000000000001 1.04
v 0.5 0.51 1.12
v 0.5700000000000001 0.52 1.09
v 0.54 0.45 1.09
v 0.45 0.46 1.09
v 0.43 0.54 1.1
v 0.51 0.58 1.1
v 0.45 0.61 1.04
v 0.52 0.63 1.03
v 0.38 0.56 1.03
v 0.45 0.61 0.8200000000000001
v 0.41000000000000003 0.56 0.81
v 0.39 0.49 0.8200000000000001
v 0.46 0.5 0.74
v 0.49 0.55 0.74
v 0.49 0.5 0.7000000000000001
v 0.51 0.5 0.67
v 0.5 0.52 0.7000000000000001
v 0.43 0.43 0.81
v 0.48 0.39 0.8200000000000001
v 0.5 0.46 0.74
v 0.54 0.49 0.74
v 0.54 0.54 0.74
v 0.53 0.52 0.71
v 0.53 0.5 0.71
v 0.55 0.41000000000000003 0.81
v 0.61 0.45 0.8200000000000001
v 0.51 0.49 0.71
v 0.61 0.52 0.81
v 0.59 0.58 0.8300000000000001
v 0.64 0.52 1.03
v 0.62 0.56 0.92
v 0.63 0.49 0.92
v 0.49 0.64 0.92
v 0.52 0.61 0.81
v 0.56 0.62 0.92
v 0.37 0.53 0.92
v 0.41000000000000003 0.6 0.92
v 0.41000000000000003 0.43 1.01
v 0.44 0.39 0.92
v 0.39 0.45 0.92
v 0.56 0.38 1.02
v 0.62 0.44 1.04
v 0.6 0.41000000000000003 0.92
v 0.58 0.59 1.04
v 0.48 0.39 1.03
v 0.52 0.38 0.92
v 0.38 0.49 1.03
v 0.38 0.56 1.02
v 0.38 0.58 1.01
v 0.38 0.59 0.98
v 0.38 0.59 0.97
v 0.39 0.6 0.9500000000000001
v 0.41000000000000003 0.61 0.93
v 0.42 0.62 0.9500000000000001
v 0.42 0.62 0.97
v 0.42 0.61 1.0
v 0.43 0.61 1.02
v 0.44 0.6 1.03
v 0.41000000000000003 0.58 1.03
v 0.65 0.48 0.9400000000000001
v 0.65 0.48 0.9500000000000001
v 0.65 0.47000000000000003 0.97
v 0.64 0.47000000000000003 0.99
v 0.64 0.46 1.01
v 0.63 0.46 1.02
v 0.62 0.46 1.04
v 0.62 0.49 1.03
v 0.63 0.52 1.03
v 0.64 0.52 1.02
v 0.64 0.51 1.0
v 0.65 0.5 0.99
v 0.65 0.5 0.97
v 0.65 0.5 0.9500000000000001
v 0.5 0.37 0.92
v 0.5 0.37 0.9400000000000001
v 0.5 0.37 0.96
v 0.5 0.38 0.98
v 0.49 0.39 1.0
v 0.49 0.4 1.02
v 0.48 0.41000000000000003 1.04
v 0.53 0.4 1.03
v 0.56 0.4 1.03
v 0.55 0.39 1.01
v 0.55 0.38 1.0
v 0.54 0.37 0.98
v 0.53 0.37 0.9500000000000001
v 0.52 0.37 0.9400000000000001
v 0.43 0.43 1.02
v 0.39 0.43 0.99
v 0.37 0.43 0.97
v 0.36 0.44 0.9500000000000001
v 0.34 0.45 0.9400000000000001
v 0.34 0.47000000000000003 0.96
v 0.35000000000000003 0.47000000000000003 0.98
v 0.37 0.48 1.01
v 0.39 0.5 1.04
v 0.41000000000000003 0.46 1.03
v 0.37 0.48 0.8200000000000001
v 0.37 0.49 0.8300000000000001
v 0.37 0.5 0.86
v 0.37 0.5 0.88
v 0.37 0.52 0.9
v 0.38 0.52 0.91
v 0.39 0.54 0.93
v 0.39 0.5 0.93
v 0.4 0.47000000000000003 0.9400000000000001
v 0.39 0.47000000000000003 0.92
v 0.38 0.47000000000000003 0.91
v 0.38 0.47000000000000003 0.89
v 0.37 0.47000000000000003 0.86
v 0.37 0.47000000000000003 0.84
v 0.5 0.38 0.9
v 0.5 0.37 0.88
v 0.49 0.37 0.86
v 0.49 0.37 0.8300000000000001
v 0.48 0.37 0.81
v 0.47000000000000003 0.37 0.8300000000000001
v 0.47000000000000003 0.37 0.85
v 0.46 0.38 0.88
v 0.45 0.38 0.9
v 0.45 0.39 0.91
v 0.48 0.39 0.91
v 0.5 0.39 0.91
v 0.47000000000000003 0.64 0.72
v 0.48 0.63 0.74
v 0.49 0.63 0.76
v 0.5 0.63 0.78
v 0.52 0.62 0.8
v 0.54 0.6 0.8300000000000001
v 0.49 0.6 0.84
v 0.45 0.6 0.85
v 0.46 0.61 0.8200000000000001
v 0.46 0.62 0.81
v 0.46 0.63 0.79
v 0.46 0.63 0.76
v 0.46 0.63 0.74
v 0.46 0.51 0.75
v 0.45 0.51 0.73
v 0.46 0.51 0.71
v 0.46 0.51 0.68
v 0.46 0.51 0.66
v 0.47000000000000003 0.52 0.64
v 0.47000000000000003 0.53 0.66
v 0.47000000000000003 0.54 0.68
v 0.47000000000000003 0.54 0.71
v 0.48 0.55 0.74
v 0.48 0.55 0.75
v 0.47000000000000003 0.53 0.75
v 0.62 0.51 0.8
v 0.63 0.5 0.78
v 0.63 0.5 0.76
v 0.63 0.49 0.74
v 0.63 0.47000000000000003 0.71
v 0.62 0.46 0.74
v 0.62 0.46 0.77
v 0.61 0.46 0.79
v 0.6 0.45 0.8200000000000001
v 0.59 0.46 0.8300000000000001
v 0.6 0.49 0.8200000000000001
v 0.61 0.52 0.8200000000000001
v 0.44 0.49 0.68
v 0.43 0.49 0.71
v 0.42 0.49 0.74
v 0.41000000000000003 0.48 0.77
v 0.4 0.49 0.8
v 0.39 0.49 0.8300000000000001
v 0.39 0.5 0.86
v 0.41000000000000003 0.46 0.86
v 0.43 0.43 0.85
v 0.42 0.44 0.8200000000000001
v 0.43 0.44 0.8
v 0.42 0.45 0.77
v 0.43 0.46 0.73
v 0.44 0.47000000000000003 0.71
v 0.51 0.49 0.62
v 0.51 0.49 0.64
v 0.51 0.48 0.65
v 0.51 0.47000000000000003 0.68
v 0.51 0.47000000000000003 0.7000000000000001
v 0.51 0.46 0.73
v 0.5 0.46 0.75
v 0.53 0.47000000000000003 0.75
v 0.54 0.48 0.75
v 0.54 0.48 0.72
v 0.53 0.48 0.7000000000000001
v 0.53 0.48 0.68
v 0.52 0.49 0.65
v 0.52 0.49 0.64
v 0.6 0.6 0.81
v 0.6 0.6 0.8300000000000001
v 0.6 0.59 0.85
v 0.6 0.59 0.87
v 0.61 0.58 0.89
v 0.6 0.58 0.91
v 0.6 0.5700000000000001 0.92
v 0.58 0.59 0.92
v 0.5700000000000001 0.61 0.92
v 0.5700000000000001 0.61 0.91
v 0.58 0.61 0.89
v 0.59 0.61 0.87
v 0.59 0.61 0.85
v 0.59 0.61 0.8300000000000001
v 0.52 0.62 1.03
v 0.53 0.63 1.02
v 0.54 0.63 0.99
v 0.55 0.63 0.98
v 0.56 0.63 0.96
v 0.5700000000000001 0.62 0.9400000000000001
v 0.58 0.62 0.96
v 0.58 0.62 0.98
v 0.58 0.61 1.01
v 0.58 0.6 1.03
v 0.55 0.6 1.04
v 0.59 0.01 1.12
v 0.66 0.02 1.09
v 0.62 -0.05 1.09
v 0.54 -0.04 1.09
v 0.51 0.04 1.1
v 0.6 0.08 1.1
v 0.53 0.11 1.04
v 0.61 0.13 1.03
v 0.47000000000000003 0.06 1.03
v 0.54 0.11 0.8200000000000001
v 0.5 0.06 0.81
v 0.48 -0.01 0.8200000000000001
v 0.55 0.0 0.74
v 0.5700000000000001 0.05 0.74
v 0.58 0.0 0.7000000000000001
v 0.6 0.0 0.67
v 0.59 0.02 0.7000000000000001
v 0.51 -0.07 0.81
v 0.5700000000000001 -0.11 0.8200000000000001
v 0.58 -0.04 0.74
v 0.63 -0.01 0.74
v 0.62 0.04 0.74
v 0.61 0.02 0.71
v 0.62 0.0 0.71
v 0.64 -0.09 0.81
v 0.7000000000000001 -0.05 0.8200000000000001
v 0.6 -0.01 0.71
v 0.7000000000000001 0.02 0.81
v 0.68 0.08 0.8300000000000001
v 0.72 0.02 1.03
v 0.71 0.06 0.92
v 0.72 -0.01 0.92
v 0.5700000000000001 0.14 0.92
v 0.61 0.11 0.81
v 0.65 0.12 0.92
v 0.46 0.03 0.92
v 0.5 0.1 0.92
v 0.5 -0.07 1.01
v 0.53 -0.11 0.92
v 0.48 -0.05 0.92
v 0.64 -0.12 1.02
v 0.71 -0.06 1.04
v 0.68 -0.09 0.92
v 0.67 0.09 1.04
v 0.5700000000000001 -0.11 1.03
v 0.61 -0.12 0.92
v 0.47000000000000003 -0.01 1.03
v 0.47000000000000003 0.06 1.02
v 0.47000000000000003 0.08 1.01
v 0.47000000000000003 0.09 0.98
v 0.47000000000000003 0.09 0.97
v 0.48 0.1 0.9500000000000001
v 0.49 0.11 0.93
v 0.5 0.12 0.9500000000000001
v 0.5 0.12 0.97
v 0.51 0.11 1.0
v 0.52 0.11 1.02
v 0.53 0.1 1.03
v 0.5 0.08 1.03
v 0.74 -0.02 0.9400000000000001
v 0.74 -0.02 0.9500000000000001
v 0.73 -0.03 0.97
v 0.73 -0.03 0.99
v 0.72 -0.04 1.01
v 0.72 -0.04 1.02
v 0.7000000000000001 -0.04 1.04
v 0.71 -0.01 1.03
v 0.71 0.02 1.03
v 0.72 0.02 1.02
v 0.73 0.01 1.0
v 0.74 0.0 0.99
v 0.74 0.0 0.97
v 0.74 0.0 0.9500000000000001
v 0.59 -0.13 0.92
v 0.59 -0.13 0.9400000000000001
v 0.58 -0.13 0.96
v 0.59 -0.12 0.98
v 0.58 -0.11 1.0
v 0.58 -0.1 1.02
v 0.5700000000000001 -0.09 1.04
v 0.62 -0.1 1.03
v 0.65 -0.1 1.03
v 0.64 -0.11 1.01
v 0.63 -0.12 1.0
v 0.62 -0.13 0.98
v 0.61 -0.13 0.9500000000000001
v 0.61 -0.13 0.9400000000000001
v 0.52 -0.07 1.02
v 0.49 -0.07 1.01
v 0.47000000000000003 -0.07 0.99
v 0.46 -0.07 0.97
v 0.45 -0.06 0.9500000000000001
v 0.43 -0.05 0.9400000000000001
v 0.43 -0.03 0.96
v 0.44 -0.03 0.98
v 0.45 -0.02 1.01
v 0.48 0.0 1.04
v 0.5 -0.04 1.03
v 0.46 -0.02 0.8200000000000001
v 0.46 -0.01 0.8300000000000001
v 0.46 0.0 0.86
v 0.46 0.0 0.88
v 0.46 0.02 0.9
v 0.47000000000000003 0.02 0.91
v 0.48 0.04 0.93
v 0.48 0.0 0.93
v 0.49 -0.03 0.9400000000000001
v 0.48 -0.03 0.92
v 0.47000000000000003 -0.03 0.91
v 0.46 -0.03 0.89
v 0.46 -0.03 0.86
v 0.46 -0.03 0.84
v 0.59 -0.12 0.9
v 0.58 -0.13 0.88
v 0.58 -0.13 0.86
v 0.58 -0.13 0.8300000000000001
v 0.5700000000000001 -0.13 0.81
v 0.56 -0.13 0.8300000000000001
v 0.55 -0.13 0.85
v 0.55 -0.12 0.88
v 0.54 -0.12 0.9
v 0.54 -0.11 0.91
v 0.56 -0.11 0.91
v 0.59 -0.11 0.91
v 0.56 0.14 0.72
v 0.5700000000000001 0.13 0.74
v 0.58 0.13 0.76
v 0.59 0.13 0.78
v 0.6 0.12 0.8
v 0.63 0.1 0.8300000000000001
v 0.58 0.1 0.84
v 0.54 0.1 0.85
v 0.54 0.12 0.81
v 0.55 0.13 0.79
v 0.55 0.13 0.76
v 0.55 0.13 0.74
v 0.55 0.01 0.75
v 0.54 0.01 0.73
v 0.54 0.01 0.71
v 0.54 0.01 0.68
v 0.55 0.01 0.66
v 0.56 0.02 0.64
v 0.56 0.03 0.66
v 0.56 0.04 0.68
v 0.56 0.04 0.71
v 0.56 0.05 0.74
v 0.5700000000000001 0.05 0.75
v 0.56 0.03 0.75
v 0.71 0.01 0.8
v 0.72 0.0 0.78
v 0.72 0.0 0.76
v 0.72 -0.01 0.74
v 0.71 -0.03 0.71
v 0.71 -0.04 0.74
v 0.71 -0.04 0.77
v 0.7000000000000001 -0.04 0.79
v 0.6900000000000001 -0.05 0.8200000000000001
v 0.68 -0.04 0.8300000000000001
v 0.6900000000000001 -0.01 0.8200000000000001
v 0.7000000000000001 0.02 0.8200000000000001
v 0.53 -0.01 0.68
v 0.52 -0.01 0.71
v 0.51 -0.01 0.74
v 0.5 -0.02 0.77
v 0.48 -0.01 0.8
v 0.48 -0.01 0.8300000000000001
v 0.47000000000000003 0.0 0.86
v 0.5 -0.04 0.86
v 0.51 -0.07 0.85
v 0.51 -0.06 0.8200000000000001
v 0.51 -0.06 0.8
v 0.51 -0.05 0.77
v 0.52 -0.04 0.73
v 0.53 -0.03 0.71
v 0.6 -0.01 0.62
v 0.6 -0.01 0.64
v 0.6 -0.02 0.65
v 0.6 -0.03 0.68
v 0.59 -0.03 0.7000000000000001
v 0.59 -0.04 0.73
v 0.59 -0.04 0.75
v 0.61 -0.03 0.75
v 0.63 -0.02 0.75
v 0.63 -0.02 0.72
v 0.62 -0.02 0.7000000000000001
v 0.62 -0.02 0.68
v 0.61 -0.01 0.65
v 0.61 -0.01 0.64
v 0.6900000000000001 0.1 0.81
v 0.6900000000000001 0.1 0.8300000000000001
v 0.6900000000000001 0.09 0.85
v 0.6900000000000001 0.09 0.87
v 0.7000000000000001 0.08 0.89
v 0.6900000000000001 0.08 0.91
v 0.6900000000000001 0.07 0.92
v 0.67 0.09 0.92
v 0.65 0.11 0.92
v 0.66 0.11 0.91
v 0.67 0.11 0.89
v 0.67 0.11 0.87
v 0.68 0.11 0.85
v 0.68 0.11 0.8300000000000001
v 0.6 0.12 1.03
v 0.62 0.13 1.02
v 0.63 0.13 0.99
v 0.64 0.13 0.98
v 0.64 0.13 0.96
v 0.66 0.12 0.9400000000000001
v 0.67 0.12 0.96
v 0.67 0.12 0.98
v 0.67 0.11 1.01
v 0.67 0.1 1.03
v 0.64 0.1 1.04
v 0.5 -0.49 1.12
v 0.5700000000000001 -0.48 1.09
v 0.54 -0.55 1.09
v 0.45 -0.54 1.09
v 0.43 -0.46 1.1
v 0.51 -0.42 1.1
v 0.45 -0.39 1.04
v 0.52 -0.37 1.03
v 0.38 -0.44 1.03
v 0.45 -0.39 0.8200000000000001
v 0.41000000000000003 -0.44 0.81
v 0.39 -0.51 0.8200000000000001
v 0.46 -0.5 0.74
v 0.49 -0.45 0.74
v 0.49 -0.5 0.7000000000000001
v 0.51 -0.5 0.67
v 0.5 -0.48 0.7000000000000001
v 0.43 -0.5700000000000001 0.81
v 0.48 -0.61 0.8200000000000001
v 0.5 -0.54 0.74
v 0.54 -0.51 0.74
v 0.54 -0.46 0.74
v 0.53 -0.48 0.71
v 0.53 -0.5 0.71
v 0.55 -0.59 0.81
v 0.61 -0.55 0.8200000000000001
v 0.51 -0.51 0.71
v 0.61 -0.48 0.81
v 0.59 -0.42 0.8300000000000001
v 0.64 -0.48 1.03
v 0.62 -0.44 0.92
v 0.63 -0.51 0.92
v 0.49 -0.36 0.92
v 0.52 -0.39 0.81
v 0.56 -0.38 0.92
v 0.37 -0.47000000000000003 0.92
v 0.41000000000000003 -0.4 0.92
v 0.41000000000000003 -0.5700000000000001 1.01
v 0.44 -0.61 0.92
v 0.39 -0.55 0.92
v 0.56 -0.62 1.02
v 0.62 -0.56 1.04
v 0.6 -0.59 0.92
v 0.58 -0.41000000000000003 1.04
v 0.48 -0.61 1.03
v 0.52 -0.62 0.92
v 0.38 -0.51 1.03
v 0.38 -0.44 1.02
v 0.38 -0.42 1.01
v 0.38 -0.41000000000000003 0.98
v 0.38 -0.41000000000000003 0.97
v 0.39 -0.4 0.9500000000000001
v 0.41000000000000003 -0.39 0.93
v 0.42 -0.38 0.9500000000000001
v 0.42 -0.38 0.97
v 0.42 -0.39 1.0
v 0.43 -0.39 1.02
v 0.44 -0.4 1.03
v 0.41000000000000003 -0.42 1.03
v 0.65 -0.52 0.9400000000000001
v 0.65 -0.52 0.9500000000000001
v 0.65 -0.53 0.97
v 0.64 -0.53 0.99
v 0.64 -0.54 1.01
v 0.63 -0.54 1.02
v 0.62 -0.54 1.04
v 0.62 -0.51 1.03
v 0.63 -0.48 1.03
v 0.64 -0.48 1.02
v 0.64 -0.49 1.0
v 0.65 -0.5 0.99
v 0.65 -0.5 0.97
v 0.65 -0.5 0.9500000000000001
v 0.5 -0.63 0.92
v 0.5 -0.63 0.9400000000000001
v 0.5 -0.63 0.96
v 0.5 -0.62 0.98
v 0.49 -0.61 1.0
v 0.49 -0.6 1.02
v 0.48 -0.59 1.04
v 0.53 -0.6 1.03
v 0.56 -0.6 1.03
v 0.55 -0.61 1.01
v 0.55 -0.62 1.0
v 0.54 -0.63 0.98
v 0.53 -0.63 0.9500000000000001
v 0.52 -0.63 0.9400000000000001
v 0.43 -0.5700000000000001 1.02
v 0.39 -0.5700000000000001 0.99
v 0.37 -0.5700000000000001 0.97
v 0.36 -0.56 0.9500000000000001
v 0.34 -0.55 0.9400000000000001
v 0.34 -0.53 0.96
v 0.35000000000000003 -0.53 0.98
v 0.37 -0.52 1.01
v 0.39 -0.5 1.04
v 0.41000000000000003 -0.54 1.03
v 0.37 -0.52 0.8200000000000001
v 0.37 -0.51 0.8300000000000001
v 0.37 -0.5 0.86
v 0.37 -0.5 0.88
v 0.37 -0.48 0.9
v 0.38 -0.48 0.91
v 0.39 -0.46 0.93
v 0.39 -0.5 0.93
v 0.4 -0.53 0.9400000000000001
v 0.39 -0.53 0.92
v 0.38 -0.53 0.91
v 0.38 -0.53 0.89
v 0.37 -0.53 0.86
v 0.37 -0.53 0.84
v 0.5 -0.62 0.9
v 0.5 -0.63 0.88
v 0.49 -0.63 0.86
v 0.49 -0.63 0.8300000000000001
v 0.48 -0.63 0.81
v 0.47000000000000003 -0.63 0.8300000000000001
v 0.47000000000000003 -0.63 0.85
v 0.46 -0.62 0.88
v 0.45 -0.62 0.9
v 0.45 -0.61 0.91
v 0.48 -0.61 0.91
v 0.5 -0.61 0.91
v 0.47000000000000003 -0.36 0.72
v 0.48 -0.37 0.74
v 0.49 -0.37 0.76
v 0.5 -0.37 0.78
v 0.52 -0.38 0.8
v 0.54 -0.4 0.8300000000000001
v 0.49 -0.4 0.84
v 0.45 -0.4 0.85
v 0.46 -0.39 0.8200000000000001
v 0.46 -0.38 0.81
v 0.46 -0.37 0.79
v 0.46 -0.37 0.76
v 0.46 -0.37 0.74
v 0.46 -0.49 0.75
v 0.45 -0.49 0.73
v 0.46 -0.49 0.71
v 0.46 -0.49 0.68
v 0.46 -0.49 0.66
v 0.47000000000000003 -0.48 0.64
v 0.47000000000000003 -0.47000000000000003 0.66
v 0.47000000000000003 -0.46 0.68
v 0.47000000000000003 -0.46 0.71
v 0.48 -0.45 0.74
v 0.48 -0.45 0.75
v 0.47000000000000003 -0.47000000000000003 0.75
v 0.62 -0.49 0.8
v 0.63 -0.5 0.78
v 0.63 -0.5 0.76
v 0.63 -0.51 0.74
v 0.63 -0.53 0.71
v 0.62 -0.54 0.74
v 0.62 -0.54 0.77
v 0.61 -0.54 0.79
v 0.6 -0.55 0.8200000000000001
v 0.59 -0.54 0.8300000000000001
v 0.6 -0.51 0.8200000000000001
v 0.61 -0.48 0.8200000000000001
v 0.44 -0.51 0.68
v 0.43 -0.51 0.71
v 0.42 -0.51 0.74
v 0.41000000000000003 -0.52 0.77
v 0.4 -0.51 0.8
v 0.39 -0.51 0.8300000000000001
v 0.39 -0.5 0.86
v 0.41000000000000003 -0.54 0.86
v 0.43 -0.5700000000000001 0.85
v 0.42 -0.56 0.8200000000000001
v 0.43 -0.56 0.8
v 0.42 -0.55 0.77
v 0.43 -0.54 0.73
v 0.44 -0.53 0.71
v 0.51 -0.51 0.62
v 0.51 -0.51 0.64
v 0.51 -0.52 0.65
v 0.51 -0.53 0.68
v 0.51 -0.53 0.7000000000000001
v 0.51 -0.54 0.73
v 0.5 -0.54 0.75
v 0.53 -0.53 0.75
v 0.54 -0.52 0.75
v 0.54 -0.52 0.72
v 0.53 -0.52 0.7000000000000001
v 0.53 -0.52 0.68
v 0.52 -0.51 0.65
v 0.52 -0.51 0.64
v 0.6 -0.4 0.81
v 0.6 -0.4 0.8300000000000001
v 0.6 -0.41000000000000003 0.85
v 0.6 -0.41000000000000003 0.87
v 0.61 -0.42 0.89
v 0.6 -0.42 0.91
v 0.6 -0.43 0.92
v 0.58 -0.41000000000000003 0.92
v 0.5700000000000001 -0.39 0.92
v 0.5700000000000001 -0.39 0.91
v 0.58 -0.39 0.89
v 0.59 -0.39 0.87
v 0.59 -0.39 0.85
v 0.59 -0.39 0.8300000000000001
v 0.52 -0.38 1.03
v 0.53 -0.37 1.02
v 0.54 -0.37 0.99
v 0.55 -0.37 0.98
v 0.56 -0.37 0.96
v 0.5700000000000001 -0.38 0.9400000000000001
v 0.58 -0.38 0.96
v 0.58 -0.38 0.98
v 0.58 -0.39 1.01
v 0.58 -0.4 1.03
v 0.55 -0.4 1.04
v 0.0 -0.58 1.12
v 0.07 -0.5700000000000001 1.09
v 0.04 -0.64 1.09
v -0.05 -0.63 1.09
v -0.07 -0.55 1.1
v 0.01 -0.51 1.1
v -0.05 -0.48 1.04
v 0.02 -0.46 1.03
v -0.12 -0.53 1.03
v -0.05 -0.47000000000000003 0.8200000000000001
v -0.09 -0.53 0.81
v -0.11 -0.59 0.8200000000000001
v -0.04 -0.59 0.74
v -0.01 -0.54 0.74
v -0.01 -0.59 0.7000000000000001
v 0.01 -0.58 0.67
v 0.0 -0.56 0.7000000000000001
v -0.07 -0.66 0.81
v -0.02 -0.6900000000000001 0.8200000000000001
v 0.0 -0.62 0.74
v 0.04 -0.6 0.74
v 0.04 -0.55 0.74
v 0.03 -0.5700000000000001 0.71
v 0.03 -0.59 0.71
v 0.05 -0.68 0.81
v 0.11 -0.63 0.8200000000000001
v 0.01 -0.6 0.71
v 0.11 -0.5700000000000001 0.81
v 0.09 -0.51 0.8300000000000001
v 0.14 -0.56 1.03
v 0.12 -0.52 0.92
v 0.13 -0.6 0.92
v -0.01 -0.45 0.92
v 0.02 -0.48 0.81
v 0.06 -0.47000000000000003 0.92
v -0.13 -0.56 0.92
v -0.09 -0.49 0.92
v -0.09 -0.66 1.01
v -0.06 -0.6900000000000001 0.92
v -0.11 -0.64 0.92
v 0.06 -0.7000000000000001 1.02
v 0.12 -0.64 1.04
v 0.1 -0.67 0.92
v 0.08 -0.5 1.04
v -0.02 -0.7000000000000001 1.03
v 0.02 -0.71 0.92
v -0.12 -0.59 1.03
v -0.12 -0.53 1.02
v -0.12 -0.51 1.01
v -0.12 -0.5 0.98
v -0.12 -0.49 0.97
v -0.11 -0.49 0.9500000000000001
v -0.09 -0.47000000000000003 0.93
v -0.08 -0.47000000000000003 0.9500000000000001
v -0.08 -0.47000000000000003 0.97
v -0.08 -0.47000000000000003 1.0
v -0.07 -0.47000000000000003 1.02
v -0.06 -0.49 1.03
v -0.09 -0.51 1.03
v 0.15 -0.61 0.9400000000000001
v 0.15 -0.61 0.9500000000000001
v 0.15 -0.62 0.97
v 0.14 -0.61 0.99
v 0.14 -0.62 1.01
v 0.13 -0.63 1.02
v 0.12 -0.63 1.04
v 0.12 -0.6 1.03
v 0.13 -0.56 1.03
v 0.14 -0.5700000000000001 1.02
v 0.14 -0.58 1.0
v 0.15 -0.58 0.99
v 0.15 -0.59 0.97
v 0.15 -0.59 0.9500000000000001
v 0.0 -0.72 0.92
v 0.0 -0.72 0.9400000000000001
v 0.0 -0.71 0.96
v 0.0 -0.71 0.98
v -0.01 -0.7000000000000001 1.0
v -0.01 -0.6900000000000001 1.02
v -0.02 -0.68 1.04
v 0.03 -0.6900000000000001 1.03
v 0.06 -0.6900000000000001 1.03
v 0.05 -0.7000000000000001 1.01
v 0.05 -0.71 1.0
v 0.04 -0.72 0.98
v 0.03 -0.72 0.9500000000000001
v 0.02 -0.72 0.9400000000000001
v -0.07 -0.66 1.02
v -0.11 -0.66 0.99
v -0.13 -0.66 0.97
v -0.14 -0.65 0.9500000000000001
v -0.16 -0.63 0.9400000000000001
v -0.16 -0.62 0.96
v -0.15 -0.62 0.98
v -0.13 -0.61 1.01
v -0.12 -0.6 1.03
v -0.11 -0.59 1.04
v -0.09 -0.62 1.03
v -0.13 -0.61 0.8200000000000001
v -0.13 -0.6 0.8300000000000001
v -0.13 -0.59 0.86
v -0.13 -0.59 0.88
v -0.13 -0.5700000000000001 0.9
v -0.12 -0.5700000000000001 0.91
v -0.11 -0.55 0.93
v -0.11 -0.59 0.93
v -0.1 -0.62 0.9400000000000001
v -0.11 -0.62 0.92
v -0.12 -0.62 0.91
v -0.12 -0.62 0.89
v -0.13 -0.62 0.86
v -0.13 -0.62 0.84
v 0.0 -0.71 0.9
v 0.0 -0.71 0.88
v -0.01 -0.72 0.86
v -0.01 -0.72 0.8300000000000001
v -0.02 -0.71 0.81
v -0.03 -0.71 0.8300000000000001
v -0.03 -0.71 0.85
v -0.04 -0.71 0.88
v -0.05 -0.7000000000000001 0.9
v -0.05 -0.7000000000000001 0.91
v -0.02 -0.7000000000000001 0.91
v 0.0 -0.7000000000000001 0.91
v -0.03 -0.45 0.72
v -0.02 -0.45 0.74
v -0.01 -0.46 0.76
v 0.0 -0.46 0.78
v 0.02 -0.47000000000000003 0.8
v 0.04 -0.49 0.8300000000000001
v -0.01 -0.49 0.84
v -0.05 -0.49 0.85
v -0.04 -0.48 0.8200000000000001
v -0.04 -0.47000000000000003 0.81
v -0.04 -0.46 0.79
v -0.04 -0.46 0.76
v -0.04 -0.46 0.74
v -0.04 -0.58 0.75
v -0.05 -0.58 0.73
v -0.04 -0.58 0.71
v -0.04 -0.58 0.68
v -0.04 -0.58 0.66
v -0.03 -0.5700000000000001 0.64
v -0.03 -0.56 0.66
v -0.03 -0.55 0.68
v -0.03 -0.55 0.71
v -0.02 -0.54 0.74
v -0.02 -0.54 0.75
v -0.03 -0.56 0.75
v 0.12 -0.5700000000000001 0.8
v 0.13 -0.58 0.78
v 0.13 -0.59 0.76
v 0.13 -0.6 0.74
v 0.13 -0.62 0.71
v 0.12 -0.63 0.74
v 0.12 -0.63 0.77
v 0.11 -0.63 0.79
v 0.1 -0.64 0.8200000000000001
v 0.09 -0.63 0.8300000000000001
v 0.1 -0.6 0.8200000000000001
v 0.11 -0.56 0.8200000000000001
v -0.06 -0.6 0.68
v -0.07 -0.6 0.71
v -0.08 -0.6 0.74
v -0.09 -0.6 0.77
v -0.1 -0.6 0.8
v -0.11 -0.6 0.8300000000000001
v -0.11 -0.59 0.86
v -0.09 -0.63 0.86
v -0.07 -0.66 0.85
v -0.08 -0.65 0.8200000000000001
v -0.07 -0.65 0.8
v -0.08 -0.64 0.77
v -0.07 -0.62 0.73
v -0.06 -0.62 0.71
v 0.01 -0.6 0.62
v 0.01 -0.6 0.64
v 0.01 -0.61 0.65
v 0.01 -0.62 0.68
v 0.01 -0.62 0.7000000000000001
v 0.01 -0.62 0.73
v 0.0 -0.63 0.75
v 0.03 -0.62 0.75
v 0.04 -0.61 0.75
v 0.04 -0.61 0.72
v 0.03 -0.61 0.7000000000000001
v 0.03 -0.61 0.68
v 0.02 -0.6 0.65
v 0.02 -0.6 0.64
v 0.1 -0.49 0.81
v 0.1 -0.49 0.8300000000000001
v 0.1 -0.5 0.85
v 0.1 -0.5 0.87
v 0.11 -0.5 0.89
v 0.1 -0.51 0.91
v 0.1 -0.52 0.92
v 0.08 -0.5 0.92
v 0.07 -0.48 0.92
v 0.07 -0.48 0.91
v 0.08 -0.48 0.89
v 0.09 -0.48 0.87
v 0.09 -0.48 0.85
v 0.09 -0.48 0.8300000000000001
v 0.02 -0.47000000000000003 1.03
v 0.03 -0.46 1.02
v 0.04 -0.46 0.99
v 0.05 -0.45 0.98
v 0.06 -0.46 0.96
v 0.07 -0.46 0.9400000000000001
v 0.08 -0.47000000000000003 0.96
v 0.08 -0.47000000000000003 0.98
v 0.08 -0.48 1.01
v 0.08 -0.49 1.03
v 0.05 -0.49 1.04
v -0.5 -0.49 1.12
v -0.43 -0.48 1.09
v -0.46 -0.55 1.09
v -0.55 -0.54 1.09
v -0.5700000000000001 -0.46 1.1
v -0.49 -0.42 1.1
v -0.55 -0.39 1.04
v -0.48 -0.37 1.03
v -0.62 -0.44 1.03
v -0.55 -0.39 0.8200000000000001
v -0.59 -0.44 0.81
v -0.61 -0.51 0.8200000000000001
v -0.54 -0.5 0.74
v -0.51 -0.45 0.74
v -0.51 -0.5 0.7000000000000001
v -0.49 -0.5 0.67
v -0.5 -0.48 0.7000000000000001
v -0.5700000000000001 -0.5700000000000001 0.81
v -0.52 -0.61 0.8200000000000001
v -0.5 -0.54 0.74
v -0.46 -0.51 0.74
v -0.46 -0.46 0.74
v -0.47000000000000003 -0.48 0.71
v -0.47000000000000003 -0.5 0.71
v -0.45 -0.59 0.81
v -0.39 -0.55 0.8200000000000001
v -0.49 -0.51 0.71
v -0.39 -0.48 0.81
v -0.41000000000000003 -0.42 0.8300000000000001
v -0.36 -0.48 1.03
v -0.38 -0.44 0.92
v -0.37 -0.51 0.92
v -0.51 -0.36 0.92
v -0.48 -0.39 0.81
v -0.44 -0.38 0.92
v -0.63 -0.47000000000000003 0.92
v -0.59 -0.4 0.92
v -0.59 -0.5700000000000001 1.01
v -0.56 -0.61 0.92
v -0.61 -0.55 0.92
v -0.44 -0.62 1.02
v -0.38 -0.56 1.04
v -0.4 -0.59 0.92
v -0.42 -0.41000000000000003 1.04
v -0.52 -0.61 1.03
v -0.48 -0.62 0.92
v -0.62 -0.51 1.03
v -0.62 -0.44 1.02
v -0.62 -0.42 1.01
v -0.62 -0.41000000000000003 0.98
v -0.62 -0.41000000000000003 0.97
v -0.61 -0.4 0.9500000000000001
v -0.59 -0.39 0.93
v -0.58 -0.38 0.9500000000000001
v -0.58 -0.38 0.97
v -0.58 -0.39 1.0
v -0.5700000000000001 -0.39 1.02
v -0.56 -0.4 1.03
v -0.59 -0.42 1.03
v -0.35000000000000003 -0.52 0.9400000000000001
v -0.35000000000000003 -0.52 0.9500000000000001
v -0.35000000000000003 -0.53 0.97
v -0.36 -0.53 0.99
v -0.36 -0.54 1.01
v -0.37 -0.54 1.02
v -0.38 -0.54 1.04
v -0.38 -0.51 1.03
v -0.37 -0.48 1.03
v -0.36 -0.48 1.02
v -0.36 -0.49 1.0
v -0.35000000000000003 -0.5 0.99
v -0.35000000000000003 -0.5 0.97
v -0.35000000000000003 -0.5 0.9500000000000001
v -0.5 -0.63 0.92
v -0.5 -0.63 0.9400000000000001
v -0.5 -0.63 0.96
v -0.5 -0.62 0.98
v -0.51 -0.61 1.0
v -0.51 -0.6 1.02
v -0.52 -0.59 1.04
v -0.47000000000000003 -0.6 1.03
v -0.44 -0.6 1.03
v -0.45 -0.61 1.01
v -0.45 -0.62 1.0
v -0.46 -0.63 0.98
v -0.47000000000000003 -0.63 0.9500000000000001
v -0.48 -0.63 0.9400000000000001
v -0.5700000000000001 -0.5700000000000001 1.02
v -0.61 -0.5700000000000001 0.99
v -0.63 -0.5700000000000001 0.97
v -0.64 -0.56 0.9500000000000001
v -0.66 -0.55 0.9400000000000001
v -0.66 -0.53 0.96
v -0.65 -0.53 0.98
v -0.63 -0.52 1.01
v -0.61 -0.5 1.04
v -0.59 -0.54 1.03
v -0.63 -0.52 0.8200000000000001
v -0.63 -0.51 0.8300000000000001
v -0.63 -0.5 0.86
v -0.63 -0.5 0.88
v -0.63 -0.48 0.9
v -0.62 -0.48 0.91
v -0.61 -0.46 0.93
v -0.61 -0.5 0.93
v -0.6 -0.53 0.9400000000000001
v -0.61 -0.53 0.92
v -0.62 -0.53 0.91
v -0.62 -0.53 0.89
v -0.63 -0.53 0.86
v -0.63 -0.53 0.84
v -0.5 -0.62 0.9
v -0.5 -0.63 0.88
v -0.51 -0.63 0.86
v -0.51 -0.63 0.8300000000000001
v -0.52 -0.63 0.81
v -0.53 -0.63 0.8300000000000001
v -0.53 -0.63 0.85
v -0.54 -0.62 0.88
v -0.55 -0.62 0.9
v -0.55 -0.61 0.91
v -0.52 -0.61 0.91
v -0.5 -0.61 0.91
v -0.53 -0.36 0.72
v -0.52 -0.37 0.74
v -0.51 -0.37 0.76
v -0.5 -0.37 0.78
v -0.48 -0.38 0.8
v -0.46 -0.4 0.8300000000000001
v -0.51 -0.4 0.84
v -0.55 -0.4 0.85
v -0.54 -0.39 0.8200000000000001
v -0.54 -0.38 0.81
v -0.54 -0.37 0.79
v -0.54 -0.37 0.76
v -0.54 -0.37 0.74
v -0.54 -0.49 0.75
v -0.55 -0.49 0.73
v -0.54 -0.49 0.71
v -0.54 -0.49 0.68
v -0.54 -0.49 0.66
v -0.53 -0.48 0.64
v -0.53 -0.47000000000000003 0.66
v -0.53 -0.46 0.68
v -0.53 -0.46 0.71
v -0.52 -0.45 0.74
v -0.52 -0.45 0.75
v -0.53 -0.47000000000000003 0.75
v -0.38 -0.49 0.8
v -0.37 -0.5 0.78
v -0.37 -0.5 0.76
v -0.37 -0.51 0.74
v -0.37 -0.53 0.71
v -0.38 -0.54 0.74
v -0.38 -0.54 0.77
v -0.39 -0.54 0.79
v -0.4 -0.55 0.8200000000000001
v -0.41000000000000003 -0.54 0.8300000000000001
v -0.4 -0.51 0.8200000000000001
v -0.39 -0.48 0.8200000000000001
v -0.56 -0.51 0.68
v -0.5700000000000001 -0.51 0.71
v -0.58 -0.51 0.74
v -0.59 -0.52 0.77
v -0.6 -0.51 0.8
v -0.61 -0.51 0.8300000000000001
v -0.61 -0.5 0.86
v -0.59 -0.54 0.86
v -0.5700000000000001 -0.5700000000000001 0.85
v -0.58 -0.56 0.8200000000000001
v -0.5700000000000001 -0.56 0.8
v -0.58 -0.55 0.77
v -0.5700000000000001 -0.54 0.73
v -0.56 -0.53 0.71
v -0.49 -0.51 0.62
v -0.49 -0.51 0.64
v -0.49 -0.52 0.65
v -0.49 -0.53 0.68
v -0.49 -0.53 0.7000000000000001
v -0.49 -0.54 0.73
v -0.5 -0.54 0.75
v -0.47000000000000003 -0.53 0.75
v -0.46 -0.52 0.75
v -0.46 -0.52 0.72
v -0.47000000000000003 -0.52 0.7000000000000001
v -0.47000000000000003 -0.52 0.68
v -0.48 -0.51 0.65
v -0.48 -0.51 0.64
v -0.4 -0.4 0.81
v -0.4 -0.4 0.8300000000000001
v -0.4 -0.41000000000000003 0.85
v -0.4 -0.41000000000000003 0.87
v -0.39 -0.42 0.89
v -0.4 -0.42 0.91
v -0.4 -0.43 0.92
v -0.42 -0.41000000000000003 0.92
v -0.43 -0.39 0.92
v -0.43 -0.39 0.91
v -0.42 -0.39 0.89
v -0.41000000000000003 -0.39 0.87
v -0.41000000000000003 -0.39 0.85
v -0.41000000000000003 -0.39 0.8300000000000001
v -0.48 -0.38 1.03
v -0.47000000000000003 -0.37 1.02
v -0.46 -0.37 0.99
v -0.45 -0.37 0.98
v -0.44 -0.37 0.96
v -0.43 -0.38 0.9400000000000001
v -0.42 -0.38 0.96
v -0.42 -0.38 0.98
v -0.42 -0.39 1.01
v -0.42 -0.4 1.03
v -0.45 -0.4 1.04
v -0.59 0.01 1.12
v -0.51 0.02 1.09
v -0.55 -0.05 1.09
v -0.64 -0.04 1.09
v -0.66 0.04 1.1
v -0.58 0.08 1.1
v -0.64 0.11 1.04
v -0.5700000000000001 0.13 1.03
v -0.71 0.06 1.03
v -0.63 0.11 0.8200000000000001
v -0.68 0.06 0.81
v -0.7000000000000001 -0.01 0.8200000000000001
v -0.63 0.0 0.74
v -0.6 0.05 0.74
v -0.6 0.0 0.7000000000000001
v -0.5700000000000001 0.0 0.67
v -0.59 0.02 0.7000000000000001
v -0.66 -0.07 0.81
v -0.6 -0.11 0.8200000000000001
v -0.59 -0.04 0.74
v -0.54 -0.01 0.74
v -0.55 0.04 0.74
v -0.56 0.02 0.71
v -0.56 0.0 0.71
v -0.53 -0.09 0.81
v -0.48 -0.05 0.8200000000000001
v -0.58 -0.01 0.71
v -0.47000000000000003 0.02 0.81
v -0.5 0.08 0.8300000000000001
v -0.45 0.02 1.03
v -0.47000000000000003 0.06 0.92
v -0.45 -0.01 0.92
v -0.6 0.14 0.92
v -0.56 0.11 0.81
v -0.52 0.12 0.92
v -0.71 0.03 0.92
v -0.68 0.1 0.92
v -0.68 -0.07 1.01
v -0.64 -0.11 0.92
v -0.7000000000000001 -0.05 0.92
v -0.53 -0.12 1.02
v -0.47000000000000003 -0.06 1.04
v -0.49 -0.09 0.92
v -0.5 0.09 1.04
v -0.61 -0.11 1.03
v -0.56 -0.12 0.92
v -0.71 -0.01 1.03
v -0.7000000000000001 0.06 1.02
v -0.71 0.08 1.01
v -0.71 0.09 0.98
v -0.7000000000000001 0.09 0.97
v -0.7000000000000001 0.1 0.9500000000000001
v -0.68 0.11 0.93
v -0.67 0.12 0.9500000000000001
v -0.67 0.12 0.97
v -0.66 0.11 1.0
v -0.65 0.11 1.02
v -0.65 0.1 1.03
v -0.67 0.08 1.03
v -0.44 -0.02 0.9400000000000001
v -0.44 -0.02 0.9500000000000001
v -0.44 -0.03 0.97
v -0.44 -0.03 0.99
v -0.45 -0.04 1.01
v -0.46 -0.04 1.02
v -0.47000000000000003 -0.04 1.04
v -0.47000000000000003 -0.01 1.03
v -0.46 0.02 1.03
v -0.45 0.02 1.02
v -0.45 0.01 1.0
v -0.44 0.0 0.99
v -0.44 0.0 0.97
v -0.44 0.0 0.9500000000000001
v -0.58 -0.13 0.92
v -0.59 -0.13 0.9400000000000001
v -0.59 -0.13 0.96
v -0.59 -0.12 0.98
v -0.6 -0.11 1.0
v -0.6 -0.1 1.02
v -0.6 -0.09 1.04
v -0.56 -0.1 1.03
v -0.52 -0.1 1.03
v -0.53 -0.11 1.01
v -0.54 -0.12 1.0
v -0.55 -0.13 0.98
v -0.56 -0.13 0.9500000000000001
v -0.5700000000000001 -0.13 0.9400000000000001
v -0.66 -0.07 1.02
v -0.7000000000000001 -0.07 0.99
v -0.72 -0.07 0.97
v -0.73 -0.06 0.9500000000000001
v -0.74 -0.05 0.9400000000000001
v -0.75 -0.03 0.96
v -0.74 -0.03 0.98
v -0.72 -0.02 1.01
v -0.6900000000000001 0.0 1.04
v -0.68 -0.04 1.03
v -0.72 -0.02 0.8200000000000001
v -0.72 -0.01 0.8300000000000001
v -0.72 0.0 0.86
v -0.72 0.0 0.88
v -0.72 0.02 0.9
v -0.71 0.02 0.91
v -0.7000000000000001 0.04 0.93
v -0.6900000000000001 0.0 0.93
v -0.6900000000000001 -0.03 0.9400000000000001
v -0.7000000000000001 -0.03 0.92
v -0.71 -0.03 0.91
v -0.71 -0.03 0.89
v -0.72 -0.03 0.86
v -0.71 -0.03 0.84
v -0.59 -0.12 0.9
v -0.59 -0.13 0.88
v -0.59 -0.13 0.86
v -0.6 -0.13 0.8300000000000001
v -0.61 -0.13 0.81
v -0.62 -0.13 0.8300000000000001
v -0.62 -0.13 0.85
v -0.63 -0.12 0.88
v -0.64 -0.12 0.9
v -0.64 -0.11 0.91
v -0.61 -0.11 0.91
v -0.59 -0.11 0.91
v -0.62 0.14 0.72
v -0.61 0.13 0.74
v -0.59 0.13 0.76
v -0.59 0.13 0.78
v -0.5700000000000001 0.12 0.8
v -0.55 0.1 0.8300000000000001
v -0.6 0.1 0.84
v -0.64 0.1 0.85
v -0.63 0.12 0.81
v -0.63 0.13 0.79
v -0.63 0.13 0.76
v -0.63 0.13 0.74
v -0.63 0.01 0.75
v -0.63 0.01 0.73
v -0.63 0.01 0.71
v -0.63 0.01 0.68
v -0.63 0.01 0.66
v -0.62 0.02 0.64
v -0.61 0.03 0.66
v -0.62 0.04 0.68
v -0.62 0.04 0.71
v -0.61 0.05 0.74
v -0.61 0.05 0.75
v -0.62 0.03 0.75
v -0.47000000000000003 0.01 0.8
v -0.46 0.0 0.78
v -0.46 0.0 0.76
v -0.46 -0.01 0.74
v -0.46 -0.03 0.71
v -0.46 -0.04 0.74
v -0.47000000000000003 -0.04 0.77
v -0.48 -0.04 0.79
v -0.5 -0.04 0.8300000000000001
v -0.49 -0.01 0.8200000000000001
v -0.48 0.02 0.8200000000000001
v -0.64 -0.01 0.68
v -0.66 -0.01 0.71
v -0.67 -0.01 0.74
v -0.68 -0.02 0.77
v -0.6900000000000001 -0.01 0.8
v -0.7000000000000001 -0.01 0.8300000000000001
v -0.7000000000000001 0.0 0.86
v -0.68 -0.04 0.86
v -0.66 -0.07 0.85
v -0.66 -0.06 0.8200000000000001
v -0.66 -0.06 0.8
v -0.66 -0.05 0.77
v -0.65 -0.04 0.73
v -0.65 -0.03 0.71
v -0.58 -0.01 0.62
v -0.58 -0.01 0.64
v -0.58 -0.02 0.65
v -0.58 -0.03 0.68
v -0.58 -0.03 0.7000000000000001
v -0.58 -0.04 0.73
v -0.58 -0.04 0.75
v -0.56 -0.03 0.75
v -0.54 -0.02 0.75
v -0.55 -0.02 0.72
v -0.55 -0.02 0.7000000000000001
v -0.56 -0.02 0.68
v -0.56 -0.01 0.65
v -0.5700000000000001 -0.01 0.64
v -0.49 0.1 0.81
v -0.49 0.1 0.8300000000000001
v -0.48 0.09 0.85
v -0.48 0.09 0.87
v -0.48 0.08 0.89
v -0.48 0.08 0.91
v -0.48 0.07 0.92
v -0.5 0.09 0.92
v -0.52 0.11 0.92
v -0.51 0.11 0.91
v -0.51 0.11 0.89
v -0.5 0.11 0.87
v -0.5 0.11 0.85
v -0.5 0.11 0.8300000000000001
v -0.5700000000000001 0.12 1.03
v -0.56 0.13 1.02
v -0.55 0.13 0.99
v -0.54 0.13 0.98
v -0.53 0.13 0.96
v -0.52 0.12 0.9400000000000001
v -0.5 0.12 0.96
v -0.5 0.12 0.98
v -0.51 0.11 1.01
v -0.5 0.1 1.03
v -0.51 0.09 1.04
v -0.54 0.1 1.04
v -0.5 0.51 1.12
v -0.43 0.52 1.09
v -0.46 0.45 1.09
v -0.55 0.46 1.09
v -0.5700000000000001 0.54 1.1
v -0.49 0.58 1.1
v -0.55 0.61 1.04
v -0.48 0.63 1.03
v -0.62 0.56 1.03
v -0.55 0.61 0.8200000000000001
v -0.59 0.56 0.81
v -0.61 0.49 0.8200000000000001
v -0.54 0.5 0.74
v -0.51 0.55 0.74
v -0.51 0.5 0.7000000000000001
v -0.49 0.5 0.67
v -0.5 0.52 0.7000000000000001
v -0.5700000000000001 0.43 0.81
v -0.52 0.39 0.8200000000000001
v -0.5 0.46 0.74
v -0.46 0.49 0.74
v -0.46 0.54 0.74
v -0.47000000000000003 0.52 0.71
v -0.47000000000000003 0.5 0.71
v -0.45 0.41000000000000003 0.81
v -0.39 0.45 0.8200000000000001
v -0.49 0.49 0.71
v -0.39 0.52 0.81
v -0.41000000000000003 0.58 0.8300000000000001
v -0.36 0.52 1.03
v -0.38 0.56 0.92
v -0.37 0.49 0.92
v -0.51 0.64 0.92
v -0.48 0.61 0.81
v -0.44 0.62 0.92
v -0.63 0.53 0.92
v -0.59 0.6 0.92
v -0.59 0.43 1.01
v -0.56 0.39 0.92
v -0.61 0.45 0.92
v -0.44 0.38 1.02
v -0.38 0.44 1.04
v -0.4 0.41000000000000003 0.92
v -0.42 0.59 1.04
v -0.52 0.39 1.03
v -0.48 0.38 0.92
v -0.62 0.49 1.03
v -0.62 0.56 1.02
v -0.62 0.58 1.01
v -0.62 0.59 0.98
v -0.62 0.59 0.97
v -0.61 0.6 0.9500000000000001
v -0.59 0.61 0.93
v -0.58 0.62 0.9500000000000001
v -0.58 0.62 0.97
v -0.58 0.61 1.0
v -0.5700000000000001 0.61 1.02
v -0.56 0.6 1.03
v -0.59 0.58 1.03
v -0.35000000000000003 0.48 0.9400000000000001
v -0.35000000000000003 0.48 0.9500000000000001
v -0.35000000000000003 0.47000000000000003 0.97
v -0.36 0.47000000000000003 0.99
v -0.36 0.46 1.01
v -0.37 0.46 1.02
v -0.38 0.46 1.04
v -0.38 0.49 1.03
v -0.37 0.52 1.03
v -0.36 0.52 1.02
v -0.36 0.51 1.0
v -0.35000000000000003 0.5 0.99
v -0.35000000000000003 0.5 0.97
v -0.35000000000000003 0.5 0.9500000000000001
v -0.5 0.37 0.92
v -0.5 0.37 0.9400000000000001
v -0.5 0.37 0.96
v -0.5 0.38 0.98
v -0.51 0.39 1.0
v -0.51 0.4 1.02
v -0.52 0.41000000000000003 1.04
v -0.47000000000000003 0.4 1.03
v -0.44 0.4 1.03
v -0.45 0.39 1.01
v -0.45 0.38 1.0
v -0.46 0.37 0.98
v -0.47000000000000003 0.37 0.9500000000000001
v -0.48 0.37 0.9400000000000001
v -0.5700000000000001 0.43 1.02
v -0.61 0.43 0.99
v -0.63 0.43 0.97
v -0.64 0.44 0.9500000000000001
v -0.66 0.45 0.9400000000000001
v -0.66 0.47000000000000003 0.96
v -0.65 0.47000000000000003 0.98
v -0.63 0.48 1.01
v -0.61 0.5 1.04
v -0.59 0.46 1.03
v -0.63 0.48 0.8200000000000001
v -0.63 0.49 0.8300000000000001
v -0.63 0.5 0.86
v -0.63 0.5 0.88
v -0.63 0.52 0.9
v -0.62 0.52 0.91
v -0.61 0.54 0.93
v -0.61 0.5 0.93
v -0.6 0.47000000000000003 0.9400000000000001
v -0.61 0.47000000000000003 0.92
v -0.62 0.47000000000000003 0.91
v -0.62 0.47000000000000003 0.89
v -0.63 0.47000000000000003 0.86
v -0.63 0.47000000000000003 0.84
v -0.5 0.38 0.9
v -0.5 0.37 0.88
v -0.51 0.37 0.86
v -0.51 0.37 0.8300000000000001
v -0.52 0.37 0.81
v -0.53 0.37 0.8300000000000001
v -0.53 0.37 0.85
v -0.54 0.38 0.88
v -0.55 0.38 0.9
v -0.55 0.39 0.91
v -0.52 0.39 0.91
v -0.5 0.39 0.91
v -0.53 0.64 0.72
v -0.52 0.63 0.74
v -0.51 0.63 0.76
v -0.5 0.63 0.78
v -0.48 0.62 0.8
v -0.46 0.6 0.8300000000000001
v -0.51 0.6 0.84
v -0.55 0.6 0.85
v -0.54 0.61 0.8200000000000001
v -0.54 0.62 0.81
v -0.54 0.63 0.79
v -0.54 0.63 0.76
v -0.54 0.63 0.74
v -0.54 0.51 0.75
v -0.55 0.51 0.73
v -0.54 0.51 0.71
v -0.54 0.51 0.68
v -0.54 0.51 0.66
v -0.53 0.52 0.64
v -0.53 0.53 0.66
v -0.53 0.54 0.68
v -0.53 0.54 0.71
v -0.52 0.55 0.74
v -0.52 0.55 0.75
v -0.53 0.53 0.75
v -0.38 0.51 0.8
v -0.37 0.5 0.78
v -0.37 0.5 0.76
v -0.37 0.49 0.74
v -0.37 0.47000000000000003 0.71
v -0.38 0.46 0.74
v -0.38 0.46 0.77
v -0.39 0.46 0.79
v -0.4 0.45 0.8200000000000001
v -0.41000000000000003 0.46 0.8300000000000001
v -0.4 0.49 0.8200000000000001
v -0.39 0.52 0.8200000000000001
v -0.56 0.49 0.68
v -0.5700000000000001 0.49 0.71
v -0.58 0.49 0.74
v -0.59 0.48 0.77
v -0.6 0.49 0.8
v -0.61 0.49 0.8300000000000001
v -0.61 0.5 0.86
v -0.59 0.46 0.86
v -0.5700000000000001 0.43 0.85
v -0.58 0.44 0.8200000000000001
v -0.5700000000000001 0.44 0.8
v -0.58 0.45 0.77
v -0.5700000000000001 0.46 0.73
v -0.56 0.47000000000000003 0.71
v -0.49 0.49 0.62
v -0.49 0.49 0.64
v -0.49 0.48 0.65
v -0.49 0.47000000000000003 0.68
v -0.49 0.47000000000000003 0.7000000000000001
v -0.49 0.46 0.73
v -0.5 0.46 0.75
v -0.47000000000000003 0.47000000000000003 0.75
v -0.46 0.48 0.75
v -0.46 0.48 0.72
v -0.47000000000000003 0.48 0.7000000000000001
v -0.47000000000000003 0.48 0.68
v -0.48 0.49 0.65
v -0.48 0.49 0.64
v -0.4 0.6 0.81
v -0.4 0.6 0.8300000000000001
v -0.4 0.59 0.85
v -0.4 0.59 0.87
v -0.39 0.58 0.89
v -0.4 0.58 0.91
v -0.4 0.5700000000000001 0.92
v -0.42 0.59 0.92
v -0.43 0.61 0.92
v -0.43 0.61 0.91
v -0.42 0.61 0.89
v -0.41000000000000003 0.61 0.87
v -0.41000000000000003 0.61 0.85
v -0.41000000000000003 0.61 0.8300000000000001
v -0.48 0.62 1.03
v -0.47000000000000003 0.63 1.02
v -0.46 0.63 0.99
v -0.45 0.63 0.98
v -0.44 0.63 0.96
v -0.43 0.62 0.9400000000000001
v -0.42 0.62 0.96
v -0.42 0.62 0.98
v -0.42 0.61 1.01
v -0.42 0.6 1.03
v -0.45 0.6 1.04

usemtl rsc_904008
f 1 2 3 4
f 2 5 6 3
f 5 7 8 6
f 7 9 10 8
f 9 11 12 10
f 11 1 4 12
f 3 6 13
f 6 8 13
f 8 10 13
f 10 12 13
f 12 4 13
f 4 3 13
usemtl rsc_005008
f 14 15 16 17
f 18 14 17 19
f 15 18 19 16
f 20 21 22 23
f 24 25 21 20
f 26 27 25 24
f 19 17 27 26
f 28 20 23 29
f 30 24 20 28
f 27 31 30 25
f 16 19 26 31
f 31 26 24 30
f 31 27 26
f 17 16 31 27
f 24 25 30
f 21 28 29 22
f 23 22 29
f 25 30 28 21
f 32 33 34 35
f 36 32 35 37
f 33 36 37 34
f 38 39 40 41
f 42 43 39 38
f 44 45 43 42
f 37 35 45 44
f 46 38 41 22
f 47 42 38 46
f 45 48 47 43
f 34 37 44 48
f 48 44 42 47
f 48 45 44
f 35 34 48 45
f 42 43 47
f 39 46 22 40
f 41 40 22
f 43 47 46 39
f 49 50 51 52
f 53 49 52 54
f 50 53 54 51
f 55 56 29 57
f 58 59 56 55
f 60 61 59 58
f 54 52 61 60
f 62 55 57 63
f 64 58 55 62
f 61 65 64 59
f 51 54 60 65
f 65 60 58 64
f 65 61 60
f 52 51 65 61
f 58 59 64
f 56 62 63 29
f 57 29 63
f 59 64 62 56
f 66 67 68 69
f 70 66 69 71
f 67 70 71 68
f 72 73 63 74
f 75 76 73 72
f 77 78 76 75
f 71 69 78 77
f 79 72 74 40
f 80 75 72 79
f 78 81 80 76
f 68 71 77 81
f 81 77 75 80
f 81 78 77
f 69 68 81 78
f 75 76 80
f 73 79 40 63
f 74 63 40
f 76 80 79 73
f 82 83 84 85
f 86 82 85 87
f 83 86 87 84
f 88 89 90 22
f 91 92 89 88
f 93 94 92 91
f 87 85 94 93
f 95 88 22 96
f 97 91 88 95
f 94 98 97 92
f 84 87 93 98
f 98 93 91 97
f 98 94 93
f 85 84 98 94
f 91 92 97
f 89 95 96 90
f 22 90 96
f 92 97 95 89
f 99 100 101 102
f 103 99 102 104
f 100 103 104 101
f 105 106 107 40
f 108 109 106 105
f 110 111 109 108
f 104 102 111 110
f 112 105 40 113
f 114 108 105 112
f 111 115 114 109
f 101 104 110 115
f 115 110 108 114
f 115 111 110
f 102 101 115 111
f 108 109 114
f 106 112 113 107
f 40 107 113
f 109 114 112 106
f 116 117 118 119
f 120 116 119 121
f 117 120 121 118
f 122 123 124 63
f 125 126 123 122
f 127 128 126 125
f 121 119 128 127
f 129 122 63 130
f 131 125 122 129
f 128 132 131 126
f 118 121 127 132
f 132 127 125 131
f 132 128 127
f 119 118 132 128
f 125 126 131
f 123 129 130 124
f 63 124 130
f 126 131 129 123
f 133 134 135 136
f 137 133 136 138
f 134 137 138 135
f 139 140 141 29
f 142 143 140 139
f 144 145 143 142
f 138 136 145 144
f 146 139 29 147
f 148 142 139 146
f 145 149 148 143
f 135 138 144 149
f 149 144 142 148
f 149 145 144
f 136 135 149 145
f 142 143 148
f 140 146 147 141
f 29 141 147
f 143 148 146 140
f 22 40 150 151
f 63 29 152 153
f 40 63 153 150
f 29 22 151 152
f 151 150 153 152
usemtl rsc_880830
f 154 155 156
f 154 156 157
f 160 161 159 158 162
f 163 164 165 166 167
f 167 166 168 169 170
f 165 171 172 173 166
f 174 175 176 169 177
f 172 178 179 174 173
f 166 173 180 169 168
f 179 181 182 175 174
f 183 184 182 181 179 185
f 161 186 163 187 182 188
f 162 189 165 164 163 190
f 191 192 172 171 165 193
f 194 195 183 185 179 196
f 183 197 161 188 182 184
f 182 187 163 167 175
f 161 160 162 190 163 186
f 191 198 194 199 172 192
f 162 200 191 193 165 189
f 183 155 159 161 197
f 200 162 158 157 191
f 195 194 156 155 183
f 198 191 157 156 194
f 194 196 179 178 172 199
f 175 167 170 169 176
f 366 367 368
f 366 368 369
f 366 369 370
f 366 370 371
f 372 373 371 370 374
f 375 376 377 378 379
f 379 378 380 381 382
f 377 383 384 385 378
f 386 387 388 381 389
f 384 390 391 386 385
f 378 385 392 381 380
f 391 393 394 387 386
f 385 386 389 381 392
f 395 396 394 393 391 397
f 373 398 375 399 394 400
f 374 401 377 376 375 402
f 403 404 384 383 377 405
f 406 407 395 397 391 408
f 395 409 373 400 394 396
f 394 399 375 379 387
f 373 372 374 402 375 398
f 403 410 406 411 384 404
f 374 412 403 405 377 401
f 395 367 371 373 409
f 412 374 370 369 403
f 407 406 368 367 395
f 367 366 371
f 410 403 369 368 406
f 406 408 391 390 384 411
f 387 379 382 381 388
f 579 580 581
f 579 581 582
f 579 582 583
f 579 583 584
f 585 586 584 583 587
f 588 589 590 591 592
f 592 591 593 594 595
f 590 596 597 598 591
f 599 600 601 594 602
f 597 603 604 599 598
f 591 598 605 594 593
f 604 606 607 600 599
f 608 609 607 606 604 610
f 586 611 588 612 607 613
f 587 614 590 589 588 615
f 616 617 597 596 590 618
f 619 620 608 610 604 621
f 608 622 586 613 607 609
f 607 612 588 592 600
f 586 585 587 615 588 611
f 616 623 619 624 597 617
f 587 625 616 618 590 614
f 608 580 584 586 622
f 625 587 583 582 616
f 620 619 581 580 608
f 623 616 582 581 619
f 619 621 604 603 597 624
f 600 592 595 594 601
f 792 793 794
f 792 794 795
f 792 795 796
f 798 799 797 796 800
f 801 802 803 804 805
f 805 804 806 807 808
f 803 809 810 811 804
f 812 813 814 807 815
f 810 816 817 812 811
f 804 811 818 807 806
f 817 819 820 813 812
f 821 822 820 819 817 823
f 799 824 801 825 820 826
f 800 827 803 802 801 828
f 829 830 810 809 803 831
f 832 833 821 823 817 834
f 821 835 799 826 820 822
f 820 825 801 805 813
f 799 798 800 828 801 824
f 829 836 832 837 810 830
f 821 793 797 799 835
f 838 800 796 795 829
f 833 832 794 793 821
f 836 829 795 794 832
f 832 834 817 816 810 837
f 813 805 808 807 814
f 1005 1006 1007
f 1005 1007 1008
f 1005 1008 1009
f 1005 1009 1010
f 1011 1012 1010 1009 1013
f 1014 1015 1016 1017 1018
f 1018 1017 1019 1020 1021
f 1016 1022 1023 1024 1017
f 1025 1026 1027 1020 1028
f 1023 1029 1030 1025 1024
f 1017 1024 1031 1020 1019
f 1030 1032 1033 1026 1025
f 1034 1035 1033 1032 1030 1036
f 1012 1037 1014 1038 1033 1039
f 1013 1040 1016 1015 1014 1041
f 1042 1043 1023 1022 1016 1044
f 1045 1046 1034 1036 1030 1047
f 1034 1048 1012 1039 1033 1035
f 1033 1038 1014 1018 1026
f 1012 1011 1013 1041 1014 1037
f 1042 1049 1045 1050 1023 1043
f 1013 1051 1042 1044 1016 1040
f 1034 1006 1010 1012 1048
f 1051 1013 1009 1008 1042
f 1046 1045 1007 1006 1034
f 1006 1005 1010
f 1049 1042 1008 1007 1045
f 1045 1047 1030 1029 1023 1050
f 1026 1018 1021 1020 1027
f 1219 1220 1221
f 1219 1221 1222
f 1219 1222 1223
f 1219 1223 1224
f 1225 1226 1224 1223 1227
f 1228 1229 1230 1231 1232
f 1232 1231 1233 1234 1235
f 1230 1236 1237 1238 1231
f 1237 1243 1244 1239 1238
f 1231 1238 1245 1234 1233
f 1244 1246 1247 1240 1239
f 1248 1249 1247 1246 1244 1250
f 1226 1251 1228 1252 1247 1253
f 1227 1254 1230 1229 1228 1255
f 1256 1257 1237 1236 1230 1258
f 1259 1260 1248 1250 1244 1261
f 1248 1262 1226 1253 1247 1249
f 1247 1252 1228 1232 1240
f 1226 1225 1227 1255 1228 1251
f 1256 1263 1259 1264 1237 1257
f 1227 1265 1256 1258 1230 1254
f 1248 1220 1224 1226 1262
f 1265 1227 1223 1222 1256
f 1260 1259 1221 1220 1248
f 1220 1219 1224
f 1263 1256 1222 1221 1259
f 1259 1261 1244 1243 1237 1264
f 1240 1232 1235 1234 1241
f 1432 1433 1434
f 1432 1434 1435
f 1432 1435 1436
f 1432 1436 1437
f 1438 1439 1437 1436 1440
f 1441 1442 1443 1444 1445
f 1445 1444 1446 1447 1448
f 1443 1449 1450 1451 1444
f 1450 1456 1457 1452 1451
f 1444 1451 1458 1447 1446
f 1457 1459 1460 1453 1452
f 1451 1452 1455 1447 1458
f 1461 1462 1460 1459 1457 1463
f 1439 1464 1441 1465 1460 1466
f 1440 1467 1443 1442 1441 1468
f 1469 1470 1450 1449 1443 1471
f 1472 1473 1461 1463 1457 1474
f 1461 1475 1439 1466 1460 1462
f 1460 1465 1441 1445 1453
f 1439 1438 1440 1468 1441 1464
f 1469 1476 1472 1477 1450 1470
f 1440 1478 1469 1471 1443 1467
f 1461 1433 1437 1439 1475
f 1478 1440 1436 1435 1469
f 1473 1472 1434 1433 1461
f 1433 1432 1437
f 1476 1469 1435 1434 1472
f 1472 1474 1457 1456 1450 1477
f 1453 1445 1448 1447 1454
f 1644 1645 1646
f 1644 1646 1647
f 1644 1647 1648
f 1644 1648 1649
f 1650 1651 1649 1648 1652
f 1653 1654 1655 1656 1657
f 1657 1656 1658 1659 1660
f 1655 1661 1662 1663 1656
f 1664 1665 1666 1659 1667
f 1662 1668 1669 1664 1663
f 1656 1663 1670 1659 1658
f 1669 1671 1672 1665 1664
f 1673 1674 1672 1671 1669 1675
f 1651 1676 1653 1677 1672 1678
f 1652 1679 1655 1654 1653 1680
f 1681 1682 1662 1661 1655 1683
f 1684 1685 1673 1675 1669 1686
f 1673 1687 1651 1678 1672 1674
f 1672 1677 1653 1657 1665
f 1651 1650 1652 1680 1653 1676
f 1681 1688 1684 1689 1662 1682
f 1652 1690 1681 1683 1655 1679
f 1673 1645 1649 1651 1687
f 1690 1652 1648 1647 1681
f 1685 1684 1646 1645 1673
f 1645 1644 1649
f 1688 1681 1647 1646 1684
f 1684 1686 1669 1668 1662 1689
f 1665 1657 1660 1659 1666
usemtl rsc_708840
f 154 157 158
f 154 158 159
f 173 174 177 169 180
f 155 154 159
f 201 202 203 204 205 206 207 208 209 210 211 212
f 213 214 215 216 217 218 219 220 221 222 223 224 225 226
f 227 228 229 230 231 232 233 234 235 236 237 238 239 240
f 241 191 242 243 244 245 246 247 248 200 249 250
f 241 191 242 243 244 245 246 247 248 200 249 250
f 251 252 253 254 255 256 257 258 259 260 261 262 263 264
f 265 266 267 268 269 270 271 272 273 274 275 276
f 277 278 279 280 281 187 282 283 284 285 286 287 288 289
f 290 291 292 293 294 295 296 297 298 299 300 301
f 277 278 279 280 281 187 282 283 284 285 286 287 288 289
f 302 303 304 305 306 307 308 309 310 311 312 313
f 314 315 316 317 318 319 320 321 322 323 324 325 326 327
f 328 329 330 331 332 333 334 335 336 337 338 339 340 341
f 342 343 344 345 346 347 348 349 350 351 352 353 354 355
f 161 356 357 358 359 360 361 362 363 364 197 365
f 413 414 415 416 417 418 419 420 421 422 423 424
f 425 426 427 428 429 430 431 432 433 434 435 436 437 438
f 439 440 441 442 443 444 445 446 447 448 449 450 451 452
f 453 403 454 455 456 457 458 459 460 412 461 462
f 453 403 454 455 456 457 458 459 460 412 461 462
f 463 464 465 466 467 468 469 470 471 472 473 474 475 476
f 477 478 479 480 481 482 483 484 485 486 487 488
f 489 490 491 492 493 399 494 495 496 497 498 499 500 501
f 502 503 504 505 506 507 508 509 510 511 512 513
f 489 490 491 492 493 399 494 495 496 497 498 499 500 501
f 514 515 516 517 518 519 520 521 522 523 524 525
f 526 527 528 529 530 531 532 533 534 535 536 537 538 539
f 540 541 542 543 544 545 546 547 548 549 550 551 552 553
f 554 555 556 557 558 559 560 561 562 563 564 565 566 567
f 568 569 570 571 572 573 574 575 576 577 409 578
f 598 599 602 594 605
f 580 579 584
f 626 627 628 629 630 631 632 633 634 635 636 637
f 638 639 640 641 642 643 644 645 646 647 648 649 650 651
f 652 653 654 655 656 657 658 659 660 661 662 663 664 665
f 666 667 668 669 670 671 672 673 674 625 675 676
f 666 667 668 669 670 671 672 673 674 625 675 676
f 677 678 679 680 681 682 683 684 685 686 687 688 689 690
f 691 692 693 694 695 696 697 698 699 700 701 702
f 703 704 705 706 707 612 708 709 710 588 711 712 713 714
f 715 716 717 718 719 720 721 722 723 724 725 726
f 703 704 705 706 707 612 708 709 710 588 711 712 713 714
f 727 728 729 730 731 732 733 734 735 736 737 738
f 739 740 741 742 743 744 745 746 747 748 749 750 751 752
f 753 754 755 756 757 758 759 760 761 762 763 764 765 766
f 767 768 769 770 771 772 773 774 775 776 777 778 779 780
f 781 782 783 784 785 786 787 788 789 790 622 791
f 792 796 797
f 811 812 815 807 818
f 800 838 829 831 803 827
f 793 792 797
f 839 840 841 842 843 844 845 846 847 848 849 850
f 851 852 853 854 855 856 857 858 859 860 861 862 863 864
f 865 866 867 868 869 870 871 872 873 874 875 876 877 878
f 879 829 880 881 882 883 884 885 886 838 887 888
f 879 829 880 881 882 883 884 885 886 838 887 888
f 889 890 891 892 893 894 895 896 897 898 899 900 901 902
f 903 904 905 906 907 908 909 910 911 912 913 914
f 915 916 917 918 919 825 920 921 922 923 924 925 926 927
f 928 929 930 931 932 933 934 935 936 937 938 939
f 915 916 917 918 919 825 920 921 922 923 924 925 926 927
f 940 941 942 943 944 945 946 947 948 949 950 951
f 952 953 954 955 956 957 958 959 960 961 962 963 964 965
f 966 967 968 969 970 971 972 973 974 975 976 977 978 979
f 980 981 982 983 984 985 986 987 988 989 990 991 992 993
f 994 995 996 997 998 999 1000 1001 1002 1003 835 1004
f 1024 1025 1028 1020 1031
f 1052 1053 1054 1055 1056 1057 1058 1059 1060 1061 1062 1063
f 1064 1065 1066 1067 1068 1069 1070 1071 1072 1073 1074 1075 1076 1077
f 1078 1079 1080 1081 1082 1083 1084 1085 1086 1087 1088 1089 1090 1091
f 1092 1042 1093 1094 1095 1096 1097 1098 1099 1100 1101 1102
f 1092 1042 1093 1094 1095 1096 1097 1098 1099 1100 1101 1102
f 1103 1104 1105 1106 1107 1108 1109 1110 1111 1112 1113 1114 1115 1116
f 1117 1118 1119 1120 1121 1122 1123 1124 1125 1126 1127 1128
f 1129 1130 1131 1132 1133 1038 1134 1135 1136 1137 1138 1139 1140 1141
f 1142 1143 1144 1145 1146 1147 1148 1149 1150 1151 1152 1153
f 1129 1130 1131 1132 1133 1038 1134 1135 1136 1137 1138 1139 1140 1141
f 1154 1155 1156 1157 1158 1159 1160 1161 1162 1163 1164 1165
f 1166 1167 1168 1169 1170 1171 1172 1173 1174 1175 1176 1177 1178 1179
f 1180 1181 1182 1183 1184 1185 1186 1187 1188 1189 1190 1191 1192 1193
f 1194 1195 1196 1197 1198 1199 1200 1201 1202 1203 1204 1205 1206 1207
f 1208 1209 1210 1211 1212 1213 1214 1215 1216 1217 1048 1218
f 1239 1240 1241 1234 1242
f 1238 1239 1242 1234 1245
f 1266 1267 1268 1269 1270 1271 1272 1273 1274 1275 1276 1277
f 1278 1279 1280 1281 1282 1283 1284 1285 1286 1287 1288 1289 1290 1291
f 1292 1293 1294 1295 1296 1297 1298 1299 1300 1301 1302 1303 1304 1305
f 1306 1256 1307 1308 1309 1310 1311 1312 1313 1265 1314 1315
f 1306 1256 1307 1308 1309 1310 1311 1312 1313 1265 1314 1315
f 1316 1317 1318 1319 1320 1321 1322 1323 1324 1325 1326 1327 1328 1329
f 1330 1331 1332 1333 1334 1335 1336 1337 1338 1339 1340 1341
f 1342 1343 1344 1345 1346 1252 1347 1348 1349 1350 1351 1352 1353 1354
f 1355 1356 1357 1358 1359 1360 1361 1362 1363 1364 1365 1366
f 1342 1343 1344 1345 1346 1252 1347 1348 1349 1350 1351 1352 1353 1354
f 1367 1368 1369 1370 1371 1372 1373 1374 1375 1376 1377 1378
f 1379 1380 1381 1382 1383 1384 1385 1386 1387 1388 1389 1390 1391 1392
f 1393 1394 1395 1396 1397 1398 1399 1400 1401 1402 1403 1404 1405 1406
f 1407 1408 1409 1410 1411 1412 1413 1414 1415 1416 1417 1418 1419 1420
f 1421 1422 1423 1424 1425 1426 1427 1428 1429 1430 1262 1431
f 1452 1453 1454 1447 1455
f 1479 1480 1481 1482 1483 1484 1485 1486 1487 1488 1489 1490
f 1491 1492 1493 1494 1495 1496 1497 1498 1499 1500 1501 1502 1503 1504
f 1505 1506 1507 1508 1509 1510 1511 1512 1513 1514 1515 1516 1517 1518
f 1519 1469 1520 1521 1522 1523 1524 1525 1526 1478 1527 1528
f 1519 1469 1520 1521 1522 1523 1524 1525 1526 1478 1527 1528
f 1529 1530 1531 1532 1533 1534 1535 1536 1537 1538 1539 1540 1541 1542
f 1543 1544 1545 1546 1547 1548 1549 1550 1551 1552 1553 1554
f 1555 1556 1557 1558 1559 1465 1560 1561 1562 1441 1563 1564 1565 1566
f 1567 1568 1569 1570 1571 1572 1573 1574 1575 1576 1577 1578
f 1555 1556 1557 1558 1559 1465 1560 1561 1562 1441 1563 1564 1565 1566
f 1579 1580 1581 1582 1583 1584 1585 1586 1457 1587 1588 1589
f 1590 1591 1592 1593 1594 1595 1596 1597 1598 1599 1600 1601 1602 1603
f 1604 1605 1606 1607 1608 1609 1610 1611 1612 1613 1614 1615 1616 1617
f 1618 1619 1620 1621 1622 1623 1624 1625 1626 1627 1628 1629 1630 1631
f 1632 1633 1634 1635 1636 1637 1638 1639 1640 1641 1642 1643
f 1663 1664 1667 1659 1670
f 1691 1692 1693 1694 1695 1696 1697 1698 1699 1700 1701 1702
f 1703 1704 1705 1706 1707 1708 1709 1710 1711 1712 1713 1714 1715 1716
f 1717 1718 1719 1720 1721 1722 1723 1724 1725 1726 1727 1728 1729 1730
f 1731 1681 1732 1733 1734 1735 1736 1737 1738 1690 1739 1740
f 1731 1681 1732 1733 1734 1735 1736 1737 1738 1690 1739 1740
f 1741 1742 1743 1744 1745 1746 1747 1748 1749 1750 1751 1752 1753 1754
f 1755 1756 1757 1758 1759 1760 1761 1762 1763 1764 1765 1766
f 1767 1768 1769 1770 1771 1677 1772 1773 1774 1775 1776 1777 1778 1779
f 1780 1781 1782 1783 1784 1785 1786 1787 1788 1789 1790 1791
f 1767 1768 1769 1770 1771 1677 1772 1773 1774 1775 1776 1777 1778 1779
f 1792 1793 1794 1795 1796 1797 1798 1799 1800 1801 1802 1803
f 1804 1805 1806 1807 1808 1809 1810 1811 1812 1813 1814 1815 1816 1817
f 1818 1819 1820 1821 1822 1823 1824 1825 1826 1827 1828 1829 1830 1831
f 1832 1833 1834 1835 1836 1837 1838 1839 1840 1841 1842 1843 1844 1845
f 1846 1847 1848 1849 1850 1851 1852 1853 1854 1855 1687 1856
