# Blender 4.0.2
# www.blender.org
mtllib 6_dead.mtl
o dragonfruit_6_dead
v 0.084500 0.169000 0.000000
v -0.084500 0.169000 0.000000
v -0.084500 0.169000 1.521000
v 0.084500 0.169000 1.521000
v -0.169000 0.000000 0.000000
v -0.169000 0.000000 1.521000
v -0.084500 -0.169000 0.000000
v -0.084500 -0.169000 1.521000
v 0.084500 -0.169000 0.000000
v 0.084500 -0.169000 1.521000
v 0.169000 -0.000000 0.000000
v 0.169000 -0.000000 1.521000
v 0.000000 0.000000 1.826500
v -0.370500 0.065000 0.533000
v -0.370500 -0.039000 0.533000
v -0.370500 -0.039000 1.423500
v -0.370500 0.065000 1.423500
v -0.422500 0.013000 0.533000
v -0.422500 0.013000 1.423500
v -0.286000 0.013000 1.670500
v -0.221000 0.065000 1.670500
v -0.058500 0.065000 1.768000
v -0.058500 0.013000 1.768000
v -0.351000 0.013000 1.605500
v -0.286000 0.065000 1.605500
v -0.383500 0.013000 1.540500
v -0.331500 0.065000 1.540500
v -0.221000 -0.039000 1.670500
v -0.052000 -0.045500 1.768000
v -0.286000 -0.039000 1.605500
v -0.331500 -0.039000 1.540500
v 0.052000 0.377000 0.533000
v -0.052000 0.377000 0.533000
v -0.052000 0.377000 1.423500
v 0.052000 0.377000 1.423500
v 0.000000 0.429000 0.533000
v 0.000000 0.429000 1.423500
v 0.000000 0.292500 1.670500
v 0.052000 0.227500 1.670500
v 0.058500 0.065000 1.768000
v 0.000000 0.065000 1.768000
v 0.000000 0.357500 1.605500
v 0.052000 0.292500 1.605500
v 0.000000 0.390000 1.540500
v 0.052000 0.338000 1.540500
v -0.052000 0.227500 1.670500
v -0.052000 0.292500 1.605500
v -0.052000 0.338000 1.540500
v -0.045500 -0.351000 0.533000
v 0.052000 -0.351000 0.533000
v 0.052000 -0.351000 1.423500
v -0.045500 -0.351000 1.423500
v -0.000000 -0.403000 0.533000
v -0.000000 -0.403000 1.423500
v -0.000000 -0.266500 1.670500
v -0.045500 -0.201500 1.670500
v -0.000000 -0.045500 1.768000
v -0.000000 -0.331500 1.605500
v -0.045500 -0.266500 1.605500
v -0.000000 -0.364000 1.540500
v -0.045500 -0.312000 1.540500
v 0.052000 -0.201500 1.670500
v 0.058500 -0.045500 1.768000
v 0.052000 -0.266500 1.605500
v 0.052000 -0.312000 1.540500
v 0.370500 -0.039000 0.533000
v 0.370500 0.058500 0.533000
v 0.370500 0.058500 1.423500
v 0.370500 -0.039000 1.423500
v 0.422500 0.013000 0.533000
v 0.422500 0.013000 1.423500
v 0.286000 0.013000 1.670500
v 0.221000 -0.039000 1.670500
v 0.058500 0.013000 1.768000
v 0.351000 0.013000 1.605500
v 0.286000 -0.039000 1.605500
v 0.383500 0.013000 1.540500
v 0.331500 -0.039000 1.540500
v 0.221000 0.058500 1.670500
v 0.286000 0.058500 1.605500
v 0.331500 0.058500 1.540500
v -0.286000 0.344500 0.533000
v -0.351000 0.266500 0.533000
v -0.351000 0.266500 1.423500
v -0.286000 0.344500 1.423500
v -0.357500 0.338000 0.533000
v -0.357500 0.338000 1.423500
v -0.253500 0.247000 1.670500
v -0.169000 0.247000 1.670500
v -0.052000 0.143000 1.768000
v -0.305500 0.292500 1.605500
v -0.221000 0.286000 1.605500
v -0.331500 0.312000 1.540500
v -0.253500 0.318500 1.540500
v -0.240500 0.169000 1.670500
v -0.123500 0.065000 1.768000
v -0.286000 0.208000 1.605500
v -0.325000 0.240500 1.540500
v 0.344500 0.286000 0.533000
v 0.273000 0.357500 0.533000
v 0.273000 0.357500 1.423500
v 0.344500 0.286000 1.423500
v 0.344500 0.357500 0.533000
v 0.344500 0.357500 1.423500
v 0.247000 0.253500 1.670500
v 0.234000 0.175500 1.670500
v 0.130000 0.065000 1.768000
v 0.292500 0.305500 1.605500
v 0.279500 0.227500 1.605500
v 0.318500 0.331500 1.540500
v 0.318500 0.247000 1.540500
v 0.169000 0.253500 1.670500
v 0.058500 0.143000 1.768000
v 0.201500 0.299000 1.605500
v 0.247000 0.331500 1.540500
v 0.286000 -0.318500 0.533000
v 0.351000 -0.247000 0.533000
v 0.351000 -0.247000 1.423500
v 0.286000 -0.318500 1.423500
v 0.357500 -0.318500 0.533000
v 0.357500 -0.318500 1.423500
v 0.253500 -0.227500 1.670500
v 0.169000 -0.227500 1.670500
v 0.052000 -0.123500 1.768000
v 0.305500 -0.273000 1.605500
v 0.221000 -0.266500 1.605500
v 0.331500 -0.292500 1.540500
v 0.253500 -0.299000 1.540500
v 0.240500 -0.149500 1.670500
v 0.123500 -0.045500 1.768000
v 0.286000 -0.182000 1.605500
v 0.325000 -0.221000 1.540500
v -0.344500 -0.273000 0.533000
v -0.273000 -0.344500 0.533000
v -0.273000 -0.344500 1.423500
v -0.344500 -0.273000 1.423500
v -0.344500 -0.344500 0.533000
v -0.344500 -0.344500 1.423500
v -0.247000 -0.234000 1.670500
v -0.234000 -0.162500 1.670500
v -0.130000 -0.045500 1.768000
v -0.292500 -0.292500 1.605500
v -0.279500 -0.214500 1.605500
v -0.318500 -0.318500 1.540500
v -0.318500 -0.234000 1.540500
v -0.169000 -0.240500 1.670500
v -0.052000 -0.130000 1.768000
v -0.201500 -0.286000 1.605500
v -0.247000 -0.312000 1.540500
v 0.039000 0.052000 1.826500
v -0.039000 0.052000 1.826500
v -0.039000 -0.026000 1.826500
v 0.039000 -0.026000 1.826500
vn -0.0000 1.0000 -0.0000
vn -0.8944 0.4472 -0.0000
vn -0.8944 -0.4472 -0.0000
vn -0.0000 -1.0000 -0.0000
vn 0.8944 -0.4472 -0.0000
vn 0.8944 0.4472 -0.0000
vn -0.8017 0.4008 0.4435
vn -0.8017 -0.4008 0.4435
vn -0.0000 -0.8750 0.4841
vn 0.8017 -0.4008 0.4435
vn 0.8017 0.4008 0.4435
vn -0.0000 0.8750 0.4841
vn -1.0000 -0.0000 -0.0000
vn 0.7071 -0.7071 -0.0000
vn 0.7071 0.7071 -0.0000
vn 0.4307 -0.2692 -0.8614
vn 0.5298 -0.6623 -0.5298
vn 0.6171 -0.6943 -0.3703
vn 0.6882 -0.6882 -0.2294
vn 0.4277 0.2768 -0.8605
vn 0.5298 0.6623 -0.5298
vn -0.8192 -0.0000 0.5735
vn 0.6882 0.6882 -0.2294
vn 0.6171 0.6943 -0.3703
vn -0.0000 -0.0000 1.0000
vn -0.9487 -0.0000 0.3162
vn -0.0000 -0.0000 -1.0000
vn -0.5072 -0.0154 0.8617
vn -0.0001 -0.0000 -1.0000
vn -0.7071 -0.0000 0.7071
vn -0.7071 -0.7071 -0.0000
vn -0.2563 -0.4357 -0.8628
vn -0.6623 -0.5298 -0.5298
vn -0.6943 -0.6171 -0.3703
vn -0.6882 -0.6882 -0.2294
vn 0.2563 -0.4357 -0.8628
vn 0.6623 -0.5298 -0.5298
vn -0.0000 0.8192 0.5735
vn 0.6943 -0.6171 -0.3703
vn -0.0000 0.9487 0.3162
vn -0.0000 0.5145 0.8575
vn -0.0000 0.7071 0.7071
vn 0.7526 0.6585 -0.0000
vn -0.7071 0.7071 -0.0000
vn 0.2953 0.4429 -0.8465
vn 0.7107 0.4975 -0.4975
vn 0.7407 0.5761 -0.3457
vn 0.7351 0.6432 -0.2144
vn -0.2628 0.4468 -0.8551
vn -0.6623 0.5298 -0.5298
vn -0.0000 -0.8192 0.5735
vn -0.6882 0.6882 -0.2294
vn -0.6943 0.6171 -0.3703
vn -0.0000 -0.9487 0.3162
vn -0.0000 -0.5300 0.8480
vn -0.0000 -0.7071 0.7071
vn 1.0000 -0.0000 -0.0000
vn -0.6585 -0.7526 -0.0000
vn -0.4357 0.2563 -0.8628
vn -0.5298 0.6623 -0.5298
vn -0.6171 0.6943 -0.3703
vn -0.4321 -0.2881 -0.8546
vn -0.4975 -0.7107 -0.4975
vn 0.8192 -0.0000 0.5735
vn -0.6432 -0.7351 -0.2144
vn -0.5761 -0.7407 -0.3457
vn 0.9487 -0.0000 0.3162
vn 0.5145 -0.0000 0.8575
vn 0.7071 -0.0000 0.7071
vn -0.7682 0.6402 -0.0000
vn 0.0905 -0.9959 -0.0000
vn 0.9959 0.0905 -0.0000
vn 0.2740 -0.3196 -0.9071
vn -0.0327 -0.8497 -0.5262
vn -0.0000 -0.9285 -0.3714
vn 0.0842 -0.9681 -0.2362
vn 0.3516 -0.2344 -0.9063
vn 0.8379 0.1676 -0.5195
vn -0.6040 0.5285 0.5965
vn 0.9763 0.0888 -0.1972
vn 0.9070 0.1512 -0.3930
vn -0.7137 0.6245 0.3172
vn -0.3898 0.3573 0.8488
vn -0.5430 0.4751 0.6924
vn -0.3413 -0.2560 -0.9044
vn -0.8610 0.1435 -0.4879
vn -0.9020 0.0722 -0.4257
vn -0.9762 -0.0000 -0.2169
vn -0.2961 -0.2961 -0.9081
vn 0.0311 -0.8085 -0.5877
vn 0.5787 0.5546 0.5980
vn -0.0000 -0.9762 -0.2169
vn 0.0367 -0.9187 -0.3932
vn 0.6954 0.6375 0.3316
vn 0.4035 0.3531 0.8441
vn 0.5234 0.5006 0.6895
vn 0.7399 -0.6727 -0.0000
vn -0.9959 -0.0905 -0.0000
vn -0.2739 0.3196 -0.9071
vn 0.0327 0.8497 -0.5262
vn -0.0000 0.9285 -0.3714
vn -0.0426 0.9787 -0.2009
vn -0.3516 0.2344 -0.9063
vn -0.8334 -0.1603 -0.5289
vn 0.6053 -0.5084 0.6125
vn -0.9763 -0.0888 -0.1972
vn -0.9095 -0.1455 -0.3893
vn 0.7042 -0.6430 0.3011
vn 0.3898 -0.3573 0.8488
vn 0.5613 -0.4715 0.6802
vn 0.3075 0.2796 -0.9095
vn 0.8654 -0.1505 -0.4779
vn 0.9020 -0.0722 -0.4257
vn 0.9762 -0.0000 -0.2169
vn 0.3127 0.2680 -0.9113
vn -0.0000 0.7809 -0.6247
vn -0.5774 -0.5774 0.5773
vn -0.0442 0.9715 -0.2331
vn -0.0752 0.9394 -0.3344
vn -0.6773 -0.6479 0.3485
vn -0.3941 -0.3468 0.8512
vn -0.5234 -0.5006 0.6895
vn -0.0000 0.9487 -0.3162
vn -0.9487 -0.0000 -0.3162
vn 0.9625 0.0332 -0.2692
s 0
usemtl rsc_904008
f 1//1 2//1 3//1 4//1
f 2//2 5//2 6//2 3//2
f 5//3 7//3 8//3 6//3
f 7//4 9//4 10//4 8//4
f 9//5 11//5 12//5 10//5
f 11//6 1//6 4//6 12//6
f 3//7 6//7 13//7
f 6//8 8//8 13//8
f 8//9 10//9 13//9
f 10//10 12//10 13//10
f 12//11 4//11 13//11
f 4//12 3//12 13//12
usemtl rsc_005008
f 14//13 15//13 16//13 17//13
f 18//14 14//14 17//14 19//14
f 15//15 18//15 19//15 16//15
f 20//16 21//16 22//16 23//16
f 24//17 25//17 21//17 20//17
f 26//18 27//18 25//18 24//18
f 19//19 17//19 27//19 26//19
f 28//20 20//20 23//20 29//20
f 30//21 24//21 20//21 28//21
f 27//22 31//22 30//22 25//22
f 16//23 19//23 26//23 31//23
f 31//24 26//24 24//24 30//24
f 31//25 27//25 26//25
f 17//26 16//26 31//26 27//26
f 24//27 25//27 30//27
f 21//28 28//28 29//28 22//28
f 23//29 22//29 29//29
f 25//30 30//30 28//30 21//30
f 32//1 33//1 34//1 35//1
f 36//31 32//31 35//31 37//31
f 33//14 36//14 37//14 34//14
f 38//32 39//32 40//32 41//32
f 42//33 43//33 39//33 38//33
f 44//34 45//34 43//34 42//34
f 37//35 35//35 45//35 44//35
f 46//36 38//36 41//36 22//36
f 47//37 42//37 38//37 46//37
f 45//38 48//38 47//38 43//38
f 34//19 37//19 44//19 48//19
f 48//39 44//39 42//39 47//39
f 48//25 45//25 44//25
f 35//40 34//40 48//40 45//40
f 42//27 43//27 47//27
f 39//41 46//41 22//41 40//41
f 41//25 40//25 22//25
f 43//42 47//42 46//42 39//42
f 49//4 50//4 51//4 52//4
f 53//43 49//43 52//43 54//43
f 50//44 53//44 54//44 51//44
f 55//45 56//45 29//45 57//45
f 58//46 59//46 56//46 55//46
f 60//47 61//47 59//47 58//47
f 54//48 52//48 61//48 60//48
f 62//49 55//49 57//49 63//49
f 64//50 58//50 55//50 62//50
f 61//51 65//51 64//51 59//51
f 51//52 54//52 60//52 65//52
f 65//53 60//53 58//53 64//53
f 65//25 61//25 60//25
f 52//54 51//54 65//54 61//54
f 58//27 59//27 64//27
f 56//55 62//55 63//55 29//55
f 57//25 29//25 63//25
f 59//56 64//56 62//56 56//56
f 66//57 67//57 68//57 69//57
f 70//44 66//44 69//44 71//44
f 67//58 70//58 71//58 68//58
f 72//59 73//59 63//59 74//59
f 75//60 76//60 73//60 72//60
f 77//61 78//61 76//61 75//61
f 71//52 69//52 78//52 77//52
f 79//62 72//62 74//62 40//62
f 80//63 75//63 72//63 79//63
f 78//64 81//64 80//64 76//64
f 68//65 71//65 77//65 81//65
f 81//66 77//66 75//66 80//66
f 81//25 78//25 77//25
f 69//67 68//67 81//67 78//67
f 75//27 76//27 80//27
f 73//68 79//68 40//68 63//68
f 74//57 63//57 40//57
f 76//69 80//69 79//69 73//69
f 82//70 83//70 84//70 85//70
f 86//71 82//71 85//71 87//71
f 83//72 86//72 87//72 84//72
f 88//73 89//73 90//73 22//73
f 91//74 92//74 89//74 88//74
f 93//75 94//75 92//75 91//75
f 87//76 85//76 94//76 93//76
f 95//77 88//77 22//77 96//77
f 97//78 91//78 88//78 95//78
f 94//79 98//79 97//79 92//79
f 84//80 87//80 93//80 98//80
f 98//81 93//81 91//81 97//81
f 98//25 94//25 93//25
f 85//82 84//82 98//82 94//82
f 91//27 92//27 97//27
f 89//83 95//83 96//83 90//83
f 22//25 90//25 96//25
f 92//84 97//84 95//84 89//84
f 99//15 100//15 101//15 102//15
f 103//13 99//13 102//13 104//13
f 100//4 103//4 104//4 101//4
f 105//85 106//85 107//85 40//85
f 108//86 109//86 106//86 105//86
f 110//87 111//87 109//87 108//87
f 104//88 102//88 111//88 110//88
f 112//89 105//89 40//89 113//89
f 114//90 108//90 105//90 112//90
f 111//91 115//91 114//91 109//91
f 101//92 104//92 110//92 115//92
f 115//93 110//93 108//93 114//93
f 115//25 111//25 110//25
f 102//94 101//94 115//94 111//94
f 108//27 109//27 114//27
f 106//95 112//95 113//95 107//95
f 40//25 107//25 113//25
f 109//96 114//96 112//96 106//96
f 116//97 117//97 118//97 119//97
f 120//1 116//1 119//1 121//1
f 117//98 120//98 121//98 118//98
f 122//99 123//99 124//99 63//99
f 125//100 126//100 123//100 122//100
f 127//101 128//101 126//101 125//101
f 121//102 119//102 128//102 127//102
f 129//103 122//103 63//103 130//103
f 131//104 125//104 122//104 129//104
f 128//105 132//105 131//105 126//105
f 118//106 121//106 127//106 132//106
f 132//107 127//107 125//107 131//107
f 132//25 128//25 127//25
f 119//108 118//108 132//108 128//108
f 125//27 126//27 131//27
f 123//109 129//109 130//109 124//109
f 63//25 124//25 130//25
f 126//110 131//110 129//110 123//110
f 133//31 134//31 135//31 136//31
f 137//57 133//57 136//57 138//57
f 134//1 137//1 138//1 135//1
f 139//111 140//111 141//111 29//111
f 142//112 143//112 140//112 139//112
f 144//113 145//113 143//113 142//113
f 138//114 136//114 145//114 144//114
f 146//115 139//115 29//115 147//115
f 148//116 142//116 139//116 146//116
f 145//117 149//117 148//117 143//117
f 135//118 138//118 144//118 149//118
f 149//119 144//119 142//119 148//119
f 149//25 145//25 144//25
f 136//120 135//120 149//120 145//120
f 142//27 143//27 148//27
f 140//121 146//121 147//121 141//121
f 29//25 141//25 147//25
f 143//122 148//122 146//122 140//122
f 22//92 40//92 150//92 151//92
f 63//123 29//123 152//123 153//123
f 40//124 63//124 153//124 150//124
f 29//125 22//125 151//125 152//125
f 151//27 150//27 153//27 152//27
