# Blender 4.0.2
# www.blender.org
mtllib 4_mature_partial.mtl
o banana_4_partial
v 0.000000 0.090000 1.620000
v -0.000000 -0.090000 1.620000
v -0.090000 0.000000 1.620000
v 0.090000 -0.000000 1.620000
v 0.000000 0.190000 0.540000
v -0.090000 0.000000 1.080000
v -0.190000 0.000000 0.540000
v 0.000000 0.090000 1.080000
v -0.000000 -0.090000 1.080000
v -0.000000 -0.190000 0.540000
v 0.090000 -0.000000 1.080000
v 0.190000 -0.000000 0.540000
v 0.000000 0.190000 1.080000
v -0.190000 0.000000 1.080000
v -0.000000 -0.190000 1.080000
v 0.190000 -0.000000 1.080000
v -0.000000 -0.190000 0.000000
v 0.090000 -0.000000 0.540000
v 0.190000 -0.000000 0.000000
v -0.000000 -0.090000 0.540000
v 0.000000 0.090000 0.540000
v 0.000000 0.190000 0.000000
v -0.090000 0.000000 0.540000
v -0.190000 0.000000 0.000000
v 0.190000 -0.580000 1.970000
v -0.050000 -0.880000 1.970000
v -0.160000 -0.580000 1.970000
v 0.160000 -0.860000 1.970000
v 0.120000 -0.190000 1.820000
v -0.140000 -0.210000 1.820000
v 0.070000 -1.110000 1.820000
v -0.000000 -0.090000 1.660000
v -0.050000 0.390000 2.360000
v 0.300000 0.560000 2.460000
v 0.260000 0.280000 2.360000
v 0.090000 0.630000 2.460000
v -0.120000 0.090000 2.070000
v 0.120000 0.020000 2.070000
v 0.300000 0.860000 2.380000
v 0.000000 0.000000 1.880000
v -0.260000 0.510000 2.170000
v -0.070000 0.860000 2.150000
v 0.050000 0.580000 2.130000
v -0.280000 0.810000 2.170000
v -0.160000 0.120000 2.010000
v 0.070000 0.190000 1.970000
v -0.260000 1.040000 2.010000
v 0.000000 0.000000 1.800000
v -0.630000 0.120000 1.970000
v -0.790000 0.460000 1.970000
v -0.510000 0.420000 1.970000
v -0.860000 0.260000 1.970000
v -0.230000 0.000000 1.820000
v -0.140000 0.210000 1.820000
v -1.040000 0.460000 1.820000
v -0.070000 0.050000 1.660000
v 0.390000 0.530000 1.970000
v 0.790000 0.460000 1.970000
v 0.600000 0.260000 1.970000
v 0.650000 0.650000 1.970000
v 0.090000 0.280000 1.820000
v 0.210000 0.090000 1.820000
v 0.930000 0.670000 1.820000
v 0.090000 0.090000 1.660000
v 0.510000 0.070000 2.150000
v 0.770000 -0.260000 2.150000
v 0.460000 -0.260000 2.150000
v 0.790000 -0.050000 2.150000
v 0.090000 0.090000 1.990000
v 0.070000 -0.120000 1.990000
v 1.000000 -0.210000 1.990000
v 0.320000 -0.120000 2.360000
v 0.300000 -0.510000 2.460000
v 0.090000 -0.350000 2.360000
v 0.460000 -0.350000 2.460000
v 0.090000 0.050000 2.070000
v -0.050000 -0.090000 2.070000
v 0.580000 -0.650000 2.380000
v -0.210000 -0.530000 2.150000
v -0.600000 -0.580000 2.180000
v -0.460000 -0.320000 2.180000
v -0.460000 -0.700000 2.170000
v -0.000000 -0.190000 1.970000
v -0.190000 -0.020000 2.010000
v -0.700000 -0.790000 2.010000
v -0.300000 -0.230000 2.360000
v -0.630000 -0.020000 2.460000
v -0.390000 0.090000 2.360000
v -0.580000 -0.230000 2.460000
v -0.020000 -0.120000 2.070000
v -0.090000 0.120000 2.070000
v -0.880000 -0.210000 2.380000
v 0.000000 0.120000 1.800000
v -0.000000 -0.070000 1.800000
v -0.090000 0.020000 1.800000
v 0.090000 0.020000 1.800000
v 0.000000 0.120000 1.620000
v -0.090000 0.020000 1.620000
v -0.000000 -0.070000 1.620000
v 0.090000 0.020000 1.620000
v -0.010000 0.140000 1.650000
v -0.010000 0.160000 1.660000
v -0.020000 0.160000 1.650000
v -0.020000 0.150000 1.670000
v -0.010000 0.180000 1.680000
v -0.030000 0.180000 1.660000
v -0.030000 0.170000 1.690000
v -0.010000 0.210000 1.710000
v -0.050000 0.230000 1.710000
v -0.040000 0.180000 1.720000
v -0.030000 0.220000 1.800000
v -0.080000 0.240000 1.800000
v -0.070000 0.190000 1.810000
v -0.050000 0.210000 1.860000
v -0.090000 0.230000 1.850000
v -0.080000 0.180000 1.860000
v -0.090000 0.190000 1.910000
v -0.070000 0.170000 1.910000
v -0.090000 0.160000 1.930000
v -0.090000 0.170000 1.930000
v -0.080000 0.150000 1.920000
v -0.090000 0.150000 1.930000
v -0.070000 0.190000 1.890000
v -0.080000 0.160000 1.910000
v -0.090000 0.200000 1.890000
v -0.040000 0.150000 1.660000
v -0.050000 0.170000 1.670000
v -0.080000 0.200000 1.700000
v -0.100000 0.210000 1.790000
v -0.110000 0.200000 1.850000
v -0.100000 0.170000 1.910000
v -0.100000 0.180000 1.890000
v 0.060000 0.110000 1.650000
v 0.050000 0.110000 1.640000
v 0.060000 0.120000 1.650000
v 0.050000 0.120000 1.650000
v 0.070000 0.140000 1.660000
v 0.050000 0.140000 1.650000
v 0.070000 0.170000 1.670000
v 0.050000 0.170000 1.660000
v 0.080000 0.210000 1.690000
v 0.050000 0.230000 1.700000
v 0.060000 0.180000 1.720000
v 0.110000 0.240000 1.780000
v 0.080000 0.210000 1.800000
v 0.120000 0.240000 1.840000
v 0.080000 0.260000 1.840000
v 0.090000 0.210000 1.860000
v 0.100000 0.230000 1.900000
v 0.110000 0.220000 1.900000
v 0.110000 0.200000 1.920000
v 0.110000 0.210000 1.920000
v 0.110000 0.200000 1.930000
v 0.110000 0.220000 1.880000
v 0.100000 0.200000 1.900000
v 0.090000 0.240000 1.880000
v 0.040000 0.110000 1.650000
v 0.040000 0.120000 1.650000
v 0.030000 0.140000 1.660000
v 0.030000 0.170000 1.670000
v 0.020000 0.200000 1.700000
v 0.040000 0.230000 1.790000
v 0.050000 0.230000 1.850000
v 0.090000 0.210000 1.900000
v 0.080000 0.220000 1.890000
v 0.020000 0.120000 1.660000
v 0.030000 0.130000 1.660000
v 0.020000 0.130000 1.650000
v 0.020000 0.140000 1.660000
v 0.030000 0.150000 1.670000
v 0.010000 0.150000 1.660000
v 0.030000 0.180000 1.690000
v 0.010000 0.180000 1.680000
v 0.010000 0.170000 1.710000
v 0.040000 0.200000 1.720000
v 0.000000 0.230000 1.730000
v 0.010000 0.170000 1.740000
v 0.000000 0.230000 1.820000
v 0.010000 0.160000 1.880000
v 0.030000 0.150000 1.920000
v 0.020000 0.130000 1.940000
v 0.020000 0.130000 1.930000
v 0.020000 0.120000 1.950000
v 0.020000 0.140000 1.920000
v 0.010000 0.120000 1.660000
v -0.010000 0.170000 1.690000
v -0.030000 0.190000 1.720000
v -0.030000 0.190000 1.820000
v -0.020000 0.180000 1.870000
v 0.000000 0.150000 1.920000
v 0.000000 0.160000 1.910000
v 0.010000 0.140000 1.650000
v 0.020000 0.140000 1.640000
v 0.010000 0.140000 1.640000
v 0.020000 0.150000 1.640000
v 0.010000 0.150000 1.640000
v 0.020000 0.170000 1.650000
v 0.010000 0.160000 1.630000
v 0.010000 0.170000 1.650000
v 0.000000 0.200000 1.670000
v 0.030000 0.240000 1.680000
v -0.010000 0.260000 1.670000
v 0.000000 0.220000 1.700000
v 0.020000 0.290000 1.770000
v -0.020000 0.310000 1.750000
v -0.010000 0.260000 1.780000
v 0.020000 0.300000 1.820000
v -0.020000 0.310000 1.810000
v -0.010000 0.270000 1.840000
v -0.020000 0.300000 1.880000
v 0.000000 0.280000 1.880000
v -0.010000 0.270000 1.910000
v -0.010000 0.270000 1.900000
v 0.000000 0.290000 1.860000
v -0.010000 0.270000 1.880000
v -0.020000 0.300000 1.860000
v 0.000000 0.130000 1.640000
v 0.000000 0.140000 1.640000
v -0.010000 0.160000 1.650000
v -0.020000 0.190000 1.660000
v -0.040000 0.230000 1.680000
v -0.050000 0.270000 1.770000
v -0.050000 0.290000 1.820000
v -0.030000 0.280000 1.880000
v -0.030000 0.280000 1.860000
v 0.010000 0.140000 1.570000
v 0.020000 0.140000 1.570000
v 0.010000 0.130000 1.570000
v 0.010000 0.140000 1.560000
v 0.000000 0.140000 1.560000
v 0.010000 0.160000 1.550000
v 0.000000 0.140000 1.550000
v 0.000000 0.160000 1.550000
v 0.010000 0.180000 1.530000
v -0.010000 0.160000 1.530000
v -0.010000 0.190000 1.540000
v 0.010000 0.220000 1.520000
v -0.020000 0.230000 1.540000
v -0.010000 0.320000 1.530000
v -0.050000 0.320000 1.560000
v -0.030000 0.380000 1.550000
v -0.060000 0.370000 1.540000
v -0.060000 0.370000 1.580000
v -0.070000 0.420000 1.590000
v -0.050000 0.420000 1.600000
v -0.070000 0.440000 1.620000
v -0.070000 0.440000 1.610000
v -0.060000 0.430000 1.620000
v -0.050000 0.410000 1.580000
v -0.060000 0.420000 1.610000
v -0.070000 0.410000 1.570000
v 0.000000 0.130000 1.570000
v -0.020000 0.150000 1.550000
v -0.030000 0.170000 1.540000
v -0.050000 0.210000 1.520000
v -0.090000 0.360000 1.560000
v -0.080000 0.420000 1.600000
v -0.080000 0.400000 1.590000
v 0.070000 0.140000 1.590000
v 0.070000 0.130000 1.580000
v 0.080000 0.140000 1.580000
v 0.070000 0.140000 1.580000
v 0.080000 0.150000 1.560000
v 0.060000 0.140000 1.560000
v 0.070000 0.160000 1.560000
v 0.070000 0.190000 1.550000
v 0.100000 0.200000 1.520000
v 0.070000 0.210000 1.500000
v 0.080000 0.220000 1.550000
v 0.120000 0.300000 1.520000
v 0.080000 0.310000 1.500000
v 0.090000 0.320000 1.550000
v 0.130000 0.360000 1.530000
v 0.100000 0.370000 1.520000
v 0.110000 0.370000 1.560000
v 0.130000 0.420000 1.570000
v 0.120000 0.450000 1.580000
v 0.120000 0.440000 1.580000
v 0.120000 0.450000 1.590000
v 0.130000 0.410000 1.550000
v 0.120000 0.420000 1.580000
v 0.060000 0.140000 1.590000
v 0.060000 0.140000 1.580000
v 0.050000 0.150000 1.570000
v 0.050000 0.170000 1.550000
v 0.040000 0.210000 1.530000
v 0.050000 0.310000 1.530000
v 0.070000 0.370000 1.540000
v 0.100000 0.430000 1.570000
v 0.040000 0.150000 1.580000
v 0.040000 0.140000 1.570000
v 0.040000 0.150000 1.570000
v 0.030000 0.150000 1.560000
v 0.050000 0.170000 1.560000
v 0.030000 0.150000 1.550000
v 0.030000 0.170000 1.560000
v 0.050000 0.190000 1.540000
v 0.030000 0.180000 1.540000
v 0.030000 0.210000 1.550000
v 0.050000 0.230000 1.530000
v 0.030000 0.240000 1.560000
v 0.060000 0.330000 1.550000
v 0.030000 0.330000 1.580000
v 0.060000 0.390000 1.580000
v 0.020000 0.390000 1.560000
v 0.030000 0.390000 1.610000
v 0.030000 0.440000 1.610000
v 0.040000 0.430000 1.620000
v 0.030000 0.450000 1.640000
v 0.030000 0.450000 1.630000
v 0.030000 0.440000 1.640000
v 0.050000 0.420000 1.610000
v 0.030000 0.430000 1.630000
v 0.030000 0.430000 1.600000
v 0.030000 0.140000 1.580000
v 0.030000 0.150000 1.570000
v 0.020000 0.160000 1.560000
v 0.010000 0.190000 1.550000
v -0.010000 0.230000 1.540000
v -0.010000 0.330000 1.560000
v 0.020000 0.430000 1.630000
v 0.010000 0.420000 1.610000
v 0.030000 0.140000 1.560000
v 0.040000 0.130000 1.560000
v 0.030000 0.130000 1.560000
v 0.040000 0.130000 1.550000
v 0.030000 0.130000 1.550000
v 0.030000 0.140000 1.550000
v 0.040000 0.140000 1.540000
v 0.030000 0.130000 1.540000
v 0.030000 0.150000 1.540000
v 0.040000 0.160000 1.510000
v 0.020000 0.140000 1.510000
v 0.020000 0.180000 1.520000
v 0.050000 0.190000 1.490000
v 0.010000 0.190000 1.470000
v 0.020000 0.210000 1.510000
v 0.000000 0.290000 1.450000
v 0.010000 0.310000 1.500000
v 0.010000 0.370000 1.510000
v 0.000000 0.410000 1.490000
v 0.020000 0.420000 1.500000
v 0.010000 0.440000 1.520000
v 0.010000 0.440000 1.510000
v 0.010000 0.430000 1.520000
v 0.010000 0.420000 1.510000
v 0.020000 0.130000 1.560000
v 0.020000 0.130000 1.550000
v 0.010000 0.140000 1.540000
v 0.000000 0.160000 1.520000
v -0.010000 0.190000 1.500000
v -0.030000 0.290000 1.480000
v -0.030000 0.350000 1.480000
v -0.010000 0.420000 1.510000
v -0.010000 0.400000 1.500000
v -0.020000 0.150000 1.610000
v -0.010000 0.150000 1.610000
v -0.010000 0.160000 1.600000
v -0.020000 0.160000 1.600000
v -0.020000 0.160000 1.610000
v -0.010000 0.190000 1.610000
v -0.030000 0.170000 1.590000
v -0.030000 0.190000 1.610000
v -0.020000 0.220000 1.610000
v -0.040000 0.210000 1.590000
v -0.040000 0.220000 1.620000
v -0.020000 0.270000 1.620000
v -0.060000 0.290000 1.610000
v -0.050000 0.250000 1.650000
v -0.030000 0.350000 1.700000
v -0.080000 0.360000 1.680000
v -0.060000 0.320000 1.720000
v -0.040000 0.380000 1.750000
v -0.080000 0.390000 1.740000
v -0.060000 0.350000 1.770000
v -0.070000 0.400000 1.800000
v -0.060000 0.390000 1.810000
v -0.070000 0.380000 1.840000
v -0.060000 0.370000 1.830000
v -0.050000 0.380000 1.790000
v -0.070000 0.370000 1.820000
v -0.080000 0.400000 1.790000
v -0.030000 0.150000 1.610000
v -0.030000 0.160000 1.610000
v -0.050000 0.180000 1.610000
v -0.060000 0.210000 1.610000
v -0.080000 0.250000 1.620000
v -0.100000 0.330000 1.700000
v -0.100000 0.360000 1.750000
v -0.080000 0.380000 1.810000
v -0.090000 0.370000 1.790000
v 0.050000 0.140000 1.620000
v 0.050000 0.140000 1.610000
v 0.040000 0.130000 1.610000
v 0.040000 0.140000 1.610000
v 0.040000 0.150000 1.610000
v 0.060000 0.170000 1.600000
v 0.040000 0.160000 1.600000
v 0.040000 0.170000 1.610000
v 0.060000 0.200000 1.600000
v 0.040000 0.190000 1.590000
v 0.050000 0.210000 1.620000
v 0.080000 0.250000 1.600000
v 0.040000 0.270000 1.590000
v 0.060000 0.250000 1.640000
v 0.110000 0.340000 1.660000
v 0.070000 0.360000 1.650000
v 0.080000 0.330000 1.690000
v 0.120000 0.390000 1.700000
v 0.090000 0.400000 1.700000
v 0.100000 0.370000 1.740000
v 0.110000 0.420000 1.760000
v 0.130000 0.410000 1.770000
v 0.130000 0.420000 1.800000
v 0.120000 0.420000 1.790000
v 0.120000 0.410000 1.790000
v 0.130000 0.400000 1.750000
v 0.120000 0.400000 1.780000
v 0.110000 0.420000 1.740000
v 0.020000 0.200000 1.610000
v 0.020000 0.250000 1.620000
v 0.040000 0.340000 1.680000
v 0.060000 0.390000 1.720000
v 0.100000 0.410000 1.770000
v 0.090000 0.400000 1.760000
v 0.010000 0.160000 1.620000
v 0.020000 0.160000 1.610000
v 0.010000 0.150000 1.610000
v 0.010000 0.160000 1.610000
v 0.010000 0.170000 1.620000
v 0.020000 0.190000 1.610000
v 0.000000 0.180000 1.600000
v 0.010000 0.190000 1.620000
v 0.020000 0.220000 1.610000
v 0.000000 0.210000 1.610000
v 0.010000 0.230000 1.640000
v 0.030000 0.270000 1.630000
v -0.010000 0.290000 1.630000
v 0.010000 0.260000 1.660000
v 0.050000 0.340000 1.710000
v 0.020000 0.320000 1.740000
v 0.050000 0.370000 1.760000
v 0.030000 0.340000 1.790000
v 0.030000 0.390000 1.820000
v 0.040000 0.370000 1.860000
v 0.040000 0.360000 1.850000
v 0.050000 0.370000 1.810000
v 0.040000 0.360000 1.830000
v 0.030000 0.390000 1.810000
v 0.000000 0.150000 1.620000
v 0.000000 0.160000 1.610000
v -0.010000 0.180000 1.620000
v -0.020000 0.220000 1.620000
v -0.030000 0.260000 1.640000
v -0.020000 0.330000 1.720000
v -0.010000 0.360000 1.770000
v 0.020000 0.370000 1.830000
v 0.010000 0.370000 1.810000
v 0.000000 0.160000 1.600000
v 0.000000 0.150000 1.590000
v 0.000000 0.160000 1.590000
v 0.000000 0.190000 1.590000
v -0.010000 0.230000 1.590000
v -0.020000 0.280000 1.560000
v -0.010000 0.270000 1.610000
v 0.020000 0.370000 1.630000
v -0.020000 0.380000 1.610000
v -0.010000 0.360000 1.660000
v 0.020000 0.420000 1.670000
v -0.020000 0.430000 1.660000
v -0.010000 0.410000 1.700000
v -0.010000 0.460000 1.720000
v 0.010000 0.460000 1.730000
v 0.000000 0.470000 1.750000
v 0.000000 0.470000 1.740000
v 0.000000 0.450000 1.750000
v 0.000000 0.460000 1.760000
v 0.010000 0.450000 1.710000
v 0.000000 0.450000 1.740000
v -0.010000 0.150000 1.600000
v -0.010000 0.160000 1.590000
v -0.020000 0.180000 1.590000
v -0.030000 0.210000 1.580000
v -0.050000 0.260000 1.590000
v -0.050000 0.360000 1.640000
v -0.050000 0.410000 1.680000
v -0.020000 0.450000 1.730000
v -0.030000 0.440000 1.710000
vn -0.0000 -0.0000 -1.0000
vn 0.0290 -0.3769 -0.9258
vn -0.0000 -0.3590 -0.9333
vn -0.0502 0.5271 -0.8483
vn 0.0634 -0.8242 -0.5627
vn 0.1135 0.3198 -0.9407
vn 0.1091 0.3274 -0.9386
vn 0.1984 0.6802 -0.7056
vn 0.2300 0.6481 -0.7260
vn -0.0856 -0.2567 -0.9627
vn 0.2698 0.9249 -0.2677
vn -0.1312 0.0146 -0.9912
vn -0.0933 -0.0062 -0.9956
vn -0.2639 0.3545 -0.8970
vn -0.1936 0.3295 -0.9241
vn 0.0587 -0.5735 -0.8171
vn -0.3232 0.6944 -0.6430
vn -0.3073 0.1317 -0.9424
vn -0.3150 0.1260 -0.9407
vn 0.5064 -0.1772 -0.8439
vn -0.7191 0.3082 -0.6228
vn 0.2841 0.1794 -0.9419
vn 0.2832 0.2202 -0.9334
vn -0.4302 -0.3170 -0.8453
vn 0.7140 0.4510 -0.5355
vn 0.3685 -0.0351 -0.9290
vn 0.3533 -0.0535 -0.9340
vn -0.5782 0.0551 -0.8140
vn 0.9156 -0.0872 -0.3924
vn 0.2525 -0.2525 -0.9341
vn 0.5062 -0.5062 -0.6982
vn -0.1839 0.1839 -0.9656
vn 0.6994 -0.6994 -0.1472
vn -0.0823 0.0443 -0.9956
vn -0.0760 -0.0056 -0.9971
vn -0.3626 -0.1906 -0.9122
vn -0.3355 -0.2705 -0.9024
vn 0.3546 0.4805 -0.8021
vn -0.6018 -0.5325 -0.5952
vn -0.3446 -0.0969 -0.9337
vn -0.3353 -0.0798 -0.9387
vn -0.6714 -0.1958 -0.7148
vn -0.6698 -0.1884 -0.7182
vn 0.2610 0.0622 -0.9633
vn -0.9249 -0.2698 -0.2677
vn 0.7433 -0.6690 -0.0000
vn 0.7071 0.7071 -0.0000
vn -0.7071 0.7071 -0.0000
vn -0.7433 -0.6690 -0.0000
vn 0.7011 -0.7011 -0.1298
vn 0.7011 0.7011 -0.1298
vn -0.7011 0.7011 -0.1298
vn -0.7011 -0.7011 -0.1298
vn 0.4397 0.5339 -0.7223
vn -0.6810 0.4256 -0.5959
vn -0.6554 0.5735 -0.4915
vn -0.3674 -0.8923 -0.2624
vn -0.6536 0.7557 -0.0409
vn -0.6396 -0.4264 -0.6396
vn -0.2709 -0.7450 -0.6096
vn -0.6667 -0.3333 0.6667
vn 0.5071 -0.1690 0.8452
vn 0.4460 0.6690 -0.5946
vn 0.4576 0.8498 -0.2615
vn 0.6946 -0.6679 0.2672
vn 0.4533 0.8588 0.2386
vn 0.8571 -0.2857 -0.4286
vn 0.7845 0.5884 0.1961
vn 0.3841 0.7682 0.5121
vn -0.4082 -0.4082 0.8165
vn -0.3124 -0.1562 0.9370
vn -0.4286 -0.2857 0.8571
vn -0.7682 0.6402 -0.0000
vn -0.6648 0.7387 0.1108
vn -0.8729 -0.4364 -0.2182
vn -0.8729 0.4364 0.2182
vn -0.7071 -0.7071 -0.0000
vn -0.5121 -0.7682 -0.3841
vn 0.4082 -0.4082 0.8165
vn 0.4543 -0.5149 0.7269
vn 0.5247 0.7565 -0.3904
vn 0.4612 0.8840 -0.0769
vn 0.6882 -0.2294 -0.6882
vn 0.6882 0.6883 -0.2294
vn -0.4083 -0.4082 0.8165
vn -0.2673 -0.5345 0.8018
vn -0.3522 -0.7044 0.6163
vn -0.6798 0.7223 -0.1275
vn -0.9487 0.3162 -0.0000
vn -0.0000 0.7071 0.7071
vn 0.5298 -0.5298 0.6623
vn 0.8000 -0.6000 -0.0000
vn 0.8321 0.5547 -0.0000
vn 0.5663 0.8023 0.1888
vn -0.0000 1.0000 -0.0000
vn -0.7071 -0.0000 0.7071
vn -0.5242 -0.7595 0.3851
vn -0.5884 -0.7845 -0.1961
vn -0.2649 -0.9272 -0.2649
vn -0.8242 0.5494 -0.1374
vn -0.0000 -0.0000 1.0000
vn -0.2540 0.3810 -0.8890
vn -0.0000 0.4472 -0.8944
vn 0.3333 0.6667 -0.6667
vn 0.3521 0.8621 -0.3643
vn 0.7317 -0.6707 0.1219
vn 0.4472 0.8944 -0.0000
vn 0.8944 -0.4472 -0.0000
vn -0.0000 -0.4472 -0.8944
vn -0.6247 0.4685 0.6247
vn -0.4216 -0.5270 -0.7379
vn -0.5834 -0.0254 -0.8118
vn -0.4851 -0.7276 0.4851
vn -0.2182 -0.8729 0.4364
vn -0.1511 -0.6799 0.7176
vn 0.3162 0.9487 -0.0000
vn 0.5773 -0.5774 -0.5774
vn 0.4180 -0.0697 -0.9058
vn 0.8165 -0.4083 0.4082
vn 0.3424 0.4945 -0.7989
vn -0.4851 0.7276 0.4851
vn -0.3714 -0.7428 -0.5571
vn -0.7267 0.1090 -0.6783
vn -0.8944 -0.0000 -0.4472
vn -0.6396 0.4264 -0.6396
vn -0.8169 0.2828 -0.5027
vn -0.0000 0.7071 -0.7071
vn -0.0000 -0.7071 -0.7071
vn 0.4163 -0.2498 -0.8742
vn 0.7053 -0.0705 0.7053
vn 0.5933 -0.3757 0.7119
vn 0.7071 -0.0000 -0.7071
vn -0.5774 0.5773 -0.5773
vn -0.4472 -0.0000 0.8944
vn -0.0000 -1.0000 -0.0000
vn -0.5146 0.4411 0.7352
vn -0.4082 -0.4082 -0.8165
vn -0.7071 -0.0000 -0.7071
vn -0.6667 0.3333 -0.6667
vn -0.4264 -0.6396 0.6396
vn 0.4082 -0.8165 -0.4082
vn 0.2791 0.0797 -0.9569
vn 0.4205 0.1869 -0.8878
vn 0.8847 -0.4423 0.1474
vn -0.0000 0.8321 -0.5547
vn -0.5773 -0.5773 -0.5774
vn -0.7071 -0.5657 -0.4243
vn -0.4229 0.5437 0.7249
vn -0.6396 -0.2558 -0.7249
vn -0.4243 -0.5657 0.7071
vn 0.7071 -0.7071 -0.0000
vn 0.3015 0.9045 0.3015
vn 0.6196 0.7573 0.2065
vn 0.3658 -0.4878 -0.7926
vn 0.4397 -0.3420 -0.8305
vn 0.7465 0.2364 0.6220
vn 0.4270 -0.0712 -0.9014
vn 0.5026 0.0718 -0.8616
vn 0.6396 -0.6396 0.4264
vn -0.0000 0.5547 -0.8321
vn 0.5230 0.0654 -0.8498
vn -0.4083 -0.4082 -0.8165
vn -0.4924 -0.1231 0.8616
vn -0.2417 0.0806 -0.9670
vn -0.4662 -0.2664 0.8436
vn -0.6648 0.2659 -0.6981
vn -0.4256 -0.6810 0.5959
vn -0.3298 -0.8411 0.4288
vn -0.8210 0.4496 -0.3519
vn 0.4472 -0.0000 -0.8944
vn -0.6202 -0.7442 0.2481
vn -0.8332 0.4709 -0.2898
vn 0.7172 0.2049 0.6660
vn 0.1383 0.2075 -0.9684
vn 0.8314 -0.2661 0.4878
vn 0.4962 0.6615 -0.5623
vn 0.4266 0.7756 -0.4653
vn 0.7845 0.1961 -0.5883
vn 0.8165 -0.4082 -0.4082
vn 0.3885 0.8742 -0.2914
vn 0.5883 0.7845 -0.1961
vn -0.1302 0.3906 0.9113
vn -0.3487 -0.1162 -0.9300
vn -0.3123 0.1562 0.9370
vn -0.8043 0.3712 -0.4640
vn -0.7675 0.5628 -0.3070
vn -0.8111 0.4867 -0.3244
vn -0.6471 -0.7396 0.1849
vn 0.3484 0.2613 -0.9002
vn 0.4635 0.5150 -0.7210
vn 0.6667 -0.6667 -0.3333
vn 0.5145 -0.8575 -0.0000
vn -0.5773 0.5774 -0.5774
vn -0.1622 -0.1622 0.9733
vn -0.0490 -0.2937 0.9546
vn -0.8480 0.3180 -0.4240
vn -0.7448 0.5793 -0.3310
vn -0.8026 0.5618 -0.2006
vn -0.8204 0.5707 -0.0357
vn 0.4082 0.4082 0.8165
vn 0.6667 0.3333 0.6667
vn 0.1361 0.2722 -0.9526
vn 0.3748 0.4998 -0.7809
vn 0.5051 0.7273 -0.4647
vn 0.4444 0.8889 -0.1111
vn 0.7442 -0.6202 -0.2481
vn 0.5600 0.6845 -0.4667
vn -0.4073 -0.6110 0.6788
vn -0.9487 -0.0000 -0.3162
vn -0.7618 0.4875 -0.4266
vn 0.2683 0.3578 -0.8944
vn 0.7663 -0.2873 0.5747
vn 0.3637 0.5819 -0.7274
vn 0.1826 0.9129 -0.3651
vn 0.7276 0.4851 -0.4851
s 0
usemtl rsc_005008
f 1//1 2//1 3//1
f 1//1 4//1 2//1
f 25//1 26//1 27//1
f 25//1 28//1 26//1
f 29//2 27//2 30//2
f 29//3 25//3 27//3
f 28//4 31//4 26//4
f 32//5 29//5 30//5
f 33//6 34//6 35//6
f 33//7 36//7 34//7
f 37//8 35//8 38//8
f 37//9 33//9 35//9
f 36//10 39//10 34//10
f 40//11 37//11 38//11
f 41//12 42//12 43//12
f 41//13 44//13 42//13
f 45//14 43//14 46//14
f 45//15 41//15 43//15
f 44//16 47//16 42//16
f 48//17 45//17 46//17
f 49//1 50//1 51//1
f 49//1 52//1 50//1
f 53//18 51//18 54//18
f 53//19 49//19 51//19
f 52//20 55//20 50//20
f 56//21 53//21 54//21
f 57//1 58//1 59//1
f 57//1 60//1 58//1
f 61//22 59//22 62//22
f 61//23 57//23 59//23
f 60//24 63//24 58//24
f 64//25 61//25 62//25
f 65//1 66//1 67//1
f 65//1 68//1 66//1
f 69//26 67//26 70//26
f 69//27 65//27 67//27
f 68//28 71//28 66//28
f 48//29 69//29 70//29
f 72//30 73//30 74//30
f 72//30 75//30 73//30
f 76//31 74//31 77//31
f 76//31 72//31 74//31
f 75//32 78//32 73//32
f 40//33 76//33 77//33
f 79//34 80//34 81//34
f 79//35 82//35 80//35
f 83//36 81//36 84//36
f 83//37 79//37 81//37
f 82//38 85//38 80//38
f 48//39 83//39 84//39
f 86//40 87//40 88//40
f 86//41 89//41 87//41
f 90//42 88//42 91//42
f 90//43 86//43 88//43
f 89//44 92//44 87//44
f 40//45 90//45 91//45
f 93//1 94//1 95//1
f 93//1 96//1 94//1
f 97//46 95//46 98//46
f 97//46 93//46 95//46
f 98//47 94//47 99//47
f 98//47 95//47 94//47
f 99//48 96//48 100//48
f 99//48 94//48 96//48
f 100//49 93//49 97//49
f 100//49 96//49 93//49
usemtl rsc_904008
f 5//50 6//50 7//50
f 5//50 8//50 6//50
f 7//51 9//51 10//51
f 7//51 6//51 9//51
f 10//52 11//52 12//52
f 10//52 9//52 11//52
f 12//53 8//53 5//53
f 12//53 11//53 8//53
f 13//50 3//50 14//50
f 13//50 1//50 3//50
f 14//51 2//51 15//51
f 14//51 3//51 2//51
f 15//52 4//52 16//52
f 15//52 2//52 4//52
f 16//53 1//53 13//53
f 16//53 4//53 1//53
f 17//52 18//52 19//52
f 17//52 20//52 18//52
f 19//53 21//53 22//53
f 19//53 18//53 21//53
f 22//50 23//50 24//50
f 22//50 21//50 23//50
f 24//51 20//51 17//51
f 24//51 23//51 20//51
usemtl rsc_98a020
f 486//54 488//54 479//54 471//54
f 102//55 104//55 107//55 105//55
f 105//56 107//56 110//56 108//56
f 112//57 111//57 114//57 115//57
f 111//58 113//58 116//58 114//58
f 117//59 118//59 119//59 120//59
f 115//60 114//60 123//60 125//60
f 101//61 102//61 103//61
f 103//62 106//62 127//62 126//62
f 126//63 127//63 107//63 104//63
f 127//64 128//64 110//64 107//64
f 109//65 112//65 129//65 128//65
f 129//66 130//66 116//66 113//66
f 117//67 120//67 119//67 131//67
f 131//68 119//68 122//68 121//68
f 132//69 131//69 121//69 124//69
f 135//70 136//70 134//70 133//70
f 136//71 135//71 137//71 138//71
f 138//72 137//72 139//72 140//72
f 141//73 143//73 145//73 144//73
f 144//74 145//74 148//74 146//74
f 149//75 150//75 151//75 152//75
f 154//76 155//76 151//76 150//76
f 156//77 154//77 150//77 149//77
f 147//78 146//78 154//78 156//78
f 158//79 157//79 134//79 136//79
f 140//80 142//80 161//80 160//80
f 161//81 162//81 145//81 143//81
f 162//82 163//82 148//82 145//82
f 149//83 152//83 151//83 164//83
f 165//84 164//84 151//84 155//84
f 159//85 169//85 168//85 167//85
f 169//86 159//86 170//86 171//86
f 173//87 172//87 175//87 176//87
f 172//88 174//88 177//88 175//88
f 180//89 182//89 183//89 181//89
f 166//90 168//90 185//90
f 173//91 176//91 187//91 186//91
f 176//92 178//92 188//92 187//92
f 190//93 181//93 183//93 182//93
f 189//94 191//94 184//94 179//94
f 192//95 193//95 194//95
f 196//96 195//96 197//96 198//96
f 202//97 201//97 204//97 205//97
f 216//98 214//98 211//98 210//98
f 208//99 207//99 214//99 216//99
f 207//100 209//100 215//100 214//100
f 218//101 217//101 194//101 196//101
f 218//102 219//102 199//102 196//102
f 219//103 220//103 200//103 199//103
f 220//104 221//104 203//104 200//104
f 221//105 222//105 206//105 203//105
f 205//106 208//106 223//106 222//106
f 213//48 212//48 211//48
f 225//107 224//107 213//107 215//107
f 216//108 210//108 224//108 225//108
f 226//1 227//1 228//1
f 224//107 212//107 213//107
f 229//109 230//109 233//109 231//109
f 232//110 231//110 234//110 235//110
f 231//111 233//111 236//111 234//111
f 237//112 238//112 240//112 239//112
f 244//113 245//113 246//113 247//113
f 251//114 249//114 245//114 244//114
f 242//115 241//115 249//115 251//115
f 230//90 252//90 228//90 229//90
f 245//77 248//77 246//77
f 229//116 232//116 253//116 230//116
f 230//117 226//117 252//117
f 254//118 255//118 238//118 236//118
f 251//119 244//119 257//119 258//119
f 256//120 258//120 250//120 243//120
f 260//121 261//121 263//121 264//121
f 261//122 262//122 265//122 263//122
f 267//123 269//123 272//123 270//123
f 276//124 278//124 279//124 277//124
f 280//125 281//125 278//125 276//125
f 273//126 275//126 281//126 280//126
f 259//127 260//127 282//127
f 260//47 264//47 284//47 283//47
f 283//128 284//128 265//128 262//128
f 285//129 286//129 269//129 266//129
f 268//130 271//130 287//130 286//130
f 271//131 274//131 288//131 287//131
f 289//132 277//132 279//132 278//132
f 290//133 284//133 291//133
f 292//134 293//134 291//134 284//134
f 283//47 282//47 260//47
f 284//135 290//135 292//135
f 295//136 294//136 297//136 298//136
f 294//137 296//137 299//137 297//137
f 297//138 299//138 301//138 300//138
f 302//139 303//139 306//139 304//139
f 312//139 313//139 311//139 308//139
f 305//140 304//140 312//140 314//140
f 292//141 290//141 315//141 316//141
f 293//47 295//47 317//47 316//47
f 318//142 319//142 301//142 299//142
f 319//143 320//143 303//143 301//143
f 307//144 310//144 309//144 321//144
f 322//145 321//145 311//145 313//145
f 323//1 324//1 325//1
f 326//146 328//146 331//146 329//146
f 329//147 331//147 334//147 332//147
f 333//148 332//148 335//148 336//148
f 332//149 334//149 337//149 335//149
f 341//150 342//150 343//150 344//150
f 294//109 292//109 296//109
f 328//151 323//151 347//151 348//151
f 327//152 330//152 349//152 348//152
f 330//153 333//153 350//153 349//153
f 349//154 350//154 334//154 331//154
f 350//155 351//155 337//155 334//155
f 336//156 338//156 352//156 351//156
f 351//157 352//157 339//157 337//157
f 352//158 353//158 340//158 339//158
f 341//159 344//159 343//159 354//159
f 355//160 354//160 345//160 346//160
f 353//161 355//161 346//161 340//161
f 360//162 358//162 357//162 356//162
f 359//163 358//163 361//163 362//163
f 361//164 363//164 366//164 364//164
f 365//165 364//165 367//165 368//165
f 364//166 366//166 369//166 367//166
f 368//167 367//167 370//167 371//167
f 371//168 370//168 373//168 374//168
f 370//169 372//169 375//169 373//169
f 343//170 345//170 354//170
f 382//171 380//171 377//171 376//171
f 373//172 375//172 381//172 380//172
f 360//1 356//1 383//1 384//1
f 362//173 365//173 386//173 385//173
f 385//174 386//174 366//174 363//174
f 368//175 371//175 388//175 387//175
f 387//176 388//176 372//176 369//176
f 388//177 389//177 375//177 372//177
f 391//178 390//178 379//178 381//178
f 382//179 376//179 390//179 391//179
f 389//180 391//180 381//180 375//180
f 392//48 393//48 394//48
f 390//181 378//181 379//181
f 395//101 394//101 393//101
f 395//182 393//182 397//182 398//182
f 393//183 396//183 399//183 397//183
f 398//184 397//184 400//184 401//184
f 400//185 402//185 405//185 403//185
f 404//70 403//70 406//70 407//70
f 406//186 408//186 411//186 409//186
f 417//187 418//187 416//187 413//187
f 419//188 417//188 413//188 412//188
f 420//189 421//189 405//189 402//189
f 422//190 423//190 411//190 408//190
f 412//191 415//191 414//191 424//191
f 410//192 419//192 425//192 423//192
f 426//193 427//193 428//193
f 429//101 428//101 427//101
f 432//194 431//194 434//194 435//194
f 435//195 434//195 437//195 438//195
f 434//196 436//196 439//196 437//196
f 437//197 439//197 441//197 440//197
f 440//198 441//198 443//198 442//198
f 442//199 443//199 448//199 447//199
f 451//200 450//200 428//200 429//200
f 429//201 432//201 452//201 451//201
f 451//202 452//202 433//202 430//202
f 453//203 454//203 439//203 436//203
f 455//204 456//204 443//204 441//204
f 458//205 457//205 446//205 448//205
f 449//206 444//206 457//206 458//206
f 456//207 458//207 448//207 443//207
f 467//208 466//208 469//208 470//208
f 473//209 476//209 477//209 474//209
f 469//210 471//210 479//210 478//210
f 459//133 460//133 480//133
f 481//200 480//200 460//200 461//200
f 481//1 482//1 462//1 461//1
f 483//211 484//211 465//211 463//211
f 464//212 467//212 485//212 484//212
f 485//213 486//213 471//213 468//213
f 472//151 475//151 474//151 487//151
f 488//214 487//214 476//214 479//214
f 457//215 445//215 446//215
