# OGRS RSC model extracted from .ob3
# vertices: 549  faces: 546
mtllib 5_mature_full.mtl

o bananapalm
v 0.0 0.09 1.62
v 0.0 -0.09 1.62
v -0.09 0.0 1.62
v 0.09 0.0 1.62
v 0.0 0.19 0.54
v -0.09 0.0 1.08
v -0.19 0.0 0.54
v 0.0 0.09 1.08
v 0.0 -0.09 1.08
v 0.0 -0.19 0.54
v 0.09 0.0 1.08
v 0.19 0.0 0.54
v 0.0 0.19 1.08
v -0.19 0.0 1.08
v 0.0 -0.19 1.08
v 0.19 0.0 1.08
v 0.0 -0.19 0.0
v 0.09 0.0 0.54
v 0.19 0.0 0.0
v 0.0 -0.09 0.54
v 0.0 0.09 0.54
v 0.0 0.19 0.0
v -0.09 0.0 0.54
v -0.19 0.0 0.0
v 0.19 -0.58 1.97
v -0.05 -0.88 1.97
v -0.16 -0.58 1.97
v 0.16 -0.86 1.97
v 0.12 -0.19 1.82
v -0.14 -0.21 1.82
v 0.07 -1.11 1.82
v 0.0 -0.09 1.6600000000000001
v -0.05 0.39 2.36
v 0.3 0.56 2.46
v 0.26 0.28 2.36
v 0.09 0.63 2.46
v -0.12 0.09 2.07
v 0.12 0.02 2.07
v 0.3 0.86 2.38
v 0.0 0.0 1.8800000000000001
v -0.26 0.51 2.17
v -0.07 0.86 2.15
v 0.05 0.58 2.13
v -0.28 0.81 2.17
v -0.16 0.12 2.0100000000000002
v 0.07 0.19 1.97
v -0.26 1.04 2.0100000000000002
v 0.0 0.0 1.8
v -0.63 0.12 1.97
v -0.79 0.46 1.97
v -0.51 0.42 1.97
v -0.86 0.26 1.97
v -0.23 0.0 1.82
v -0.14 0.21 1.82
v -1.04 0.46 1.82
v -0.07 0.05 1.6600000000000001
v 0.39 0.53 1.97
v 0.79 0.46 1.97
v 0.6 0.26 1.97
v 0.65 0.65 1.97
v 0.09 0.28 1.82
v 0.21 0.09 1.82
v 0.93 0.67 1.82
v 0.09 0.09 1.6600000000000001
v 0.51 0.07 2.15
v 0.77 -0.26 2.15
v 0.46 -0.26 2.15
v 0.79 -0.05 2.15
v 0.09 0.09 1.99
v 0.07 -0.12 1.99
v 1.0 -0.21 1.99
v 0.32 -0.12 2.36
v 0.3 -0.51 2.46
v 0.09 -0.35000000000000003 2.36
v 0.46 -0.35000000000000003 2.46
v 0.09 0.05 2.07
v -0.05 -0.09 2.07
v 0.58 -0.65 2.38
v -0.21 -0.53 2.15
v -0.6 -0.58 2.18
v -0.46 -0.32 2.18
v -0.46 -0.7000000000000001 2.17
v 0.0 -0.19 1.97
v -0.19 -0.02 2.0100000000000002
v -0.7000000000000001 -0.79 2.0100000000000002
v -0.3 -0.23 2.36
v -0.63 -0.02 2.46
v -0.39 0.09 2.36
v -0.58 -0.23 2.46
v -0.02 -0.12 2.07
v -0.09 0.12 2.07
v -0.88 -0.21 2.38
v 0.0 0.12 1.8
v 0.0 -0.07 1.8
v -0.09 0.02 1.8
v 0.09 0.02 1.8
v 0.0 0.12 1.62
v -0.09 0.02 1.62
v 0.0 -0.07 1.62
v 0.09 0.02 1.62
v -0.01 0.13 1.6500000000000001
v 0.0 0.13 1.6500000000000001
v -0.01 0.13 1.6400000000000001
v -0.01 0.14 1.6500000000000001
v -0.02 0.14 1.6500000000000001
v -0.01 0.16 1.6600000000000001
v -0.02 0.16 1.6500000000000001
v -0.02 0.15 1.67
v -0.01 0.18 1.68
v -0.03 0.18 1.6600000000000001
v -0.03 0.17 1.69
v -0.01 0.21 1.71
v -0.05 0.23 1.71
v -0.04 0.18 1.72
v -0.03 0.22 1.8
v -0.08 0.24 1.8
v -0.07 0.19 1.81
v -0.05 0.21 1.86
v -0.09 0.23 1.85
v -0.08 0.18 1.86
v -0.09 0.19 1.9100000000000001
v -0.07 0.17 1.9100000000000001
v -0.09 0.16 1.93
v -0.09 0.17 1.93
v -0.08 0.15 1.92
v -0.09 0.15 1.93
v -0.07 0.19 1.8900000000000001
v -0.08 0.16 1.9100000000000001
v -0.09 0.2 1.8900000000000001
v -0.02 0.13 1.6500000000000001
v -0.04 0.15 1.6600000000000001
v -0.05 0.17 1.67
v -0.08 0.2 1.7
v -0.1 0.21 1.79
v -0.11 0.2 1.85
v -0.1 0.17 1.9100000000000001
v -0.1 0.18 1.8900000000000001
v 0.05 0.11 1.6500000000000001
v 0.06 0.11 1.6500000000000001
v 0.05 0.11 1.6400000000000001
v 0.06 0.12 1.6500000000000001
v 0.05 0.12 1.6500000000000001
v 0.07 0.14 1.6600000000000001
v 0.05 0.14 1.6500000000000001
v 0.05 0.14 1.6600000000000001
v 0.07 0.17 1.67
v 0.05 0.17 1.6600000000000001
v 0.05 0.17 1.69
v 0.08 0.21 1.69
v 0.05 0.23 1.7
v 0.06 0.18 1.72
v 0.11 0.24 1.78
v 0.07 0.26 1.78
v 0.08 0.21 1.8
v 0.12 0.24 1.84
v 0.08 0.26 1.84
v 0.09 0.21 1.86
v 0.1 0.23 1.9000000000000001
v 0.11 0.22 1.9000000000000001
v 0.11 0.2 1.92
v 0.11 0.21 1.92
v 0.11 0.2 1.93
v 0.11 0.22 1.8800000000000001
v 0.1 0.2 1.9000000000000001
v 0.09 0.24 1.8800000000000001
v 0.04 0.11 1.6500000000000001
v 0.04 0.12 1.6500000000000001
v 0.03 0.14 1.6600000000000001
v 0.03 0.17 1.67
v 0.02 0.2 1.7
v 0.04 0.23 1.79
v 0.05 0.23 1.85
v 0.09 0.21 1.9000000000000001
v 0.08 0.22 1.8900000000000001
v 0.02 0.12 1.6600000000000001
v 0.03 0.13 1.6600000000000001
v 0.02 0.13 1.6500000000000001
v 0.02 0.14 1.6600000000000001
v 0.02 0.13 1.6600000000000001
v 0.03 0.15 1.67
v 0.01 0.15 1.6600000000000001
v 0.01 0.15 1.68
v 0.03 0.18 1.69
v 0.01 0.18 1.68
v 0.01 0.17 1.71
v 0.04 0.2 1.72
v 0.0 0.23 1.73
v 0.01 0.17 1.74
v 0.04 0.21 1.82
v 0.0 0.23 1.82
v 0.01 0.17 1.83
v 0.04 0.19 1.87
v 0.0 0.21 1.87
v 0.01 0.16 1.8800000000000001
v 0.01 0.17 1.93
v 0.03 0.15 1.92
v 0.02 0.13 1.94
v 0.02 0.14 1.94
v 0.02 0.13 1.93
v 0.02 0.12 1.95
v 0.03 0.17 1.9100000000000001
v 0.02 0.14 1.92
v 0.01 0.18 1.9100000000000001
v 0.01 0.12 1.6600000000000001
v 0.01 0.13 1.6600000000000001
v 0.0 0.15 1.67
v -0.01 0.17 1.69
v -0.03 0.19 1.72
v -0.03 0.19 1.82
v -0.02 0.18 1.87
v 0.0 0.15 1.92
v 0.0 0.16 1.9100000000000001
v 0.01 0.14 1.6500000000000001
v 0.02 0.14 1.6400000000000001
v 0.01 0.14 1.6400000000000001
v 0.02 0.15 1.6400000000000001
v 0.01 0.15 1.6400000000000001
v 0.02 0.17 1.6500000000000001
v 0.01 0.16 1.6300000000000001
v 0.01 0.17 1.6500000000000001
v 0.02 0.2 1.6500000000000001
v 0.0 0.19 1.6400000000000001
v 0.0 0.2 1.67
v 0.03 0.24 1.68
v -0.01 0.26 1.67
v 0.0 0.22 1.7
v 0.02 0.29 1.77
v -0.02 0.31 1.75
v -0.01 0.26 1.78
v 0.02 0.3 1.82
v -0.02 0.31 1.81
v -0.01 0.27 1.84
v -0.02 0.3 1.8800000000000001
v 0.0 0.28 1.8800000000000001
v -0.01 0.27 1.9100000000000001
v -0.01 0.29 1.9000000000000001
v -0.01 0.27 1.9000000000000001
v 0.0 0.29 1.86
v -0.01 0.27 1.8800000000000001
v -0.02 0.3 1.86
v 0.0 0.13 1.6400000000000001
v 0.0 0.14 1.6400000000000001
v -0.01 0.16 1.6500000000000001
v -0.02 0.19 1.6600000000000001
v -0.04 0.23 1.68
v -0.05 0.27 1.77
v -0.05 0.29 1.82
v -0.03 0.28 1.8800000000000001
v -0.03 0.28 1.86
v 0.01 0.14 1.57
v 0.02 0.14 1.57
v 0.01 0.13 1.57
v 0.01 0.14 1.56
v 0.0 0.14 1.56
v 0.01 0.16 1.55
v 0.0 0.14 1.55
v 0.0 0.16 1.55
v 0.01 0.18 1.53
v -0.01 0.16 1.53
v -0.01 0.19 1.54
v 0.01 0.22 1.52
v -0.03 0.22 1.5
v -0.02 0.23 1.54
v -0.01 0.32 1.53
v -0.05 0.32 1.51
v -0.05 0.32 1.56
v -0.03 0.38 1.55
v -0.06 0.37 1.54
v -0.06 0.37 1.58
v -0.07 0.42 1.59
v -0.05 0.42 1.6
v -0.07 0.44 1.62
v -0.07 0.44 1.61
v -0.06 0.43 1.62
v -0.05 0.41000000000000003 1.58
v -0.06 0.42 1.61
v -0.07 0.41000000000000003 1.57
v 0.0 0.13 1.57
v -0.02 0.15 1.55
v -0.03 0.17 1.54
v -0.05 0.21 1.52
v -0.08 0.31 1.54
v -0.09 0.36 1.56
v -0.08 0.42 1.6
v -0.08 0.4 1.59
v 0.07 0.14 1.59
v 0.08 0.13 1.58
v 0.07 0.13 1.58
v 0.08 0.14 1.58
v 0.07 0.14 1.58
v 0.08 0.15 1.56
v 0.06 0.14 1.56
v 0.07 0.16 1.56
v 0.09 0.17 1.54
v 0.06 0.15 1.54
v 0.07 0.19 1.55
v 0.1 0.2 1.52
v 0.07 0.21 1.5
v 0.08 0.22 1.55
v 0.12 0.3 1.52
v 0.08 0.31 1.5
v 0.09 0.32 1.55
v 0.13 0.36 1.53
v 0.1 0.37 1.52
v 0.11 0.37 1.56
v 0.11 0.43 1.55
v 0.13 0.42 1.57
v 0.12 0.45 1.58
v 0.12 0.44 1.57
v 0.12 0.44 1.58
v 0.12 0.45 1.59
v 0.13 0.41000000000000003 1.55
v 0.12 0.42 1.58
v 0.11 0.41000000000000003 1.54
v 0.06 0.14 1.59
v 0.06 0.14 1.58
v 0.05 0.15 1.57
v 0.05 0.17 1.55
v 0.04 0.21 1.53
v 0.05 0.31 1.53
v 0.07 0.37 1.54
v 0.1 0.43 1.57
v 0.09 0.41000000000000003 1.56
v 0.04 0.15 1.58
v 0.04 0.14 1.57
v 0.04 0.15 1.57
v 0.03 0.15 1.56
v 0.05 0.17 1.56
v 0.03 0.15 1.55
v 0.03 0.17 1.56
v 0.05 0.19 1.54
v 0.03 0.18 1.54
v 0.03 0.21 1.55
v 0.05 0.23 1.53
v 0.02 0.24 1.51
v 0.03 0.24 1.56
v 0.06 0.33 1.55
v 0.02 0.34 1.53
v 0.03 0.33 1.58
v 0.06 0.39 1.58
v 0.02 0.39 1.56
v 0.03 0.39 1.61
v 0.03 0.44 1.61
v 0.04 0.43 1.62
v 0.03 0.45 1.6400000000000001
v 0.03 0.45 1.6300000000000001
v 0.03 0.44 1.6400000000000001
v 0.04 0.45 1.6500000000000001
v 0.05 0.42 1.61
v 0.03 0.43 1.6300000000000001
v 0.03 0.43 1.6
v 0.03 0.14 1.58
v 0.03 0.15 1.57
v 0.02 0.16 1.56
v 0.01 0.19 1.55
v -0.01 0.23 1.54
v -0.01 0.33 1.56
v -0.01 0.39 1.58
v 0.02 0.43 1.6300000000000001
v 0.01 0.42 1.61
v 0.03 0.14 1.56
v 0.04 0.13 1.56
v 0.03 0.13 1.56
v 0.04 0.13 1.55
v 0.03 0.13 1.55
v 0.03 0.14 1.55
v 0.04 0.14 1.54
v 0.03 0.13 1.54
v 0.03 0.15 1.54
v 0.04 0.16 1.51
v 0.02 0.14 1.51
v 0.02 0.18 1.52
v 0.05 0.19 1.49
v 0.01 0.19 1.47
v 0.02 0.21 1.51
v 0.04 0.29 1.47
v 0.0 0.29 1.45
v 0.01 0.31 1.5
v 0.04 0.36 1.48
v 0.0 0.35000000000000003 1.46
v 0.01 0.37 1.51
v 0.0 0.41000000000000003 1.49
v 0.02 0.42 1.5
v 0.01 0.44 1.52
v 0.01 0.44 1.51
v 0.01 0.43 1.52
v 0.02 0.4 1.49
v 0.01 0.42 1.51
v 0.0 0.4 1.48
v 0.02 0.13 1.56
v 0.02 0.13 1.55
v 0.01 0.14 1.54
v 0.0 0.16 1.52
v -0.01 0.19 1.5
v -0.03 0.29 1.48
v -0.03 0.35000000000000003 1.48
v -0.01 0.42 1.51
v -0.01 0.4 1.5
v -0.02 0.15 1.61
v -0.01 0.15 1.61
v -0.02 0.15 1.6
v -0.01 0.16 1.6
v -0.02 0.16 1.6
v -0.02 0.16 1.61
v -0.01 0.19 1.61
v -0.03 0.17 1.59
v -0.03 0.19 1.61
v -0.02 0.22 1.61
v -0.04 0.21 1.59
v -0.04 0.22 1.62
v -0.02 0.27 1.62
v -0.06 0.29 1.61
v -0.05 0.25 1.6500000000000001
v -0.03 0.35000000000000003 1.7
v -0.08 0.36 1.68
v -0.06 0.32 1.72
v -0.04 0.38 1.75
v -0.08 0.39 1.74
v -0.06 0.35000000000000003 1.77
v -0.07 0.4 1.8
v -0.06 0.39 1.81
v -0.07 0.38 1.84
v -0.07 0.39 1.83
v -0.06 0.37 1.83
v -0.05 0.38 1.79
v -0.07 0.37 1.82
v -0.08 0.4 1.79
v -0.03 0.15 1.61
v -0.03 0.16 1.61
v -0.05 0.18 1.61
v -0.06 0.21 1.61
v -0.08 0.25 1.62
v -0.1 0.33 1.7
v -0.1 0.36 1.75
v -0.08 0.38 1.81
v -0.09 0.37 1.79
v 0.05 0.14 1.62
v 0.05 0.14 1.61
v 0.04 0.13 1.61
v 0.04 0.14 1.61
v 0.04 0.15 1.61
v 0.06 0.17 1.6
v 0.04 0.16 1.6
v 0.04 0.17 1.61
v 0.06 0.2 1.6
v 0.04 0.19 1.59
v 0.05 0.21 1.62
v 0.08 0.25 1.6
v 0.04 0.27 1.59
v 0.06 0.25 1.6400000000000001
v 0.11 0.34 1.6600000000000001
v 0.07 0.36 1.6500000000000001
v 0.08 0.33 1.69
v 0.12 0.39 1.7
v 0.09 0.4 1.7
v 0.1 0.37 1.74
v 0.11 0.42 1.76
v 0.13 0.41000000000000003 1.77
v 0.13 0.42 1.8
v 0.12 0.42 1.79
v 0.12 0.41000000000000003 1.79
v 0.13 0.41000000000000003 1.8
v 0.13 0.4 1.75
v 0.12 0.4 1.78
v 0.11 0.42 1.74
v 0.03 0.14 1.62
v 0.03 0.14 1.61
v 0.03 0.17 1.61
v 0.02 0.2 1.61
v 0.02 0.25 1.62
v 0.04 0.34 1.68
v 0.06 0.39 1.72
v 0.1 0.41000000000000003 1.77
v 0.09 0.4 1.76
v 0.01 0.16 1.62
v 0.02 0.16 1.61
v 0.01 0.15 1.61
v 0.01 0.16 1.61
v 0.01 0.17 1.62
v 0.02 0.19 1.61
v 0.0 0.18 1.6
v 0.01 0.19 1.62
v 0.02 0.22 1.61
v 0.0 0.21 1.61
v 0.01 0.23 1.6400000000000001
v 0.03 0.27 1.6300000000000001
v -0.01 0.29 1.6300000000000001
v 0.01 0.26 1.6600000000000001
v 0.05 0.34 1.71
v 0.0 0.36 1.7
v 0.02 0.32 1.74
v 0.05 0.37 1.76
v 0.02 0.39 1.76
v 0.03 0.34 1.79
v 0.03 0.39 1.82
v 0.05 0.37 1.83
v 0.04 0.37 1.86
v 0.04 0.38 1.85
v 0.04 0.36 1.85
v 0.05 0.37 1.81
v 0.04 0.36 1.83
v 0.03 0.39 1.81
v 0.0 0.15 1.62
v 0.0 0.16 1.61
v -0.01 0.18 1.62
v -0.02 0.22 1.62
v -0.03 0.26 1.6400000000000001
v -0.02 0.33 1.72
v -0.01 0.36 1.77
v 0.02 0.37 1.83
v 0.01 0.37 1.81
v 0.0 0.16 1.6
v 0.01 0.15 1.6
v 0.0 0.15 1.59
v 0.01 0.16 1.59
v 0.0 0.16 1.59
v 0.01 0.18 1.59
v 0.0 0.17 1.58
v 0.0 0.19 1.59
v 0.01 0.22 1.58
v -0.01 0.2 1.57
v -0.01 0.23 1.59
v 0.01 0.27 1.57
v -0.02 0.28 1.56
v -0.01 0.27 1.61
v 0.02 0.37 1.6300000000000001
v -0.02 0.38 1.61
v -0.01 0.36 1.6600000000000001
v 0.02 0.42 1.67
v -0.02 0.43 1.6600000000000001
v -0.01 0.41000000000000003 1.7
v -0.01 0.46 1.72
v 0.01 0.46 1.73
v 0.0 0.47000000000000003 1.75
v 0.0 0.47000000000000003 1.74
v 0.0 0.45 1.75
v 0.0 0.46 1.76
v 0.01 0.45 1.71
v 0.0 0.45 1.74
v -0.01 0.46 1.7
v -0.01 0.15 1.6
v -0.01 0.16 1.59
v -0.02 0.18 1.59
v -0.03 0.21 1.58
v -0.05 0.26 1.59
v -0.05 0.36 1.6400000000000001
v -0.05 0.41000000000000003 1.68
v -0.02 0.45 1.73
v -0.03 0.44 1.71

usemtl rsc_005008
f 1 2 3
f 1 4 2
f 25 26 27
f 25 28 26
f 29 27 30
f 29 25 27
f 28 31 26
f 32 29 30
f 33 34 35
f 33 36 34
f 37 35 38
f 37 33 35
f 36 39 34
f 40 37 38
f 41 42 43
f 41 44 42
f 45 43 46
f 45 41 43
f 44 47 42
f 48 45 46
f 49 50 51
f 49 52 50
f 53 51 54
f 53 49 51
f 52 55 50
f 56 53 54
f 57 58 59
f 57 60 58
f 61 59 62
f 61 57 59
f 60 63 58
f 64 61 62
f 65 66 67
f 65 68 66
f 69 67 70
f 69 65 67
f 68 71 66
f 48 69 70
f 72 73 74
f 72 75 73
f 76 74 77
f 76 72 74
f 75 78 73
f 40 76 77
f 79 80 81
f 79 82 80
f 83 81 84
f 83 79 81
f 82 85 80
f 48 83 84
f 86 87 88
f 86 89 87
f 90 88 91
f 90 86 88
f 89 92 87
f 40 90 91
f 93 94 95
f 93 96 94
f 97 95 98
f 97 93 95
f 98 94 99
f 98 95 94
f 99 96 100
f 99 94 96
f 100 93 97
f 100 96 93
usemtl rsc_904008
f 5 6 7
f 5 8 6
f 7 9 10
f 7 6 9
f 10 11 12
f 10 9 11
f 12 8 5
f 12 11 8
f 13 3 14
f 13 1 3
f 14 2 15
f 14 3 2
f 15 4 16
f 15 2 4
f 16 1 13
f 16 4 1
f 17 18 19
f 17 20 18
f 19 21 22
f 19 18 21
f 22 23 24
f 22 21 23
f 24 20 17
f 24 23 20
usemtl rsc_98a020
f 101 102 103
f 104 104 103 102
f 105 104 102 101
f 104 104 106 107
f 104 105 108 106
f 107 106 109 110
f 106 108 111 109
f 110 109 112 113
f 109 111 114 112
f 113 112 115 116
f 112 114 117 115
f 116 115 118 119
f 115 117 120 118
f 121 122 123 124
f 122 125 126 123
f 127 128 125 122
f 129 127 122 121
f 119 118 127 129
f 118 120 128 127
f 101 103 130
f 105 130 103 104
f 105 101 130 105
f 104 107 131 105
f 105 131 108 105
f 107 110 132 131
f 131 132 111 108
f 110 113 133 132
f 132 133 114 111
f 113 116 134 133
f 133 134 117 114
f 116 119 135 134
f 134 135 120 117
f 121 124 123 136
f 136 123 126 125
f 137 136 125 128
f 129 121 136 137
f 119 129 137 135
f 135 137 128 120
f 138 139 140
f 141 142 140 139
f 142 141 139 138
f 142 141 143 144
f 141 142 145 143
f 144 143 146 147
f 143 145 148 146
f 147 146 149 150
f 146 148 151 149
f 150 149 152 153
f 149 151 154 152
f 153 152 155 156
f 152 154 157 155
f 158 159 160 161
f 159 160 162 160
f 163 164 160 159
f 165 163 159 158
f 156 155 163 165
f 155 157 164 163
f 138 140 166
f 167 166 140 142
f 142 138 166 167
f 142 144 168 167
f 167 168 145 142
f 144 147 169 168
f 168 169 148 145
f 147 150 170 169
f 169 170 151 148
f 150 153 171 170
f 170 171 154 151
f 153 156 172 171
f 171 172 157 154
f 158 161 160 173
f 173 160 162 160
f 174 173 160 164
f 165 158 173 174
f 156 165 174 172
f 172 174 164 157
f 175 176 177
f 168 178 177 176
f 179 168 176 175
f 178 168 180 181
f 168 179 182 180
f 181 180 183 184
f 180 182 185 183
f 184 183 186 187
f 183 185 188 186
f 187 186 189 190
f 186 188 191 189
f 190 189 192 193
f 189 191 194 192
f 195 196 197 198
f 196 199 200 197
f 201 202 199 196
f 203 201 196 195
f 193 192 201 203
f 192 194 202 201
f 175 177 204
f 205 204 177 178
f 179 175 204 205
f 178 181 206 205
f 205 206 182 179
f 181 184 207 206
f 206 207 185 182
f 184 187 208 207
f 207 208 188 185
f 187 190 209 208
f 208 209 191 188
f 190 193 210 209
f 209 210 194 191
f 195 198 197 211
f 211 197 200 199
f 212 211 199 202
f 203 195 211 212
f 193 203 212 210
f 210 212 202 194
f 213 214 215
f 216 217 215 214
f 217 216 214 213
f 217 216 218 219
f 216 217 220 218
f 219 218 221 222
f 218 220 223 221
f 222 221 224 225
f 221 223 226 224
f 225 224 227 228
f 224 226 229 227
f 228 227 230 231
f 227 229 232 230
f 233 234 235 236
f 234 237 235 235
f 238 239 237 234
f 240 238 234 233
f 231 230 238 240
f 230 232 239 238
f 213 215 241
f 242 241 215 217
f 217 213 241 242
f 217 219 243 242
f 242 243 220 217
f 219 222 244 243
f 243 244 223 220
f 222 225 245 244
f 244 245 226 223
f 225 228 246 245
f 245 246 229 226
f 228 231 247 246
f 246 247 232 229
f 233 236 235 248
f 248 235 235 237
f 249 248 237 239
f 240 233 248 249
f 231 240 249 247
f 247 249 239 232
f 250 251 252
f 253 253 252 251
f 254 253 251 250
f 253 253 255 256
f 253 254 257 255
f 256 255 258 259
f 255 257 260 258
f 259 258 261 262
f 258 260 263 261
f 262 261 264 265
f 261 263 266 264
f 265 264 267 268
f 264 266 269 267
f 270 271 272 273
f 271 274 272 272
f 275 276 274 271
f 277 275 271 270
f 268 267 275 277
f 267 269 276 275
f 250 252 278
f 254 278 252 253
f 254 250 278 254
f 253 256 279 254
f 254 279 257 254
f 256 259 280 279
f 279 280 260 257
f 259 262 281 280
f 280 281 263 260
f 262 265 282 281
f 281 282 266 263
f 265 268 283 282
f 282 283 269 266
f 270 273 272 284
f 284 272 272 274
f 285 284 274 276
f 277 270 284 285
f 268 277 285 283
f 283 285 276 269
f 286 287 288
f 289 288 288 287
f 290 289 287 286
f 288 289 291 292
f 289 290 293 291
f 292 291 294 295
f 291 293 296 294
f 295 294 297 298
f 294 296 299 297
f 298 297 300 301
f 297 299 302 300
f 301 300 303 304
f 300 302 305 303
f 306 307 308 309
f 307 310 311 308
f 312 313 310 307
f 314 312 307 306
f 304 303 312 314
f 303 305 313 312
f 286 288 315
f 316 315 288 288
f 290 286 315 316
f 288 292 317 316
f 316 317 293 290
f 292 295 318 317
f 317 318 296 293
f 295 298 319 318
f 318 319 299 296
f 298 301 320 319
f 319 320 302 299
f 301 304 321 320
f 320 321 305 302
f 306 309 308 322
f 322 308 311 310
f 323 322 310 313
f 314 306 322 323
f 304 314 323 321
f 321 323 313 305
f 324 317 325
f 326 327 325 317
f 326 326 317 324
f 327 326 328 329
f 326 326 330 328
f 329 328 331 332
f 328 330 333 331
f 332 331 334 335
f 331 333 336 334
f 335 334 337 338
f 334 336 339 337
f 338 337 340 341
f 337 339 342 340
f 343 344 345 346
f 344 347 348 345
f 349 350 347 344
f 351 349 344 343
f 341 340 349 351
f 340 342 350 349
f 324 325 352
f 353 352 325 327
f 326 324 352 353
f 327 329 354 353
f 353 354 330 326
f 329 332 355 354
f 354 355 333 330
f 332 335 356 355
f 355 356 336 333
f 335 338 357 356
f 356 357 339 336
f 338 341 358 357
f 357 358 342 339
f 343 346 345 359
f 359 345 348 347
f 360 359 347 350
f 351 343 359 360
f 341 351 360 358
f 358 360 350 342
f 361 362 363
f 364 365 363 362
f 366 364 362 361
f 365 364 367 368
f 364 366 369 367
f 368 367 370 371
f 367 369 372 370
f 371 370 373 374
f 370 372 375 373
f 374 373 376 377
f 373 375 378 376
f 377 376 379 380
f 376 378 381 379
f 382 383 384 385
f 383 386 384 384
f 387 388 386 383
f 389 387 383 382
f 380 379 387 389
f 379 381 388 387
f 361 363 390
f 391 390 363 365
f 366 361 390 391
f 365 368 392 391
f 391 392 369 366
f 368 371 393 392
f 392 393 372 369
f 371 374 394 393
f 393 394 375 372
f 374 377 395 394
f 394 395 378 375
f 377 380 396 395
f 395 396 381 378
f 382 385 384 397
f 397 384 384 386
f 398 397 386 388
f 389 382 397 398
f 380 389 398 396
f 396 398 388 381
f 399 400 401
f 402 403 401 400
f 404 402 400 399
f 403 402 405 406
f 402 404 407 405
f 406 405 408 409
f 405 407 410 408
f 409 408 411 412
f 408 410 413 411
f 412 411 414 415
f 411 413 416 414
f 415 414 417 418
f 414 416 419 417
f 420 421 422 423
f 421 424 422 422
f 425 426 424 421
f 427 425 421 420
f 418 417 425 427
f 417 419 426 425
f 399 401 428
f 429 428 401 403
f 404 399 428 429
f 403 406 430 429
f 429 430 407 404
f 406 409 431 430
f 430 431 410 407
f 409 412 432 431
f 431 432 413 410
f 412 415 433 432
f 432 433 416 413
f 415 418 434 433
f 433 434 419 416
f 420 423 422 435
f 435 422 422 424
f 436 435 424 426
f 427 420 435 436
f 418 427 436 434
f 434 436 426 419
f 437 438 439
f 438 440 439 438
f 441 438 438 437
f 440 438 442 443
f 438 441 444 442
f 443 442 445 446
f 442 444 447 445
f 446 445 448 449
f 445 447 450 448
f 449 448 451 452
f 448 450 453 451
f 452 451 454 455
f 451 453 456 454
f 457 458 459 460
f 458 461 462 459
f 463 464 461 458
f 465 463 458 457
f 455 454 463 465
f 454 456 464 463
f 437 439 466
f 467 466 439 440
f 441 437 466 467
f 440 443 468 467
f 467 468 444 441
f 443 446 469 468
f 468 469 447 444
f 446 449 470 469
f 469 470 450 447
f 449 452 471 470
f 470 471 453 450
f 452 455 472 471
f 471 472 456 453
f 457 460 459 473
f 473 459 462 461
f 474 473 461 464
f 465 457 473 474
f 455 465 474 472
f 472 474 464 456
f 475 476 477
f 476 478 477 476
f 479 476 476 475
f 478 476 480 481
f 476 479 482 480
f 481 480 483 484
f 480 482 485 483
f 484 483 486 487
f 483 485 488 486
f 487 486 489 490
f 486 488 491 489
f 490 489 492 493
f 489 491 494 492
f 495 496 497 498
f 496 499 497 497
f 500 501 499 496
f 502 500 496 495
f 493 492 500 502
f 492 494 501 500
f 475 477 503
f 504 503 477 478
f 479 475 503 504
f 478 481 505 504
f 504 505 482 479
f 481 484 506 505
f 505 506 485 482
f 484 487 507 506
f 506 507 488 485
f 487 490 508 507
f 507 508 491 488
f 490 493 509 508
f 508 509 494 491
f 495 498 497 510
f 510 497 497 499
f 511 510 499 501
f 502 495 510 511
f 493 502 511 509
f 509 511 501 494
f 512 513 514
f 515 516 514 513
f 516 515 513 512
f 516 515 517 518
f 515 516 519 517
f 518 517 520 521
f 517 519 522 520
f 521 520 523 524
f 520 522 525 523
f 524 523 526 527
f 523 525 528 526
f 527 526 529 530
f 526 528 531 529
f 532 533 534 535
f 533 536 537 534
f 538 539 536 533
f 540 538 533 532
f 530 529 538 540
f 529 531 539 538
f 512 514 541
f 542 541 514 516
f 516 512 541 542
f 516 518 543 542
f 542 543 519 516
f 518 521 544 543
f 543 544 522 519
f 521 524 545 544
f 544 545 525 522
f 524 527 546 545
f 545 546 528 525
f 527 530 547 546
f 546 547 531 528
f 532 535 534 548
f 548 534 537 536
f 549 548 536 539
f 540 532 548 549
f 530 540 549 547
f 547 549 539 531
