# Blender 4.0.2
# www.blender.org
mtllib stage_3.mtl
o Tomato_Stage3
v 0.000000 -0.500000 0.000000
v 0.000000 -0.500000 0.050000
v -0.250000 -0.433013 0.000000
v -0.250000 -0.433013 0.050000
v -0.433013 -0.250000 0.000000
v -0.433013 -0.250000 0.050000
v -0.500000 0.000000 0.000000
v -0.500000 0.000000 0.050000
v -0.433013 0.250000 0.000000
v -0.433013 0.250000 0.050000
v -0.250000 0.433013 0.000000
v -0.250000 0.433013 0.050000
v 0.000000 0.500000 0.000000
v 0.000000 0.500000 0.050000
v 0.250000 0.433013 0.000000
v 0.250000 0.433013 0.050000
v 0.433013 0.250000 0.000000
v 0.433013 0.250000 0.050000
v 0.500000 0.000000 0.000000
v 0.500000 0.000000 0.050000
v 0.433013 -0.250000 0.000000
v 0.433013 -0.250000 0.050000
v 0.250000 -0.433013 0.000000
v 0.250000 -0.433013 0.050000
v 0.000000 -0.025000 0.025000
v 0.000000 -0.025000 0.575000
v -0.021651 -0.012500 0.025000
v -0.021651 -0.012500 0.575000
v -0.021651 0.012500 0.025000
v -0.021651 0.012500 0.575000
v 0.000000 0.025000 0.025000
v 0.000000 0.025000 0.575000
v 0.021651 0.012500 0.025000
v 0.021651 0.012500 0.575000
v 0.021651 -0.012500 0.025000
v 0.021651 -0.012500 0.575000
v -0.131764 -0.053033 0.210736
v -0.140000 -0.075000 0.180000
v -0.148236 -0.053033 0.149264
v -0.214575 -0.026517 0.232925
v -0.257112 -0.037500 0.211380
v -0.231046 -0.026517 0.171454
v -0.214575 0.026517 0.232925
v -0.257112 0.037500 0.211380
v -0.231046 0.026517 0.171454
v -0.131764 0.053033 0.210736
v -0.140000 0.075000 0.180000
v -0.148236 0.053033 0.149264
v -0.151647 0.000000 0.136533
v -0.128353 0.000000 0.223467
v -0.048954 0.026516 0.188546
v -0.022888 0.037500 0.148620
v -0.065425 0.026516 0.127075
v -0.048954 -0.026517 0.188546
v -0.022888 -0.037500 0.148620
v -0.065425 -0.026517 0.127075
v 0.053033 -0.131764 0.210736
v 0.075000 -0.140000 0.180000
v 0.053033 -0.148236 0.149264
v 0.026517 -0.214575 0.232925
v 0.037500 -0.257112 0.211380
v 0.026517 -0.231046 0.171454
v -0.026517 -0.214575 0.232925
v -0.037500 -0.257112 0.211380
v -0.026517 -0.231046 0.171454
v -0.053033 -0.131764 0.210736
v -0.075000 -0.140000 0.180000
v -0.053033 -0.148236 0.149264
v 0.000000 -0.151647 0.136533
v -0.000000 -0.128353 0.223467
v -0.026516 -0.048954 0.188546
v -0.037500 -0.022888 0.148620
v -0.026516 -0.065425 0.127075
v 0.026517 -0.048954 0.188546
v 0.037500 -0.022888 0.148620
v 0.026517 -0.065425 0.127075
v 0.131764 0.053033 0.210736
v 0.140000 0.075000 0.180000
v 0.148236 0.053033 0.149264
v 0.214575 0.026517 0.232925
v 0.257112 0.037500 0.211380
v 0.231046 0.026517 0.171454
v 0.214575 -0.026517 0.232925
v 0.257112 -0.037500 0.211380
v 0.231046 -0.026517 0.171454
v 0.131764 -0.053033 0.210736
v 0.140000 -0.075000 0.180000
v 0.148236 -0.053033 0.149264
v 0.151647 0.000000 0.136533
v 0.128353 -0.000000 0.223467
v 0.048954 -0.026517 0.188546
v 0.022888 -0.037500 0.148620
v 0.065425 -0.026517 0.127075
v 0.048954 0.026517 0.188546
v 0.022888 0.037500 0.148620
v 0.065425 0.026517 0.127075
v -0.053033 0.131764 0.210736
v -0.075000 0.140000 0.180000
v -0.053033 0.148236 0.149264
v -0.026517 0.214575 0.232925
v -0.037500 0.257112 0.211380
v -0.026517 0.231046 0.171454
v 0.026517 0.214575 0.232925
v 0.037500 0.257112 0.211380
v 0.026517 0.231046 0.171454
v 0.053033 0.131764 0.210736
v 0.075000 0.140000 0.180000
v 0.053033 0.148236 0.149264
v -0.000000 0.151647 0.136533
v 0.000000 0.128353 0.223467
v 0.026516 0.048954 0.188546
v 0.037500 0.022888 0.148620
v 0.026516 0.065425 0.127075
v -0.026517 0.048954 0.188546
v -0.037500 0.022888 0.148620
v -0.026517 0.065425 0.127075
v -0.131764 -0.053033 0.350736
v -0.140000 -0.075000 0.320000
v -0.148236 -0.053033 0.289264
v -0.214575 -0.026517 0.372925
v -0.257112 -0.037500 0.351380
v -0.231046 -0.026517 0.311454
v -0.214575 0.026517 0.372925
v -0.257112 0.037500 0.351380
v -0.231046 0.026517 0.311454
v -0.131764 0.053033 0.350736
v -0.140000 0.075000 0.320000
v -0.148236 0.053033 0.289264
v -0.151647 0.000000 0.276533
v -0.128353 0.000000 0.363467
v -0.048954 0.026516 0.328546
v -0.022888 0.037500 0.288620
v -0.065425 0.026516 0.267075
v -0.048954 -0.026517 0.328546
v -0.022888 -0.037500 0.288620
v -0.065425 -0.026517 0.267075
v 0.053033 -0.131764 0.350736
v 0.075000 -0.140000 0.320000
v 0.053033 -0.148236 0.289264
v 0.026517 -0.214575 0.372925
v 0.037500 -0.257112 0.351380
v 0.026517 -0.231046 0.311454
v -0.026517 -0.214575 0.372925
v -0.037500 -0.257112 0.351380
v -0.026517 -0.231046 0.311454
v -0.053033 -0.131764 0.350736
v -0.075000 -0.140000 0.320000
v -0.053033 -0.148236 0.289264
v 0.000000 -0.151647 0.276533
v -0.000000 -0.128353 0.363467
v -0.026516 -0.048954 0.328546
v -0.037500 -0.022888 0.288620
v -0.026516 -0.065425 0.267075
v 0.026517 -0.048954 0.328546
v 0.037500 -0.022888 0.288620
v 0.026517 -0.065425 0.267075
v 0.131764 0.053033 0.350736
v 0.140000 0.075000 0.320000
v 0.148236 0.053033 0.289264
v 0.214575 0.026517 0.372925
v 0.257112 0.037500 0.351380
v 0.231046 0.026517 0.311454
v 0.214575 -0.026517 0.372925
v 0.257112 -0.037500 0.351380
v 0.231046 -0.026517 0.311454
v 0.131764 -0.053033 0.350736
v 0.140000 -0.075000 0.320000
v 0.148236 -0.053033 0.289264
v 0.151647 0.000000 0.276533
v 0.128353 -0.000000 0.363467
v 0.048954 -0.026517 0.328546
v 0.022888 -0.037500 0.288620
v 0.065425 -0.026517 0.267075
v 0.048954 0.026517 0.328546
v 0.022888 0.037500 0.288620
v 0.065425 0.026517 0.267075
v -0.053033 0.131764 0.350736
v -0.075000 0.140000 0.320000
v -0.053033 0.148236 0.289264
v -0.026517 0.214575 0.372925
v -0.037500 0.257112 0.351380
v -0.026517 0.231046 0.311454
v 0.026517 0.214575 0.372925
v 0.037500 0.257112 0.351380
v 0.026517 0.231046 0.311454
v 0.053033 0.131764 0.350736
v 0.075000 0.140000 0.320000
v 0.053033 0.148236 0.289264
v -0.000000 0.151647 0.276533
v 0.000000 0.128353 0.363467
v 0.026516 0.048954 0.328546
v 0.037500 0.022888 0.288620
v 0.026516 0.065425 0.267075
v -0.026517 0.048954 0.328546
v -0.037500 0.022888 0.288620
v -0.026517 0.065425 0.267075
v -0.131764 -0.053033 0.480736
v -0.140000 -0.075000 0.450000
v -0.148236 -0.053033 0.419264
v -0.214575 -0.026517 0.502925
v -0.257112 -0.037500 0.481380
v -0.231046 -0.026517 0.441454
v -0.214575 0.026517 0.502925
v -0.257112 0.037500 0.481380
v -0.231046 0.026517 0.441454
v -0.131764 0.053033 0.480736
v -0.140000 0.075000 0.450000
v -0.148236 0.053033 0.419264
v -0.151647 0.000000 0.406533
v -0.128353 0.000000 0.493467
v -0.048954 0.026516 0.458546
v -0.022888 0.037500 0.418620
v -0.065425 0.026516 0.397075
v -0.048954 -0.026517 0.458546
v -0.022888 -0.037500 0.418620
v -0.065425 -0.026517 0.397075
v 0.053033 -0.131764 0.480736
v 0.075000 -0.140000 0.450000
v 0.053033 -0.148236 0.419264
v 0.026517 -0.214575 0.502925
v 0.037500 -0.257112 0.481380
v 0.026517 -0.231046 0.441454
v -0.026517 -0.214575 0.502925
v -0.037500 -0.257112 0.481380
v -0.026517 -0.231046 0.441454
v -0.053033 -0.131764 0.480736
v -0.075000 -0.140000 0.450000
v -0.053033 -0.148236 0.419264
v 0.000000 -0.151647 0.406533
v -0.000000 -0.128353 0.493467
v -0.026516 -0.048954 0.458546
v -0.037500 -0.022888 0.418620
v -0.026516 -0.065425 0.397075
v 0.026517 -0.048954 0.458546
v 0.037500 -0.022888 0.418620
v 0.026517 -0.065425 0.397075
v 0.131764 0.053033 0.480736
v 0.140000 0.075000 0.450000
v 0.148236 0.053033 0.419264
v 0.214575 0.026517 0.502925
v 0.257112 0.037500 0.481380
v 0.231046 0.026517 0.441454
v 0.214575 -0.026517 0.502925
v 0.257112 -0.037500 0.481380
v 0.231046 -0.026517 0.441454
v 0.131764 -0.053033 0.480736
v 0.140000 -0.075000 0.450000
v 0.148236 -0.053033 0.419264
v 0.151647 0.000000 0.406533
v 0.128353 -0.000000 0.493467
v 0.048954 -0.026517 0.458546
v 0.022888 -0.037500 0.418620
v 0.065425 -0.026517 0.397075
v 0.048954 0.026517 0.458546
v 0.022888 0.037500 0.418620
v 0.065425 0.026517 0.397075
v -0.053033 0.131764 0.480736
v -0.075000 0.140000 0.450000
v -0.053033 0.148236 0.419264
v -0.026517 0.214575 0.502925
v -0.037500 0.257112 0.481380
v -0.026517 0.231046 0.441454
v 0.026517 0.214575 0.502925
v 0.037500 0.257112 0.481380
v 0.026517 0.231046 0.441454
v 0.053033 0.131764 0.480736
v 0.075000 0.140000 0.450000
v 0.053033 0.148236 0.419264
v -0.000000 0.151647 0.406533
v 0.000000 0.128353 0.493467
v 0.026516 0.048954 0.458546
v 0.037500 0.022888 0.418620
v 0.026516 0.065425 0.397075
v -0.026517 0.048954 0.458546
v -0.037500 0.022888 0.418620
v -0.026517 0.065425 0.397075
v -0.131764 -0.053033 0.580736
v -0.140000 -0.075000 0.550000
v -0.148236 -0.053033 0.519264
v -0.214575 -0.026517 0.602925
v -0.257112 -0.037500 0.581380
v -0.231046 -0.026517 0.541454
v -0.214575 0.026517 0.602925
v -0.257112 0.037500 0.581380
v -0.231046 0.026517 0.541454
v -0.131764 0.053033 0.580736
v -0.140000 0.075000 0.550000
v -0.148236 0.053033 0.519264
v -0.151647 0.000000 0.506533
v -0.128353 0.000000 0.593467
v -0.048954 0.026516 0.558546
v -0.022888 0.037500 0.518620
v -0.065425 0.026516 0.497075
v -0.048954 -0.026517 0.558546
v -0.022888 -0.037500 0.518620
v -0.065425 -0.026517 0.497075
v 0.053033 -0.131764 0.580736
v 0.075000 -0.140000 0.550000
v 0.053033 -0.148236 0.519264
v 0.026517 -0.214575 0.602925
v 0.037500 -0.257112 0.581380
v 0.026517 -0.231046 0.541454
v -0.026517 -0.214575 0.602925
v -0.037500 -0.257112 0.581380
v -0.026517 -0.231046 0.541454
v -0.053033 -0.131764 0.580736
v -0.075000 -0.140000 0.550000
v -0.053033 -0.148236 0.519264
v 0.000000 -0.151647 0.506533
v -0.000000 -0.128353 0.593467
v -0.026516 -0.048954 0.558546
v -0.037500 -0.022888 0.518620
v -0.026516 -0.065425 0.497075
v 0.026517 -0.048954 0.558546
v 0.037500 -0.022888 0.518620
v 0.026517 -0.065425 0.497075
v 0.131764 0.053033 0.580736
v 0.140000 0.075000 0.550000
v 0.148236 0.053033 0.519264
v 0.214575 0.026517 0.602925
v 0.257112 0.037500 0.581380
v 0.231046 0.026517 0.541454
v 0.214575 -0.026517 0.602925
v 0.257112 -0.037500 0.581380
v 0.231046 -0.026517 0.541454
v 0.131764 -0.053033 0.580736
v 0.140000 -0.075000 0.550000
v 0.148236 -0.053033 0.519264
v 0.151647 0.000000 0.506533
v 0.128353 -0.000000 0.593467
v 0.048954 -0.026517 0.558546
v 0.022888 -0.037500 0.518620
v 0.065425 -0.026517 0.497075
v 0.048954 0.026517 0.558546
v 0.022888 0.037500 0.518620
v 0.065425 0.026517 0.497075
v -0.053033 0.131764 0.580736
v -0.075000 0.140000 0.550000
v -0.053033 0.148236 0.519264
v -0.026517 0.214575 0.602925
v -0.037500 0.257112 0.581380
v -0.026517 0.231046 0.541454
v 0.026517 0.214575 0.602925
v 0.037500 0.257112 0.581380
v 0.026517 0.231046 0.541454
v 0.053033 0.131764 0.580736
v 0.075000 0.140000 0.550000
v 0.053033 0.148236 0.519264
v -0.000000 0.151647 0.506533
v 0.000000 0.128353 0.593467
v 0.026516 0.048954 0.558546
v 0.037500 0.022888 0.518620
v 0.026516 0.065425 0.497075
v -0.026517 0.048954 0.558546
v -0.037500 0.022888 0.518620
v -0.026517 0.065425 0.497075
v -0.100000 -0.102426 0.322426
v -0.100000 -0.120000 0.280000
v -0.100000 -0.102426 0.237574
v -0.136742 -0.081213 0.322426
v -0.151962 -0.090000 0.280000
v -0.136742 -0.081213 0.237574
v -0.136742 -0.038787 0.322426
v -0.151962 -0.030000 0.280000
v -0.136742 -0.038787 0.237574
v -0.100000 -0.017574 0.322426
v -0.100000 0.000000 0.280000
v -0.100000 -0.017574 0.237574
v -0.100000 -0.060000 0.220000
v -0.100000 -0.060000 0.340000
v -0.063258 -0.038787 0.322426
v -0.048038 -0.030000 0.280000
v -0.063258 -0.038787 0.237574
v -0.063258 -0.081213 0.322426
v -0.048038 -0.090000 0.280000
v -0.063258 -0.081213 0.237574
v 0.090000 -0.092426 0.402426
v 0.090000 -0.110000 0.360000
v 0.090000 -0.092426 0.317574
v 0.053258 -0.071213 0.402426
v 0.038038 -0.080000 0.360000
v 0.053258 -0.071213 0.317574
v 0.053258 -0.028787 0.402426
v 0.038038 -0.020000 0.360000
v 0.053258 -0.028787 0.317574
v 0.090000 -0.007574 0.402426
v 0.090000 0.010000 0.360000
v 0.090000 -0.007574 0.317574
v 0.090000 -0.050000 0.300000
v 0.090000 -0.050000 0.420000
v 0.126742 -0.028787 0.402426
v 0.141962 -0.020000 0.360000
v 0.126742 -0.028787 0.317574
v 0.126742 -0.071213 0.402426
v 0.141962 -0.080000 0.360000
v 0.126742 -0.071213 0.317574
v -0.080000 0.027574 0.462426
v -0.080000 0.010000 0.420000
v -0.080000 0.027574 0.377574
v -0.116742 0.048787 0.462426
v -0.131962 0.040000 0.420000
v -0.116742 0.048787 0.377574
v -0.116742 0.091213 0.462426
v -0.131962 0.100000 0.420000
v -0.116742 0.091213 0.377574
v -0.080000 0.112426 0.462426
v -0.080000 0.130000 0.420000
v -0.080000 0.112426 0.377574
v -0.080000 0.070000 0.360000
v -0.080000 0.070000 0.480000
v -0.043258 0.091213 0.462426
v -0.028038 0.100000 0.420000
v -0.043258 0.091213 0.377574
v -0.043258 0.048787 0.462426
v -0.028038 0.040000 0.420000
v -0.043258 0.048787 0.377574
v 0.070000 0.017574 0.542426
v 0.070000 0.000000 0.500000
v 0.070000 0.017574 0.457574
v 0.033258 0.038787 0.542426
v 0.018038 0.030000 0.500000
v 0.033258 0.038787 0.457574
v 0.033258 0.081213 0.542426
v 0.018038 0.090000 0.500000
v 0.033258 0.081213 0.457574
v 0.070000 0.102426 0.542426
v 0.070000 0.120000 0.500000
v 0.070000 0.102426 0.457574
v 0.070000 0.060000 0.440000
v 0.070000 0.060000 0.560000
v 0.106742 0.081213 0.542426
v 0.121962 0.090000 0.500000
v 0.106742 0.081213 0.457574
v 0.106742 0.038787 0.542426
v 0.121962 0.030000 0.500000
v 0.106742 0.038787 0.457574
vn -0.2588 -0.9659 -0.0000
vn -0.7071 -0.7071 -0.0000
vn -0.9659 -0.2588 -0.0000
vn -0.9659 0.2588 -0.0000
vn -0.7071 0.7071 -0.0000
vn -0.2588 0.9659 -0.0000
vn 0.2588 0.9659 -0.0000
vn 0.7071 0.7071 -0.0000
vn 0.9659 0.2588 -0.0000
vn 0.9659 -0.2588 -0.0000
vn -0.0000 -0.0000 1.0000
vn 0.7071 -0.7071 -0.0000
vn 0.2588 -0.9659 -0.0000
vn -0.0000 -0.0000 -1.0000
vn -0.5000 -0.8660 -0.0000
vn -1.0000 -0.0000 -0.0000
vn -0.5000 0.8660 -0.0000
vn 0.5000 0.8660 -0.0000
vn 1.0000 -0.0000 -0.0000
vn 0.5000 -0.8660 -0.0000
vn -0.3808 -0.7975 -0.4680
vn 0.1786 -0.2405 0.9541
vn -0.3223 -0.2405 -0.9156
vn -0.0958 -0.7975 0.5957
vn 0.1090 -0.0000 0.9940
vn -0.4026 -0.0000 -0.9154
vn -0.4518 -0.0000 0.8921
vn -0.8374 -0.0000 -0.5467
vn -0.3808 0.7975 -0.4680
vn 0.1786 0.2405 0.9541
vn -0.3223 0.2405 -0.9156
vn -0.0958 0.7975 0.5957
vn 0.0958 0.7975 -0.5957
vn 0.3223 0.2405 0.9156
vn -0.1786 0.2405 -0.9541
vn 0.3808 0.7975 0.4680
vn 0.4518 -0.0000 -0.8921
vn 0.4026 -0.0000 0.9154
vn -0.1090 -0.0000 -0.9940
vn 0.8374 -0.0000 0.5467
vn 0.0958 -0.7975 -0.5957
vn 0.3223 -0.2405 0.9156
vn -0.1786 -0.2405 -0.9541
vn 0.3808 -0.7975 0.4680
vn 0.7975 -0.3808 -0.4680
vn 0.2405 0.1786 0.9541
vn 0.2405 -0.3223 -0.9156
vn 0.7975 -0.0958 0.5957
vn -0.0000 -0.8374 -0.5467
vn -0.0000 0.1090 0.9940
vn -0.0000 -0.4026 -0.9154
vn -0.0000 -0.4518 0.8921
vn -0.7975 -0.3808 -0.4680
vn -0.2405 0.1786 0.9541
vn -0.2405 -0.3223 -0.9156
vn -0.7975 -0.0958 0.5957
vn -0.7975 0.0958 -0.5957
vn -0.2405 0.3223 0.9156
vn -0.2405 -0.1786 -0.9541
vn -0.7975 0.3808 0.4680
vn -0.0000 0.4518 -0.8921
vn -0.0000 0.4026 0.9154
vn -0.0000 -0.1090 -0.9940
vn -0.0000 0.8374 0.5467
vn 0.7975 0.3808 0.4680
vn 0.7975 0.0958 -0.5957
vn 0.2405 0.3223 0.9156
vn 0.2405 -0.1786 -0.9541
vn 0.3808 0.7975 -0.4680
vn -0.1786 0.2405 0.9541
vn 0.3223 0.2405 -0.9156
vn 0.0958 0.7975 0.5957
vn 0.8374 -0.0000 -0.5467
vn -0.1090 -0.0000 0.9940
vn 0.4026 -0.0000 -0.9154
vn 0.4518 -0.0000 0.8921
vn 0.3808 -0.7975 -0.4680
vn -0.1786 -0.2405 0.9541
vn 0.3223 -0.2405 -0.9156
vn 0.0958 -0.7975 0.5957
vn -0.0958 -0.7975 -0.5957
vn -0.3223 -0.2405 0.9156
vn 0.1786 -0.2405 -0.9541
vn -0.3808 -0.7975 0.4680
vn -0.4518 -0.0000 -0.8921
vn -0.4026 -0.0000 0.9154
vn 0.1090 -0.0000 -0.9940
vn -0.8374 -0.0000 0.5467
vn -0.3808 0.7975 0.4680
vn -0.0958 0.7975 -0.5957
vn -0.3223 0.2405 0.9156
vn 0.1786 0.2405 -0.9541
vn -0.2405 0.3223 -0.9156
vn -0.7975 0.0958 0.5957
vn -0.7975 0.3808 -0.4680
vn -0.2405 -0.1786 0.9541
vn -0.0000 0.8374 -0.5467
vn -0.0000 -0.1090 0.9940
vn -0.0000 0.4026 -0.9154
vn -0.0000 0.4518 0.8921
vn 0.7975 0.0958 0.5957
vn 0.7975 0.3808 -0.4680
vn 0.2405 -0.1786 0.9541
vn 0.2405 0.3223 -0.9156
vn 0.2405 0.1786 -0.9541
vn 0.7975 -0.3808 0.4680
vn 0.7975 -0.0958 -0.5957
vn 0.2405 -0.3223 0.9156
vn -0.0000 0.1090 -0.9940
vn -0.0000 -0.8374 0.5467
vn -0.0000 -0.4518 -0.8921
vn -0.0000 -0.4026 0.9154
vn -0.2405 0.1786 -0.9541
vn -0.7975 -0.3808 0.4680
vn -0.7975 -0.0958 -0.5957
vn -0.2405 -0.3223 0.9156
vn 0.7975 -0.0958 0.5956
vn -0.7975 0.0958 0.5956
vn -0.2157 -0.3737 -0.9021
vn -0.4706 -0.8152 0.3377
vn -0.4706 -0.8152 -0.3377
vn -0.2157 -0.3737 0.9021
vn -0.9413 -0.0000 0.3377
vn -0.9413 -0.0000 -0.3377
vn -0.4315 -0.0000 0.9021
vn -0.4315 -0.0000 -0.9021
vn -0.2157 0.3737 -0.9021
vn -0.4706 0.8152 0.3377
vn -0.4706 0.8152 -0.3377
vn -0.2157 0.3737 0.9021
vn 0.2157 0.3737 -0.9021
vn 0.4706 0.8152 0.3377
vn 0.4706 0.8152 -0.3377
vn 0.2157 0.3737 0.9021
vn 0.4315 -0.0000 -0.9021
vn 0.9413 -0.0000 0.3377
vn 0.9413 -0.0000 -0.3377
vn 0.4315 -0.0000 0.9021
vn 0.2157 -0.3737 -0.9021
vn 0.4706 -0.8152 0.3377
vn 0.4706 -0.8152 -0.3377
vn 0.2157 -0.3737 0.9021
vt 1.000000 0.500000
vt 1.000000 1.000000
vt 0.916667 1.000000
vt 0.916667 0.500000
vt 0.833333 1.000000
vt 0.833333 0.500000
vt 0.750000 1.000000
vt 0.750000 0.500000
vt 0.666667 1.000000
vt 0.666667 0.500000
vt 0.583333 1.000000
vt 0.583333 0.500000
vt 0.500000 1.000000
vt 0.500000 0.500000
vt 0.416667 1.000000
vt 0.416667 0.500000
vt 0.333333 1.000000
vt 0.333333 0.500000
vt 0.250000 1.000000
vt 0.250000 0.500000
vt 0.166667 1.000000
vt 0.166667 0.500000
vt 0.370000 0.457846
vt 0.250000 0.490000
vt 0.130000 0.457846
vt 0.042154 0.370000
vt 0.010000 0.250000
vt 0.042154 0.130000
vt 0.130000 0.042154
vt 0.250000 0.010000
vt 0.370000 0.042154
vt 0.457846 0.130000
vt 0.490000 0.250000
vt 0.457846 0.370000
vt 0.083333 1.000000
vt 0.083333 0.500000
vt 0.000000 1.000000
vt 0.000000 0.500000
vt 0.750000 0.490000
vt 0.870000 0.457846
vt 0.957846 0.370000
vt 0.990000 0.250000
vt 0.957846 0.130000
vt 0.870000 0.042154
vt 0.750000 0.010000
vt 0.630000 0.042154
vt 0.542154 0.130000
vt 0.510000 0.250000
vt 0.542154 0.370000
vt 0.630000 0.457846
vt 0.833333 1.000000
vt 0.833333 0.500000
vt 0.666667 1.000000
vt 0.666667 0.500000
vt 0.500000 1.000000
vt 0.500000 0.500000
vt 0.333333 1.000000
vt 0.333333 0.500000
vt 0.457846 0.370000
vt 0.042154 0.370000
vt 0.042154 0.130000
vt 0.457846 0.130000
vt 0.166667 1.000000
vt 0.166667 0.500000
vt -0.000000 1.000000
vt -0.000000 0.500000
vt 0.957846 0.370000
vt 0.957846 0.130000
vt 0.542154 0.130000
vt 0.542154 0.370000
vt 0.666667 0.250000
vt 0.666667 0.500000
vt 0.500000 0.500000
vt 0.500000 0.250000
vt 0.666667 0.750000
vt 0.583333 1.000000
vt 0.500000 0.750000
vt 0.583333 0.000000
vt 0.416667 1.000000
vt 0.333333 0.750000
vt 0.416667 0.000000
vt 0.333333 0.250000
vt 0.333333 0.500000
vt 0.166667 0.500000
vt 0.166667 0.250000
vt 0.250000 1.000000
vt 0.166667 0.750000
vt 0.250000 0.000000
vt 0.000000 0.500000
vt 0.000000 0.250000
vt 0.083333 1.000000
vt 0.000000 0.750000
vt 0.083333 0.000000
vt 1.000000 0.250000
vt 1.000000 0.500000
vt 0.833333 0.250000
vt 1.000000 0.750000
vt 0.833333 0.750000
vt 0.916667 0.000000
vt 0.750000 1.000000
vt 0.750000 0.000000
vt 0.583333 0.000000
vt 0.583333 1.000000
vt 0.083333 0.000000
vt 0.083333 1.000000
s 0
usemtl Soil
f 1/1/1 2/2/1 4/3/1 3/4/1
f 3/4/2 4/3/2 6/5/2 5/6/2
f 5/6/3 6/5/3 8/7/3 7/8/3
f 7/8/4 8/7/4 10/9/4 9/10/4
f 9/10/5 10/9/5 12/11/5 11/12/5
f 11/12/6 12/11/6 14/13/6 13/14/6
f 13/14/7 14/13/7 16/15/7 15/16/7
f 15/16/8 16/15/8 18/17/8 17/18/8
f 17/18/9 18/17/9 20/19/9 19/20/9
f 19/20/10 20/19/10 22/21/10 21/22/10
f 4/23/11 2/24/11 24/25/11 22/26/11 20/27/11 18/28/11 16/29/11 14/30/11 12/31/11 10/32/11 8/33/11 6/34/11
f 21/22/12 22/21/12 24/35/12 23/36/12
f 23/36/13 24/35/13 2/37/13 1/38/13
f 1/39/14 3/40/14 5/41/14 7/42/14 9/43/14 11/44/14 13/45/14 15/46/14 17/47/14 19/48/14 21/49/14 23/50/14
usemtl Stem
f 25/1/15 26/2/15 28/51/15 27/52/15
f 27/52/16 28/51/16 30/53/16 29/54/16
f 29/54/17 30/53/17 32/55/17 31/56/17
f 31/56/18 32/55/18 34/57/18 33/58/18
f 28/59/11 26/24/11 36/60/11 34/61/11 32/30/11 30/62/11
f 33/58/19 34/57/19 36/63/19 35/64/19
f 35/64/20 36/63/20 26/65/20 25/66/20
f 25/39/14 27/67/14 29/68/14 31/45/14 33/69/14 35/70/14
usemtl Leaf
f 39/71/21 38/72/21 41/73/21 42/74/21
f 37/75/22 50/76/22 40/77/22
f 49/78/23 39/71/23 42/74/23
f 38/72/24 37/75/24 40/77/24 41/73/24
f 40/77/25 50/79/25 43/80/25
f 49/81/26 42/74/26 45/82/26
f 41/73/27 40/77/27 43/80/27 44/83/27
f 42/74/28 41/73/28 44/83/28 45/82/28
f 45/82/29 44/83/29 47/84/29 48/85/29
f 43/80/30 50/86/30 46/87/30
f 49/88/31 45/82/31 48/85/31
f 44/83/32 43/80/32 46/87/32 47/84/32
f 48/85/33 47/84/33 52/89/33 53/90/33
f 46/87/34 50/91/34 51/92/34
f 49/93/35 48/85/35 53/90/35
f 47/84/36 46/87/36 51/92/36 52/89/36
f 53/94/37 52/95/37 55/52/37 56/96/37
f 51/97/38 50/3/38 54/98/38
f 49/99/39 53/94/39 56/96/39
f 52/95/40 51/97/40 54/98/40 55/52/40
f 56/96/41 55/52/41 38/72/41 39/71/41
f 54/98/42 50/100/42 37/75/42
f 49/101/43 56/96/43 39/71/43
f 55/52/44 54/98/44 37/75/44 38/72/44
f 79/71/69 78/72/69 81/73/69 82/74/69
f 77/75/70 90/76/70 80/77/70
f 89/78/71 79/71/71 82/74/71
f 78/72/72 77/75/72 80/77/72 81/73/72
f 82/74/73 81/73/73 84/83/73 85/82/73
f 80/77/74 90/79/74 83/80/74
f 89/81/75 82/74/75 85/82/75
f 81/73/76 80/77/76 83/80/76 84/83/76
f 85/82/77 84/83/77 87/84/77 88/85/77
f 83/80/78 90/86/78 86/87/78
f 89/88/79 85/82/79 88/85/79
f 84/83/80 83/80/80 86/87/80 87/84/80
f 88/85/81 87/84/81 92/89/81 93/90/81
f 86/87/82 90/91/82 91/92/82
f 89/93/83 88/85/83 93/90/83
f 87/84/84 86/87/84 91/92/84 92/89/84
f 93/94/85 92/95/85 95/52/85 96/96/85
f 91/97/86 90/3/86 94/98/86
f 89/99/87 93/94/87 96/96/87
f 92/95/88 91/97/88 94/98/88 95/52/88
f 95/52/89 94/98/89 77/75/89 78/72/89
f 96/96/90 95/52/90 78/72/90 79/71/90
f 94/98/91 90/100/91 77/75/91
f 89/101/92 96/96/92 79/71/92
f 138/72/48 137/75/48 140/77/48 141/73/48
f 139/71/45 138/72/45 141/73/45 142/74/45
f 137/75/46 150/76/46 140/77/46
f 149/78/47 139/71/47 142/74/47
f 142/74/49 141/73/49 144/83/49 145/82/49
f 140/77/50 150/79/50 143/80/50
f 149/81/51 142/74/51 145/82/51
f 141/73/52 140/77/52 143/80/52 144/83/52
f 145/82/53 144/83/53 147/84/53 148/85/53
f 143/80/54 150/86/54 146/87/54
f 149/88/55 145/82/55 148/85/55
f 144/83/56 143/80/56 146/87/56 147/84/56
f 147/84/60 146/87/60 151/92/60 152/89/60
f 148/85/57 147/84/57 152/89/57 153/90/57
f 146/87/58 150/91/58 151/92/58
f 149/93/59 148/85/59 153/90/59
f 149/99/63 153/94/63 156/96/63
f 152/95/64 151/97/64 154/98/64 155/52/64
f 153/94/61 152/95/61 155/52/61 156/96/61
f 151/97/62 150/3/62 154/98/62
f 149/101/68 156/96/68 139/71/68
f 155/52/65 154/98/65 137/75/65 138/72/65
f 156/96/66 155/52/66 138/72/66 139/71/66
f 154/98/67 150/100/67 137/75/67
f 189/78/93 179/71/93 182/74/93
f 178/72/94 177/75/94 180/77/94 181/73/94
f 179/71/95 178/72/95 181/73/95 182/74/95
f 177/75/96 190/76/96 180/77/96
f 181/73/100 180/77/100 183/80/100 184/83/100
f 182/74/97 181/73/97 184/83/97 185/82/97
f 180/77/98 190/79/98 183/80/98
f 189/81/99 182/74/99 185/82/99
f 189/88/104 185/82/104 188/85/104
f 184/83/101 183/80/101 186/87/101 187/84/101
f 185/82/102 184/83/102 187/84/102 188/85/102
f 183/80/103 190/86/103 186/87/103
f 189/93/105 188/85/105 193/90/105
f 187/84/106 186/87/106 191/92/106 192/89/106
f 188/85/107 187/84/107 192/89/107 193/90/107
f 186/87/108 190/91/108 191/92/108
f 189/99/109 193/94/109 196/96/109
f 192/95/110 191/97/110 194/98/110 195/52/110
f 193/94/111 192/95/111 195/52/111 196/96/111
f 191/97/112 190/3/112 194/98/112
f 189/101/113 196/96/113 179/71/113
f 195/52/114 194/98/114 177/75/114 178/72/114
f 196/96/115 195/52/115 178/72/115 179/71/115
f 194/98/116 190/100/116 177/75/116
f 199/71/21 198/72/21 201/73/21 202/74/21
f 197/75/22 210/76/22 200/77/22
f 209/78/23 199/71/23 202/74/23
f 198/72/24 197/75/24 200/77/24 201/73/24
f 200/77/25 210/79/25 203/80/25
f 209/81/26 202/74/26 205/82/26
f 201/73/27 200/77/27 203/80/27 204/83/27
f 202/74/28 201/73/28 204/83/28 205/82/28
f 205/82/29 204/83/29 207/84/29 208/85/29
f 203/80/30 210/86/30 206/87/30
f 209/88/31 205/82/31 208/85/31
f 204/83/32 203/80/32 206/87/32 207/84/32
f 208/85/33 207/84/33 212/89/33 213/90/33
f 206/87/34 210/91/34 211/92/34
f 209/93/35 208/85/35 213/90/35
f 207/84/36 206/87/36 211/92/36 212/89/36
f 213/94/37 212/95/37 215/52/37 216/96/37
f 211/97/38 210/3/38 214/98/38
f 209/99/39 213/94/39 216/96/39
f 212/95/40 211/97/40 214/98/40 215/52/40
f 216/96/41 215/52/41 198/72/41 199/71/41
f 214/98/42 210/100/42 197/75/42
f 209/101/43 216/96/43 199/71/43
f 215/52/44 214/98/44 197/75/44 198/72/44
f 249/78/71 239/71/71 242/74/71
f 238/72/72 237/75/72 240/77/72 241/73/72
f 239/71/69 238/72/69 241/73/69 242/74/69
f 237/75/70 250/76/70 240/77/70
f 242/74/73 241/73/73 244/83/73 245/82/73
f 240/77/74 250/79/74 243/80/74
f 249/81/75 242/74/75 245/82/75
f 241/73/76 240/77/76 243/80/76 244/83/76
f 244/83/80 243/80/80 246/87/80 247/84/80
f 245/82/77 244/83/77 247/84/77 248/85/77
f 243/80/78 250/86/78 246/87/78
f 249/88/79 245/82/79 248/85/79
f 249/93/83 248/85/83 253/90/83
f 247/84/84 246/87/84 251/92/84 252/89/84
f 248/85/81 247/84/81 252/89/81 253/90/81
f 246/87/82 250/91/82 251/92/82
f 249/99/87 253/94/87 256/96/87
f 252/95/88 251/97/88 254/98/88 255/52/88
f 253/94/85 252/95/85 255/52/85 256/96/85
f 251/97/86 250/3/86 254/98/86
f 249/101/92 256/96/92 239/71/92
f 255/52/89 254/98/89 237/75/89 238/72/89
f 256/96/90 255/52/90 238/72/90 239/71/90
f 254/98/91 250/100/91 237/75/91
f 299/71/45 298/72/45 301/73/45 302/74/45
f 297/75/46 310/76/46 300/77/46
f 309/78/47 299/71/47 302/74/47
f 298/72/117 297/75/117 300/77/117 301/73/117
f 309/81/51 302/74/51 305/82/51
f 301/73/52 300/77/52 303/80/52 304/83/52
f 302/74/49 301/73/49 304/83/49 305/82/49
f 300/77/50 310/79/50 303/80/50
f 303/80/54 310/86/54 306/87/54
f 309/88/55 305/82/55 308/85/55
f 304/83/56 303/80/56 306/87/56 307/84/56
f 305/82/53 304/83/53 307/84/53 308/85/53
f 308/85/57 307/84/57 312/89/57 313/90/57
f 306/87/58 310/91/58 311/92/58
f 309/93/59 308/85/59 313/90/59
f 307/84/60 306/87/60 311/92/60 312/89/60
f 313/94/61 312/95/61 315/52/61 316/96/61
f 311/97/62 310/3/62 314/98/62
f 309/99/63 313/94/63 316/96/63
f 312/95/64 311/97/64 314/98/64 315/52/64
f 316/96/66 315/52/66 298/72/66 299/71/66
f 314/98/67 310/100/67 297/75/67
f 309/101/68 316/96/68 299/71/68
f 315/52/65 314/98/65 297/75/65 298/72/65
f 339/71/95 338/72/95 341/73/95 342/74/95
f 337/75/96 350/76/96 340/77/96
f 349/78/93 339/71/93 342/74/93
f 338/72/118 337/75/118 340/77/118 341/73/118
f 342/74/97 341/73/97 344/83/97 345/82/97
f 340/77/98 350/79/98 343/80/98
f 349/81/99 342/74/99 345/82/99
f 341/73/100 340/77/100 343/80/100 344/83/100
f 345/82/102 344/83/102 347/84/102 348/85/102
f 343/80/103 350/86/103 346/87/103
f 349/88/104 345/82/104 348/85/104
f 344/83/101 343/80/101 346/87/101 347/84/101
f 348/85/107 347/84/107 352/89/107 353/90/107
f 346/87/108 350/91/108 351/92/108
f 349/93/105 348/85/105 353/90/105
f 347/84/106 346/87/106 351/92/106 352/89/106
f 353/94/111 352/95/111 355/52/111 356/96/111
f 351/97/112 350/3/112 354/98/112
f 349/99/109 353/94/109 356/96/109
f 352/95/110 351/97/110 354/98/110 355/52/110
f 356/96/115 355/52/115 338/72/115 339/71/115
f 354/98/116 350/100/116 337/75/116
f 349/101/113 356/96/113 339/71/113
f 355/52/114 354/98/114 337/75/114 338/72/114
usemtl LeafDark
f 59/71/45 58/72/45 61/73/45 62/74/45
f 57/75/46 70/76/46 60/77/46
f 69/78/47 59/71/47 62/74/47
f 58/72/48 57/75/48 60/77/48 61/73/48
f 62/74/49 61/73/49 64/83/49 65/82/49
f 60/77/50 70/79/50 63/80/50
f 69/81/51 62/74/51 65/82/51
f 61/73/52 60/77/52 63/80/52 64/83/52
f 65/82/53 64/83/53 67/84/53 68/85/53
f 63/80/54 70/86/54 66/87/54
f 69/88/55 65/82/55 68/85/55
f 64/83/56 63/80/56 66/87/56 67/84/56
f 68/85/57 67/84/57 72/89/57 73/90/57
f 66/87/58 70/91/58 71/92/58
f 69/93/59 68/85/59 73/90/59
f 67/84/60 66/87/60 71/92/60 72/89/60
f 73/94/61 72/95/61 75/52/61 76/96/61
f 71/97/62 70/3/62 74/98/62
f 69/99/63 73/94/63 76/96/63
f 72/95/64 71/97/64 74/98/64 75/52/64
f 75/52/65 74/98/65 57/75/65 58/72/65
f 76/96/66 75/52/66 58/72/66 59/71/66
f 74/98/67 70/100/67 57/75/67
f 69/101/68 76/96/68 59/71/68
f 109/78/93 99/71/93 102/74/93
f 98/72/94 97/75/94 100/77/94 101/73/94
f 99/71/95 98/72/95 101/73/95 102/74/95
f 97/75/96 110/76/96 100/77/96
f 102/74/97 101/73/97 104/83/97 105/82/97
f 100/77/98 110/79/98 103/80/98
f 109/81/99 102/74/99 105/82/99
f 101/73/100 100/77/100 103/80/100 104/83/100
f 104/83/101 103/80/101 106/87/101 107/84/101
f 105/82/102 104/83/102 107/84/102 108/85/102
f 103/80/103 110/86/103 106/87/103
f 109/88/104 105/82/104 108/85/104
f 109/93/105 108/85/105 113/90/105
f 107/84/106 106/87/106 111/92/106 112/89/106
f 108/85/107 107/84/107 112/89/107 113/90/107
f 106/87/108 110/91/108 111/92/108
f 109/99/109 113/94/109 116/96/109
f 112/95/110 111/97/110 114/98/110 115/52/110
f 113/94/111 112/95/111 115/52/111 116/96/111
f 111/97/112 110/3/112 114/98/112
f 109/101/113 116/96/113 99/71/113
f 115/52/114 114/98/114 97/75/114 98/72/114
f 116/96/115 115/52/115 98/72/115 99/71/115
f 114/98/116 110/100/116 97/75/116
f 118/72/24 117/75/24 120/77/24 121/73/24
f 119/71/21 118/72/21 121/73/21 122/74/21
f 117/75/22 130/76/22 120/77/22
f 129/78/23 119/71/23 122/74/23
f 122/74/28 121/73/28 124/83/28 125/82/28
f 120/77/25 130/79/25 123/80/25
f 129/81/26 122/74/26 125/82/26
f 121/73/27 120/77/27 123/80/27 124/83/27
f 125/82/29 124/83/29 127/84/29 128/85/29
f 123/80/30 130/86/30 126/87/30
f 129/88/31 125/82/31 128/85/31
f 124/83/32 123/80/32 126/87/32 127/84/32
f 127/84/36 126/87/36 131/92/36 132/89/36
f 128/85/33 127/84/33 132/89/33 133/90/33
f 126/87/34 130/91/34 131/92/34
f 129/93/35 128/85/35 133/90/35
f 129/99/39 133/94/39 136/96/39
f 132/95/40 131/97/40 134/98/40 135/52/40
f 133/94/37 132/95/37 135/52/37 136/96/37
f 131/97/38 130/3/38 134/98/38
f 129/101/43 136/96/43 119/71/43
f 135/52/44 134/98/44 117/75/44 118/72/44
f 136/96/41 135/52/41 118/72/41 119/71/41
f 134/98/42 130/100/42 117/75/42
f 157/75/70 170/76/70 160/77/70
f 169/78/71 159/71/71 162/74/71
f 158/72/72 157/75/72 160/77/72 161/73/72
f 159/71/69 158/72/69 161/73/69 162/74/69
f 169/81/75 162/74/75 165/82/75
f 161/73/76 160/77/76 163/80/76 164/83/76
f 162/74/73 161/73/73 164/83/73 165/82/73
f 160/77/74 170/79/74 163/80/74
f 169/88/79 165/82/79 168/85/79
f 164/83/80 163/80/80 166/87/80 167/84/80
f 165/82/77 164/83/77 167/84/77 168/85/77
f 163/80/78 170/86/78 166/87/78
f 166/87/82 170/91/82 171/92/82
f 169/93/83 168/85/83 173/90/83
f 167/84/84 166/87/84 171/92/84 172/89/84
f 168/85/81 167/84/81 172/89/81 173/90/81
f 173/94/85 172/95/85 175/52/85 176/96/85
f 171/97/86 170/3/86 174/98/86
f 169/99/87 173/94/87 176/96/87
f 172/95/88 171/97/88 174/98/88 175/52/88
f 176/96/90 175/52/90 158/72/90 159/71/90
f 174/98/91 170/100/91 157/75/91
f 169/101/92 176/96/92 159/71/92
f 175/52/89 174/98/89 157/75/89 158/72/89
f 219/71/45 218/72/45 221/73/45 222/74/45
f 217/75/46 230/76/46 220/77/46
f 229/78/47 219/71/47 222/74/47
f 218/72/48 217/75/48 220/77/48 221/73/48
f 222/74/49 221/73/49 224/83/49 225/82/49
f 220/77/50 230/79/50 223/80/50
f 229/81/51 222/74/51 225/82/51
f 221/73/52 220/77/52 223/80/52 224/83/52
f 225/82/53 224/83/53 227/84/53 228/85/53
f 223/80/54 230/86/54 226/87/54
f 229/88/55 225/82/55 228/85/55
f 224/83/56 223/80/56 226/87/56 227/84/56
f 228/85/57 227/84/57 232/89/57 233/90/57
f 226/87/58 230/91/58 231/92/58
f 229/93/59 228/85/59 233/90/59
f 227/84/60 226/87/60 231/92/60 232/89/60
f 233/94/61 232/95/61 235/52/61 236/96/61
f 231/97/62 230/3/62 234/98/62
f 229/99/63 233/94/63 236/96/63
f 232/95/64 231/97/64 234/98/64 235/52/64
f 236/96/66 235/52/66 218/72/66 219/71/66
f 234/98/67 230/100/67 217/75/67
f 229/101/68 236/96/68 219/71/68
f 235/52/65 234/98/65 217/75/65 218/72/65
f 259/71/95 258/72/95 261/73/95 262/74/95
f 257/75/96 270/76/96 260/77/96
f 269/78/93 259/71/93 262/74/93
f 258/72/94 257/75/94 260/77/94 261/73/94
f 262/74/97 261/73/97 264/83/97 265/82/97
f 260/77/98 270/79/98 263/80/98
f 269/81/99 262/74/99 265/82/99
f 261/73/100 260/77/100 263/80/100 264/83/100
f 265/82/102 264/83/102 267/84/102 268/85/102
f 263/80/103 270/86/103 266/87/103
f 269/88/104 265/82/104 268/85/104
f 264/83/101 263/80/101 266/87/101 267/84/101
f 268/85/107 267/84/107 272/89/107 273/90/107
f 266/87/108 270/91/108 271/92/108
f 269/93/105 268/85/105 273/90/105
f 267/84/106 266/87/106 271/92/106 272/89/106
f 272/95/110 271/97/110 274/98/110 275/52/110
f 273/94/111 272/95/111 275/52/111 276/96/111
f 271/97/112 270/3/112 274/98/112
f 269/99/109 273/94/109 276/96/109
f 269/101/113 276/96/113 259/71/113
f 275/52/114 274/98/114 257/75/114 258/72/114
f 276/96/115 275/52/115 258/72/115 259/71/115
f 274/98/116 270/100/116 257/75/116
f 279/71/21 278/72/21 281/73/21 282/74/21
f 277/75/22 290/76/22 280/77/22
f 289/78/23 279/71/23 282/74/23
f 278/72/24 277/75/24 280/77/24 281/73/24
f 282/74/28 281/73/28 284/83/28 285/82/28
f 280/77/25 290/79/25 283/80/25
f 289/81/26 282/74/26 285/82/26
f 281/73/27 280/77/27 283/80/27 284/83/27
f 285/82/29 284/83/29 287/84/29 288/85/29
f 283/80/30 290/86/30 286/87/30
f 289/88/31 285/82/31 288/85/31
f 284/83/32 283/80/32 286/87/32 287/84/32
f 288/85/33 287/84/33 292/89/33 293/90/33
f 286/87/34 290/91/34 291/92/34
f 289/93/35 288/85/35 293/90/35
f 287/84/36 286/87/36 291/92/36 292/89/36
f 292/95/40 291/97/40 294/98/40 295/52/40
f 293/94/37 292/95/37 295/52/37 296/96/37
f 291/97/38 290/3/38 294/98/38
f 289/99/39 293/94/39 296/96/39
f 289/101/43 296/96/43 279/71/43
f 295/52/44 294/98/44 277/75/44 278/72/44
f 296/96/41 295/52/41 278/72/41 279/71/41
f 294/98/42 290/100/42 277/75/42
f 319/71/69 318/72/69 321/73/69 322/74/69
f 317/75/70 330/76/70 320/77/70
f 329/78/71 319/71/71 322/74/71
f 318/72/72 317/75/72 320/77/72 321/73/72
f 329/81/75 322/74/75 325/82/75
f 321/73/76 320/77/76 323/80/76 324/83/76
f 322/74/73 321/73/73 324/83/73 325/82/73
f 320/77/74 330/79/74 323/80/74
f 323/80/78 330/86/78 326/87/78
f 329/88/79 325/82/79 328/85/79
f 324/83/80 323/80/80 326/87/80 327/84/80
f 325/82/77 324/83/77 327/84/77 328/85/77
f 328/85/81 327/84/81 332/89/81 333/90/81
f 326/87/82 330/91/82 331/92/82
f 329/93/83 328/85/83 333/90/83
f 327/84/84 326/87/84 331/92/84 332/89/84
f 333/94/85 332/95/85 335/52/85 336/96/85
f 331/97/86 330/3/86 334/98/86
f 329/99/87 333/94/87 336/96/87
f 332/95/88 331/97/88 334/98/88 335/52/88
f 336/96/90 335/52/90 318/72/90 319/71/90
f 334/98/91 330/100/91 317/75/91
f 329/101/92 336/96/92 319/71/92
f 335/52/89 334/98/89 317/75/89 318/72/89
usemtl TomatoGreen
f 369/102/119 359/71/119 362/74/119
f 358/72/120 357/75/120 360/77/120 361/73/120
f 359/71/121 358/72/121 361/73/121 362/74/121
f 357/75/122 370/103/122 360/77/122
f 361/73/123 360/77/123 363/80/123 364/83/123
f 362/74/124 361/73/124 364/83/124 365/82/124
f 360/77/125 370/79/125 363/80/125
f 369/81/126 362/74/126 365/82/126
f 369/88/127 365/82/127 368/85/127
f 364/83/128 363/80/128 366/87/128 367/84/128
f 365/82/129 364/83/129 367/84/129 368/85/129
f 363/80/130 370/86/130 366/87/130
f 369/104/131 368/85/131 373/90/131
f 367/84/132 366/87/132 371/92/132 372/89/132
f 368/85/133 367/84/133 372/89/133 373/90/133
f 366/87/134 370/105/134 371/92/134
f 369/99/135 373/94/135 376/96/135
f 372/95/136 371/97/136 374/98/136 375/52/136
f 373/94/137 372/95/137 375/52/137 376/96/137
f 371/97/138 370/3/138 374/98/138
f 369/101/139 376/96/139 359/71/139
f 375/52/140 374/98/140 357/75/140 358/72/140
f 376/96/141 375/52/141 358/72/141 359/71/141
f 374/98/142 370/100/142 357/75/142
f 389/102/119 379/71/119 382/74/119
f 378/72/120 377/75/120 380/77/120 381/73/120
f 379/71/121 378/72/121 381/73/121 382/74/121
f 377/75/122 390/103/122 380/77/122
f 382/74/124 381/73/124 384/83/124 385/82/124
f 380/77/125 390/79/125 383/80/125
f 389/81/126 382/74/126 385/82/126
f 381/73/123 380/77/123 383/80/123 384/83/123
f 384/83/128 383/80/128 386/87/128 387/84/128
f 385/82/129 384/83/129 387/84/129 388/85/129
f 383/80/130 390/86/130 386/87/130
f 389/88/127 385/82/127 388/85/127
f 389/104/131 388/85/131 393/90/131
f 387/84/132 386/87/132 391/92/132 392/89/132
f 388/85/133 387/84/133 392/89/133 393/90/133
f 386/87/134 390/105/134 391/92/134
f 389/99/135 393/94/135 396/96/135
f 392/95/136 391/97/136 394/98/136 395/52/136
f 393/94/137 392/95/137 395/52/137 396/96/137
f 391/97/138 390/3/138 394/98/138
f 389/101/139 396/96/139 379/71/139
f 395/52/140 394/98/140 377/75/140 378/72/140
f 396/96/141 395/52/141 378/72/141 379/71/141
f 394/98/142 390/100/142 377/75/142
f 409/102/119 399/71/119 402/74/119
f 398/72/120 397/75/120 400/77/120 401/73/120
f 399/71/121 398/72/121 401/73/121 402/74/121
f 397/75/122 410/103/122 400/77/122
f 409/81/126 402/74/126 405/82/126
f 401/73/123 400/77/123 403/80/123 404/83/123
f 402/74/124 401/73/124 404/83/124 405/82/124
f 400/77/125 410/79/125 403/80/125
f 409/88/127 405/82/127 408/85/127
f 404/83/128 403/80/128 406/87/128 407/84/128
f 405/82/129 404/83/129 407/84/129 408/85/129
f 403/80/130 410/86/130 406/87/130
f 409/104/131 408/85/131 413/90/131
f 407/84/132 406/87/132 411/92/132 412/89/132
f 408/85/133 407/84/133 412/89/133 413/90/133
f 406/87/134 410/105/134 411/92/134
f 411/97/138 410/3/138 414/98/138
f 409/99/135 413/94/135 416/96/135
f 412/95/136 411/97/136 414/98/136 415/52/136
f 413/94/137 412/95/137 415/52/137 416/96/137
f 416/96/141 415/52/141 398/72/141 399/71/141
f 414/98/142 410/100/142 397/75/142
f 409/101/139 416/96/139 399/71/139
f 415/52/140 414/98/140 397/75/140 398/72/140
f 419/71/121 418/72/121 421/73/121 422/74/121
f 417/75/122 430/103/122 420/77/122
f 429/102/119 419/71/119 422/74/119
f 418/72/120 417/75/120 420/77/120 421/73/120
f 420/77/125 430/79/125 423/80/125
f 429/81/126 422/74/126 425/82/126
f 421/73/123 420/77/123 423/80/123 424/83/123
f 422/74/124 421/73/124 424/83/124 425/82/124
f 425/82/129 424/83/129 427/84/129 428/85/129
f 423/80/130 430/86/130 426/87/130
f 429/88/127 425/82/127 428/85/127
f 424/83/128 423/80/128 426/87/128 427/84/128
f 428/85/133 427/84/133 432/89/133 433/90/133
f 426/87/134 430/105/134 431/92/134
f 429/104/131 428/85/131 433/90/131
f 427/84/132 426/87/132 431/92/132 432/89/132
f 433/94/137 432/95/137 435/52/137 436/96/137
f 431/97/138 430/3/138 434/98/138
f 429/99/135 433/94/135 436/96/135
f 432/95/136 431/97/136 434/98/136 435/52/136
f 436/96/141 435/52/141 418/72/141 419/71/141
f 434/98/142 430/100/142 417/75/142
f 429/101/139 436/96/139 419/71/139
f 435/52/140 434/98/140 417/75/140 418/72/140
