# Blender 4.0.2
# www.blender.org
mtllib stage_4.mtl
o Tomato_Stage4
v 0.000000 -0.500000 0.000000
v 0.000000 -0.500000 0.050000
v -0.250000 -0.433013 0.000000
v -0.250000 -0.433013 0.050000
v -0.433013 -0.250000 0.000000
v -0.433013 -0.250000 0.050000
v -0.500000 0.000000 0.000000
v -0.500000 0.000000 0.050000
v -0.433013 0.250000 0.000000
v -0.433013 0.250000 0.050000
v -0.250000 0.433013 0.000000
v -0.250000 0.433013 0.050000
v 0.000000 0.500000 0.000000
v 0.000000 0.500000 0.050000
v 0.250000 0.433013 0.000000
v 0.250000 0.433013 0.050000
v 0.433013 0.250000 0.000000
v 0.433013 0.250000 0.050000
v 0.500000 0.000000 0.000000
v 0.500000 0.000000 0.050000
v 0.433013 -0.250000 0.000000
v 0.433013 -0.250000 0.050000
v 0.250000 -0.433013 0.000000
v 0.250000 -0.433013 0.050000
v 0.000000 -0.025000 0.025000
v 0.000000 -0.025000 0.575000
v -0.021651 -0.012500 0.025000
v -0.021651 -0.012500 0.575000
v -0.021651 0.012500 0.025000
v -0.021651 0.012500 0.575000
v 0.000000 0.025000 0.025000
v 0.000000 0.025000 0.575000
v 0.021651 0.012500 0.025000
v 0.021651 0.012500 0.575000
v 0.021651 -0.012500 0.025000
v 0.021651 -0.012500 0.575000
v -0.131764 -0.053033 0.210736
v -0.140000 -0.075000 0.180000
v -0.148236 -0.053033 0.149264
v -0.214575 -0.026517 0.232925
v -0.257112 -0.037500 0.211380
v -0.231046 -0.026517 0.171454
v -0.214575 0.026517 0.232925
v -0.257112 0.037500 0.211380
v -0.231046 0.026517 0.171454
v -0.131764 0.053033 0.210736
v -0.140000 0.075000 0.180000
v -0.148236 0.053033 0.149264
v -0.151647 0.000000 0.136533
v -0.128353 0.000000 0.223467
v -0.048954 0.026516 0.188546
v -0.022888 0.037500 0.148620
v -0.065425 0.026516 0.127075
v -0.048954 -0.026517 0.188546
v -0.022888 -0.037500 0.148620
v -0.065425 -0.026517 0.127075
v 0.053033 -0.131764 0.210736
v 0.075000 -0.140000 0.180000
v 0.053033 -0.148236 0.149264
v 0.026517 -0.214575 0.232925
v 0.037500 -0.257112 0.211380
v 0.026517 -0.231046 0.171454
v -0.026517 -0.214575 0.232925
v -0.037500 -0.257112 0.211380
v -0.026517 -0.231046 0.171454
v -0.053033 -0.131764 0.210736
v -0.075000 -0.140000 0.180000
v -0.053033 -0.148236 0.149264
v 0.000000 -0.151647 0.136533
v -0.000000 -0.128353 0.223467
v -0.026516 -0.048954 0.188546
v -0.037500 -0.022888 0.148620
v -0.026516 -0.065425 0.127075
v 0.026517 -0.048954 0.188546
v 0.037500 -0.022888 0.148620
v 0.026517 -0.065425 0.127075
v 0.131764 0.053033 0.210736
v 0.140000 0.075000 0.180000
v 0.148236 0.053033 0.149264
v 0.214575 0.026517 0.232925
v 0.257112 0.037500 0.211380
v 0.231046 0.026517 0.171454
v 0.214575 -0.026517 0.232925
v 0.257112 -0.037500 0.211380
v 0.231046 -0.026517 0.171454
v 0.131764 -0.053033 0.210736
v 0.140000 -0.075000 0.180000
v 0.148236 -0.053033 0.149264
v 0.151647 0.000000 0.136533
v 0.128353 -0.000000 0.223467
v 0.048954 -0.026517 0.188546
v 0.022888 -0.037500 0.148620
v 0.065425 -0.026517 0.127075
v 0.048954 0.026517 0.188546
v 0.022888 0.037500 0.148620
v 0.065425 0.026517 0.127075
v -0.053033 0.131764 0.210736
v -0.075000 0.140000 0.180000
v -0.053033 0.148236 0.149264
v -0.026517 0.214575 0.232925
v -0.037500 0.257112 0.211380
v -0.026517 0.231046 0.171454
v 0.026517 0.214575 0.232925
v 0.037500 0.257112 0.211380
v 0.026517 0.231046 0.171454
v 0.053033 0.131764 0.210736
v 0.075000 0.140000 0.180000
v 0.053033 0.148236 0.149264
v -0.000000 0.151647 0.136533
v 0.000000 0.128353 0.223467
v 0.026516 0.048954 0.188546
v 0.037500 0.022888 0.148620
v 0.026516 0.065425 0.127075
v -0.026517 0.048954 0.188546
v -0.037500 0.022888 0.148620
v -0.026517 0.065425 0.127075
v -0.131764 -0.053033 0.350736
v -0.140000 -0.075000 0.320000
v -0.148236 -0.053033 0.289264
v -0.214575 -0.026517 0.372925
v -0.257112 -0.037500 0.351380
v -0.231046 -0.026517 0.311454
v -0.214575 0.026517 0.372925
v -0.257112 0.037500 0.351380
v -0.231046 0.026517 0.311454
v -0.131764 0.053033 0.350736
v -0.140000 0.075000 0.320000
v -0.148236 0.053033 0.289264
v -0.151647 0.000000 0.276533
v -0.128353 0.000000 0.363467
v -0.048954 0.026516 0.328546
v -0.022888 0.037500 0.288620
v -0.065425 0.026516 0.267075
v -0.048954 -0.026517 0.328546
v -0.022888 -0.037500 0.288620
v -0.065425 -0.026517 0.267075
v 0.053033 -0.131764 0.350736
v 0.075000 -0.140000 0.320000
v 0.053033 -0.148236 0.289264
v 0.026517 -0.214575 0.372925
v 0.037500 -0.257112 0.351380
v 0.026517 -0.231046 0.311454
v -0.026517 -0.214575 0.372925
v -0.037500 -0.257112 0.351380
v -0.026517 -0.231046 0.311454
v -0.053033 -0.131764 0.350736
v -0.075000 -0.140000 0.320000
v -0.053033 -0.148236 0.289264
v 0.000000 -0.151647 0.276533
v -0.000000 -0.128353 0.363467
v -0.026516 -0.048954 0.328546
v -0.037500 -0.022888 0.288620
v -0.026516 -0.065425 0.267075
v 0.026517 -0.048954 0.328546
v 0.037500 -0.022888 0.288620
v 0.026517 -0.065425 0.267075
v 0.131764 0.053033 0.350736
v 0.140000 0.075000 0.320000
v 0.148236 0.053033 0.289264
v 0.214575 0.026517 0.372925
v 0.257112 0.037500 0.351380
v 0.231046 0.026517 0.311454
v 0.214575 -0.026517 0.372925
v 0.257112 -0.037500 0.351380
v 0.231046 -0.026517 0.311454
v 0.131764 -0.053033 0.350736
v 0.140000 -0.075000 0.320000
v 0.148236 -0.053033 0.289264
v 0.151647 0.000000 0.276533
v 0.128353 -0.000000 0.363467
v 0.048954 -0.026517 0.328546
v 0.022888 -0.037500 0.288620
v 0.065425 -0.026517 0.267075
v 0.048954 0.026517 0.328546
v 0.022888 0.037500 0.288620
v 0.065425 0.026517 0.267075
v -0.053033 0.131764 0.350736
v -0.075000 0.140000 0.320000
v -0.053033 0.148236 0.289264
v -0.026517 0.214575 0.372925
v -0.037500 0.257112 0.351380
v -0.026517 0.231046 0.311454
v 0.026517 0.214575 0.372925
v 0.037500 0.257112 0.351380
v 0.026517 0.231046 0.311454
v 0.053033 0.131764 0.350736
v 0.075000 0.140000 0.320000
v 0.053033 0.148236 0.289264
v -0.000000 0.151647 0.276533
v 0.000000 0.128353 0.363467
v 0.026516 0.048954 0.328546
v 0.037500 0.022888 0.288620
v 0.026516 0.065425 0.267075
v -0.026517 0.048954 0.328546
v -0.037500 0.022888 0.288620
v -0.026517 0.065425 0.267075
v -0.131764 -0.053033 0.480736
v -0.140000 -0.075000 0.450000
v -0.148236 -0.053033 0.419264
v -0.214575 -0.026517 0.502925
v -0.257112 -0.037500 0.481380
v -0.231046 -0.026517 0.441454
v -0.214575 0.026517 0.502925
v -0.257112 0.037500 0.481380
v -0.231046 0.026517 0.441454
v -0.131764 0.053033 0.480736
v -0.140000 0.075000 0.450000
v -0.148236 0.053033 0.419264
v -0.151647 0.000000 0.406533
v -0.128353 0.000000 0.493467
v -0.048954 0.026516 0.458546
v -0.022888 0.037500 0.418620
v -0.065425 0.026516 0.397075
v -0.048954 -0.026517 0.458546
v -0.022888 -0.037500 0.418620
v -0.065425 -0.026517 0.397075
v 0.053033 -0.131764 0.480736
v 0.075000 -0.140000 0.450000
v 0.053033 -0.148236 0.419264
v 0.026517 -0.214575 0.502925
v 0.037500 -0.257112 0.481380
v 0.026517 -0.231046 0.441454
v -0.026517 -0.214575 0.502925
v -0.037500 -0.257112 0.481380
v -0.026517 -0.231046 0.441454
v -0.053033 -0.131764 0.480736
v -0.075000 -0.140000 0.450000
v -0.053033 -0.148236 0.419264
v 0.000000 -0.151647 0.406533
v -0.000000 -0.128353 0.493467
v -0.026516 -0.048954 0.458546
v -0.037500 -0.022888 0.418620
v -0.026516 -0.065425 0.397075
v 0.026517 -0.048954 0.458546
v 0.037500 -0.022888 0.418620
v 0.026517 -0.065425 0.397075
v 0.131764 0.053033 0.480736
v 0.140000 0.075000 0.450000
v 0.148236 0.053033 0.419264
v 0.214575 0.026517 0.502925
v 0.257112 0.037500 0.481380
v 0.231046 0.026517 0.441454
v 0.214575 -0.026517 0.502925
v 0.257112 -0.037500 0.481380
v 0.231046 -0.026517 0.441454
v 0.131764 -0.053033 0.480736
v 0.140000 -0.075000 0.450000
v 0.148236 -0.053033 0.419264
v 0.151647 0.000000 0.406533
v 0.128353 -0.000000 0.493467
v 0.048954 -0.026517 0.458546
v 0.022888 -0.037500 0.418620
v 0.065425 -0.026517 0.397075
v 0.048954 0.026517 0.458546
v 0.022888 0.037500 0.418620
v 0.065425 0.026517 0.397075
v -0.053033 0.131764 0.480736
v -0.075000 0.140000 0.450000
v -0.053033 0.148236 0.419264
v -0.026517 0.214575 0.502925
v -0.037500 0.257112 0.481380
v -0.026517 0.231046 0.441454
v 0.026517 0.214575 0.502925
v 0.037500 0.257112 0.481380
v 0.026517 0.231046 0.441454
v 0.053033 0.131764 0.480736
v 0.075000 0.140000 0.450000
v 0.053033 0.148236 0.419264
v -0.000000 0.151647 0.406533
v 0.000000 0.128353 0.493467
v 0.026516 0.048954 0.458546
v 0.037500 0.022888 0.418620
v 0.026516 0.065425 0.397075
v -0.026517 0.048954 0.458546
v -0.037500 0.022888 0.418620
v -0.026517 0.065425 0.397075
v -0.131764 -0.053033 0.580736
v -0.140000 -0.075000 0.550000
v -0.148236 -0.053033 0.519264
v -0.214575 -0.026517 0.602925
v -0.257112 -0.037500 0.581380
v -0.231046 -0.026517 0.541454
v -0.214575 0.026517 0.602925
v -0.257112 0.037500 0.581380
v -0.231046 0.026517 0.541454
v -0.131764 0.053033 0.580736
v -0.140000 0.075000 0.550000
v -0.148236 0.053033 0.519264
v -0.151647 0.000000 0.506533
v -0.128353 0.000000 0.593467
v -0.048954 0.026516 0.558546
v -0.022888 0.037500 0.518620
v -0.065425 0.026516 0.497075
v -0.048954 -0.026517 0.558546
v -0.022888 -0.037500 0.518620
v -0.065425 -0.026517 0.497075
v 0.053033 -0.131764 0.580736
v 0.075000 -0.140000 0.550000
v 0.053033 -0.148236 0.519264
v 0.026517 -0.214575 0.602925
v 0.037500 -0.257112 0.581380
v 0.026517 -0.231046 0.541454
v -0.026517 -0.214575 0.602925
v -0.037500 -0.257112 0.581380
v -0.026517 -0.231046 0.541454
v -0.053033 -0.131764 0.580736
v -0.075000 -0.140000 0.550000
v -0.053033 -0.148236 0.519264
v 0.000000 -0.151647 0.506533
v -0.000000 -0.128353 0.593467
v -0.026516 -0.048954 0.558546
v -0.037500 -0.022888 0.518620
v -0.026516 -0.065425 0.497075
v 0.026517 -0.048954 0.558546
v 0.037500 -0.022888 0.518620
v 0.026517 -0.065425 0.497075
v 0.131764 0.053033 0.580736
v 0.140000 0.075000 0.550000
v 0.148236 0.053033 0.519264
v 0.214575 0.026517 0.602925
v 0.257112 0.037500 0.581380
v 0.231046 0.026517 0.541454
v 0.214575 -0.026517 0.602925
v 0.257112 -0.037500 0.581380
v 0.231046 -0.026517 0.541454
v 0.131764 -0.053033 0.580736
v 0.140000 -0.075000 0.550000
v 0.148236 -0.053033 0.519264
v 0.151647 0.000000 0.506533
v 0.128353 -0.000000 0.593467
v 0.048954 -0.026517 0.558546
v 0.022888 -0.037500 0.518620
v 0.065425 -0.026517 0.497075
v 0.048954 0.026517 0.558546
v 0.022888 0.037500 0.518620
v 0.065425 0.026517 0.497075
v -0.053033 0.131764 0.580736
v -0.075000 0.140000 0.550000
v -0.053033 0.148236 0.519264
v -0.026517 0.214575 0.602925
v -0.037500 0.257112 0.581380
v -0.026517 0.231046 0.541454
v 0.026517 0.214575 0.602925
v 0.037500 0.257112 0.581380
v 0.026517 0.231046 0.541454
v 0.053033 0.131764 0.580736
v 0.075000 0.140000 0.550000
v 0.053033 0.148236 0.519264
v -0.000000 0.151647 0.506533
v 0.000000 0.128353 0.593467
v 0.026516 0.048954 0.558546
v 0.037500 0.022888 0.518620
v 0.026516 0.065425 0.497075
v -0.026517 0.048954 0.558546
v -0.037500 0.022888 0.518620
v -0.026517 0.065425 0.497075
v -0.110000 -0.119497 0.299497
v -0.110000 -0.140000 0.250000
v -0.110000 -0.119497 0.200503
v -0.152866 -0.094749 0.299497
v -0.170622 -0.105000 0.250000
v -0.152866 -0.094749 0.200503
v -0.152866 -0.045251 0.299497
v -0.170622 -0.035000 0.250000
v -0.152866 -0.045251 0.200503
v -0.110000 -0.020503 0.299497
v -0.110000 0.000000 0.250000
v -0.110000 -0.020503 0.200503
v -0.110000 -0.070000 0.180000
v -0.110000 -0.070000 0.320000
v -0.067134 -0.045251 0.299497
v -0.049378 -0.035000 0.250000
v -0.067134 -0.045251 0.200503
v -0.067134 -0.094749 0.299497
v -0.049378 -0.105000 0.250000
v -0.067134 -0.094749 0.200503
v 0.100000 -0.109497 0.389497
v 0.100000 -0.130000 0.340000
v 0.100000 -0.109497 0.290503
v 0.057134 -0.084749 0.389497
v 0.039378 -0.095000 0.340000
v 0.057134 -0.084749 0.290503
v 0.057134 -0.035251 0.389497
v 0.039378 -0.025000 0.340000
v 0.057134 -0.035251 0.290503
v 0.100000 -0.010503 0.389497
v 0.100000 0.010000 0.340000
v 0.100000 -0.010503 0.290503
v 0.100000 -0.060000 0.270000
v 0.100000 -0.060000 0.410000
v 0.142866 -0.035251 0.389497
v 0.160622 -0.025000 0.340000
v 0.142866 -0.035251 0.290503
v 0.142866 -0.084749 0.389497
v 0.160622 -0.095000 0.340000
v 0.142866 -0.084749 0.290503
v -0.090000 0.030503 0.449497
v -0.090000 0.010000 0.400000
v -0.090000 0.030503 0.350503
v -0.132866 0.055251 0.449497
v -0.150622 0.045000 0.400000
v -0.132866 0.055251 0.350503
v -0.132866 0.104749 0.449497
v -0.150622 0.115000 0.400000
v -0.132866 0.104749 0.350503
v -0.090000 0.129497 0.449497
v -0.090000 0.150000 0.400000
v -0.090000 0.129497 0.350503
v -0.090000 0.080000 0.330000
v -0.090000 0.080000 0.470000
v -0.047134 0.104749 0.449497
v -0.029378 0.115000 0.400000
v -0.047134 0.104749 0.350503
v -0.047134 0.055251 0.449497
v -0.029378 0.045000 0.400000
v -0.047134 0.055251 0.350503
v 0.080000 0.020503 0.519497
v 0.080000 0.000000 0.470000
v 0.080000 0.020503 0.420503
v 0.037134 0.045251 0.519497
v 0.019378 0.035000 0.470000
v 0.037134 0.045251 0.420503
v 0.037134 0.094749 0.519497
v 0.019378 0.105000 0.470000
v 0.037134 0.094749 0.420503
v 0.080000 0.119497 0.519497
v 0.080000 0.140000 0.470000
v 0.080000 0.119497 0.420503
v 0.080000 0.070000 0.400000
v 0.080000 0.070000 0.540000
v 0.122866 0.094749 0.519497
v 0.140622 0.105000 0.470000
v 0.122866 0.094749 0.420503
v 0.122866 0.045251 0.519497
v 0.140622 0.035000 0.470000
v 0.122866 0.045251 0.420503
v -0.070000 -0.139497 0.569497
v -0.070000 -0.160000 0.520000
v -0.070000 -0.139497 0.470502
v -0.112866 -0.114749 0.569497
v -0.130622 -0.125000 0.520000
v -0.112866 -0.114749 0.470502
v -0.112866 -0.065251 0.569497
v -0.130622 -0.055000 0.520000
v -0.112866 -0.065251 0.470502
v -0.070000 -0.040503 0.569497
v -0.070000 -0.020000 0.520000
v -0.070000 -0.040503 0.470502
v -0.070000 -0.090000 0.450000
v -0.070000 -0.090000 0.590000
v -0.027134 -0.065251 0.569497
v -0.009378 -0.055000 0.520000
v -0.027134 -0.065251 0.470502
v -0.027134 -0.114749 0.569497
v -0.009378 -0.125000 0.520000
v -0.027134 -0.114749 0.470502
v 0.060000 -0.009497 0.599497
v 0.060000 -0.030000 0.550000
v 0.060000 -0.009497 0.500503
v 0.017134 0.015251 0.599497
v -0.000622 0.005000 0.550000
v 0.017134 0.015251 0.500503
v 0.017134 0.064749 0.599497
v -0.000622 0.075000 0.550000
v 0.017134 0.064749 0.500503
v 0.060000 0.089497 0.599497
v 0.060000 0.110000 0.550000
v 0.060000 0.089497 0.500503
v 0.060000 0.040000 0.480000
v 0.060000 0.040000 0.620000
v 0.102866 0.064749 0.599497
v 0.120622 0.075000 0.550000
v 0.102866 0.064749 0.500503
v 0.102866 0.015251 0.599497
v 0.120622 0.005000 0.550000
v 0.102866 0.015251 0.500503
vn -0.2588 -0.9659 -0.0000
vn -0.7071 -0.7071 -0.0000
vn -0.9659 -0.2588 -0.0000
vn -0.9659 0.2588 -0.0000
vn -0.7071 0.7071 -0.0000
vn -0.2588 0.9659 -0.0000
vn 0.2588 0.9659 -0.0000
vn 0.7071 0.7071 -0.0000
vn 0.9659 0.2588 -0.0000
vn 0.9659 -0.2588 -0.0000
vn -0.0000 -0.0000 1.0000
vn 0.7071 -0.7071 -0.0000
vn 0.2588 -0.9659 -0.0000
vn -0.0000 -0.0000 -1.0000
vn -0.5000 -0.8660 -0.0000
vn -1.0000 -0.0000 -0.0000
vn -0.5000 0.8660 -0.0000
vn 0.5000 0.8660 -0.0000
vn 1.0000 -0.0000 -0.0000
vn 0.5000 -0.8660 -0.0000
vn -0.3808 -0.7975 -0.4680
vn 0.1786 -0.2405 0.9541
vn -0.3223 -0.2405 -0.9156
vn -0.0958 -0.7975 0.5957
vn -0.8374 -0.0000 -0.5467
vn 0.1090 -0.0000 0.9940
vn -0.4026 -0.0000 -0.9154
vn -0.4518 -0.0000 0.8921
vn -0.3808 0.7975 -0.4680
vn 0.1786 0.2405 0.9541
vn -0.3223 0.2405 -0.9156
vn -0.0958 0.7975 0.5957
vn 0.0958 0.7975 -0.5957
vn 0.3223 0.2405 0.9156
vn -0.1786 0.2405 -0.9541
vn 0.3808 0.7975 0.4680
vn 0.4518 -0.0000 -0.8921
vn 0.4026 -0.0000 0.9154
vn -0.1090 -0.0000 -0.9940
vn 0.8374 -0.0000 0.5467
vn 0.0958 -0.7975 -0.5957
vn 0.3223 -0.2405 0.9156
vn -0.1786 -0.2405 -0.9541
vn 0.3808 -0.7975 0.4680
vn 0.7975 -0.0958 0.5957
vn 0.7975 -0.3808 -0.4680
vn 0.2405 0.1786 0.9541
vn 0.2405 -0.3223 -0.9156
vn -0.0000 -0.8374 -0.5467
vn -0.0000 0.1090 0.9940
vn -0.0000 -0.4026 -0.9154
vn -0.0000 -0.4518 0.8921
vn -0.7975 -0.3808 -0.4680
vn -0.2405 0.1786 0.9541
vn -0.2405 -0.3223 -0.9156
vn -0.7975 -0.0958 0.5957
vn -0.7975 0.3808 0.4680
vn -0.7975 0.0958 -0.5957
vn -0.2405 0.3223 0.9156
vn -0.2405 -0.1786 -0.9541
vn -0.0000 -0.1090 -0.9940
vn -0.0000 0.8374 0.5467
vn -0.0000 0.4518 -0.8921
vn -0.0000 0.4026 0.9154
vn 0.2405 -0.1786 -0.9541
vn 0.7975 0.3808 0.4680
vn 0.7975 0.0958 -0.5957
vn 0.2405 0.3223 0.9156
vn 0.3808 0.7975 -0.4680
vn -0.1786 0.2405 0.9541
vn 0.3223 0.2405 -0.9156
vn 0.0958 0.7975 0.5957
vn 0.8374 -0.0000 -0.5467
vn -0.1090 -0.0000 0.9940
vn 0.4026 -0.0000 -0.9154
vn 0.4518 -0.0000 0.8921
vn 0.3808 -0.7975 -0.4680
vn -0.1786 -0.2405 0.9541
vn 0.3223 -0.2405 -0.9156
vn 0.0958 -0.7975 0.5957
vn -0.0958 -0.7975 -0.5957
vn -0.3223 -0.2405 0.9156
vn 0.1786 -0.2405 -0.9541
vn -0.3808 -0.7975 0.4680
vn -0.4518 -0.0000 -0.8921
vn -0.4026 -0.0000 0.9154
vn 0.1090 -0.0000 -0.9940
vn -0.8374 -0.0000 0.5467
vn -0.3808 0.7975 0.4680
vn -0.0958 0.7975 -0.5957
vn -0.3223 0.2405 0.9156
vn 0.1786 0.2405 -0.9541
vn -0.2405 0.3223 -0.9156
vn -0.7975 0.0958 0.5957
vn -0.7975 0.3808 -0.4680
vn -0.2405 -0.1786 0.9541
vn -0.0000 0.4026 -0.9154
vn -0.0000 0.4518 0.8921
vn -0.0000 0.8374 -0.5467
vn -0.0000 -0.1090 0.9940
vn 0.2405 0.3223 -0.9156
vn 0.7975 0.0958 0.5957
vn 0.7975 0.3808 -0.4680
vn 0.2405 -0.1786 0.9541
vn 0.2405 0.1786 -0.9541
vn 0.7975 -0.3808 0.4680
vn 0.7975 -0.0958 -0.5957
vn 0.2405 -0.3223 0.9156
vn -0.0000 -0.4026 0.9154
vn -0.0000 0.1090 -0.9940
vn -0.0000 -0.8374 0.5467
vn -0.0000 -0.4518 -0.8921
vn -0.7975 -0.0958 -0.5957
vn -0.2405 -0.3223 0.9156
vn -0.2405 0.1786 -0.9541
vn -0.7975 -0.3808 0.4680
vn 0.7975 -0.0958 0.5956
vn -0.7975 0.0958 0.5956
vn -0.4706 -0.8152 -0.3377
vn -0.2157 -0.3737 0.9021
vn -0.2157 -0.3737 -0.9021
vn -0.4706 -0.8152 0.3377
vn -0.9413 -0.0000 -0.3377
vn -0.4315 -0.0000 0.9021
vn -0.4315 -0.0000 -0.9021
vn -0.9413 -0.0000 0.3377
vn -0.4706 0.8152 -0.3377
vn -0.2157 0.3737 0.9021
vn -0.2157 0.3737 -0.9021
vn -0.4706 0.8152 0.3377
vn 0.4706 0.8152 -0.3377
vn 0.2157 0.3737 0.9021
vn 0.2157 0.3737 -0.9021
vn 0.4706 0.8152 0.3377
vn 0.9413 -0.0000 -0.3377
vn 0.4315 -0.0000 0.9021
vn 0.4315 -0.0000 -0.9021
vn 0.9413 -0.0000 0.3377
vn 0.4706 -0.8152 -0.3377
vn 0.2157 -0.3737 0.9021
vn 0.2157 -0.3737 -0.9021
vn 0.4706 -0.8152 0.3377
vt 1.000000 0.500000
vt 1.000000 1.000000
vt 0.916667 1.000000
vt 0.916667 0.500000
vt 0.833333 1.000000
vt 0.833333 0.500000
vt 0.750000 1.000000
vt 0.750000 0.500000
vt 0.666667 1.000000
vt 0.666667 0.500000
vt 0.583333 1.000000
vt 0.583333 0.500000
vt 0.500000 1.000000
vt 0.500000 0.500000
vt 0.416667 1.000000
vt 0.416667 0.500000
vt 0.333333 1.000000
vt 0.333333 0.500000
vt 0.250000 1.000000
vt 0.250000 0.500000
vt 0.166667 1.000000
vt 0.166667 0.500000
vt 0.370000 0.457846
vt 0.250000 0.490000
vt 0.130000 0.457846
vt 0.042154 0.370000
vt 0.010000 0.250000
vt 0.042154 0.130000
vt 0.130000 0.042154
vt 0.250000 0.010000
vt 0.370000 0.042154
vt 0.457846 0.130000
vt 0.490000 0.250000
vt 0.457846 0.370000
vt 0.083333 1.000000
vt 0.083333 0.500000
vt 0.000000 1.000000
vt 0.000000 0.500000
vt 0.750000 0.490000
vt 0.870000 0.457846
vt 0.957846 0.370000
vt 0.990000 0.250000
vt 0.957846 0.130000
vt 0.870000 0.042154
vt 0.750000 0.010000
vt 0.630000 0.042154
vt 0.542154 0.130000
vt 0.510000 0.250000
vt 0.542154 0.370000
vt 0.630000 0.457846
vt 0.833333 1.000000
vt 0.833333 0.500000
vt 0.666667 1.000000
vt 0.666667 0.500000
vt 0.500000 1.000000
vt 0.500000 0.500000
vt 0.333333 1.000000
vt 0.333333 0.500000
vt 0.457846 0.370000
vt 0.042154 0.370000
vt 0.042154 0.130000
vt 0.457846 0.130000
vt 0.166667 1.000000
vt 0.166667 0.500000
vt -0.000000 1.000000
vt -0.000000 0.500000
vt 0.957846 0.370000
vt 0.957846 0.130000
vt 0.542154 0.130000
vt 0.542154 0.370000
vt 0.666667 0.250000
vt 0.666667 0.500000
vt 0.500000 0.500000
vt 0.500000 0.250000
vt 0.666667 0.750000
vt 0.583333 1.000000
vt 0.500000 0.750000
vt 0.583333 0.000000
vt 0.333333 0.500000
vt 0.333333 0.250000
vt 0.416667 1.000000
vt 0.333333 0.750000
vt 0.416667 0.000000
vt 0.166667 0.500000
vt 0.166667 0.250000
vt 0.250000 1.000000
vt 0.166667 0.750000
vt 0.250000 0.000000
vt 0.000000 0.500000
vt 0.000000 0.250000
vt 0.083333 1.000000
vt 0.000000 0.750000
vt 0.083333 0.000000
vt 1.000000 0.250000
vt 1.000000 0.500000
vt 0.833333 0.250000
vt 1.000000 0.750000
vt 0.833333 0.750000
vt 0.916667 0.000000
vt 0.750000 1.000000
vt 0.750000 0.000000
vt 0.333333 0.500000
vt 0.416667 1.000000
vt 0.416667 0.000000
s 0
usemtl Soil
f 1/1/1 2/2/1 4/3/1 3/4/1
f 3/4/2 4/3/2 6/5/2 5/6/2
f 5/6/3 6/5/3 8/7/3 7/8/3
f 7/8/4 8/7/4 10/9/4 9/10/4
f 9/10/5 10/9/5 12/11/5 11/12/5
f 11/12/6 12/11/6 14/13/6 13/14/6
f 13/14/7 14/13/7 16/15/7 15/16/7
f 15/16/8 16/15/8 18/17/8 17/18/8
f 17/18/9 18/17/9 20/19/9 19/20/9
f 19/20/10 20/19/10 22/21/10 21/22/10
f 4/23/11 2/24/11 24/25/11 22/26/11 20/27/11 18/28/11 16/29/11 14/30/11 12/31/11 10/32/11 8/33/11 6/34/11
f 21/22/12 22/21/12 24/35/12 23/36/12
f 23/36/13 24/35/13 2/37/13 1/38/13
f 1/39/14 3/40/14 5/41/14 7/42/14 9/43/14 11/44/14 13/45/14 15/46/14 17/47/14 19/48/14 21/49/14 23/50/14
usemtl Stem
f 25/1/15 26/2/15 28/51/15 27/52/15
f 27/52/16 28/51/16 30/53/16 29/54/16
f 29/54/17 30/53/17 32/55/17 31/56/17
f 31/56/18 32/55/18 34/57/18 33/58/18
f 28/59/11 26/24/11 36/60/11 34/61/11 32/30/11 30/62/11
f 33/58/19 34/57/19 36/63/19 35/64/19
f 35/64/20 36/63/20 26/65/20 25/66/20
f 25/39/14 27/67/14 29/68/14 31/45/14 33/69/14 35/70/14
usemtl Leaf
f 39/71/21 38/72/21 41/73/21 42/74/21
f 37/75/22 50/76/22 40/77/22
f 49/78/23 39/71/23 42/74/23
f 38/72/24 37/75/24 40/77/24 41/73/24
f 42/74/25 41/73/25 44/79/25 45/80/25
f 40/77/26 50/81/26 43/82/26
f 49/83/27 42/74/27 45/80/27
f 41/73/28 40/77/28 43/82/28 44/79/28
f 45/80/29 44/79/29 47/84/29 48/85/29
f 43/82/30 50/86/30 46/87/30
f 49/88/31 45/80/31 48/85/31
f 44/79/32 43/82/32 46/87/32 47/84/32
f 48/85/33 47/84/33 52/89/33 53/90/33
f 46/87/34 50/91/34 51/92/34
f 49/93/35 48/85/35 53/90/35
f 47/84/36 46/87/36 51/92/36 52/89/36
f 53/94/37 52/95/37 55/52/37 56/96/37
f 51/97/38 50/3/38 54/98/38
f 49/99/39 53/94/39 56/96/39
f 52/95/40 51/97/40 54/98/40 55/52/40
f 56/96/41 55/52/41 38/72/41 39/71/41
f 54/98/42 50/100/42 37/75/42
f 49/101/43 56/96/43 39/71/43
f 55/52/44 54/98/44 37/75/44 38/72/44
f 79/71/69 78/72/69 81/73/69 82/74/69
f 77/75/70 90/76/70 80/77/70
f 89/78/71 79/71/71 82/74/71
f 78/72/72 77/75/72 80/77/72 81/73/72
f 82/74/73 81/73/73 84/79/73 85/80/73
f 80/77/74 90/81/74 83/82/74
f 89/83/75 82/74/75 85/80/75
f 81/73/76 80/77/76 83/82/76 84/79/76
f 85/80/77 84/79/77 87/84/77 88/85/77
f 83/82/78 90/86/78 86/87/78
f 89/88/79 85/80/79 88/85/79
f 84/79/80 83/82/80 86/87/80 87/84/80
f 88/85/81 87/84/81 92/89/81 93/90/81
f 86/87/82 90/91/82 91/92/82
f 89/93/83 88/85/83 93/90/83
f 87/84/84 86/87/84 91/92/84 92/89/84
f 93/94/85 92/95/85 95/52/85 96/96/85
f 91/97/86 90/3/86 94/98/86
f 89/99/87 93/94/87 96/96/87
f 92/95/88 91/97/88 94/98/88 95/52/88
f 95/52/89 94/98/89 77/75/89 78/72/89
f 96/96/90 95/52/90 78/72/90 79/71/90
f 94/98/91 90/100/91 77/75/91
f 89/101/92 96/96/92 79/71/92
f 138/72/45 137/75/45 140/77/45 141/73/45
f 139/71/46 138/72/46 141/73/46 142/74/46
f 137/75/47 150/76/47 140/77/47
f 149/78/48 139/71/48 142/74/48
f 142/74/49 141/73/49 144/79/49 145/80/49
f 140/77/50 150/81/50 143/82/50
f 149/83/51 142/74/51 145/80/51
f 141/73/52 140/77/52 143/82/52 144/79/52
f 145/80/53 144/79/53 147/84/53 148/85/53
f 143/82/54 150/86/54 146/87/54
f 149/88/55 145/80/55 148/85/55
f 144/79/56 143/82/56 146/87/56 147/84/56
f 147/84/57 146/87/57 151/92/57 152/89/57
f 148/85/58 147/84/58 152/89/58 153/90/58
f 146/87/59 150/91/59 151/92/59
f 149/93/60 148/85/60 153/90/60
f 149/99/61 153/94/61 156/96/61
f 152/95/62 151/97/62 154/98/62 155/52/62
f 153/94/63 152/95/63 155/52/63 156/96/63
f 151/97/64 150/3/64 154/98/64
f 149/101/65 156/96/65 139/71/65
f 155/52/66 154/98/66 137/75/66 138/72/66
f 156/96/67 155/52/67 138/72/67 139/71/67
f 154/98/68 150/100/68 137/75/68
f 179/71/95 178/72/95 181/73/95 182/74/95
f 177/75/96 190/76/96 180/77/96
f 189/78/93 179/71/93 182/74/93
f 178/72/94 177/75/94 180/77/94 181/73/94
f 182/74/99 181/73/99 184/79/99 185/80/99
f 180/77/100 190/81/100 183/82/100
f 189/83/97 182/74/97 185/80/97
f 181/73/98 180/77/98 183/82/98 184/79/98
f 185/80/103 184/79/103 187/84/103 188/85/103
f 183/82/104 190/86/104 186/87/104
f 189/88/101 185/80/101 188/85/101
f 184/79/102 183/82/102 186/87/102 187/84/102
f 188/85/107 187/84/107 192/89/107 193/90/107
f 186/87/108 190/91/108 191/92/108
f 189/93/105 188/85/105 193/90/105
f 187/84/106 186/87/106 191/92/106 192/89/106
f 193/94/112 192/95/112 195/52/112 196/96/112
f 191/97/109 190/3/109 194/98/109
f 189/99/110 193/94/110 196/96/110
f 192/95/111 191/97/111 194/98/111 195/52/111
f 196/96/113 195/52/113 178/72/113 179/71/113
f 194/98/114 190/100/114 177/75/114
f 189/101/115 196/96/115 179/71/115
f 195/52/116 194/98/116 177/75/116 178/72/116
f 199/71/21 198/72/21 201/73/21 202/74/21
f 197/75/22 210/76/22 200/77/22
f 209/78/23 199/71/23 202/74/23
f 198/72/24 197/75/24 200/77/24 201/73/24
f 209/83/27 202/74/27 205/80/27
f 201/73/28 200/77/28 203/82/28 204/79/28
f 202/74/25 201/73/25 204/79/25 205/80/25
f 200/77/26 210/81/26 203/82/26
f 203/82/30 210/86/30 206/87/30
f 209/88/31 205/80/31 208/85/31
f 204/79/32 203/82/32 206/87/32 207/84/32
f 205/80/29 204/79/29 207/84/29 208/85/29
f 208/85/33 207/84/33 212/89/33 213/90/33
f 206/87/34 210/91/34 211/92/34
f 209/93/35 208/85/35 213/90/35
f 207/84/36 206/87/36 211/92/36 212/89/36
f 213/94/37 212/95/37 215/52/37 216/96/37
f 211/97/38 210/3/38 214/98/38
f 209/99/39 213/94/39 216/96/39
f 212/95/40 211/97/40 214/98/40 215/52/40
f 216/96/41 215/52/41 198/72/41 199/71/41
f 214/98/42 210/100/42 197/75/42
f 209/101/43 216/96/43 199/71/43
f 215/52/44 214/98/44 197/75/44 198/72/44
f 238/72/72 237/75/72 240/77/72 241/73/72
f 239/71/69 238/72/69 241/73/69 242/74/69
f 237/75/70 250/76/70 240/77/70
f 249/78/71 239/71/71 242/74/71
f 242/74/73 241/73/73 244/79/73 245/80/73
f 240/77/74 250/81/74 243/82/74
f 249/83/75 242/74/75 245/80/75
f 241/73/76 240/77/76 243/82/76 244/79/76
f 245/80/77 244/79/77 247/84/77 248/85/77
f 243/82/78 250/86/78 246/87/78
f 249/88/79 245/80/79 248/85/79
f 244/79/80 243/82/80 246/87/80 247/84/80
f 247/84/84 246/87/84 251/92/84 252/89/84
f 248/85/81 247/84/81 252/89/81 253/90/81
f 246/87/82 250/91/82 251/92/82
f 249/93/83 248/85/83 253/90/83
f 249/99/87 253/94/87 256/96/87
f 252/95/88 251/97/88 254/98/88 255/52/88
f 253/94/85 252/95/85 255/52/85 256/96/85
f 251/97/86 250/3/86 254/98/86
f 249/101/92 256/96/92 239/71/92
f 255/52/89 254/98/89 237/75/89 238/72/89
f 256/96/90 255/52/90 238/72/90 239/71/90
f 254/98/91 250/100/91 237/75/91
f 299/71/46 298/72/46 301/73/46 302/74/46
f 297/75/47 310/76/47 300/77/47
f 309/78/48 299/71/48 302/74/48
f 298/72/117 297/75/117 300/77/117 301/73/117
f 302/74/49 301/73/49 304/79/49 305/80/49
f 300/77/50 310/81/50 303/82/50
f 309/83/51 302/74/51 305/80/51
f 301/73/52 300/77/52 303/82/52 304/79/52
f 305/80/53 304/79/53 307/84/53 308/85/53
f 303/82/54 310/86/54 306/87/54
f 309/88/55 305/80/55 308/85/55
f 304/79/56 303/82/56 306/87/56 307/84/56
f 308/85/58 307/84/58 312/89/58 313/90/58
f 306/87/59 310/91/59 311/92/59
f 309/93/60 308/85/60 313/90/60
f 307/84/57 306/87/57 311/92/57 312/89/57
f 313/94/63 312/95/63 315/52/63 316/96/63
f 311/97/64 310/3/64 314/98/64
f 309/99/61 313/94/61 316/96/61
f 312/95/62 311/97/62 314/98/62 315/52/62
f 315/52/66 314/98/66 297/75/66 298/72/66
f 316/96/67 315/52/67 298/72/67 299/71/67
f 314/98/68 310/100/68 297/75/68
f 309/101/65 316/96/65 299/71/65
f 349/78/93 339/71/93 342/74/93
f 338/72/118 337/75/118 340/77/118 341/73/118
f 339/71/95 338/72/95 341/73/95 342/74/95
f 337/75/96 350/76/96 340/77/96
f 349/83/97 342/74/97 345/80/97
f 341/73/98 340/77/98 343/82/98 344/79/98
f 342/74/99 341/73/99 344/79/99 345/80/99
f 340/77/100 350/81/100 343/82/100
f 349/88/101 345/80/101 348/85/101
f 344/79/102 343/82/102 346/87/102 347/84/102
f 345/80/103 344/79/103 347/84/103 348/85/103
f 343/82/104 350/86/104 346/87/104
f 349/93/105 348/85/105 353/90/105
f 347/84/106 346/87/106 351/92/106 352/89/106
f 348/85/107 347/84/107 352/89/107 353/90/107
f 346/87/108 350/91/108 351/92/108
f 349/99/110 353/94/110 356/96/110
f 352/95/111 351/97/111 354/98/111 355/52/111
f 353/94/112 352/95/112 355/52/112 356/96/112
f 351/97/109 350/3/109 354/98/109
f 354/98/114 350/100/114 337/75/114
f 349/101/115 356/96/115 339/71/115
f 355/52/116 354/98/116 337/75/116 338/72/116
f 356/96/113 355/52/113 338/72/113 339/71/113
usemtl LeafDark
f 58/72/45 57/75/45 60/77/45 61/73/45
f 59/71/46 58/72/46 61/73/46 62/74/46
f 57/75/47 70/76/47 60/77/47
f 69/78/48 59/71/48 62/74/48
f 62/74/49 61/73/49 64/79/49 65/80/49
f 60/77/50 70/81/50 63/82/50
f 69/83/51 62/74/51 65/80/51
f 61/73/52 60/77/52 63/82/52 64/79/52
f 65/80/53 64/79/53 67/84/53 68/85/53
f 63/82/54 70/86/54 66/87/54
f 69/88/55 65/80/55 68/85/55
f 64/79/56 63/82/56 66/87/56 67/84/56
f 67/84/57 66/87/57 71/92/57 72/89/57
f 68/85/58 67/84/58 72/89/58 73/90/58
f 66/87/59 70/91/59 71/92/59
f 69/93/60 68/85/60 73/90/60
f 69/99/61 73/94/61 76/96/61
f 72/95/62 71/97/62 74/98/62 75/52/62
f 73/94/63 72/95/63 75/52/63 76/96/63
f 71/97/64 70/3/64 74/98/64
f 69/101/65 76/96/65 59/71/65
f 75/52/66 74/98/66 57/75/66 58/72/66
f 76/96/67 75/52/67 58/72/67 59/71/67
f 74/98/68 70/100/68 57/75/68
f 109/78/93 99/71/93 102/74/93
f 98/72/94 97/75/94 100/77/94 101/73/94
f 99/71/95 98/72/95 101/73/95 102/74/95
f 97/75/96 110/76/96 100/77/96
f 109/83/97 102/74/97 105/80/97
f 101/73/98 100/77/98 103/82/98 104/79/98
f 102/74/99 101/73/99 104/79/99 105/80/99
f 100/77/100 110/81/100 103/82/100
f 109/88/101 105/80/101 108/85/101
f 104/79/102 103/82/102 106/87/102 107/84/102
f 105/80/103 104/79/103 107/84/103 108/85/103
f 103/82/104 110/86/104 106/87/104
f 109/93/105 108/85/105 113/90/105
f 107/84/106 106/87/106 111/92/106 112/89/106
f 108/85/107 107/84/107 112/89/107 113/90/107
f 106/87/108 110/91/108 111/92/108
f 111/97/109 110/3/109 114/98/109
f 109/99/110 113/94/110 116/96/110
f 112/95/111 111/97/111 114/98/111 115/52/111
f 113/94/112 112/95/112 115/52/112 116/96/112
f 116/96/113 115/52/113 98/72/113 99/71/113
f 114/98/114 110/100/114 97/75/114
f 109/101/115 116/96/115 99/71/115
f 115/52/116 114/98/116 97/75/116 98/72/116
f 129/78/23 119/71/23 122/74/23
f 118/72/24 117/75/24 120/77/24 121/73/24
f 119/71/21 118/72/21 121/73/21 122/74/21
f 117/75/22 130/76/22 120/77/22
f 129/83/27 122/74/27 125/80/27
f 121/73/28 120/77/28 123/82/28 124/79/28
f 122/74/25 121/73/25 124/79/25 125/80/25
f 120/77/26 130/81/26 123/82/26
f 129/88/31 125/80/31 128/85/31
f 124/79/32 123/82/32 126/87/32 127/84/32
f 125/80/29 124/79/29 127/84/29 128/85/29
f 123/82/30 130/86/30 126/87/30
f 129/93/35 128/85/35 133/90/35
f 127/84/36 126/87/36 131/92/36 132/89/36
f 128/85/33 127/84/33 132/89/33 133/90/33
f 126/87/34 130/91/34 131/92/34
f 129/99/39 133/94/39 136/96/39
f 132/95/40 131/97/40 134/98/40 135/52/40
f 133/94/37 132/95/37 135/52/37 136/96/37
f 131/97/38 130/3/38 134/98/38
f 134/98/42 130/100/42 117/75/42
f 129/101/43 136/96/43 119/71/43
f 135/52/44 134/98/44 117/75/44 118/72/44
f 136/96/41 135/52/41 118/72/41 119/71/41
f 169/78/71 159/71/71 162/74/71
f 158/72/72 157/75/72 160/77/72 161/73/72
f 159/71/69 158/72/69 161/73/69 162/74/69
f 157/75/70 170/76/70 160/77/70
f 169/83/75 162/74/75 165/80/75
f 161/73/76 160/77/76 163/82/76 164/79/76
f 162/74/73 161/73/73 164/79/73 165/80/73
f 160/77/74 170/81/74 163/82/74
f 169/88/79 165/80/79 168/85/79
f 164/79/80 163/82/80 166/87/80 167/84/80
f 165/80/77 164/79/77 167/84/77 168/85/77
f 163/82/78 170/86/78 166/87/78
f 169/93/83 168/85/83 173/90/83
f 167/84/84 166/87/84 171/92/84 172/89/84
f 168/85/81 167/84/81 172/89/81 173/90/81
f 166/87/82 170/91/82 171/92/82
f 169/99/87 173/94/87 176/96/87
f 172/95/88 171/97/88 174/98/88 175/52/88
f 173/94/85 172/95/85 175/52/85 176/96/85
f 171/97/86 170/3/86 174/98/86
f 174/98/91 170/100/91 157/75/91
f 169/101/92 176/96/92 159/71/92
f 175/52/89 174/98/89 157/75/89 158/72/89
f 176/96/90 175/52/90 158/72/90 159/71/90
f 219/71/46 218/72/46 221/73/46 222/74/46
f 217/75/47 230/76/47 220/77/47
f 229/78/48 219/71/48 222/74/48
f 218/72/45 217/75/45 220/77/45 221/73/45
f 220/77/50 230/81/50 223/82/50
f 229/83/51 222/74/51 225/80/51
f 221/73/52 220/77/52 223/82/52 224/79/52
f 222/74/49 221/73/49 224/79/49 225/80/49
f 225/80/53 224/79/53 227/84/53 228/85/53
f 223/82/54 230/86/54 226/87/54
f 229/88/55 225/80/55 228/85/55
f 224/79/56 223/82/56 226/87/56 227/84/56
f 228/85/58 227/84/58 232/89/58 233/90/58
f 226/87/59 230/91/59 231/92/59
f 229/93/60 228/85/60 233/90/60
f 227/84/57 226/87/57 231/92/57 232/89/57
f 233/94/63 232/95/63 235/52/63 236/96/63
f 231/97/64 230/3/64 234/98/64
f 229/99/61 233/94/61 236/96/61
f 232/95/62 231/97/62 234/98/62 235/52/62
f 236/96/67 235/52/67 218/72/67 219/71/67
f 234/98/68 230/100/68 217/75/68
f 229/101/65 236/96/65 219/71/65
f 235/52/66 234/98/66 217/75/66 218/72/66
f 269/78/93 259/71/93 262/74/93
f 258/72/94 257/75/94 260/77/94 261/73/94
f 259/71/95 258/72/95 261/73/95 262/74/95
f 257/75/96 270/76/96 260/77/96
f 261/73/98 260/77/98 263/82/98 264/79/98
f 262/74/99 261/73/99 264/79/99 265/80/99
f 260/77/100 270/81/100 263/82/100
f 269/83/97 262/74/97 265/80/97
f 269/88/101 265/80/101 268/85/101
f 264/79/102 263/82/102 266/87/102 267/84/102
f 265/80/103 264/79/103 267/84/103 268/85/103
f 263/82/104 270/86/104 266/87/104
f 269/93/105 268/85/105 273/90/105
f 267/84/106 266/87/106 271/92/106 272/89/106
f 268/85/107 267/84/107 272/89/107 273/90/107
f 266/87/108 270/91/108 271/92/108
f 269/99/110 273/94/110 276/96/110
f 272/95/111 271/97/111 274/98/111 275/52/111
f 273/94/112 272/95/112 275/52/112 276/96/112
f 271/97/109 270/3/109 274/98/109
f 269/101/115 276/96/115 259/71/115
f 275/52/116 274/98/116 257/75/116 258/72/116
f 276/96/113 275/52/113 258/72/113 259/71/113
f 274/98/114 270/100/114 257/75/114
f 279/71/21 278/72/21 281/73/21 282/74/21
f 277/75/22 290/76/22 280/77/22
f 289/78/23 279/71/23 282/74/23
f 278/72/24 277/75/24 280/77/24 281/73/24
f 282/74/25 281/73/25 284/79/25 285/80/25
f 280/77/26 290/81/26 283/82/26
f 289/83/27 282/74/27 285/80/27
f 281/73/28 280/77/28 283/82/28 284/79/28
f 285/80/29 284/79/29 287/84/29 288/85/29
f 283/82/30 290/86/30 286/87/30
f 289/88/31 285/80/31 288/85/31
f 284/79/32 283/82/32 286/87/32 287/84/32
f 288/85/33 287/84/33 292/89/33 293/90/33
f 286/87/34 290/91/34 291/92/34
f 289/93/35 288/85/35 293/90/35
f 287/84/36 286/87/36 291/92/36 292/89/36
f 293/94/37 292/95/37 295/52/37 296/96/37
f 291/97/38 290/3/38 294/98/38
f 289/99/39 293/94/39 296/96/39
f 292/95/40 291/97/40 294/98/40 295/52/40
f 296/96/41 295/52/41 278/72/41 279/71/41
f 294/98/42 290/100/42 277/75/42
f 289/101/43 296/96/43 279/71/43
f 295/52/44 294/98/44 277/75/44 278/72/44
f 319/71/69 318/72/69 321/73/69 322/74/69
f 317/75/70 330/76/70 320/77/70
f 329/78/71 319/71/71 322/74/71
f 318/72/72 317/75/72 320/77/72 321/73/72
f 322/74/73 321/73/73 324/79/73 325/80/73
f 320/77/74 330/81/74 323/82/74
f 329/83/75 322/74/75 325/80/75
f 321/73/76 320/77/76 323/82/76 324/79/76
f 325/80/77 324/79/77 327/84/77 328/85/77
f 323/82/78 330/86/78 326/87/78
f 329/88/79 325/80/79 328/85/79
f 324/79/80 323/82/80 326/87/80 327/84/80
f 328/85/81 327/84/81 332/89/81 333/90/81
f 326/87/82 330/91/82 331/92/82
f 329/93/83 328/85/83 333/90/83
f 327/84/84 326/87/84 331/92/84 332/89/84
f 332/95/88 331/97/88 334/98/88 335/52/88
f 333/94/85 332/95/85 335/52/85 336/96/85
f 331/97/86 330/3/86 334/98/86
f 329/99/87 333/94/87 336/96/87
f 329/101/92 336/96/92 319/71/92
f 335/52/89 334/98/89 317/75/89 318/72/89
f 336/96/90 335/52/90 318/72/90 319/71/90
f 334/98/91 330/100/91 317/75/91
usemtl TomatoRed
f 359/71/119 358/72/119 361/73/119 362/74/119
f 357/75/120 370/76/120 360/77/120
f 369/78/121 359/71/121 362/74/121
f 358/72/122 357/75/122 360/77/122 361/73/122
f 362/74/123 361/73/123 364/102/123 365/80/123
f 360/77/124 370/103/124 363/82/124
f 369/104/125 362/74/125 365/80/125
f 361/73/126 360/77/126 363/82/126 364/102/126
f 365/80/127 364/102/127 367/84/127 368/85/127
f 363/82/128 370/86/128 366/87/128
f 369/88/129 365/80/129 368/85/129
f 364/102/130 363/82/130 366/87/130 367/84/130
f 368/85/131 367/84/131 372/89/131 373/90/131
f 366/87/132 370/91/132 371/92/132
f 369/93/133 368/85/133 373/90/133
f 367/84/134 366/87/134 371/92/134 372/89/134
f 373/94/135 372/95/135 375/52/135 376/96/135
f 371/97/136 370/3/136 374/98/136
f 369/99/137 373/94/137 376/96/137
f 372/95/138 371/97/138 374/98/138 375/52/138
f 376/96/139 375/52/139 358/72/139 359/71/139
f 374/98/140 370/100/140 357/75/140
f 369/101/141 376/96/141 359/71/141
f 375/52/142 374/98/142 357/75/142 358/72/142
f 409/78/121 399/71/121 402/74/121
f 398/72/122 397/75/122 400/77/122 401/73/122
f 399/71/119 398/72/119 401/73/119 402/74/119
f 397/75/120 410/76/120 400/77/120
f 402/74/123 401/73/123 404/102/123 405/80/123
f 400/77/124 410/103/124 403/82/124
f 409/104/125 402/74/125 405/80/125
f 401/73/126 400/77/126 403/82/126 404/102/126
f 404/102/130 403/82/130 406/87/130 407/84/130
f 405/80/127 404/102/127 407/84/127 408/85/127
f 403/82/128 410/86/128 406/87/128
f 409/88/129 405/80/129 408/85/129
f 409/93/133 408/85/133 413/90/133
f 407/84/134 406/87/134 411/92/134 412/89/134
f 408/85/131 407/84/131 412/89/131 413/90/131
f 406/87/132 410/91/132 411/92/132
f 409/99/137 413/94/137 416/96/137
f 412/95/138 411/97/138 414/98/138 415/52/138
f 413/94/135 412/95/135 415/52/135 416/96/135
f 411/97/136 410/3/136 414/98/136
f 409/101/141 416/96/141 399/71/141
f 415/52/142 414/98/142 397/75/142 398/72/142
f 416/96/139 415/52/139 398/72/139 399/71/139
f 414/98/140 410/100/140 397/75/140
f 439/71/119 438/72/119 441/73/119 442/74/119
f 437/75/120 450/76/120 440/77/120
f 449/78/121 439/71/121 442/74/121
f 438/72/122 437/75/122 440/77/122 441/73/122
f 449/104/125 442/74/125 445/80/125
f 441/73/126 440/77/126 443/82/126 444/102/126
f 442/74/123 441/73/123 444/102/123 445/80/123
f 440/77/124 450/103/124 443/82/124
f 443/82/128 450/86/128 446/87/128
f 449/88/129 445/80/129 448/85/129
f 444/102/130 443/82/130 446/87/130 447/84/130
f 445/80/127 444/102/127 447/84/127 448/85/127
f 448/85/131 447/84/131 452/89/131 453/90/131
f 446/87/132 450/91/132 451/92/132
f 449/93/133 448/85/133 453/90/133
f 447/84/134 446/87/134 451/92/134 452/89/134
f 453/94/135 452/95/135 455/52/135 456/96/135
f 451/97/136 450/3/136 454/98/136
f 449/99/137 453/94/137 456/96/137
f 452/95/138 451/97/138 454/98/138 455/52/138
f 456/96/139 455/52/139 438/72/139 439/71/139
f 454/98/140 450/100/140 437/75/140
f 449/101/141 456/96/141 439/71/141
f 455/52/142 454/98/142 437/75/142 438/72/142
usemtl TomatoRedHi
f 389/78/121 379/71/121 382/74/121
f 378/72/122 377/75/122 380/77/122 381/73/122
f 379/71/119 378/72/119 381/73/119 382/74/119
f 377/75/120 390/76/120 380/77/120
f 382/74/123 381/73/123 384/102/123 385/80/123
f 380/77/124 390/103/124 383/82/124
f 389/104/125 382/74/125 385/80/125
f 381/73/126 380/77/126 383/82/126 384/102/126
f 384/102/130 383/82/130 386/87/130 387/84/130
f 385/80/127 384/102/127 387/84/127 388/85/127
f 383/82/128 390/86/128 386/87/128
f 389/88/129 385/80/129 388/85/129
f 389/93/133 388/85/133 393/90/133
f 387/84/134 386/87/134 391/92/134 392/89/134
f 388/85/131 387/84/131 392/89/131 393/90/131
f 386/87/132 390/91/132 391/92/132
f 389/99/137 393/94/137 396/96/137
f 392/95/138 391/97/138 394/98/138 395/52/138
f 393/94/135 392/95/135 395/52/135 396/96/135
f 391/97/136 390/3/136 394/98/136
f 389/101/141 396/96/141 379/71/141
f 395/52/142 394/98/142 377/75/142 378/72/142
f 396/96/139 395/52/139 378/72/139 379/71/139
f 394/98/140 390/100/140 377/75/140
f 429/78/121 419/71/121 422/74/121
f 418/72/122 417/75/122 420/77/122 421/73/122
f 419/71/119 418/72/119 421/73/119 422/74/119
f 417/75/120 430/76/120 420/77/120
f 429/104/125 422/74/125 425/80/125
f 421/73/126 420/77/126 423/82/126 424/102/126
f 422/74/123 421/73/123 424/102/123 425/80/123
f 420/77/124 430/103/124 423/82/124
f 429/88/129 425/80/129 428/85/129
f 424/102/130 423/82/130 426/87/130 427/84/130
f 425/80/127 424/102/127 427/84/127 428/85/127
f 423/82/128 430/86/128 426/87/128
f 429/93/133 428/85/133 433/90/133
f 427/84/134 426/87/134 431/92/134 432/89/134
f 428/85/131 427/84/131 432/89/131 433/90/131
f 426/87/132 430/91/132 431/92/132
f 431/97/136 430/3/136 434/98/136
f 429/99/137 433/94/137 436/96/137
f 432/95/138 431/97/138 434/98/138 435/52/138
f 433/94/135 432/95/135 435/52/135 436/96/135
f 436/96/139 435/52/139 418/72/139 419/71/139
f 434/98/140 430/100/140 417/75/140
f 429/101/141 436/96/141 419/71/141
f 435/52/142 434/98/142 417/75/142 418/72/142
f 459/71/119 458/72/119 461/73/119 462/74/119
f 457/75/120 470/76/120 460/77/120
f 469/78/121 459/71/121 462/74/121
f 458/72/122 457/75/122 460/77/122 461/73/122
f 469/104/125 462/74/125 465/80/125
f 461/73/126 460/77/126 463/82/126 464/102/126
f 462/74/123 461/73/123 464/102/123 465/80/123
f 460/77/124 470/103/124 463/82/124
f 463/82/128 470/86/128 466/87/128
f 469/88/129 465/80/129 468/85/129
f 464/102/130 463/82/130 466/87/130 467/84/130
f 465/80/127 464/102/127 467/84/127 468/85/127
f 468/85/131 467/84/131 472/89/131 473/90/131
f 466/87/132 470/91/132 471/92/132
f 469/93/133 468/85/133 473/90/133
f 467/84/134 466/87/134 471/92/134 472/89/134
f 473/94/135 472/95/135 475/52/135 476/96/135
f 471/97/136 470/3/136 474/98/136
f 469/99/137 473/94/137 476/96/137
f 472/95/138 471/97/138 474/98/138 475/52/138
f 476/96/139 475/52/139 458/72/139 459/71/139
f 474/98/140 470/100/140 457/75/140
f 469/101/141 476/96/141 459/71/141
f 475/52/142 474/98/142 457/75/142 458/72/142
