# Blender 4.0.2
# www.blender.org
mtllib stage_1.mtl
o Tomato_Stage1
v 0.000000 -0.500000 0.000000
v 0.000000 -0.500000 0.050000
v -0.250000 -0.433013 0.000000
v -0.250000 -0.433013 0.050000
v -0.433013 -0.250000 0.000000
v -0.433013 -0.250000 0.050000
v -0.500000 0.000000 0.000000
v -0.500000 0.000000 0.050000
v -0.433013 0.250000 0.000000
v -0.433013 0.250000 0.050000
v -0.250000 0.433013 0.000000
v -0.250000 0.433013 0.050000
v 0.000000 0.500000 0.000000
v 0.000000 0.500000 0.050000
v 0.250000 0.433013 0.000000
v 0.250000 0.433013 0.050000
v 0.433013 0.250000 0.000000
v 0.433013 0.250000 0.050000
v 0.500000 0.000000 0.000000
v 0.500000 0.000000 0.050000
v 0.433013 -0.250000 0.000000
v 0.433013 -0.250000 0.050000
v 0.250000 -0.433013 0.000000
v 0.250000 -0.433013 0.050000
v 0.029575 -0.020867 0.099934
v 0.030000 -0.034641 0.080000
v 0.042141 -0.028123 0.060066
v -0.003222 0.014398 0.083178
v -0.016382 0.015231 0.056304
v 0.009344 0.007143 0.043311
v 0.010920 0.038893 0.083178
v 0.003618 0.049872 0.056304
v 0.023487 0.031637 0.043311
v 0.057859 0.028123 0.099934
v 0.070000 0.034641 0.080000
v 0.070425 0.020867 0.060066
v 0.058886 -0.005130 0.051809
v 0.041114 0.005130 0.108191
v 0.090656 -0.007143 0.116689
v 0.116382 -0.015231 0.103696
v 0.103222 -0.014398 0.076822
v 0.076513 -0.031637 0.116689
v 0.096382 -0.049872 0.103696
v 0.089080 -0.038893 0.076822
v -0.029575 -0.020867 0.099934
v -0.030000 -0.034641 0.080000
v -0.042141 -0.028123 0.060066
v -0.076513 -0.031637 0.116689
v -0.096382 -0.049872 0.103696
v -0.089080 -0.038893 0.076822
v -0.090656 -0.007143 0.116689
v -0.116382 -0.015231 0.103696
v -0.103222 -0.014398 0.076822
v -0.057859 0.028123 0.099934
v -0.070000 0.034641 0.080000
v -0.070425 0.020867 0.060066
v -0.058886 -0.005130 0.051809
v -0.041114 0.005130 0.108191
v -0.010920 0.038893 0.083178
v -0.003618 0.049872 0.056304
v -0.023487 0.031637 0.043311
v 0.003222 0.014398 0.083178
v 0.016382 0.015231 0.056304
v -0.009344 0.007143 0.043311
v 0.000000 -0.012000 0.050000
v 0.000000 -0.012000 0.110000
v -0.010392 -0.006000 0.050000
v -0.010392 -0.006000 0.110000
v -0.010392 0.006000 0.050000
v -0.010392 0.006000 0.110000
v 0.000000 0.012000 0.050000
v 0.000000 0.012000 0.110000
v 0.010392 0.006000 0.050000
v 0.010392 0.006000 0.110000
v 0.010392 -0.006000 0.050000
v 0.010392 -0.006000 0.110000
vn -0.2588 -0.9659 -0.0000
vn -0.7071 -0.7071 -0.0000
vn -0.9659 -0.2588 -0.0000
vn -0.9659 0.2588 -0.0000
vn -0.7071 0.7071 -0.0000
vn -0.2588 0.9659 -0.0000
vn 0.2588 0.9659 -0.0000
vn 0.7071 0.7071 -0.0000
vn 0.9659 0.2588 -0.0000
vn 0.9659 -0.2588 -0.0000
vn -0.0000 -0.0000 1.0000
vn 0.7071 -0.7071 -0.0000
vn 0.2588 -0.9659 -0.0000
vn -0.0000 -0.0000 -1.0000
vn -0.4849 -0.7000 -0.5242
vn -0.4991 -0.0532 0.8649
vn 0.0646 -0.3786 -0.9233
vn -0.7626 -0.5397 0.3567
vn 0.1479 -0.0854 -0.9853
vn -0.7928 0.4577 0.4024
vn -0.3833 0.2213 -0.8967
vn -0.4352 0.2513 0.8646
vn -0.2035 0.4588 0.8649
vn 0.3602 0.1334 -0.9233
vn 0.0861 0.9303 0.3567
vn 0.3638 0.7699 -0.5242
vn 0.7626 0.5397 -0.3567
vn -0.0646 0.3786 0.9233
vn 0.4991 0.0532 -0.8649
vn 0.4849 0.7000 0.5242
vn 0.7928 -0.4577 -0.4024
vn -0.1479 0.0854 0.9853
vn 0.4352 -0.2513 -0.8646
vn 0.3833 -0.2213 0.8967
vn -0.0861 -0.9303 -0.3567
vn -0.3602 -0.1334 0.9233
vn 0.2035 -0.4588 -0.8649
vn -0.3638 -0.7699 0.5242
vn 0.0861 -0.9303 -0.3567
vn 0.3602 -0.1334 0.9233
vn -0.2035 -0.4588 -0.8649
vn 0.3638 -0.7699 0.5242
vn -0.7928 -0.4577 -0.4024
vn 0.1479 0.0854 0.9853
vn -0.4352 -0.2513 -0.8646
vn -0.3833 -0.2213 0.8967
vn -0.7626 0.5397 -0.3567
vn 0.0646 0.3786 0.9233
vn -0.4991 0.0532 -0.8649
vn -0.4849 0.7000 0.5242
vn -0.3638 0.7699 -0.5242
vn 0.2035 0.4588 0.8649
vn -0.3602 0.1334 -0.9233
vn -0.0861 0.9303 0.3567
vn 0.3833 0.2213 -0.8967
vn 0.4352 0.2513 0.8646
vn -0.1479 -0.0854 -0.9853
vn 0.7928 0.4577 0.4024
vn 0.7626 -0.5397 0.3567
vn 0.4849 -0.7000 -0.5242
vn 0.4991 -0.0532 0.8649
vn -0.0646 -0.3786 -0.9233
vn -0.5000 -0.8660 -0.0000
vn -1.0000 -0.0000 -0.0000
vn -0.5000 0.8660 -0.0000
vn 0.5000 0.8660 -0.0000
vn 1.0000 -0.0000 -0.0000
vn 0.5000 -0.8660 -0.0000
vt 1.000000 0.500000
vt 1.000000 1.000000
vt 0.916667 1.000000
vt 0.916667 0.500000
vt 0.833333 1.000000
vt 0.833333 0.500000
vt 0.750000 1.000000
vt 0.750000 0.500000
vt 0.666667 1.000000
vt 0.666667 0.500000
vt 0.583333 1.000000
vt 0.583333 0.500000
vt 0.500000 1.000000
vt 0.500000 0.500000
vt 0.416667 1.000000
vt 0.416667 0.500000
vt 0.333333 1.000000
vt 0.333333 0.500000
vt 0.250000 1.000000
vt 0.250000 0.500000
vt 0.166667 1.000000
vt 0.166667 0.500000
vt 0.370000 0.457846
vt 0.250000 0.490000
vt 0.130000 0.457846
vt 0.042154 0.370000
vt 0.010000 0.250000
vt 0.042154 0.130000
vt 0.130000 0.042154
vt 0.250000 0.010000
vt 0.370000 0.042154
vt 0.457846 0.130000
vt 0.490000 0.250000
vt 0.457846 0.370000
vt 0.083333 1.000000
vt 0.083333 0.500000
vt 0.000000 1.000000
vt 0.000000 0.500000
vt 0.750000 0.490000
vt 0.870000 0.457846
vt 0.957846 0.370000
vt 0.990000 0.250000
vt 0.957846 0.130000
vt 0.870000 0.042154
vt 0.750000 0.010000
vt 0.630000 0.042154
vt 0.542154 0.130000
vt 0.510000 0.250000
vt 0.542154 0.370000
vt 0.630000 0.457846
vt 0.666667 0.250000
vt 0.666667 0.500000
vt 0.500000 0.500000
vt 0.500000 0.250000
vt 0.666667 0.750000
vt 0.583333 1.000000
vt 0.500000 0.750000
vt 0.583333 0.000000
vt 0.416667 0.000000
vt 0.333333 0.250000
vt 0.333333 0.750000
vt 0.333333 0.500000
vt 0.416667 1.000000
vt 0.250000 1.000000
vt 0.166667 0.750000
vt 0.250000 0.000000
vt 0.166667 0.250000
vt 0.166667 0.500000
vt 0.000000 0.500000
vt 0.000000 0.250000
vt 0.083333 1.000000
vt 0.000000 0.750000
vt 0.083333 0.000000
vt 1.000000 0.250000
vt 1.000000 0.500000
vt 0.833333 0.500000
vt 0.833333 0.250000
vt 1.000000 0.750000
vt 0.833333 0.750000
vt 0.916667 0.000000
vt 0.750000 1.000000
vt 0.750000 0.000000
vt 0.833333 1.000000
vt 0.666667 1.000000
vt 0.666667 0.500000
vt 0.500000 1.000000
vt 0.500000 0.500000
vt 0.333333 1.000000
vt 0.333333 0.500000
vt 0.250000 0.010000
vt 0.166667 1.000000
vt 0.166667 0.500000
vt -0.000000 1.000000
vt -0.000000 0.500000
vt 0.750000 0.010000
s 0
usemtl Soil
f 1/1/1 2/2/1 4/3/1 3/4/1
f 3/4/2 4/3/2 6/5/2 5/6/2
f 5/6/3 6/5/3 8/7/3 7/8/3
f 7/8/4 8/7/4 10/9/4 9/10/4
f 9/10/5 10/9/5 12/11/5 11/12/5
f 11/12/6 12/11/6 14/13/6 13/14/6
f 13/14/7 14/13/7 16/15/7 15/16/7
f 15/16/8 16/15/8 18/17/8 17/18/8
f 17/18/9 18/17/9 20/19/9 19/20/9
f 19/20/10 20/19/10 22/21/10 21/22/10
f 4/23/11 2/24/11 24/25/11 22/26/11 20/27/11 18/28/11 16/29/11 14/30/11 12/31/11 10/32/11 8/33/11 6/34/11
f 21/22/12 22/21/12 24/35/12 23/36/12
f 23/36/13 24/35/13 2/37/13 1/38/13
f 1/39/14 3/40/14 5/41/14 7/42/14 9/43/14 11/44/14 13/45/14 15/46/14 17/47/14 19/48/14 21/49/14 23/50/14
usemtl Leaf
f 27/51/15 26/52/15 29/53/15 30/54/15
f 25/55/16 38/56/16 28/57/16
f 37/58/17 27/51/17 30/54/17
f 26/52/18 25/55/18 28/57/18 29/53/18
f 37/59/19 30/54/19 33/60/19
f 29/53/20 28/57/20 31/61/20 32/62/20
f 30/54/21 29/53/21 32/62/21 33/60/21
f 28/57/22 38/63/22 31/61/22
f 31/61/23 38/64/23 34/65/23
f 37/66/24 33/60/24 36/67/24
f 32/62/25 31/61/25 34/65/25 35/68/25
f 33/60/26 32/62/26 35/68/26 36/67/26
f 36/67/27 35/68/27 40/69/27 41/70/27
f 34/65/28 38/71/28 39/72/28
f 37/73/29 36/67/29 41/70/29
f 35/68/30 34/65/30 39/72/30 40/69/30
f 41/74/31 40/75/31 43/76/31 44/77/31
f 39/78/32 38/3/32 42/79/32
f 37/80/33 41/74/33 44/77/33
f 40/75/34 39/78/34 42/79/34 43/76/34
f 44/77/35 43/76/35 26/52/35 27/51/35
f 42/79/36 38/81/36 25/55/36
f 37/82/37 44/77/37 27/51/37
f 43/76/38 42/79/38 25/55/38 26/52/38
f 47/51/39 46/52/39 49/53/39 50/54/39
f 45/55/40 58/56/40 48/57/40
f 57/58/41 47/51/41 50/54/41
f 46/52/42 45/55/42 48/57/42 49/53/42
f 50/54/43 49/53/43 52/62/43 53/60/43
f 48/57/44 58/63/44 51/61/44
f 57/59/45 50/54/45 53/60/45
f 49/53/46 48/57/46 51/61/46 52/62/46
f 53/60/47 52/62/47 55/68/47 56/67/47
f 51/61/48 58/64/48 54/65/48
f 57/66/49 53/60/49 56/67/49
f 52/62/50 51/61/50 54/65/50 55/68/50
f 56/67/51 55/68/51 60/69/51 61/70/51
f 54/65/52 58/71/52 59/72/52
f 57/73/53 56/67/53 61/70/53
f 55/68/54 54/65/54 59/72/54 60/69/54
f 61/74/55 60/75/55 63/76/55 64/77/55
f 59/78/56 58/3/56 62/79/56
f 57/80/57 61/74/57 64/77/57
f 60/75/58 59/78/58 62/79/58 63/76/58
f 63/76/59 62/79/59 45/55/59 46/52/59
f 64/77/60 63/76/60 46/52/60 47/51/60
f 62/79/61 58/81/61 45/55/61
f 57/82/62 64/77/62 47/51/62
usemtl Stem
f 65/1/63 66/2/63 68/83/63 67/76/63
f 67/76/64 68/83/64 70/84/64 69/85/64
f 69/85/65 70/84/65 72/86/65 71/87/65
f 71/87/66 72/86/66 74/88/66 73/89/66
f 68/34/11 66/24/11 76/26/11 74/28/11 72/90/11 70/32/11
f 73/89/67 74/88/67 76/91/67 75/92/67
f 75/92/68 76/91/68 66/93/68 65/94/68
f 65/39/14 67/41/14 69/43/14 71/95/14 73/47/14 75/49/14
