# Blender 4.0.2
# www.blender.org
mtllib stage_2.mtl
o Tomato_Stage2
v 0.000000 -0.500000 0.000000
v 0.000000 -0.500000 0.050000
v -0.250000 -0.433013 0.000000
v -0.250000 -0.433013 0.050000
v -0.433013 -0.250000 0.000000
v -0.433013 -0.250000 0.050000
v -0.500000 0.000000 0.000000
v -0.500000 0.000000 0.050000
v -0.433013 0.250000 0.000000
v -0.433013 0.250000 0.050000
v -0.250000 0.433013 0.000000
v -0.250000 0.433013 0.050000
v 0.000000 0.500000 0.000000
v 0.000000 0.500000 0.050000
v 0.250000 0.433013 0.000000
v 0.250000 0.433013 0.050000
v 0.433013 0.250000 0.000000
v 0.433013 0.250000 0.050000
v 0.500000 0.000000 0.000000
v 0.500000 0.000000 0.050000
v 0.433013 -0.250000 0.000000
v 0.433013 -0.250000 0.050000
v 0.250000 -0.433013 0.000000
v 0.250000 -0.433013 0.050000
v 0.000000 -0.022000 0.020000
v 0.000000 -0.022000 0.420000
v -0.019053 -0.011000 0.020000
v -0.019053 -0.011000 0.420000
v -0.019053 0.011000 0.020000
v -0.019053 0.011000 0.420000
v 0.000000 0.022000 0.020000
v 0.000000 0.022000 0.420000
v 0.019053 0.011000 0.020000
v 0.019053 0.011000 0.420000
v 0.019053 -0.011000 0.020000
v 0.019053 -0.011000 0.420000
v -0.112679 -0.049497 0.177321
v -0.120000 -0.070000 0.150000
v -0.127320 -0.049497 0.122679
v -0.189575 -0.024749 0.197925
v -0.228747 -0.035000 0.179139
v -0.204216 -0.024749 0.143284
v -0.189575 0.024749 0.197925
v -0.228747 0.035000 0.179139
v -0.204216 0.024749 0.143284
v -0.112679 0.049497 0.177321
v -0.120000 0.070000 0.150000
v -0.127320 0.049497 0.122679
v -0.130353 0.000000 0.111363
v -0.109647 0.000000 0.188637
v -0.035784 0.024749 0.156716
v -0.011253 0.035000 0.120861
v -0.050425 0.024749 0.102075
v -0.035784 -0.024749 0.156716
v -0.011253 -0.035000 0.120861
v -0.050425 -0.024749 0.102075
v 0.112679 0.049497 0.177321
v 0.120000 0.070000 0.150000
v 0.127320 0.049497 0.122679
v 0.189575 0.024749 0.197925
v 0.228747 0.035000 0.179139
v 0.204216 0.024749 0.143284
v 0.189575 -0.024749 0.197925
v 0.228747 -0.035000 0.179139
v 0.204216 -0.024749 0.143284
v 0.112679 -0.049497 0.177321
v 0.120000 -0.070000 0.150000
v 0.127320 -0.049497 0.122679
v 0.130353 0.000000 0.111363
v 0.109647 -0.000000 0.188637
v 0.035784 -0.024749 0.156716
v 0.011253 -0.035000 0.120861
v 0.050425 -0.024749 0.102075
v 0.035784 0.024749 0.156716
v 0.011253 0.035000 0.120861
v 0.050425 0.024749 0.102075
v -0.112679 -0.049497 0.307321
v -0.120000 -0.070000 0.280000
v -0.127320 -0.049497 0.252679
v -0.189575 -0.024749 0.327925
v -0.228747 -0.035000 0.309139
v -0.204216 -0.024749 0.273284
v -0.189575 0.024749 0.327925
v -0.228747 0.035000 0.309139
v -0.204216 0.024749 0.273284
v -0.112679 0.049497 0.307321
v -0.120000 0.070000 0.280000
v -0.127320 0.049497 0.252679
v -0.130353 0.000000 0.241363
v -0.109647 0.000000 0.318637
v -0.035784 0.024749 0.286716
v -0.011253 0.035000 0.250861
v -0.050425 0.024749 0.232075
v -0.035784 -0.024749 0.286716
v -0.011253 -0.035000 0.250861
v -0.050425 -0.024749 0.232075
v 0.112679 0.049497 0.307321
v 0.120000 0.070000 0.280000
v 0.127320 0.049497 0.252679
v 0.189575 0.024749 0.327925
v 0.228747 0.035000 0.309139
v 0.204216 0.024749 0.273284
v 0.189575 -0.024749 0.327925
v 0.228747 -0.035000 0.309139
v 0.204216 -0.024749 0.273284
v 0.112679 -0.049497 0.307321
v 0.120000 -0.070000 0.280000
v 0.127320 -0.049497 0.252679
v 0.130353 0.000000 0.241363
v 0.109647 -0.000000 0.318637
v 0.035784 -0.024749 0.286716
v 0.011253 -0.035000 0.250861
v 0.050425 -0.024749 0.232075
v 0.035784 0.024749 0.286716
v 0.011253 0.035000 0.250861
v 0.050425 0.024749 0.232075
v -0.112679 -0.049497 0.407320
v -0.120000 -0.070000 0.380000
v -0.127320 -0.049497 0.352679
v -0.189575 -0.024749 0.427925
v -0.228747 -0.035000 0.409139
v -0.204216 -0.024749 0.373284
v -0.189575 0.024749 0.427925
v -0.228747 0.035000 0.409139
v -0.204216 0.024749 0.373284
v -0.112679 0.049497 0.407320
v -0.120000 0.070000 0.380000
v -0.127320 0.049497 0.352679
v -0.130353 0.000000 0.341363
v -0.109647 0.000000 0.418637
v -0.035784 0.024749 0.386716
v -0.011253 0.035000 0.350861
v -0.050425 0.024749 0.332075
v -0.035784 -0.024749 0.386716
v -0.011253 -0.035000 0.350861
v -0.050425 -0.024749 0.332075
v 0.112679 0.049497 0.407320
v 0.120000 0.070000 0.380000
v 0.127320 0.049497 0.352679
v 0.189575 0.024749 0.427925
v 0.228747 0.035000 0.409139
v 0.204216 0.024749 0.373284
v 0.189575 -0.024749 0.427925
v 0.228747 -0.035000 0.409139
v 0.204216 -0.024749 0.373284
v 0.112679 -0.049497 0.407320
v 0.120000 -0.070000 0.380000
v 0.127320 -0.049497 0.352679
v 0.130353 0.000000 0.341363
v 0.109647 -0.000000 0.418637
v 0.035784 -0.024749 0.386716
v 0.011253 -0.035000 0.350861
v 0.050425 -0.024749 0.332075
v 0.035784 0.024749 0.386716
v 0.011253 0.035000 0.350861
v 0.050425 0.024749 0.332075
vn -0.2588 -0.9659 -0.0000
vn -0.7071 -0.7071 -0.0000
vn -0.9659 -0.2588 -0.0000
vn -0.9659 0.2588 -0.0000
vn -0.7071 0.7071 -0.0000
vn -0.2588 0.9659 -0.0000
vn 0.2588 0.9659 -0.0000
vn 0.7071 0.7071 -0.0000
vn 0.9659 0.2588 -0.0000
vn 0.9659 -0.2588 -0.0000
vn -0.0000 -0.0000 1.0000
vn 0.7071 -0.7071 -0.0000
vn 0.2588 -0.9659 -0.0000
vn -0.0000 -0.0000 -1.0000
vn -0.5000 -0.8660 -0.0000
vn -1.0000 -0.0000 -0.0000
vn -0.5000 0.8660 -0.0000
vn 0.5000 0.8660 -0.0000
vn 1.0000 -0.0000 -0.0000
vn 0.5000 -0.8660 -0.0000
vn -0.3202 -0.2297 -0.9191
vn -0.0885 -0.7852 0.6129
vn -0.3831 -0.7852 -0.4866
vn 0.1822 -0.2297 0.9560
vn -0.3967 -0.0000 -0.9179
vn -0.4324 -0.0000 0.9017
vn -0.8253 -0.0000 -0.5647
vn 0.1154 -0.0000 0.9933
vn -0.3202 0.2297 -0.9191
vn -0.0885 0.7852 0.6129
vn -0.3831 0.7852 -0.4866
vn 0.1822 0.2297 0.9560
vn -0.1822 0.2297 -0.9560
vn 0.3831 0.7852 0.4866
vn 0.0885 0.7852 -0.6129
vn 0.3202 0.2297 0.9191
vn -0.1154 -0.0000 -0.9933
vn 0.8253 -0.0000 0.5647
vn 0.4324 -0.0000 -0.9017
vn 0.3967 -0.0000 0.9179
vn 0.3202 -0.2297 0.9191
vn -0.1822 -0.2297 -0.9560
vn 0.3831 -0.7852 0.4866
vn 0.0885 -0.7852 -0.6129
vn 0.3831 0.7852 -0.4866
vn -0.1822 0.2297 0.9560
vn 0.3202 0.2297 -0.9191
vn 0.0885 0.7852 0.6129
vn 0.8253 -0.0000 -0.5647
vn -0.1154 -0.0000 0.9933
vn 0.3967 -0.0000 -0.9179
vn 0.4324 -0.0000 0.9017
vn 0.3831 -0.7852 -0.4866
vn -0.1822 -0.2297 0.9560
vn 0.3202 -0.2297 -0.9191
vn 0.0885 -0.7852 0.6129
vn -0.0885 -0.7852 -0.6129
vn -0.3202 -0.2297 0.9191
vn 0.1822 -0.2297 -0.9560
vn -0.3831 -0.7852 0.4866
vn -0.8253 -0.0000 0.5647
vn -0.4324 -0.0000 -0.9017
vn -0.3967 -0.0000 0.9179
vn 0.1154 -0.0000 -0.9933
vn 0.1822 0.2297 -0.9560
vn -0.3831 0.7852 0.4866
vn -0.0885 0.7852 -0.6129
vn -0.3202 0.2297 0.9191
vt 1.000000 0.500000
vt 1.000000 1.000000
vt 0.916667 1.000000
vt 0.916667 0.500000
vt 0.833333 1.000000
vt 0.833333 0.500000
vt 0.750000 1.000000
vt 0.750000 0.500000
vt 0.666667 1.000000
vt 0.666667 0.500000
vt 0.583333 1.000000
vt 0.583333 0.500000
vt 0.500000 1.000000
vt 0.500000 0.500000
vt 0.416667 1.000000
vt 0.416667 0.500000
vt 0.333333 1.000000
vt 0.333333 0.500000
vt 0.250000 1.000000
vt 0.250000 0.500000
vt 0.166667 1.000000
vt 0.166667 0.500000
vt 0.370000 0.457846
vt 0.250000 0.490000
vt 0.130000 0.457846
vt 0.042154 0.370000
vt 0.010000 0.250000
vt 0.042154 0.130000
vt 0.130000 0.042154
vt 0.250000 0.010000
vt 0.370000 0.042154
vt 0.457846 0.130000
vt 0.490000 0.250000
vt 0.457846 0.370000
vt 0.083333 1.000000
vt 0.083333 0.500000
vt 0.000000 1.000000
vt 0.000000 0.500000
vt 0.750000 0.490000
vt 0.870000 0.457846
vt 0.957846 0.370000
vt 0.990000 0.250000
vt 0.957846 0.130000
vt 0.870000 0.042154
vt 0.750000 0.010000
vt 0.630000 0.042154
vt 0.542154 0.130000
vt 0.510000 0.250000
vt 0.542154 0.370000
vt 0.630000 0.457846
vt 0.833333 1.000000
vt 0.833333 0.500000
vt 0.666667 1.000000
vt 0.666667 0.500000
vt 0.500000 1.000000
vt 0.500000 0.500000
vt 0.333333 1.000000
vt 0.333333 0.500000
vt 0.166667 1.000000
vt 0.166667 0.500000
vt -0.000000 1.000000
vt -0.000000 0.500000
vt 0.583333 0.000000
vt 0.666667 0.250000
vt 0.500000 0.250000
vt 0.666667 0.500000
vt 0.666667 0.750000
vt 0.500000 0.750000
vt 0.500000 0.500000
vt 0.583333 1.000000
vt 0.416667 0.000000
vt 0.333333 0.250000
vt 0.333333 0.750000
vt 0.333333 0.500000
vt 0.416667 1.000000
vt 0.250000 0.000000
vt 0.166667 0.250000
vt 0.166667 0.750000
vt 0.166667 0.500000
vt 0.250000 1.000000
vt 0.083333 0.000000
vt 0.000000 0.250000
vt 0.000000 0.750000
vt 0.000000 0.500000
vt 0.083333 1.000000
vt 0.916667 0.000000
vt 1.000000 0.250000
vt 0.833333 0.250000
vt 1.000000 0.500000
vt 1.000000 0.750000
vt 0.833333 0.750000
vt 0.750000 1.000000
vt 0.750000 0.000000
s 0
usemtl Soil
f 1/1/1 2/2/1 4/3/1 3/4/1
f 3/4/2 4/3/2 6/5/2 5/6/2
f 5/6/3 6/5/3 8/7/3 7/8/3
f 7/8/4 8/7/4 10/9/4 9/10/4
f 9/10/5 10/9/5 12/11/5 11/12/5
f 11/12/6 12/11/6 14/13/6 13/14/6
f 13/14/7 14/13/7 16/15/7 15/16/7
f 15/16/8 16/15/8 18/17/8 17/18/8
f 17/18/9 18/17/9 20/19/9 19/20/9
f 19/20/10 20/19/10 22/21/10 21/22/10
f 4/23/11 2/24/11 24/25/11 22/26/11 20/27/11 18/28/11 16/29/11 14/30/11 12/31/11 10/32/11 8/33/11 6/34/11
f 21/22/12 22/21/12 24/35/12 23/36/12
f 23/36/13 24/35/13 2/37/13 1/38/13
f 1/39/14 3/40/14 5/41/14 7/42/14 9/43/14 11/44/14 13/45/14 15/46/14 17/47/14 19/48/14 21/49/14 23/50/14
usemtl Stem
f 25/1/15 26/2/15 28/51/15 27/52/15
f 27/52/16 28/51/16 30/53/16 29/54/16
f 29/54/17 30/53/17 32/55/17 31/56/17
f 31/56/18 32/55/18 34/57/18 33/58/18
f 28/34/11 26/24/11 36/26/11 34/28/11 32/30/11 30/32/11
f 33/58/19 34/57/19 36/59/19 35/60/19
f 35/60/20 36/59/20 26/61/20 25/62/20
f 25/39/14 27/41/14 29/43/14 31/45/14 33/47/14 35/49/14
usemtl Leaf
f 49/63/21 39/64/21 42/65/21
f 38/66/22 37/67/22 40/68/22 41/69/22
f 39/64/23 38/66/23 41/69/23 42/65/23
f 37/67/24 50/70/24 40/68/24
f 49/71/25 42/65/25 45/72/25
f 41/69/26 40/68/26 43/73/26 44/74/26
f 42/65/27 41/69/27 44/74/27 45/72/27
f 40/68/28 50/75/28 43/73/28
f 49/76/29 45/72/29 48/77/29
f 44/74/30 43/73/30 46/78/30 47/79/30
f 45/72/31 44/74/31 47/79/31 48/77/31
f 43/73/32 50/80/32 46/78/32
f 49/81/33 48/77/33 53/82/33
f 47/79/34 46/78/34 51/83/34 52/84/34
f 48/77/35 47/79/35 52/84/35 53/82/35
f 46/78/36 50/85/36 51/83/36
f 49/86/37 53/87/37 56/88/37
f 52/89/38 51/90/38 54/91/38 55/52/38
f 53/87/39 52/89/39 55/52/39 56/88/39
f 51/90/40 50/3/40 54/91/40
f 54/91/41 50/92/41 37/67/41
f 49/93/42 56/88/42 39/64/42
f 55/52/43 54/91/43 37/67/43 38/66/43
f 56/88/44 55/52/44 38/66/44 39/64/44
f 99/64/45 98/66/45 101/69/45 102/65/45
f 97/67/46 110/70/46 100/68/46
f 109/63/47 99/64/47 102/65/47
f 98/66/48 97/67/48 100/68/48 101/69/48
f 102/65/49 101/69/49 104/74/49 105/72/49
f 100/68/50 110/75/50 103/73/50
f 109/71/51 102/65/51 105/72/51
f 101/69/52 100/68/52 103/73/52 104/74/52
f 105/72/53 104/74/53 107/79/53 108/77/53
f 103/73/54 110/80/54 106/78/54
f 109/76/55 105/72/55 108/77/55
f 104/74/56 103/73/56 106/78/56 107/79/56
f 108/77/57 107/79/57 112/84/57 113/82/57
f 106/78/58 110/85/58 111/83/58
f 109/81/59 108/77/59 113/82/59
f 107/79/60 106/78/60 111/83/60 112/84/60
f 112/89/61 111/90/61 114/91/61 115/52/61
f 113/87/62 112/89/62 115/52/62 116/88/62
f 111/90/63 110/3/63 114/91/63
f 109/86/64 113/87/64 116/88/64
f 109/93/65 116/88/65 99/64/65
f 115/52/66 114/91/66 97/67/66 98/66/66
f 116/88/67 115/52/67 98/66/67 99/64/67
f 114/91/68 110/92/68 97/67/68
f 118/66/22 117/67/22 120/68/22 121/69/22
f 119/64/23 118/66/23 121/69/23 122/65/23
f 117/67/24 130/70/24 120/68/24
f 129/63/21 119/64/21 122/65/21
f 122/65/27 121/69/27 124/74/27 125/72/27
f 120/68/28 130/75/28 123/73/28
f 129/71/25 122/65/25 125/72/25
f 121/69/26 120/68/26 123/73/26 124/74/26
f 125/72/31 124/74/31 127/79/31 128/77/31
f 123/73/32 130/80/32 126/78/32
f 129/76/29 125/72/29 128/77/29
f 124/74/30 123/73/30 126/78/30 127/79/30
f 127/79/34 126/78/34 131/83/34 132/84/34
f 128/77/35 127/79/35 132/84/35 133/82/35
f 126/78/36 130/85/36 131/83/36
f 129/81/33 128/77/33 133/82/33
f 129/86/37 133/87/37 136/88/37
f 132/89/38 131/90/38 134/91/38 135/52/38
f 133/87/39 132/89/39 135/52/39 136/88/39
f 131/90/40 130/3/40 134/91/40
f 129/93/42 136/88/42 119/64/42
f 135/52/43 134/91/43 117/67/43 118/66/43
f 136/88/44 135/52/44 118/66/44 119/64/44
f 134/91/41 130/92/41 117/67/41
usemtl LeafDark
f 59/64/45 58/66/45 61/69/45 62/65/45
f 57/67/46 70/70/46 60/68/46
f 69/63/47 59/64/47 62/65/47
f 58/66/48 57/67/48 60/68/48 61/69/48
f 62/65/49 61/69/49 64/74/49 65/72/49
f 60/68/50 70/75/50 63/73/50
f 69/71/51 62/65/51 65/72/51
f 61/69/52 60/68/52 63/73/52 64/74/52
f 65/72/53 64/74/53 67/79/53 68/77/53
f 63/73/54 70/80/54 66/78/54
f 69/76/55 65/72/55 68/77/55
f 64/74/56 63/73/56 66/78/56 67/79/56
f 68/77/57 67/79/57 72/84/57 73/82/57
f 66/78/58 70/85/58 71/83/58
f 69/81/59 68/77/59 73/82/59
f 67/79/60 66/78/60 71/83/60 72/84/60
f 72/89/61 71/90/61 74/91/61 75/52/61
f 73/87/62 72/89/62 75/52/62 76/88/62
f 71/90/63 70/3/63 74/91/63
f 69/86/64 73/87/64 76/88/64
f 69/93/65 76/88/65 59/64/65
f 75/52/66 74/91/66 57/67/66 58/66/66
f 76/88/67 75/52/67 58/66/67 59/64/67
f 74/91/68 70/92/68 57/67/68
f 79/64/23 78/66/23 81/69/23 82/65/23
f 77/67/24 90/70/24 80/68/24
f 89/63/21 79/64/21 82/65/21
f 78/66/22 77/67/22 80/68/22 81/69/22
f 80/68/28 90/75/28 83/73/28
f 89/71/25 82/65/25 85/72/25
f 81/69/26 80/68/26 83/73/26 84/74/26
f 82/65/27 81/69/27 84/74/27 85/72/27
f 85/72/31 84/74/31 87/79/31 88/77/31
f 83/73/32 90/80/32 86/78/32
f 89/76/29 85/72/29 88/77/29
f 84/74/30 83/73/30 86/78/30 87/79/30
f 88/77/35 87/79/35 92/84/35 93/82/35
f 86/78/36 90/85/36 91/83/36
f 89/81/33 88/77/33 93/82/33
f 87/79/34 86/78/34 91/83/34 92/84/34
f 93/87/39 92/89/39 95/52/39 96/88/39
f 91/90/40 90/3/40 94/91/40
f 89/86/37 93/87/37 96/88/37
f 92/89/38 91/90/38 94/91/38 95/52/38
f 96/88/44 95/52/44 78/66/44 79/64/44
f 94/91/41 90/92/41 77/67/41
f 89/93/42 96/88/42 79/64/42
f 95/52/43 94/91/43 77/67/43 78/66/43
f 138/66/48 137/67/48 140/68/48 141/69/48
f 139/64/45 138/66/45 141/69/45 142/65/45
f 137/67/46 150/70/46 140/68/46
f 149/63/47 139/64/47 142/65/47
f 142/65/49 141/69/49 144/74/49 145/72/49
f 140/68/50 150/75/50 143/73/50
f 149/71/51 142/65/51 145/72/51
f 141/69/52 140/68/52 143/73/52 144/74/52
f 145/72/53 144/74/53 147/79/53 148/77/53
f 143/73/54 150/80/54 146/78/54
f 149/76/55 145/72/55 148/77/55
f 144/74/56 143/73/56 146/78/56 147/79/56
f 147/79/60 146/78/60 151/83/60 152/84/60
f 148/77/57 147/79/57 152/84/57 153/82/57
f 146/78/58 150/85/58 151/83/58
f 149/81/59 148/77/59 153/82/59
f 149/86/64 153/87/64 156/88/64
f 152/89/61 151/90/61 154/91/61 155/52/61
f 153/87/62 152/89/62 155/52/62 156/88/62
f 151/90/63 150/3/63 154/91/63
f 149/93/65 156/88/65 139/64/65
f 155/52/66 154/91/66 137/67/66 138/66/66
f 156/88/67 155/52/67 138/66/67 139/64/67
f 154/91/68 150/92/68 137/67/68
