# Blender 4.0.2
# www.blender.org
mtllib 4_mature.mtl
o sunflower_4_mature
v 0.000000 -0.100000 0.000000
v 0.000000 -0.100000 0.020000
v -0.058779 -0.080902 0.000000
v -0.058779 -0.080902 0.020000
v -0.095106 -0.030902 0.000000
v -0.095106 -0.030902 0.020000
v -0.095106 0.030902 0.000000
v -0.095106 0.030902 0.020000
v -0.058779 0.080902 0.000000
v -0.058779 0.080902 0.020000
v 0.000000 0.100000 0.000000
v 0.000000 0.100000 0.020000
v 0.058779 0.080902 0.000000
v 0.058779 0.080902 0.020000
v 0.095106 0.030902 0.000000
v 0.095106 0.030902 0.020000
v 0.095106 -0.030902 0.000000
v 0.095106 -0.030902 0.020000
v 0.058779 -0.080902 0.000000
v 0.058779 -0.080902 0.020000
v 0.000000 -0.014000 0.020000
v 0.000000 -0.014000 1.420000
v -0.013315 -0.004326 0.020000
v -0.013315 -0.004326 1.420000
v -0.008229 0.011326 0.020000
v -0.008229 0.011326 1.420000
v 0.008229 0.011326 0.020000
v 0.008229 0.011326 1.420000
v 0.013315 -0.004326 0.020000
v 0.013315 -0.004326 1.420000
v -0.060000 -0.003271 0.242263
v -0.130913 0.029043 0.233642
v -0.032914 0.047897 0.225671
v 0.027654 -0.001463 0.246540
v -0.032914 -0.050823 0.267409
v -0.130913 -0.031969 0.259438
v -0.087086 0.050823 0.232591
v 0.010913 0.031969 0.240562
v 0.010913 -0.029043 0.266358
v -0.087086 -0.047897 0.274329
v -0.147654 0.001463 0.253460
v -0.060000 0.003271 0.257737
v 0.060000 0.003271 0.242263
v 0.130913 -0.029043 0.233642
v 0.032914 -0.047897 0.225671
v -0.027654 0.001463 0.246540
v 0.032914 0.050823 0.267409
v 0.130913 0.031969 0.259438
v 0.087086 -0.050823 0.232591
v -0.010913 -0.031969 0.240562
v -0.010913 0.029043 0.266358
v 0.087086 0.047897 0.274329
v 0.147654 -0.001463 0.253460
v 0.060000 -0.003271 0.257737
v -0.060000 -0.003271 0.642263
v -0.130913 0.029043 0.633642
v -0.032914 0.047897 0.625671
v 0.027654 -0.001463 0.646540
v -0.032914 -0.050823 0.667409
v -0.130913 -0.031969 0.659438
v -0.087086 0.050823 0.632591
v 0.010913 0.031969 0.640562
v 0.010913 -0.029043 0.666358
v -0.087086 -0.047897 0.674329
v -0.147654 0.001463 0.653460
v -0.060000 0.003271 0.657737
v 0.060000 0.003271 0.642263
v 0.130913 -0.029043 0.633642
v 0.032914 -0.047897 0.625671
v -0.027654 0.001463 0.646540
v 0.032914 0.050823 0.667409
v 0.130913 0.031969 0.659438
v 0.087086 -0.050823 0.632591
v -0.010913 -0.031969 0.640562
v -0.010913 0.029043 0.666358
v 0.087086 0.047897 0.674329
v 0.147654 -0.001463 0.653460
v 0.060000 -0.003271 0.657737
v -0.060000 -0.003271 0.992263
v -0.130913 0.029043 0.983642
v -0.032914 0.047897 0.975671
v 0.027654 -0.001463 0.996540
v -0.032914 -0.050823 1.017409
v -0.130913 -0.031969 1.009438
v -0.087086 0.050823 0.982591
v 0.010913 0.031969 0.990562
v 0.010913 -0.029043 1.016358
v -0.087086 -0.047897 1.024329
v -0.147654 0.001463 1.003460
v -0.060000 0.003271 1.007737
v 0.060000 0.003271 0.992263
v 0.130913 -0.029043 0.983642
v 0.032914 -0.047897 0.975671
v -0.027654 0.001463 0.996540
v 0.032914 0.050823 1.017409
v 0.130913 0.031969 1.009438
v 0.087086 -0.050823 0.982591
v -0.010913 -0.031969 0.990562
v -0.010913 0.029043 1.016358
v 0.087086 0.047897 1.024329
v 0.147654 -0.001463 1.003460
v 0.060000 -0.003271 1.007737
v 0.000000 0.000000 1.462000
v -0.043416 0.031543 1.471950
v 0.016583 0.051038 1.471950
v 0.053665 0.000000 1.471950
v 0.016583 -0.051038 1.471950
v -0.043416 -0.031543 1.471950
v -0.016583 0.051038 1.488050
v 0.043416 0.031543 1.488050
v 0.043416 -0.031543 1.488050
v -0.016583 -0.051038 1.488050
v -0.053665 0.000000 1.488050
v 0.000000 0.000000 1.498000
v -0.032000 0.000000 1.476000
v -0.075416 0.007886 1.478211
v -0.015417 0.012760 1.478211
v 0.021665 0.000000 1.478211
v -0.015417 -0.012760 1.478211
v -0.075416 -0.007886 1.478211
v -0.048583 0.012760 1.481789
v 0.011416 0.007886 1.481789
v 0.011416 -0.007886 1.481789
v -0.048583 -0.012760 1.481789
v -0.085665 0.000000 1.481789
v -0.032000 0.000000 1.484000
v -0.028831 -0.013884 1.476000
v -0.071369 -0.025617 1.478211
v -0.019426 0.004807 1.478211
v 0.019520 0.009400 1.478211
v -0.008354 -0.018185 1.478211
v -0.064526 -0.039827 1.478211
v -0.049308 -0.009583 1.481789
v 0.006864 0.012058 1.481789
v 0.013707 -0.002152 1.481789
v -0.038236 -0.032575 1.481789
v -0.077182 -0.037169 1.481789
v -0.028831 -0.013884 1.484000
v -0.019952 -0.025019 1.476000
v -0.053186 -0.054046 1.478211
v -0.019588 -0.004098 1.478211
v 0.013508 0.016939 1.478211
v 0.000364 -0.020009 1.478211
v -0.040856 -0.063879 1.478211
v -0.040267 -0.030028 1.481789
v 0.000952 0.013842 1.481789
v 0.013283 0.004009 1.481789
v -0.020315 -0.045939 1.481789
v -0.053412 -0.066976 1.481789
v -0.019952 -0.025019 1.484000
v -0.007121 -0.031198 1.476000
v -0.024470 -0.071770 1.478211
v -0.015870 -0.012191 1.478211
v 0.004821 0.021122 1.478211
v 0.009009 -0.017870 1.478211
v -0.009094 -0.075280 1.478211
v -0.023250 -0.044526 1.481789
v -0.005148 0.012885 1.481789
v 0.010228 0.009375 1.481789
v 0.001629 -0.050204 1.481789
v -0.019062 -0.083518 1.481789
v -0.007121 -0.031198 1.484000
v 0.007121 -0.031198 1.476000
v 0.009094 -0.075280 1.478211
v -0.009009 -0.017870 1.478211
v -0.004821 0.021122 1.478211
v 0.015870 -0.012191 1.478211
v 0.024470 -0.071770 1.478211
v -0.001629 -0.050204 1.481789
v -0.010228 0.009375 1.481789
v 0.005148 0.012885 1.481789
v 0.023250 -0.044526 1.481789
v 0.019062 -0.083518 1.481789
v 0.007121 -0.031198 1.484000
v 0.019952 -0.025019 1.476000
v 0.040856 -0.063879 1.478211
v -0.000364 -0.020009 1.478211
v -0.013508 0.016939 1.478211
v 0.019588 -0.004098 1.478211
v 0.053186 -0.054046 1.478211
v 0.020315 -0.045939 1.481789
v -0.013283 0.004009 1.481789
v -0.000952 0.013842 1.481789
v 0.040267 -0.030028 1.481789
v 0.053412 -0.066976 1.481789
v 0.019952 -0.025019 1.484000
v 0.028831 -0.013884 1.476000
v 0.064526 -0.039827 1.478211
v 0.008354 -0.018185 1.478211
v -0.019520 0.009400 1.478211
v 0.019426 0.004807 1.478211
v 0.071369 -0.025617 1.478211
v 0.038236 -0.032575 1.481789
v -0.013707 -0.002152 1.481789
v -0.006864 0.012058 1.481789
v 0.049308 -0.009583 1.481789
v 0.077182 -0.037169 1.481789
v 0.028831 -0.013884 1.484000
v 0.032000 -0.000000 1.476000
v 0.075416 -0.007886 1.478211
v 0.015417 -0.012760 1.478211
v -0.021665 -0.000000 1.478211
v 0.015417 0.012760 1.478211
v 0.075416 0.007886 1.478211
v 0.048583 -0.012760 1.481789
v -0.011416 -0.007886 1.481789
v -0.011416 0.007886 1.481789
v 0.048583 0.012760 1.481789
v 0.085665 0.000000 1.481789
v 0.032000 -0.000000 1.484000
v 0.028831 0.013884 1.476000
v 0.071369 0.025617 1.478211
v 0.019426 -0.004807 1.478211
v -0.019520 -0.009400 1.478211
v 0.008354 0.018185 1.478211
v 0.064526 0.039827 1.478211
v 0.049308 0.009583 1.481789
v -0.006864 -0.012058 1.481789
v -0.013707 0.002152 1.481789
v 0.038236 0.032575 1.481789
v 0.077182 0.037169 1.481789
v 0.028831 0.013884 1.484000
v 0.019952 0.025019 1.476000
v 0.053186 0.054046 1.478211
v 0.019588 0.004098 1.478211
v -0.013508 -0.016939 1.478211
v -0.000364 0.020009 1.478211
v 0.040856 0.063879 1.478211
v 0.040267 0.030028 1.481789
v -0.000952 -0.013842 1.481789
v -0.013283 -0.004009 1.481789
v 0.020315 0.045939 1.481789
v 0.053412 0.066976 1.481789
v 0.019952 0.025019 1.484000
v 0.007121 0.031198 1.476000
v 0.024470 0.071770 1.478211
v 0.015870 0.012191 1.478211
v -0.004821 -0.021122 1.478211
v -0.009009 0.017870 1.478211
v 0.009094 0.075280 1.478211
v 0.023250 0.044526 1.481789
v 0.005148 -0.012885 1.481789
v -0.010228 -0.009375 1.481789
v -0.001629 0.050204 1.481789
v 0.019062 0.083518 1.481789
v 0.007121 0.031198 1.484000
v -0.007121 0.031198 1.476000
v -0.009094 0.075280 1.478211
v 0.009009 0.017870 1.478211
v 0.004821 -0.021122 1.478211
v -0.015870 0.012191 1.478211
v -0.024470 0.071770 1.478211
v 0.001629 0.050204 1.481789
v 0.010228 -0.009375 1.481789
v -0.005148 -0.012885 1.481789
v -0.023250 0.044526 1.481789
v -0.019062 0.083518 1.481789
v -0.007121 0.031198 1.484000
v -0.019952 0.025019 1.476000
v -0.040856 0.063879 1.478211
v 0.000364 0.020009 1.478211
v 0.013508 -0.016939 1.478211
v -0.019588 0.004098 1.478211
v -0.053186 0.054046 1.478211
v -0.020315 0.045939 1.481789
v 0.013283 -0.004009 1.481789
v 0.000952 -0.013842 1.481789
v -0.040267 0.030028 1.481789
v -0.053412 0.066976 1.481789
v -0.019952 0.025019 1.484000
v -0.028831 0.013884 1.476000
v -0.064526 0.039827 1.478211
v -0.008354 0.018185 1.478211
v 0.019520 -0.009400 1.478211
v -0.019426 -0.004807 1.478211
v -0.071369 0.025617 1.478211
v -0.038236 0.032575 1.481789
v 0.013707 0.002152 1.481789
v 0.006864 -0.012058 1.481789
v -0.049308 0.009583 1.481789
v -0.077182 0.037169 1.481789
v -0.028831 0.013884 1.484000
vn -0.3090 -0.9511 -0.0000
vn -0.8090 -0.5878 -0.0000
vn -1.0000 -0.0000 -0.0000
vn -0.8090 0.5878 -0.0000
vn -0.3090 0.9511 -0.0000
vn 0.3090 0.9511 -0.0000
vn 0.8090 0.5878 -0.0000
vn 1.0000 -0.0000 -0.0000
vn -0.0000 -0.0000 1.0000
vn 0.8090 -0.5878 -0.0000
vn 0.3090 -0.9511 -0.0000
vn -0.0000 -0.0000 -1.0000
vn -0.5878 -0.8090 -0.0000
vn -0.9511 0.3090 -0.0000
vn -0.0000 1.0000 -0.0000
vn 0.9511 0.3090 -0.0000
vn 0.5878 -0.8090 -0.0000
vn -0.0201 -0.2987 -0.9541
vn -0.0653 -0.3886 -0.9191
vn 0.0528 -0.3332 -0.9414
vn 0.0528 -0.4431 -0.8949
vn -0.0201 -0.4763 -0.8790
vn -0.4095 -0.3553 -0.8403
vn -0.1148 0.1838 -0.9762
vn 0.3184 -0.0100 -0.9479
vn 0.3184 -0.6730 -0.6676
vn -0.1148 -0.8284 -0.5483
vn -0.3184 0.6730 0.6676
vn 0.1148 0.8284 0.5483
vn 0.4095 0.3553 0.8403
vn 0.1148 -0.1838 0.9762
vn -0.3184 0.0100 0.9479
vn -0.0528 0.4432 0.8949
vn 0.0201 0.4763 0.8790
vn 0.0653 0.3886 0.9191
vn 0.0201 0.2987 0.9541
vn -0.0528 0.3332 0.9414
vn 0.0201 0.2987 -0.9541
vn 0.0653 0.3886 -0.9191
vn -0.0528 0.3332 -0.9414
vn -0.0528 0.4431 -0.8949
vn 0.0201 0.4763 -0.8790
vn 0.4095 0.3553 -0.8403
vn 0.1148 -0.1838 -0.9762
vn -0.3184 0.0100 -0.9479
vn -0.3184 0.6730 -0.6676
vn 0.1148 0.8284 -0.5483
vn 0.3184 -0.6730 0.6676
vn -0.1148 -0.8284 0.5483
vn -0.4095 -0.3553 0.8403
vn -0.1148 0.1838 0.9762
vn 0.3184 -0.0100 0.9479
vn 0.0528 -0.4432 0.8949
vn -0.0201 -0.4763 0.8790
vn -0.0653 -0.3886 0.9191
vn -0.0201 -0.2987 0.9541
vn 0.0528 -0.3332 0.9414
vn 0.4094 0.3553 0.8403
vn -0.0528 0.4431 0.8949
vn -0.4094 -0.3553 0.8403
vn 0.0528 -0.4431 0.8949
vn -0.0690 0.2125 -0.9747
vn -0.2234 -0.0000 -0.9747
vn 0.1807 0.1313 -0.9747
vn 0.1807 -0.1313 -0.9747
vn -0.0690 -0.2125 -0.9747
vn -0.8436 -0.0000 -0.5370
vn -0.2607 0.8023 -0.5370
vn 0.6825 0.4958 -0.5370
vn 0.6825 -0.4958 -0.5370
vn -0.2607 -0.8023 -0.5370
vn -0.6825 0.4958 0.5370
vn 0.2607 0.8023 0.5370
vn 0.8436 -0.0000 0.5370
vn 0.2607 -0.8023 0.5370
vn -0.6825 -0.4958 0.5370
vn -0.1807 0.1313 0.9747
vn 0.0690 0.2125 0.9747
vn 0.2234 -0.0000 0.9747
vn 0.0690 -0.2125 0.9747
vn -0.1807 -0.1313 0.9747
vn -0.0154 0.1902 -0.9816
vn -0.0509 -0.0000 -0.9987
vn 0.0409 0.1188 -0.9921
vn 0.0409 -0.1188 -0.9921
vn -0.0154 -0.1902 -0.9816
vn -0.3296 -0.0000 -0.9441
vn -0.0648 0.7972 -0.6003
vn 0.2133 0.6198 -0.7552
vn 0.2133 -0.6198 -0.7552
vn -0.0648 -0.7972 -0.6003
vn -0.2133 0.6198 0.7552
vn 0.0648 0.7972 0.6003
vn 0.3296 -0.0000 0.9441
vn 0.0648 -0.7972 0.6003
vn -0.2133 -0.6198 0.7552
vn -0.0409 0.1188 0.9921
vn 0.0154 0.1902 0.9816
vn 0.0509 -0.0000 0.9987
vn 0.0154 -0.1902 0.9816
vn -0.0409 -0.1188 0.9921
vn -0.0964 0.1646 -0.9816
vn -0.0458 -0.0221 -0.9987
vn -0.0147 0.1248 -0.9921
vn 0.0884 -0.0893 -0.9921
vn 0.0686 -0.1781 -0.9816
vn -0.2969 -0.1430 -0.9441
vn -0.4042 0.6901 -0.6003
vn -0.0768 0.6510 -0.7552
vn 0.4611 -0.4659 -0.7552
vn 0.2875 -0.7463 -0.6003
vn -0.4611 0.4659 0.7552
vn -0.2875 0.7463 0.6003
vn 0.2969 0.1430 0.9441
vn 0.4042 -0.6901 0.6003
vn 0.0768 -0.6510 0.7552
vn -0.0884 0.0893 0.9921
vn -0.0686 0.1781 0.9816
vn 0.0458 0.0221 0.9987
vn 0.0964 -0.1646 0.9816
vn 0.0147 -0.1248 0.9921
vn -0.1583 0.1065 -0.9816
vn -0.0317 -0.0398 -0.9987
vn -0.0674 0.1060 -0.9921
vn 0.1184 -0.0421 -0.9921
vn 0.1391 -0.1307 -0.9816
vn -0.2055 -0.2577 -0.9441
vn -0.6636 0.4464 -0.6003
vn -0.3516 0.5532 -0.7552
vn 0.6176 -0.2197 -0.7552
vn 0.5829 -0.5476 -0.6003
vn -0.6176 0.2197 0.7552
vn -0.5829 0.5476 0.6003
vn 0.2055 0.2577 0.9441
vn 0.6636 -0.4464 0.6003
vn 0.3516 -0.5532 0.7552
vn -0.1184 0.0421 0.9921
vn -0.1391 0.1307 0.9816
vn 0.0317 0.0398 0.9987
vn 0.1583 -0.1065 0.9816
vn 0.0674 -0.1060 0.9921
vn -0.1889 0.0273 -0.9816
vn -0.0113 -0.0496 -0.9987
vn -0.1067 0.0663 -0.9921
vn 0.1249 0.0134 -0.9921
vn 0.1820 -0.0574 -0.9816
vn -0.0733 -0.3213 -0.9441
vn -0.7916 0.1143 -0.6003
vn -0.5568 0.3459 -0.7552
vn 0.6518 0.0700 -0.7552
vn 0.7628 -0.2405 -0.6003
vn -0.6517 -0.0700 0.7552
vn -0.7628 0.2405 0.6003
vn 0.0733 0.3213 0.9441
vn 0.7916 -0.1143 0.6003
vn 0.5568 -0.3459 0.7552
vn -0.1249 -0.0134 0.9921
vn -0.1820 0.0574 0.9816
vn 0.0113 0.0496 0.9987
vn 0.1888 -0.0273 0.9816
vn 0.1067 -0.0663 0.9921
vn -0.1820 -0.0574 -0.9816
vn 0.0113 -0.0496 -0.9987
vn -0.1249 0.0134 -0.9921
vn 0.1067 0.0663 -0.9921
vn 0.1889 0.0273 -0.9816
vn 0.0733 -0.3213 -0.9441
vn -0.7628 -0.2405 -0.6003
vn -0.6518 0.0700 -0.7552
vn 0.5568 0.3459 -0.7552
vn 0.7916 0.1143 -0.6003
vn -0.5568 -0.3459 0.7552
vn -0.7916 -0.1143 0.6003
vn -0.0733 0.3213 0.9441
vn 0.7628 0.2405 0.6003
vn 0.6517 -0.0700 0.7552
vn -0.1067 -0.0663 0.9921
vn -0.1888 -0.0273 0.9816
vn -0.0113 0.0496 0.9987
vn 0.1820 0.0574 0.9816
vn 0.1249 -0.0134 0.9921
vn -0.1391 -0.1307 -0.9816
vn 0.0317 -0.0398 -0.9987
vn -0.1184 -0.0421 -0.9921
vn 0.0674 0.1060 -0.9921
vn 0.1583 0.1065 -0.9816
vn 0.2055 -0.2577 -0.9441
vn -0.5829 -0.5476 -0.6003
vn -0.6176 -0.2197 -0.7552
vn 0.3516 0.5532 -0.7552
vn 0.6636 0.4464 -0.6003
vn -0.3516 -0.5532 0.7552
vn -0.6636 -0.4464 0.6003
vn -0.2055 0.2577 0.9441
vn 0.5829 0.5476 0.6003
vn 0.6176 0.2197 0.7552
vn -0.0674 -0.1060 0.9921
vn -0.1583 -0.1065 0.9816
vn -0.0317 0.0398 0.9987
vn 0.1391 0.1307 0.9816
vn 0.1183 0.0421 0.9921
vn -0.0686 -0.1781 -0.9816
vn 0.0458 -0.0221 -0.9987
vn -0.0884 -0.0893 -0.9921
vn 0.0147 0.1248 -0.9921
vn 0.0964 0.1646 -0.9816
vn 0.2969 -0.1430 -0.9441
vn -0.2875 -0.7463 -0.6003
vn -0.4611 -0.4659 -0.7552
vn 0.0768 0.6510 -0.7552
vn 0.4042 0.6901 -0.6003
vn -0.0768 -0.6510 0.7552
vn -0.4042 -0.6901 0.6003
vn -0.2969 0.1430 0.9441
vn 0.2876 0.7463 0.6003
vn 0.4611 0.4659 0.7552
vn -0.0147 -0.1248 0.9921
vn -0.0964 -0.1646 0.9816
vn -0.0458 0.0221 0.9987
vn 0.0686 0.1781 0.9816
vn 0.0884 0.0893 0.9921
vn 0.0154 -0.1902 -0.9816
vn 0.0509 -0.0000 -0.9987
vn -0.0409 -0.1188 -0.9921
vn -0.0409 0.1188 -0.9921
vn 0.0154 0.1902 -0.9816
vn 0.3296 -0.0000 -0.9441
vn 0.0648 -0.7972 -0.6003
vn -0.2133 -0.6198 -0.7552
vn -0.2133 0.6198 -0.7552
vn 0.0648 0.7972 -0.6003
vn 0.2133 -0.6198 0.7552
vn -0.0648 -0.7972 0.6003
vn -0.3296 -0.0000 0.9441
vn -0.0648 0.7972 0.6003
vn 0.2133 0.6198 0.7552
vn 0.0409 -0.1188 0.9921
vn -0.0154 -0.1902 0.9816
vn -0.0509 -0.0000 0.9987
vn -0.0154 0.1902 0.9816
vn 0.0409 0.1188 0.9921
vn 0.0964 -0.1646 -0.9816
vn 0.0458 0.0221 -0.9987
vn 0.0147 -0.1248 -0.9921
vn -0.0884 0.0893 -0.9921
vn -0.0686 0.1781 -0.9816
vn 0.2969 0.1430 -0.9441
vn 0.4042 -0.6901 -0.6003
vn 0.0768 -0.6510 -0.7552
vn -0.4611 0.4659 -0.7552
vn -0.2875 0.7463 -0.6003
vn 0.4611 -0.4659 0.7552
vn 0.2875 -0.7463 0.6003
vn -0.2969 -0.1430 0.9441
vn -0.4042 0.6901 0.6003
vn -0.0768 0.6510 0.7552
vn 0.0884 -0.0893 0.9921
vn 0.0686 -0.1781 0.9816
vn -0.0458 -0.0221 0.9987
vn -0.0964 0.1646 0.9816
vn -0.0147 0.1248 0.9921
vn 0.1583 -0.1065 -0.9816
vn 0.0317 0.0398 -0.9987
vn 0.0674 -0.1060 -0.9921
vn -0.1184 0.0421 -0.9921
vn -0.1391 0.1307 -0.9816
vn 0.2055 0.2577 -0.9441
vn 0.6636 -0.4464 -0.6003
vn 0.3516 -0.5532 -0.7552
vn -0.6176 0.2197 -0.7552
vn -0.5829 0.5476 -0.6003
vn 0.6176 -0.2197 0.7552
vn 0.5829 -0.5476 0.6003
vn -0.2055 -0.2577 0.9441
vn -0.6636 0.4464 0.6003
vn -0.3516 0.5532 0.7552
vn 0.1184 -0.0421 0.9921
vn 0.1391 -0.1307 0.9816
vn -0.0317 -0.0398 0.9987
vn -0.1583 0.1065 0.9816
vn -0.0674 0.1060 0.9921
vn 0.1889 -0.0273 -0.9816
vn 0.0113 0.0496 -0.9987
vn 0.1067 -0.0663 -0.9921
vn -0.1249 -0.0134 -0.9921
vn -0.1820 0.0574 -0.9816
vn 0.0733 0.3213 -0.9441
vn 0.7916 -0.1143 -0.6003
vn 0.5568 -0.3459 -0.7552
vn -0.6517 -0.0700 -0.7552
vn -0.7628 0.2405 -0.6003
vn 0.6517 0.0700 0.7552
vn 0.7628 -0.2405 0.6003
vn -0.0733 -0.3213 0.9441
vn -0.7916 0.1143 0.6003
vn -0.5568 0.3459 0.7552
vn 0.1249 0.0134 0.9921
vn 0.1820 -0.0574 0.9816
vn -0.0113 -0.0496 0.9987
vn -0.1888 0.0273 0.9816
vn -0.1067 0.0663 0.9921
vn 0.1820 0.0574 -0.9816
vn -0.0113 0.0496 -0.9987
vn 0.1249 -0.0134 -0.9921
vn -0.1067 -0.0663 -0.9921
vn -0.1888 -0.0273 -0.9816
vn -0.0733 0.3213 -0.9441
vn 0.7628 0.2405 -0.6003
vn 0.6517 -0.0700 -0.7552
vn -0.5568 -0.3459 -0.7552
vn -0.7916 -0.1143 -0.6003
vn 0.5568 0.3459 0.7552
vn 0.7916 0.1143 0.6003
vn 0.0733 -0.3213 0.9441
vn -0.7628 -0.2405 0.6003
vn -0.6517 0.0700 0.7552
vn 0.1067 0.0663 0.9921
vn 0.1888 0.0273 0.9816
vn 0.0113 -0.0496 0.9987
vn -0.1820 -0.0574 0.9816
vn -0.1249 0.0134 0.9921
vn 0.1391 0.1307 -0.9816
vn -0.0317 0.0398 -0.9987
vn 0.1184 0.0421 -0.9921
vn -0.0674 -0.1060 -0.9921
vn -0.1583 -0.1065 -0.9816
vn -0.2055 0.2577 -0.9441
vn 0.5829 0.5476 -0.6003
vn 0.6176 0.2197 -0.7552
vn -0.3516 -0.5532 -0.7552
vn -0.6636 -0.4464 -0.6003
vn 0.3516 0.5532 0.7552
vn 0.6636 0.4464 0.6003
vn 0.2055 -0.2577 0.9441
vn -0.5829 -0.5476 0.6003
vn -0.6176 -0.2197 0.7552
vn 0.0674 0.1060 0.9921
vn 0.1583 0.1065 0.9816
vn 0.0317 -0.0398 0.9987
vn -0.1391 -0.1307 0.9816
vn -0.1184 -0.0421 0.9921
vn 0.0686 0.1781 -0.9816
vn -0.0458 0.0221 -0.9987
vn 0.0884 0.0893 -0.9921
vn -0.0147 -0.1248 -0.9921
vn -0.0964 -0.1646 -0.9816
vn -0.2969 0.1430 -0.9441
vn 0.2875 0.7463 -0.6003
vn 0.4611 0.4659 -0.7552
vn -0.0768 -0.6510 -0.7552
vn -0.4042 -0.6901 -0.6003
vn 0.0768 0.6510 0.7552
vn 0.4042 0.6901 0.6003
vn 0.2969 -0.1430 0.9441
vn -0.2875 -0.7463 0.6003
vn -0.4611 -0.4659 0.7552
vn 0.0147 0.1248 0.9921
vn 0.0964 0.1646 0.9816
vn 0.0458 -0.0221 0.9987
vn -0.0686 -0.1781 0.9816
vn -0.0884 -0.0893 0.9921
vt 1.000000 0.500000
vt 1.000000 1.000000
vt 0.900000 1.000000
vt 0.900000 0.500000
vt 0.800000 1.000000
vt 0.800000 0.500000
vt 0.700000 1.000000
vt 0.700000 0.500000
vt 0.600000 1.000000
vt 0.600000 0.500000
vt 0.500000 1.000000
vt 0.500000 0.500000
vt 0.400000 1.000000
vt 0.400000 0.500000
vt 0.300000 1.000000
vt 0.300000 0.500000
vt 0.200000 1.000000
vt 0.200000 0.500000
vt 0.391068 0.444164
vt 0.250000 0.490000
vt 0.108932 0.444164
vt 0.021746 0.324164
vt 0.021746 0.175836
vt 0.108932 0.055836
vt 0.250000 0.010000
vt 0.391068 0.055836
vt 0.478254 0.175836
vt 0.478254 0.324164
vt 0.100000 1.000000
vt 0.100000 0.500000
vt -0.000000 1.000000
vt -0.000000 0.500000
vt 0.750000 0.490000
vt 0.891068 0.444164
vt 0.978254 0.324164
vt 0.978254 0.175836
vt 0.891068 0.055836
vt 0.750000 0.010000
vt 0.608932 0.055836
vt 0.521746 0.175836
vt 0.521746 0.324164
vt 0.608932 0.444164
vt 0.800000 1.000000
vt 0.800000 0.500000
vt 0.600000 1.000000
vt 0.600000 0.500000
vt 0.400000 1.000000
vt 0.400000 0.500000
vt 0.478254 0.324164
vt 0.021746 0.324164
vt 0.108932 0.055836
vt 0.200000 1.000000
vt 0.200000 0.500000
vt 0.000000 1.000000
vt 0.000000 0.500000
vt 0.978254 0.324164
vt 0.521746 0.324164
vt 0.181819 0.000000
vt 0.272728 0.157461
vt 0.090910 0.157461
vt 0.363637 0.000000
vt 0.454546 0.157461
vt 0.909091 0.000000
vt 1.000000 0.157461
vt 0.818182 0.157461
vt 0.727273 0.000000
vt 0.636364 0.157461
vt 0.545455 0.000000
vt 0.363637 0.314921
vt 0.181819 0.314921
vt 0.909091 0.314921
vt 0.727273 0.314921
vt 0.545455 0.314921
vt 0.000000 0.314921
vt 0.272728 0.472382
vt 0.090910 0.472382
vt 0.818182 0.472382
vt 0.636364 0.472382
vt 0.454546 0.472382
s 0
usemtl soil
f 1/1/1 2/2/1 4/3/1 3/4/1
f 3/4/2 4/3/2 6/5/2 5/6/2
f 5/6/3 6/5/3 8/7/3 7/8/3
f 7/8/4 8/7/4 10/9/4 9/10/4
f 9/10/5 10/9/5 12/11/5 11/12/5
f 11/12/6 12/11/6 14/13/6 13/14/6
f 13/14/7 14/13/7 16/15/7 15/16/7
f 15/16/8 16/15/8 18/17/8 17/18/8
f 4/19/9 2/20/9 20/21/9 18/22/9 16/23/9 14/24/9 12/25/9 10/26/9 8/27/9 6/28/9
f 17/18/10 18/17/10 20/29/10 19/30/10
f 19/30/11 20/29/11 2/31/11 1/32/11
f 1/33/12 3/34/12 5/35/12 7/36/12 9/37/12 11/38/12 13/39/12 15/40/12 17/41/12 19/42/12
usemtl stem
f 21/1/13 22/2/13 24/43/13 23/44/13
f 23/44/14 24/43/14 26/45/14 25/46/14
f 25/46/15 26/45/15 28/47/15 27/48/15
f 24/49/9 22/20/9 30/50/9 28/51/9 26/26/9
f 27/48/16 28/47/16 30/52/16 29/53/16
f 29/53/17 30/52/17 22/54/17 21/55/17
f 21/33/12 23/56/12 25/37/12 27/39/12 29/57/12
usemtl leaf
f 31/58/18 32/59/18 33/60/18
f 32/59/19 31/61/19 36/62/19
f 31/63/20 33/64/20 34/65/20
f 31/66/21 34/65/21 35/67/21
f 31/68/22 35/67/22 36/62/22
f 32/59/23 36/62/23 41/69/23
f 33/60/24 32/59/24 37/70/24
f 34/65/25 33/64/25 38/71/25
f 35/67/26 34/65/26 39/72/26
f 36/62/27 35/67/27 40/73/27
f 32/59/28 41/69/28 37/70/28
f 33/60/29 37/70/29 38/74/29
f 34/65/30 38/71/30 39/72/30
f 35/67/31 39/72/31 40/73/31
f 36/62/32 40/73/32 41/69/32
f 37/70/33 41/69/33 42/75/33
f 38/74/34 37/70/34 42/76/34
f 39/72/35 38/71/35 42/77/35
f 40/73/36 39/72/36 42/78/36
f 41/69/37 40/73/37 42/79/37
f 43/58/38 44/59/38 45/60/38
f 44/59/39 43/61/39 48/62/39
f 43/63/40 45/64/40 46/65/40
f 43/66/41 46/65/41 47/67/41
f 43/68/42 47/67/42 48/62/42
f 44/59/43 48/62/43 53/69/43
f 45/60/44 44/59/44 49/70/44
f 46/65/45 45/64/45 50/71/45
f 47/67/46 46/65/46 51/72/46
f 48/62/47 47/67/47 52/73/47
f 44/59/48 53/69/48 49/70/48
f 45/60/49 49/70/49 50/74/49
f 46/65/50 50/71/50 51/72/50
f 47/67/51 51/72/51 52/73/51
f 48/62/52 52/73/52 53/69/52
f 49/70/53 53/69/53 54/75/53
f 50/74/54 49/70/54 54/76/54
f 51/72/55 50/71/55 54/77/55
f 52/73/56 51/72/56 54/78/56
f 53/69/57 52/73/57 54/79/57
f 55/58/18 56/59/18 57/60/18
f 56/59/19 55/61/19 60/62/19
f 55/63/20 57/64/20 58/65/20
f 55/66/21 58/65/21 59/67/21
f 55/68/22 59/67/22 60/62/22
f 56/59/23 60/62/23 65/69/23
f 57/60/24 56/59/24 61/70/24
f 58/65/25 57/64/25 62/71/25
f 59/67/26 58/65/26 63/72/26
f 60/62/27 59/67/27 64/73/27
f 56/59/28 65/69/28 61/70/28
f 57/60/29 61/70/29 62/74/29
f 58/65/58 62/71/58 63/72/58
f 59/67/31 63/72/31 64/73/31
f 60/62/32 64/73/32 65/69/32
f 61/70/59 65/69/59 66/75/59
f 62/74/34 61/70/34 66/76/34
f 63/72/35 62/71/35 66/77/35
f 64/73/36 63/72/36 66/78/36
f 65/69/37 64/73/37 66/79/37
f 67/58/38 68/59/38 69/60/38
f 68/59/39 67/61/39 72/62/39
f 67/63/40 69/64/40 70/65/40
f 67/66/41 70/65/41 71/67/41
f 67/68/42 71/67/42 72/62/42
f 68/59/43 72/62/43 77/69/43
f 69/60/44 68/59/44 73/70/44
f 70/65/45 69/64/45 74/71/45
f 71/67/46 70/65/46 75/72/46
f 72/62/47 71/67/47 76/73/47
f 68/59/48 77/69/48 73/70/48
f 69/60/49 73/70/49 74/74/49
f 70/65/60 74/71/60 75/72/60
f 71/67/51 75/72/51 76/73/51
f 72/62/52 76/73/52 77/69/52
f 73/70/61 77/69/61 78/75/61
f 74/74/54 73/70/54 78/76/54
f 75/72/55 74/71/55 78/77/55
f 76/73/56 75/72/56 78/78/56
f 77/69/57 76/73/57 78/79/57
f 79/58/18 80/59/18 81/60/18
f 80/59/19 79/61/19 84/62/19
f 79/63/20 81/64/20 82/65/20
f 79/66/21 82/65/21 83/67/21
f 79/68/22 83/67/22 84/62/22
f 80/59/23 84/62/23 89/69/23
f 81/60/24 80/59/24 85/70/24
f 82/65/25 81/64/25 86/71/25
f 83/67/26 82/65/26 87/72/26
f 84/62/27 83/67/27 88/73/27
f 80/59/28 89/69/28 85/70/28
f 81/60/29 85/70/29 86/74/29
f 82/65/58 86/71/58 87/72/58
f 83/67/31 87/72/31 88/73/31
f 84/62/32 88/73/32 89/69/32
f 85/70/59 89/69/59 90/75/59
f 86/74/34 85/70/34 90/76/34
f 87/72/35 86/71/35 90/77/35
f 88/73/36 87/72/36 90/78/36
f 89/69/37 88/73/37 90/79/37
f 91/58/38 92/59/38 93/60/38
f 92/59/39 91/61/39 96/62/39
f 91/63/40 93/64/40 94/65/40
f 91/66/41 94/65/41 95/67/41
f 91/68/42 95/67/42 96/62/42
f 92/59/43 96/62/43 101/69/43
f 93/60/44 92/59/44 97/70/44
f 94/65/45 93/64/45 98/71/45
f 95/67/46 94/65/46 99/72/46
f 96/62/47 95/67/47 100/73/47
f 92/59/48 101/69/48 97/70/48
f 93/60/49 97/70/49 98/74/49
f 94/65/50 98/71/50 99/72/50
f 95/67/51 99/72/51 100/73/51
f 96/62/52 100/73/52 101/69/52
f 97/70/61 101/69/61 102/75/61
f 98/74/54 97/70/54 102/76/54
f 99/72/55 98/71/55 102/77/55
f 100/73/56 99/72/56 102/78/56
f 101/69/57 100/73/57 102/79/57
usemtl center
f 103/58/62 104/59/62 105/60/62
f 104/59/63 103/61/63 108/62/63
f 103/63/64 105/64/64 106/65/64
f 103/66/65 106/65/65 107/67/65
f 103/68/66 107/67/66 108/62/66
f 104/59/67 108/62/67 113/69/67
f 105/60/68 104/59/68 109/70/68
f 106/65/69 105/64/69 110/71/69
f 107/67/70 106/65/70 111/72/70
f 108/62/71 107/67/71 112/73/71
f 104/59/72 113/69/72 109/70/72
f 105/60/73 109/70/73 110/74/73
f 106/65/74 110/71/74 111/72/74
f 107/67/75 111/72/75 112/73/75
f 108/62/76 112/73/76 113/69/76
f 109/70/77 113/69/77 114/75/77
f 110/74/78 109/70/78 114/76/78
f 111/72/79 110/71/79 114/77/79
f 112/73/80 111/72/80 114/78/80
f 113/69/81 112/73/81 114/79/81
usemtl petal
f 115/58/82 116/59/82 117/60/82
f 116/59/83 115/61/83 120/62/83
f 115/63/84 117/64/84 118/65/84
f 115/66/85 118/65/85 119/67/85
f 115/68/86 119/67/86 120/62/86
f 116/59/87 120/62/87 125/69/87
f 117/60/88 116/59/88 121/70/88
f 118/65/89 117/64/89 122/71/89
f 119/67/90 118/65/90 123/72/90
f 120/62/91 119/67/91 124/73/91
f 116/59/92 125/69/92 121/70/92
f 117/60/93 121/70/93 122/74/93
f 118/65/94 122/71/94 123/72/94
f 119/67/95 123/72/95 124/73/95
f 120/62/96 124/73/96 125/69/96
f 121/70/97 125/69/97 126/75/97
f 122/74/98 121/70/98 126/76/98
f 123/72/99 122/71/99 126/77/99
f 124/73/100 123/72/100 126/78/100
f 125/69/101 124/73/101 126/79/101
f 127/58/102 128/59/102 129/60/102
f 128/59/103 127/61/103 132/62/103
f 127/63/104 129/64/104 130/65/104
f 127/66/105 130/65/105 131/67/105
f 127/68/106 131/67/106 132/62/106
f 128/59/107 132/62/107 137/69/107
f 129/60/108 128/59/108 133/70/108
f 130/65/109 129/64/109 134/71/109
f 131/67/110 130/65/110 135/72/110
f 132/62/111 131/67/111 136/73/111
f 128/59/112 137/69/112 133/70/112
f 129/60/113 133/70/113 134/74/113
f 130/65/114 134/71/114 135/72/114
f 131/67/115 135/72/115 136/73/115
f 132/62/116 136/73/116 137/69/116
f 133/70/117 137/69/117 138/75/117
f 134/74/118 133/70/118 138/76/118
f 135/72/119 134/71/119 138/77/119
f 136/73/120 135/72/120 138/78/120
f 137/69/121 136/73/121 138/79/121
f 139/58/122 140/59/122 141/60/122
f 140/59/123 139/61/123 144/62/123
f 139/63/124 141/64/124 142/65/124
f 139/66/125 142/65/125 143/67/125
f 139/68/126 143/67/126 144/62/126
f 140/59/127 144/62/127 149/69/127
f 141/60/128 140/59/128 145/70/128
f 142/65/129 141/64/129 146/71/129
f 143/67/130 142/65/130 147/72/130
f 144/62/131 143/67/131 148/73/131
f 140/59/132 149/69/132 145/70/132
f 141/60/133 145/70/133 146/74/133
f 142/65/134 146/71/134 147/72/134
f 143/67/135 147/72/135 148/73/135
f 144/62/136 148/73/136 149/69/136
f 145/70/137 149/69/137 150/75/137
f 146/74/138 145/70/138 150/76/138
f 147/72/139 146/71/139 150/77/139
f 148/73/140 147/72/140 150/78/140
f 149/69/141 148/73/141 150/79/141
f 151/58/142 152/59/142 153/60/142
f 152/59/143 151/61/143 156/62/143
f 151/63/144 153/64/144 154/65/144
f 151/66/145 154/65/145 155/67/145
f 151/68/146 155/67/146 156/62/146
f 152/59/147 156/62/147 161/69/147
f 153/60/148 152/59/148 157/70/148
f 154/65/149 153/64/149 158/71/149
f 155/67/150 154/65/150 159/72/150
f 156/62/151 155/67/151 160/73/151
f 152/59/152 161/69/152 157/70/152
f 153/60/153 157/70/153 158/74/153
f 154/65/154 158/71/154 159/72/154
f 155/67/155 159/72/155 160/73/155
f 156/62/156 160/73/156 161/69/156
f 157/70/157 161/69/157 162/75/157
f 158/74/158 157/70/158 162/76/158
f 159/72/159 158/71/159 162/77/159
f 160/73/160 159/72/160 162/78/160
f 161/69/161 160/73/161 162/79/161
f 163/58/162 164/59/162 165/60/162
f 164/59/163 163/61/163 168/62/163
f 163/63/164 165/64/164 166/65/164
f 163/66/165 166/65/165 167/67/165
f 163/68/166 167/67/166 168/62/166
f 164/59/167 168/62/167 173/69/167
f 165/60/168 164/59/168 169/70/168
f 166/65/169 165/64/169 170/71/169
f 167/67/170 166/65/170 171/72/170
f 168/62/171 167/67/171 172/73/171
f 164/59/172 173/69/172 169/70/172
f 165/60/173 169/70/173 170/74/173
f 166/65/174 170/71/174 171/72/174
f 167/67/175 171/72/175 172/73/175
f 168/62/176 172/73/176 173/69/176
f 169/70/177 173/69/177 174/75/177
f 170/74/178 169/70/178 174/76/178
f 171/72/179 170/71/179 174/77/179
f 172/73/180 171/72/180 174/78/180
f 173/69/181 172/73/181 174/79/181
f 175/58/182 176/59/182 177/60/182
f 176/59/183 175/61/183 180/62/183
f 175/63/184 177/64/184 178/65/184
f 175/66/185 178/65/185 179/67/185
f 175/68/186 179/67/186 180/62/186
f 176/59/187 180/62/187 185/69/187
f 177/60/188 176/59/188 181/70/188
f 178/65/189 177/64/189 182/71/189
f 179/67/190 178/65/190 183/72/190
f 180/62/191 179/67/191 184/73/191
f 176/59/192 185/69/192 181/70/192
f 177/60/193 181/70/193 182/74/193
f 178/65/194 182/71/194 183/72/194
f 179/67/195 183/72/195 184/73/195
f 180/62/196 184/73/196 185/69/196
f 181/70/197 185/69/197 186/75/197
f 182/74/198 181/70/198 186/76/198
f 183/72/199 182/71/199 186/77/199
f 184/73/200 183/72/200 186/78/200
f 185/69/201 184/73/201 186/79/201
f 187/58/202 188/59/202 189/60/202
f 188/59/203 187/61/203 192/62/203
f 187/63/204 189/64/204 190/65/204
f 187/66/205 190/65/205 191/67/205
f 187/68/206 191/67/206 192/62/206
f 188/59/207 192/62/207 197/69/207
f 189/60/208 188/59/208 193/70/208
f 190/65/209 189/64/209 194/71/209
f 191/67/210 190/65/210 195/72/210
f 192/62/211 191/67/211 196/73/211
f 188/59/212 197/69/212 193/70/212
f 189/60/213 193/70/213 194/74/213
f 190/65/214 194/71/214 195/72/214
f 191/67/215 195/72/215 196/73/215
f 192/62/216 196/73/216 197/69/216
f 193/70/217 197/69/217 198/75/217
f 194/74/218 193/70/218 198/76/218
f 195/72/219 194/71/219 198/77/219
f 196/73/220 195/72/220 198/78/220
f 197/69/221 196/73/221 198/79/221
f 199/58/222 200/59/222 201/60/222
f 200/59/223 199/61/223 204/62/223
f 199/63/224 201/64/224 202/65/224
f 199/66/225 202/65/225 203/67/225
f 199/68/226 203/67/226 204/62/226
f 200/59/227 204/62/227 209/69/227
f 201/60/228 200/59/228 205/70/228
f 202/65/229 201/64/229 206/71/229
f 203/67/230 202/65/230 207/72/230
f 204/62/231 203/67/231 208/73/231
f 200/59/232 209/69/232 205/70/232
f 201/60/233 205/70/233 206/74/233
f 202/65/234 206/71/234 207/72/234
f 203/67/235 207/72/235 208/73/235
f 204/62/236 208/73/236 209/69/236
f 205/70/237 209/69/237 210/75/237
f 206/74/238 205/70/238 210/76/238
f 207/72/239 206/71/239 210/77/239
f 208/73/240 207/72/240 210/78/240
f 209/69/241 208/73/241 210/79/241
f 211/58/242 212/59/242 213/60/242
f 212/59/243 211/61/243 216/62/243
f 211/63/244 213/64/244 214/65/244
f 211/66/245 214/65/245 215/67/245
f 211/68/246 215/67/246 216/62/246
f 212/59/247 216/62/247 221/69/247
f 213/60/248 212/59/248 217/70/248
f 214/65/249 213/64/249 218/71/249
f 215/67/250 214/65/250 219/72/250
f 216/62/251 215/67/251 220/73/251
f 212/59/252 221/69/252 217/70/252
f 213/60/253 217/70/253 218/74/253
f 214/65/254 218/71/254 219/72/254
f 215/67/255 219/72/255 220/73/255
f 216/62/256 220/73/256 221/69/256
f 217/70/257 221/69/257 222/75/257
f 218/74/258 217/70/258 222/76/258
f 219/72/259 218/71/259 222/77/259
f 220/73/260 219/72/260 222/78/260
f 221/69/261 220/73/261 222/79/261
f 223/58/262 224/59/262 225/60/262
f 224/59/263 223/61/263 228/62/263
f 223/63/264 225/64/264 226/65/264
f 223/66/265 226/65/265 227/67/265
f 223/68/266 227/67/266 228/62/266
f 224/59/267 228/62/267 233/69/267
f 225/60/268 224/59/268 229/70/268
f 226/65/269 225/64/269 230/71/269
f 227/67/270 226/65/270 231/72/270
f 228/62/271 227/67/271 232/73/271
f 224/59/272 233/69/272 229/70/272
f 225/60/273 229/70/273 230/74/273
f 226/65/274 230/71/274 231/72/274
f 227/67/275 231/72/275 232/73/275
f 228/62/276 232/73/276 233/69/276
f 229/70/277 233/69/277 234/75/277
f 230/74/278 229/70/278 234/76/278
f 231/72/279 230/71/279 234/77/279
f 232/73/280 231/72/280 234/78/280
f 233/69/281 232/73/281 234/79/281
f 235/58/282 236/59/282 237/60/282
f 236/59/283 235/61/283 240/62/283
f 235/63/284 237/64/284 238/65/284
f 235/66/285 238/65/285 239/67/285
f 235/68/286 239/67/286 240/62/286
f 236/59/287 240/62/287 245/69/287
f 237/60/288 236/59/288 241/70/288
f 238/65/289 237/64/289 242/71/289
f 239/67/290 238/65/290 243/72/290
f 240/62/291 239/67/291 244/73/291
f 236/59/292 245/69/292 241/70/292
f 237/60/293 241/70/293 242/74/293
f 238/65/294 242/71/294 243/72/294
f 239/67/295 243/72/295 244/73/295
f 240/62/296 244/73/296 245/69/296
f 241/70/297 245/69/297 246/75/297
f 242/74/298 241/70/298 246/76/298
f 243/72/299 242/71/299 246/77/299
f 244/73/300 243/72/300 246/78/300
f 245/69/301 244/73/301 246/79/301
f 247/58/302 248/59/302 249/60/302
f 248/59/303 247/61/303 252/62/303
f 247/63/304 249/64/304 250/65/304
f 247/66/305 250/65/305 251/67/305
f 247/68/306 251/67/306 252/62/306
f 248/59/307 252/62/307 257/69/307
f 249/60/308 248/59/308 253/70/308
f 250/65/309 249/64/309 254/71/309
f 251/67/310 250/65/310 255/72/310
f 252/62/311 251/67/311 256/73/311
f 248/59/312 257/69/312 253/70/312
f 249/60/313 253/70/313 254/74/313
f 250/65/314 254/71/314 255/72/314
f 251/67/315 255/72/315 256/73/315
f 252/62/316 256/73/316 257/69/316
f 253/70/317 257/69/317 258/75/317
f 254/74/318 253/70/318 258/76/318
f 255/72/319 254/71/319 258/77/319
f 256/73/320 255/72/320 258/78/320
f 257/69/321 256/73/321 258/79/321
f 259/58/322 260/59/322 261/60/322
f 260/59/323 259/61/323 264/62/323
f 259/63/324 261/64/324 262/65/324
f 259/66/325 262/65/325 263/67/325
f 259/68/326 263/67/326 264/62/326
f 260/59/327 264/62/327 269/69/327
f 261/60/328 260/59/328 265/70/328
f 262/65/329 261/64/329 266/71/329
f 263/67/330 262/65/330 267/72/330
f 264/62/331 263/67/331 268/73/331
f 260/59/332 269/69/332 265/70/332
f 261/60/333 265/70/333 266/74/333
f 262/65/334 266/71/334 267/72/334
f 263/67/335 267/72/335 268/73/335
f 264/62/336 268/73/336 269/69/336
f 265/70/337 269/69/337 270/75/337
f 266/74/338 265/70/338 270/76/338
f 267/72/339 266/71/339 270/77/339
f 268/73/340 267/72/340 270/78/340
f 269/69/341 268/73/341 270/79/341
f 271/58/342 272/59/342 273/60/342
f 272/59/343 271/61/343 276/62/343
f 271/63/344 273/64/344 274/65/344
f 271/66/345 274/65/345 275/67/345
f 271/68/346 275/67/346 276/62/346
f 272/59/347 276/62/347 281/69/347
f 273/60/348 272/59/348 277/70/348
f 274/65/349 273/64/349 278/71/349
f 275/67/350 274/65/350 279/72/350
f 276/62/351 275/67/351 280/73/351
f 272/59/352 281/69/352 277/70/352
f 273/60/353 277/70/353 278/74/353
f 274/65/354 278/71/354 279/72/354
f 275/67/355 279/72/355 280/73/355
f 276/62/356 280/73/356 281/69/356
f 277/70/357 281/69/357 282/75/357
f 278/74/358 277/70/358 282/76/358
f 279/72/359 278/71/359 282/77/359
f 280/73/360 279/72/360 282/78/360
f 281/69/361 280/73/361 282/79/361
