# Blender 4.0.2
# www.blender.org
mtllib stage_3.mtl
o Tomato_Stage3_v2
v 0.000000 -0.200000 0.000000
v 0.000000 -0.200000 0.020000
v -0.141421 -0.141421 0.000000
v -0.141421 -0.141421 0.020000
v -0.200000 0.000000 0.000000
v -0.200000 0.000000 0.020000
v -0.141421 0.141421 0.000000
v -0.141421 0.141421 0.020000
v 0.000000 0.200000 0.000000
v 0.000000 0.200000 0.020000
v 0.141421 0.141421 0.000000
v 0.141421 0.141421 0.020000
v 0.200000 0.000000 0.000000
v 0.200000 0.000000 0.020000
v 0.141421 -0.141421 0.000000
v 0.141421 -0.141421 0.020000
v -0.042620 0.054912 0.296897
v -0.114388 0.036563 0.277717
v -0.093163 0.107868 0.319172
v -0.018288 0.094697 0.357563
v 0.006761 0.015250 0.339834
v -0.052632 -0.020678 0.290486
v -0.134411 0.065008 0.326529
v -0.075018 0.100936 0.375876
v -0.013262 0.043695 0.388646
v -0.034487 -0.027610 0.347191
v -0.109362 -0.014439 0.308799
v -0.085030 0.025346 0.369465
v 0.007269 0.064722 0.284686
v -0.055868 0.104551 0.267877
v 0.023217 0.133544 0.255288
v 0.075451 0.091002 0.307397
v 0.028647 0.035716 0.352190
v -0.052512 0.044090 0.327765
v -0.026706 0.155447 0.280198
v 0.054453 0.147073 0.304623
v 0.057809 0.086612 0.364511
v -0.021276 0.057619 0.377100
v -0.073510 0.100161 0.324991
v -0.005327 0.126441 0.347701
v -0.054224 0.044341 0.362034
v 0.021455 0.035550 0.369135
v -0.034710 -0.027769 0.378603
v -0.110098 0.006641 0.398257
v -0.100522 0.091227 0.400936
v -0.019218 0.109092 0.382937
v 0.012355 -0.007584 0.409747
v -0.068949 -0.025449 0.427746
v -0.109623 0.048093 0.441548
v -0.053457 0.111412 0.432080
v 0.021931 0.077002 0.412426
v -0.033943 0.039302 0.448649
v 0.133359 0.082871 0.326813
v 0.186251 0.136447 0.313133
v 0.197300 0.053629 0.296622
v 0.143789 0.009560 0.346100
v 0.099668 0.065144 0.393189
v 0.125912 0.143563 0.372814
v 0.229371 0.096248 0.323965
v 0.203128 0.017828 0.344340
v 0.142788 0.024944 0.404021
v 0.131739 0.107762 0.420532
v 0.185251 0.151831 0.371055
v 0.195681 0.078520 0.390341
v -0.086591 0.021856 0.256357
v -0.155217 0.054479 0.247333
v -0.081932 0.097848 0.248701
v -0.024244 0.050749 0.290021
v -0.061878 -0.021730 0.314190
v -0.142823 -0.019424 0.287807
v -0.135282 0.103534 0.275420
v -0.054337 0.101228 0.301802
v -0.041943 0.027325 0.342276
v -0.115228 -0.016044 0.340909
v -0.172916 0.031056 0.299589
v -0.110569 0.059948 0.333252
v -0.006198 -0.129484 0.400053
v 0.031804 -0.085349 0.350423
v 0.067610 -0.148872 0.394426
v 0.020024 -0.163048 0.463623
v -0.045192 -0.108285 0.462384
v -0.037911 -0.060266 0.392423
v 0.081512 -0.091636 0.383319
v 0.074231 -0.139656 0.453280
v 0.004517 -0.114573 0.495281
v -0.031289 -0.051050 0.451278
v 0.016296 -0.036874 0.382081
v 0.042518 -0.070438 0.445651
v -0.013459 -0.085590 0.310422
v 0.058643 -0.089226 0.285060
v 0.023200 -0.147818 0.335698
v -0.041950 -0.111294 0.376625
v -0.046771 -0.030128 0.351280
v 0.015399 -0.016490 0.294690
v 0.074714 -0.117177 0.335589
v 0.012544 -0.130815 0.392178
v -0.030700 -0.058079 0.401808
v 0.004742 0.000513 0.351170
v 0.069893 -0.036011 0.310243
v 0.041402 -0.061715 0.376446
v -0.037515 0.002832 0.398566
v -0.013028 0.075226 0.394725
v 0.035815 0.009908 0.419248
v -0.015373 -0.052382 0.446695
v -0.095852 -0.025560 0.439134
v -0.094403 0.053305 0.407014
v 0.024248 0.064753 0.440479
v 0.022798 -0.014112 0.472598
v -0.058576 -0.036033 0.484888
v -0.107420 0.029285 0.460364
v -0.056232 0.091575 0.432918
v -0.034090 0.036361 0.481046
v 0.162579 0.013812 0.345702
v 0.155281 -0.061501 0.357097
v 0.091708 -0.005692 0.366963
v 0.125963 0.071021 0.380938
v 0.210707 0.062621 0.379709
v 0.228826 -0.019281 0.364974
v 0.114154 -0.050838 0.399376
v 0.096035 0.031064 0.414110
v 0.169580 0.073284 0.421988
v 0.233152 0.017476 0.412121
v 0.198898 -0.059238 0.398146
v 0.162282 -0.002029 0.433382
v 0.005725 0.079330 0.255821
v 0.079367 0.091133 0.238711
v 0.049029 0.017739 0.269476
v -0.023855 0.034421 0.310258
v -0.038562 0.118125 0.304696
v 0.025233 0.153174 0.260478
v 0.095299 0.053517 0.282572
v 0.031505 0.018468 0.326791
v -0.022629 0.080509 0.348558
v 0.007708 0.153903 0.317793
v 0.080593 0.137221 0.277011
v 0.051012 0.092312 0.331447
v -0.086617 -0.041444 0.383050
v -0.043320 0.019731 0.367620
v -0.013736 -0.060119 0.369094
v -0.066209 -0.106741 0.417330
v -0.128222 -0.055702 0.445667
v -0.114075 0.022461 0.414944
v 0.003848 -0.007757 0.392364
v -0.010299 -0.085920 0.423087
v -0.081054 -0.083189 0.470411
v -0.110638 -0.003339 0.468936
v -0.058165 0.043282 0.420700
v -0.037757 -0.022014 0.454981
v -0.039818 0.027116 0.259659
v -0.047400 0.101277 0.276913
v 0.025749 0.058224 0.283916
v 0.006986 -0.024527 0.291245
v -0.077761 -0.032616 0.288771
v -0.111373 0.045136 0.279914
v -0.005283 0.095469 0.319163
v 0.028329 0.017717 0.328020
v -0.035644 -0.038424 0.331021
v -0.108793 0.004629 0.324019
v -0.090030 0.087381 0.316689
v -0.043227 0.035737 0.348275
v -0.059412 -0.078414 0.268909
v 0.004350 -0.036247 0.265505
v 0.002667 -0.117713 0.290282
v -0.076207 -0.135450 0.317076
v -0.123270 -0.064945 0.308857
v -0.073484 -0.003634 0.276985
v 0.026962 -0.067224 0.311568
v -0.022825 -0.128534 0.343440
v -0.100658 -0.095921 0.354920
v -0.098975 -0.014455 0.330143
v -0.020101 0.003282 0.303349
v -0.036896 -0.053755 0.351516
v 0.141847 -0.013655 0.277179
v 0.069178 -0.021055 0.254382
v 0.106464 0.053842 0.270308
v 0.172234 0.039911 0.322594
v 0.175595 -0.043597 0.338982
v 0.111904 -0.081276 0.296825
v 0.054653 0.027938 0.285708
v 0.118345 0.065617 0.327865
v 0.161070 0.005396 0.370308
v 0.123785 -0.069502 0.354382
v 0.058015 -0.055571 0.302096
v 0.088402 -0.002004 0.347511
v -0.083143 -0.035763 0.245732
v -0.080785 0.032151 0.242818
v -0.024331 -0.010874 0.269142
v -0.053648 -0.077196 0.290895
v -0.128222 -0.075158 0.278015
v -0.144993 -0.007579 0.248302
v -0.049833 0.032691 0.286180
v -0.033062 -0.034889 0.315893
v -0.097269 -0.074618 0.321378
v -0.153723 -0.031593 0.295054
v -0.124406 0.034728 0.273300
v -0.094911 -0.006705 0.318463
v 0.148937 0.079913 0.204232
v 0.194803 0.126937 0.221878
v 0.209192 0.052634 0.220091
v 0.143314 0.015887 0.226490
v 0.088210 0.067480 0.232232
v 0.120032 0.136112 0.229381
v 0.217526 0.091973 0.255041
v 0.185704 0.023341 0.257892
v 0.110934 0.032517 0.265395
v 0.096545 0.106819 0.267182
v 0.162423 0.143567 0.260782
v 0.156800 0.079541 0.283040
v -0.014110 0.150314 0.156063
v -0.077309 0.130197 0.140983
v -0.052120 0.200902 0.131117
v 0.006860 0.211398 0.177403
v 0.018121 0.147178 0.215876
v -0.033898 0.096993 0.193367
v -0.095399 0.178847 0.153003
v -0.043380 0.229032 0.175512
v 0.000031 0.195829 0.227896
v -0.025158 0.125123 0.237763
v -0.084138 0.114627 0.191476
v -0.063168 0.175711 0.212816
v -0.029204 0.023404 0.193298
v -0.009709 0.086656 0.177634
v 0.035212 0.026017 0.171620
v 0.008484 -0.027581 0.217923
v -0.052956 -0.000067 0.252554
v -0.064199 0.070536 0.227653
v 0.040029 0.074763 0.192577
v 0.051272 0.004160 0.217478
v -0.003218 -0.011960 0.267498
v -0.048139 0.048679 0.273512
v -0.021411 0.102277 0.227208
v 0.016278 0.051292 0.251833
v -0.025662 0.094123 0.175442
v -0.007052 0.028715 0.176784
v -0.078546 0.052345 0.184621
v -0.076961 0.124174 0.208482
v -0.004487 0.144935 0.215392
v 0.038718 0.085938 0.195801
v -0.046850 0.018342 0.210653
v -0.090055 0.077339 0.230244
v -0.044285 0.134562 0.249261
v 0.027208 0.110932 0.241424
v 0.025624 0.039103 0.217563
v -0.025675 0.069154 0.250603
v -0.045787 -0.051069 0.191189
v -0.110434 -0.030502 0.186283
v -0.050874 0.015687 0.179191
v 0.007960 -0.016431 0.214379
v -0.015240 -0.082471 0.243218
v -0.088411 -0.091167 0.225854
v -0.096641 0.016848 0.206442
v -0.023470 0.025543 0.223806
v -0.001447 -0.035121 0.263377
v -0.061007 -0.081311 0.270469
v -0.119841 -0.049192 0.235281
v -0.066094 -0.014554 0.258471
v 0.018460 0.036004 0.177112
v 0.073541 0.070816 0.157606
v 0.075349 0.013010 0.206456
v 0.006412 0.005977 0.236942
v -0.038002 0.059438 0.206932
v 0.003486 0.099510 0.157900
v 0.095535 0.062304 0.205381
v 0.054047 0.022232 0.254412
v -0.016007 0.050925 0.254706
v -0.017816 0.108732 0.205856
v 0.051122 0.115765 0.175371
v 0.039074 0.085737 0.235201
v -0.132910 0.031207 0.238087
v -0.126132 -0.036363 0.234267
v -0.192892 -0.000862 0.237993
v -0.181519 0.067130 0.269282
v -0.107728 0.073648 0.284893
v -0.073498 0.009686 0.263253
v -0.170551 -0.042202 0.263102
v -0.204781 0.021760 0.284742
v -0.152148 0.067810 0.313728
v -0.085388 0.032309 0.310002
v -0.096761 -0.035683 0.278714
v -0.145369 0.000240 0.309909
v 0.027928 0.048033 0.293014
v -0.016520 -0.003218 0.288120
v -0.035935 0.069869 0.284589
v 0.018166 0.110134 0.318986
v 0.071016 0.061930 0.343774
v 0.049579 -0.008125 0.324698
v -0.053753 0.027208 0.311067
v -0.032316 0.097262 0.330143
v 0.033783 0.092356 0.366721
v 0.053198 0.019269 0.370251
v -0.000903 -0.020996 0.335855
v -0.010665 0.041105 0.361827
v -0.027705 -0.077444 0.308689
v -0.048689 -0.018753 0.281460
v 0.011559 -0.024967 0.326877
v 0.003167 -0.087695 0.368423
v -0.062269 -0.120247 0.348682
v -0.094317 -0.077639 0.294937
v -0.030785 0.007269 0.324366
v 0.001263 -0.035339 0.378112
v -0.044366 -0.094225 0.391589
v -0.104614 -0.088010 0.346172
v -0.096221 -0.025283 0.304625
v -0.065349 -0.035534 0.364360
v -0.100000 -0.040000 0.145000
v -0.125326 -0.021600 0.164347
v -0.090327 -0.010228 0.164347
v -0.068695 -0.040000 0.164347
v -0.090327 -0.069772 0.164347
v -0.125326 -0.058400 0.164347
v -0.109673 -0.010228 0.195653
v -0.074674 -0.021600 0.195653
v -0.074674 -0.058400 0.195653
v -0.109673 -0.069772 0.195653
v -0.131305 -0.040000 0.195653
v -0.100000 -0.040000 0.215000
v 0.080000 -0.070000 0.185000
v 0.054674 -0.051600 0.204347
v 0.089673 -0.040228 0.204347
v 0.111305 -0.070000 0.204347
v 0.089673 -0.099772 0.204347
v 0.054674 -0.088400 0.204347
v 0.070327 -0.040228 0.235653
v 0.105326 -0.051600 0.235653
v 0.105326 -0.088400 0.235653
v 0.070327 -0.099772 0.235653
v 0.048695 -0.070000 0.235653
v 0.080000 -0.070000 0.255000
v -0.060000 0.090000 0.245000
v -0.085326 0.108400 0.264347
v -0.050327 0.119772 0.264347
v -0.028695 0.090000 0.264347
v -0.050327 0.060228 0.264347
v -0.085326 0.071600 0.264347
v -0.069673 0.119772 0.295653
v -0.034674 0.108400 0.295653
v -0.034674 0.071600 0.295653
v -0.069673 0.060228 0.295653
v -0.091305 0.090000 0.295653
v -0.060000 0.090000 0.315000
v 0.050000 0.080000 0.285000
v 0.024674 0.098400 0.304347
v 0.059673 0.109772 0.304347
v 0.081305 0.080000 0.304347
v 0.059673 0.050228 0.304347
v 0.024674 0.061600 0.304347
v 0.040327 0.109772 0.335653
v 0.075326 0.098400 0.335653
v 0.075326 0.061600 0.335653
v 0.040327 0.050228 0.335653
v 0.018695 0.080000 0.335653
v 0.050000 0.080000 0.355000
v -0.090000 -0.100000 0.305000
v -0.115326 -0.081600 0.324347
v -0.080327 -0.070228 0.324347
v -0.058695 -0.100000 0.324347
v -0.080327 -0.129772 0.324347
v -0.115326 -0.118400 0.324347
v -0.099673 -0.070228 0.355653
v -0.064674 -0.081600 0.355653
v -0.064674 -0.118400 0.355653
v -0.099673 -0.129772 0.355653
v -0.121305 -0.100000 0.355653
v -0.090000 -0.100000 0.375000
vn -0.3827 -0.9239 -0.0000
vn -0.9239 -0.3827 -0.0000
vn -0.9239 0.3827 -0.0000
vn -0.3827 0.9239 -0.0000
vn 0.3827 0.9239 -0.0000
vn 0.9239 0.3827 -0.0000
vn -0.0000 -0.0000 1.0000
vn 0.9239 -0.3827 -0.0000
vn 0.3827 -0.9239 -0.0000
vn -0.0000 -0.0000 -1.0000
vn 0.1121 0.4743 -0.8732
vn 0.2460 0.0495 -0.9680
vn 0.4297 0.6664 -0.6094
vn 0.7599 0.3603 -0.5411
vn 0.6464 -0.0209 -0.7627
vn -0.3140 -0.5165 -0.7967
vn -0.6406 0.5194 -0.5655
vn 0.1338 0.9879 0.0780
vn 0.9391 0.2415 0.2445
vn 0.6623 -0.6882 -0.2961
vn -0.9391 -0.2415 -0.2445
vn -0.6623 0.6882 0.2961
vn 0.3140 0.5165 0.7967
vn 0.6406 -0.5194 0.5655
vn -0.1338 -0.9879 -0.0780
vn -0.7599 -0.3603 0.5411
vn -0.6464 0.0209 0.7627
vn -0.2460 -0.0495 0.9680
vn -0.1121 -0.4743 0.8732
vn -0.4297 -0.6664 0.6094
vn -0.0026 -0.3923 -0.9198
vn -0.2528 -0.6879 -0.6803
vn 0.4313 -0.4371 -0.7892
vn 0.4493 -0.7604 -0.4690
vn 0.0264 -0.9154 -0.4017
vn -0.8881 -0.3475 -0.3010
vn -0.2778 0.3734 -0.8851
vn 0.7805 0.2642 -0.5666
vn 0.8242 -0.5241 0.2143
vn -0.2070 -0.9022 0.3784
vn -0.8242 0.5241 -0.2143
vn 0.2070 0.9022 -0.3784
vn 0.8881 0.3475 0.3010
vn 0.2778 -0.3734 0.8851
vn -0.7805 -0.2642 0.5666
vn -0.4493 0.7604 0.4690
vn -0.0264 0.9154 0.4017
vn 0.2528 0.6879 0.6803
vn 0.0026 0.3923 0.9198
vn -0.4313 0.4371 0.7892
vn 0.0677 -0.2060 -0.9762
vn 0.1189 0.2463 -0.9619
vn -0.3670 -0.3015 -0.8800
vn -0.5845 0.0917 -0.8062
vn -0.2842 0.4302 -0.8568
vn 0.7270 0.4920 -0.4791
vn 0.6021 -0.6110 -0.5140
vn -0.4580 -0.8439 -0.2793
vn -0.9884 0.1150 -0.0993
vn -0.2560 0.9407 -0.2228
vn 0.9884 -0.1150 0.0993
vn 0.2560 -0.9407 0.2228
vn -0.7270 -0.4920 0.4791
vn -0.6021 0.6110 0.5140
vn 0.4580 0.8439 0.2793
vn 0.5845 -0.0917 0.8062
vn 0.2842 -0.4302 0.8568
vn -0.1189 -0.2463 0.9619
vn -0.0677 0.2060 0.9762
vn 0.3670 0.3015 0.8800
vn -0.3726 0.1334 -0.9184
vn -0.6085 0.4306 -0.6666
vn -0.5129 -0.2859 -0.8094
vn -0.8356 -0.2479 -0.4903
vn -0.8946 0.1949 -0.4020
vn -0.1408 0.9562 -0.2564
vn 0.4345 0.2315 -0.8704
vn 0.0923 -0.7910 -0.6048
vn -0.6945 -0.6982 0.1735
vn -0.8386 0.3816 0.3887
vn 0.6945 0.6982 -0.1735
vn 0.8386 -0.3816 -0.3887
vn 0.1408 -0.9562 0.2564
vn -0.4345 -0.2315 0.8704
vn -0.0923 0.7910 0.6048
vn 0.8356 0.2479 0.4903
vn 0.8946 -0.1949 0.4020
vn 0.6085 -0.4306 0.6666
vn 0.3726 -0.1334 0.9184
vn 0.5129 0.2859 0.8094
vn 0.0805 -0.1048 -0.9912
vn -0.1207 -0.4923 -0.8620
vn 0.5133 -0.1171 -0.8502
vn 0.5796 -0.5123 -0.6338
vn 0.1877 -0.7442 -0.6411
vn -0.8111 -0.3797 -0.4449
vn -0.3204 0.5654 -0.7601
vn 0.7351 0.5353 -0.4161
vn 0.8967 -0.4283 0.1117
vn -0.0589 -0.9938 0.0939
vn -0.8967 0.4283 -0.1117
vn 0.0589 0.9938 -0.0939
vn 0.8111 0.3797 0.4449
vn 0.3204 -0.5654 0.7601
vn -0.7351 -0.5353 0.4161
vn -0.5796 0.5123 0.6338
vn -0.1877 0.7442 0.6411
vn 0.1207 0.4923 0.8620
vn -0.0805 0.1048 0.9912
vn -0.5133 0.1171 0.8502
vn -0.2236 -0.6370 -0.7377
vn -0.5723 -0.3442 -0.7443
vn -0.2625 -0.8938 -0.3636
vn -0.6353 -0.7597 -0.1391
vn -0.8267 -0.4200 -0.3743
vn -0.3457 0.4331 -0.8324
vn 0.5047 -0.2810 -0.8163
vn 0.4098 -0.9071 0.0959
vn -0.4993 -0.5801 0.6436
vn -0.9662 0.2482 0.0698
vn 0.4993 0.5801 -0.6436
vn 0.9662 -0.2482 -0.0698
vn 0.3457 -0.4331 0.8324
vn -0.5047 0.2810 0.8163
vn -0.4098 0.9071 -0.0959
vn 0.6353 0.7597 0.1391
vn 0.8267 0.4200 0.3743
vn 0.5723 0.3442 0.7443
vn 0.2236 0.6370 0.7377
vn 0.2625 0.8938 0.3636
vn -0.3085 -0.5083 -0.8040
vn -0.3342 -0.0743 -0.9396
vn -0.6409 -0.5812 -0.5015
vn -0.8721 -0.1923 -0.4500
vn -0.6826 0.1210 -0.7207
vn 0.3672 0.3333 -0.8684
vn 0.4301 -0.7250 -0.5379
vn -0.3805 -0.9029 0.2000
vn -0.9444 0.0456 0.3256
vn -0.4823 0.8096 -0.3347
vn 0.9444 -0.0456 -0.3256
vn 0.4823 -0.8096 0.3347
vn -0.3672 -0.3333 0.8684
vn -0.4301 0.7250 0.5379
vn 0.3805 0.9029 -0.2000
vn 0.8721 0.1923 0.4500
vn 0.6826 -0.1210 0.7207
vn 0.3342 0.0743 0.9396
vn 0.3085 0.5083 0.8040
vn 0.6409 0.5812 0.5015
vn 0.2815 -0.1456 -0.9484
vn -0.1488 -0.0022 -0.9889
vn 0.2738 -0.5672 -0.7767
vn -0.1613 -0.6844 -0.7110
vn -0.4225 -0.3352 -0.8421
vn -0.2890 0.7173 -0.6340
vn 0.7604 0.3676 -0.5354
vn 0.7415 -0.6607 -0.1166
vn -0.3196 -0.9466 0.0437
vn -0.9564 -0.0949 -0.2761
vn 0.3196 0.9466 -0.0437
vn 0.9564 0.0949 0.2761
vn 0.2890 -0.7173 0.6340
vn -0.7604 -0.3676 0.5354
vn -0.7415 0.6607 0.1166
vn 0.1613 0.6844 0.7110
vn 0.4225 0.3352 0.8421
vn 0.1488 0.0022 0.9889
vn -0.2815 0.1456 0.9484
vn -0.2738 0.5672 0.7767
vn -0.2547 -0.1205 -0.9595
vn 0.1984 -0.1654 -0.9661
vn -0.3516 0.3174 -0.8807
vn 0.0417 0.5432 -0.8386
vn 0.3816 0.2448 -0.8913
vn 0.4775 -0.7447 -0.4663
vn -0.6275 -0.6352 -0.4502
vn -0.8638 0.4327 -0.2581
vn 0.0952 0.9833 -0.1554
vn 0.9241 0.2555 -0.2840
vn -0.0952 -0.9833 0.1554
vn -0.9241 -0.2555 0.2840
vn -0.4775 0.7447 0.4663
vn 0.6275 0.6352 0.4502
vn 0.8638 -0.4327 0.2581
vn -0.0417 -0.5432 0.8386
vn -0.3816 -0.2448 0.8913
vn -0.1984 0.1654 0.9661
vn 0.2547 0.1205 0.9595
vn 0.3516 -0.3174 0.8807
vn -0.1649 -0.3226 -0.9321
vn -0.2435 0.1250 -0.9618
vn -0.5060 -0.5100 -0.6957
vn -0.7954 -0.1782 -0.5793
vn -0.6332 0.2142 -0.7438
vn 0.3822 0.5846 -0.7157
vn 0.5740 -0.5069 -0.6432
vn -0.2579 -0.9639 -0.0666
vn -0.9637 -0.1549 0.2172
vn -0.5682 0.8021 -0.1839
vn 0.9637 0.1549 -0.2172
vn 0.5682 -0.8021 0.1839
vn -0.3822 -0.5846 0.7157
vn -0.5740 0.5069 0.6432
vn 0.2579 0.9639 0.0666
vn 0.7954 0.1782 0.5793
vn 0.6332 -0.2142 0.7438
vn 0.2435 -0.1250 0.9618
vn 0.1649 0.3226 0.9321
vn 0.5060 0.5100 0.6957
vn -0.2109 -0.0961 -0.9728
vn -0.5425 0.1768 -0.8213
vn -0.2865 -0.5140 -0.8085
vn -0.6649 -0.4994 -0.5555
vn -0.8230 -0.0725 -0.5634
vn -0.2699 0.8499 -0.4526
vn 0.5387 0.1844 -0.8221
vn 0.3543 -0.8348 -0.4215
vn -0.5684 -0.7992 0.1956
vn -0.9541 0.2420 0.1764
vn 0.5684 0.7992 -0.1956
vn 0.9541 -0.2420 -0.1764
vn 0.2699 -0.8499 0.4526
vn -0.5387 -0.1844 0.8221
vn -0.3543 0.8348 0.4215
vn 0.6649 0.4994 0.5555
vn 0.8230 0.0725 0.5634
vn 0.5425 -0.1768 0.8213
vn 0.2109 0.0961 0.9728
vn 0.2865 0.5140 0.8085
vn 0.2331 0.2429 -0.9416
vn -0.2200 0.1997 -0.9548
vn 0.4128 -0.1728 -0.8943
vn 0.0708 -0.4730 -0.8782
vn -0.3203 -0.2428 -0.9157
vn -0.6100 0.6727 -0.4187
vn 0.4950 0.7782 -0.3865
vn 0.9333 -0.2356 -0.2710
vn 0.0991 -0.9677 -0.2319
vn -0.8547 -0.4063 -0.3232
vn -0.0991 0.9677 0.2319
vn 0.8547 0.4063 0.3232
vn 0.6100 -0.6727 0.4187
vn -0.4950 -0.7782 0.3865
vn -0.9333 0.2356 0.2710
vn -0.0708 0.4730 0.8782
vn 0.3203 0.2428 0.9157
vn 0.2200 -0.1997 0.9548
vn -0.2331 -0.2429 0.9416
vn -0.4128 0.1728 0.8943
vn 0.1417 -0.2907 -0.9463
vn -0.1099 0.0863 -0.9902
vn -0.1245 -0.6185 -0.7758
vn -0.5406 -0.4442 -0.7145
vn -0.5316 -0.0086 -0.8469
vn 0.2172 0.7418 -0.6345
vn 0.8309 -0.1775 -0.5273
vn 0.1818 -0.9770 -0.1117
vn -0.8332 -0.5517 0.0380
vn -0.8112 0.5105 -0.2851
vn 0.8332 0.5517 -0.0380
vn 0.8112 -0.5105 0.2851
vn -0.2172 -0.7418 0.6345
vn -0.8309 0.1775 0.5273
vn -0.1818 0.9770 0.1117
vn 0.5406 0.4442 0.7145
vn 0.5316 0.0086 0.8469
vn 0.1099 -0.0863 0.9902
vn -0.1417 0.2907 0.9463
vn 0.1245 0.6185 0.7758
vn 0.2936 0.0568 -0.9543
vn 0.3116 -0.3897 -0.8666
vn 0.6341 0.2582 -0.7288
vn 0.8626 -0.0638 -0.5019
vn 0.6632 -0.4642 -0.5871
vn -0.3921 -0.6994 -0.5976
vn -0.4359 0.3895 -0.8113
vn 0.3946 0.8808 -0.2616
vn 0.9517 0.0956 0.2918
vn 0.4655 -0.8810 0.0841
vn -0.9517 -0.0956 -0.2918
vn -0.4655 0.8810 -0.0841
vn 0.3921 0.6994 0.5976
vn 0.4359 -0.3895 0.8113
vn -0.3946 -0.8808 0.2616
vn -0.8626 0.0638 0.5019
vn -0.6632 0.4642 0.5871
vn -0.3116 0.3897 0.8666
vn -0.2936 -0.0568 0.9543
vn -0.6341 -0.2582 0.7288
vn 0.3886 -0.0530 -0.9199
vn -0.0600 -0.0407 -0.9974
vn 0.4895 -0.4595 -0.7412
vn 0.1032 -0.6984 -0.7082
vn -0.2363 -0.4396 -0.8665
vn -0.4316 0.6052 -0.6689
vn 0.6623 0.5754 -0.4799
vn 0.9083 -0.4160 -0.0440
vn -0.0336 -0.9988 0.0364
vn -0.8617 -0.3676 -0.3497
vn 0.0336 0.9988 -0.0364
vn 0.8617 0.3676 0.3497
vn 0.4316 -0.6052 0.6689
vn -0.6623 -0.5754 0.4799
vn -0.9083 0.4160 0.0440
vn -0.1032 0.6984 0.7082
vn 0.2363 0.4396 0.8665
vn 0.0600 0.0407 0.9974
vn -0.3886 0.0530 0.9199
vn -0.4895 0.4595 0.7412
vn 0.2868 0.0785 -0.9548
vn -0.0446 0.3888 -0.9202
vn 0.0954 -0.3343 -0.9376
vn -0.3543 -0.2791 -0.8925
vn -0.4409 0.1678 -0.8817
vn 0.0818 0.9392 -0.3334
vn 0.8901 0.1824 -0.4176
vn 0.4233 -0.8244 -0.3758
vn -0.6735 -0.6898 -0.2657
vn -0.8846 0.4002 -0.2395
vn 0.6735 0.6898 0.2657
vn 0.8846 -0.4002 0.2395
vn -0.0818 -0.9392 0.3334
vn -0.8901 -0.1824 0.4176
vn -0.4233 0.8244 0.3758
vn 0.3543 0.2791 0.8925
vn 0.4409 -0.1678 0.8817
vn 0.0446 -0.3888 0.9202
vn -0.2868 -0.0785 0.9548
vn -0.0954 0.3343 0.9376
vn 0.2956 -0.2345 -0.9261
vn 0.3634 -0.6208 -0.6946
vn 0.6085 0.0673 -0.7907
vn 0.8697 -0.1324 -0.4756
vn 0.7181 -0.5577 -0.4162
vn -0.3033 -0.8983 -0.3180
vn -0.4685 0.0438 -0.8824
vn 0.2945 0.7800 -0.5522
vn 0.9314 0.2929 0.2163
vn 0.5619 -0.7443 0.3610
vn -0.9314 -0.2929 -0.2163
vn -0.5619 0.7443 -0.3610
vn 0.3033 0.8983 0.3180
vn 0.4685 -0.0438 0.8824
vn -0.2945 -0.7800 0.5522
vn -0.8697 0.1324 0.4756
vn -0.7181 0.5577 0.4162
vn -0.3634 0.6208 0.6946
vn -0.2956 0.2345 0.9261
vn -0.6085 -0.0673 0.7907
vn -0.3109 -0.1371 -0.9405
vn -0.6805 0.0284 -0.7322
vn -0.2433 -0.5618 -0.7907
vn -0.5711 -0.6587 -0.4898
vn -0.8413 -0.2940 -0.4537
vn -0.5568 0.7455 -0.3663
vn 0.3444 0.3419 -0.8743
vn 0.5094 -0.6938 -0.5091
vn -0.2900 -0.9303 0.2247
vn -0.9489 -0.0408 0.3129
vn 0.2900 0.9303 -0.2247
vn 0.9489 0.0408 -0.3129
vn 0.5568 -0.7455 0.3663
vn -0.3444 -0.3419 0.8743
vn -0.5094 0.6938 0.5091
vn 0.5711 0.6587 0.4898
vn 0.8413 0.2940 0.4537
vn 0.6805 -0.0284 0.7322
vn 0.3109 0.1371 0.9405
vn 0.2433 0.5618 0.7907
vn -0.1272 -0.0565 -0.9903
vn 0.3087 0.0684 -0.9487
vn -0.3871 0.2984 -0.8724
vn -0.1118 0.6426 -0.7580
vn 0.3182 0.5004 -0.8052
vn 0.7525 -0.4386 -0.4912
vn -0.3106 -0.7432 -0.5926
vn -0.9444 0.1222 -0.3052
vn -0.2730 0.9617 -0.0262
vn 0.7758 0.6150 -0.1412
vn 0.2730 -0.9617 0.0262
vn -0.7758 -0.6150 0.1412
vn -0.7525 0.4386 0.4912
vn 0.3106 0.7432 0.5926
vn 0.9444 -0.1222 0.3052
vn 0.1118 -0.6426 0.7580
vn -0.3182 -0.5004 0.8052
vn -0.3087 -0.0684 0.9487
vn 0.1272 0.0565 0.9903
vn 0.3871 -0.2984 0.8724
vn 0.0189 -0.1755 -0.9843
vn -0.1207 -0.5727 -0.8108
vn 0.4590 -0.1232 -0.8799
vn 0.5915 -0.4881 -0.6418
vn 0.2332 -0.7659 -0.5992
vn -0.7866 -0.5113 -0.3461
vn -0.4463 0.4575 -0.7691
vn 0.6270 0.5850 -0.5144
vn 0.9501 -0.3049 0.0661
vn 0.0764 -0.9825 0.1701
vn -0.9501 0.3049 -0.0661
vn -0.0764 0.9825 -0.1701
vn 0.7866 0.5113 0.3461
vn 0.4463 -0.4575 0.7691
vn -0.6270 -0.5850 0.5144
vn -0.5915 0.4881 0.6418
vn -0.2332 0.7659 0.5992
vn 0.1207 0.5727 0.8108
vn -0.0189 0.1755 0.9843
vn -0.4590 0.1232 0.8799
vn 0.1339 -0.6372 -0.7590
vn -0.1332 -0.3156 -0.9395
vn -0.1156 -0.8782 -0.4640
vn -0.5370 -0.7056 -0.4623
vn -0.5479 -0.3579 -0.7561
vn 0.1749 0.4361 -0.8827
vn 0.8265 -0.3481 -0.4425
vn 0.2179 -0.9359 0.2768
vn -0.8098 -0.5150 0.2811
vn -0.8363 0.3330 -0.4355
vn 0.8098 0.5150 -0.2811
vn 0.8363 -0.3330 0.4355
vn -0.1749 -0.4361 0.8827
vn -0.8265 0.3481 0.4425
vn -0.2179 0.9359 -0.2768
vn 0.5370 0.7056 0.4623
vn 0.5479 0.3579 0.7561
vn 0.1332 0.3156 0.9395
vn -0.1339 0.6372 0.7590
vn 0.1156 0.8782 0.4640
vn -0.0272 0.0537 -0.9982
vn 0.4167 0.0929 -0.9043
vn -0.2331 0.4384 -0.8680
vn 0.0836 0.7154 -0.6937
vn 0.4851 0.5019 -0.7161
vn 0.7141 -0.5242 -0.4639
vn -0.3683 -0.6199 -0.6929
vn -0.8704 0.3184 -0.3754
vn -0.0983 0.9939 0.0498
vn 0.8810 0.4731 -0.0049
vn 0.0983 -0.9939 -0.0498
vn -0.8810 -0.4731 0.0049
vn -0.7141 0.5242 0.4639
vn 0.3683 0.6199 0.6929
vn 0.8704 -0.3184 0.3754
vn -0.0836 -0.7154 0.6937
vn -0.4851 -0.5019 0.7161
vn -0.4167 -0.0929 0.9043
vn 0.0272 -0.0537 0.9982
vn 0.2331 -0.4384 0.8680
vn 0.1259 -0.0145 -0.9919
vn 0.4438 -0.3044 -0.8428
vn 0.2548 0.4069 -0.8772
vn 0.6525 0.3774 -0.6572
vn 0.7692 -0.0622 -0.6359
vn 0.1466 -0.9104 -0.3870
vn -0.6287 -0.2033 -0.7506
vn -0.3142 0.8244 -0.4708
vn 0.6554 0.7524 0.0658
vn 0.9402 -0.3197 0.1176
vn -0.6554 -0.7524 -0.0658
vn -0.9402 0.3197 -0.1176
vn -0.1466 0.9104 0.3870
vn 0.6287 0.2033 0.7506
vn 0.3142 -0.8244 0.4708
vn -0.6525 -0.3774 0.6572
vn -0.7692 0.0622 0.6359
vn -0.4438 0.3044 0.8428
vn -0.1259 0.0145 0.9919
vn -0.2548 -0.4069 0.8772
vn 0.5835 -0.1607 -0.7960
vn 0.1899 -0.3565 -0.9148
vn 0.7763 -0.4170 -0.4728
vn 0.5018 -0.7712 -0.3917
vn 0.1394 -0.7338 -0.6649
vn -0.4496 0.1467 -0.8811
vn 0.5103 0.6242 -0.5915
vn 0.9804 -0.0008 0.1969
vn 0.3111 -0.8646 0.3946
vn -0.5727 -0.7734 -0.2717
vn -0.3111 0.8646 -0.3946
vn 0.5727 0.7734 0.2717
vn 0.4496 -0.1467 0.8811
vn -0.5103 -0.6242 0.5915
vn -0.9804 0.0008 -0.1969
vn -0.5018 0.7712 0.3917
vn -0.1394 0.7338 0.6649
vn -0.1899 0.3565 0.9148
vn -0.5835 0.1607 0.7960
vn -0.7763 0.4170 0.4728
vn -0.1876 0.5774 -0.7947
vn -0.6071 -0.0000 -0.7947
vn 0.4911 0.3568 -0.7947
vn 0.4911 -0.3568 -0.7947
vn -0.1876 -0.5774 -0.7947
vn -0.9822 -0.0000 -0.1876
vn -0.3035 0.9342 -0.1876
vn 0.7946 0.5774 -0.1876
vn 0.7946 -0.5774 -0.1876
vn -0.3035 -0.9342 -0.1876
vn -0.7946 0.5774 0.1876
vn 0.3035 0.9342 0.1876
vn 0.9822 -0.0000 0.1876
vn 0.3035 -0.9342 0.1876
vn -0.7946 -0.5774 0.1876
vn -0.4911 0.3568 0.7947
vn 0.1876 0.5774 0.7947
vn 0.6071 -0.0000 0.7947
vn 0.1876 -0.5774 0.7947
vn -0.4911 -0.3568 0.7947
vt 1.000000 0.500000
vt 1.000000 1.000000
vt 0.875000 1.000000
vt 0.875000 0.500000
vt 0.750000 1.000000
vt 0.750000 0.500000
vt 0.625000 1.000000
vt 0.625000 0.500000
vt 0.500000 1.000000
vt 0.500000 0.500000
vt 0.375000 1.000000
vt 0.375000 0.500000
vt 0.250000 1.000000
vt 0.250000 0.500000
vt 0.419706 0.419706
vt 0.250000 0.490000
vt 0.080294 0.419706
vt 0.010000 0.250000
vt 0.080294 0.080294
vt 0.250000 0.010000
vt 0.419706 0.080294
vt 0.490000 0.250000
vt 0.125000 1.000000
vt 0.125000 0.500000
vt 0.000000 1.000000
vt 0.000000 0.500000
vt 0.750000 0.490000
vt 0.919706 0.419706
vt 0.990000 0.250000
vt 0.919706 0.080294
vt 0.750000 0.010000
vt 0.580294 0.080294
vt 0.510000 0.250000
vt 0.580294 0.419706
vt 0.181819 0.000000
vt 0.272728 0.157461
vt 0.090910 0.157461
vt 0.363637 0.000000
vt 0.454546 0.157461
vt 0.909091 0.000000
vt 1.000000 0.157461
vt 0.818182 0.157461
vt 0.727273 0.000000
vt 0.636364 0.157461
vt 0.545455 0.000000
vt 0.363637 0.314921
vt 0.181819 0.314921
vt 0.909091 0.314921
vt 0.727273 0.314921
vt 0.545455 0.314921
vt 0.000000 0.314921
vt 0.272728 0.472382
vt 0.090910 0.472382
vt 0.818182 0.472382
vt 0.636364 0.472382
vt 0.454546 0.472382
s 0
usemtl rsc_soil
f 1/1/1 2/2/1 4/3/1 3/4/1
f 3/4/2 4/3/2 6/5/2 5/6/2
f 5/6/3 6/5/3 8/7/3 7/8/3
f 7/8/4 8/7/4 10/9/4 9/10/4
f 9/10/5 10/9/5 12/11/5 11/12/5
f 11/12/6 12/11/6 14/13/6 13/14/6
f 4/15/7 2/16/7 16/17/7 14/18/7 12/19/7 10/20/7 8/21/7 6/22/7
f 13/14/8 14/13/8 16/23/8 15/24/8
f 15/24/9 16/23/9 2/25/9 1/26/9
f 1/27/10 3/28/10 5/29/10 7/30/10 9/31/10 11/32/10 13/33/10 15/34/10
usemtl rsc_foliage
f 17/35/11 18/36/11 19/37/11
f 18/36/12 17/38/12 22/39/12
f 17/40/13 19/41/13 20/42/13
f 17/43/14 20/42/14 21/44/14
f 17/45/15 21/44/15 22/39/15
f 18/36/16 22/39/16 27/46/16
f 19/37/17 18/36/17 23/47/17
f 20/42/18 19/41/18 24/48/18
f 21/44/19 20/42/19 25/49/19
f 22/39/20 21/44/20 26/50/20
f 18/36/21 27/46/21 23/47/21
f 19/37/22 23/47/22 24/51/22
f 20/42/23 24/48/23 25/49/23
f 21/44/24 25/49/24 26/50/24
f 22/39/25 26/50/25 27/46/25
f 23/47/26 27/46/26 28/52/26
f 24/51/27 23/47/27 28/53/27
f 25/49/28 24/48/28 28/54/28
f 26/50/29 25/49/29 28/55/29
f 27/46/30 26/50/30 28/56/30
f 29/35/31 30/36/31 31/37/31
f 30/36/32 29/38/32 34/39/32
f 29/40/33 31/41/33 32/42/33
f 29/43/34 32/42/34 33/44/34
f 29/45/35 33/44/35 34/39/35
f 30/36/36 34/39/36 39/46/36
f 31/37/37 30/36/37 35/47/37
f 32/42/38 31/41/38 36/48/38
f 33/44/39 32/42/39 37/49/39
f 34/39/40 33/44/40 38/50/40
f 30/36/41 39/46/41 35/47/41
f 31/37/42 35/47/42 36/51/42
f 32/42/43 36/48/43 37/49/43
f 33/44/44 37/49/44 38/50/44
f 34/39/45 38/50/45 39/46/45
f 35/47/46 39/46/46 40/52/46
f 36/51/47 35/47/47 40/53/47
f 37/49/48 36/48/48 40/54/48
f 38/50/49 37/49/49 40/55/49
f 39/46/50 38/50/50 40/56/50
f 41/35/51 42/36/51 43/37/51
f 42/36/52 41/38/52 46/39/52
f 41/40/53 43/41/53 44/42/53
f 41/43/54 44/42/54 45/44/54
f 41/45/55 45/44/55 46/39/55
f 42/36/56 46/39/56 51/46/56
f 43/37/57 42/36/57 47/47/57
f 44/42/58 43/41/58 48/48/58
f 45/44/59 44/42/59 49/49/59
f 46/39/60 45/44/60 50/50/60
f 42/36/61 51/46/61 47/47/61
f 43/37/62 47/47/62 48/51/62
f 44/42/63 48/48/63 49/49/63
f 45/44/64 49/49/64 50/50/64
f 46/39/65 50/50/65 51/46/65
f 47/47/66 51/46/66 52/52/66
f 48/51/67 47/47/67 52/53/67
f 49/49/68 48/48/68 52/54/68
f 50/50/69 49/49/69 52/55/69
f 51/46/70 50/50/70 52/56/70
f 53/35/71 54/36/71 55/37/71
f 54/36/72 53/38/72 58/39/72
f 53/40/73 55/41/73 56/42/73
f 53/43/74 56/42/74 57/44/74
f 53/45/75 57/44/75 58/39/75
f 54/36/76 58/39/76 63/46/76
f 55/37/77 54/36/77 59/47/77
f 56/42/78 55/41/78 60/48/78
f 57/44/79 56/42/79 61/49/79
f 58/39/80 57/44/80 62/50/80
f 54/36/81 63/46/81 59/47/81
f 55/37/82 59/47/82 60/51/82
f 56/42/83 60/48/83 61/49/83
f 57/44/84 61/49/84 62/50/84
f 58/39/85 62/50/85 63/46/85
f 59/47/86 63/46/86 64/52/86
f 60/51/87 59/47/87 64/53/87
f 61/49/88 60/48/88 64/54/88
f 62/50/89 61/49/89 64/55/89
f 63/46/90 62/50/90 64/56/90
f 65/35/91 66/36/91 67/37/91
f 66/36/92 65/38/92 70/39/92
f 65/40/93 67/41/93 68/42/93
f 65/43/94 68/42/94 69/44/94
f 65/45/95 69/44/95 70/39/95
f 66/36/96 70/39/96 75/46/96
f 67/37/97 66/36/97 71/47/97
f 68/42/98 67/41/98 72/48/98
f 69/44/99 68/42/99 73/49/99
f 70/39/100 69/44/100 74/50/100
f 66/36/101 75/46/101 71/47/101
f 67/37/102 71/47/102 72/51/102
f 68/42/103 72/48/103 73/49/103
f 69/44/104 73/49/104 74/50/104
f 70/39/105 74/50/105 75/46/105
f 71/47/106 75/46/106 76/52/106
f 72/51/107 71/47/107 76/53/107
f 73/49/108 72/48/108 76/54/108
f 74/50/109 73/49/109 76/55/109
f 75/46/110 74/50/110 76/56/110
f 77/35/111 78/36/111 79/37/111
f 78/36/112 77/38/112 82/39/112
f 77/40/113 79/41/113 80/42/113
f 77/43/114 80/42/114 81/44/114
f 77/45/115 81/44/115 82/39/115
f 78/36/116 82/39/116 87/46/116
f 79/37/117 78/36/117 83/47/117
f 80/42/118 79/41/118 84/48/118
f 81/44/119 80/42/119 85/49/119
f 82/39/120 81/44/120 86/50/120
f 78/36/121 87/46/121 83/47/121
f 79/37/122 83/47/122 84/51/122
f 80/42/123 84/48/123 85/49/123
f 81/44/124 85/49/124 86/50/124
f 82/39/125 86/50/125 87/46/125
f 83/47/126 87/46/126 88/52/126
f 84/51/127 83/47/127 88/53/127
f 85/49/128 84/48/128 88/54/128
f 86/50/129 85/49/129 88/55/129
f 87/46/130 86/50/130 88/56/130
f 89/35/131 90/36/131 91/37/131
f 90/36/132 89/38/132 94/39/132
f 89/40/133 91/41/133 92/42/133
f 89/43/134 92/42/134 93/44/134
f 89/45/135 93/44/135 94/39/135
f 90/36/136 94/39/136 99/46/136
f 91/37/137 90/36/137 95/47/137
f 92/42/138 91/41/138 96/48/138
f 93/44/139 92/42/139 97/49/139
f 94/39/140 93/44/140 98/50/140
f 90/36/141 99/46/141 95/47/141
f 91/37/142 95/47/142 96/51/142
f 92/42/143 96/48/143 97/49/143
f 93/44/144 97/49/144 98/50/144
f 94/39/145 98/50/145 99/46/145
f 95/47/146 99/46/146 100/52/146
f 96/51/147 95/47/147 100/53/147
f 97/49/148 96/48/148 100/54/148
f 98/50/149 97/49/149 100/55/149
f 99/46/150 98/50/150 100/56/150
f 101/35/151 102/36/151 103/37/151
f 102/36/152 101/38/152 106/39/152
f 101/40/153 103/41/153 104/42/153
f 101/43/154 104/42/154 105/44/154
f 101/45/155 105/44/155 106/39/155
f 102/36/156 106/39/156 111/46/156
f 103/37/157 102/36/157 107/47/157
f 104/42/158 103/41/158 108/48/158
f 105/44/159 104/42/159 109/49/159
f 106/39/160 105/44/160 110/50/160
f 102/36/161 111/46/161 107/47/161
f 103/37/162 107/47/162 108/51/162
f 104/42/163 108/48/163 109/49/163
f 105/44/164 109/49/164 110/50/164
f 106/39/165 110/50/165 111/46/165
f 107/47/166 111/46/166 112/52/166
f 108/51/167 107/47/167 112/53/167
f 109/49/168 108/48/168 112/54/168
f 110/50/169 109/49/169 112/55/169
f 111/46/170 110/50/170 112/56/170
f 113/35/171 114/36/171 115/37/171
f 114/36/172 113/38/172 118/39/172
f 113/40/173 115/41/173 116/42/173
f 113/43/174 116/42/174 117/44/174
f 113/45/175 117/44/175 118/39/175
f 114/36/176 118/39/176 123/46/176
f 115/37/177 114/36/177 119/47/177
f 116/42/178 115/41/178 120/48/178
f 117/44/179 116/42/179 121/49/179
f 118/39/180 117/44/180 122/50/180
f 114/36/181 123/46/181 119/47/181
f 115/37/182 119/47/182 120/51/182
f 116/42/183 120/48/183 121/49/183
f 117/44/184 121/49/184 122/50/184
f 118/39/185 122/50/185 123/46/185
f 119/47/186 123/46/186 124/52/186
f 120/51/187 119/47/187 124/53/187
f 121/49/188 120/48/188 124/54/188
f 122/50/189 121/49/189 124/55/189
f 123/46/190 122/50/190 124/56/190
f 125/35/191 126/36/191 127/37/191
f 126/36/192 125/38/192 130/39/192
f 125/40/193 127/41/193 128/42/193
f 125/43/194 128/42/194 129/44/194
f 125/45/195 129/44/195 130/39/195
f 126/36/196 130/39/196 135/46/196
f 127/37/197 126/36/197 131/47/197
f 128/42/198 127/41/198 132/48/198
f 129/44/199 128/42/199 133/49/199
f 130/39/200 129/44/200 134/50/200
f 126/36/201 135/46/201 131/47/201
f 127/37/202 131/47/202 132/51/202
f 128/42/203 132/48/203 133/49/203
f 129/44/204 133/49/204 134/50/204
f 130/39/205 134/50/205 135/46/205
f 131/47/206 135/46/206 136/52/206
f 132/51/207 131/47/207 136/53/207
f 133/49/208 132/48/208 136/54/208
f 134/50/209 133/49/209 136/55/209
f 135/46/210 134/50/210 136/56/210
f 137/35/211 138/36/211 139/37/211
f 138/36/212 137/38/212 142/39/212
f 137/40/213 139/41/213 140/42/213
f 137/43/214 140/42/214 141/44/214
f 137/45/215 141/44/215 142/39/215
f 138/36/216 142/39/216 147/46/216
f 139/37/217 138/36/217 143/47/217
f 140/42/218 139/41/218 144/48/218
f 141/44/219 140/42/219 145/49/219
f 142/39/220 141/44/220 146/50/220
f 138/36/221 147/46/221 143/47/221
f 139/37/222 143/47/222 144/51/222
f 140/42/223 144/48/223 145/49/223
f 141/44/224 145/49/224 146/50/224
f 142/39/225 146/50/225 147/46/225
f 143/47/226 147/46/226 148/52/226
f 144/51/227 143/47/227 148/53/227
f 145/49/228 144/48/228 148/54/228
f 146/50/229 145/49/229 148/55/229
f 147/46/230 146/50/230 148/56/230
f 149/35/231 150/36/231 151/37/231
f 150/36/232 149/38/232 154/39/232
f 149/40/233 151/41/233 152/42/233
f 149/43/234 152/42/234 153/44/234
f 149/45/235 153/44/235 154/39/235
f 150/36/236 154/39/236 159/46/236
f 151/37/237 150/36/237 155/47/237
f 152/42/238 151/41/238 156/48/238
f 153/44/239 152/42/239 157/49/239
f 154/39/240 153/44/240 158/50/240
f 150/36/241 159/46/241 155/47/241
f 151/37/242 155/47/242 156/51/242
f 152/42/243 156/48/243 157/49/243
f 153/44/244 157/49/244 158/50/244
f 154/39/245 158/50/245 159/46/245
f 155/47/246 159/46/246 160/52/246
f 156/51/247 155/47/247 160/53/247
f 157/49/248 156/48/248 160/54/248
f 158/50/249 157/49/249 160/55/249
f 159/46/250 158/50/250 160/56/250
f 161/35/251 162/36/251 163/37/251
f 162/36/252 161/38/252 166/39/252
f 161/40/253 163/41/253 164/42/253
f 161/43/254 164/42/254 165/44/254
f 161/45/255 165/44/255 166/39/255
f 162/36/256 166/39/256 171/46/256
f 163/37/257 162/36/257 167/47/257
f 164/42/258 163/41/258 168/48/258
f 165/44/259 164/42/259 169/49/259
f 166/39/260 165/44/260 170/50/260
f 162/36/261 171/46/261 167/47/261
f 163/37/262 167/47/262 168/51/262
f 164/42/263 168/48/263 169/49/263
f 165/44/264 169/49/264 170/50/264
f 166/39/265 170/50/265 171/46/265
f 167/47/266 171/46/266 172/52/266
f 168/51/267 167/47/267 172/53/267
f 169/49/268 168/48/268 172/54/268
f 170/50/269 169/49/269 172/55/269
f 171/46/270 170/50/270 172/56/270
f 173/35/271 174/36/271 175/37/271
f 174/36/272 173/38/272 178/39/272
f 173/40/273 175/41/273 176/42/273
f 173/43/274 176/42/274 177/44/274
f 173/45/275 177/44/275 178/39/275
f 174/36/276 178/39/276 183/46/276
f 175/37/277 174/36/277 179/47/277
f 176/42/278 175/41/278 180/48/278
f 177/44/279 176/42/279 181/49/279
f 178/39/280 177/44/280 182/50/280
f 174/36/281 183/46/281 179/47/281
f 175/37/282 179/47/282 180/51/282
f 176/42/283 180/48/283 181/49/283
f 177/44/284 181/49/284 182/50/284
f 178/39/285 182/50/285 183/46/285
f 179/47/286 183/46/286 184/52/286
f 180/51/287 179/47/287 184/53/287
f 181/49/288 180/48/288 184/54/288
f 182/50/289 181/49/289 184/55/289
f 183/46/290 182/50/290 184/56/290
f 185/35/291 186/36/291 187/37/291
f 186/36/292 185/38/292 190/39/292
f 185/40/293 187/41/293 188/42/293
f 185/43/294 188/42/294 189/44/294
f 185/45/295 189/44/295 190/39/295
f 186/36/296 190/39/296 195/46/296
f 187/37/297 186/36/297 191/47/297
f 188/42/298 187/41/298 192/48/298
f 189/44/299 188/42/299 193/49/299
f 190/39/300 189/44/300 194/50/300
f 186/36/301 195/46/301 191/47/301
f 187/37/302 191/47/302 192/51/302
f 188/42/303 192/48/303 193/49/303
f 189/44/304 193/49/304 194/50/304
f 190/39/305 194/50/305 195/46/305
f 191/47/306 195/46/306 196/52/306
f 192/51/307 191/47/307 196/53/307
f 193/49/308 192/48/308 196/54/308
f 194/50/309 193/49/309 196/55/309
f 195/46/310 194/50/310 196/56/310
f 197/35/311 198/36/311 199/37/311
f 198/36/312 197/38/312 202/39/312
f 197/40/313 199/41/313 200/42/313
f 197/43/314 200/42/314 201/44/314
f 197/45/315 201/44/315 202/39/315
f 198/36/316 202/39/316 207/46/316
f 199/37/317 198/36/317 203/47/317
f 200/42/318 199/41/318 204/48/318
f 201/44/319 200/42/319 205/49/319
f 202/39/320 201/44/320 206/50/320
f 198/36/321 207/46/321 203/47/321
f 199/37/322 203/47/322 204/51/322
f 200/42/323 204/48/323 205/49/323
f 201/44/324 205/49/324 206/50/324
f 202/39/325 206/50/325 207/46/325
f 203/47/326 207/46/326 208/52/326
f 204/51/327 203/47/327 208/53/327
f 205/49/328 204/48/328 208/54/328
f 206/50/329 205/49/329 208/55/329
f 207/46/330 206/50/330 208/56/330
f 209/35/331 210/36/331 211/37/331
f 210/36/332 209/38/332 214/39/332
f 209/40/333 211/41/333 212/42/333
f 209/43/334 212/42/334 213/44/334
f 209/45/335 213/44/335 214/39/335
f 210/36/336 214/39/336 219/46/336
f 211/37/337 210/36/337 215/47/337
f 212/42/338 211/41/338 216/48/338
f 213/44/339 212/42/339 217/49/339
f 214/39/340 213/44/340 218/50/340
f 210/36/341 219/46/341 215/47/341
f 211/37/342 215/47/342 216/51/342
f 212/42/343 216/48/343 217/49/343
f 213/44/344 217/49/344 218/50/344
f 214/39/345 218/50/345 219/46/345
f 215/47/346 219/46/346 220/52/346
f 216/51/347 215/47/347 220/53/347
f 217/49/348 216/48/348 220/54/348
f 218/50/349 217/49/349 220/55/349
f 219/46/350 218/50/350 220/56/350
f 221/35/351 222/36/351 223/37/351
f 222/36/352 221/38/352 226/39/352
f 221/40/353 223/41/353 224/42/353
f 221/43/354 224/42/354 225/44/354
f 221/45/355 225/44/355 226/39/355
f 222/36/356 226/39/356 231/46/356
f 223/37/357 222/36/357 227/47/357
f 224/42/358 223/41/358 228/48/358
f 225/44/359 224/42/359 229/49/359
f 226/39/360 225/44/360 230/50/360
f 222/36/361 231/46/361 227/47/361
f 223/37/362 227/47/362 228/51/362
f 224/42/363 228/48/363 229/49/363
f 225/44/364 229/49/364 230/50/364
f 226/39/365 230/50/365 231/46/365
f 227/47/366 231/46/366 232/52/366
f 228/51/367 227/47/367 232/53/367
f 229/49/368 228/48/368 232/54/368
f 230/50/369 229/49/369 232/55/369
f 231/46/370 230/50/370 232/56/370
f 233/35/371 234/36/371 235/37/371
f 234/36/372 233/38/372 238/39/372
f 233/40/373 235/41/373 236/42/373
f 233/43/374 236/42/374 237/44/374
f 233/45/375 237/44/375 238/39/375
f 234/36/376 238/39/376 243/46/376
f 235/37/377 234/36/377 239/47/377
f 236/42/378 235/41/378 240/48/378
f 237/44/379 236/42/379 241/49/379
f 238/39/380 237/44/380 242/50/380
f 234/36/381 243/46/381 239/47/381
f 235/37/382 239/47/382 240/51/382
f 236/42/383 240/48/383 241/49/383
f 237/44/384 241/49/384 242/50/384
f 238/39/385 242/50/385 243/46/385
f 239/47/386 243/46/386 244/52/386
f 240/51/387 239/47/387 244/53/387
f 241/49/388 240/48/388 244/54/388
f 242/50/389 241/49/389 244/55/389
f 243/46/390 242/50/390 244/56/390
f 245/35/391 246/36/391 247/37/391
f 246/36/392 245/38/392 250/39/392
f 245/40/393 247/41/393 248/42/393
f 245/43/394 248/42/394 249/44/394
f 245/45/395 249/44/395 250/39/395
f 246/36/396 250/39/396 255/46/396
f 247/37/397 246/36/397 251/47/397
f 248/42/398 247/41/398 252/48/398
f 249/44/399 248/42/399 253/49/399
f 250/39/400 249/44/400 254/50/400
f 246/36/401 255/46/401 251/47/401
f 247/37/402 251/47/402 252/51/402
f 248/42/403 252/48/403 253/49/403
f 249/44/404 253/49/404 254/50/404
f 250/39/405 254/50/405 255/46/405
f 251/47/406 255/46/406 256/52/406
f 252/51/407 251/47/407 256/53/407
f 253/49/408 252/48/408 256/54/408
f 254/50/409 253/49/409 256/55/409
f 255/46/410 254/50/410 256/56/410
f 257/35/411 258/36/411 259/37/411
f 258/36/412 257/38/412 262/39/412
f 257/40/413 259/41/413 260/42/413
f 257/43/414 260/42/414 261/44/414
f 257/45/415 261/44/415 262/39/415
f 258/36/416 262/39/416 267/46/416
f 259/37/417 258/36/417 263/47/417
f 260/42/418 259/41/418 264/48/418
f 261/44/419 260/42/419 265/49/419
f 262/39/420 261/44/420 266/50/420
f 258/36/421 267/46/421 263/47/421
f 259/37/422 263/47/422 264/51/422
f 260/42/423 264/48/423 265/49/423
f 261/44/424 265/49/424 266/50/424
f 262/39/425 266/50/425 267/46/425
f 263/47/426 267/46/426 268/52/426
f 264/51/427 263/47/427 268/53/427
f 265/49/428 264/48/428 268/54/428
f 266/50/429 265/49/429 268/55/429
f 267/46/430 266/50/430 268/56/430
f 269/35/431 270/36/431 271/37/431
f 270/36/432 269/38/432 274/39/432
f 269/40/433 271/41/433 272/42/433
f 269/43/434 272/42/434 273/44/434
f 269/45/435 273/44/435 274/39/435
f 270/36/436 274/39/436 279/46/436
f 271/37/437 270/36/437 275/47/437
f 272/42/438 271/41/438 276/48/438
f 273/44/439 272/42/439 277/49/439
f 274/39/440 273/44/440 278/50/440
f 270/36/441 279/46/441 275/47/441
f 271/37/442 275/47/442 276/51/442
f 272/42/443 276/48/443 277/49/443
f 273/44/444 277/49/444 278/50/444
f 274/39/445 278/50/445 279/46/445
f 275/47/446 279/46/446 280/52/446
f 276/51/447 275/47/447 280/53/447
f 277/49/448 276/48/448 280/54/448
f 278/50/449 277/49/449 280/55/449
f 279/46/450 278/50/450 280/56/450
f 281/35/451 282/36/451 283/37/451
f 282/36/452 281/38/452 286/39/452
f 281/40/453 283/41/453 284/42/453
f 281/43/454 284/42/454 285/44/454
f 281/45/455 285/44/455 286/39/455
f 282/36/456 286/39/456 291/46/456
f 283/37/457 282/36/457 287/47/457
f 284/42/458 283/41/458 288/48/458
f 285/44/459 284/42/459 289/49/459
f 286/39/460 285/44/460 290/50/460
f 282/36/461 291/46/461 287/47/461
f 283/37/462 287/47/462 288/51/462
f 284/42/463 288/48/463 289/49/463
f 285/44/464 289/49/464 290/50/464
f 286/39/465 290/50/465 291/46/465
f 287/47/466 291/46/466 292/52/466
f 288/51/467 287/47/467 292/53/467
f 289/49/468 288/48/468 292/54/468
f 290/50/469 289/49/469 292/55/469
f 291/46/470 290/50/470 292/56/470
f 293/35/471 294/36/471 295/37/471
f 294/36/472 293/38/472 298/39/472
f 293/40/473 295/41/473 296/42/473
f 293/43/474 296/42/474 297/44/474
f 293/45/475 297/44/475 298/39/475
f 294/36/476 298/39/476 303/46/476
f 295/37/477 294/36/477 299/47/477
f 296/42/478 295/41/478 300/48/478
f 297/44/479 296/42/479 301/49/479
f 298/39/480 297/44/480 302/50/480
f 294/36/481 303/46/481 299/47/481
f 295/37/482 299/47/482 300/51/482
f 296/42/483 300/48/483 301/49/483
f 297/44/484 301/49/484 302/50/484
f 298/39/485 302/50/485 303/46/485
f 299/47/486 303/46/486 304/52/486
f 300/51/487 299/47/487 304/53/487
f 301/49/488 300/48/488 304/54/488
f 302/50/489 301/49/489 304/55/489
f 303/46/490 302/50/490 304/56/490
usemtl rsc_unripe
f 305/35/491 306/36/491 307/37/491
f 306/36/492 305/38/492 310/39/492
f 305/40/493 307/41/493 308/42/493
f 305/43/494 308/42/494 309/44/494
f 305/45/495 309/44/495 310/39/495
f 306/36/496 310/39/496 315/46/496
f 307/37/497 306/36/497 311/47/497
f 308/42/498 307/41/498 312/48/498
f 309/44/499 308/42/499 313/49/499
f 310/39/500 309/44/500 314/50/500
f 306/36/501 315/46/501 311/47/501
f 307/37/502 311/47/502 312/51/502
f 308/42/503 312/48/503 313/49/503
f 309/44/504 313/49/504 314/50/504
f 310/39/505 314/50/505 315/46/505
f 311/47/506 315/46/506 316/52/506
f 312/51/507 311/47/507 316/53/507
f 313/49/508 312/48/508 316/54/508
f 314/50/509 313/49/509 316/55/509
f 315/46/510 314/50/510 316/56/510
f 317/35/491 318/36/491 319/37/491
f 318/36/492 317/38/492 322/39/492
f 317/40/493 319/41/493 320/42/493
f 317/43/494 320/42/494 321/44/494
f 317/45/495 321/44/495 322/39/495
f 318/36/496 322/39/496 327/46/496
f 319/37/497 318/36/497 323/47/497
f 320/42/498 319/41/498 324/48/498
f 321/44/499 320/42/499 325/49/499
f 322/39/500 321/44/500 326/50/500
f 318/36/501 327/46/501 323/47/501
f 319/37/502 323/47/502 324/51/502
f 320/42/503 324/48/503 325/49/503
f 321/44/504 325/49/504 326/50/504
f 322/39/505 326/50/505 327/46/505
f 323/47/506 327/46/506 328/52/506
f 324/51/507 323/47/507 328/53/507
f 325/49/508 324/48/508 328/54/508
f 326/50/509 325/49/509 328/55/509
f 327/46/510 326/50/510 328/56/510
f 329/35/491 330/36/491 331/37/491
f 330/36/492 329/38/492 334/39/492
f 329/40/493 331/41/493 332/42/493
f 329/43/494 332/42/494 333/44/494
f 329/45/495 333/44/495 334/39/495
f 330/36/496 334/39/496 339/46/496
f 331/37/497 330/36/497 335/47/497
f 332/42/498 331/41/498 336/48/498
f 333/44/499 332/42/499 337/49/499
f 334/39/500 333/44/500 338/50/500
f 330/36/501 339/46/501 335/47/501
f 331/37/502 335/47/502 336/51/502
f 332/42/503 336/48/503 337/49/503
f 333/44/504 337/49/504 338/50/504
f 334/39/505 338/50/505 339/46/505
f 335/47/506 339/46/506 340/52/506
f 336/51/507 335/47/507 340/53/507
f 337/49/508 336/48/508 340/54/508
f 338/50/509 337/49/509 340/55/509
f 339/46/510 338/50/510 340/56/510
f 341/35/491 342/36/491 343/37/491
f 342/36/492 341/38/492 346/39/492
f 341/40/493 343/41/493 344/42/493
f 341/43/494 344/42/494 345/44/494
f 341/45/495 345/44/495 346/39/495
f 342/36/496 346/39/496 351/46/496
f 343/37/497 342/36/497 347/47/497
f 344/42/498 343/41/498 348/48/498
f 345/44/499 344/42/499 349/49/499
f 346/39/500 345/44/500 350/50/500
f 342/36/501 351/46/501 347/47/501
f 343/37/502 347/47/502 348/51/502
f 344/42/503 348/48/503 349/49/503
f 345/44/504 349/49/504 350/50/504
f 346/39/505 350/50/505 351/46/505
f 347/47/506 351/46/506 352/52/506
f 348/51/507 347/47/507 352/53/507
f 349/49/508 348/48/508 352/54/508
f 350/50/509 349/49/509 352/55/509
f 351/46/510 350/50/510 352/56/510
f 353/35/491 354/36/491 355/37/491
f 354/36/492 353/38/492 358/39/492
f 353/40/493 355/41/493 356/42/493
f 353/43/494 356/42/494 357/44/494
f 353/45/495 357/44/495 358/39/495
f 354/36/496 358/39/496 363/46/496
f 355/37/497 354/36/497 359/47/497
f 356/42/498 355/41/498 360/48/498
f 357/44/499 356/42/499 361/49/499
f 358/39/500 357/44/500 362/50/500
f 354/36/501 363/46/501 359/47/501
f 355/37/502 359/47/502 360/51/502
f 356/42/503 360/48/503 361/49/503
f 357/44/504 361/49/504 362/50/504
f 358/39/505 362/50/505 363/46/505
f 359/47/506 363/46/506 364/52/506
f 360/51/507 359/47/507 364/53/507
f 361/49/508 360/48/508 364/54/508
f 362/50/509 361/49/509 364/55/509
f 363/46/510 362/50/510 364/56/510
