# Blender 4.0.2
# www.blender.org
mtllib stage_1.mtl
o Tomato_Stage1_v2
v 0.000000 -0.120000 0.000000
v 0.000000 -0.120000 0.020000
v -0.084853 -0.084853 0.000000
v -0.084853 -0.084853 0.020000
v -0.120000 0.000000 0.000000
v -0.120000 0.000000 0.020000
v -0.084853 0.084853 0.000000
v -0.084853 0.084853 0.020000
v 0.000000 0.120000 0.000000
v 0.000000 0.120000 0.020000
v 0.084853 0.084853 0.000000
v 0.084853 0.084853 0.020000
v 0.120000 0.000000 0.000000
v 0.120000 0.000000 0.020000
v 0.084853 -0.084853 0.000000
v 0.084853 -0.084853 0.020000
v 0.028012 -0.012265 0.065630
v 0.048879 -0.008605 0.063915
v 0.039680 -0.028945 0.071747
v 0.017859 -0.024504 0.079734
v 0.013571 -0.001419 0.076838
v 0.032743 0.008407 0.067061
v 0.051623 -0.018581 0.076959
v 0.032451 -0.028407 0.086736
v 0.016315 -0.011396 0.089882
v 0.025514 0.008945 0.082050
v 0.047335 0.004504 0.074063
v 0.037183 -0.007735 0.088167
v 0.013720 0.001594 0.069521
v 0.000593 0.016898 0.062793
v 0.018098 0.020446 0.078306
v 0.023195 -0.000309 0.088452
v 0.008839 -0.016685 0.079209
v -0.005129 -0.006051 0.063351
v 0.001955 0.024454 0.077567
v 0.015924 0.013819 0.093425
v 0.010201 -0.009129 0.093983
v -0.007304 -0.012678 0.078469
v -0.012400 0.008078 0.068324
v -0.002925 0.006175 0.087255
v 0.026018 0.017928 0.041897
v 0.006997 0.027235 0.043736
v 0.027542 0.038526 0.046917
v 0.043982 0.022402 0.052341
v 0.033597 0.001146 0.052512
v 0.010740 0.004133 0.047193
v 0.013206 0.037461 0.055316
v 0.036064 0.034473 0.060634
v 0.039806 0.011371 0.064092
v 0.019261 0.000080 0.060911
v 0.002821 0.016205 0.055487
v 0.020785 0.020678 0.065931
vn -0.3827 -0.9239 -0.0000
vn -0.9239 -0.3827 -0.0000
vn -0.9239 0.3827 -0.0000
vn -0.3827 0.9239 -0.0000
vn 0.3827 0.9239 -0.0000
vn 0.9239 0.3827 -0.0000
vn -0.0000 -0.0000 1.0000
vn 0.9239 -0.3827 -0.0000
vn 0.3827 -0.9239 -0.0000
vn -0.0000 -0.0000 -1.0000
vn -0.0149 -0.3534 -0.9353
vn -0.0974 0.0909 -0.9911
vn -0.3839 -0.5426 -0.7472
vn -0.6945 -0.2151 -0.6866
vn -0.5174 0.1764 -0.8373
vn 0.4740 0.5732 -0.6684
vn 0.6753 -0.5104 -0.5324
vn -0.2246 -0.9717 -0.0735
vn -0.9821 -0.1731 0.0742
vn -0.5503 0.7817 -0.2934
vn 0.9821 0.1731 -0.0742
vn 0.5503 -0.7817 0.2934
vn -0.4740 -0.5732 0.6684
vn -0.6753 0.5104 0.5324
vn 0.2246 0.9717 0.0735
vn 0.6945 0.2151 0.6866
vn 0.5174 -0.1764 0.8373
vn 0.0974 -0.0909 0.9911
vn 0.0149 0.3534 0.9353
vn 0.3839 0.5426 0.7472
vn 0.6254 0.2055 -0.7527
vn 0.3491 -0.1097 -0.9306
vn 0.8943 0.0009 -0.4475
vn 0.7841 -0.4409 -0.4368
vn 0.4472 -0.5092 -0.7354
vn -0.4401 0.0880 -0.8936
vn 0.2337 0.8567 -0.4597
vn 0.8894 0.3576 0.2847
vn 0.6208 -0.7197 0.3108
vn -0.2009 -0.8863 -0.4174
vn -0.6208 0.7197 -0.3108
vn 0.2009 0.8863 0.4174
vn 0.4401 -0.0880 0.8936
vn -0.2337 -0.8567 0.4597
vn -0.8894 -0.3576 -0.2847
vn -0.7841 0.4409 0.4368
vn -0.4472 0.5092 0.7354
vn -0.3491 0.1097 0.9306
vn -0.6254 -0.2055 0.7527
vn -0.8943 -0.0009 0.4475
vn 0.0212 0.2353 -0.9717
vn -0.1787 -0.1739 -0.9684
vn 0.4611 0.1778 -0.8693
vn 0.5332 -0.2669 -0.8028
vn 0.1377 -0.4843 -0.8640
vn -0.8418 -0.2107 -0.4970
vn -0.3543 0.7870 -0.5050
vn 0.7186 0.6468 -0.2553
vn 0.8943 -0.4377 -0.0930
vn -0.0701 -0.9677 -0.2424
vn -0.8943 0.4377 0.0930
vn 0.0701 0.9677 0.2424
vn 0.8418 0.2107 0.4970
vn 0.3543 -0.7870 0.5050
vn -0.7186 -0.6468 0.2553
vn -0.5332 0.2669 0.8028
vn -0.1377 0.4843 0.8640
vn 0.1787 0.1739 0.9684
vn -0.0212 -0.2353 0.9717
vn -0.4612 -0.1778 0.8693
vt 1.000000 0.500000
vt 1.000000 1.000000
vt 0.875000 1.000000
vt 0.875000 0.500000
vt 0.750000 1.000000
vt 0.750000 0.500000
vt 0.625000 1.000000
vt 0.625000 0.500000
vt 0.500000 1.000000
vt 0.500000 0.500000
vt 0.375000 1.000000
vt 0.375000 0.500000
vt 0.250000 1.000000
vt 0.250000 0.500000
vt 0.419706 0.419706
vt 0.250000 0.490000
vt 0.080294 0.419706
vt 0.010000 0.250000
vt 0.080294 0.080294
vt 0.250000 0.010000
vt 0.419706 0.080294
vt 0.490000 0.250000
vt 0.125000 1.000000
vt 0.125000 0.500000
vt 0.000000 1.000000
vt 0.000000 0.500000
vt 0.750000 0.490000
vt 0.919706 0.419706
vt 0.990000 0.250000
vt 0.919706 0.080294
vt 0.750000 0.010000
vt 0.580294 0.080294
vt 0.510000 0.250000
vt 0.580294 0.419706
vt 0.181819 0.000000
vt 0.272728 0.157461
vt 0.090910 0.157461
vt 0.363637 0.000000
vt 0.454546 0.157461
vt 0.909091 0.000000
vt 1.000000 0.157461
vt 0.818182 0.157461
vt 0.727273 0.000000
vt 0.636364 0.157461
vt 0.545455 0.000000
vt 0.363637 0.314921
vt 0.181819 0.314921
vt 0.909091 0.314921
vt 0.727273 0.314921
vt 0.545455 0.314921
vt 0.000000 0.314921
vt 0.272728 0.472382
vt 0.090910 0.472382
vt 0.818182 0.472382
vt 0.636364 0.472382
vt 0.454546 0.472382
s 0
usemtl rsc_soil
f 1/1/1 2/2/1 4/3/1 3/4/1
f 3/4/2 4/3/2 6/5/2 5/6/2
f 5/6/3 6/5/3 8/7/3 7/8/3
f 7/8/4 8/7/4 10/9/4 9/10/4
f 9/10/5 10/9/5 12/11/5 11/12/5
f 11/12/6 12/11/6 14/13/6 13/14/6
f 4/15/7 2/16/7 16/17/7 14/18/7 12/19/7 10/20/7 8/21/7 6/22/7
f 13/14/8 14/13/8 16/23/8 15/24/8
f 15/24/9 16/23/9 2/25/9 1/26/9
f 1/27/10 3/28/10 5/29/10 7/30/10 9/31/10 11/32/10 13/33/10 15/34/10
usemtl rsc_foliage
f 17/35/11 18/36/11 19/37/11
f 18/36/12 17/38/12 22/39/12
f 17/40/13 19/41/13 20/42/13
f 17/43/14 20/42/14 21/44/14
f 17/45/15 21/44/15 22/39/15
f 18/36/16 22/39/16 27/46/16
f 19/37/17 18/36/17 23/47/17
f 20/42/18 19/41/18 24/48/18
f 21/44/19 20/42/19 25/49/19
f 22/39/20 21/44/20 26/50/20
f 18/36/21 27/46/21 23/47/21
f 19/37/22 23/47/22 24/51/22
f 20/42/23 24/48/23 25/49/23
f 21/44/24 25/49/24 26/50/24
f 22/39/25 26/50/25 27/46/25
f 23/47/26 27/46/26 28/52/26
f 24/51/27 23/47/27 28/53/27
f 25/49/28 24/48/28 28/54/28
f 26/50/29 25/49/29 28/55/29
f 27/46/30 26/50/30 28/56/30
f 29/35/31 30/36/31 31/37/31
f 30/36/32 29/38/32 34/39/32
f 29/40/33 31/41/33 32/42/33
f 29/43/34 32/42/34 33/44/34
f 29/45/35 33/44/35 34/39/35
f 30/36/36 34/39/36 39/46/36
f 31/37/37 30/36/37 35/47/37
f 32/42/38 31/41/38 36/48/38
f 33/44/39 32/42/39 37/49/39
f 34/39/40 33/44/40 38/50/40
f 30/36/41 39/46/41 35/47/41
f 31/37/42 35/47/42 36/51/42
f 32/42/43 36/48/43 37/49/43
f 33/44/44 37/49/44 38/50/44
f 34/39/45 38/50/45 39/46/45
f 35/47/46 39/46/46 40/52/46
f 36/51/47 35/47/47 40/53/47
f 37/49/48 36/48/48 40/54/48
f 38/50/49 37/49/49 40/55/49
f 39/46/50 38/50/50 40/56/50
f 41/35/51 42/36/51 43/37/51
f 42/36/52 41/38/52 46/39/52
f 41/40/53 43/41/53 44/42/53
f 41/43/54 44/42/54 45/44/54
f 41/45/55 45/44/55 46/39/55
f 42/36/56 46/39/56 51/46/56
f 43/37/57 42/36/57 47/47/57
f 44/42/58 43/41/58 48/48/58
f 45/44/59 44/42/59 49/49/59
f 46/39/60 45/44/60 50/50/60
f 42/36/61 51/46/61 47/47/61
f 43/37/62 47/47/62 48/51/62
f 44/42/63 48/48/63 49/49/63
f 45/44/64 49/49/64 50/50/64
f 46/39/65 50/50/65 51/46/65
f 47/47/66 51/46/66 52/52/66
f 48/51/67 47/47/67 52/53/67
f 49/49/68 48/48/68 52/54/68
f 50/50/69 49/49/69 52/55/69
f 51/46/70 50/50/70 52/56/70
