# Blender 4.0.2
# www.blender.org
mtllib stage_2.mtl
o Tomato_Stage2_v2
v 0.000000 -0.200000 0.000000
v 0.000000 -0.200000 0.020000
v -0.141421 -0.141421 0.000000
v -0.141421 -0.141421 0.020000
v -0.200000 0.000000 0.000000
v -0.200000 0.000000 0.020000
v -0.141421 0.141421 0.000000
v -0.141421 0.141421 0.020000
v 0.000000 0.200000 0.000000
v 0.000000 0.200000 0.020000
v 0.141421 0.141421 0.000000
v 0.141421 0.141421 0.020000
v 0.200000 0.000000 0.000000
v 0.200000 0.000000 0.020000
v 0.141421 -0.141421 0.000000
v 0.141421 -0.141421 0.020000
v -0.062840 0.017525 0.106305
v -0.069548 0.058654 0.097908
v -0.026594 0.039500 0.103078
v -0.031208 -0.000081 0.128591
v -0.077016 -0.005387 0.139188
v -0.100710 0.030913 0.120225
v -0.042061 0.066469 0.115004
v -0.018367 0.030169 0.133967
v -0.049529 0.002427 0.156283
v -0.092483 0.021582 0.151113
v -0.087869 0.061162 0.125601
v -0.056237 0.043557 0.147886
v -0.001480 -0.113576 0.128193
v -0.033137 -0.095453 0.106363
v 0.004933 -0.072029 0.121879
v 0.023256 -0.096290 0.158134
v -0.003490 -0.134708 0.165025
v -0.038342 -0.134190 0.133028
v -0.027965 -0.066966 0.122812
v 0.006887 -0.067483 0.154809
v 0.001682 -0.106220 0.181474
v -0.036388 -0.129644 0.165958
v -0.054711 -0.105384 0.129703
v -0.029975 -0.088097 0.159644
v -0.006854 -0.011768 0.142578
v -0.023151 0.019815 0.119253
v 0.020754 0.020052 0.136889
v 0.021811 -0.009428 0.173883
v -0.021442 -0.027884 0.179110
v -0.049229 -0.009811 0.145347
v -0.004557 0.041675 0.136142
v 0.023230 0.023602 0.169906
v -0.002849 -0.006024 0.196000
v -0.046754 -0.006261 0.178364
v -0.047810 0.023219 0.141369
v -0.019145 0.025560 0.172675
v 0.060155 -0.012676 0.122816
v 0.095197 -0.010545 0.098845
v 0.082351 -0.048927 0.123350
v 0.053817 -0.035004 0.158431
v 0.049028 0.011984 0.155607
v 0.074603 0.027100 0.118781
v 0.110517 -0.031556 0.119646
v 0.084943 -0.046672 0.156472
v 0.064348 -0.009027 0.176407
v 0.077194 0.029355 0.151902
v 0.105729 0.015432 0.116821
v 0.099391 -0.006896 0.152437
v -0.037690 -0.021712 0.129041
v -0.003743 -0.044387 0.117185
v -0.037021 -0.060329 0.146801
v -0.058659 -0.022887 0.166001
v -0.038753 0.016196 0.148251
v -0.004813 0.002907 0.118081
v -0.003731 -0.059576 0.146818
v -0.037671 -0.046288 0.176988
v -0.038741 0.001007 0.177884
v -0.005463 0.016948 0.148268
v 0.016175 -0.020494 0.129068
v -0.004794 -0.021668 0.166028
v 0.005450 0.026901 0.139179
v 0.047344 0.022558 0.133418
v 0.017418 -0.013858 0.137546
v -0.021088 0.001383 0.160433
v -0.014959 0.047218 0.170449
v 0.027334 0.060304 0.153753
v 0.046698 -0.005644 0.151111
v 0.004405 -0.018731 0.167808
v -0.015605 0.019016 0.188143
v 0.014322 0.055432 0.184014
v 0.052827 0.040191 0.161127
v 0.026289 0.014673 0.182382
v 0.044752 0.056852 0.187346
v 0.056511 0.016258 0.182765
v 0.012587 0.029848 0.193931
v 0.015076 0.073019 0.213137
v 0.060539 0.086109 0.213840
v 0.086147 0.051029 0.195069
v 0.034103 0.007337 0.205724
v 0.008495 0.042417 0.224495
v 0.038131 0.077188 0.236799
v 0.082056 0.063597 0.225632
v 0.079567 0.020427 0.206427
v 0.049891 0.036594 0.232218
v -0.061745 0.074019 0.142056
v -0.062482 0.031714 0.137943
v -0.098597 0.057156 0.154889
v -0.081294 0.098087 0.171137
v -0.034485 0.097942 0.164232
v -0.022860 0.056921 0.143716
v -0.082488 0.029637 0.164481
v -0.094114 0.070657 0.184997
v -0.054491 0.095864 0.190770
v -0.018376 0.070423 0.173824
v -0.035679 0.029491 0.157576
v -0.055228 0.053560 0.186657
v -0.034254 0.030928 0.080595
v -0.071292 0.010066 0.080199
v -0.067616 0.057221 0.078914
v -0.025609 0.069114 0.097154
v -0.003324 0.029309 0.109712
v -0.031558 -0.007184 0.099233
v -0.085537 0.035360 0.096513
v -0.057303 0.071853 0.106992
v -0.017569 0.054603 0.126027
v -0.021245 0.007448 0.127311
v -0.063252 -0.004445 0.109071
v -0.054606 0.033741 0.125630
v 0.059153 0.013901 0.136636
v 0.089011 0.043104 0.128712
v 0.098486 -0.001315 0.141974
v 0.060409 -0.018343 0.164312
v 0.027402 0.015553 0.164855
v 0.045079 0.053529 0.142853
v 0.108721 0.028909 0.151490
v 0.091044 -0.009067 0.173492
v 0.047112 0.001358 0.187633
v 0.037637 0.045777 0.174370
v 0.075714 0.062805 0.152033
v 0.076970 0.030561 0.179708
v -0.009168 -0.036722 0.150814
v 0.015530 -0.005708 0.135476
v 0.028912 -0.050995 0.138434
v 0.002466 -0.071918 0.171623
v -0.027261 -0.039562 0.189178
v -0.019186 0.001358 0.166837
v 0.042429 -0.021737 0.146805
v 0.034355 -0.062657 0.169145
v -0.000362 -0.055591 0.200507
v -0.013744 -0.010304 0.197549
v 0.012703 0.010619 0.164359
v 0.024337 -0.024577 0.185168
v 0.051188 0.004401 0.111136
v 0.069426 -0.030716 0.095602
v 0.024042 -0.028226 0.108747
v 0.019660 0.007477 0.139486
v 0.062337 0.027051 0.145339
v 0.093094 0.003447 0.118217
v 0.049170 -0.049344 0.114351
v 0.018413 -0.025740 0.141472
v 0.042081 0.008423 0.164087
v 0.087465 0.005933 0.150943
v 0.091847 -0.029770 0.120204
v 0.060319 -0.026694 0.148553
v 0.032180 -0.007438 0.083374
v -0.006185 0.008534 0.092325
v 0.033915 0.033554 0.094500
v 0.069794 0.003215 0.100073
v 0.051867 -0.040554 0.101343
v 0.004909 -0.037266 0.096554
v 0.007718 0.029060 0.114557
v 0.054675 0.025772 0.119346
v 0.065770 -0.020029 0.123575
v 0.025669 -0.045048 0.121400
v -0.010209 -0.014710 0.115827
v 0.027404 -0.004056 0.132526
v 0.008983 -0.052131 0.099839
v 0.046550 -0.067707 0.087460
v 0.013827 -0.093016 0.110425
v -0.014195 -0.062904 0.133809
v 0.001211 -0.018984 0.125296
v 0.038753 -0.021953 0.096651
v 0.046590 -0.088107 0.113779
v 0.009049 -0.085138 0.142424
v 0.001252 -0.039384 0.151615
v 0.033975 -0.014075 0.128650
v 0.061996 -0.044187 0.105266
v 0.038819 -0.054960 0.139235
vn -0.3827 -0.9239 -0.0000
vn -0.9239 -0.3827 -0.0000
vn -0.9239 0.3827 -0.0000
vn -0.3827 0.9239 -0.0000
vn 0.3827 0.9239 -0.0000
vn 0.9239 0.3827 -0.0000
vn -0.0000 -0.0000 1.0000
vn 0.9239 -0.3827 -0.0000
vn 0.3827 -0.9239 -0.0000
vn -0.0000 -0.0000 -1.0000
vn 0.0310 -0.1951 -0.9803
vn -0.4099 -0.2462 -0.8783
vn 0.2590 -0.5444 -0.7978
vn -0.0409 -0.8114 -0.5830
vn -0.4543 -0.6271 -0.6328
vn -0.7433 0.4096 -0.5289
vn 0.3318 0.5341 -0.7776
vn 0.8879 -0.3179 -0.3325
vn 0.1565 -0.9690 0.1913
vn -0.8517 -0.5194 0.0699
vn -0.1565 0.9690 -0.1913
vn 0.8517 0.5194 -0.0699
vn 0.7433 -0.4096 0.5289
vn -0.3318 -0.5341 0.7776
vn -0.8879 0.3179 0.3325
vn 0.0409 0.8114 0.5830
vn 0.4543 0.6271 0.6328
vn 0.4099 0.2462 0.8783
vn -0.0310 0.1951 0.9803
vn -0.2590 0.5444 0.7978
vn 0.4743 -0.2034 -0.8566
vn 0.2168 -0.5731 -0.7903
vn 0.8097 -0.2084 -0.5486
vn 0.7596 -0.5812 -0.2920
vn 0.3932 -0.8066 -0.4413
vn -0.5766 -0.4093 -0.7071
vn 0.0511 0.4924 -0.8689
vn 0.8692 0.4803 -0.1179
vn 0.7470 -0.4289 0.5080
vn -0.1466 -0.9787 0.1438
vn -0.7470 0.4289 -0.5080
vn 0.1466 0.9787 -0.1438
vn 0.5766 0.4093 0.7071
vn -0.0511 -0.4924 0.8689
vn -0.8692 -0.4803 0.1179
vn -0.7596 0.5812 0.2920
vn -0.3932 0.8066 0.4413
vn -0.2168 0.5731 0.7903
vn -0.4743 0.2034 0.8566
vn -0.8097 0.2084 0.5486
vn 0.3366 -0.4408 -0.8321
vn -0.0797 -0.6185 -0.7818
vn 0.6040 -0.6148 -0.5071
vn 0.3531 -0.8999 -0.2560
vn -0.0695 -0.9022 -0.4257
vn -0.6711 -0.0602 -0.7390
vn 0.3441 0.3730 -0.8616
vn 0.9963 -0.0511 -0.0692
vn 0.3842 -0.7465 0.5433
vn -0.6463 -0.7521 0.1293
vn -0.3842 0.7465 -0.5433
vn 0.6463 0.7521 -0.1293
vn 0.6711 0.0602 0.7390
vn -0.3441 -0.3730 0.8616
vn -0.9963 0.0511 0.0692
vn -0.3531 0.8999 0.2560
vn 0.0695 0.9022 0.4257
vn 0.0797 0.6185 0.7818
vn -0.3366 0.4408 0.8321
vn -0.6040 0.6148 0.5071
vn -0.5193 -0.3296 -0.7885
vn -0.5654 0.1226 -0.8157
vn -0.7654 -0.4751 -0.4341
vn -0.9637 -0.1128 -0.2422
vn -0.8400 0.2566 -0.4780
vn 0.1433 0.5232 -0.8401
vn 0.2557 -0.5796 -0.7738
vn -0.3446 -0.9344 0.0906
vn -0.8280 -0.0508 0.5585
vn -0.5264 0.8500 -0.0167
vn 0.8280 0.0508 -0.5585
vn 0.5264 -0.8500 0.0167
vn -0.1433 -0.5232 0.8401
vn -0.2557 0.5796 0.7738
vn 0.3446 0.9344 -0.0906
vn 0.9637 0.1128 0.2422
vn 0.8400 -0.2566 0.4780
vn 0.5654 -0.1226 0.8157
vn 0.5193 0.3296 0.7885
vn 0.7654 0.4751 0.4341
vn -0.5149 -0.3655 -0.7754
vn -0.3234 0.0106 -0.9462
vn -0.8416 -0.2376 -0.4850
vn -0.8519 0.2175 -0.4764
vn -0.5316 0.3710 -0.7614
vn 0.4876 0.0276 -0.8727
vn 0.0204 -0.8897 -0.4560
vn -0.7762 -0.5779 0.2521
vn -0.8014 0.5322 0.2731
vn -0.0203 0.9064 -0.4220
vn 0.8014 -0.5322 -0.2731
vn 0.0203 -0.9064 0.4220
vn -0.4876 -0.0276 0.8727
vn -0.0204 0.8897 0.4560
vn 0.7762 0.5779 -0.2521
vn 0.8519 -0.2175 0.4764
vn 0.5316 -0.3710 0.7614
vn 0.3234 -0.0106 0.9462
vn 0.5149 0.3655 0.7754
vn 0.8416 0.2376 0.4850
vn -0.1363 -0.0003 -0.9907
vn -0.0773 0.4408 -0.8943
vn -0.5433 -0.1263 -0.8300
vn -0.7359 0.2370 -0.6343
vn -0.4479 0.5875 -0.6740
vn 0.6199 0.6006 -0.5049
vn 0.4761 -0.4752 -0.7400
vn -0.5165 -0.7823 -0.3481
vn -0.9862 0.1036 0.1292
vn -0.2838 0.9583 0.0323
vn 0.9862 -0.1036 -0.1292
vn 0.2838 -0.9583 -0.0323
vn -0.6199 -0.6006 0.5049
vn -0.4761 0.4752 0.7400
vn 0.5165 0.7823 0.3481
vn 0.7359 -0.2370 0.6343
vn 0.4479 -0.5875 0.6740
vn 0.0773 -0.4408 0.8943
vn 0.1363 0.0003 0.9907
vn 0.5433 0.1263 0.8300
vn -0.2340 0.0418 -0.9713
vn 0.2036 0.1678 -0.9646
vn -0.4804 0.3795 -0.7907
vn -0.1952 0.7141 -0.6723
vn 0.2275 0.5833 -0.7797
vn 0.6958 -0.3766 -0.6116
vn -0.3713 -0.6839 -0.6281
vn -0.9723 0.1395 -0.1875
vn -0.2767 0.9556 0.1013
vn 0.7542 0.6366 -0.1608
vn 0.2767 -0.9556 -0.1013
vn -0.7542 -0.6366 0.1608
vn -0.6958 0.3766 0.6116
vn 0.3713 0.6839 0.6281
vn 0.9723 -0.1395 0.1875
vn 0.1952 -0.7141 0.6723
vn -0.2275 -0.5833 0.7797
vn -0.2036 -0.1678 0.9646
vn 0.2340 -0.0418 0.9713
vn 0.4804 -0.3795 0.7907
vn -0.3664 0.0964 -0.9255
vn 0.0841 0.0950 -0.9919
vn -0.4783 0.4912 -0.7280
vn -0.0969 0.7338 -0.6724
vn 0.2506 0.4889 -0.8355
vn 0.4579 -0.5620 -0.6888
vn -0.6407 -0.5586 -0.5267
vn -0.9136 0.4041 -0.0452
vn 0.0164 0.9958 0.0903
vn 0.8640 0.3986 -0.3074
vn -0.0164 -0.9958 -0.0903
vn -0.8640 -0.3986 0.3074
vn -0.4579 0.5620 0.6888
vn 0.6407 0.5586 0.5267
vn 0.9136 -0.4041 0.0452
vn 0.0969 -0.7338 0.6724
vn -0.2506 -0.4889 0.8355
vn -0.0841 -0.0950 0.9919
vn 0.3664 -0.0964 0.9255
vn 0.4783 -0.4912 0.7280
vn 0.0272 -0.0293 -0.9992
vn 0.2417 -0.4124 -0.8783
vn 0.2990 0.3219 -0.8983
vn 0.6814 0.1558 -0.7152
vn 0.6460 -0.2980 -0.7028
vn -0.2001 -0.8967 -0.3950
vn -0.7231 0.0376 -0.6897
vn -0.0605 0.8941 -0.4437
vn 0.8721 0.4892 0.0030
vn 0.7859 -0.6175 0.0332
vn -0.8721 -0.4892 -0.0030
vn -0.7859 0.6175 -0.0332
vn 0.2001 0.8967 0.3950
vn 0.7231 -0.0376 0.6897
vn 0.0605 -0.8941 0.4437
vn -0.6814 -0.1558 0.7152
vn -0.6460 0.2980 0.7028
vn -0.2417 0.4124 0.8783
vn -0.0272 0.0293 0.9992
vn -0.2990 -0.3219 0.8983
vn 0.0211 -0.2819 -0.9592
vn -0.2966 0.0443 -0.9540
vn -0.1490 -0.6474 -0.7475
vn -0.5718 -0.5470 -0.6114
vn -0.6630 -0.1195 -0.7390
vn -0.0320 0.7544 -0.6556
vn 0.7427 -0.0411 -0.6683
vn 0.3279 -0.9324 -0.1519
vn -0.7033 -0.6877 0.1800
vn -0.9257 0.3548 -0.1313
vn 0.7033 0.6877 -0.1800
vn 0.9257 -0.3548 0.1313
vn 0.0320 -0.7544 0.6556
vn -0.7427 0.0411 0.6683
vn -0.3279 0.9324 0.1519
vn 0.5718 0.5470 0.6114
vn 0.6630 0.1195 0.7390
vn 0.2966 -0.0443 0.9540
vn -0.0211 0.2819 0.9592
vn 0.1490 0.6474 0.7475
vn -0.3608 -0.1665 -0.9177
vn -0.6469 0.1449 -0.7487
vn -0.4385 -0.5604 -0.7027
vn -0.7726 -0.4924 -0.4008
vn -0.9014 -0.0565 -0.4293
vn -0.2777 0.8244 -0.4932
vn 0.4200 0.0650 -0.9052
vn 0.2305 -0.8954 -0.3809
vn -0.5844 -0.7296 0.3552
vn -0.8985 0.3333 0.2858
vn 0.5844 0.7296 -0.3552
vn 0.8985 -0.3333 -0.2858
vn 0.2777 -0.8244 0.4932
vn -0.4200 -0.0650 0.9052
vn -0.2305 0.8954 0.3809
vn 0.7726 0.4924 0.4008
vn 0.9014 0.0565 0.4293
vn 0.6469 -0.1449 0.7487
vn 0.3608 0.1665 0.9177
vn 0.4385 0.5604 0.7027
vn -0.2531 0.2784 -0.9265
vn 0.1577 0.4668 -0.8702
vn -0.5491 0.5056 -0.6655
vn -0.3213 0.8344 -0.4478
vn 0.1155 0.8104 -0.5743
vn 0.7387 -0.0678 -0.6706
vn -0.2629 -0.5273 -0.8080
vn -0.9848 0.0267 -0.1714
vn -0.4293 0.8286 0.3594
vn 0.6359 0.7701 0.0509
vn 0.4293 -0.8286 -0.3594
vn -0.6359 -0.7701 -0.0509
vn -0.7387 0.0678 0.6706
vn 0.2629 0.5273 0.8080
vn 0.9848 -0.0267 0.1714
vn 0.3213 -0.8344 0.4478
vn -0.1155 -0.8104 0.5743
vn -0.1577 -0.4668 0.8702
vn 0.2531 -0.2784 0.9265
vn 0.5491 -0.5056 0.6655
vn -0.1132 0.2647 -0.9577
vn -0.2858 -0.1565 -0.9454
vn 0.3387 0.2331 -0.9116
vn 0.4455 -0.2077 -0.8709
vn 0.0595 -0.4485 -0.8918
vn -0.8821 -0.2505 -0.3988
vn -0.4614 0.7768 -0.4286
vn 0.6407 0.6996 -0.3162
vn 0.9011 -0.3754 -0.2170
vn -0.0401 -0.9626 -0.2680
vn -0.9011 0.3754 0.2170
vn 0.0401 0.9626 0.2680
vn 0.8821 0.2505 0.3988
vn 0.4614 -0.7768 0.4286
vn -0.6407 -0.6996 0.3162
vn -0.4455 0.2077 0.8709
vn -0.0595 0.4485 0.8918
vn 0.2858 0.1565 0.9454
vn 0.1132 -0.2647 0.9577
vn -0.3387 -0.2331 0.9116
vn -0.4015 -0.2738 -0.8739
vn -0.2533 0.1488 -0.9559
vn -0.7628 -0.2453 -0.5983
vn -0.8379 0.1951 -0.5098
vn -0.5229 0.4387 -0.7308
vn 0.5398 0.2532 -0.8028
vn 0.1782 -0.7776 -0.6030
vn -0.7029 -0.7079 0.0693
vn -0.8859 0.3660 0.2851
vn -0.1178 0.9600 -0.2540
vn 0.8859 -0.3660 -0.2851
vn 0.1178 -0.9600 0.2540
vn -0.5398 -0.2532 0.8028
vn -0.1782 0.7776 0.6030
vn 0.7029 0.7079 -0.0693
vn 0.8379 -0.1951 0.5098
vn 0.5229 -0.4387 0.7308
vn 0.2533 -0.1488 0.9559
vn 0.4015 0.2738 0.8739
vn 0.7628 0.2453 0.5983
vt 1.000000 0.500000
vt 1.000000 1.000000
vt 0.875000 1.000000
vt 0.875000 0.500000
vt 0.750000 1.000000
vt 0.750000 0.500000
vt 0.625000 1.000000
vt 0.625000 0.500000
vt 0.500000 1.000000
vt 0.500000 0.500000
vt 0.375000 1.000000
vt 0.375000 0.500000
vt 0.250000 1.000000
vt 0.250000 0.500000
vt 0.419706 0.419706
vt 0.250000 0.490000
vt 0.080294 0.419706
vt 0.010000 0.250000
vt 0.080294 0.080294
vt 0.250000 0.010000
vt 0.419706 0.080294
vt 0.490000 0.250000
vt 0.125000 1.000000
vt 0.125000 0.500000
vt 0.000000 1.000000
vt 0.000000 0.500000
vt 0.750000 0.490000
vt 0.919706 0.419706
vt 0.990000 0.250000
vt 0.919706 0.080294
vt 0.750000 0.010000
vt 0.580294 0.080294
vt 0.510000 0.250000
vt 0.580294 0.419706
vt 0.181819 0.000000
vt 0.272728 0.157461
vt 0.090910 0.157461
vt 0.363637 0.000000
vt 0.454546 0.157461
vt 0.909091 0.000000
vt 1.000000 0.157461
vt 0.818182 0.157461
vt 0.727273 0.000000
vt 0.636364 0.157461
vt 0.545455 0.000000
vt 0.363637 0.314921
vt 0.181819 0.314921
vt 0.909091 0.314921
vt 0.727273 0.314921
vt 0.545455 0.314921
vt 0.000000 0.314921
vt 0.272728 0.472382
vt 0.090910 0.472382
vt 0.818182 0.472382
vt 0.636364 0.472382
vt 0.454546 0.472382
s 0
usemtl rsc_soil
f 1/1/1 2/2/1 4/3/1 3/4/1
f 3/4/2 4/3/2 6/5/2 5/6/2
f 5/6/3 6/5/3 8/7/3 7/8/3
f 7/8/4 8/7/4 10/9/4 9/10/4
f 9/10/5 10/9/5 12/11/5 11/12/5
f 11/12/6 12/11/6 14/13/6 13/14/6
f 4/15/7 2/16/7 16/17/7 14/18/7 12/19/7 10/20/7 8/21/7 6/22/7
f 13/14/8 14/13/8 16/23/8 15/24/8
f 15/24/9 16/23/9 2/25/9 1/26/9
f 1/27/10 3/28/10 5/29/10 7/30/10 9/31/10 11/32/10 13/33/10 15/34/10
usemtl rsc_foliage
f 17/35/11 18/36/11 19/37/11
f 18/36/12 17/38/12 22/39/12
f 17/40/13 19/41/13 20/42/13
f 17/43/14 20/42/14 21/44/14
f 17/45/15 21/44/15 22/39/15
f 18/36/16 22/39/16 27/46/16
f 19/37/17 18/36/17 23/47/17
f 20/42/18 19/41/18 24/48/18
f 21/44/19 20/42/19 25/49/19
f 22/39/20 21/44/20 26/50/20
f 18/36/21 27/46/21 23/47/21
f 19/37/22 23/47/22 24/51/22
f 20/42/23 24/48/23 25/49/23
f 21/44/24 25/49/24 26/50/24
f 22/39/25 26/50/25 27/46/25
f 23/47/26 27/46/26 28/52/26
f 24/51/27 23/47/27 28/53/27
f 25/49/28 24/48/28 28/54/28
f 26/50/29 25/49/29 28/55/29
f 27/46/30 26/50/30 28/56/30
f 29/35/31 30/36/31 31/37/31
f 30/36/32 29/38/32 34/39/32
f 29/40/33 31/41/33 32/42/33
f 29/43/34 32/42/34 33/44/34
f 29/45/35 33/44/35 34/39/35
f 30/36/36 34/39/36 39/46/36
f 31/37/37 30/36/37 35/47/37
f 32/42/38 31/41/38 36/48/38
f 33/44/39 32/42/39 37/49/39
f 34/39/40 33/44/40 38/50/40
f 30/36/41 39/46/41 35/47/41
f 31/37/42 35/47/42 36/51/42
f 32/42/43 36/48/43 37/49/43
f 33/44/44 37/49/44 38/50/44
f 34/39/45 38/50/45 39/46/45
f 35/47/46 39/46/46 40/52/46
f 36/51/47 35/47/47 40/53/47
f 37/49/48 36/48/48 40/54/48
f 38/50/49 37/49/49 40/55/49
f 39/46/50 38/50/50 40/56/50
f 41/35/51 42/36/51 43/37/51
f 42/36/52 41/38/52 46/39/52
f 41/40/53 43/41/53 44/42/53
f 41/43/54 44/42/54 45/44/54
f 41/45/55 45/44/55 46/39/55
f 42/36/56 46/39/56 51/46/56
f 43/37/57 42/36/57 47/47/57
f 44/42/58 43/41/58 48/48/58
f 45/44/59 44/42/59 49/49/59
f 46/39/60 45/44/60 50/50/60
f 42/36/61 51/46/61 47/47/61
f 43/37/62 47/47/62 48/51/62
f 44/42/63 48/48/63 49/49/63
f 45/44/64 49/49/64 50/50/64
f 46/39/65 50/50/65 51/46/65
f 47/47/66 51/46/66 52/52/66
f 48/51/67 47/47/67 52/53/67
f 49/49/68 48/48/68 52/54/68
f 50/50/69 49/49/69 52/55/69
f 51/46/70 50/50/70 52/56/70
f 53/35/71 54/36/71 55/37/71
f 54/36/72 53/38/72 58/39/72
f 53/40/73 55/41/73 56/42/73
f 53/43/74 56/42/74 57/44/74
f 53/45/75 57/44/75 58/39/75
f 54/36/76 58/39/76 63/46/76
f 55/37/77 54/36/77 59/47/77
f 56/42/78 55/41/78 60/48/78
f 57/44/79 56/42/79 61/49/79
f 58/39/80 57/44/80 62/50/80
f 54/36/81 63/46/81 59/47/81
f 55/37/82 59/47/82 60/51/82
f 56/42/83 60/48/83 61/49/83
f 57/44/84 61/49/84 62/50/84
f 58/39/85 62/50/85 63/46/85
f 59/47/86 63/46/86 64/52/86
f 60/51/87 59/47/87 64/53/87
f 61/49/88 60/48/88 64/54/88
f 62/50/89 61/49/89 64/55/89
f 63/46/90 62/50/90 64/56/90
f 65/35/91 66/36/91 67/37/91
f 66/36/92 65/38/92 70/39/92
f 65/40/93 67/41/93 68/42/93
f 65/43/94 68/42/94 69/44/94
f 65/45/95 69/44/95 70/39/95
f 66/36/96 70/39/96 75/46/96
f 67/37/97 66/36/97 71/47/97
f 68/42/98 67/41/98 72/48/98
f 69/44/99 68/42/99 73/49/99
f 70/39/100 69/44/100 74/50/100
f 66/36/101 75/46/101 71/47/101
f 67/37/102 71/47/102 72/51/102
f 68/42/103 72/48/103 73/49/103
f 69/44/104 73/49/104 74/50/104
f 70/39/105 74/50/105 75/46/105
f 71/47/106 75/46/106 76/52/106
f 72/51/107 71/47/107 76/53/107
f 73/49/108 72/48/108 76/54/108
f 74/50/109 73/49/109 76/55/109
f 75/46/110 74/50/110 76/56/110
f 77/35/111 78/36/111 79/37/111
f 78/36/112 77/38/112 82/39/112
f 77/40/113 79/41/113 80/42/113
f 77/43/114 80/42/114 81/44/114
f 77/45/115 81/44/115 82/39/115
f 78/36/116 82/39/116 87/46/116
f 79/37/117 78/36/117 83/47/117
f 80/42/118 79/41/118 84/48/118
f 81/44/119 80/42/119 85/49/119
f 82/39/120 81/44/120 86/50/120
f 78/36/121 87/46/121 83/47/121
f 79/37/122 83/47/122 84/51/122
f 80/42/123 84/48/123 85/49/123
f 81/44/124 85/49/124 86/50/124
f 82/39/125 86/50/125 87/46/125
f 83/47/126 87/46/126 88/52/126
f 84/51/127 83/47/127 88/53/127
f 85/49/128 84/48/128 88/54/128
f 86/50/129 85/49/129 88/55/129
f 87/46/130 86/50/130 88/56/130
f 89/35/131 90/36/131 91/37/131
f 90/36/132 89/38/132 94/39/132
f 89/40/133 91/41/133 92/42/133
f 89/43/134 92/42/134 93/44/134
f 89/45/135 93/44/135 94/39/135
f 90/36/136 94/39/136 99/46/136
f 91/37/137 90/36/137 95/47/137
f 92/42/138 91/41/138 96/48/138
f 93/44/139 92/42/139 97/49/139
f 94/39/140 93/44/140 98/50/140
f 90/36/141 99/46/141 95/47/141
f 91/37/142 95/47/142 96/51/142
f 92/42/143 96/48/143 97/49/143
f 93/44/144 97/49/144 98/50/144
f 94/39/145 98/50/145 99/46/145
f 95/47/146 99/46/146 100/52/146
f 96/51/147 95/47/147 100/53/147
f 97/49/148 96/48/148 100/54/148
f 98/50/149 97/49/149 100/55/149
f 99/46/150 98/50/150 100/56/150
f 101/35/151 102/36/151 103/37/151
f 102/36/152 101/38/152 106/39/152
f 101/40/153 103/41/153 104/42/153
f 101/43/154 104/42/154 105/44/154
f 101/45/155 105/44/155 106/39/155
f 102/36/156 106/39/156 111/46/156
f 103/37/157 102/36/157 107/47/157
f 104/42/158 103/41/158 108/48/158
f 105/44/159 104/42/159 109/49/159
f 106/39/160 105/44/160 110/50/160
f 102/36/161 111/46/161 107/47/161
f 103/37/162 107/47/162 108/51/162
f 104/42/163 108/48/163 109/49/163
f 105/44/164 109/49/164 110/50/164
f 106/39/165 110/50/165 111/46/165
f 107/47/166 111/46/166 112/52/166
f 108/51/167 107/47/167 112/53/167
f 109/49/168 108/48/168 112/54/168
f 110/50/169 109/49/169 112/55/169
f 111/46/170 110/50/170 112/56/170
f 113/35/171 114/36/171 115/37/171
f 114/36/172 113/38/172 118/39/172
f 113/40/173 115/41/173 116/42/173
f 113/43/174 116/42/174 117/44/174
f 113/45/175 117/44/175 118/39/175
f 114/36/176 118/39/176 123/46/176
f 115/37/177 114/36/177 119/47/177
f 116/42/178 115/41/178 120/48/178
f 117/44/179 116/42/179 121/49/179
f 118/39/180 117/44/180 122/50/180
f 114/36/181 123/46/181 119/47/181
f 115/37/182 119/47/182 120/51/182
f 116/42/183 120/48/183 121/49/183
f 117/44/184 121/49/184 122/50/184
f 118/39/185 122/50/185 123/46/185
f 119/47/186 123/46/186 124/52/186
f 120/51/187 119/47/187 124/53/187
f 121/49/188 120/48/188 124/54/188
f 122/50/189 121/49/189 124/55/189
f 123/46/190 122/50/190 124/56/190
f 125/35/191 126/36/191 127/37/191
f 126/36/192 125/38/192 130/39/192
f 125/40/193 127/41/193 128/42/193
f 125/43/194 128/42/194 129/44/194
f 125/45/195 129/44/195 130/39/195
f 126/36/196 130/39/196 135/46/196
f 127/37/197 126/36/197 131/47/197
f 128/42/198 127/41/198 132/48/198
f 129/44/199 128/42/199 133/49/199
f 130/39/200 129/44/200 134/50/200
f 126/36/201 135/46/201 131/47/201
f 127/37/202 131/47/202 132/51/202
f 128/42/203 132/48/203 133/49/203
f 129/44/204 133/49/204 134/50/204
f 130/39/205 134/50/205 135/46/205
f 131/47/206 135/46/206 136/52/206
f 132/51/207 131/47/207 136/53/207
f 133/49/208 132/48/208 136/54/208
f 134/50/209 133/49/209 136/55/209
f 135/46/210 134/50/210 136/56/210
f 137/35/211 138/36/211 139/37/211
f 138/36/212 137/38/212 142/39/212
f 137/40/213 139/41/213 140/42/213
f 137/43/214 140/42/214 141/44/214
f 137/45/215 141/44/215 142/39/215
f 138/36/216 142/39/216 147/46/216
f 139/37/217 138/36/217 143/47/217
f 140/42/218 139/41/218 144/48/218
f 141/44/219 140/42/219 145/49/219
f 142/39/220 141/44/220 146/50/220
f 138/36/221 147/46/221 143/47/221
f 139/37/222 143/47/222 144/51/222
f 140/42/223 144/48/223 145/49/223
f 141/44/224 145/49/224 146/50/224
f 142/39/225 146/50/225 147/46/225
f 143/47/226 147/46/226 148/52/226
f 144/51/227 143/47/227 148/53/227
f 145/49/228 144/48/228 148/54/228
f 146/50/229 145/49/229 148/55/229
f 147/46/230 146/50/230 148/56/230
f 149/35/231 150/36/231 151/37/231
f 150/36/232 149/38/232 154/39/232
f 149/40/233 151/41/233 152/42/233
f 149/43/234 152/42/234 153/44/234
f 149/45/235 153/44/235 154/39/235
f 150/36/236 154/39/236 159/46/236
f 151/37/237 150/36/237 155/47/237
f 152/42/238 151/41/238 156/48/238
f 153/44/239 152/42/239 157/49/239
f 154/39/240 153/44/240 158/50/240
f 150/36/241 159/46/241 155/47/241
f 151/37/242 155/47/242 156/51/242
f 152/42/243 156/48/243 157/49/243
f 153/44/244 157/49/244 158/50/244
f 154/39/245 158/50/245 159/46/245
f 155/47/246 159/46/246 160/52/246
f 156/51/247 155/47/247 160/53/247
f 157/49/248 156/48/248 160/54/248
f 158/50/249 157/49/249 160/55/249
f 159/46/250 158/50/250 160/56/250
f 161/35/251 162/36/251 163/37/251
f 162/36/252 161/38/252 166/39/252
f 161/40/253 163/41/253 164/42/253
f 161/43/254 164/42/254 165/44/254
f 161/45/255 165/44/255 166/39/255
f 162/36/256 166/39/256 171/46/256
f 163/37/257 162/36/257 167/47/257
f 164/42/258 163/41/258 168/48/258
f 165/44/259 164/42/259 169/49/259
f 166/39/260 165/44/260 170/50/260
f 162/36/261 171/46/261 167/47/261
f 163/37/262 167/47/262 168/51/262
f 164/42/263 168/48/263 169/49/263
f 165/44/264 169/49/264 170/50/264
f 166/39/265 170/50/265 171/46/265
f 167/47/266 171/46/266 172/52/266
f 168/51/267 167/47/267 172/53/267
f 169/49/268 168/48/268 172/54/268
f 170/50/269 169/49/269 172/55/269
f 171/46/270 170/50/270 172/56/270
f 173/35/271 174/36/271 175/37/271
f 174/36/272 173/38/272 178/39/272
f 173/40/273 175/41/273 176/42/273
f 173/43/274 176/42/274 177/44/274
f 173/45/275 177/44/275 178/39/275
f 174/36/276 178/39/276 183/46/276
f 175/37/277 174/36/277 179/47/277
f 176/42/278 175/41/278 180/48/278
f 177/44/279 176/42/279 181/49/279
f 178/39/280 177/44/280 182/50/280
f 174/36/281 183/46/281 179/47/281
f 175/37/282 179/47/282 180/51/282
f 176/42/283 180/48/283 181/49/283
f 177/44/284 181/49/284 182/50/284
f 178/39/285 182/50/285 183/46/285
f 179/47/286 183/46/286 184/52/286
f 180/51/287 179/47/287 184/53/287
f 181/49/288 180/48/288 184/54/288
f 182/50/289 181/49/289 184/55/289
f 183/46/290 182/50/290 184/56/290
