# Blender 4.0.2
# www.blender.org
mtllib stage_1.mtl
o Tomato_Stage1_v3
v -0.032500 0.022500 0.082500
v -0.025000 0.015000 0.077500
v -0.022500 0.015000 0.075000
v -0.025000 0.010000 0.072500
v -0.022500 0.010000 0.070000
v -0.017500 0.015000 0.072500
v -0.015000 0.015000 0.072500
v -0.007500 0.020000 0.070000
v -0.015000 0.025000 0.075000
v -0.012500 0.027500 0.075000
v -0.015000 0.035000 0.077500
v -0.020000 0.040000 0.082500
v -0.025000 0.032500 0.082500
v -0.027500 0.027500 0.082500
v -0.025000 0.025000 0.080000
v -0.007500 0.025000 0.032500
v -0.007500 0.017500 0.030000
v -0.005000 0.015000 0.030000
v -0.007500 0.015000 0.030000
v -0.005000 0.012500 0.030000
v -0.002500 0.015000 0.030000
v 0.000000 0.015000 0.030000
v 0.005000 0.015000 0.030000
v 0.002500 0.017500 0.030000
v 0.007500 0.020000 0.027500
v 0.007500 0.025000 0.030000
v 0.005000 0.030000 0.027500
v 0.000000 0.030000 0.030000
v -0.005000 0.027500 0.030000
v -0.002500 0.025000 0.032500
v -0.050000 0.010000 0.087500
v -0.042500 0.012500 0.085000
v -0.040000 0.012500 0.085000
v -0.037500 0.012500 0.082500
v -0.035000 0.012500 0.080000
v -0.037500 0.015000 0.085000
v -0.037500 0.017500 0.085000
v -0.037500 0.025000 0.082500
v -0.042500 0.022500 0.085000
v -0.045000 0.025000 0.085000
v -0.050000 0.025000 0.085000
v -0.055000 0.025000 0.085000
v -0.055000 0.017500 0.087500
v -0.052500 0.015000 0.087500
v -0.047500 0.017500 0.087500
v -0.025000 0.007500 0.070000
v -0.015000 0.005000 0.070000
v -0.012500 0.002500 0.067500
v -0.010000 0.005000 0.067500
v -0.007500 0.005000 0.067500
v -0.010000 0.000000 0.067500
v -0.010000 -0.005000 0.067500
v -0.010000 -0.012500 0.065000
v -0.017500 -0.012500 0.065000
v -0.017500 -0.017500 0.062500
v -0.027500 -0.017500 0.065000
v -0.035000 -0.012500 0.065000
v -0.032500 -0.005000 0.067500
v -0.027500 0.000000 0.067500
v -0.025000 0.002500 0.067500
v -0.020000 0.017500 0.035000
v -0.012500 0.020000 0.035000
v -0.010000 0.020000 0.035000
v -0.010000 0.017500 0.032500
v -0.010000 0.020000 0.032500
v -0.010000 0.022500 0.035000
v -0.007500 0.025000 0.037500
v -0.007500 0.030000 0.037500
v -0.012500 0.030000 0.037500
v -0.012500 0.032500 0.037500
v -0.017500 0.032500 0.037500
v -0.022500 0.032500 0.037500
v -0.022500 0.027500 0.037500
v -0.022500 0.022500 0.035000
v -0.017500 0.022500 0.037500
v -0.007500 -0.017500 0.095000
v -0.007500 -0.010000 0.095000
v -0.007500 -0.007500 0.095000
v -0.005000 -0.005000 0.097500
v -0.007500 -0.002500 0.097500
v -0.010000 -0.005000 0.097500
v -0.012500 -0.002500 0.097500
v -0.020000 0.000000 0.097500
v -0.017500 -0.005000 0.097500
v -0.022500 -0.007500 0.097500
v -0.025000 -0.012500 0.100000
v -0.025000 -0.017500 0.097500
v -0.017500 -0.020000 0.097500
v -0.015000 -0.017500 0.097500
v -0.012500 -0.015000 0.097500
v -0.017500 -0.020000 0.110000
v -0.017500 -0.015000 0.112500
v -0.020000 -0.015000 0.112500
v -0.017500 -0.012500 0.107500
v -0.020000 -0.012500 0.110000
v -0.022500 -0.012500 0.112500
v -0.025000 -0.012500 0.112500
v -0.030000 -0.012500 0.112500
v -0.027500 -0.017500 0.112500
v -0.030000 -0.017500 0.112500
v -0.030000 -0.022500 0.115000
v -0.027500 -0.027500 0.112500
v -0.022500 -0.025000 0.112500
v -0.020000 -0.022500 0.112500
v -0.020000 -0.020000 0.112500
v 0.017500 -0.027500 0.105000
v 0.012500 -0.022500 0.105000
v 0.010000 -0.022500 0.105000
v 0.010000 -0.020000 0.105000
v 0.007500 -0.020000 0.105000
v 0.007500 -0.022500 0.107500
v 0.005000 -0.025000 0.107500
v -0.000000 -0.027500 0.107500
v 0.005000 -0.030000 0.107500
v 0.005000 -0.035000 0.107500
v 0.007500 -0.037500 0.110000
v 0.012500 -0.040000 0.107500
v 0.015000 -0.035000 0.107500
v 0.017500 -0.032500 0.107500
v 0.015000 -0.030000 0.107500
v 0.015000 0.002500 0.110000
v 0.010000 -0.005000 0.107500
v 0.010000 -0.010000 0.107500
v 0.005000 -0.010000 0.105000
v 0.005000 -0.012500 0.105000
v 0.010000 -0.015000 0.107500
v 0.012500 -0.017500 0.107500
v 0.017500 -0.022500 0.107500
v 0.020000 -0.015000 0.110000
v 0.025000 -0.017500 0.110000
v 0.030000 -0.012500 0.112500
v 0.035000 -0.005000 0.112500
v 0.027500 -0.000000 0.112500
v 0.022500 -0.000000 0.110000
v 0.020000 -0.002500 0.110000
v 0.005000 0.007500 0.067500
v 0.007500 0.005000 0.065000
v 0.010000 0.002500 0.065000
v 0.007500 -0.000000 0.065000
v 0.010000 -0.000000 0.062500
v 0.012500 0.002500 0.065000
v 0.017500 0.005000 0.065000
v 0.015000 0.007500 0.065000
v 0.017500 0.007500 0.067500
v 0.017500 0.012500 0.067500
v 0.015000 0.015000 0.067500
v 0.010000 0.012500 0.067500
v 0.007500 0.012500 0.067500
v 0.010000 0.010000 0.067500
v 0.027500 0.002500 0.040000
v 0.022500 -0.000000 0.040000
v 0.020000 -0.002500 0.040000
v 0.017500 -0.002500 0.037500
v 0.017500 -0.002500 0.040000
v 0.020000 -0.005000 0.042500
v 0.020000 -0.007500 0.042500
v 0.020000 -0.012500 0.042500
v 0.022500 -0.010000 0.042500
v 0.025000 -0.012500 0.042500
v 0.030000 -0.012500 0.042500
v 0.035000 -0.010000 0.042500
v 0.032500 -0.005000 0.042500
v 0.030000 -0.002500 0.042500
v 0.027500 -0.002500 0.042500
v 0.022500 -0.010000 0.065000
v 0.017500 -0.005000 0.065000
v 0.017500 -0.002500 0.065000
v 0.015000 -0.002500 0.065000
v 0.012500 -0.005000 0.065000
v 0.007500 -0.005000 0.065000
v 0.012500 -0.007500 0.065000
v 0.010000 -0.010000 0.065000
v 0.010000 -0.012500 0.065000
v 0.012500 -0.017500 0.065000
v 0.017500 -0.015000 0.065000
v 0.020000 -0.012500 0.065000
v 0.017500 -0.010000 0.065000
v -0.002500 0.025000 0.052500
v 0.000000 0.015000 0.052500
v 0.002500 0.010000 0.052500
v 0.000000 0.005000 0.050000
v 0.002500 0.002500 0.052500
v 0.007500 0.007500 0.055000
v 0.010000 0.007500 0.055000
v 0.020000 0.007500 0.060000
v 0.015000 0.015000 0.057500
v 0.020000 0.015000 0.060000
v 0.020000 0.027500 0.060000
v 0.020000 0.035000 0.060000
v 0.010000 0.032500 0.057500
v 0.005000 0.030000 0.055000
v 0.005000 0.022500 0.055000
v 0.005000 0.017500 0.092500
v 0.000000 0.010000 0.090000
v -0.002500 0.007500 0.087500
v 0.000000 0.005000 0.085000
v 0.000000 0.002500 0.082500
v -0.007500 0.005000 0.087500
v -0.010000 0.007500 0.087500
v -0.020000 0.010000 0.087500
v -0.015000 0.015000 0.090000
v -0.020000 0.017500 0.092500
v -0.017500 0.022500 0.097500
v -0.012500 0.030000 0.100000
v -0.005000 0.025000 0.100000
v 0.000000 0.020000 0.095000
v 0.000000 0.017500 0.092500
v 0.020000 0.015000 0.090000
v 0.012500 0.005000 0.090000
v 0.007500 0.002500 0.090000
v 0.005000 0.002500 0.087500
v 0.002500 -0.000000 0.087500
v 0.007500 -0.002500 0.090000
v 0.007500 -0.007500 0.092500
v 0.012500 -0.017500 0.095000
v 0.017500 -0.010000 0.095000
v 0.022500 -0.015000 0.095000
v 0.030000 -0.010000 0.097500
v 0.037500 -0.005000 0.097500
v 0.032500 0.002500 0.095000
v 0.027500 0.007500 0.092500
v 0.022500 0.005000 0.095000
v 0.002500 0.005000 0.120000
v 0.002500 0.010000 0.122500
v 0.002500 0.010000 0.120000
v 0.002500 0.007500 0.117500
v 0.002500 0.007500 0.122500
v 0.000000 0.005000 0.120000
v 0.002500 -0.002500 0.000000
v -0.002500 -0.002500 0.000000
v -0.002500 0.000000 0.042500
v 0.002500 -0.000000 0.042500
v 0.002500 -0.000000 0.040000
v 0.002500 0.002500 0.000000
v 0.002500 -0.000000 0.037500
v 0.002500 0.002500 0.037500
v 0.002500 0.007500 0.042500
v -0.002500 0.007500 0.042500
v -0.002500 0.007500 0.030000
v 0.000000 0.007500 0.027500
v -0.002500 0.007500 0.027500
v -0.002500 0.002500 0.000000
v -0.002500 0.002500 0.042500
v -0.002500 0.005000 0.027500
v -0.002500 0.000000 0.085000
v 0.000000 0.000000 0.085000
v 0.002500 0.002500 0.042500
v 0.002500 -0.000000 0.085000
v 0.002500 0.002500 0.065000
v 0.002500 0.002500 0.062500
v 0.002500 0.005000 0.062500
v 0.002500 0.005000 0.065000
v 0.002500 0.007500 0.047500
v 0.002500 0.007500 0.050000
v 0.002500 0.005000 0.085000
v -0.002500 0.005000 0.065000
v -0.002500 0.002500 0.065000
v -0.002500 0.002500 0.087500
v 0.005000 0.002500 0.085000
v -0.002500 0.000000 0.092500
v 0.000000 0.000000 0.095000
v 0.000000 0.002500 0.095000
v 0.000000 0.005000 0.102500
v 0.002500 0.002500 0.102500
v 0.002500 -0.000000 0.102500
v 0.002500 -0.000000 0.100000
v 0.005000 0.002500 0.100000
v 0.002500 0.007500 0.102500
v 0.002500 0.005000 0.087500
v 0.000000 0.005000 0.087500
v 0.000000 0.007500 0.102500
v -0.002500 0.002500 0.095000
v -0.002500 0.002500 0.092500
v 0.002500 0.005000 0.102500
v 0.002500 0.002500 0.040000
v 0.015000 -0.000000 0.037500
v 0.015000 -0.002500 0.040000
v 0.015000 -0.002500 0.037500
v 0.002500 0.002500 0.105000
v 0.005000 0.002500 0.102500
v 0.000000 0.005000 0.117500
v 0.002500 0.005000 0.117500
v -0.002500 0.005000 0.067500
v -0.002500 0.002500 0.067500
v -0.015000 0.007500 0.067500
v -0.015000 0.010000 0.067500
v -0.015000 0.007500 0.065000
v -0.015000 0.010000 0.065000
v -0.015000 0.007500 0.070000
v -0.027500 0.012500 0.072500
v -0.027500 0.012500 0.075000
v -0.037500 0.015000 0.082500
v -0.037500 0.012500 0.080000
v -0.030000 0.010000 0.075000
v -0.037500 0.012500 0.085000
v -0.030000 0.010000 0.072500
v -0.047500 0.015000 0.085000
v -0.047500 0.015000 0.082500
v -0.052500 0.015000 0.090000
v -0.052500 0.017500 0.090000
v 0.005000 -0.007500 0.105000
v 0.005000 -0.007500 0.107500
v 0.005000 -0.010000 0.107500
v 0.002500 -0.010000 0.107500
v 0.002500 -0.010000 0.105000
v 0.005000 -0.020000 0.105000
v 0.007500 -0.020000 0.102500
v 0.007500 -0.017500 0.102500
v 0.007500 -0.017500 0.105000
v 0.005000 -0.020000 0.102500
v 0.015000 -0.022500 0.112500
v 0.020000 -0.005000 0.040000
v 0.025000 -0.005000 0.042500
v 0.025000 -0.007500 0.042500
v -0.010000 0.017500 0.030000
v -0.007500 0.017500 0.032500
v -0.012500 0.025000 0.035000
v -0.015000 0.025000 0.035000
v 0.007500 0.015000 0.047500
v 0.007500 0.012500 0.047500
v 0.010000 0.017500 0.050000
v 0.007500 0.015000 0.050000
v 0.005000 0.015000 0.047500
v 0.012500 0.025000 0.052500
v 0.012500 0.027500 0.055000
v -0.010000 -0.007500 0.100000
v -0.010000 -0.007500 0.102500
v -0.022500 -0.015000 0.110000
v -0.022500 -0.015000 0.112500
v 0.015000 -0.000000 0.065000
v 0.015000 -0.000000 0.062500
v 0.015000 -0.002500 0.062500
v 0.020000 -0.010000 0.062500
v 0.020000 -0.007500 0.062500
vn 0.4370 -0.2940 0.8501
vn 0.1507 -0.0335 0.9880
vn 0.1860 0.1085 0.9765
vn -0.0070 0.2228 -0.9748
vn 0.0566 -0.1885 0.9804
vn 0.1558 -0.0519 0.9864
vn 0.1787 0.0447 0.9829
vn 0.1369 0.1712 0.9757
vn -0.2327 -0.0562 0.9709
vn 0.0579 -0.2895 0.9554
vn -0.0628 0.1675 0.9839
vn -0.7276 -0.4851 0.4851
vn -0.3478 -0.0569 0.9358
vn 0.0366 0.5270 -0.8491
vn -0.2319 0.1810 0.9558
vn -1.0000 -0.0000 -0.0000
vn -0.0000 -0.0000 1.0000
vn -0.4472 -0.0000 -0.8944
vn 0.4082 0.4082 -0.8165
vn 0.8729 -0.4364 0.2182
vn 0.8321 0.5547 -0.0000
vn -0.0147 0.9982 -0.0587
vn 1.0000 -0.0000 -0.0000
vn -0.1751 -0.9776 0.1167
vn -0.0000 1.0000 -0.0000
vn 0.2064 -0.9756 -0.0750
vn -0.7071 0.7071 -0.0000
vn -0.2722 -0.6804 0.6804
vn -0.9216 -0.3881 -0.0000
vn 0.5322 0.8278 -0.1774
vn 0.8944 -0.4472 -0.0000
vn 0.9923 -0.0000 -0.1240
vn -0.0000 -0.9864 0.1644
vn -0.8384 -0.5450 -0.0000
vn -0.2592 -0.8639 -0.4319
vn 0.1961 0.9806 -0.0000
vn -0.6667 -0.6667 -0.3333
vn -0.0000 -0.0000 -1.0000
vn 0.4460 0.8920 -0.0743
vn 0.3714 0.9285 -0.0000
vn 0.7022 -0.7022 -0.1170
vn -0.3714 -0.9285 -0.0000
vn -0.8889 0.4444 0.1111
vn 0.5773 -0.5774 0.5774
vn 0.2425 0.9701 -0.0000
vn -0.0000 -0.8944 0.4472
vn -0.2425 -0.9701 -0.0000
vn -0.0000 -1.0000 -0.0000
vn 0.8930 -0.4465 -0.0558
vn -0.2722 -0.6804 -0.6804
vn -0.2425 -0.0000 -0.9701
vn 0.2722 0.6804 0.6804
vn 0.1400 0.7001 -0.7001
vn -0.1961 -0.9806 -0.0000
vn 0.2182 -0.8729 0.4364
vn -0.7071 -0.0000 -0.7071
vn 0.3162 0.9487 -0.0000
vn 0.5145 -0.5145 0.6860
vn -0.6000 -0.0000 -0.8000
vn -0.4650 -0.3487 -0.8137
vn -0.4472 -0.8944 -0.0000
vn 0.4364 -0.2182 0.8729
vn 0.1644 0.9864 -0.0000
vn 0.8321 -0.0000 0.5547
vn -0.5963 0.2981 0.7454
vn -0.4867 -0.3244 -0.8111
vn -0.5145 -0.0000 -0.8575
vn -0.0000 0.4472 0.8944
vn 0.7620 -0.1270 -0.6350
vn -0.0000 0.2425 -0.9701
vn 0.7071 -0.0000 0.7071
vn 0.9701 0.2425 -0.0000
vn -0.0000 -0.2425 0.9701
vn 0.6396 -0.4264 -0.6396
vn -0.9701 -0.2425 -0.0000
vn 0.6882 -0.2294 0.6882
vn -0.7276 0.4851 -0.4851
vn -0.5547 -0.8321 -0.0000
vn -0.0000 -0.9487 -0.3162
vn -0.8000 -0.0000 0.6000
vn 0.7071 -0.0000 -0.7071
vn -0.0000 0.9701 0.2425
vn -0.4472 -0.0000 0.8944
vn -0.5145 0.8575 -0.0000
vn 0.4472 0.8944 -0.0000
vn -0.4082 -0.8165 -0.4082
vn 0.7035 -0.5025 0.5025
vn 0.4851 -0.7276 -0.4851
vn 0.8000 -0.6000 -0.0000
vn 0.3333 0.6667 -0.6667
vn -0.4082 0.8165 0.4082
vn -0.5774 0.5774 -0.5773
vn -0.0000 -0.7071 0.7071
vn 0.3162 -0.0000 0.9487
vn -0.8000 -0.6000 -0.0000
vn 0.8575 0.5145 -0.0000
vn 0.5773 0.5774 -0.5774
vn -0.8321 -0.5547 -0.0000
vn -0.0000 -0.5547 0.8321
vn -0.0000 0.3162 -0.9487
vn 0.5774 -0.5774 -0.5773
vn -0.7071 -0.0000 0.7071
s 0
usemtl rsc_507030
f 1//1 2//1 3//1 4//1 5//1 6//1 7//1 8//1 9//1 10//1 11//1 12//1 13//1 14//1 15//1
f 16//2 17//2 18//2 19//2 20//2 21//2 22//2 23//2 24//2 25//2 26//2 27//2 28//2 29//2 30//2
f 31//3 32//3 33//3 34//3 35//3 36//3 37//3 38//3 39//3 40//3 41//3 42//3 43//3 44//3 45//3
f 46//4 47//4 48//4 49//4 50//4 51//4 52//4 53//4 54//4 55//4 56//4 57//4 58//4 59//4 60//4
f 61//5 62//5 63//5 64//5 65//5 66//5 67//5 68//5 69//5 70//5 71//5 72//5 73//5 74//5 75//5
f 76//6 77//6 78//6 79//6 80//6 81//6 82//6 83//6 84//6 85//6 86//6 87//6 88//6 89//6 90//6
f 91//7 92//7 93//7 94//7 95//7 96//7 97//7 98//7 99//7 100//7 101//7 102//7 103//7 104//7 105//7
f 106//8 107//8 108//8 109//8 110//8 111//8 112//8 113//8 114//8 115//8 116//8 117//8 118//8 119//8 120//8
f 121//9 122//9 123//9 124//9 125//9 126//9 127//9 128//9 129//9 130//9 131//9 132//9 133//9 134//9 135//9
f 148//10 149//10 136//10 137//10 138//10 139//10 140//10 141//10 142//10 143//10 144//10 145//10 146//10 147//10
f 150//11 151//11 152//11 153//11 154//11 155//11 156//11 157//11 158//11 159//11 160//11 161//11 162//11 163//11 164//11
f 330//12 331//12 333//12 334//12
f 178//13 179//13 180//13 181//13 182//13 183//13 184//13 185//13 186//13 187//13 188//13 189//13 190//13 191//13 192//13
f 193//14 194//14 195//14 196//14 197//14 198//14 199//14 200//14 201//14 202//14 203//14 204//14 205//14 206//14 207//14
f 208//15 209//15 210//15 211//15 212//15 213//15 214//15 215//15 216//15 217//15 218//15 219//15 220//15 221//15 222//15
f 223//16 224//16 225//16 226//16
f 173//17 174//17 175//17 176//17 177//17 165//17 166//17 167//17 168//17 169//17 170//17 171//17 172//17
f 334//18 333//18 330//18
f 228//19 224//19 227//19 223//19
f 226//20 225//20 224//20 228//20
f 332//21 168//21 333//21
f 223//16 227//16 224//16
f 333//18 168//18 330//18
f 229//22 230//22 231//22 232//22 233//22
f 331//17 332//17 333//17
f 236//16 234//16 229//16 235//16
f 242//23 238//23 243//23 230//23
f 238//24 239//24 240//24 241//24 242//24 234//24 237//24
f 243//23 231//23 230//23
f 229//16 233//16 235//16
f 234//16 236//16 237//16
f 232//25 231//25 245//25 246//25
f 250//17 332//17 331//17
f 248//16 249//16 250//16 251//16 252//16 237//16 247//16
f 255//26 256//26 238//26 237//26 253//26 254//26
f 243//23 257//23 258//23 245//23 231//23
f 247//27 232//27 246//27 248//27
f 257//23 243//23 238//23 256//23
f 251//28 250//28 331//28 330//28
f 255//29 254//29 253//29 237//29 252//29 259//29
f 246//30 245//30 260//30 261//30 262//30 263//30 264//30 265//30
f 248//27 266//27 267//27 259//27
f 270//31 271//31 263//31 258//31
f 268//23 269//23 255//23
f 263//32 262//32 272//32 273//32 260//32 245//32 258//32
f 269//33 268//33 271//33 270//33
f 259//34 267//34 274//34 268//34 255//34
f 275//35 236//35 276//35 277//35
f 246//25 265//25 266//25 248//25
f 235//36 233//36 278//36
f 279//37 274//37 267//37 280//37
f 265//23 264//23 274//23 279//23
f 330//38 249//38 252//38
f 264//39 263//39 281//39 282//39
f 250//40 249//40 168//40 332//40
f 282//16 226//16 268//16
f 271//41 282//41 281//41 263//41
f 330//42 252//42 251//42
f 249//43 248//43 259//43 252//43
f 268//41 226//41 282//41 271//41
f 264//16 282//16 274//16
f 274//16 282//16 268//16
f 281//25 223//25 282//25
f 330//38 168//38 249//38
f 282//44 226//44 228//44 281//44
f 281//25 228//25 223//25
f 298//45 297//45 34//45
f 293//46 292//46 297//46 298//46
f 282//16 223//16 226//16
f 34//47 295//47 297//47
f 233//16 232//16 247//16
f 236//16 275//16 233//16 247//16 237//16
f 269//48 270//48 283//48 256//48
f 297//45 295//45 34//45
f 255//48 269//48 256//48
f 283//49 270//49 258//49 284//49
f 256//50 283//50 285//50 286//50
f 285//40 284//40 257//40
f 34//51 297//51 292//51
f 257//52 256//52 287//52 285//52
f 256//42 286//42 288//42
f 298//45 34//45 293//45
f 283//53 284//53 285//53 289//53
f 283//54 289//54 285//54
f 290//55 291//55 292//55 293//55
f 291//56 294//56 295//56 34//56
f 288//17 287//17 256//17
f 34//57 295//57 294//57
f 296//58 290//58 293//58
f 291//59 34//59 292//59
f 293//57 34//57 296//57
f 34//57 294//57 296//57
f 288//54 286//54 291//54 290//54
f 299//25 297//25 298//25
f 285//60 289//60 294//60 291//60
f 298//61 297//61 300//61
f 297//56 299//56 300//56
f 287//62 288//62 290//62 296//62
f 294//63 289//63 285//63
f 300//64 299//64 298//64
f 267//65 266//65 124//65 301//65
f 279//66 280//66 302//66 303//66
f 286//67 285//67 291//67
f 265//23 304//23 305//23
f 296//63 285//63 287//63
f 266//68 305//68 124//68
f 266//23 265//23 305//23
f 280//16 267//16 301//16 302//16
f 265//69 279//69 303//69 304//69
f 304//70 303//70 110//70 306//70
f 301//71 124//71 307//71 308//71
f 303//56 302//56 309//56 110//56
f 296//63 294//63 285//63
f 305//72 304//72 306//72 310//72
f 124//73 305//73 310//73 307//73
f 253//17 320//17 319//17
f 323//74 322//74 254//74
f 302//75 301//75 308//75 309//75
f 254//76 253//76 319//76 323//76
f 320//77 254//77 322//77
f 311//78 309//78 308//78
f 253//27 254//27 320//27
f 110//79 311//79 306//79
f 307//80 311//80 308//80
f 110//81 309//81 311//81
f 310//45 306//45 311//45
f 307//82 310//82 311//82
f 233//36 277//36 278//36
f 277//38 233//38 275//38
f 236//17 235//17 278//17
f 236//17 278//17 276//17
f 326//50 327//50 329//50 96//50
f 278//83 312//83 276//83
f 328//84 329//84 326//84
f 329//84 327//84 326//84
f 278//85 277//85 155//85 312//85
f 277//86 276//86 312//86 155//86
f 326//87 96//87 328//87
f 272//88 262//88 327//88 326//88
f 260//71 273//71 326//71
f 273//89 272//89 326//89
f 262//77 261//77 326//77 327//77
f 314//83 313//83 312//83
f 312//90 155//90 313//90 314//90
f 260//91 326//91 261//91
f 313//48 155//48 312//48
f 320//92 322//92 321//92
f 319//93 321//93 323//93
f 241//94 315//94 244//94
f 240//95 316//95 17//95
f 315//96 64//96 244//96
f 241//73 240//73 17//73 315//73
f 240//18 239//18 64//18 316//18
f 64//97 239//97 244//97
f 17//98 316//98 317//98
f 318//21 64//21 315//21
f 315//99 17//99 317//99 318//99
f 316//100 64//100 318//100 317//100
f 321//101 322//101 323//101
f 319//102 320//102 321//102
