# Blender 4.0.2
# www.blender.org
mtllib 4_mature_partial.mtl
o coconut_4_partial
v 0.000000 0.090000 1.620000
v -0.000000 -0.090000 1.620000
v -0.090000 0.000000 1.620000
v 0.090000 -0.000000 1.620000
v 0.000000 0.190000 0.540000
v -0.090000 0.000000 1.080000
v -0.190000 0.000000 0.540000
v 0.000000 0.090000 1.080000
v -0.000000 -0.090000 1.080000
v -0.000000 -0.190000 0.540000
v 0.090000 -0.000000 1.080000
v 0.190000 -0.000000 0.540000
v 0.000000 0.190000 1.080000
v -0.190000 0.000000 1.080000
v -0.000000 -0.190000 1.080000
v 0.190000 -0.000000 1.080000
v -0.000000 -0.190000 0.000000
v 0.090000 -0.000000 0.540000
v 0.190000 -0.000000 0.000000
v -0.000000 -0.090000 0.540000
v 0.000000 0.090000 0.540000
v 0.000000 0.190000 0.000000
v -0.090000 0.000000 0.540000
v -0.190000 0.000000 0.000000
v 0.190000 -0.580000 1.970000
v -0.050000 -0.880000 1.970000
v -0.160000 -0.580000 1.970000
v 0.160000 -0.860000 1.970000
v 0.120000 -0.190000 1.820000
v -0.140000 -0.210000 1.820000
v 0.070000 -1.110000 1.820000
v -0.000000 -0.090000 1.660000
v -0.050000 0.390000 2.360000
v 0.300000 0.560000 2.460000
v 0.260000 0.280000 2.360000
v 0.090000 0.630000 2.460000
v -0.120000 0.090000 2.070000
v 0.120000 0.020000 2.070000
v 0.300000 0.860000 2.380000
v 0.000000 0.000000 1.880000
v -0.260000 0.510000 2.170000
v -0.070000 0.860000 2.150000
v 0.050000 0.580000 2.130000
v -0.280000 0.810000 2.170000
v -0.160000 0.120000 2.010000
v 0.070000 0.190000 1.970000
v -0.260000 1.040000 2.010000
v 0.000000 0.000000 1.800000
v -0.630000 0.120000 1.970000
v -0.790000 0.460000 1.970000
v -0.510000 0.420000 1.970000
v -0.860000 0.260000 1.970000
v -0.230000 0.000000 1.820000
v -0.140000 0.210000 1.820000
v -1.040000 0.460000 1.820000
v -0.070000 0.050000 1.660000
v 0.390000 0.530000 1.970000
v 0.790000 0.460000 1.970000
v 0.600000 0.260000 1.970000
v 0.650000 0.650000 1.970000
v 0.090000 0.280000 1.820000
v 0.210000 0.090000 1.820000
v 0.930000 0.670000 1.820000
v 0.090000 0.090000 1.660000
v 0.510000 0.070000 2.150000
v 0.770000 -0.260000 2.150000
v 0.460000 -0.260000 2.150000
v 0.790000 -0.050000 2.150000
v 0.090000 0.090000 1.990000
v 0.070000 -0.120000 1.990000
v 1.000000 -0.210000 1.990000
v 0.320000 -0.120000 2.360000
v 0.300000 -0.510000 2.460000
v 0.090000 -0.350000 2.360000
v 0.460000 -0.350000 2.460000
v 0.090000 0.050000 2.070000
v -0.050000 -0.090000 2.070000
v 0.580000 -0.650000 2.380000
v -0.210000 -0.530000 2.150000
v -0.600000 -0.580000 2.180000
v -0.460000 -0.320000 2.180000
v -0.460000 -0.700000 2.170000
v -0.000000 -0.190000 1.970000
v -0.190000 -0.020000 2.010000
v -0.700000 -0.790000 2.010000
v -0.300000 -0.230000 2.360000
v -0.630000 -0.020000 2.460000
v -0.390000 0.090000 2.360000
v -0.580000 -0.230000 2.460000
v -0.020000 -0.120000 2.070000
v -0.090000 0.120000 2.070000
v -0.880000 -0.210000 2.380000
v 0.000000 0.120000 1.800000
v -0.000000 -0.070000 1.800000
v -0.090000 0.020000 1.800000
v 0.090000 0.020000 1.800000
v 0.000000 0.120000 1.620000
v -0.090000 0.020000 1.620000
v -0.000000 -0.070000 1.620000
v 0.090000 0.020000 1.620000
v 0.040000 -0.040000 1.720000
v 0.080000 -0.050000 1.730000
v 0.090000 -0.060000 1.690000
v 0.050000 -0.050000 1.680000
v 0.060000 -0.040000 1.630000
v 0.110000 -0.040000 1.630000
v 0.110000 -0.020000 1.610000
v 0.060000 -0.050000 1.650000
v 0.100000 -0.050000 1.650000
v 0.060000 0.040000 1.610000
v 0.060000 0.010000 1.610000
v 0.110000 0.010000 1.590000
v 0.110000 0.050000 1.600000
v 0.060000 0.060000 1.770000
v 0.060000 0.020000 1.780000
v 0.020000 0.020000 1.750000
v 0.020000 0.050000 1.740000
v 0.030000 0.080000 1.710000
v 0.080000 0.100000 1.680000
v 0.070000 -0.010000 1.770000
v 0.070000 -0.030000 1.750000
v 0.030000 -0.030000 1.730000
v 0.030000 -0.010000 1.740000
v 0.090000 0.090000 1.640000
v 0.050000 0.060000 1.620000
v 0.100000 0.070000 1.620000
v 0.030000 0.070000 1.730000
v 0.030000 0.030000 1.640000
v 0.030000 0.010000 1.640000
v 0.030000 -0.010000 1.650000
v 0.020000 -0.010000 1.700000
v 0.010000 -0.000000 1.710000
v 0.020000 0.050000 1.690000
v 0.010000 0.040000 1.700000
v 0.030000 -0.020000 1.660000
v 0.010000 0.030000 1.710000
v 0.120000 -0.040000 1.730000
v 0.130000 -0.050000 1.700000
v 0.150000 -0.010000 1.630000
v 0.150000 -0.030000 1.650000
v 0.140000 -0.040000 1.660000
v 0.150000 0.050000 1.630000
v 0.150000 0.020000 1.620000
v 0.110000 0.030000 1.770000
v 0.120000 0.090000 1.690000
v 0.120000 0.090000 1.730000
v 0.110000 -0.010000 1.760000
v 0.120000 -0.020000 1.750000
v 0.140000 0.070000 1.640000
v 0.130000 0.080000 1.660000
v 0.160000 0.020000 1.670000
v 0.160000 0.040000 1.670000
v 0.160000 -0.000000 1.680000
v 0.160000 0.010000 1.670000
v 0.140000 0.010000 1.730000
v 0.140000 -0.000000 1.730000
v 0.150000 -0.010000 1.720000
v 0.150000 -0.010000 1.700000
v 0.150000 0.060000 1.700000
v 0.140000 0.060000 1.720000
v 0.140000 0.030000 1.730000
v 0.140000 0.050000 1.720000
v 0.150000 0.050000 1.670000
v 0.150000 0.050000 1.680000
v 0.160000 -0.010000 1.690000
v 0.140000 0.040000 1.730000
v 0.030000 0.100000 1.690000
v 0.030000 0.140000 1.710000
v 0.060000 0.130000 1.720000
v 0.060000 0.090000 1.700000
v 0.110000 0.100000 1.660000
v 0.100000 0.100000 1.680000
v 0.110000 0.140000 1.690000
v 0.130000 0.140000 1.670000
v 0.080000 0.090000 1.690000
v 0.090000 0.130000 1.710000
v 0.110000 0.120000 1.590000
v 0.110000 0.110000 1.630000
v 0.140000 0.150000 1.630000
v 0.130000 0.170000 1.600000
v -0.010000 0.180000 1.600000
v 0.000000 0.120000 1.630000
v 0.000000 0.130000 1.590000
v 0.030000 0.190000 1.560000
v 0.030000 0.140000 1.560000
v 0.060000 0.140000 1.560000
v 0.060000 0.190000 1.550000
v -0.010000 0.150000 1.670000
v 0.010000 0.150000 1.690000
v 0.010000 0.110000 1.680000
v 0.000000 0.110000 1.660000
v 0.090000 0.180000 1.560000
v 0.080000 0.140000 1.560000
v 0.100000 0.130000 1.570000
v 0.110000 0.170000 1.580000
v 0.010000 0.180000 1.580000
v 0.010000 0.140000 1.570000
v 0.080000 0.100000 1.600000
v 0.080000 0.100000 1.620000
v 0.080000 0.090000 1.640000
v 0.070000 0.090000 1.650000
v 0.030000 0.090000 1.650000
v 0.030000 0.090000 1.640000
v 0.050000 0.090000 1.660000
v 0.040000 0.090000 1.660000
v 0.040000 0.110000 1.590000
v 0.050000 0.110000 1.590000
v 0.030000 0.100000 1.620000
v 0.030000 0.110000 1.590000
v 0.070000 0.110000 1.590000
v 0.070000 0.100000 1.600000
v 0.070000 0.090000 1.660000
v 0.030000 0.110000 1.600000
v 0.040000 0.180000 1.710000
v 0.060000 0.180000 1.720000
v 0.120000 0.190000 1.670000
v 0.110000 0.180000 1.700000
v 0.090000 0.180000 1.710000
v 0.120000 0.210000 1.610000
v 0.120000 0.200000 1.640000
v 0.010000 0.220000 1.610000
v 0.010000 0.210000 1.650000
v 0.060000 0.220000 1.570000
v 0.030000 0.220000 1.580000
v 0.010000 0.200000 1.680000
v 0.020000 0.190000 1.700000
v 0.110000 0.210000 1.590000
v 0.090000 0.220000 1.580000
v 0.020000 0.220000 1.590000
v 0.090000 0.220000 1.650000
v 0.090000 0.230000 1.630000
v 0.080000 0.210000 1.680000
v 0.090000 0.220000 1.660000
v 0.040000 0.220000 1.670000
v 0.050000 0.210000 1.680000
v 0.060000 0.210000 1.690000
v 0.060000 0.230000 1.610000
v 0.050000 0.230000 1.620000
v 0.040000 0.220000 1.650000
v 0.040000 0.230000 1.620000
v 0.080000 0.230000 1.620000
v 0.040000 0.230000 1.630000
v -0.010000 -0.160000 1.730000
v -0.030000 -0.120000 1.740000
v 0.010000 -0.110000 1.750000
v 0.020000 -0.150000 1.740000
v 0.080000 -0.140000 1.690000
v 0.070000 -0.140000 1.720000
v 0.060000 -0.100000 1.720000
v 0.080000 -0.100000 1.690000
v 0.050000 -0.140000 1.730000
v 0.050000 -0.100000 1.740000
v 0.080000 -0.160000 1.620000
v 0.080000 -0.110000 1.610000
v -0.060000 -0.150000 1.620000
v -0.070000 -0.150000 1.660000
v -0.040000 -0.180000 1.660000
v -0.040000 -0.190000 1.620000
v -0.030000 -0.150000 1.570000
v -0.010000 -0.180000 1.590000
v 0.020000 -0.180000 1.580000
v 0.010000 -0.140000 1.560000
v -0.050000 -0.130000 1.720000
v -0.030000 -0.170000 1.710000
v -0.040000 -0.170000 1.700000
v 0.040000 -0.130000 1.570000
v 0.050000 -0.170000 1.590000
v 0.070000 -0.160000 1.600000
v 0.070000 -0.120000 1.590000
v -0.050000 -0.150000 1.590000
v -0.030000 -0.190000 1.600000
v 0.050000 -0.180000 1.640000
v 0.050000 -0.180000 1.660000
v 0.050000 -0.170000 1.680000
v 0.050000 -0.170000 1.690000
v -0.000000 -0.190000 1.690000
v -0.000000 -0.190000 1.680000
v 0.020000 -0.180000 1.700000
v 0.010000 -0.180000 1.700000
v 0.010000 -0.190000 1.620000
v 0.020000 -0.190000 1.620000
v -0.010000 -0.190000 1.660000
v -0.000000 -0.200000 1.630000
v 0.040000 -0.190000 1.620000
v 0.050000 -0.180000 1.630000
v 0.040000 -0.170000 1.700000
v -0.000000 -0.190000 1.640000
v -0.030000 -0.080000 1.720000
v 0.060000 -0.070000 1.680000
v 0.050000 -0.060000 1.710000
v 0.030000 -0.070000 1.720000
v 0.060000 -0.080000 1.610000
v 0.060000 -0.070000 1.650000
v -0.060000 -0.110000 1.610000
v -0.060000 -0.100000 1.650000
v -0.000000 -0.100000 1.570000
v -0.030000 -0.110000 1.580000
v -0.060000 -0.100000 1.690000
v -0.050000 -0.090000 1.710000
v 0.050000 -0.080000 1.590000
v 0.030000 -0.090000 1.580000
v -0.050000 -0.110000 1.590000
v 0.020000 -0.060000 1.650000
v 0.020000 -0.060000 1.630000
v 0.010000 -0.060000 1.680000
v 0.020000 -0.060000 1.660000
v -0.040000 -0.070000 1.670000
v -0.030000 -0.070000 1.680000
v -0.020000 -0.070000 1.690000
v -0.010000 -0.060000 1.690000
v -0.010000 -0.070000 1.610000
v -0.020000 -0.080000 1.610000
v -0.040000 -0.080000 1.650000
v -0.030000 -0.080000 1.620000
v 0.010000 -0.070000 1.620000
v 0.010000 -0.070000 1.610000
v -0.040000 -0.080000 1.630000
v 0.050000 0.080000 1.600000
v 0.090000 0.100000 1.620000
v 0.100000 0.070000 1.630000
v 0.060000 0.060000 1.610000
v 0.090000 -0.000000 1.570000
v 0.080000 0.020000 1.600000
v 0.120000 0.030000 1.610000
v 0.130000 0.010000 1.590000
v 0.080000 0.030000 1.610000
v 0.110000 0.040000 1.620000
v 0.110000 -0.000000 1.510000
v 0.100000 -0.000000 1.540000
v 0.140000 -0.000000 1.550000
v 0.150000 0.010000 1.510000
v 0.100000 0.130000 1.500000
v 0.090000 0.140000 1.540000
v 0.060000 0.110000 1.540000
v 0.060000 0.100000 1.500000
v 0.120000 0.100000 1.470000
v 0.080000 0.080000 1.470000
v 0.080000 0.130000 1.580000
v 0.080000 0.120000 1.600000
v 0.050000 0.090000 1.590000
v 0.050000 0.100000 1.570000
v 0.140000 0.040000 1.470000
v 0.100000 0.030000 1.480000
v 0.100000 0.010000 1.490000
v 0.150000 0.020000 1.490000
v 0.110000 0.120000 1.480000
v 0.070000 0.090000 1.480000
v 0.070000 0.020000 1.520000
v 0.070000 0.020000 1.540000
v 0.070000 0.020000 1.550000
v 0.060000 0.030000 1.570000
v 0.050000 0.070000 1.560000
v 0.050000 0.070000 1.550000
v 0.050000 0.050000 1.570000
v 0.050000 0.060000 1.570000
v 0.060000 0.060000 1.500000
v 0.070000 0.050000 1.500000
v 0.050000 0.070000 1.530000
v 0.060000 0.070000 1.510000
v 0.070000 0.040000 1.500000
v 0.070000 0.030000 1.510000
v 0.060000 0.040000 1.570000
v 0.050000 0.070000 1.510000
v 0.130000 0.120000 1.610000
v 0.140000 0.090000 1.620000
v 0.170000 0.040000 1.580000
v 0.160000 0.050000 1.610000
v 0.150000 0.060000 1.620000
v 0.180000 0.040000 1.520000
v 0.170000 0.030000 1.550000
v 0.140000 0.140000 1.510000
v 0.130000 0.140000 1.550000
v 0.120000 0.140000 1.580000
v 0.130000 0.130000 1.600000
v 0.180000 0.050000 1.500000
v 0.180000 0.060000 1.490000
v 0.180000 0.070000 1.550000
v 0.180000 0.070000 1.530000
v 0.170000 0.080000 1.580000
v 0.180000 0.070000 1.570000
v 0.160000 0.120000 1.570000
v 0.160000 0.110000 1.580000
v 0.160000 0.100000 1.590000
v 0.180000 0.100000 1.510000
v 0.170000 0.110000 1.520000
v 0.160000 0.120000 1.550000
v 0.170000 0.120000 1.520000
v 0.180000 0.080000 1.530000
v 0.180000 0.080000 1.520000
v 0.170000 0.080000 1.590000
v 0.160000 0.120000 1.530000
v -0.130000 0.020000 1.760000
v -0.090000 0.020000 1.770000
v -0.090000 -0.020000 1.780000
v -0.130000 -0.020000 1.770000
v -0.140000 -0.080000 1.730000
v -0.100000 -0.090000 1.730000
v -0.130000 -0.050000 1.760000
v -0.090000 -0.060000 1.770000
v -0.150000 -0.080000 1.660000
v -0.140000 -0.080000 1.700000
v -0.110000 -0.100000 1.690000
v -0.110000 -0.090000 1.650000
v -0.110000 0.060000 1.650000
v -0.110000 0.070000 1.690000
v -0.140000 0.050000 1.700000
v -0.150000 0.040000 1.660000
v -0.120000 0.020000 1.620000
v -0.150000 0.020000 1.630000
v -0.160000 -0.020000 1.620000
v -0.120000 -0.020000 1.610000
v -0.100000 0.060000 1.730000
v -0.100000 0.040000 1.750000
v -0.140000 0.030000 1.750000
v -0.140000 0.040000 1.730000
v -0.120000 -0.060000 1.620000
v -0.150000 -0.050000 1.630000
v -0.150000 -0.070000 1.640000
v -0.120000 -0.080000 1.640000
v -0.120000 0.040000 1.630000
v -0.160000 -0.050000 1.680000
v -0.160000 -0.050000 1.700000
v -0.160000 -0.050000 1.710000
v -0.160000 0.010000 1.720000
v -0.160000 -0.020000 1.740000
v -0.160000 0.000000 1.730000
v -0.170000 -0.030000 1.660000
v -0.170000 -0.040000 1.670000
v -0.160000 -0.030000 1.730000
v -0.060000 0.020000 1.760000
v -0.060000 -0.020000 1.760000
v -0.070000 -0.080000 1.720000
v -0.060000 -0.070000 1.750000
v -0.060000 -0.050000 1.760000
v -0.080000 -0.080000 1.650000
v -0.070000 -0.080000 1.690000
v -0.080000 0.040000 1.650000
v -0.070000 0.050000 1.690000
v -0.080000 -0.020000 1.620000
v -0.080000 0.020000 1.620000
v -0.060000 0.040000 1.720000
v -0.060000 0.030000 1.740000
v -0.080000 -0.070000 1.640000
v -0.080000 -0.050000 1.620000
v -0.080000 0.030000 1.630000
v -0.050000 -0.050000 1.680000
v -0.060000 -0.050000 1.670000
v -0.050000 -0.040000 1.720000
v -0.050000 -0.050000 1.700000
v -0.050000 0.010000 1.700000
v -0.050000 0.010000 1.710000
v -0.050000 0.000000 1.720000
v -0.050000 -0.020000 1.720000
v -0.060000 -0.020000 1.650000
v -0.060000 0.000000 1.650000
v -0.050000 0.020000 1.680000
v -0.060000 0.010000 1.660000
v -0.060000 -0.040000 1.660000
v -0.060000 -0.030000 1.650000
v -0.050000 -0.030000 1.720000
v -0.060000 0.010000 1.670000
v 0.080000 -0.010000 1.620000
v 0.120000 -0.030000 1.630000
v 0.110000 -0.060000 1.640000
v 0.070000 -0.030000 1.630000
v 0.050000 -0.070000 1.580000
v 0.050000 -0.070000 1.610000
v 0.090000 -0.100000 1.610000
v 0.060000 -0.060000 1.620000
v 0.090000 -0.080000 1.630000
v 0.060000 -0.080000 1.510000
v 0.060000 -0.080000 1.550000
v 0.090000 -0.120000 1.550000
v 0.100000 -0.110000 1.520000
v 0.160000 -0.010000 1.520000
v 0.160000 -0.000000 1.560000
v 0.110000 0.010000 1.550000
v 0.110000 -0.000000 1.520000
v 0.140000 -0.060000 1.470000
v 0.150000 -0.010000 1.600000
v 0.090000 -0.000000 1.600000
v 0.100000 -0.000000 1.590000
v 0.120000 -0.080000 1.480000
v 0.080000 -0.050000 1.490000
v 0.070000 -0.070000 1.500000
v 0.110000 -0.100000 1.500000
v 0.160000 -0.020000 1.500000
v 0.110000 -0.000000 1.500000
v 0.060000 -0.040000 1.530000
v 0.050000 -0.040000 1.550000
v 0.050000 -0.040000 1.560000
v 0.050000 -0.040000 1.580000
v 0.070000 -0.010000 1.570000
v 0.070000 -0.000000 1.570000
v 0.060000 -0.020000 1.590000
v 0.070000 -0.010000 1.580000
v 0.080000 -0.010000 1.520000
v 0.070000 -0.020000 1.510000
v 0.080000 -0.000000 1.550000
v 0.070000 -0.030000 1.520000
v 0.060000 -0.040000 1.520000
v 0.050000 -0.030000 1.580000
v 0.080000 -0.000000 1.530000
v 0.160000 -0.060000 1.630000
v 0.150000 -0.080000 1.640000
v 0.130000 -0.120000 1.620000
v 0.140000 -0.100000 1.630000
v 0.140000 -0.120000 1.520000
v 0.130000 -0.130000 1.560000
v 0.190000 -0.050000 1.530000
v 0.190000 -0.040000 1.570000
v 0.170000 -0.080000 1.490000
v 0.190000 -0.060000 1.500000
v 0.180000 -0.050000 1.600000
v 0.160000 -0.100000 1.500000
v 0.190000 -0.050000 1.510000
v 0.170000 -0.120000 1.560000
v 0.170000 -0.110000 1.550000
v 0.170000 -0.110000 1.590000
v 0.170000 -0.110000 1.580000
v 0.190000 -0.080000 1.580000
v 0.190000 -0.080000 1.590000
v 0.180000 -0.080000 1.600000
v 0.170000 -0.090000 1.600000
v 0.190000 -0.090000 1.530000
v 0.190000 -0.080000 1.530000
v 0.190000 -0.070000 1.570000
v 0.200000 -0.080000 1.540000
v 0.180000 -0.110000 1.540000
v 0.180000 -0.100000 1.530000
v 0.170000 -0.110000 1.600000
v 0.200000 -0.080000 1.550000
v -0.110000 -0.110000 1.680000
v -0.120000 -0.060000 1.690000
v -0.090000 -0.060000 1.700000
v -0.050000 -0.060000 1.670000
v -0.060000 -0.060000 1.690000
v -0.040000 -0.100000 1.580000
v -0.040000 -0.100000 1.610000
v -0.030000 -0.050000 1.610000
v -0.040000 -0.060000 1.570000
v -0.140000 -0.110000 1.610000
v -0.130000 -0.110000 1.570000
v -0.120000 -0.060000 1.540000
v -0.120000 -0.110000 1.550000
v -0.090000 -0.110000 1.540000
v -0.090000 -0.060000 1.530000
v -0.150000 -0.070000 1.650000
v -0.140000 -0.060000 1.670000
v -0.130000 -0.110000 1.660000
v -0.130000 -0.110000 1.650000
v -0.070000 -0.060000 1.540000
v -0.070000 -0.100000 1.550000
v -0.050000 -0.100000 1.560000
v -0.050000 -0.060000 1.560000
v -0.140000 -0.070000 1.550000
v -0.130000 -0.110000 1.560000
v -0.070000 -0.130000 1.590000
v -0.060000 -0.130000 1.610000
v -0.110000 -0.130000 1.640000
v -0.110000 -0.130000 1.630000
v -0.100000 -0.130000 1.650000
v -0.100000 -0.130000 1.580000
v -0.090000 -0.130000 1.570000
v -0.110000 -0.130000 1.610000
v -0.110000 -0.130000 1.580000
v -0.080000 -0.130000 1.580000
v -0.110000 -0.130000 1.590000
v -0.120000 -0.020000 1.680000
v -0.100000 -0.010000 1.690000
v -0.050000 -0.010000 1.640000
v -0.060000 -0.010000 1.670000
v -0.070000 -0.010000 1.680000
v -0.050000 -0.010000 1.580000
v -0.050000 -0.010000 1.610000
v -0.140000 -0.020000 1.570000
v -0.100000 -0.010000 1.540000
v -0.120000 -0.020000 1.550000
v -0.060000 -0.010000 1.560000
v -0.070000 -0.010000 1.550000
v -0.140000 -0.020000 1.560000
v -0.080000 0.010000 1.610000
v -0.080000 0.010000 1.630000
v -0.110000 0.010000 1.650000
v -0.100000 0.010000 1.650000
v -0.110000 0.010000 1.580000
v -0.120000 0.010000 1.580000
v -0.080000 0.010000 1.580000
v -0.090000 0.010000 1.580000
v -0.090000 0.010000 1.650000
v -0.120000 0.010000 1.590000
v -0.050000 0.130000 1.700000
v -0.070000 0.070000 1.690000
v -0.040000 0.030000 1.630000
v -0.040000 0.040000 1.660000
v 0.000000 0.050000 1.660000
v 0.000000 0.040000 1.630000
v -0.050000 0.050000 1.670000
v -0.010000 0.060000 1.680000
v -0.050000 0.050000 1.570000
v 0.000000 0.040000 1.600000
v -0.010000 0.060000 1.560000
v -0.080000 0.190000 1.600000
v -0.080000 0.180000 1.630000
v -0.110000 0.140000 1.630000
v -0.070000 0.160000 1.550000
v -0.100000 0.140000 1.560000
v -0.090000 0.110000 1.550000
v -0.050000 0.140000 1.540000
v -0.070000 0.170000 1.670000
v -0.060000 0.150000 1.680000
v -0.100000 0.130000 1.660000
v -0.030000 0.100000 1.540000
v -0.070000 0.080000 1.550000
v -0.060000 0.060000 1.560000
v -0.020000 0.080000 1.550000
v -0.080000 0.180000 1.580000
v -0.110000 0.150000 1.570000
v -0.080000 0.060000 1.590000
v -0.080000 0.060000 1.610000
v -0.080000 0.050000 1.620000
v -0.080000 0.060000 1.640000
v -0.100000 0.090000 1.650000
v -0.110000 0.100000 1.640000
v -0.090000 0.070000 1.650000
v -0.110000 0.100000 1.590000
v -0.100000 0.090000 1.580000
v -0.110000 0.110000 1.620000
v -0.110000 0.110000 1.590000
v -0.090000 0.080000 1.580000
v -0.090000 0.070000 1.590000
v -0.080000 0.060000 1.650000
v -0.110000 0.110000 1.600000
v -0.010000 0.150000 1.690000
v 0.030000 0.080000 1.630000
v 0.030000 0.080000 1.660000
v 0.020000 0.090000 1.670000
v 0.030000 0.080000 1.600000
v -0.040000 0.190000 1.590000
v -0.040000 0.190000 1.630000
v -0.020000 0.150000 1.550000
v -0.030000 0.180000 1.560000
v -0.030000 0.180000 1.660000
v -0.020000 0.160000 1.670000
v 0.010000 0.110000 1.560000
v 0.000000 0.130000 1.550000
v -0.040000 0.190000 1.570000
v 0.030000 0.120000 1.640000
v 0.000000 0.170000 1.640000
v 0.010000 0.160000 1.640000
v 0.010000 0.150000 1.650000
v 0.010000 0.160000 1.580000
v 0.000000 0.170000 1.590000
v 0.000000 0.170000 1.620000
v 0.020000 0.140000 1.590000
v 0.020000 0.140000 1.580000
v 0.030000 0.130000 1.640000
v 0.000000 0.180000 1.600000
vn -0.0000 -0.0000 -1.0000
vn 0.0290 -0.3769 -0.9258
vn -0.0000 -0.3590 -0.9333
vn -0.0502 0.5271 -0.8483
vn 0.0634 -0.8242 -0.5627
vn 0.1135 0.3198 -0.9407
vn 0.1091 0.3274 -0.9386
vn 0.1984 0.6802 -0.7056
vn 0.2300 0.6481 -0.7260
vn -0.0856 -0.2567 -0.9627
vn 0.2698 0.9249 -0.2677
vn -0.1312 0.0146 -0.9912
vn -0.0933 -0.0062 -0.9956
vn -0.2639 0.3545 -0.8970
vn -0.1936 0.3295 -0.9241
vn 0.0587 -0.5735 -0.8171
vn -0.3232 0.6944 -0.6430
vn -0.3073 0.1317 -0.9424
vn -0.3150 0.1260 -0.9407
vn 0.5064 -0.1772 -0.8439
vn -0.7191 0.3082 -0.6228
vn 0.2841 0.1794 -0.9419
vn 0.2832 0.2202 -0.9334
vn -0.4302 -0.3170 -0.8453
vn 0.7140 0.4510 -0.5355
vn 0.3685 -0.0351 -0.9290
vn 0.3533 -0.0535 -0.9340
vn -0.5782 0.0551 -0.8140
vn 0.9156 -0.0872 -0.3924
vn 0.2525 -0.2525 -0.9341
vn 0.5062 -0.5062 -0.6982
vn -0.1839 0.1839 -0.9656
vn 0.6994 -0.6994 -0.1472
vn -0.0823 0.0443 -0.9956
vn -0.0760 -0.0056 -0.9971
vn -0.3626 -0.1906 -0.9122
vn -0.3355 -0.2705 -0.9024
vn 0.3546 0.4805 -0.8021
vn -0.6018 -0.5325 -0.5952
vn -0.3446 -0.0969 -0.9337
vn -0.3353 -0.0798 -0.9387
vn -0.6714 -0.1958 -0.7148
vn -0.6698 -0.1884 -0.7182
vn 0.2610 0.0622 -0.9633
vn -0.9249 -0.2698 -0.2677
vn 0.7433 -0.6690 -0.0000
vn 0.7071 0.7071 -0.0000
vn -0.7071 0.7071 -0.0000
vn -0.7433 -0.6690 -0.0000
vn 0.7011 -0.7011 -0.1298
vn 0.7011 0.7011 -0.1298
vn -0.7011 0.7011 -0.1298
vn -0.7011 -0.7011 -0.1298
vn 0.2782 0.9459 -0.1669
vn 0.6028 -0.2192 -0.7672
vn 0.5437 0.4229 -0.7249
vn 0.1883 -0.5273 0.8286
vn 0.3070 0.7675 -0.5628
vn 0.7071 -0.0000 0.7071
vn 0.8729 0.4364 -0.2182
vn 0.8944 -0.4472 -0.0000
vn 0.9113 -0.3906 -0.1302
vn 0.7428 0.5571 0.3714
vn -0.1920 0.9278 -0.3199
vn -0.4685 0.6247 0.6247
vn -0.5661 -0.2265 0.7926
vn -0.1551 0.6722 -0.7239
vn -0.3308 -0.8269 0.4548
vn -0.2357 0.2357 -0.9428
vn -0.3019 -0.9360 0.1812
vn -0.2782 0.9459 0.1669
vn -0.7071 -0.0000 -0.7071
vn -0.8018 0.5345 -0.2673
vn -0.7620 -0.6350 -0.1270
vn -0.7171 0.3586 -0.5976
vn -0.8065 0.5518 -0.2122
vn -0.8944 0.4472 -0.0000
vn -0.9435 -0.1048 -0.3145
vn -0.7295 0.4104 -0.5472
vn -0.8459 0.4358 0.3076
vn 0.1636 0.0982 0.9816
vn -0.5849 0.0450 0.8099
vn -0.7789 0.1230 0.6149
vn -0.1699 0.1275 0.9772
vn -0.3308 0.4548 -0.8269
vn 0.6116 -0.0874 0.7863
vn 0.6597 0.2639 -0.7037
vn -0.2075 0.9684 -0.1383
vn -0.4438 0.8321 0.3328
vn 0.4364 0.8729 -0.2182
vn 0.6269 0.7234 0.2893
vn 0.5035 0.7553 0.4196
vn 0.0451 0.9617 0.2705
vn -0.8536 -0.0371 -0.5196
vn 0.7789 -0.1230 -0.6149
vn -0.9422 -0.2617 -0.2094
vn 0.7295 -0.4104 0.5472
vn -0.7761 -0.2425 0.5821
vn -0.3487 -0.4650 0.8137
vn 0.4073 -0.6788 -0.6110
vn 0.4161 -0.8917 -0.1783
vn 0.1078 -0.9705 0.2157
vn -0.2639 -0.7037 -0.6597
vn -0.4834 -0.8701 0.0967
vn -0.3094 -0.7220 -0.6189
vn -0.8889 -0.1111 -0.4444
vn 0.8134 0.5810 0.0290
vn 0.1589 0.5403 0.8263
vn 0.8269 0.4548 0.3308
vn -0.8997 0.0947 0.4262
vn -0.3199 0.1920 -0.9278
vn 0.5146 0.4411 -0.7352
vn 0.3980 0.8955 -0.1990
vn 0.3342 0.9191 -0.2089
vn -0.2408 0.8427 0.4815
vn 0.2872 0.9333 -0.2154
vn -0.2506 0.9023 0.3509
vn 0.1773 0.9751 -0.1330
vn -0.2620 0.9526 -0.1548
vn -0.5145 -0.5145 -0.6860
vn 0.9878 -0.0801 0.1335
vn -0.7581 -0.4332 0.4874
vn -0.2154 -0.2872 0.9333
vn 0.6597 -0.2639 -0.7037
vn -0.3123 -0.9370 0.1562
vn -0.2425 -0.9701 -0.0000
vn 0.4767 -0.6674 0.5721
vn 0.4364 -0.8729 -0.2182
vn 0.7960 -0.5970 0.0995
vn 0.3714 -0.7428 0.5571
vn 0.5834 -0.7130 0.3889
vn -0.1081 -0.9193 0.3785
vn 0.7548 -0.6470 0.1078
vn -0.0155 -0.9602 -0.2788
vn 0.0342 0.7870 -0.6159
vn -0.0000 0.7071 -0.7071
vn 0.6281 -0.7328 0.2617
vn -0.0423 0.5927 0.8043
vn 0.2572 -0.4115 0.8744
vn 0.6046 -0.4534 -0.6549
vn 0.5044 0.8575 0.1009
vn 0.7001 0.7001 -0.1400
vn 0.5819 0.8001 0.1455
vn 1.0000 -0.0000 -0.0000
vn 0.9428 0.2357 -0.2357
vn 0.6396 0.4264 0.6396
vn 0.9605 -0.2744 0.0457
vn 0.9201 0.3562 0.1632
vn -0.0671 -0.3356 -0.9396
vn -0.4813 0.6532 -0.5845
vn -0.6046 0.4534 0.6549
vn 0.1359 -0.9855 -0.1019
vn -0.7220 0.6189 0.3094
vn 0.1447 -0.6751 -0.7234
vn -0.9733 0.1622 -0.1622
vn -0.8944 -0.0000 -0.4472
vn 0.2771 -0.9517 0.1325
vn -0.6860 -0.5145 -0.5145
vn -0.7234 -0.2893 -0.6269
vn -0.5970 -0.7960 -0.0995
vn 0.2357 -0.2357 -0.9428
vn 0.5218 -0.8407 0.1449
vn 0.2649 -0.2649 0.9272
vn 0.3162 0.5692 0.7589
vn 0.4395 -0.8452 -0.3043
vn 0.3041 0.8363 0.4562
vn 0.2649 0.2649 -0.9272
vn 0.1735 -0.6361 -0.7518
vn 0.8650 0.4806 -0.1442
vn 0.8321 0.5547 -0.0000
vn 0.8085 -0.1617 -0.5659
vn 0.8890 0.2540 0.3810
vn 0.7220 0.3094 -0.6189
vn -0.1741 0.6963 0.6963
vn -0.4560 -0.8816 -0.1216
vn -0.4017 0.9129 -0.0730
vn -0.1849 0.6471 0.7396
vn -0.4603 0.1255 -0.8788
vn -0.0692 -0.5534 0.8301
vn -0.2673 -0.8018 -0.5345
vn -0.8321 0.5547 -0.0000
vn -0.9701 -0.0000 -0.2425
vn -0.8320 -0.0000 0.5547
vn -0.8704 -0.3482 0.3482
vn -0.8704 0.3482 0.3482
vn -0.8452 -0.5071 0.1690
vn -0.7654 -0.4305 0.4784
vn -0.9867 -0.0000 0.1624
vn 0.4082 0.4082 0.8165
vn -0.1361 -0.9526 -0.2722
vn 0.3674 0.1469 -0.9184
vn 0.9623 0.1925 0.1924
vn 0.4867 -0.8111 -0.3244
vn 0.5270 -0.8433 -0.1054
vn -0.9176 -0.3584 -0.1720
vn 0.3015 -0.9045 0.3015
vn 0.9091 -0.1010 0.4041
vn 0.1924 -0.9623 0.1925
vn -0.1871 -0.2994 -0.9356
vn 0.3180 0.5167 -0.7949
vn 0.1920 0.9278 0.3199
vn -0.8086 -0.5708 0.1427
vn -0.7193 -0.5861 -0.3730
vn -0.7715 -0.6172 0.1543
vn -0.1654 0.5375 0.8269
vn -0.8165 0.4082 0.4082
vn -0.9487 -0.3162 -0.0000
vn -0.4411 0.7352 -0.5147
vn -0.8400 0.5183 -0.1608
vn -0.9847 0.1231 0.1231
vn 0.3107 0.1864 0.9321
vn 0.8572 0.3297 -0.3956
vn -0.8301 0.0692 0.5534
vn -0.4767 0.1907 0.8581
vn 0.4815 0.2408 0.8427
vn 0.6804 0.2722 -0.6804
vn -0.7472 0.6476 0.1494
vn 0.2408 0.8427 0.4815
vn 0.4083 0.8165 -0.4082
vn -0.5481 0.6852 0.4796
vn 0.5970 0.7960 0.0995
vn 0.3938 -0.1575 -0.9056
vn -0.8123 -0.2166 -0.5415
vn 0.3937 -0.1575 0.9056
vn -0.7001 -0.1400 0.7001
vn -0.8123 -0.2166 0.5415
vn -0.5547 -0.8321 -0.0000
vn 0.4180 -0.7664 -0.4877
vn 0.2294 -0.6882 0.6882
vn -0.2408 -0.8427 0.4815
vn -0.1168 -0.8763 -0.4674
vn 0.8321 -0.5547 -0.0000
vn -0.1210 0.7868 -0.6052
vn 0.3674 -0.1469 0.9184
vn -0.0000 0.4472 0.8944
vn 0.7650 -0.5276 -0.3693
vn -0.0000 0.5547 0.8320
vn 0.1802 0.1030 0.9782
vn 0.4767 -0.5721 0.6674
vn 0.5167 0.7949 -0.3180
vn 0.8328 -0.5269 0.1700
vn 0.5488 0.7684 -0.3293
vn 0.6860 0.5145 0.5145
vn 0.5571 0.7428 0.3714
vn 0.4767 0.8581 -0.1907
vn -0.0825 -0.4124 0.9073
vn -0.8000 0.6000 -0.0000
vn 0.1790 -0.9545 0.2386
vn -0.2224 -0.1482 0.9636
vn 0.1270 -0.7620 -0.6350
vn -0.5773 -0.5774 -0.5774
vn -0.5774 -0.5773 0.5773
vn -0.5013 -0.7877 -0.3581
vn 0.8525 0.5225 0.0138
vn -0.8944 -0.0000 0.4472
vn -0.6046 -0.4534 0.6549
vn -0.3469 -0.9251 -0.1542
vn -0.8581 -0.1907 -0.4767
vn -0.5345 -0.8018 0.2673
s 0
usemtl rsc_005008
f 1//1 2//1 3//1
f 1//1 4//1 2//1
f 25//1 26//1 27//1
f 25//1 28//1 26//1
f 29//2 27//2 30//2
f 29//3 25//3 27//3
f 28//4 31//4 26//4
f 32//5 29//5 30//5
f 33//6 34//6 35//6
f 33//7 36//7 34//7
f 37//8 35//8 38//8
f 37//9 33//9 35//9
f 36//10 39//10 34//10
f 40//11 37//11 38//11
f 41//12 42//12 43//12
f 41//13 44//13 42//13
f 45//14 43//14 46//14
f 45//15 41//15 43//15
f 44//16 47//16 42//16
f 48//17 45//17 46//17
f 49//1 50//1 51//1
f 49//1 52//1 50//1
f 53//18 51//18 54//18
f 53//19 49//19 51//19
f 52//20 55//20 50//20
f 56//21 53//21 54//21
f 57//1 58//1 59//1
f 57//1 60//1 58//1
f 61//22 59//22 62//22
f 61//23 57//23 59//23
f 60//24 63//24 58//24
f 64//25 61//25 62//25
f 65//1 66//1 67//1
f 65//1 68//1 66//1
f 69//26 67//26 70//26
f 69//27 65//27 67//27
f 68//28 71//28 66//28
f 48//29 69//29 70//29
f 72//30 73//30 74//30
f 72//30 75//30 73//30
f 76//31 74//31 77//31
f 76//31 72//31 74//31
f 75//32 78//32 73//32
f 40//33 76//33 77//33
f 79//34 80//34 81//34
f 79//35 82//35 80//35
f 83//36 81//36 84//36
f 83//37 79//37 81//37
f 82//38 85//38 80//38
f 48//39 83//39 84//39
f 86//40 87//40 88//40
f 86//41 89//41 87//41
f 90//42 88//42 91//42
f 90//43 86//43 88//43
f 89//44 92//44 87//44
f 40//45 90//45 91//45
f 93//1 94//1 95//1
f 93//1 96//1 94//1
f 97//46 95//46 98//46
f 97//46 93//46 95//46
f 98//47 94//47 99//47
f 98//47 95//47 94//47
f 99//48 96//48 100//48
f 99//48 94//48 96//48
f 100//49 93//49 97//49
f 100//49 96//49 93//49
usemtl rsc_904008
f 5//50 6//50 7//50
f 5//50 8//50 6//50
f 7//51 9//51 10//51
f 7//51 6//51 9//51
f 10//52 11//52 12//52
f 10//52 9//52 11//52
f 12//53 8//53 5//53
f 12//53 11//53 8//53
f 13//50 3//50 14//50
f 13//50 1//50 3//50
f 14//51 2//51 15//51
f 14//51 3//51 2//51
f 15//52 4//52 16//52
f 15//52 2//52 4//52
f 16//53 1//53 13//53
f 16//53 4//53 1//53
f 17//52 18//52 19//52
f 17//52 20//52 18//52
f 19//53 21//53 22//53
f 19//53 18//53 21//53
f 22//50 23//50 24//50
f 22//50 21//50 23//50
f 24//51 20//51 17//51
f 24//51 23//51 20//51
usemtl rsc_d0b058
f 101//54 102//54 103//54 104//54
f 114//55 115//55 116//55 117//55
f 115//56 120//56 123//56 116//56
f 125//57 110//57 113//57 126//57
f 122//58 121//58 102//58 101//58
f 111//59 110//59 128//59 129//59
f 123//60 122//60 131//60 132//60
f 118//61 127//61 134//61 133//61
f 127//62 117//62 136//62 134//62
f 108//63 105//63 130//63 135//63
f 137//64 138//64 103//64 102//64
f 139//65 107//65 106//65 140//65
f 142//66 113//66 112//66 143//66
f 120//67 147//67 148//67 121//67
f 124//68 126//68 149//68 150//68
f 115//69 144//69 147//69 120//69
f 119//70 124//70 150//70 145//70
f 138//71 141//71 109//71 103//71
f 147//72 155//72 156//72 148//72
f 137//73 157//73 158//73 138//73
f 145//74 159//74 160//74 146//74
f 148//75 156//75 157//75 137//75
f 138//76 158//76 165//76 141//76
f 141//77 165//77 153//77 140//77
f 162//78 160//78 159//78 164//78 163//78 152//78 151//78 154//78 153//78 165//78 158//78 157//78 156//78 155//78 161//78 166//78
f 171//79 172//79 173//79 174//79
f 177//80 178//80 179//80 180//80
f 184//81 185//81 186//81 187//81
f 192//82 193//82 194//82 195//82
f 194//83 177//83 180//83 195//83
f 187//84 186//84 193//84 192//84
f 170//85 169//85 176//85 175//85
f 196//86 197//86 185//86 184//86
f 190//87 189//87 168//87 167//87
f 172//88 171//88 200//88 201//88
f 171//89 178//89 199//89 200//89
f 190//90 167//90 205//90 202//90
f 182//91 191//91 203//91 208//91
f 197//92 183//92 213//92 209//92
f 209//93 213//93 208//93 203//93 202//93 205//93 204//93 212//93 201//93 200//93 199//93 198//93 211//93 210//93 207//93 206//93
f 216//94 174//94 173//94 217//94
f 188//95 225//95 226//95 189//95
f 220//96 179//96 174//96 216//96
f 196//97 229//97 221//97 181//97
f 227//98 195//98 180//98 219//98
f 187//99 192//99 228//99 223//99
f 214//100 235//100 236//100 215//100
f 222//101 239//101 234//101 225//101
f 224//102 238//102 240//102 229//102
f 215//103 236//103 232//103 218//103
f 228//104 227//104 241//104
f 217//105 218//105 232//105
f 247//106 248//106 249//106 250//106
f 255//107 256//107 257//107 258//107
f 259//108 260//108 261//108 262//108
f 270//109 255//109 258//109 271//109
f 268//110 253//110 254//110 269//110
f 246//111 245//111 252//111 251//111
f 264//112 263//112 244//112 243//112
f 265//113 264//113 276//113 277//113
f 257//114 265//114 277//114 282//114
f 260//115 271//115 283//115 280//115
f 271//116 258//116 287//116 283//116
f 267//117 261//117 281//117 284//117
f 258//118 257//118 282//118 287//118
f 283//119 287//119 282//119 277//119 276//119 279//119 278//119 286//119 275//119 274//119 273//119 272//119 285//119 284//119 281//119 280//119
f 291//120 290//120 249//120 252//120
f 255//121 294//121 295//121 256//121
f 300//122 269//122 254//122 292//122
f 262//123 266//123 301//123 296//123
f 299//124 288//124 244//124 263//124
f 293//125 303//125 304//125 292//125
f 289//126 306//126 303//126 293//126
f 296//127 311//127 312//127 297//127
f 299//128 308//128 309//128 288//128
f 295//129 313//129 307//129 298//129
f 297//130 312//130 314//130 302//130
f 302//131 314//131 317//131 294//131
f 292//132 304//132 315//132 300//132
f 294//133 317//133 313//133 295//133
f 232//134 236//134 235//134 234//134 239//134 242//134 240//134 238//134 237//134 241//134 231//134 230//134 233//134
f 322//135 323//135 324//135 325//135
f 326//136 327//136 324//136 323//136
f 332//137 333//137 334//137 335//137
f 342//138 343//138 344//138 345//138
f 346//139 347//139 337//139 336//139
f 340//140 339//140 319//140 318//140
f 329//141 328//141 348//141 349//141
f 323//142 322//142 350//142 351//142
f 322//143 329//143 349//143 350//143
f 341//144 340//144 352//144 353//144
f 318//145 321//145 354//145 355//145
f 344//146 343//146 360//146 361//146
f 335//147 334//147 358//147 363//147
f 359//148 363//148 358//148 353//148 352//148 355//148 354//148 362//148 351//148 350//148 349//148 348//148 361//148 360//148 357//148 356//148
f 364//149 365//149 320//149 319//149
f 366//150 325//150 324//150 367//150
f 369//48 331//48 330//48 370//48
f 342//151 345//151 375//151 376//151
f 333//152 372//152 373//152 338//152
f 375//153 345//153 331//153 369//153
f 374//154 364//154 319//154 339//154
f 370//155 377//155 378//155 369//155
f 367//156 379//156 380//156 366//156
f 309//157 308//157 307//157 313//157 317//157 314//157 312//157 311//157 316//157 315//157 304//157 303//157 306//157 305//157 310//157
f 374//158 381//158 382//158 364//158
f 365//159 383//159 390//159 368//159
f 371//160 391//160 386//160 372//160
f 392//161 393//161 394//161 395//161
f 404//162 405//162 406//162 407//162
f 408//163 409//163 410//163 411//163
f 416//164 417//164 418//164 419//164
f 405//165 412//165 415//165 406//165
f 418//166 400//166 403//166 419//166
f 395//167 394//167 399//167 398//167
f 414//168 413//168 393//168 392//168
f 401//169 400//169 421//169 422//169
f 396//170 401//170 422//170 423//170
f 414//171 392//171 426//171 424//171
f 418//172 417//172 427//172 428//172
f 395//173 398//173 429//173 425//173
f 416//174 419//174 443//174 444//174
f 405//175 438//175 441//175 412//175
f 436//176 402//176 397//176 432//176
f 443//177 419//177 403//177 435//177
f 431//178 434//178 399//178 394//178
f 420//179 408//179 440//179 445//179
f 442//180 430//180 393//180 413//180
f 433//77 448//77 449//77 432//77
f 432//181 449//181 446//181 436//181
f 430//182 452//182 453//182 431//182
f 439//183 454//183 455//183 440//183
f 440//184 455//184 457//184 445//184
f 443//185 458//185 459//185 444//185
f 445//186 457//186 461//186 437//186
f 437//187 461//187 456//187 438//187
f 457//188 455//188 454//188 459//188 458//188 447//188 446//188 449//188 448//188 460//188 453//188 452//188 451//188 450//188 456//188 461//188
f 483//189 484//189 485//189 486//189
f 476//190 480//190 482//190 477//190
f 465//191 464//191 470//191 469//191
f 467//144 466//144 491//144 492//144
f 466//192 472//192 490//192 491//192
f 482//193 481//193 493//193 494//193
f 481//194 462//194 496//194 493//194
f 381//195 386//195 391//195 387//195 385//195 384//195 389//195 388//195 378//195 377//195 380//195 379//195 390//195 383//195 382//195
f 488//196 478//196 503//196 497//196
f 471//197 485//197 501//197 489//197
f 478//198 477//198 499//198 503//198
f 504//199 505//199 464//199 463//199
f 507//200 506//200 468//200 470//200
f 508//201 474//201 473//201 509//201
f 475//202 510//202 511//202 476//202
f 476//203 511//203 514//203 480//203
f 487//204 516//204 510//204 475//204
f 479//205 483//205 515//205 512//205
f 512//206 525//206 526//206 513//206
f 516//207 528//207 532//207 510//207
f 507//208 531//208 519//208 506//208
f 528//209 526//209 525//209 530//209 529//209 518//209 517//209 520//209 519//209 531//209 524//209 523//209 522//209 521//209 527//209 532//209
f 538//210 539//210 540//210 541//210
f 544//211 545//211 546//211 547//211
f 548//212 549//212 550//212 551//212
f 554//213 538//213 541//213 555//213
f 547//214 546//214 553//214 552//214
f 556//215 557//215 545//215 544//215
f 550//216 549//216 534//216 533//216
f 539//217 538//217 558//217 559//217
f 551//47 550//47 560//47 561//47
f 546//218 545//218 563//218 564//218
f 550//219 533//219 562//219 560//219
f 557//47 543//47 568//47 566//47
f 553//220 546//220 564//220 567//220
f 543//221 542//221 565//221 568//221
f 569//222 570//222 535//222 534//222
f 573//223 572//223 536//223 537//223
f 544//224 547//224 577//224 578//224
f 552//225 555//225 579//225 580//225
f 579//226 555//226 541//226 574//226
f 571//227 583//227 582//227 575//227
f 569//228 584//228 585//228 570//228
f 578//229 586//229 587//229 581//229
f 579//230 588//230 589//230 580//230
f 570//231 585//231 590//231 573//231
f 581//232 587//232 591//232 576//232
f 598//233 599//233 596//233 595//233
f 606//234 607//234 608//234 609//234
f 613//235 614//235 615//235 616//235
f 604//236 610//236 612//236 605//236
f 615//237 600//237 602//237 616//237
f 609//238 608//238 614//238 613//238
f 617//239 618//239 607//239 606//239
f 595//240 594//240 621//240 622//240
f 495//241 502//241 492//241 491//241 490//241 489//241 501//241 500//241 498//241 497//241 503//241 499//241 494//241 493//241 496//241
f 593//242 598//242 632//242 625//242
f 614//243 608//243 627//243 630//243
f 600//244 615//244 631//244 619//244
f 598//245 595//245 622//245 632//245
f 606//246 609//246 641//246 642//246
f 613//214 616//214 645//214 646//214
f 638//247 601//247 597//247 635//247
f 617//248 647//248 639//248 603//248
f 609//249 613//249 646//249 641//249
f 644//250 634//250 592//250 611//250
f 643//251 649//251 650//251 644//251
f 641//252 652//252 653//252 642//252
f 644//253 650//253 651//253 634//253
f 625//254 632//254 622//254 621//254 620//254 619//254 631//254 630//254 627//254 626//254 629//254 633//254 628//254 624//254 623//254
f 645//255 655//255 656//255 646//255
f 646//256 656//256 652//256 641//256
f 639//257 658//257 654//257 640//257
f 637//258 657//258 648//258 636//258
f 642//259 653//259 647//259
