# Blender 4.0.2
# www.blender.org
mtllib 4_mature_partial.mtl
o apple_4_partial
v -0.010000 0.000000 1.930000
v 0.140000 -0.140000 0.220000
v 0.180000 -0.000000 0.220000
v 0.140000 0.140000 0.220000
v 0.000000 0.180000 0.210000
v -0.140000 0.140000 0.210000
v -0.180000 0.000000 0.210000
v -0.000000 -0.180000 0.210000
v -0.140000 -0.140000 0.210000
v -0.010000 0.800000 1.820000
v -0.010000 0.700000 1.460000
v 0.460000 0.470000 1.460000
v 0.530000 0.540000 1.820000
v -0.550000 0.540000 1.810000
v -0.480000 0.470000 1.460000
v -0.810000 0.000000 1.810000
v -0.710000 0.000000 1.460000
v 0.530000 -0.540000 1.820000
v 0.460000 -0.470000 1.460000
v -0.010000 -0.690000 1.460000
v -0.010000 -0.800000 1.820000
v 0.790000 -0.000000 1.820000
v 0.690000 -0.000000 1.460000
v -0.480000 -0.470000 1.460000
v -0.550000 -0.540000 1.810000
v -0.010000 0.670000 2.210000
v -0.010000 0.890000 1.780000
v 0.610000 0.620000 1.780000
v 0.450000 0.470000 2.210000
v -0.480000 0.470000 2.210000
v -0.630000 0.620000 1.780000
v -0.480000 -0.470000 2.210000
v -0.630000 -0.620000 1.780000
v -0.900000 0.000000 1.780000
v -0.680000 0.000000 2.210000
v 0.890000 -0.000000 1.790000
v 0.650000 -0.000000 2.210000
v -0.010000 -0.670000 2.210000
v -0.010000 -0.890000 1.780000
v 0.450000 -0.470000 2.210000
v 0.610000 -0.620000 1.780000
v -0.010000 0.800000 2.160000
v -0.010000 0.000000 2.480000
v -0.550000 0.540000 2.160000
v -0.810000 0.000000 2.160000
v 0.790000 -0.000000 2.160000
v 0.530000 0.540000 2.160000
v -0.550000 -0.540000 2.160000
v -0.010000 -0.800000 2.160000
v 0.530000 -0.540000 2.160000
v -0.430000 0.430000 0.000000
v -0.240000 0.140000 0.000000
v -0.170000 0.160000 0.160000
v -0.140000 0.240000 0.000000
v -0.000000 -0.290000 0.000000
v -0.210000 -0.210000 0.000000
v -0.210000 0.210000 0.000000
v 0.000000 0.290000 0.000000
v -0.290000 0.000000 0.000000
v 0.210000 0.210000 0.000000
v 0.290000 -0.000000 0.000000
v 0.210000 -0.210000 0.000000
v 0.360000 0.110000 0.040000
v 0.210000 -0.000000 0.140000
v 0.320000 -0.000000 0.180000
v 0.250000 0.110000 0.000000
v 0.250000 -0.110000 0.000000
v 0.360000 -0.110000 0.040000
v 0.430000 -0.000000 0.110000
v 0.430000 0.110000 0.000000
v 0.430000 -0.110000 0.000000
v 0.500000 -0.000000 0.040000
v 0.640000 -0.000000 0.000000
v -0.250000 -0.110000 0.000000
v -0.250000 -0.250000 0.030000
v -0.110000 -0.250000 0.000000
v -0.430000 -0.430000 0.000000
v 0.680000 -0.240000 1.430000
v 0.720000 -0.230000 1.410000
v 0.690000 -0.210000 1.430000
v 0.710000 -0.260000 1.410000
v 0.420000 0.030000 1.260000
v 0.050000 -0.060000 1.140000
v 0.420000 -0.030000 1.260000
v 0.050000 0.060000 1.140000
v 0.050000 -0.060000 1.030000
v 0.480000 -0.030000 1.200000
v 0.480000 0.030000 1.200000
v 0.050000 0.060000 1.030000
v 0.500000 -0.000000 1.280000
v 0.540000 -0.000000 1.230000
v 0.500000 0.110000 1.300000
v 0.540000 0.080000 1.300000
v 0.520000 0.110000 1.250000
v 0.540000 0.080000 1.230000
v -0.490000 0.270000 1.540000
v -0.470000 0.250000 1.560000
v -0.470000 0.270000 1.560000
v -0.490000 0.250000 1.540000
v -0.010000 0.060000 1.280000
v -0.240000 0.210000 1.390000
v -0.070000 0.010000 1.280000
v -0.210000 0.240000 1.390000
v -0.260000 0.240000 1.340000
v -0.070000 0.010000 1.170000
v -0.010000 0.060000 1.170000
v -0.230000 0.260000 1.340000
v -0.260000 0.260000 1.420000
v -0.280000 0.290000 1.370000
v -0.230000 0.310000 1.430000
v -0.200000 0.310000 1.430000
v -0.210000 0.320000 1.380000
v -0.230000 0.310000 1.370000
v -0.840000 -0.020000 1.670000
v -0.820000 0.000000 1.700000
v -0.820000 -0.020000 1.710000
v -0.800000 -0.080000 1.690000
v -0.820000 -0.070000 1.690000
v -0.820000 -0.060000 1.690000
v -0.770000 -0.080000 1.660000
v -0.780000 -0.080000 1.680000
v -0.760000 -0.070000 1.710000
v -0.750000 -0.060000 1.690000
v -0.800000 0.020000 1.660000
v -0.820000 -0.010000 1.640000
v -0.760000 0.000000 1.640000
v -0.780000 -0.020000 1.620000
v -0.770000 -0.040000 1.630000
v -0.740000 -0.020000 1.650000
v -0.820000 0.020000 1.670000
v -0.820000 0.010000 1.680000
v -0.840000 -0.020000 1.660000
v -0.830000 -0.010000 1.650000
v -0.740000 -0.040000 1.660000
v -0.760000 -0.060000 1.640000
v -0.770000 -0.070000 1.650000
v -0.740000 -0.050000 1.680000
v -0.790000 -0.070000 1.650000
v -0.800000 -0.070000 1.660000
v -0.810000 -0.070000 1.660000
v -0.820000 -0.060000 1.660000
v -0.830000 -0.040000 1.650000
v -0.830000 -0.040000 1.660000
v -0.790000 -0.050000 1.630000
v -0.790000 -0.060000 1.640000
v -0.800000 0.020000 1.720000
v -0.800000 0.000000 1.730000
v -0.760000 -0.040000 1.730000
v -0.780000 -0.030000 1.740000
v -0.780000 -0.020000 1.740000
v -0.730000 -0.040000 1.710000
v -0.750000 -0.040000 1.720000
v -0.740000 0.020000 1.670000
v -0.730000 -0.030000 1.700000
v -0.730000 -0.020000 1.690000
v -0.750000 0.030000 1.670000
v -0.750000 -0.010000 1.720000
v -0.760000 0.000000 1.730000
v -0.750000 -0.010000 1.730000
v -0.740000 0.020000 1.700000
v -0.750000 0.020000 1.700000
v -0.280000 -0.150000 2.430000
v -0.240000 -0.140000 2.440000
v -0.240000 -0.170000 2.440000
v -0.280000 -0.170000 2.440000
v -0.280000 -0.200000 2.430000
v -0.240000 -0.210000 2.430000
v -0.280000 -0.190000 2.430000
v -0.240000 -0.190000 2.440000
v -0.280000 -0.210000 2.370000
v -0.280000 -0.210000 2.390000
v -0.240000 -0.230000 2.390000
v -0.240000 -0.220000 2.360000
v -0.240000 -0.120000 2.360000
v -0.240000 -0.110000 2.390000
v -0.280000 -0.130000 2.360000
v -0.240000 -0.140000 2.340000
v -0.280000 -0.150000 2.350000
v -0.280000 -0.170000 2.340000
v -0.240000 -0.170000 2.330000
v -0.240000 -0.120000 2.410000
v -0.280000 -0.140000 2.420000
v -0.280000 -0.130000 2.410000
v -0.240000 -0.190000 2.340000
v -0.280000 -0.190000 2.350000
v -0.240000 -0.210000 2.350000
v -0.240000 -0.130000 2.350000
v -0.280000 -0.140000 2.350000
v -0.300000 -0.190000 2.380000
v -0.300000 -0.190000 2.390000
v -0.300000 -0.190000 2.400000
v -0.300000 -0.180000 2.410000
v -0.300000 -0.150000 2.400000
v -0.300000 -0.170000 2.410000
v -0.300000 -0.160000 2.410000
v -0.300000 -0.160000 2.370000
v -0.300000 -0.170000 2.360000
v -0.300000 -0.150000 2.390000
v -0.300000 -0.150000 2.370000
v -0.300000 -0.180000 2.370000
v -0.300000 -0.150000 2.380000
v -0.200000 -0.150000 2.430000
v -0.200000 -0.170000 2.440000
v -0.200000 -0.210000 2.410000
v -0.200000 -0.200000 2.430000
v -0.200000 -0.190000 2.430000
v -0.200000 -0.210000 2.370000
v -0.200000 -0.210000 2.390000
v -0.200000 -0.130000 2.360000
v -0.200000 -0.120000 2.390000
v -0.200000 -0.170000 2.340000
v -0.200000 -0.150000 2.350000
v -0.200000 -0.130000 2.410000
v -0.200000 -0.140000 2.420000
v -0.200000 -0.200000 2.360000
v -0.200000 -0.190000 2.350000
v -0.200000 -0.140000 2.350000
v -0.180000 -0.190000 2.390000
v -0.180000 -0.190000 2.380000
v -0.180000 -0.180000 2.410000
v -0.180000 -0.190000 2.400000
v -0.180000 -0.150000 2.400000
v -0.180000 -0.170000 2.360000
v -0.180000 -0.180000 2.370000
v 0.110000 -0.750000 1.550000
v 0.080000 -0.730000 1.560000
v 0.100000 -0.710000 1.560000
v 0.120000 -0.740000 1.560000
v 0.160000 -0.710000 1.520000
v 0.150000 -0.710000 1.540000
v 0.130000 -0.680000 1.540000
v 0.140000 -0.670000 1.530000
v 0.140000 -0.720000 1.550000
v 0.120000 -0.690000 1.560000
v 0.160000 -0.710000 1.480000
v 0.160000 -0.700000 1.500000
v 0.140000 -0.670000 1.470000
v 0.060000 -0.750000 1.470000
v 0.060000 -0.750000 1.500000
v 0.090000 -0.770000 1.500000
v 0.090000 -0.770000 1.470000
v 0.110000 -0.750000 1.450000
v 0.120000 -0.740000 1.450000
v 0.100000 -0.710000 1.440000
v 0.070000 -0.740000 1.540000
v 0.100000 -0.760000 1.540000
v 0.090000 -0.770000 1.530000
v 0.120000 -0.690000 1.450000
v 0.140000 -0.720000 1.460000
v 0.150000 -0.710000 1.460000
v 0.140000 -0.680000 1.460000
v 0.070000 -0.740000 1.460000
v 0.100000 -0.760000 1.460000
v 0.150000 -0.730000 1.500000
v 0.150000 -0.740000 1.510000
v 0.120000 -0.760000 1.520000
v 0.120000 -0.760000 1.510000
v 0.130000 -0.750000 1.530000
v 0.130000 -0.760000 1.530000
v 0.130000 -0.760000 1.480000
v 0.120000 -0.770000 1.500000
v 0.120000 -0.760000 1.480000
v 0.140000 -0.740000 1.480000
v 0.150000 -0.740000 1.480000
v 0.060000 -0.700000 1.550000
v 0.080000 -0.680000 1.560000
v 0.110000 -0.650000 1.520000
v 0.110000 -0.660000 1.540000
v 0.100000 -0.670000 1.550000
v 0.050000 -0.710000 1.470000
v 0.040000 -0.720000 1.500000
v 0.080000 -0.680000 1.450000
v 0.060000 -0.700000 1.450000
v 0.050000 -0.710000 1.530000
v 0.110000 -0.660000 1.460000
v 0.100000 -0.670000 1.460000
v 0.050000 -0.710000 1.460000
v 0.080000 -0.660000 1.520000
v 0.080000 -0.660000 1.510000
v 0.050000 -0.690000 1.510000
v 0.070000 -0.670000 1.530000
v 0.060000 -0.680000 1.480000
v 0.050000 -0.690000 1.500000
v 0.050000 -0.680000 1.480000
v 0.080000 -0.660000 1.480000
v 0.080000 -0.660000 1.530000
v 0.050000 -0.690000 1.490000
v -0.150000 0.810000 2.000000
v -0.130000 0.830000 2.010000
v -0.120000 0.800000 2.010000
v -0.140000 0.790000 2.010000
v -0.130000 0.750000 1.980000
v -0.130000 0.760000 2.000000
v -0.100000 0.760000 1.980000
v -0.140000 0.770000 2.000000
v -0.110000 0.780000 2.010000
v -0.130000 0.750000 1.940000
v -0.130000 0.750000 1.960000
v -0.090000 0.750000 1.960000
v -0.140000 0.850000 1.940000
v -0.140000 0.860000 1.960000
v -0.160000 0.830000 1.960000
v -0.160000 0.830000 1.940000
v -0.130000 0.830000 1.920000
v -0.150000 0.810000 1.920000
v -0.140000 0.790000 1.920000
v -0.120000 0.800000 1.910000
v -0.140000 0.850000 1.980000
v -0.130000 0.840000 2.000000
v -0.160000 0.820000 1.990000
v -0.160000 0.830000 1.980000
v -0.110000 0.780000 1.920000
v -0.140000 0.770000 1.920000
v -0.130000 0.760000 1.930000
v -0.130000 0.840000 1.930000
v -0.160000 0.820000 1.930000
v -0.150000 0.770000 1.950000
v -0.150000 0.770000 1.960000
v -0.150000 0.770000 1.970000
v -0.150000 0.770000 1.980000
v -0.160000 0.800000 1.980000
v -0.170000 0.810000 1.970000
v -0.160000 0.790000 1.990000
v -0.160000 0.800000 1.940000
v -0.160000 0.790000 1.940000
v -0.170000 0.810000 1.960000
v -0.150000 0.780000 1.940000
v -0.150000 0.780000 1.980000
v -0.170000 0.810000 1.950000
v -0.100000 0.840000 2.000000
v -0.090000 0.810000 2.010000
v -0.070000 0.770000 1.940000
v -0.100000 0.850000 1.940000
v -0.110000 0.860000 1.960000
v -0.090000 0.810000 1.920000
v -0.100000 0.840000 1.920000
v -0.100000 0.850000 1.980000
v -0.100000 0.850000 1.990000
v -0.080000 0.780000 1.930000
v -0.080000 0.790000 1.920000
v -0.100000 0.850000 1.930000
v -0.070000 0.800000 1.950000
v -0.080000 0.840000 1.970000
v -0.080000 0.840000 1.980000
v -0.080000 0.830000 1.980000
v -0.070000 0.820000 1.990000
v -0.080000 0.840000 1.960000
v -0.070000 0.810000 1.950000
v -0.070000 0.810000 1.940000
v -0.080000 0.840000 1.950000
v 0.850000 0.100000 1.960000
v 0.870000 0.090000 1.930000
v 0.870000 0.060000 1.950000
v 0.850000 0.080000 1.970000
v 0.820000 0.040000 1.980000
v 0.840000 0.050000 1.980000
v 0.850000 0.030000 1.960000
v 0.830000 0.020000 1.960000
v 0.840000 0.060000 1.980000
v 0.860000 0.040000 1.960000
v 0.780000 0.040000 1.960000
v 0.800000 0.040000 1.970000
v 0.810000 0.010000 1.950000
v 0.790000 0.020000 1.940000
v 0.810000 0.110000 1.890000
v 0.830000 0.110000 1.900000
v 0.820000 0.120000 1.930000
v 0.800000 0.110000 1.920000
v 0.790000 0.080000 1.900000
v 0.780000 0.100000 1.920000
v 0.770000 0.080000 1.930000
v 0.780000 0.060000 1.900000
v 0.850000 0.110000 1.910000
v 0.860000 0.100000 1.920000
v 0.840000 0.110000 1.950000
v 0.840000 0.110000 1.940000
v 0.780000 0.040000 1.920000
v 0.770000 0.060000 1.940000
v 0.780000 0.050000 1.950000
v 0.790000 0.030000 1.930000
v 0.800000 0.100000 1.890000
v 0.790000 0.110000 1.920000
v 0.790000 0.070000 1.970000
v 0.800000 0.070000 1.970000
v 0.810000 0.070000 1.980000
v 0.820000 0.070000 1.980000
v 0.820000 0.100000 1.960000
v 0.830000 0.090000 1.970000
v 0.830000 0.100000 1.970000
v 0.790000 0.090000 1.950000
v 0.780000 0.080000 1.950000
v 0.810000 0.100000 1.950000
v 0.790000 0.100000 1.950000
v 0.780000 0.080000 1.960000
v 0.790000 0.070000 1.960000
v 0.820000 0.080000 1.980000
v 0.800000 0.100000 1.950000
v 0.880000 0.070000 1.910000
v 0.840000 0.010000 1.930000
v 0.860000 0.020000 1.930000
v 0.870000 0.030000 1.930000
v 0.810000 0.010000 1.910000
v 0.830000 0.010000 1.920000
v 0.820000 0.080000 1.870000
v 0.840000 0.090000 1.880000
v 0.800000 0.050000 1.880000
v 0.800000 0.070000 1.870000
v 0.860000 0.080000 1.890000
v 0.870000 0.080000 1.900000
v 0.800000 0.020000 1.900000
v 0.800000 0.030000 1.890000
v 0.810000 0.080000 1.870000
v 0.840000 0.020000 1.900000
v 0.830000 0.020000 1.890000
v 0.850000 0.030000 1.900000
v 0.850000 0.020000 1.900000
v 0.850000 0.060000 1.880000
v 0.860000 0.050000 1.890000
v 0.860000 0.040000 1.900000
v 0.820000 0.040000 1.880000
v 0.820000 0.050000 1.870000
v 0.840000 0.060000 1.880000
v 0.830000 0.050000 1.870000
v 0.820000 0.030000 1.890000
v 0.820000 0.030000 1.880000
v 0.860000 0.030000 1.900000
v 0.830000 0.060000 1.870000
vn 0.9561 -0.2732 0.1062
vn 0.9561 0.2732 0.1062
vn -0.2734 0.9568 0.0985
vn -0.9572 0.2735 0.0946
vn 0.2666 -0.9584 0.1018
vn 0.2666 0.9584 0.1018
vn -0.9572 -0.2735 0.0946
vn -0.2734 -0.9568 0.0985
vn -0.7672 -0.5026 0.3985
vn 0.4860 0.7418 0.4620
vn -0.2454 -0.8588 0.4498
vn -0.3270 -0.8584 0.3952
vn -0.2540 0.8890 0.3810
vn -0.3197 0.8393 0.4396
vn -0.8890 -0.2540 0.3810
vn -0.8393 -0.3197 0.4396
vn -0.8584 0.3270 0.3952
vn -0.8588 0.2454 0.4498
vn 0.3293 0.8645 0.3798
vn 0.2148 0.8652 0.4532
vn 0.8948 0.2557 0.3661
vn 0.8466 0.3225 0.4233
vn 0.8645 -0.3293 0.3798
vn 0.8666 -0.2476 0.4333
vn 0.3197 -0.8393 0.4396
vn 0.2322 -0.9031 0.3612
vn -0.2063 0.7972 0.5674
vn -0.2063 -0.7972 0.5674
vn 0.3746 0.6556 0.6556
vn 0.4033 0.6600 0.6338
vn 0.4103 -0.6448 0.6448
vn 0.3643 -0.6789 0.6375
vn 0.5774 0.5774 0.5774
vn 0.5774 -0.5774 0.5774
vn 0.2433 0.4645 0.8515
vn 0.2433 -0.4645 0.8515
vn -0.8752 0.1013 0.4729
vn 0.1013 -0.8752 0.4729
vn 0.1963 -0.3491 0.9163
vn -0.3491 0.1963 0.9163
vn 0.4729 -0.1576 0.8669
vn -0.3085 -0.0000 0.9512
vn 0.0499 -0.9975 0.0499
vn 0.0808 -0.9967 -0.0000
vn 0.0610 0.9963 0.0610
vn 0.0696 0.9976 -0.0000
vn -0.4527 0.1509 0.8788
vn -0.3415 0.3218 0.8831
vn -0.6199 -0.7678 -0.1620
vn -0.4018 -0.8228 -0.4018
vn 0.6389 0.7366 0.2219
vn 0.5253 0.7399 0.4202
vn -0.2425 -0.0000 0.9701
vn -0.2988 -0.1707 0.9389
vn -0.1330 -0.1773 0.9751
vn -0.4851 0.7276 -0.4851
vn -0.7619 0.5715 -0.3048
vn 0.8944 -0.4472 -0.0000
vn 0.7809 -0.0000 0.6247
vn 0.8320 0.5547 -0.0000
vn 0.5834 0.7779 0.2334
vn 0.3677 -0.0000 -0.9300
vn 0.5639 -0.1880 -0.8041
vn 0.5237 -0.2262 -0.8213
vn 0.4472 -0.0000 -0.8944
vn -0.0300 0.5405 -0.8408
vn -0.7071 -0.0000 0.7071
vn 0.2474 -0.2969 0.9223
vn 0.2679 -0.2679 0.9255
vn -0.7710 -0.6369 -0.0000
vn -0.7775 -0.6255 -0.0643
vn 0.6690 0.7433 -0.0000
vn 0.6811 0.7319 0.0203
vn 0.5441 -0.2609 0.7975
vn 0.5547 -0.0000 0.8321
vn -0.3592 -0.8566 -0.3703
vn -0.0990 -0.9901 0.0990
vn 0.3058 0.8654 0.3969
vn -0.0525 0.9972 0.0525
vn 0.3665 -0.3665 0.8552
vn -0.0000 -0.4961 0.8682
vn 0.3570 -0.3845 0.8513
vn 0.9352 0.0652 -0.3480
vn 0.9594 -0.1693 -0.2257
vn -0.8575 0.5145 -0.0000
vn -0.3034 0.7586 0.5766
vn -0.4472 0.8944 -0.0000
vn -0.0000 0.9806 0.1961
vn -0.3201 0.3841 -0.8661
vn -0.2757 0.4136 -0.8677
vn -0.6292 -0.0000 -0.7772
vn -0.6393 0.1911 -0.7448
vn -0.2744 0.4116 -0.8690
vn -0.2016 0.5039 -0.8399
vn 0.1690 0.5071 -0.8452
vn -0.4230 -0.8718 0.2470
vn 0.4206 -0.8720 0.2503
vn 0.8703 -0.4222 0.2536
vn -0.4147 0.8725 0.2584
vn -0.8718 0.4230 0.2470
vn -0.8718 -0.4230 0.2470
vn 0.4121 0.8727 0.2619
vn -0.3613 -0.8303 -0.4244
vn 0.3592 -0.8329 -0.4210
vn 0.8329 0.3592 -0.4210
vn -0.8165 -0.3637 -0.4484
vn 0.3592 0.8329 -0.4210
vn -0.3613 0.8303 -0.4244
vn -0.8165 0.3637 -0.4484
vn 0.1760 -0.3656 -0.9140
vn 0.3656 -0.1760 -0.9140
vn -0.3656 -0.1760 -0.9140
vn -0.1760 -0.3656 -0.9140
vn 0.3656 0.1760 -0.9140
vn 0.1760 0.3656 -0.9140
vn -0.1760 0.3656 -0.9140
vn -0.3656 0.1760 -0.9140
vn 0.8329 -0.3592 -0.4210
vn 0.8703 0.4222 0.2536
vn -0.5398 0.8397 -0.0600
vn -0.5993 -0.0499 0.7990
vn -0.7253 0.6594 0.1978
vn 0.4264 -0.6396 0.6396
vn 0.8452 -0.5071 -0.1690
vn 0.3094 0.9283 0.2063
vn 0.5455 0.8182 0.1818
vn 0.1048 0.9435 0.3145
vn 0.7071 -0.0000 0.7071
vn 0.8944 0.4472 -0.0000
vn -0.3974 0.4586 0.7948
vn -0.1054 0.5270 0.8433
vn -0.0000 0.7071 0.7071
vn 1.0000 -0.0000 -0.0000
vn 0.8018 -0.2673 -0.5345
vn -0.9503 0.2592 0.1728
vn -0.8433 0.5270 0.1054
vn -0.8847 0.1474 -0.4423
vn -0.4423 -0.8847 -0.1474
vn -0.4472 -0.0000 -0.8944
vn 0.3651 0.9129 0.1826
vn 0.2683 -0.3578 0.8944
vn 0.2182 0.4364 0.8729
vn 0.1204 0.2408 -0.9631
vn 0.7071 0.7071 -0.0000
vn 0.7845 -0.1961 -0.5883
vn 0.6965 -0.3980 0.5970
vn 0.7276 -0.4851 -0.4851
vn 0.7845 0.1961 -0.5883
vn 0.7454 -0.5963 0.2981
vn 0.6965 0.3980 0.5970
vn 0.7071 -0.0000 -0.7071
vn -0.1455 -0.1940 -0.9701
vn -0.1562 0.3123 -0.9370
vn -0.2308 -0.9231 0.3077
vn -0.2683 -0.3578 0.8944
vn -0.2673 0.5345 0.8018
vn -0.2182 -0.8729 -0.4364
vn -0.3333 0.6667 0.6667
vn -0.1204 0.2408 -0.9631
vn -0.2182 -0.4364 0.8729
vn -0.7071 0.7071 -0.0000
vn -0.7804 0.5203 -0.3468
vn -0.7276 -0.4851 -0.4851
vn -0.6965 0.3980 0.5970
vn -0.7276 0.4851 0.4851
vn -0.7071 -0.0000 -0.7071
vn -0.7301 -0.3319 -0.5974
vn -0.6667 -0.3333 -0.6667
vn 0.3244 0.4867 0.8111
vn -0.8642 -0.3143 0.3928
vn -0.4472 -0.0000 0.8944
vn 0.3333 0.6667 -0.6667
vn -0.9407 0.2822 0.1881
vn -0.3810 0.8890 -0.2540
vn -0.5773 0.5774 -0.5774
vn -0.1162 0.9300 -0.3487
vn -0.2357 0.9428 -0.2357
vn -0.2981 0.5963 0.7454
vn 0.2425 -0.0000 -0.9701
vn -0.4256 -0.6810 -0.5959
vn 0.8979 0.3848 0.2138
vn -0.0851 -0.3405 0.9364
vn -0.1111 -0.4444 0.8889
vn -0.0605 -0.2421 -0.9684
vn 0.3015 -0.9045 -0.3015
vn 0.9503 -0.2592 -0.1728
vn 0.5774 -0.5773 0.5773
vn 0.3468 -0.7804 -0.5203
vn 0.9503 -0.2592 0.1728
vn 0.1302 -0.9113 -0.3906
vn 0.4851 -0.4851 0.7276
vn 0.7715 -0.6172 0.1543
vn -0.1361 0.9526 -0.2722
vn 0.0874 0.2621 0.9611
vn 0.0874 0.2621 -0.9611
vn 0.4216 -0.5270 0.7379
vn 0.5970 -0.3980 -0.6965
vn 0.6882 0.6882 -0.2294
vn 0.8944 -0.0000 -0.4472
vn 0.8018 0.2673 -0.5345
vn 0.8018 0.2673 0.5345
vn 0.8165 0.4083 -0.4083
vn 0.7276 0.4851 0.4851
vn -0.0976 -0.1952 -0.9759
vn 0.0851 -0.9364 -0.3405
vn -0.0000 -0.8944 -0.4472
vn 0.1231 -0.8616 0.4924
vn -0.2075 0.1383 0.9684
vn 0.2294 -0.6882 0.6882
vn -0.4472 -0.8944 -0.0000
vn -0.5774 -0.5773 -0.5773
vn -0.9526 0.2722 0.1361
vn -0.8242 -0.1374 0.5494
vn -0.5270 -0.8433 0.1054
vn 0.9002 0.4356 -0.0000
vn -0.8246 -0.2910 -0.4851
vn -0.2981 0.5963 -0.7454
vn -0.5963 0.2981 -0.7454
vn 0.1383 -0.9684 0.2075
vn 0.8018 -0.2673 0.5345
vn -0.5494 -0.8242 -0.1374
vn 0.7845 0.5884 -0.1961
vn -0.2741 -0.9593 0.0685
vn 0.4286 -0.8571 0.2857
vn 0.9428 0.2357 0.2357
vn 0.7804 -0.3468 0.5203
vn -0.6172 -0.7715 -0.1543
vn 0.3145 0.1048 -0.9435
vn 0.5523 0.0921 -0.8285
vn 0.6965 -0.5970 -0.3980
vn 0.6202 0.2481 -0.7442
vn 0.9045 -0.3015 -0.3015
vn 0.4083 -0.8165 -0.4082
vn -0.4082 0.8165 -0.4082
vn -0.6396 0.6396 -0.4264
vn 0.2425 0.9701 -0.0000
vn -0.6965 -0.5970 0.3980
vn -0.7845 -0.5883 0.1961
vn 0.3841 0.5121 0.7682
vn 0.4066 -0.5630 -0.7195
vn -0.0000 -0.0000 1.0000
vn 0.3015 0.3015 0.9045
vn 0.2481 0.6202 0.7442
vn -0.5270 -0.1054 0.8433
vn -0.4286 0.8571 0.2857
s 0
usemtl tex_32767
f 1//1 2//1 3//1
f 1//2 3//2 4//2
f 1//3 5//3 6//3
f 1//4 6//4 7//4
f 1//5 8//5 2//5
f 1//6 4//6 5//6
f 1//7 7//7 9//7
f 1//8 9//8 8//8
f 51//9 52//9 53//9
f 51//10 53//10 54//10
f 9//11 55//11 8//11
f 9//12 56//12 55//12
f 5//13 57//13 6//13
f 5//14 58//14 57//14
f 7//15 56//15 9//15
f 7//16 59//16 56//16
f 59//17 6//17 57//17
f 59//18 7//18 6//18
f 58//19 4//19 60//19
f 58//20 5//20 4//20
f 3//21 60//21 4//21
f 3//22 61//22 60//22
f 61//23 2//23 62//23
f 61//24 3//24 2//24
f 62//25 8//25 55//25
f 62//26 2//26 8//26
f 63//27 64//27 65//27
f 63//27 66//27 64//27
f 65//28 67//28 68//28
f 65//28 64//28 67//28
f 63//29 69//29 70//29
f 63//30 65//30 69//30
f 65//31 71//31 69//31
f 65//32 68//32 71//32
f 72//33 70//33 69//33
f 71//34 72//34 69//34
f 73//35 70//35 72//35
f 73//36 72//36 71//36
f 74//37 75//37 9//37
f 76//38 9//38 75//38
f 75//39 77//39 76//39
f 74//40 77//40 75//40
f 78//41 79//41 80//41
f 78//41 81//41 79//41
f 82//42 83//42 84//42
f 82//42 85//42 83//42
f 84//43 86//43 87//43
f 84//44 83//44 86//44
f 88//45 85//45 82//45
f 88//46 89//46 85//46
f 80//47 84//47 78//47
f 80//48 90//48 84//48
f 78//49 87//49 81//49
f 78//50 84//50 87//50
f 79//51 90//51 80//51
f 79//52 91//52 90//52
f 90//53 82//53 84//53
f 90//54 92//54 82//54
f 90//55 93//55 92//55
f 92//56 88//56 82//56
f 94//57 88//57 92//57
f 90//58 95//58 93//58
f 90//59 91//59 95//59
f 94//60 93//60 95//60
f 94//61 92//61 93//61
f 87//62 89//62 88//62
f 87//62 86//62 89//62
f 81//63 91//63 79//63
f 81//64 87//64 91//64
f 91//65 87//65 88//65
f 88//65 95//65 91//65
f 95//66 88//66 94//66
f 96//67 97//67 98//67
f 99//67 97//67 96//67
f 100//68 101//68 102//68
f 100//69 103//69 101//69
f 102//70 104//70 105//70
f 102//71 101//71 104//71
f 106//72 103//72 100//72
f 106//73 107//73 103//73
f 108//74 97//74 101//74
f 108//75 98//75 97//75
f 101//76 99//76 104//76
f 101//77 97//77 99//77
f 109//78 98//78 108//78
f 109//79 96//79 98//79
f 103//80 108//80 101//80
f 110//81 103//81 111//81
f 110//82 108//82 103//82
f 107//83 111//83 103//83
f 107//84 112//84 111//84
f 113//85 108//85 110//85
f 109//86 108//86 113//86
f 110//87 112//87 113//87
f 111//88 112//88 110//88
f 105//89 107//89 106//89
f 105//90 104//90 107//90
f 109//91 99//91 96//91
f 104//92 99//92 109//92
f 104//93 109//93 107//93
f 113//94 107//94 109//94
f 107//95 113//95 112//95
usemtl tex_65
f 10//96 11//96 12//96 13//96
f 14//97 15//97 11//97 10//97
f 16//98 17//98 15//98 14//98
f 18//99 19//99 20//99 21//99
f 22//100 23//100 19//100 18//100
f 13//101 12//101 23//101 22//101
f 21//102 20//102 24//102 25//102
f 26//103 27//103 28//103 29//103
f 30//104 31//104 27//104 26//104
f 32//105 33//105 34//105 35//105
f 29//106 28//106 36//106 37//106
f 38//107 39//107 33//107 32//107
f 40//108 41//108 39//108 38//108
f 37//109 36//109 41//109 40//109
f 42//110 43//110 44//110
f 44//111 43//111 45//111
f 46//112 43//112 47//112
f 47//113 43//113 42//113
f 45//114 43//114 48//114
f 48//115 43//115 49//115
f 49//116 43//116 50//116
f 50//117 43//117 46//117
f 35//118 34//118 31//118 30//118
f 25//119 24//119 17//119 16//119
usemtl rsc_b01820
f 120//120 121//120 122//120 123//120
f 126//121 127//121 128//121 129//121
f 134//122 135//122 136//122 137//122
f 124//123 130//123 133//123 125//123
f 132//124 131//124 115//124 114//124
f 121//125 120//125 138//125 139//125
f 118//126 117//126 140//126 141//126
f 117//127 121//127 139//127 140//127
f 133//128 132//128 142//128
f 132//129 114//129 143//129 142//129
f 413//130 416//130 415//130 426//130 419//130 418//130 417//130 422//130 427//130 423//130 421//130 420//130 425//130 424//130 414//130
f 135//131 128//131 144//131 145//131
f 120//132 136//132 145//132 138//132
f 141//133 119//133 118//133
f 146//134 147//134 116//134 115//134
f 134//135 137//135 154//135 155//135
f 154//136 137//136 123//136 151//136
f 148//137 159//137 157//137 152//137
f 153//138 160//138 161//138 156//138
f 149//139 150//139 158//139
f 170//140 171//140 172//140 173//140
f 177//141 178//141 179//141 180//141
f 180//142 179//142 185//142 184//142
f 165//143 164//143 169//143 168//143
f 171//144 170//144 189//144 190//144
f 162//145 165//145 194//145 195//145
f 179//146 178//146 196//146 197//146
f 183//147 182//147 193//147
f 165//148 168//148 192//148 194//148
f 188//149 176//149 201//149 199//149
f 185//150 179//150 197//150 200//150
f 192//151 168//151 166//151
f 202//152 203//152 164//152 163//152
f 206//153 205//153 167//153 169//153
f 174//154 209//154 210//154 175//154
f 177//155 180//155 211//155 212//155
f 184//156 186//156 215//156 216//156
f 175//157 210//157 213//157 181//157
f 215//158 186//158 173//158 207//158
f 203//159 206//159 169//159 164//159
f 187//160 177//160 212//160 217//160
f 208//161 218//161 219//161 207//161
f 205//162 220//162 221//162 204//162
f 198//133 193//133 195//133 194//133 192//133 191//133 190//133 189//133 200//133 197//133 196//133 199//133 201//133
f 222//163 214//163 213//163
f 216//164 224//164 223//164 211//164
f 216//165 215//165 224//165
f 205//166 206//166 220//166
f 229//167 230//167 231//167 232//167
f 233//168 234//168 231//168 230//168
f 252//169 238//169 241//169 253//169
f 250//170 235//170 237//170 251//170
f 244//171 243//171 249//171 248//171
f 246//172 245//172 226//172 225//172
f 229//173 236//173 254//173 255//173
f 247//174 246//174 256//174 257//174
f 225//175 228//175 258//175 259//175
f 246//176 225//176 259//176 256//176
f 240//177 247//177 257//177 261//177
f 242//13 253//13 262//13 260//13
f 250//178 249//178 263//178 264//178
f 265//179 266//179 227//179 226//179
f 267//180 232//180 231//180 268//180
f 238//181 270//181 271//181 239//181
f 248//182 251//182 275//182 276//182
f 244//183 248//183 276//183 272//183
f 266//184 269//184 234//184 227//184
f 268//185 278//185 279//185 267//185
f 271//186 283//186 280//186 274//186
f 273//187 282//187 284//187 277//187
f 266//188 281//188 286//188 269//188
f 270//189 287//189 283//189 271//189
f 269//190 286//190 278//190 268//190
f 276//191 275//191 285//191
f 300//192 301//192 302//192 303//192
f 298//193 292//193 294//193 299//193
f 307//194 306//194 313//194 312//194
f 291//195 290//195 296//195 295//195
f 315//196 316//196 305//196 304//196
f 310//197 309//197 289//197 288//197
f 293//198 292//198 319//198 320//198
f 311//199 310//199 321//199 322//199
f 302//58 311//58 322//58 326//58
f 310//200 288//200 321//200
f 305//201 316//201 324//201
f 295//202 293//202 320//202 328//202
f 314//203 317//203 297//203
f 330//204 331//204 290//204 289//204
f 308//205 337//205 338//205 309//205
f 301//206 334//206 337//206 308//206
f 315//207 341//207 333//207 300//207
f 307//208 312//208 340//208 335//208
f 315//209 304//209 336//209 341//209
f 337//210 343//210 344//210 338//210
f 330//211 345//211 346//211 331//211
f 338//168 344//168 345//168 330//168
f 339//212 348//212 349//212 340//212
f 332//213 342//213 348//213 339//213
f 333//214 350//214 347//214 334//214
f 321//215 323//215 328//215 320//215 319//215 318//215 317//215 327//215 325//215 324//215 329//215 326//215 322//215
f 351//216 352//216 353//216 354//216
f 355//217 356//217 357//217 358//217
f 359//218 360//218 357//218 356//218
f 365//219 366//219 367//219 368//219
f 369//220 370//220 371//220 372//220
f 373//221 374//221 375//221 376//221
f 377//222 378//222 379//222 380//222
f 366//223 373//223 376//223 367//223
f 381//224 365//224 368//224 382//224
f 379//225 361//225 364//225 380//225
f 381//226 382//226 370//226 369//226
f 375//227 374//227 352//227 351//227
f 362//228 361//228 383//228 384//228
f 355//229 362//229 384//229 385//229
f 371//230 370//230 390//230 391//230
f 375//206 351//206 389//206 387//206
f 379//231 378//231 394//231 395//231
f 378//232 371//232 391//232 394//232
f 368//233 367//233 392//233 397//233
f 399//234 358//234 357//234 400//234
f 401//235 400//235 357//235 360//235
f 402//236 364//236 363//236 403//236
f 373//237 408//237 409//237 374//237
f 409//238 398//238 352//238 374//238
f 408//67 417//67 418//67 409//67
f 406//239 420//239 421//239 407//239
f 388//240 396//240 386//240 385//240 384//240 383//240 395//240 394//240 391//240 390//240 393//240 397//240 392//240 387//240 389//240
f 412//241 423//241 427//241 404//241
f 411//242 425//242 420//242 406//242
f 402//243 414//243 424//243 410//243
f 404//244 427//244 422//244 405//244
f 401//245 426//245 415//245 400//245
