# Blender 4.0.2
# www.blender.org
mtllib 1_seedling.mtl
o rose_1_seedling
v 0.000000 -0.100000 0.000000
v 0.000000 -0.100000 0.020000
v -0.058779 -0.080902 0.000000
v -0.058779 -0.080902 0.020000
v -0.095106 -0.030902 0.000000
v -0.095106 -0.030902 0.020000
v -0.095106 0.030902 0.000000
v -0.095106 0.030902 0.020000
v -0.058779 0.080902 0.000000
v -0.058779 0.080902 0.020000
v 0.000000 0.100000 0.000000
v 0.000000 0.100000 0.020000
v 0.058779 0.080902 0.000000
v 0.058779 0.080902 0.020000
v 0.095106 0.030902 0.000000
v 0.095106 0.030902 0.020000
v 0.095106 -0.030902 0.000000
v 0.095106 -0.030902 0.020000
v 0.058779 -0.080902 0.000000
v 0.058779 -0.080902 0.020000
v -0.014400 -0.001151 0.027894
v -0.032924 0.002254 0.027546
v -0.007325 0.003964 0.026611
v 0.008497 -0.000515 0.029058
v -0.007325 -0.004994 0.031505
v -0.032924 -0.003283 0.030570
v -0.021475 0.004994 0.028495
v 0.004124 0.003283 0.029430
v 0.004124 -0.002254 0.032454
v -0.021475 -0.003964 0.033389
v -0.037297 0.000515 0.030942
v -0.014400 0.001151 0.032106
v 0.014400 0.001151 0.027894
v 0.032924 -0.002254 0.027546
v 0.007325 -0.003964 0.026611
v -0.008497 0.000515 0.029058
v 0.007325 0.004994 0.031505
v 0.032924 0.003283 0.030570
v 0.021475 -0.004994 0.028495
v -0.004124 -0.003283 0.029430
v -0.004124 0.002254 0.032454
v 0.021475 0.003964 0.033389
v 0.037297 -0.000515 0.030942
v 0.014400 -0.001151 0.032106
vn -0.3090 -0.9511 -0.0000
vn -0.8090 -0.5878 -0.0000
vn -1.0000 -0.0000 -0.0000
vn -0.8090 0.5878 -0.0000
vn -0.3090 0.9511 -0.0000
vn 0.3090 0.9511 -0.0000
vn 0.8090 0.5878 -0.0000
vn 1.0000 -0.0000 -0.0000
vn -0.0000 -0.0000 1.0000
vn 0.8090 -0.5878 -0.0000
vn 0.3090 -0.9511 -0.0000
vn -0.0000 -0.0000 -1.0000
vn -0.0212 -0.2154 -0.9763
vn -0.0714 -0.4782 -0.8753
vn 0.0569 -0.3162 -0.9470
vn 0.0569 -0.6260 -0.7777
vn -0.0212 -0.7051 -0.7088
vn -0.4406 -0.4304 -0.7878
vn -0.0679 0.5679 -0.8203
vn 0.2429 0.3676 -0.8977
vn 0.2429 -0.9540 -0.1757
vn -0.0679 -0.9971 0.0347
vn -0.2429 0.9540 0.1757
vn 0.0679 0.9971 -0.0347
vn 0.4406 0.4304 0.7878
vn 0.0679 -0.5679 0.8203
vn -0.2429 -0.3676 0.8977
vn -0.0569 0.6260 0.7777
vn 0.0212 0.7051 0.7088
vn 0.0714 0.4782 0.8753
vn 0.0212 0.2154 0.9763
vn -0.0569 0.3162 0.9470
vn 0.0212 0.2154 -0.9763
vn 0.0714 0.4782 -0.8753
vn -0.0569 0.3162 -0.9470
vn -0.0569 0.6260 -0.7777
vn 0.0212 0.7051 -0.7088
vn 0.4406 0.4304 -0.7878
vn 0.0679 -0.5679 -0.8203
vn -0.2429 -0.3676 -0.8977
vn -0.2429 0.9540 -0.1757
vn 0.0679 0.9971 0.0347
vn 0.2429 -0.9540 0.1757
vn -0.0679 -0.9971 -0.0347
vn -0.4406 -0.4304 0.7878
vn -0.0679 0.5679 0.8203
vn 0.2429 0.3676 0.8977
vn 0.0569 -0.6260 0.7777
vn -0.0212 -0.7051 0.7088
vn -0.0714 -0.4782 0.8753
vn -0.0212 -0.2154 0.9763
vn 0.0569 -0.3162 0.9470
vt 1.000000 0.500000
vt 1.000000 1.000000
vt 0.900000 1.000000
vt 0.900000 0.500000
vt 0.800000 1.000000
vt 0.800000 0.500000
vt 0.700000 1.000000
vt 0.700000 0.500000
vt 0.600000 1.000000
vt 0.600000 0.500000
vt 0.500000 1.000000
vt 0.500000 0.500000
vt 0.400000 1.000000
vt 0.400000 0.500000
vt 0.300000 1.000000
vt 0.300000 0.500000
vt 0.200000 1.000000
vt 0.200000 0.500000
vt 0.391068 0.444164
vt 0.250000 0.490000
vt 0.108932 0.444164
vt 0.021746 0.324164
vt 0.021746 0.175836
vt 0.108932 0.055836
vt 0.250000 0.010000
vt 0.391068 0.055836
vt 0.478254 0.175836
vt 0.478254 0.324164
vt 0.100000 1.000000
vt 0.100000 0.500000
vt -0.000000 1.000000
vt -0.000000 0.500000
vt 0.750000 0.490000
vt 0.891068 0.444164
vt 0.978254 0.324164
vt 0.978254 0.175836
vt 0.891068 0.055836
vt 0.750000 0.010000
vt 0.608932 0.055836
vt 0.521746 0.175836
vt 0.521746 0.324164
vt 0.608932 0.444164
vt 0.181819 0.000000
vt 0.272728 0.157461
vt 0.090910 0.157461
vt 0.363637 0.000000
vt 0.454546 0.157461
vt 0.909091 0.000000
vt 1.000000 0.157461
vt 0.818182 0.157461
vt 0.727273 0.000000
vt 0.636364 0.157461
vt 0.545455 0.000000
vt 0.363637 0.314921
vt 0.181819 0.314921
vt 0.909091 0.314921
vt 0.727273 0.314921
vt 0.545455 0.314921
vt 0.000000 0.314921
vt 0.272728 0.472382
vt 0.090910 0.472382
vt 0.818182 0.472382
vt 0.636364 0.472382
vt 0.454546 0.472382
s 0
usemtl soil
f 1/1/1 2/2/1 4/3/1 3/4/1
f 3/4/2 4/3/2 6/5/2 5/6/2
f 5/6/3 6/5/3 8/7/3 7/8/3
f 7/8/4 8/7/4 10/9/4 9/10/4
f 9/10/5 10/9/5 12/11/5 11/12/5
f 11/12/6 12/11/6 14/13/6 13/14/6
f 13/14/7 14/13/7 16/15/7 15/16/7
f 15/16/8 16/15/8 18/17/8 17/18/8
f 4/19/9 2/20/9 20/21/9 18/22/9 16/23/9 14/24/9 12/25/9 10/26/9 8/27/9 6/28/9
f 17/18/10 18/17/10 20/29/10 19/30/10
f 19/30/11 20/29/11 2/31/11 1/32/11
f 1/33/12 3/34/12 5/35/12 7/36/12 9/37/12 11/38/12 13/39/12 15/40/12 17/41/12 19/42/12
usemtl leaf
f 21/43/13 22/44/13 23/45/13
f 22/44/14 21/46/14 26/47/14
f 21/48/15 23/49/15 24/50/15
f 21/51/16 24/50/16 25/52/16
f 21/53/17 25/52/17 26/47/17
f 22/44/18 26/47/18 31/54/18
f 23/45/19 22/44/19 27/55/19
f 24/50/20 23/49/20 28/56/20
f 25/52/21 24/50/21 29/57/21
f 26/47/22 25/52/22 30/58/22
f 22/44/23 31/54/23 27/55/23
f 23/45/24 27/55/24 28/59/24
f 24/50/25 28/56/25 29/57/25
f 25/52/26 29/57/26 30/58/26
f 26/47/27 30/58/27 31/54/27
f 27/55/28 31/54/28 32/60/28
f 28/59/29 27/55/29 32/61/29
f 29/57/30 28/56/30 32/62/30
f 30/58/31 29/57/31 32/63/31
f 31/54/32 30/58/32 32/64/32
f 33/43/33 34/44/33 35/45/33
f 34/44/34 33/46/34 38/47/34
f 33/48/35 35/49/35 36/50/35
f 33/51/36 36/50/36 37/52/36
f 33/53/37 37/52/37 38/47/37
f 34/44/38 38/47/38 43/54/38
f 35/45/39 34/44/39 39/55/39
f 36/50/40 35/49/40 40/56/40
f 37/52/41 36/50/41 41/57/41
f 38/47/42 37/52/42 42/58/42
f 34/44/43 43/54/43 39/55/43
f 35/45/44 39/55/44 40/59/44
f 36/50/45 40/56/45 41/57/45
f 37/52/46 41/57/46 42/58/46
f 38/47/47 42/58/47 43/54/47
f 39/55/48 43/54/48 44/60/48
f 40/59/49 39/55/49 44/61/49
f 41/57/50 40/56/50 44/62/50
f 42/58/51 41/57/51 44/63/51
f 43/54/52 42/58/52 44/64/52
