# Blender 4.0.2
# www.blender.org
mtllib 4_mature.mtl
o rose_4_mature
v 0.000000 -0.100000 0.000000
v 0.000000 -0.100000 0.020000
v -0.058779 -0.080902 0.000000
v -0.058779 -0.080902 0.020000
v -0.095106 -0.030902 0.000000
v -0.095106 -0.030902 0.020000
v -0.095106 0.030902 0.000000
v -0.095106 0.030902 0.020000
v -0.058779 0.080902 0.000000
v -0.058779 0.080902 0.020000
v 0.000000 0.100000 0.000000
v 0.000000 0.100000 0.020000
v 0.058779 0.080902 0.000000
v 0.058779 0.080902 0.020000
v 0.095106 0.030902 0.000000
v 0.095106 0.030902 0.020000
v 0.095106 -0.030902 0.000000
v 0.095106 -0.030902 0.020000
v 0.058779 -0.080902 0.000000
v 0.058779 -0.080902 0.020000
v 0.000000 -0.010000 0.020000
v 0.000000 -0.010000 0.420000
v -0.009511 -0.003090 0.020000
v -0.009511 -0.003090 0.420000
v -0.005878 0.008090 0.020000
v -0.005878 0.008090 0.420000
v 0.005878 0.008090 0.020000
v 0.005878 0.008090 0.420000
v 0.009511 -0.003090 0.020000
v 0.009511 -0.003090 0.420000
v -0.019820 -0.093317 0.029064
v -0.082509 -0.030628 0.315665
v -0.028934 -0.094963 0.027430
v -0.091623 -0.032274 0.314031
v -0.032921 -0.086866 0.024787
v -0.095610 -0.024177 0.311388
v -0.026271 -0.080216 0.024787
v -0.088960 -0.017527 0.311388
v -0.018174 -0.084203 0.027430
v -0.080863 -0.021514 0.314031
v 0.095407 -0.017730 0.029510
v 0.028538 -0.084599 0.335218
v 0.097053 -0.026844 0.027877
v 0.030184 -0.093713 0.333584
v 0.088956 -0.030831 0.025234
v 0.022087 -0.097700 0.330941
v 0.082306 -0.024181 0.025234
v 0.015437 -0.091050 0.330941
v 0.086293 -0.016084 0.027877
v 0.019424 -0.082953 0.333584
v -0.036000 -0.003388 0.055048
v -0.082310 0.006078 0.052591
v -0.018311 0.010771 0.049380
v 0.021243 -0.001515 0.057785
v -0.018311 -0.013801 0.066191
v -0.082310 -0.009108 0.062980
v -0.053689 0.013801 0.053809
v 0.010310 0.009108 0.057020
v 0.010310 -0.006078 0.067409
v -0.053689 -0.010771 0.070620
v -0.093243 0.001515 0.062215
v -0.036000 0.003388 0.064952
v 0.003388 -0.036000 0.055048
v -0.006078 -0.082310 0.052591
v -0.010771 -0.018311 0.049380
v 0.001515 0.021243 0.057785
v 0.013801 -0.018311 0.066191
v 0.009108 -0.082310 0.062980
v -0.013801 -0.053689 0.053809
v -0.009108 0.010310 0.057020
v 0.006078 0.010310 0.067409
v 0.010771 -0.053689 0.070620
v -0.001515 -0.093243 0.062215
v -0.003388 -0.036000 0.064952
v 0.036000 0.003388 0.055048
v 0.082310 -0.006078 0.052591
v 0.018311 -0.010771 0.049380
v -0.021243 0.001515 0.057785
v 0.018311 0.013801 0.066191
v 0.082310 0.009108 0.062980
v 0.053689 -0.013801 0.053809
v -0.010310 -0.009108 0.057020
v -0.010310 0.006078 0.067409
v 0.053689 0.010771 0.070620
v 0.093243 -0.001515 0.062215
v 0.036000 -0.003388 0.064952
v -0.003388 0.036000 0.055048
v 0.006078 0.082310 0.052591
v 0.010771 0.018311 0.049380
v -0.001515 -0.021243 0.057785
v -0.013801 0.018311 0.066191
v -0.009108 0.082310 0.062980
v 0.013801 0.053689 0.053809
v 0.009108 -0.010310 0.057020
v -0.006078 -0.010310 0.067409
v -0.010771 0.053689 0.070620
v 0.001515 0.093243 0.062215
v 0.003388 0.036000 0.064952
v -0.017853 -0.020331 0.195855
v -0.047377 -0.039926 0.195587
v -0.016082 -0.003340 0.194006
v 0.011820 0.010712 0.198146
v -0.002232 -0.017190 0.202287
v -0.038818 -0.048486 0.200705
v -0.035952 -0.020993 0.197713
v 0.000634 0.010302 0.199295
v 0.009194 0.001742 0.204413
v -0.022102 -0.034844 0.205994
v -0.050004 -0.048896 0.201854
v -0.020331 -0.017853 0.204145
v 0.017853 0.020331 0.195855
v 0.047377 0.039926 0.195587
v 0.016082 0.003340 0.194006
v -0.011820 -0.010712 0.198146
v 0.002232 0.017190 0.202287
v 0.038818 0.048486 0.200705
v 0.035952 0.020993 0.197713
v -0.000634 -0.010302 0.199295
v -0.009194 -0.001742 0.204413
v 0.022102 0.034844 0.205994
v 0.050004 0.048896 0.201854
v 0.020331 0.017853 0.204145
v -0.014000 -0.001034 0.438725
v -0.032995 0.007071 0.438243
v -0.006745 0.011727 0.436803
v 0.009479 -0.000463 0.440573
v -0.006745 -0.012652 0.444344
v -0.032995 -0.007996 0.442904
v -0.021255 0.012652 0.439793
v 0.004994 0.007996 0.441234
v 0.004994 -0.007071 0.445894
v -0.021255 -0.011727 0.447335
v -0.037479 0.000463 0.443564
v -0.014000 0.001034 0.445412
v -0.003343 -0.013634 0.438725
v -0.016921 -0.029195 0.438243
v -0.013237 -0.002791 0.436803
v 0.003369 0.008872 0.440573
v 0.009949 -0.010325 0.444344
v -0.002591 -0.033851 0.442904
v -0.018601 -0.016305 0.439793
v -0.006061 0.007221 0.441234
v 0.008268 0.002565 0.445894
v 0.004585 -0.023839 0.447335
v -0.012021 -0.035501 0.443564
v -0.005310 -0.012995 0.445412
v 0.011934 -0.007392 0.438725
v 0.022537 -0.025114 0.438243
v -0.001436 -0.013452 0.436803
v -0.007397 0.005946 0.440573
v 0.012894 0.006271 0.444344
v 0.031393 -0.012925 0.442904
v 0.009759 -0.022729 0.439793
v -0.008741 -0.003533 0.441234
v 0.000116 0.008656 0.445894
v 0.024089 -0.003006 0.447335
v 0.030049 -0.022404 0.443564
v 0.010718 -0.009066 0.445412
v 0.010718 0.009066 0.438725
v 0.030849 0.013673 0.438243
v 0.012350 -0.005523 0.436803
v -0.007940 -0.005197 0.440573
v -0.001980 0.014200 0.444344
v 0.021993 0.025863 0.442904
v 0.024633 0.002258 0.439793
v 0.000659 -0.009405 0.441234
v -0.008197 0.002785 0.445894
v 0.010303 0.021981 0.447335
v 0.030593 0.021655 0.443564
v 0.011934 0.007392 0.445412
v -0.005310 0.012995 0.438725
v -0.003471 0.033565 0.438243
v 0.009069 0.010039 0.436803
v 0.002489 -0.009158 0.440573
v -0.014117 0.002505 0.444344
v -0.017801 0.028909 0.442904
v 0.005465 0.024125 0.439793
v 0.009148 -0.002279 0.441234
v -0.005182 -0.006935 0.445894
v -0.017721 0.016591 0.447335
v -0.011142 0.035787 0.443564
v -0.003343 0.013634 0.445412
v -0.008957 -0.004145 0.440199
v -0.023300 -0.003029 0.438741
v -0.006750 0.005496 0.437106
v 0.006473 0.001551 0.441388
v -0.001906 -0.009413 0.445670
v -0.020306 -0.012244 0.444034
v -0.016735 0.003357 0.439029
v 0.001666 0.006187 0.440664
v 0.004660 -0.003027 0.445957
v -0.011891 -0.011553 0.447593
v -0.025113 -0.007607 0.443311
v -0.009683 -0.001911 0.444499
v 0.001175 -0.009800 0.440199
v -0.004319 -0.023096 0.438741
v -0.007313 -0.004721 0.437106
v 0.000525 0.006635 0.441388
v 0.008364 -0.004721 0.445670
v 0.005370 -0.023096 0.444034
v -0.008364 -0.014879 0.439029
v -0.005370 0.003496 0.440664
v 0.004319 0.003496 0.445957
v 0.007313 -0.014879 0.447593
v -0.000525 -0.026235 0.443311
v -0.001175 -0.009800 0.444499
v 0.009683 -0.001911 0.440199
v 0.020631 -0.011245 0.438741
v 0.002230 -0.008414 0.437106
v -0.006148 0.002550 0.441388
v 0.007075 0.006495 0.445670
v 0.023625 -0.002030 0.444034
v 0.011566 -0.012552 0.439029
v -0.004984 -0.004026 0.440664
v -0.001990 0.005188 0.445957
v 0.016410 0.002357 0.447593
v 0.024789 -0.008607 0.443311
v 0.008957 -0.004145 0.444499
v 0.004810 0.008619 0.440199
v 0.017070 0.016147 0.438741
v 0.008692 -0.000479 0.437106
v -0.004325 -0.005059 0.441388
v -0.003991 0.008736 0.445670
v 0.009231 0.021841 0.444034
v 0.015512 0.007121 0.439029
v 0.002289 -0.005985 0.440664
v -0.005549 -0.000290 0.445957
v 0.002829 0.016336 0.447593
v 0.015846 0.020916 0.443311
v 0.006711 0.007238 0.444499
v -0.006711 0.007238 0.440199
v -0.010081 0.021224 0.438741
v 0.003141 0.008118 0.437106
v 0.003475 -0.005677 0.441388
v -0.009541 -0.001096 0.445670
v -0.017920 0.015529 0.444034
v -0.001979 0.016953 0.439029
v 0.006399 0.000328 0.440664
v -0.001439 -0.005367 0.445957
v -0.014662 0.007739 0.447593
v -0.014996 0.021533 0.443311
v -0.004810 0.008619 0.444499
v -0.002019 -0.005301 0.440733
v -0.008339 -0.010425 0.439293
v -0.004380 -0.000586 0.438037
v 0.002245 0.003082 0.441325
v 0.002381 -0.004490 0.444613
v -0.004160 -0.012838 0.443357
v -0.007981 -0.005209 0.438995
v -0.001440 0.003138 0.440251
v 0.002739 0.000726 0.444315
v -0.001220 -0.009113 0.445571
v -0.007845 -0.012781 0.442283
v -0.003581 -0.004399 0.442875
v 0.005600 0.000902 0.440733
v 0.013198 -0.002009 0.439293
v 0.002698 -0.003500 0.438037
v -0.003791 0.000403 0.441325
v 0.002698 0.004307 0.444613
v 0.013198 0.002816 0.443357
v 0.008502 -0.004307 0.438995
v -0.001998 -0.002816 0.440251
v -0.001998 0.002009 0.444315
v 0.008502 0.003500 0.445571
v 0.014991 -0.000403 0.442283
v 0.005600 -0.000902 0.442875
v -0.003581 0.004399 0.440733
v -0.004859 0.012434 0.439293
v 0.001682 0.004087 0.438037
v 0.001546 -0.003485 0.441325
v -0.005079 0.000183 0.444613
v -0.009038 0.010022 0.443357
v -0.000521 0.009516 0.438995
v 0.003438 -0.000322 0.440251
v -0.000741 -0.002735 0.444315
v -0.007282 0.005613 0.445571
v -0.007146 0.013185 0.442283
v -0.002019 0.005301 0.442875
v -0.094000 -0.051034 0.338725
v -0.112994 -0.042929 0.338243
v -0.086745 -0.038273 0.336803
v -0.070521 -0.050463 0.340573
v -0.086745 -0.062652 0.344344
v -0.112994 -0.057996 0.342904
v -0.101255 -0.037348 0.339793
v -0.075006 -0.042004 0.341234
v -0.075006 -0.057071 0.345894
v -0.101255 -0.061727 0.347335
v -0.117479 -0.049537 0.343564
v -0.094000 -0.048966 0.345412
v -0.083343 -0.063634 0.338725
v -0.096921 -0.079195 0.338243
v -0.093237 -0.052791 0.336803
v -0.076631 -0.041128 0.340573
v -0.070051 -0.060325 0.344344
v -0.082591 -0.083851 0.342904
v -0.098601 -0.066305 0.339793
v -0.086061 -0.042779 0.341234
v -0.071732 -0.047435 0.345894
v -0.075415 -0.073839 0.347335
v -0.092021 -0.085501 0.343564
v -0.085310 -0.062995 0.345412
v -0.068066 -0.057392 0.338725
v -0.057463 -0.075114 0.338243
v -0.081436 -0.063452 0.336803
v -0.087397 -0.044054 0.340573
v -0.067106 -0.043729 0.344344
v -0.048607 -0.062925 0.342904
v -0.070241 -0.072729 0.339793
v -0.088741 -0.053533 0.341234
v -0.079884 -0.041344 0.345894
v -0.055911 -0.053006 0.347335
v -0.049951 -0.072404 0.343564
v -0.069282 -0.059066 0.345412
v -0.069282 -0.040934 0.338725
v -0.049151 -0.036327 0.338243
v -0.067650 -0.055523 0.336803
v -0.087940 -0.055197 0.340573
v -0.081980 -0.035800 0.344344
v -0.058007 -0.024137 0.342904
v -0.055367 -0.047742 0.339793
v -0.079341 -0.059405 0.341234
v -0.088197 -0.047215 0.345894
v -0.069697 -0.028019 0.347335
v -0.049407 -0.028345 0.343564
v -0.068066 -0.042608 0.345412
v -0.085310 -0.037005 0.338725
v -0.083471 -0.016435 0.338243
v -0.070931 -0.039961 0.336803
v -0.077511 -0.059158 0.340573
v -0.094117 -0.047495 0.344344
v -0.097801 -0.021091 0.342904
v -0.074535 -0.025875 0.339793
v -0.070852 -0.052279 0.341234
v -0.085182 -0.056935 0.345894
v -0.097721 -0.033409 0.347335
v -0.091142 -0.014213 0.343564
v -0.083343 -0.036366 0.345412
v -0.088957 -0.054145 0.340199
v -0.103300 -0.053029 0.338741
v -0.086750 -0.044504 0.337106
v -0.073527 -0.048449 0.341388
v -0.081906 -0.059413 0.345670
v -0.100306 -0.062244 0.344034
v -0.096735 -0.046643 0.339029
v -0.078334 -0.043813 0.340664
v -0.075340 -0.053027 0.345957
v -0.091891 -0.061553 0.347593
v -0.105113 -0.057607 0.343311
v -0.089683 -0.051911 0.344499
v -0.078825 -0.059800 0.340199
v -0.084319 -0.073096 0.338741
v -0.087313 -0.054721 0.337106
v -0.079475 -0.043365 0.341388
v -0.071636 -0.054721 0.345670
v -0.074630 -0.073096 0.344034
v -0.088364 -0.064879 0.339029
v -0.085370 -0.046504 0.340664
v -0.075681 -0.046504 0.345957
v -0.072687 -0.064879 0.347593
v -0.080525 -0.076235 0.343311
v -0.081175 -0.059800 0.344499
v -0.070317 -0.051911 0.340199
v -0.059369 -0.061245 0.338741
v -0.077770 -0.058414 0.337106
v -0.086148 -0.047450 0.341388
v -0.072925 -0.043505 0.345670
v -0.056375 -0.052030 0.344034
v -0.068434 -0.062552 0.339029
v -0.084984 -0.054026 0.340664
v -0.081990 -0.044812 0.345957
v -0.063590 -0.047643 0.347593
v -0.055211 -0.058607 0.343311
v -0.071043 -0.054145 0.344499
v -0.075190 -0.041381 0.340199
v -0.062930 -0.033853 0.338741
v -0.071308 -0.050479 0.337106
v -0.084325 -0.055059 0.341388
v -0.083991 -0.041264 0.345670
v -0.070769 -0.028159 0.344034
v -0.064488 -0.042879 0.339029
v -0.077711 -0.055985 0.340664
v -0.085549 -0.050290 0.345957
v -0.077171 -0.033664 0.347593
v -0.064154 -0.029084 0.343311
v -0.073289 -0.042762 0.344499
v -0.086711 -0.042762 0.340199
v -0.090081 -0.028776 0.338741
v -0.076859 -0.041882 0.337106
v -0.076525 -0.055677 0.341388
v -0.089541 -0.051096 0.345670
v -0.097920 -0.034471 0.344034
v -0.081979 -0.033047 0.339029
v -0.073601 -0.049672 0.340664
v -0.081439 -0.055367 0.345957
v -0.094662 -0.042261 0.347593
v -0.094996 -0.028467 0.343311
v -0.084810 -0.041381 0.344499
v -0.082019 -0.055301 0.340733
v -0.088339 -0.060425 0.339293
v -0.084380 -0.050586 0.338037
v -0.077755 -0.046918 0.341325
v -0.077619 -0.054490 0.344613
v -0.084160 -0.062838 0.343357
v -0.087981 -0.055209 0.338995
v -0.081440 -0.046862 0.340251
v -0.077261 -0.049274 0.344315
v -0.081220 -0.059113 0.345571
v -0.087845 -0.062781 0.342283
v -0.083581 -0.054399 0.342875
v -0.074400 -0.049098 0.340733
v -0.066802 -0.052009 0.339293
v -0.077302 -0.053500 0.338037
v -0.083791 -0.049597 0.341325
v -0.077302 -0.045693 0.344613
v -0.066802 -0.047184 0.343357
v -0.071498 -0.054307 0.338995
v -0.081998 -0.052816 0.340251
v -0.081998 -0.047991 0.344315
v -0.071498 -0.046500 0.345571
v -0.065009 -0.050403 0.342283
v -0.074400 -0.050902 0.342875
v -0.083581 -0.045601 0.340733
v -0.084859 -0.037566 0.339293
v -0.078318 -0.045913 0.338037
v -0.078454 -0.053485 0.341325
v -0.085079 -0.049817 0.344613
v -0.089038 -0.039978 0.343357
v -0.080521 -0.040484 0.338995
v -0.076562 -0.050322 0.340251
v -0.080741 -0.052735 0.344315
v -0.087282 -0.044387 0.345571
v -0.087146 -0.036815 0.342283
v -0.082019 -0.044699 0.342875
v 0.056000 0.038966 0.358725
v 0.037006 0.047071 0.358243
v 0.063255 0.051727 0.356803
v 0.079479 0.039537 0.360573
v 0.063255 0.027348 0.364344
v 0.037006 0.032004 0.362904
v 0.048745 0.052652 0.359793
v 0.074995 0.047996 0.361234
v 0.074995 0.032929 0.365894
v 0.048745 0.028273 0.367335
v 0.032521 0.040463 0.363564
v 0.056000 0.041034 0.365412
v 0.066657 0.026366 0.358725
v 0.053079 0.010805 0.358243
v 0.056763 0.037209 0.356803
v 0.073369 0.048872 0.360573
v 0.079949 0.029675 0.364344
v 0.067409 0.006149 0.362904
v 0.051399 0.023695 0.359793
v 0.063939 0.047221 0.361234
v 0.078268 0.042565 0.365894
v 0.074585 0.016161 0.367335
v 0.057979 0.004499 0.363564
v 0.064690 0.027005 0.365412
v 0.081934 0.032608 0.358725
v 0.092537 0.014886 0.358243
v 0.068564 0.026548 0.356803
v 0.062603 0.045946 0.360573
v 0.082894 0.046271 0.364344
v 0.101393 0.027075 0.362904
v 0.079759 0.017271 0.359793
v 0.061259 0.036467 0.361234
v 0.070116 0.048656 0.365894
v 0.094089 0.036994 0.367335
v 0.100049 0.017596 0.363564
v 0.080718 0.030934 0.365412
v 0.080718 0.049066 0.358725
v 0.100849 0.053673 0.358243
v 0.082350 0.034477 0.356803
v 0.062060 0.034803 0.360573
v 0.068020 0.054200 0.364344
v 0.091993 0.065863 0.362904
v 0.094633 0.042258 0.359793
v 0.070659 0.030595 0.361234
v 0.061803 0.042785 0.365894
v 0.080303 0.061981 0.367335
v 0.100593 0.061655 0.363564
v 0.081934 0.047392 0.365412
v 0.064690 0.052995 0.358725
v 0.066529 0.073565 0.358243
v 0.079069 0.050039 0.356803
v 0.072489 0.030842 0.360573
v 0.055883 0.042505 0.364344
v 0.052199 0.068909 0.362904
v 0.075465 0.064125 0.359793
v 0.079148 0.037721 0.361234
v 0.064818 0.033065 0.365894
v 0.052279 0.056591 0.367335
v 0.058858 0.075787 0.363564
v 0.066657 0.053634 0.365412
v 0.061043 0.035855 0.360199
v 0.046700 0.036971 0.358741
v 0.063250 0.045496 0.357106
v 0.076473 0.041551 0.361388
v 0.068094 0.030587 0.365670
v 0.049694 0.027756 0.364034
v 0.053265 0.043357 0.359029
v 0.071666 0.046187 0.360664
v 0.074660 0.036973 0.365957
v 0.058109 0.028447 0.367593
v 0.044887 0.032393 0.363311
v 0.060317 0.038089 0.364499
v 0.071175 0.030200 0.360199
v 0.065681 0.016904 0.358741
v 0.062687 0.035279 0.357106
v 0.070525 0.046635 0.361388
v 0.078364 0.035279 0.365670
v 0.075370 0.016904 0.364034
v 0.061636 0.025121 0.359029
v 0.064630 0.043496 0.360664
v 0.074319 0.043496 0.365957
v 0.077313 0.025121 0.367593
v 0.069475 0.013765 0.363311
v 0.068825 0.030200 0.364499
v 0.079683 0.038089 0.360199
v 0.090631 0.028755 0.358741
v 0.072230 0.031586 0.357106
v 0.063852 0.042550 0.361388
v 0.077075 0.046495 0.365670
v 0.093625 0.037970 0.364034
v 0.081566 0.027448 0.359029
v 0.065016 0.035974 0.360664
v 0.068010 0.045188 0.365957
v 0.086410 0.042357 0.367593
v 0.094789 0.031393 0.363311
v 0.078957 0.035855 0.364499
v 0.074810 0.048619 0.360199
v 0.087070 0.056147 0.358741
v 0.078692 0.039521 0.357106
v 0.065675 0.034941 0.361388
v 0.066009 0.048736 0.365670
v 0.079231 0.061841 0.364034
v 0.085512 0.047121 0.359029
v 0.072289 0.034015 0.360664
v 0.064451 0.039710 0.365957
v 0.072829 0.056336 0.367593
v 0.085846 0.060916 0.363311
v 0.076711 0.047238 0.364499
v 0.063289 0.047238 0.360199
v 0.059919 0.061224 0.358741
v 0.073141 0.048118 0.357106
v 0.073475 0.034323 0.361388
v 0.060459 0.038904 0.365670
v 0.052080 0.055529 0.364034
v 0.068021 0.056953 0.359029
v 0.076399 0.040328 0.360664
v 0.068561 0.034633 0.365957
v 0.055338 0.047739 0.367593
v 0.055004 0.061533 0.363311
v 0.065190 0.048619 0.364499
v 0.067981 0.034699 0.360733
v 0.061661 0.029575 0.359293
v 0.065620 0.039414 0.358037
v 0.072245 0.043082 0.361325
v 0.072381 0.035510 0.364613
v 0.065840 0.027162 0.363357
v 0.062019 0.034791 0.358995
v 0.068560 0.043138 0.360251
v 0.072739 0.040726 0.364315
v 0.068780 0.030887 0.365571
v 0.062155 0.027219 0.362283
v 0.066419 0.035601 0.362875
v 0.075600 0.040902 0.360733
v 0.083198 0.037991 0.359293
v 0.072698 0.036500 0.358037
v 0.066209 0.040403 0.361325
v 0.072698 0.044307 0.364613
v 0.083198 0.042816 0.363357
v 0.078502 0.035693 0.358995
v 0.068002 0.037184 0.360251
v 0.068002 0.042009 0.364315
v 0.078502 0.043500 0.365571
v 0.084991 0.039597 0.362283
v 0.075600 0.039098 0.362875
v 0.066419 0.044399 0.360733
v 0.065141 0.052434 0.359293
v 0.071682 0.044087 0.358037
v 0.071546 0.036515 0.361325
v 0.064921 0.040183 0.364613
v 0.060962 0.050022 0.363357
v 0.069479 0.049516 0.358995
v 0.073438 0.039678 0.360251
v 0.069259 0.037265 0.364315
v 0.062718 0.045613 0.365571
v 0.062854 0.053185 0.362283
v 0.067981 0.045301 0.362875
vn -0.3090 -0.9511 -0.0000
vn -0.8090 -0.5878 -0.0000
vn -1.0000 -0.0000 -0.0000
vn -0.8090 0.5878 -0.0000
vn -0.3090 0.9511 -0.0000
vn 0.3090 0.9511 -0.0000
vn 0.8090 0.5878 -0.0000
vn 1.0000 -0.0000 -0.0000
vn -0.0000 -0.0000 1.0000
vn 0.8090 -0.5878 -0.0000
vn 0.3090 -0.9511 -0.0000
vn -0.0000 -0.0000 -1.0000
vn -0.5878 -0.8090 -0.0000
vn -0.9511 0.3090 -0.0000
vn -0.0000 1.0000 -0.0000
vn 0.9511 0.3090 -0.0000
vn 0.5878 -0.8090 -0.0000
vn 0.1309 -0.9621 0.2391
vn -0.8812 -0.4638 -0.0913
vn -0.6755 0.6755 -0.2955
vn -0.2090 0.2090 0.9553
vn 0.4638 0.8812 -0.0913
vn 0.9621 -0.1309 0.2391
vn 0.2090 -0.2090 -0.9553
vn 0.9621 0.1309 0.2391
vn 0.4637 -0.8812 -0.0913
vn -0.6755 -0.6755 -0.2955
vn -0.2090 -0.2090 0.9553
vn -0.8812 0.4637 -0.0913
vn 0.1309 0.9621 0.2391
vn 0.2090 0.2090 -0.9553
vn -0.0215 -0.3483 -0.9371
vn -0.0714 -0.5632 -0.8232
vn 0.0572 -0.4318 -0.9002
vn 0.0572 -0.6825 -0.7286
vn -0.0215 -0.7472 -0.6642
vn -0.4406 -0.5069 -0.7409
vn -0.0764 0.4256 -0.9017
vn 0.2635 0.2032 -0.9430
vn 0.2635 -0.9526 -0.1523
vn -0.0764 -0.9946 0.0699
vn -0.2635 0.9526 0.1523
vn 0.0764 0.9946 -0.0699
vn 0.4406 0.5069 0.7409
vn 0.0764 -0.4256 0.9017
vn -0.2635 -0.2032 0.9430
vn -0.0572 0.6825 0.7286
vn 0.0215 0.7472 0.6642
vn 0.0714 0.5632 0.8232
vn 0.0215 0.3483 0.9371
vn -0.0572 0.4318 0.9002
vn 0.3483 -0.0215 -0.9371
vn 0.5632 -0.0714 -0.8232
vn 0.4318 0.0572 -0.9002
vn 0.6825 0.0572 -0.7286
vn 0.7472 -0.0215 -0.6642
vn 0.5069 -0.4406 -0.7409
vn -0.4256 -0.0764 -0.9017
vn -0.2032 0.2635 -0.9430
vn 0.9526 0.2635 -0.1523
vn 0.9946 -0.0764 0.0699
vn -0.9526 -0.2635 0.1523
vn -0.9946 0.0764 -0.0699
vn -0.5069 0.4406 0.7409
vn 0.4256 0.0764 0.9017
vn 0.2032 -0.2635 0.9430
vn -0.6825 -0.0572 0.7286
vn -0.7472 0.0215 0.6642
vn -0.5632 0.0714 0.8232
vn -0.3483 0.0215 0.9371
vn -0.4318 -0.0572 0.9002
vn 0.0215 0.3483 -0.9371
vn 0.0714 0.5632 -0.8232
vn -0.0572 0.4318 -0.9002
vn -0.0572 0.6825 -0.7286
vn 0.0215 0.7472 -0.6642
vn 0.4406 0.5069 -0.7409
vn 0.0764 -0.4256 -0.9017
vn -0.2635 -0.2032 -0.9430
vn -0.2635 0.9526 -0.1523
vn 0.0764 0.9946 0.0699
vn 0.2635 -0.9526 0.1523
vn -0.0764 -0.9946 -0.0699
vn -0.4406 -0.5069 0.7409
vn -0.0764 0.4256 0.9017
vn 0.2635 0.2032 0.9430
vn 0.0572 -0.6825 0.7286
vn -0.0215 -0.7472 0.6642
vn -0.0714 -0.5632 0.8232
vn -0.0215 -0.3483 0.9371
vn 0.0572 -0.4318 0.9002
vn -0.3483 0.0215 -0.9371
vn -0.5632 0.0714 -0.8232
vn -0.4318 -0.0572 -0.9002
vn -0.6825 -0.0572 -0.7286
vn -0.7472 0.0215 -0.6642
vn -0.5069 0.4406 -0.7409
vn 0.4256 0.0764 -0.9017
vn 0.2032 -0.2635 -0.9430
vn -0.9526 -0.2635 -0.1523
vn -0.9946 0.0764 0.0699
vn 0.9526 0.2635 0.1523
vn 0.9946 -0.0764 -0.0699
vn 0.5069 -0.4406 0.7409
vn -0.4256 -0.0764 0.9017
vn -0.2032 0.2635 0.9430
vn 0.6825 0.0572 0.7286
vn 0.7472 -0.0215 0.6642
vn 0.5632 -0.0714 0.8232
vn 0.3483 -0.0215 0.9371
vn 0.4318 0.0572 0.9002
vn 0.0864 -0.1167 -0.9894
vn 0.2241 -0.3252 -0.9187
vn 0.2080 -0.1272 -0.9698
vn 0.4155 -0.3348 -0.8457
vn 0.4160 -0.4462 -0.7924
vn -0.0644 -0.5588 -0.8268
vn -0.4856 0.3814 -0.7866
vn -0.1071 0.4708 -0.8757
vn 0.8273 -0.4637 -0.3170
vn 0.6489 -0.7531 -0.1083
vn -0.8273 0.4637 0.3170
vn -0.6489 0.7531 0.1083
vn 0.0644 0.5588 0.8268
vn 0.4856 -0.3814 0.7866
vn 0.1071 -0.4708 0.8757
vn -0.4155 0.3348 0.8457
vn -0.4160 0.4462 0.7924
vn -0.2241 0.3252 0.9187
vn -0.0864 0.1167 0.9894
vn -0.2080 0.1272 0.9698
vn -0.0864 0.1167 -0.9894
vn -0.2241 0.3252 -0.9187
vn -0.2080 0.1272 -0.9698
vn -0.4155 0.3348 -0.8457
vn -0.4160 0.4462 -0.7924
vn 0.0644 0.5588 -0.8268
vn 0.4856 -0.3814 -0.7866
vn 0.1071 -0.4708 -0.8757
vn -0.8273 0.4637 -0.3170
vn -0.6489 0.7531 -0.1083
vn 0.8273 -0.4637 0.3170
vn 0.6489 -0.7531 0.1083
vn -0.0644 -0.5588 0.8268
vn -0.4856 0.3814 0.7866
vn -0.1071 0.4708 0.8757
vn 0.4155 -0.3348 0.8457
vn 0.4160 -0.4462 0.7924
vn 0.2241 -0.3252 0.9187
vn 0.0864 -0.1167 0.9894
vn 0.2080 -0.1272 0.9698
vn -0.0310 -0.1316 -0.9908
vn -0.1013 -0.2940 -0.9504
vn 0.0817 -0.1937 -0.9777
vn 0.0817 -0.3921 -0.9163
vn -0.0310 -0.4508 -0.8921
vn -0.5724 -0.2423 -0.7833
vn -0.1394 0.5262 -0.8389
vn 0.4170 0.2883 -0.8620
vn 0.4170 -0.7247 -0.5486
vn -0.1394 -0.9079 -0.3953
vn -0.4170 0.7247 0.5486
vn 0.1394 0.9079 0.3953
vn 0.5724 0.2423 0.7833
vn 0.1394 -0.5262 0.8389
vn -0.4170 -0.2883 0.8620
vn -0.0817 0.3921 0.9163
vn 0.0310 0.4508 0.8921
vn 0.1013 0.2940 0.9504
vn 0.0310 0.1316 0.9908
vn -0.0817 0.1937 0.9777
vn 0.1156 -0.0702 -0.9908
vn 0.2483 -0.1872 -0.9504
vn 0.2095 0.0178 -0.9777
vn 0.3982 -0.0435 -0.9163
vn 0.4192 -0.1688 -0.8921
vn 0.0536 -0.6193 -0.7833
vn -0.5435 0.0301 -0.8389
vn -0.1454 0.4857 -0.8620
vn 0.8181 0.1726 -0.5486
vn 0.8204 -0.4131 -0.3953
vn -0.8181 -0.1726 0.5486
vn -0.8204 0.4131 0.3953
vn -0.0536 0.6193 0.7833
vn 0.5435 -0.0301 0.8389
vn 0.1454 -0.4857 0.8620
vn -0.3982 0.0435 0.9163
vn -0.4192 0.1688 0.8921
vn -0.2483 0.1872 0.9504
vn -0.1156 0.0702 0.9908
vn -0.2095 -0.0178 0.9777
vn 0.1025 0.0883 -0.9908
vn 0.2548 0.1783 -0.9504
vn 0.0478 0.2047 -0.9777
vn 0.1644 0.3653 -0.9163
vn 0.2901 0.3465 -0.8921
vn 0.6055 -0.1404 -0.7833
vn -0.1965 -0.5076 -0.8389
vn -0.5068 0.0118 -0.8620
vn 0.0886 0.8314 -0.5486
vn 0.6464 0.6526 -0.3953
vn -0.0886 -0.8314 0.5486
vn -0.6464 -0.6526 0.3953
vn -0.6055 0.1404 0.7833
vn 0.1965 0.5076 0.8389
vn 0.5068 -0.0118 0.8620
vn -0.1644 -0.3653 0.9163
vn -0.2901 -0.3465 0.8921
vn -0.2548 -0.1783 0.9504
vn -0.1025 -0.0883 0.9908
vn -0.0478 -0.2047 0.9777
vn -0.0523 0.1247 -0.9908
vn -0.0908 0.2974 -0.9504
vn -0.1799 0.1087 -0.9777
vn -0.2966 0.2692 -0.9163
vn -0.2399 0.3830 -0.8921
vn 0.3207 0.5325 -0.7833
vn 0.4220 -0.3438 -0.8389
vn -0.1679 -0.4784 -0.8620
vn -0.7633 0.3412 -0.5486
vn -0.4209 0.8164 -0.3953
vn 0.7633 -0.3412 0.5486
vn 0.4209 -0.8164 0.3953
vn -0.3207 -0.5325 0.7833
vn -0.4220 0.3438 0.8389
vn 0.1679 0.4784 0.8620
vn 0.2966 -0.2692 0.9163
vn 0.2399 -0.3830 0.8921
vn 0.0908 -0.2974 0.9504
vn 0.0523 -0.1247 0.9908
vn 0.1799 -0.1087 0.9777
vn -0.1348 -0.0112 -0.9908
vn -0.3109 0.0055 -0.9504
vn -0.1590 -0.1375 -0.9777
vn -0.3477 -0.1989 -0.9163
vn -0.4383 -0.1098 -0.8921
vn -0.4073 0.4695 -0.7833
vn 0.4573 0.2951 -0.8389
vn 0.4031 -0.3075 -0.8620
vn -0.5604 -0.6205 -0.5486
vn -0.9066 -0.1480 -0.3953
vn 0.5604 0.6205 0.5486
vn 0.9066 0.1480 0.3953
vn 0.4073 -0.4695 0.7833
vn -0.4574 -0.2951 0.8389
vn -0.4031 0.3075 0.8620
vn 0.3477 0.1989 0.9163
vn 0.4383 0.1098 0.8921
vn 0.3109 -0.0055 0.9504
vn 0.1348 0.0112 0.9908
vn 0.1590 0.1375 0.9777
vn 0.0712 -0.3195 -0.9449
vn 0.0510 -0.4849 -0.8731
vn 0.1964 -0.3400 -0.9197
vn 0.2527 -0.5134 -0.8201
vn 0.1618 -0.5984 -0.7847
vn -0.4229 -0.5508 -0.7196
vn -0.2404 0.2889 -0.9267
vn 0.3622 0.2347 -0.9021
vn 0.6497 -0.6503 -0.3937
vn 0.1667 -0.9640 -0.2070
vn -0.6497 0.6503 0.3937
vn -0.1667 0.9640 0.2070
vn 0.4229 0.5508 0.7196
vn 0.2404 -0.2889 0.9267
vn -0.3622 -0.2347 0.9021
vn -0.2527 0.5134 0.8201
vn -0.1618 0.5984 0.7847
vn -0.0510 0.4849 0.8731
vn -0.0712 0.3195 0.9449
vn -0.1964 0.3400 0.9197
vn 0.3258 -0.0310 -0.9449
vn 0.4770 -0.1013 -0.8731
vn 0.3841 0.0817 -0.9197
vn 0.5664 0.0817 -0.8201
vn 0.6191 -0.0310 -0.7847
vn 0.3931 -0.5724 -0.7196
vn -0.3490 -0.1394 -0.9267
vn -0.1113 0.4170 -0.9021
vn 0.8192 0.4170 -0.3937
vn 0.9684 -0.1394 -0.2070
vn -0.8192 -0.4170 0.3937
vn -0.9684 0.1394 0.2070
vn -0.3931 0.5724 0.7196
vn 0.3490 0.1394 0.9267
vn 0.1113 -0.4170 0.9021
vn -0.5664 -0.0817 0.8201
vn -0.6191 0.0310 0.7847
vn -0.4770 0.1013 0.8731
vn -0.3258 0.0310 0.9449
vn -0.3841 -0.0817 0.9197
vn 0.1302 0.3003 -0.9449
vn 0.2438 0.4223 -0.8731
vn 0.0410 0.3905 -0.9197
vn 0.0973 0.5639 -0.8201
vn 0.2208 0.5792 -0.7847
vn 0.6659 0.1970 -0.7196
vn 0.0247 -0.3750 -0.9267
vn -0.4310 0.0230 -0.9021
vn -0.1434 0.9080 -0.3937
vn 0.4318 0.8779 -0.2070
vn 0.1434 -0.9080 0.3937
vn -0.4318 -0.8779 0.2070
vn -0.6659 -0.1970 0.7196
vn -0.0247 0.3750 0.9267
vn 0.4310 -0.0230 0.9021
vn -0.0973 -0.5639 0.8201
vn -0.2208 -0.5792 0.7847
vn -0.2438 -0.4223 0.8731
vn -0.1302 -0.3003 0.9449
vn -0.0410 -0.3905 0.9197
vn -0.2454 0.2166 -0.9449
vn -0.3263 0.3623 -0.8731
vn -0.3587 0.1597 -0.9197
vn -0.5062 0.2668 -0.8201
vn -0.4826 0.3890 -0.7847
vn 0.0184 0.6942 -0.7196
vn 0.3642 -0.0924 -0.9267
vn -0.1550 -0.4028 -0.9021
vn -0.9079 0.1442 -0.3937
vn -0.7015 0.6819 -0.2070
vn 0.9079 -0.1442 0.3937
vn 0.7015 -0.6819 0.2070
vn -0.0184 -0.6942 0.7196
vn -0.3643 0.0924 0.9267
vn 0.1550 0.4028 0.9021
vn 0.5062 -0.2668 0.8201
vn 0.4826 -0.3890 0.7847
vn 0.3263 -0.3623 0.8731
vn 0.2454 -0.2166 0.9449
vn 0.3587 -0.1597 0.9197
vn -0.2818 -0.1664 -0.9449
vn -0.4454 -0.1984 -0.8731
vn -0.2627 -0.2918 -0.9197
vn -0.4102 -0.3990 -0.8201
vn -0.5191 -0.3388 -0.7847
vn -0.6545 0.2320 -0.7196
vn 0.2004 0.3179 -0.9267
vn 0.3352 -0.2719 -0.9021
vn -0.4177 -0.8189 -0.3937
vn -0.8653 -0.4564 -0.2070
vn 0.4177 0.8189 0.3937
vn 0.8653 0.4564 0.2070
vn 0.6545 -0.2320 0.7196
vn -0.2004 -0.3179 0.9267
vn -0.3352 0.2719 0.9021
vn 0.4102 0.3990 0.8201
vn 0.5191 0.3388 0.7847
vn 0.4454 0.1984 0.8731
vn 0.2818 0.1664 0.9449
vn 0.2627 0.2918 0.9197
vn 0.4236 -0.2804 -0.8613
vn 0.5044 -0.4082 -0.7609
vn 0.5251 -0.2088 -0.8250
vn 0.6627 -0.2883 -0.6912
vn 0.6449 -0.4082 -0.6461
vn 0.1712 -0.7599 -0.6271
vn -0.2065 -0.0417 -0.9776
vn 0.2692 0.3261 -0.9062
vn 0.9716 -0.0794 -0.2231
vn 0.7878 -0.6158 -0.0105
vn -0.9716 0.0794 0.2231
vn -0.7878 0.6158 0.0105
vn -0.1712 0.7599 0.6271
vn 0.2064 0.0417 0.9776
vn -0.2692 -0.3261 0.9062
vn -0.6626 0.2883 0.6912
vn -0.6449 0.4082 0.6461
vn -0.5044 0.4082 0.7609
vn -0.4236 0.2804 0.8613
vn -0.5251 0.2088 0.8250
vn 0.0310 0.5071 -0.8613
vn 0.1013 0.6409 -0.7609
vn -0.0817 0.5591 -0.8250
vn -0.0817 0.7180 -0.6912
vn 0.0310 0.7626 -0.6461
vn 0.5724 0.5282 -0.6271
vn 0.1394 -0.1579 -0.9776
vn -0.4170 0.0701 -0.9062
vn -0.4170 0.8811 -0.2231
vn 0.1394 0.9902 -0.0105
vn 0.4170 -0.8811 0.2231
vn -0.1394 -0.9902 0.0105
vn -0.5724 -0.5282 0.6271
vn -0.1394 0.1579 0.9776
vn 0.4170 -0.0701 0.9062
vn 0.0817 -0.7180 0.6912
vn -0.0310 -0.7626 0.6461
vn -0.1013 -0.6409 0.7609
vn -0.0310 -0.5071 0.8613
vn 0.0817 -0.5591 0.8250
vn -0.4547 -0.2267 -0.8613
vn -0.6057 -0.2327 -0.7609
vn -0.4434 -0.3503 -0.8250
vn -0.5810 -0.4297 -0.6912
vn -0.6760 -0.3544 -0.6461
vn -0.7437 0.2316 -0.6271
vn 0.0671 0.1997 -0.9776
vn 0.1478 -0.3962 -0.9062
vn -0.5546 -0.8017 -0.2231
vn -0.9272 -0.3744 -0.0105
vn 0.5546 0.8017 0.2231
vn 0.9272 0.3744 0.0105
vn 0.7437 -0.2316 0.6271
vn -0.0671 -0.1997 0.9776
vn -0.1478 0.3962 0.9062
vn 0.5810 0.4297 0.6912
vn 0.6760 0.3544 0.6461
vn 0.6057 0.2327 0.7609
vn 0.4546 0.2267 0.8613
vn 0.4434 0.3503 0.8250
vn -0.4573 -0.2951 0.8389
vn 0.3643 -0.0924 -0.9267
vn 0.1713 -0.7599 -0.6271
vn 0.7879 -0.6158 -0.0105
vn -0.1713 0.7599 0.6271
vn 0.2065 0.0417 0.9776
vn -0.6627 0.2883 0.6912
vn -0.6760 -0.3545 -0.6461
vn 0.6760 0.3545 0.6461
vn -0.7879 0.6158 0.0105
vt 1.000000 0.500000
vt 1.000000 1.000000
vt 0.900000 1.000000
vt 0.900000 0.500000
vt 0.800000 1.000000
vt 0.800000 0.500000
vt 0.700000 1.000000
vt 0.700000 0.500000
vt 0.600000 1.000000
vt 0.600000 0.500000
vt 0.500000 1.000000
vt 0.500000 0.500000
vt 0.400000 1.000000
vt 0.400000 0.500000
vt 0.300000 1.000000
vt 0.300000 0.500000
vt 0.200000 1.000000
vt 0.200000 0.500000
vt 0.391068 0.444164
vt 0.250000 0.490000
vt 0.108932 0.444164
vt 0.021746 0.324164
vt 0.021746 0.175836
vt 0.108932 0.055836
vt 0.250000 0.010000
vt 0.391068 0.055836
vt 0.478254 0.175836
vt 0.478254 0.324164
vt 0.100000 1.000000
vt 0.100000 0.500000
vt -0.000000 1.000000
vt -0.000000 0.500000
vt 0.750000 0.490000
vt 0.891068 0.444164
vt 0.978254 0.324164
vt 0.978254 0.175836
vt 0.891068 0.055836
vt 0.750000 0.010000
vt 0.608932 0.055836
vt 0.521746 0.175836
vt 0.521746 0.324164
vt 0.608932 0.444164
vt 0.800000 1.000000
vt 0.800000 0.500000
vt 0.600000 1.000000
vt 0.600000 0.500000
vt 0.400000 1.000000
vt 0.400000 0.500000
vt 0.478254 0.324164
vt 0.021746 0.324164
vt 0.108932 0.055836
vt 0.200000 1.000000
vt 0.200000 0.500000
vt 0.000000 1.000000
vt 0.000000 0.500000
vt 0.978254 0.324164
vt 0.521746 0.324164
vt 0.181819 0.000000
vt 0.272728 0.157461
vt 0.090910 0.157461
vt 0.363637 0.000000
vt 0.454546 0.157461
vt 0.909091 0.000000
vt 1.000000 0.157461
vt 0.818182 0.157461
vt 0.727273 0.000000
vt 0.636364 0.157461
vt 0.545455 0.000000
vt 0.363637 0.314921
vt 0.181819 0.314921
vt 0.909091 0.314921
vt 0.727273 0.314921
vt 0.545455 0.314921
vt 0.000000 0.314921
vt 0.272728 0.472382
vt 0.090910 0.472382
vt 0.818182 0.472382
vt 0.636364 0.472382
vt 0.454546 0.472382
s 0
usemtl soil
f 1/1/1 2/2/1 4/3/1 3/4/1
f 3/4/2 4/3/2 6/5/2 5/6/2
f 5/6/3 6/5/3 8/7/3 7/8/3
f 7/8/4 8/7/4 10/9/4 9/10/4
f 9/10/5 10/9/5 12/11/5 11/12/5
f 11/12/6 12/11/6 14/13/6 13/14/6
f 13/14/7 14/13/7 16/15/7 15/16/7
f 15/16/8 16/15/8 18/17/8 17/18/8
f 4/19/9 2/20/9 20/21/9 18/22/9 16/23/9 14/24/9 12/25/9 10/26/9 8/27/9 6/28/9
f 17/18/10 18/17/10 20/29/10 19/30/10
f 19/30/11 20/29/11 2/31/11 1/32/11
f 1/33/12 3/34/12 5/35/12 7/36/12 9/37/12 11/38/12 13/39/12 15/40/12 17/41/12 19/42/12
usemtl stem
f 21/1/13 22/2/13 24/43/13 23/44/13
f 23/44/14 24/43/14 26/45/14 25/46/14
f 25/46/15 26/45/15 28/47/15 27/48/15
f 24/49/9 22/20/9 30/50/9 28/51/9 26/26/9
f 27/48/16 28/47/16 30/52/16 29/53/16
f 29/53/17 30/52/17 22/54/17 21/55/17
f 21/33/12 23/56/12 25/37/12 27/39/12 29/57/12
f 31/1/18 32/2/18 34/43/18 33/44/18
f 33/44/19 34/43/19 36/45/19 35/46/19
f 35/46/20 36/45/20 38/47/20 37/48/20
f 34/49/21 32/20/21 40/50/21 38/51/21 36/26/21
f 37/48/22 38/47/22 40/52/22 39/53/22
f 39/53/23 40/52/23 32/54/23 31/55/23
f 31/33/24 33/56/24 35/37/24 37/39/24 39/57/24
f 41/1/25 42/2/25 44/43/25 43/44/25
f 43/44/26 44/43/26 46/45/26 45/46/26
f 45/46/27 46/45/27 48/47/27 47/48/27
f 44/49/28 42/20/28 50/50/28 48/51/28 46/26/28
f 47/48/29 48/47/29 50/52/29 49/53/29
f 49/53/30 50/52/30 42/54/30 41/55/30
f 41/33/31 43/56/31 45/37/31 47/39/31 49/57/31
usemtl leaf
f 51/58/32 52/59/32 53/60/32
f 52/59/33 51/61/33 56/62/33
f 51/63/34 53/64/34 54/65/34
f 51/66/35 54/65/35 55/67/35
f 51/68/36 55/67/36 56/62/36
f 52/59/37 56/62/37 61/69/37
f 53/60/38 52/59/38 57/70/38
f 54/65/39 53/64/39 58/71/39
f 55/67/40 54/65/40 59/72/40
f 56/62/41 55/67/41 60/73/41
f 52/59/42 61/69/42 57/70/42
f 53/60/43 57/70/43 58/74/43
f 54/65/44 58/71/44 59/72/44
f 55/67/45 59/72/45 60/73/45
f 56/62/46 60/73/46 61/69/46
f 57/70/47 61/69/47 62/75/47
f 58/74/48 57/70/48 62/76/48
f 59/72/49 58/71/49 62/77/49
f 60/73/50 59/72/50 62/78/50
f 61/69/51 60/73/51 62/79/51
f 63/58/52 64/59/52 65/60/52
f 64/59/53 63/61/53 68/62/53
f 63/63/54 65/64/54 66/65/54
f 63/66/55 66/65/55 67/67/55
f 63/68/56 67/67/56 68/62/56
f 64/59/57 68/62/57 73/69/57
f 65/60/58 64/59/58 69/70/58
f 66/65/59 65/64/59 70/71/59
f 67/67/60 66/65/60 71/72/60
f 68/62/61 67/67/61 72/73/61
f 64/59/62 73/69/62 69/70/62
f 65/60/63 69/70/63 70/74/63
f 66/65/64 70/71/64 71/72/64
f 67/67/65 71/72/65 72/73/65
f 68/62/66 72/73/66 73/69/66
f 69/70/67 73/69/67 74/75/67
f 70/74/68 69/70/68 74/76/68
f 71/72/69 70/71/69 74/77/69
f 72/73/70 71/72/70 74/78/70
f 73/69/71 72/73/71 74/79/71
f 75/58/72 76/59/72 77/60/72
f 76/59/73 75/61/73 80/62/73
f 75/63/74 77/64/74 78/65/74
f 75/66/75 78/65/75 79/67/75
f 75/68/76 79/67/76 80/62/76
f 76/59/77 80/62/77 85/69/77
f 77/60/78 76/59/78 81/70/78
f 78/65/79 77/64/79 82/71/79
f 79/67/80 78/65/80 83/72/80
f 80/62/81 79/67/81 84/73/81
f 76/59/82 85/69/82 81/70/82
f 77/60/83 81/70/83 82/74/83
f 78/65/84 82/71/84 83/72/84
f 79/67/85 83/72/85 84/73/85
f 80/62/86 84/73/86 85/69/86
f 81/70/87 85/69/87 86/75/87
f 82/74/88 81/70/88 86/76/88
f 83/72/89 82/71/89 86/77/89
f 84/73/90 83/72/90 86/78/90
f 85/69/91 84/73/91 86/79/91
f 87/58/92 88/59/92 89/60/92
f 88/59/93 87/61/93 92/62/93
f 87/63/94 89/64/94 90/65/94
f 87/66/95 90/65/95 91/67/95
f 87/68/96 91/67/96 92/62/96
f 88/59/97 92/62/97 97/69/97
f 89/60/98 88/59/98 93/70/98
f 90/65/99 89/64/99 94/71/99
f 91/67/100 90/65/100 95/72/100
f 92/62/101 91/67/101 96/73/101
f 88/59/102 97/69/102 93/70/102
f 89/60/103 93/70/103 94/74/103
f 90/65/104 94/71/104 95/72/104
f 91/67/105 95/72/105 96/73/105
f 92/62/106 96/73/106 97/69/106
f 93/70/107 97/69/107 98/75/107
f 94/74/108 93/70/108 98/76/108
f 95/72/109 94/71/109 98/77/109
f 96/73/110 95/72/110 98/78/110
f 97/69/111 96/73/111 98/79/111
f 99/58/112 100/59/112 101/60/112
f 100/59/113 99/61/113 104/62/113
f 99/63/114 101/64/114 102/65/114
f 99/66/115 102/65/115 103/67/115
f 99/68/116 103/67/116 104/62/116
f 100/59/117 104/62/117 109/69/117
f 101/60/118 100/59/118 105/70/118
f 102/65/119 101/64/119 106/71/119
f 103/67/120 102/65/120 107/72/120
f 104/62/121 103/67/121 108/73/121
f 100/59/122 109/69/122 105/70/122
f 101/60/123 105/70/123 106/74/123
f 102/65/124 106/71/124 107/72/124
f 103/67/125 107/72/125 108/73/125
f 104/62/126 108/73/126 109/69/126
f 105/70/127 109/69/127 110/75/127
f 106/74/128 105/70/128 110/76/128
f 107/72/129 106/71/129 110/77/129
f 108/73/130 107/72/130 110/78/130
f 109/69/131 108/73/131 110/79/131
f 111/58/132 112/59/132 113/60/132
f 112/59/133 111/61/133 116/62/133
f 111/63/134 113/64/134 114/65/134
f 111/66/135 114/65/135 115/67/135
f 111/68/136 115/67/136 116/62/136
f 112/59/137 116/62/137 121/69/137
f 113/60/138 112/59/138 117/70/138
f 114/65/139 113/64/139 118/71/139
f 115/67/140 114/65/140 119/72/140
f 116/62/141 115/67/141 120/73/141
f 112/59/142 121/69/142 117/70/142
f 113/60/143 117/70/143 118/74/143
f 114/65/144 118/71/144 119/72/144
f 115/67/145 119/72/145 120/73/145
f 116/62/146 120/73/146 121/69/146
f 117/70/147 121/69/147 122/75/147
f 118/74/148 117/70/148 122/76/148
f 119/72/149 118/71/149 122/77/149
f 120/73/150 119/72/150 122/78/150
f 121/69/151 120/73/151 122/79/151
usemtl petal
f 123/58/152 124/59/152 125/60/152
f 124/59/153 123/61/153 128/62/153
f 123/63/154 125/64/154 126/65/154
f 123/66/155 126/65/155 127/67/155
f 123/68/156 127/67/156 128/62/156
f 124/59/157 128/62/157 133/69/157
f 125/60/158 124/59/158 129/70/158
f 126/65/159 125/64/159 130/71/159
f 127/67/160 126/65/160 131/72/160
f 128/62/161 127/67/161 132/73/161
f 124/59/162 133/69/162 129/70/162
f 125/60/163 129/70/163 130/74/163
f 126/65/164 130/71/164 131/72/164
f 127/67/165 131/72/165 132/73/165
f 128/62/166 132/73/166 133/69/166
f 129/70/167 133/69/167 134/75/167
f 130/74/168 129/70/168 134/76/168
f 131/72/169 130/71/169 134/77/169
f 132/73/170 131/72/170 134/78/170
f 133/69/171 132/73/171 134/79/171
f 135/58/172 136/59/172 137/60/172
f 136/59/173 135/61/173 140/62/173
f 135/63/174 137/64/174 138/65/174
f 135/66/175 138/65/175 139/67/175
f 135/68/176 139/67/176 140/62/176
f 136/59/177 140/62/177 145/69/177
f 137/60/178 136/59/178 141/70/178
f 138/65/179 137/64/179 142/71/179
f 139/67/180 138/65/180 143/72/180
f 140/62/181 139/67/181 144/73/181
f 136/59/182 145/69/182 141/70/182
f 137/60/183 141/70/183 142/74/183
f 138/65/184 142/71/184 143/72/184
f 139/67/185 143/72/185 144/73/185
f 140/62/186 144/73/186 145/69/186
f 141/70/187 145/69/187 146/75/187
f 142/74/188 141/70/188 146/76/188
f 143/72/189 142/71/189 146/77/189
f 144/73/190 143/72/190 146/78/190
f 145/69/191 144/73/191 146/79/191
f 147/58/192 148/59/192 149/60/192
f 148/59/193 147/61/193 152/62/193
f 147/63/194 149/64/194 150/65/194
f 147/66/195 150/65/195 151/67/195
f 147/68/196 151/67/196 152/62/196
f 148/59/197 152/62/197 157/69/197
f 149/60/198 148/59/198 153/70/198
f 150/65/199 149/64/199 154/71/199
f 151/67/200 150/65/200 155/72/200
f 152/62/201 151/67/201 156/73/201
f 148/59/202 157/69/202 153/70/202
f 149/60/203 153/70/203 154/74/203
f 150/65/204 154/71/204 155/72/204
f 151/67/205 155/72/205 156/73/205
f 152/62/206 156/73/206 157/69/206
f 153/70/207 157/69/207 158/75/207
f 154/74/208 153/70/208 158/76/208
f 155/72/209 154/71/209 158/77/209
f 156/73/210 155/72/210 158/78/210
f 157/69/211 156/73/211 158/79/211
f 159/58/212 160/59/212 161/60/212
f 160/59/213 159/61/213 164/62/213
f 159/63/214 161/64/214 162/65/214
f 159/66/215 162/65/215 163/67/215
f 159/68/216 163/67/216 164/62/216
f 160/59/217 164/62/217 169/69/217
f 161/60/218 160/59/218 165/70/218
f 162/65/219 161/64/219 166/71/219
f 163/67/220 162/65/220 167/72/220
f 164/62/221 163/67/221 168/73/221
f 160/59/222 169/69/222 165/70/222
f 161/60/223 165/70/223 166/74/223
f 162/65/224 166/71/224 167/72/224
f 163/67/225 167/72/225 168/73/225
f 164/62/226 168/73/226 169/69/226
f 165/70/227 169/69/227 170/75/227
f 166/74/228 165/70/228 170/76/228
f 167/72/229 166/71/229 170/77/229
f 168/73/230 167/72/230 170/78/230
f 169/69/231 168/73/231 170/79/231
f 171/58/232 172/59/232 173/60/232
f 172/59/233 171/61/233 176/62/233
f 171/63/234 173/64/234 174/65/234
f 171/66/235 174/65/235 175/67/235
f 171/68/236 175/67/236 176/62/236
f 172/59/237 176/62/237 181/69/237
f 173/60/238 172/59/238 177/70/238
f 174/65/239 173/64/239 178/71/239
f 175/67/240 174/65/240 179/72/240
f 176/62/241 175/67/241 180/73/241
f 172/59/242 181/69/242 177/70/242
f 173/60/243 177/70/243 178/74/243
f 174/65/244 178/71/244 179/72/244
f 175/67/245 179/72/245 180/73/245
f 176/62/246 180/73/246 181/69/246
f 177/70/247 181/69/247 182/75/247
f 178/74/248 177/70/248 182/76/248
f 179/72/249 178/71/249 182/77/249
f 180/73/250 179/72/250 182/78/250
f 181/69/251 180/73/251 182/79/251
f 183/58/252 184/59/252 185/60/252
f 184/59/253 183/61/253 188/62/253
f 183/63/254 185/64/254 186/65/254
f 183/66/255 186/65/255 187/67/255
f 183/68/256 187/67/256 188/62/256
f 184/59/257 188/62/257 193/69/257
f 185/60/258 184/59/258 189/70/258
f 186/65/259 185/64/259 190/71/259
f 187/67/260 186/65/260 191/72/260
f 188/62/261 187/67/261 192/73/261
f 184/59/262 193/69/262 189/70/262
f 185/60/263 189/70/263 190/74/263
f 186/65/264 190/71/264 191/72/264
f 187/67/265 191/72/265 192/73/265
f 188/62/266 192/73/266 193/69/266
f 189/70/267 193/69/267 194/75/267
f 190/74/268 189/70/268 194/76/268
f 191/72/269 190/71/269 194/77/269
f 192/73/270 191/72/270 194/78/270
f 193/69/271 192/73/271 194/79/271
f 195/58/272 196/59/272 197/60/272
f 196/59/273 195/61/273 200/62/273
f 195/63/274 197/64/274 198/65/274
f 195/66/275 198/65/275 199/67/275
f 195/68/276 199/67/276 200/62/276
f 196/59/277 200/62/277 205/69/277
f 197/60/278 196/59/278 201/70/278
f 198/65/279 197/64/279 202/71/279
f 199/67/280 198/65/280 203/72/280
f 200/62/281 199/67/281 204/73/281
f 196/59/282 205/69/282 201/70/282
f 197/60/283 201/70/283 202/74/283
f 198/65/284 202/71/284 203/72/284
f 199/67/285 203/72/285 204/73/285
f 200/62/286 204/73/286 205/69/286
f 201/70/287 205/69/287 206/75/287
f 202/74/288 201/70/288 206/76/288
f 203/72/289 202/71/289 206/77/289
f 204/73/290 203/72/290 206/78/290
f 205/69/291 204/73/291 206/79/291
f 207/58/292 208/59/292 209/60/292
f 208/59/293 207/61/293 212/62/293
f 207/63/294 209/64/294 210/65/294
f 207/66/295 210/65/295 211/67/295
f 207/68/296 211/67/296 212/62/296
f 208/59/297 212/62/297 217/69/297
f 209/60/298 208/59/298 213/70/298
f 210/65/299 209/64/299 214/71/299
f 211/67/300 210/65/300 215/72/300
f 212/62/301 211/67/301 216/73/301
f 208/59/302 217/69/302 213/70/302
f 209/60/303 213/70/303 214/74/303
f 210/65/304 214/71/304 215/72/304
f 211/67/305 215/72/305 216/73/305
f 212/62/306 216/73/306 217/69/306
f 213/70/307 217/69/307 218/75/307
f 214/74/308 213/70/308 218/76/308
f 215/72/309 214/71/309 218/77/309
f 216/73/310 215/72/310 218/78/310
f 217/69/311 216/73/311 218/79/311
f 219/58/312 220/59/312 221/60/312
f 220/59/313 219/61/313 224/62/313
f 219/63/314 221/64/314 222/65/314
f 219/66/315 222/65/315 223/67/315
f 219/68/316 223/67/316 224/62/316
f 220/59/317 224/62/317 229/69/317
f 221/60/318 220/59/318 225/70/318
f 222/65/319 221/64/319 226/71/319
f 223/67/320 222/65/320 227/72/320
f 224/62/321 223/67/321 228/73/321
f 220/59/322 229/69/322 225/70/322
f 221/60/323 225/70/323 226/74/323
f 222/65/324 226/71/324 227/72/324
f 223/67/325 227/72/325 228/73/325
f 224/62/326 228/73/326 229/69/326
f 225/70/327 229/69/327 230/75/327
f 226/74/328 225/70/328 230/76/328
f 227/72/329 226/71/329 230/77/329
f 228/73/330 227/72/330 230/78/330
f 229/69/331 228/73/331 230/79/331
f 231/58/332 232/59/332 233/60/332
f 232/59/333 231/61/333 236/62/333
f 231/63/334 233/64/334 234/65/334
f 231/66/335 234/65/335 235/67/335
f 231/68/336 235/67/336 236/62/336
f 232/59/337 236/62/337 241/69/337
f 233/60/338 232/59/338 237/70/338
f 234/65/339 233/64/339 238/71/339
f 235/67/340 234/65/340 239/72/340
f 236/62/341 235/67/341 240/73/341
f 232/59/342 241/69/342 237/70/342
f 233/60/343 237/70/343 238/74/343
f 234/65/344 238/71/344 239/72/344
f 235/67/345 239/72/345 240/73/345
f 236/62/346 240/73/346 241/69/346
f 237/70/347 241/69/347 242/75/347
f 238/74/348 237/70/348 242/76/348
f 239/72/349 238/71/349 242/77/349
f 240/73/350 239/72/350 242/78/350
f 241/69/351 240/73/351 242/79/351
f 243/58/352 244/59/352 245/60/352
f 244/59/353 243/61/353 248/62/353
f 243/63/354 245/64/354 246/65/354
f 243/66/355 246/65/355 247/67/355
f 243/68/356 247/67/356 248/62/356
f 244/59/357 248/62/357 253/69/357
f 245/60/358 244/59/358 249/70/358
f 246/65/359 245/64/359 250/71/359
f 247/67/360 246/65/360 251/72/360
f 248/62/361 247/67/361 252/73/361
f 244/59/362 253/69/362 249/70/362
f 245/60/363 249/70/363 250/74/363
f 246/65/364 250/71/364 251/72/364
f 247/67/365 251/72/365 252/73/365
f 248/62/366 252/73/366 253/69/366
f 249/70/367 253/69/367 254/75/367
f 250/74/368 249/70/368 254/76/368
f 251/72/369 250/71/369 254/77/369
f 252/73/370 251/72/370 254/78/370
f 253/69/371 252/73/371 254/79/371
f 255/58/372 256/59/372 257/60/372
f 256/59/373 255/61/373 260/62/373
f 255/63/374 257/64/374 258/65/374
f 255/66/375 258/65/375 259/67/375
f 255/68/376 259/67/376 260/62/376
f 256/59/377 260/62/377 265/69/377
f 257/60/378 256/59/378 261/70/378
f 258/65/379 257/64/379 262/71/379
f 259/67/380 258/65/380 263/72/380
f 260/62/381 259/67/381 264/73/381
f 256/59/382 265/69/382 261/70/382
f 257/60/383 261/70/383 262/74/383
f 258/65/384 262/71/384 263/72/384
f 259/67/385 263/72/385 264/73/385
f 260/62/386 264/73/386 265/69/386
f 261/70/387 265/69/387 266/75/387
f 262/74/388 261/70/388 266/76/388
f 263/72/389 262/71/389 266/77/389
f 264/73/390 263/72/390 266/78/390
f 265/69/391 264/73/391 266/79/391
f 267/58/392 268/59/392 269/60/392
f 268/59/393 267/61/393 272/62/393
f 267/63/394 269/64/394 270/65/394
f 267/66/395 270/65/395 271/67/395
f 267/68/396 271/67/396 272/62/396
f 268/59/397 272/62/397 277/69/397
f 269/60/398 268/59/398 273/70/398
f 270/65/399 269/64/399 274/71/399
f 271/67/400 270/65/400 275/72/400
f 272/62/401 271/67/401 276/73/401
f 268/59/402 277/69/402 273/70/402
f 269/60/403 273/70/403 274/74/403
f 270/65/404 274/71/404 275/72/404
f 271/67/405 275/72/405 276/73/405
f 272/62/406 276/73/406 277/69/406
f 273/70/407 277/69/407 278/75/407
f 274/74/408 273/70/408 278/76/408
f 275/72/409 274/71/409 278/77/409
f 276/73/410 275/72/410 278/78/410
f 277/69/411 276/73/411 278/79/411
f 279/58/152 280/59/152 281/60/152
f 280/59/153 279/61/153 284/62/153
f 279/63/154 281/64/154 282/65/154
f 279/66/155 282/65/155 283/67/155
f 279/68/156 283/67/156 284/62/156
f 280/59/157 284/62/157 289/69/157
f 281/60/158 280/59/158 285/70/158
f 282/65/159 281/64/159 286/71/159
f 283/67/160 282/65/160 287/72/160
f 284/62/161 283/67/161 288/73/161
f 280/59/162 289/69/162 285/70/162
f 281/60/163 285/70/163 286/74/163
f 282/65/164 286/71/164 287/72/164
f 283/67/165 287/72/165 288/73/165
f 284/62/166 288/73/166 289/69/166
f 285/70/167 289/69/167 290/75/167
f 286/74/168 285/70/168 290/76/168
f 287/72/169 286/71/169 290/77/169
f 288/73/170 287/72/170 290/78/170
f 289/69/171 288/73/171 290/79/171
f 291/58/172 292/59/172 293/60/172
f 292/59/173 291/61/173 296/62/173
f 291/63/174 293/64/174 294/65/174
f 291/66/175 294/65/175 295/67/175
f 291/68/176 295/67/176 296/62/176
f 292/59/177 296/62/177 301/69/177
f 293/60/178 292/59/178 297/70/178
f 294/65/179 293/64/179 298/71/179
f 295/67/180 294/65/180 299/72/180
f 296/62/181 295/67/181 300/73/181
f 292/59/182 301/69/182 297/70/182
f 293/60/183 297/70/183 298/74/183
f 294/65/184 298/71/184 299/72/184
f 295/67/185 299/72/185 300/73/185
f 296/62/186 300/73/186 301/69/186
f 297/70/187 301/69/187 302/75/187
f 298/74/188 297/70/188 302/76/188
f 299/72/189 298/71/189 302/77/189
f 300/73/190 299/72/190 302/78/190
f 301/69/191 300/73/191 302/79/191
f 303/58/192 304/59/192 305/60/192
f 304/59/193 303/61/193 308/62/193
f 303/63/194 305/64/194 306/65/194
f 303/66/195 306/65/195 307/67/195
f 303/68/196 307/67/196 308/62/196
f 304/59/197 308/62/197 313/69/197
f 305/60/198 304/59/198 309/70/198
f 306/65/199 305/64/199 310/71/199
f 307/67/200 306/65/200 311/72/200
f 308/62/201 307/67/201 312/73/201
f 304/59/202 313/69/202 309/70/202
f 305/60/203 309/70/203 310/74/203
f 306/65/204 310/71/204 311/72/204
f 307/67/205 311/72/205 312/73/205
f 308/62/206 312/73/206 313/69/206
f 309/70/207 313/69/207 314/75/207
f 310/74/208 309/70/208 314/76/208
f 311/72/209 310/71/209 314/77/209
f 312/73/210 311/72/210 314/78/210
f 313/69/211 312/73/211 314/79/211
f 315/58/212 316/59/212 317/60/212
f 316/59/213 315/61/213 320/62/213
f 315/63/214 317/64/214 318/65/214
f 315/66/215 318/65/215 319/67/215
f 315/68/216 319/67/216 320/62/216
f 316/59/217 320/62/217 325/69/217
f 317/60/218 316/59/218 321/70/218
f 318/65/219 317/64/219 322/71/219
f 319/67/220 318/65/220 323/72/220
f 320/62/221 319/67/221 324/73/221
f 316/59/222 325/69/222 321/70/222
f 317/60/223 321/70/223 322/74/223
f 318/65/224 322/71/224 323/72/224
f 319/67/225 323/72/225 324/73/225
f 320/62/226 324/73/226 325/69/226
f 321/70/227 325/69/227 326/75/227
f 322/74/228 321/70/228 326/76/228
f 323/72/229 322/71/229 326/77/229
f 324/73/230 323/72/230 326/78/230
f 325/69/231 324/73/231 326/79/231
f 327/58/232 328/59/232 329/60/232
f 328/59/233 327/61/233 332/62/233
f 327/63/234 329/64/234 330/65/234
f 327/66/235 330/65/235 331/67/235
f 327/68/236 331/67/236 332/62/236
f 328/59/237 332/62/237 337/69/237
f 329/60/238 328/59/238 333/70/238
f 330/65/239 329/64/239 334/71/239
f 331/67/240 330/65/240 335/72/240
f 332/62/241 331/67/241 336/73/241
f 328/59/242 337/69/242 333/70/242
f 329/60/243 333/70/243 334/74/243
f 330/65/244 334/71/244 335/72/244
f 331/67/412 335/72/412 336/73/412
f 332/62/246 336/73/246 337/69/246
f 333/70/247 337/69/247 338/75/247
f 334/74/248 333/70/248 338/76/248
f 335/72/249 334/71/249 338/77/249
f 336/73/250 335/72/250 338/78/250
f 337/69/251 336/73/251 338/79/251
f 339/58/252 340/59/252 341/60/252
f 340/59/253 339/61/253 344/62/253
f 339/63/254 341/64/254 342/65/254
f 339/66/255 342/65/255 343/67/255
f 339/68/256 343/67/256 344/62/256
f 340/59/257 344/62/257 349/69/257
f 341/60/258 340/59/258 345/70/258
f 342/65/259 341/64/259 346/71/259
f 343/67/260 342/65/260 347/72/260
f 344/62/261 343/67/261 348/73/261
f 340/59/262 349/69/262 345/70/262
f 341/60/263 345/70/263 346/74/263
f 342/65/264 346/71/264 347/72/264
f 343/67/265 347/72/265 348/73/265
f 344/62/266 348/73/266 349/69/266
f 345/70/267 349/69/267 350/75/267
f 346/74/268 345/70/268 350/76/268
f 347/72/269 346/71/269 350/77/269
f 348/73/270 347/72/270 350/78/270
f 349/69/271 348/73/271 350/79/271
f 351/58/272 352/59/272 353/60/272
f 352/59/273 351/61/273 356/62/273
f 351/63/274 353/64/274 354/65/274
f 351/66/275 354/65/275 355/67/275
f 351/68/276 355/67/276 356/62/276
f 352/59/277 356/62/277 361/69/277
f 353/60/278 352/59/278 357/70/278
f 354/65/279 353/64/279 358/71/279
f 355/67/280 354/65/280 359/72/280
f 356/62/281 355/67/281 360/73/281
f 352/59/282 361/69/282 357/70/282
f 353/60/283 357/70/283 358/74/283
f 354/65/284 358/71/284 359/72/284
f 355/67/285 359/72/285 360/73/285
f 356/62/286 360/73/286 361/69/286
f 357/70/287 361/69/287 362/75/287
f 358/74/288 357/70/288 362/76/288
f 359/72/289 358/71/289 362/77/289
f 360/73/290 359/72/290 362/78/290
f 361/69/291 360/73/291 362/79/291
f 363/58/292 364/59/292 365/60/292
f 364/59/293 363/61/293 368/62/293
f 363/63/294 365/64/294 366/65/294
f 363/66/295 366/65/295 367/67/295
f 363/68/296 367/67/296 368/62/296
f 364/59/297 368/62/297 373/69/297
f 365/60/298 364/59/298 369/70/298
f 366/65/299 365/64/299 370/71/299
f 367/67/300 366/65/300 371/72/300
f 368/62/301 367/67/301 372/73/301
f 364/59/302 373/69/302 369/70/302
f 365/60/303 369/70/303 370/74/303
f 366/65/304 370/71/304 371/72/304
f 367/67/305 371/72/305 372/73/305
f 368/62/306 372/73/306 373/69/306
f 369/70/307 373/69/307 374/75/307
f 370/74/308 369/70/308 374/76/308
f 371/72/309 370/71/309 374/77/309
f 372/73/310 371/72/310 374/78/310
f 373/69/311 372/73/311 374/79/311
f 375/58/312 376/59/312 377/60/312
f 376/59/313 375/61/313 380/62/313
f 375/63/314 377/64/314 378/65/314
f 375/66/315 378/65/315 379/67/315
f 375/68/316 379/67/316 380/62/316
f 376/59/317 380/62/317 385/69/317
f 377/60/413 376/59/413 381/70/413
f 378/65/319 377/64/319 382/71/319
f 379/67/320 378/65/320 383/72/320
f 380/62/321 379/67/321 384/73/321
f 376/59/322 385/69/322 381/70/322
f 377/60/323 381/70/323 382/74/323
f 378/65/324 382/71/324 383/72/324
f 379/67/325 383/72/325 384/73/325
f 380/62/326 384/73/326 385/69/326
f 381/70/327 385/69/327 386/75/327
f 382/74/328 381/70/328 386/76/328
f 383/72/329 382/71/329 386/77/329
f 384/73/330 383/72/330 386/78/330
f 385/69/331 384/73/331 386/79/331
f 387/58/332 388/59/332 389/60/332
f 388/59/333 387/61/333 392/62/333
f 387/63/334 389/64/334 390/65/334
f 387/66/335 390/65/335 391/67/335
f 387/68/336 391/67/336 392/62/336
f 388/59/337 392/62/337 397/69/337
f 389/60/338 388/59/338 393/70/338
f 390/65/339 389/64/339 394/71/339
f 391/67/340 390/65/340 395/72/340
f 392/62/341 391/67/341 396/73/341
f 388/59/342 397/69/342 393/70/342
f 389/60/343 393/70/343 394/74/343
f 390/65/344 394/71/344 395/72/344
f 391/67/345 395/72/345 396/73/345
f 392/62/346 396/73/346 397/69/346
f 393/70/347 397/69/347 398/75/347
f 394/74/348 393/70/348 398/76/348
f 395/72/349 394/71/349 398/77/349
f 396/73/350 395/72/350 398/78/350
f 397/69/351 396/73/351 398/79/351
f 399/58/352 400/59/352 401/60/352
f 400/59/353 399/61/353 404/62/353
f 399/63/354 401/64/354 402/65/354
f 399/66/355 402/65/355 403/67/355
f 399/68/356 403/67/356 404/62/356
f 400/59/414 404/62/414 409/69/414
f 401/60/358 400/59/358 405/70/358
f 402/65/359 401/64/359 406/71/359
f 403/67/360 402/65/360 407/72/360
f 404/62/415 403/67/415 408/73/415
f 400/59/362 409/69/362 405/70/362
f 401/60/363 405/70/363 406/74/363
f 402/65/416 406/71/416 407/72/416
f 403/67/417 407/72/417 408/73/417
f 404/62/366 408/73/366 409/69/366
f 405/70/418 409/69/418 410/75/418
f 406/74/368 405/70/368 410/76/368
f 407/72/369 406/71/369 410/77/369
f 408/73/370 407/72/370 410/78/370
f 409/69/371 408/73/371 410/79/371
f 411/58/372 412/59/372 413/60/372
f 412/59/373 411/61/373 416/62/373
f 411/63/374 413/64/374 414/65/374
f 411/66/375 414/65/375 415/67/375
f 411/68/376 415/67/376 416/62/376
f 412/59/377 416/62/377 421/69/377
f 413/60/378 412/59/378 417/70/378
f 414/65/379 413/64/379 418/71/379
f 415/67/380 414/65/380 419/72/380
f 416/62/381 415/67/381 420/73/381
f 412/59/382 421/69/382 417/70/382
f 413/60/383 417/70/383 418/74/383
f 414/65/384 418/71/384 419/72/384
f 415/67/385 419/72/385 420/73/385
f 416/62/386 420/73/386 421/69/386
f 417/70/387 421/69/387 422/75/387
f 418/74/388 417/70/388 422/76/388
f 419/72/389 418/71/389 422/77/389
f 420/73/390 419/72/390 422/78/390
f 421/69/391 420/73/391 422/79/391
f 423/58/392 424/59/392 425/60/392
f 424/59/393 423/61/393 428/62/393
f 423/63/394 425/64/394 426/65/394
f 423/66/395 426/65/395 427/67/395
f 423/68/419 427/67/419 428/62/419
f 424/59/397 428/62/397 433/69/397
f 425/60/398 424/59/398 429/70/398
f 426/65/399 425/64/399 430/71/399
f 427/67/400 426/65/400 431/72/400
f 428/62/401 427/67/401 432/73/401
f 424/59/402 433/69/402 429/70/402
f 425/60/403 429/70/403 430/74/403
f 426/65/404 430/71/404 431/72/404
f 427/67/405 431/72/405 432/73/405
f 428/62/406 432/73/406 433/69/406
f 429/70/407 433/69/407 434/75/407
f 430/74/420 429/70/420 434/76/420
f 431/72/409 430/71/409 434/77/409
f 432/73/410 431/72/410 434/78/410
f 433/69/411 432/73/411 434/79/411
f 435/58/152 436/59/152 437/60/152
f 436/59/153 435/61/153 440/62/153
f 435/63/154 437/64/154 438/65/154
f 435/66/155 438/65/155 439/67/155
f 435/68/156 439/67/156 440/62/156
f 436/59/157 440/62/157 445/69/157
f 437/60/158 436/59/158 441/70/158
f 438/65/159 437/64/159 442/71/159
f 439/67/160 438/65/160 443/72/160
f 440/62/161 439/67/161 444/73/161
f 436/59/162 445/69/162 441/70/162
f 437/60/163 441/70/163 442/74/163
f 438/65/164 442/71/164 443/72/164
f 439/67/165 443/72/165 444/73/165
f 440/62/166 444/73/166 445/69/166
f 441/70/167 445/69/167 446/75/167
f 442/74/168 441/70/168 446/76/168
f 443/72/169 442/71/169 446/77/169
f 444/73/170 443/72/170 446/78/170
f 445/69/171 444/73/171 446/79/171
f 447/58/172 448/59/172 449/60/172
f 448/59/173 447/61/173 452/62/173
f 447/63/174 449/64/174 450/65/174
f 447/66/175 450/65/175 451/67/175
f 447/68/176 451/67/176 452/62/176
f 448/59/177 452/62/177 457/69/177
f 449/60/178 448/59/178 453/70/178
f 450/65/179 449/64/179 454/71/179
f 451/67/180 450/65/180 455/72/180
f 452/62/181 451/67/181 456/73/181
f 448/59/182 457/69/182 453/70/182
f 449/60/183 453/70/183 454/74/183
f 450/65/184 454/71/184 455/72/184
f 451/67/185 455/72/185 456/73/185
f 452/62/186 456/73/186 457/69/186
f 453/70/187 457/69/187 458/75/187
f 454/74/188 453/70/188 458/76/188
f 455/72/189 454/71/189 458/77/189
f 456/73/190 455/72/190 458/78/190
f 457/69/191 456/73/191 458/79/191
f 459/58/192 460/59/192 461/60/192
f 460/59/193 459/61/193 464/62/193
f 459/63/194 461/64/194 462/65/194
f 459/66/195 462/65/195 463/67/195
f 459/68/196 463/67/196 464/62/196
f 460/59/197 464/62/197 469/69/197
f 461/60/198 460/59/198 465/70/198
f 462/65/199 461/64/199 466/71/199
f 463/67/200 462/65/200 467/72/200
f 464/62/201 463/67/201 468/73/201
f 460/59/202 469/69/202 465/70/202
f 461/60/203 465/70/203 466/74/203
f 462/65/204 466/71/204 467/72/204
f 463/67/205 467/72/205 468/73/205
f 464/62/206 468/73/206 469/69/206
f 465/70/207 469/69/207 470/75/207
f 466/74/208 465/70/208 470/76/208
f 467/72/209 466/71/209 470/77/209
f 468/73/210 467/72/210 470/78/210
f 469/69/211 468/73/211 470/79/211
f 471/58/212 472/59/212 473/60/212
f 472/59/213 471/61/213 476/62/213
f 471/63/214 473/64/214 474/65/214
f 471/66/215 474/65/215 475/67/215
f 471/68/216 475/67/216 476/62/216
f 472/59/217 476/62/217 481/69/217
f 473/60/218 472/59/218 477/70/218
f 474/65/219 473/64/219 478/71/219
f 475/67/220 474/65/220 479/72/220
f 476/62/221 475/67/221 480/73/221
f 472/59/222 481/69/222 477/70/222
f 473/60/223 477/70/223 478/74/223
f 474/65/224 478/71/224 479/72/224
f 475/67/225 479/72/225 480/73/225
f 476/62/226 480/73/226 481/69/226
f 477/70/227 481/69/227 482/75/227
f 478/74/228 477/70/228 482/76/228
f 479/72/229 478/71/229 482/77/229
f 480/73/230 479/72/230 482/78/230
f 481/69/231 480/73/231 482/79/231
f 483/58/232 484/59/232 485/60/232
f 484/59/233 483/61/233 488/62/233
f 483/63/234 485/64/234 486/65/234
f 483/66/235 486/65/235 487/67/235
f 483/68/236 487/67/236 488/62/236
f 484/59/237 488/62/237 493/69/237
f 485/60/238 484/59/238 489/70/238
f 486/65/239 485/64/239 490/71/239
f 487/67/240 486/65/240 491/72/240
f 488/62/241 487/67/241 492/73/241
f 484/59/242 493/69/242 489/70/242
f 485/60/243 489/70/243 490/74/243
f 486/65/244 490/71/244 491/72/244
f 487/67/412 491/72/412 492/73/412
f 488/62/246 492/73/246 493/69/246
f 489/70/247 493/69/247 494/75/247
f 490/74/248 489/70/248 494/76/248
f 491/72/249 490/71/249 494/77/249
f 492/73/250 491/72/250 494/78/250
f 493/69/251 492/73/251 494/79/251
f 495/58/252 496/59/252 497/60/252
f 496/59/253 495/61/253 500/62/253
f 495/63/254 497/64/254 498/65/254
f 495/66/255 498/65/255 499/67/255
f 495/68/256 499/67/256 500/62/256
f 496/59/257 500/62/257 505/69/257
f 497/60/258 496/59/258 501/70/258
f 498/65/259 497/64/259 502/71/259
f 499/67/260 498/65/260 503/72/260
f 500/62/261 499/67/261 504/73/261
f 496/59/262 505/69/262 501/70/262
f 497/60/263 501/70/263 502/74/263
f 498/65/264 502/71/264 503/72/264
f 499/67/265 503/72/265 504/73/265
f 500/62/266 504/73/266 505/69/266
f 501/70/267 505/69/267 506/75/267
f 502/74/268 501/70/268 506/76/268
f 503/72/269 502/71/269 506/77/269
f 504/73/270 503/72/270 506/78/270
f 505/69/271 504/73/271 506/79/271
f 507/58/272 508/59/272 509/60/272
f 508/59/273 507/61/273 512/62/273
f 507/63/274 509/64/274 510/65/274
f 507/66/275 510/65/275 511/67/275
f 507/68/276 511/67/276 512/62/276
f 508/59/277 512/62/277 517/69/277
f 509/60/278 508/59/278 513/70/278
f 510/65/279 509/64/279 514/71/279
f 511/67/280 510/65/280 515/72/280
f 512/62/281 511/67/281 516/73/281
f 508/59/282 517/69/282 513/70/282
f 509/60/283 513/70/283 514/74/283
f 510/65/284 514/71/284 515/72/284
f 511/67/285 515/72/285 516/73/285
f 512/62/286 516/73/286 517/69/286
f 513/70/287 517/69/287 518/75/287
f 514/74/288 513/70/288 518/76/288
f 515/72/289 514/71/289 518/77/289
f 516/73/290 515/72/290 518/78/290
f 517/69/291 516/73/291 518/79/291
f 519/58/292 520/59/292 521/60/292
f 520/59/293 519/61/293 524/62/293
f 519/63/294 521/64/294 522/65/294
f 519/66/295 522/65/295 523/67/295
f 519/68/296 523/67/296 524/62/296
f 520/59/297 524/62/297 529/69/297
f 521/60/298 520/59/298 525/70/298
f 522/65/299 521/64/299 526/71/299
f 523/67/300 522/65/300 527/72/300
f 524/62/301 523/67/301 528/73/301
f 520/59/302 529/69/302 525/70/302
f 521/60/303 525/70/303 526/74/303
f 522/65/304 526/71/304 527/72/304
f 523/67/305 527/72/305 528/73/305
f 524/62/306 528/73/306 529/69/306
f 525/70/307 529/69/307 530/75/307
f 526/74/308 525/70/308 530/76/308
f 527/72/309 526/71/309 530/77/309
f 528/73/310 527/72/310 530/78/310
f 529/69/311 528/73/311 530/79/311
f 531/58/312 532/59/312 533/60/312
f 532/59/313 531/61/313 536/62/313
f 531/63/314 533/64/314 534/65/314
f 531/66/315 534/65/315 535/67/315
f 531/68/316 535/67/316 536/62/316
f 532/59/317 536/62/317 541/69/317
f 533/60/413 532/59/413 537/70/413
f 534/65/319 533/64/319 538/71/319
f 535/67/320 534/65/320 539/72/320
f 536/62/321 535/67/321 540/73/321
f 532/59/322 541/69/322 537/70/322
f 533/60/323 537/70/323 538/74/323
f 534/65/324 538/71/324 539/72/324
f 535/67/325 539/72/325 540/73/325
f 536/62/326 540/73/326 541/69/326
f 537/70/327 541/69/327 542/75/327
f 538/74/328 537/70/328 542/76/328
f 539/72/329 538/71/329 542/77/329
f 540/73/330 539/72/330 542/78/330
f 541/69/331 540/73/331 542/79/331
f 543/58/332 544/59/332 545/60/332
f 544/59/333 543/61/333 548/62/333
f 543/63/334 545/64/334 546/65/334
f 543/66/335 546/65/335 547/67/335
f 543/68/336 547/67/336 548/62/336
f 544/59/337 548/62/337 553/69/337
f 545/60/338 544/59/338 549/70/338
f 546/65/339 545/64/339 550/71/339
f 547/67/340 546/65/340 551/72/340
f 548/62/341 547/67/341 552/73/341
f 544/59/342 553/69/342 549/70/342
f 545/60/343 549/70/343 550/74/343
f 546/65/344 550/71/344 551/72/344
f 547/67/345 551/72/345 552/73/345
f 548/62/346 552/73/346 553/69/346
f 549/70/347 553/69/347 554/75/347
f 550/74/348 549/70/348 554/76/348
f 551/72/349 550/71/349 554/77/349
f 552/73/350 551/72/350 554/78/350
f 553/69/351 552/73/351 554/79/351
f 555/58/352 556/59/352 557/60/352
f 556/59/353 555/61/353 560/62/353
f 555/63/354 557/64/354 558/65/354
f 555/66/355 558/65/355 559/67/355
f 555/68/356 559/67/356 560/62/356
f 556/59/414 560/62/414 565/69/414
f 557/60/358 556/59/358 561/70/358
f 558/65/359 557/64/359 562/71/359
f 559/67/360 558/65/360 563/72/360
f 560/62/415 559/67/415 564/73/415
f 556/59/362 565/69/362 561/70/362
f 557/60/421 561/70/421 562/74/421
f 558/65/364 562/71/364 563/72/364
f 559/67/417 563/72/417 564/73/417
f 560/62/366 564/73/366 565/69/366
f 561/70/418 565/69/418 566/75/418
f 562/74/368 561/70/368 566/76/368
f 563/72/369 562/71/369 566/77/369
f 564/73/370 563/72/370 566/78/370
f 565/69/371 564/73/371 566/79/371
f 567/58/372 568/59/372 569/60/372
f 568/59/373 567/61/373 572/62/373
f 567/63/374 569/64/374 570/65/374
f 567/66/375 570/65/375 571/67/375
f 567/68/376 571/67/376 572/62/376
f 568/59/377 572/62/377 577/69/377
f 569/60/378 568/59/378 573/70/378
f 570/65/379 569/64/379 574/71/379
f 571/67/380 570/65/380 575/72/380
f 572/62/381 571/67/381 576/73/381
f 568/59/382 577/69/382 573/70/382
f 569/60/383 573/70/383 574/74/383
f 570/65/384 574/71/384 575/72/384
f 571/67/385 575/72/385 576/73/385
f 572/62/386 576/73/386 577/69/386
f 573/70/387 577/69/387 578/75/387
f 574/74/388 573/70/388 578/76/388
f 575/72/389 574/71/389 578/77/389
f 576/73/390 575/72/390 578/78/390
f 577/69/391 576/73/391 578/79/391
f 579/58/392 580/59/392 581/60/392
f 580/59/393 579/61/393 584/62/393
f 579/63/394 581/64/394 582/65/394
f 579/66/395 582/65/395 583/67/395
f 579/68/419 583/67/419 584/62/419
f 580/59/397 584/62/397 589/69/397
f 581/60/398 580/59/398 585/70/398
f 582/65/399 581/64/399 586/71/399
f 583/67/400 582/65/400 587/72/400
f 584/62/401 583/67/401 588/73/401
f 580/59/402 589/69/402 585/70/402
f 581/60/403 585/70/403 586/74/403
f 582/65/404 586/71/404 587/72/404
f 583/67/405 587/72/405 588/73/405
f 584/62/406 588/73/406 589/69/406
f 585/70/407 589/69/407 590/75/407
f 586/74/408 585/70/408 590/76/408
f 587/72/409 586/71/409 590/77/409
f 588/73/410 587/72/410 590/78/410
f 589/69/411 588/73/411 590/79/411
