# Blender 4.0.2
# www.blender.org
mtllib 1_sapling.mtl
o krandorian_1_sapling
v 0.000000 -0.150000 0.000000
v 0.000000 -0.150000 0.020000
v -0.088168 -0.121353 0.000000
v -0.088168 -0.121353 0.020000
v -0.142658 -0.046353 0.000000
v -0.142658 -0.046353 0.020000
v -0.142658 0.046353 0.000000
v -0.142658 0.046353 0.020000
v -0.088168 0.121353 0.000000
v -0.088168 0.121353 0.020000
v 0.000000 0.150000 0.000000
v 0.000000 0.150000 0.020000
v 0.088168 0.121353 0.000000
v 0.088168 0.121353 0.020000
v 0.142658 0.046353 0.000000
v 0.142658 0.046353 0.020000
v 0.142658 -0.046353 0.000000
v 0.142658 -0.046353 0.020000
v 0.088168 -0.121353 0.000000
v 0.088168 -0.121353 0.020000
v 0.000000 -0.018000 0.020000
v 0.000000 -0.018000 0.240000
v -0.015588 -0.009000 0.020000
v -0.015588 -0.009000 0.240000
v -0.015588 0.009000 0.020000
v -0.015588 0.009000 0.240000
v 0.000000 0.018000 0.020000
v 0.000000 0.018000 0.240000
v 0.015588 0.009000 0.020000
v 0.015588 0.009000 0.240000
v 0.015588 -0.009000 0.020000
v 0.015588 -0.009000 0.240000
v -0.101962 0.030000 0.138700
v -0.140307 0.064887 0.142183
v -0.076275 0.035797 0.142183
v -0.047740 -0.001305 0.142183
v -0.094138 0.004856 0.142183
v -0.151348 0.045765 0.142183
v -0.109785 0.055144 0.147817
v -0.052576 0.014235 0.147817
v -0.063616 -0.004887 0.147817
v -0.127648 0.024203 0.147817
v -0.156183 0.061305 0.147817
v -0.101962 0.030000 0.151300
v -0.107956 0.015529 0.138700
v -0.154024 0.039303 0.142183
v -0.084644 0.027777 0.142183
v -0.047479 -0.000675 0.142183
v -0.093891 -0.006733 0.142183
v -0.159739 0.017975 0.142183
v -0.122020 0.037791 0.147817
v -0.056172 0.013083 0.147817
v -0.061887 -0.008244 0.147817
v -0.131267 0.003282 0.147817
v -0.168432 0.031734 0.147817
v -0.107956 0.015529 0.151300
v -0.110000 0.000000 0.138700
v -0.160652 0.011040 0.142183
v -0.090653 0.017863 0.142183
v -0.047390 0.000000 0.142183
v -0.090653 -0.017863 0.142183
v -0.160652 -0.011040 0.142183
v -0.129347 0.017863 0.147817
v -0.059348 0.011040 0.147817
v -0.059348 -0.011040 0.147817
v -0.129347 -0.017863 0.147817
v -0.172610 0.000000 0.147817
v -0.110000 0.000000 0.151300
v -0.107956 -0.015529 0.138700
v -0.159739 -0.017975 0.142183
v -0.093891 0.006733 0.142183
v -0.047479 0.000675 0.142183
v -0.084644 -0.027777 0.142183
v -0.154024 -0.039303 0.142183
v -0.131267 -0.003282 0.147817
v -0.061887 0.008244 0.147817
v -0.056172 -0.013083 0.147817
v -0.122020 -0.037791 0.147817
v -0.168432 -0.031734 0.147817
v -0.107956 -0.015529 0.151300
v -0.101962 -0.030000 0.138700
v -0.151348 -0.045765 0.142183
v -0.094138 -0.004856 0.142183
v -0.047740 0.001305 0.142183
v -0.076275 -0.035797 0.142183
v -0.140307 -0.064887 0.142183
v -0.127648 -0.024203 0.147817
v -0.063616 0.004887 0.147817
v -0.052576 -0.014235 0.147817
v -0.109785 -0.055144 0.147817
v -0.156183 -0.061305 0.147817
v -0.101962 -0.030000 0.151300
v 0.101962 -0.030000 0.138700
v 0.140307 -0.064887 0.142183
v 0.076275 -0.035797 0.142183
v 0.047740 0.001305 0.142183
v 0.094138 -0.004856 0.142183
v 0.151348 -0.045765 0.142183
v 0.109785 -0.055144 0.147817
v 0.052576 -0.014235 0.147817
v 0.063616 0.004887 0.147817
v 0.127648 -0.024203 0.147817
v 0.156183 -0.061305 0.147817
v 0.101962 -0.030000 0.151300
v 0.107956 -0.015529 0.138700
v 0.154024 -0.039303 0.142183
v 0.084644 -0.027777 0.142183
v 0.047479 0.000675 0.142183
v 0.093891 0.006733 0.142183
v 0.159739 -0.017975 0.142183
v 0.122020 -0.037791 0.147817
v 0.056172 -0.013083 0.147817
v 0.061887 0.008245 0.147817
v 0.131267 -0.003282 0.147817
v 0.168432 -0.031734 0.147817
v 0.107956 -0.015529 0.151300
v 0.110000 -0.000000 0.138700
v 0.160652 -0.011040 0.142183
v 0.090653 -0.017863 0.142183
v 0.047390 -0.000000 0.142183
v 0.090653 0.017863 0.142183
v 0.160652 0.011040 0.142183
v 0.129347 -0.017863 0.147817
v 0.059348 -0.011040 0.147817
v 0.059348 0.011040 0.147817
v 0.129347 0.017863 0.147817
v 0.172610 0.000000 0.147817
v 0.110000 -0.000000 0.151300
v 0.107956 0.015529 0.138700
v 0.159739 0.017975 0.142183
v 0.093891 -0.006733 0.142183
v 0.047479 -0.000675 0.142183
v 0.084644 0.027777 0.142183
v 0.154024 0.039303 0.142183
v 0.131267 0.003282 0.147817
v 0.061887 -0.008244 0.147817
v 0.056172 0.013083 0.147817
v 0.122020 0.037791 0.147817
v 0.168432 0.031734 0.147817
v 0.107956 0.015529 0.151300
v 0.101962 0.030000 0.138700
v 0.151348 0.045765 0.142183
v 0.094138 0.004856 0.142183
v 0.047740 -0.001305 0.142183
v 0.076275 0.035797 0.142183
v 0.140307 0.064887 0.142183
v 0.127648 0.024203 0.147817
v 0.063616 -0.004887 0.147817
v 0.052576 0.014235 0.147817
v 0.109785 0.055144 0.147817
v 0.156183 0.061305 0.147817
v 0.101962 0.030000 0.151300
vn -0.3090 -0.9511 -0.0000
vn -0.8090 -0.5878 -0.0000
vn -1.0000 -0.0000 -0.0000
vn -0.8090 0.5878 -0.0000
vn -0.3090 0.9511 -0.0000
vn 0.3090 0.9511 -0.0000
vn 0.8090 0.5878 -0.0000
vn 1.0000 -0.0000 -0.0000
vn -0.0000 -0.0000 1.0000
vn 0.8090 -0.5878 -0.0000
vn 0.3090 -0.9511 -0.0000
vn -0.0000 -0.0000 -1.0000
vn -0.5000 -0.8660 -0.0000
vn -0.5000 0.8660 -0.0000
vn 0.5000 0.8660 -0.0000
vn 0.5000 -0.8660 -0.0000
vn 0.0885 0.1948 -0.9768
vn -0.0594 0.0343 -0.9976
vn 0.1143 0.0879 -0.9895
vn -0.0190 -0.1430 -0.9895
vn -0.1244 -0.1740 -0.9768
vn -0.3692 0.2131 -0.9046
vn 0.3442 0.7577 -0.5544
vn 0.5602 0.4309 -0.7075
vn -0.0930 -0.7006 -0.7075
vn -0.4841 -0.6770 -0.5544
vn 0.0930 0.7006 0.7075
vn 0.4841 0.6770 0.5544
vn 0.3692 -0.2131 0.9046
vn -0.3442 -0.7577 0.5544
vn -0.5602 -0.4309 0.7075
vn 0.0190 0.1430 0.9895
vn 0.1244 0.1740 0.9768
vn 0.0594 -0.0343 0.9976
vn -0.0885 -0.1948 0.9768
vn -0.1143 -0.0879 0.9895
vn 0.0351 0.2110 -0.9768
vn -0.0663 0.0178 -0.9976
vn 0.0877 0.1145 -0.9895
vn 0.0187 -0.1430 -0.9895
vn -0.0752 -0.2003 -0.9768
vn -0.4117 0.1103 -0.9046
vn 0.1364 0.8210 -0.5544
vn 0.4296 0.5612 -0.7075
vn 0.0915 -0.7008 -0.7075
vn -0.2924 -0.7792 -0.5544
vn -0.0915 0.7008 0.7075
vn 0.2924 0.7792 0.5544
vn 0.4118 -0.1103 0.9046
vn -0.1364 -0.8210 0.5544
vn -0.4296 -0.5612 0.7075
vn -0.0187 0.1430 0.9895
vn 0.0752 0.2003 0.9768
vn 0.0663 -0.0178 0.9976
vn -0.0351 -0.2110 0.9768
vn -0.0877 -0.1145 0.9895
vn -0.0208 0.2129 -0.9768
vn -0.0686 -0.0000 -0.9976
vn 0.0550 0.1333 -0.9895
vn 0.0550 -0.1333 -0.9895
vn -0.0208 -0.2129 -0.9768
vn -0.4263 -0.0000 -0.9046
vn -0.0807 0.8283 -0.5544
vn 0.2697 0.6532 -0.7075
vn 0.2697 -0.6532 -0.7075
vn -0.0807 -0.8283 -0.5544
vn -0.2697 0.6532 0.7075
vn 0.0807 0.8283 0.5544
vn 0.4263 -0.0000 0.9046
vn 0.0807 -0.8283 0.5544
vn -0.2697 -0.6532 0.7075
vn -0.0550 0.1333 0.9895
vn 0.0208 0.2129 0.9768
vn 0.0686 -0.0000 0.9976
vn 0.0208 -0.2129 0.9768
vn -0.0550 -0.1333 0.9895
vn -0.0752 0.2003 -0.9768
vn -0.0663 -0.0178 -0.9976
vn 0.0187 0.1430 -0.9895
vn 0.0877 -0.1145 -0.9895
vn 0.0351 -0.2110 -0.9768
vn -0.4117 -0.1103 -0.9046
vn -0.2924 0.7792 -0.5544
vn 0.0915 0.7008 -0.7075
vn 0.4296 -0.5612 -0.7075
vn 0.1364 -0.8210 -0.5544
vn -0.4296 0.5612 0.7075
vn -0.1364 0.8210 0.5544
vn 0.4118 0.1103 0.9046
vn 0.2924 -0.7792 0.5544
vn -0.0915 -0.7008 0.7075
vn -0.0877 0.1145 0.9895
vn -0.0351 0.2110 0.9768
vn 0.0663 0.0178 0.9976
vn 0.0752 -0.2003 0.9768
vn -0.0187 -0.1430 0.9895
vn -0.1244 0.1740 -0.9768
vn -0.0594 -0.0343 -0.9976
vn -0.0190 0.1430 -0.9895
vn 0.1143 -0.0879 -0.9895
vn 0.0885 -0.1948 -0.9768
vn -0.3692 -0.2131 -0.9046
vn -0.4841 0.6770 -0.5544
vn -0.0930 0.7006 -0.7075
vn 0.5602 -0.4309 -0.7075
vn 0.3442 -0.7577 -0.5544
vn -0.5602 0.4309 0.7075
vn -0.3442 0.7577 0.5544
vn 0.3692 0.2131 0.9046
vn 0.4841 -0.6770 0.5544
vn 0.0930 -0.7006 0.7075
vn -0.1143 0.0879 0.9895
vn -0.0885 0.1948 0.9768
vn 0.0594 0.0343 0.9976
vn 0.1244 -0.1740 0.9768
vn 0.0190 -0.1430 0.9895
vn -0.0885 -0.1948 -0.9768
vn 0.0594 -0.0343 -0.9976
vn -0.1143 -0.0879 -0.9895
vn 0.0190 0.1430 -0.9895
vn 0.1244 0.1740 -0.9768
vn 0.3692 -0.2131 -0.9046
vn -0.3442 -0.7577 -0.5544
vn -0.5602 -0.4309 -0.7075
vn 0.0930 0.7006 -0.7075
vn 0.4841 0.6770 -0.5544
vn -0.0930 -0.7006 0.7075
vn -0.4841 -0.6770 0.5544
vn -0.3692 0.2131 0.9046
vn 0.3442 0.7577 0.5544
vn 0.5602 0.4309 0.7075
vn -0.0190 -0.1430 0.9895
vn -0.1244 -0.1740 0.9768
vn -0.0594 0.0343 0.9976
vn 0.0885 0.1948 0.9768
vn 0.1143 0.0879 0.9895
vn -0.0351 -0.2110 -0.9768
vn 0.0663 -0.0178 -0.9976
vn -0.0877 -0.1145 -0.9895
vn -0.0187 0.1430 -0.9895
vn 0.0752 0.2003 -0.9768
vn 0.4117 -0.1103 -0.9046
vn -0.1364 -0.8210 -0.5544
vn -0.4296 -0.5612 -0.7075
vn -0.0915 0.7008 -0.7075
vn 0.2924 0.7792 -0.5544
vn 0.0915 -0.7008 0.7075
vn -0.2924 -0.7792 0.5544
vn -0.4118 0.1103 0.9046
vn 0.1364 0.8210 0.5544
vn 0.4296 0.5612 0.7075
vn 0.0187 -0.1430 0.9895
vn -0.0752 -0.2003 0.9768
vn -0.0663 0.0178 0.9976
vn 0.0351 0.2110 0.9768
vn 0.0877 0.1145 0.9895
vn 0.0208 -0.2129 -0.9768
vn 0.0686 -0.0000 -0.9976
vn -0.0550 -0.1333 -0.9895
vn -0.0550 0.1333 -0.9895
vn 0.0208 0.2129 -0.9768
vn 0.4263 -0.0000 -0.9046
vn 0.0807 -0.8283 -0.5544
vn -0.2697 -0.6532 -0.7075
vn -0.2697 0.6532 -0.7075
vn 0.0807 0.8283 -0.5544
vn 0.2697 -0.6532 0.7075
vn -0.0807 -0.8283 0.5544
vn -0.4263 -0.0000 0.9046
vn -0.0807 0.8283 0.5544
vn 0.2697 0.6532 0.7075
vn 0.0550 -0.1333 0.9895
vn -0.0208 -0.2129 0.9768
vn -0.0686 -0.0000 0.9976
vn -0.0208 0.2129 0.9768
vn 0.0550 0.1333 0.9895
vn 0.0752 -0.2003 -0.9768
vn 0.0663 0.0178 -0.9976
vn -0.0187 -0.1430 -0.9895
vn -0.0877 0.1145 -0.9895
vn -0.0351 0.2110 -0.9768
vn 0.4117 0.1103 -0.9046
vn 0.2924 -0.7792 -0.5544
vn -0.0915 -0.7008 -0.7075
vn -0.4296 0.5612 -0.7075
vn -0.1364 0.8210 -0.5544
vn 0.4296 -0.5612 0.7075
vn 0.1364 -0.8210 0.5544
vn -0.4118 -0.1103 0.9046
vn -0.2924 0.7792 0.5544
vn 0.0915 0.7008 0.7075
vn 0.0877 -0.1145 0.9895
vn 0.0351 -0.2110 0.9768
vn -0.0663 -0.0178 0.9976
vn -0.0752 0.2003 0.9768
vn 0.0187 0.1430 0.9895
vn 0.1244 -0.1740 -0.9768
vn 0.0594 0.0343 -0.9976
vn 0.0190 -0.1430 -0.9895
vn -0.1143 0.0879 -0.9895
vn -0.0885 0.1948 -0.9768
vn 0.3692 0.2131 -0.9046
vn 0.4841 -0.6770 -0.5544
vn 0.0930 -0.7006 -0.7075
vn -0.5602 0.4309 -0.7075
vn -0.3442 0.7577 -0.5544
vn 0.5602 -0.4309 0.7075
vn 0.3442 -0.7577 0.5544
vn -0.3692 -0.2131 0.9046
vn -0.4841 0.6770 0.5544
vn -0.0930 0.7006 0.7075
vn 0.1143 -0.0879 0.9895
vn 0.0885 -0.1948 0.9768
vn -0.0594 -0.0343 0.9976
vn -0.1244 0.1740 0.9768
vn -0.0190 0.1430 0.9895
vt 1.000000 0.500000
vt 1.000000 1.000000
vt 0.900000 1.000000
vt 0.900000 0.500000
vt 0.800000 1.000000
vt 0.800000 0.500000
vt 0.700000 1.000000
vt 0.700000 0.500000
vt 0.600000 1.000000
vt 0.600000 0.500000
vt 0.500000 1.000000
vt 0.500000 0.500000
vt 0.400000 1.000000
vt 0.400000 0.500000
vt 0.300000 1.000000
vt 0.300000 0.500000
vt 0.200000 1.000000
vt 0.200000 0.500000
vt 0.391068 0.444164
vt 0.250000 0.490000
vt 0.108932 0.444164
vt 0.021746 0.324164
vt 0.021746 0.175836
vt 0.108932 0.055836
vt 0.250000 0.010000
vt 0.391068 0.055836
vt 0.478254 0.175836
vt 0.478254 0.324164
vt 0.100000 1.000000
vt 0.100000 0.500000
vt -0.000000 1.000000
vt -0.000000 0.500000
vt 0.750000 0.490000
vt 0.891068 0.444164
vt 0.978254 0.324164
vt 0.978254 0.175836
vt 0.891068 0.055836
vt 0.750000 0.010000
vt 0.608932 0.055836
vt 0.521746 0.175836
vt 0.521746 0.324164
vt 0.608932 0.444164
vt 0.833333 1.000000
vt 0.833333 0.500000
vt 0.666667 1.000000
vt 0.666667 0.500000
vt 0.500000 1.000000
vt 0.500000 0.500000
vt 0.333333 1.000000
vt 0.333333 0.500000
vt 0.457846 0.370000
vt 0.042154 0.370000
vt 0.042154 0.130000
vt 0.457846 0.130000
vt 0.166667 1.000000
vt 0.166667 0.500000
vt -0.000000 1.000000
vt -0.000000 0.500000
vt 0.957846 0.370000
vt 0.957846 0.130000
vt 0.542154 0.130000
vt 0.542154 0.370000
vt 0.181819 0.000000
vt 0.272728 0.157461
vt 0.090910 0.157461
vt 0.363637 0.000000
vt 0.454546 0.157461
vt 0.909091 0.000000
vt 1.000000 0.157461
vt 0.818182 0.157461
vt 0.727273 0.000000
vt 0.636364 0.157461
vt 0.545455 0.000000
vt 0.363637 0.314921
vt 0.181819 0.314921
vt 0.909091 0.314921
vt 0.727273 0.314921
vt 0.545455 0.314921
vt 0.000000 0.314921
vt 0.272728 0.472382
vt 0.090910 0.472382
vt 0.818182 0.472382
vt 0.636364 0.472382
vt 0.454546 0.472382
s 0
usemtl soil
f 1/1/1 2/2/1 4/3/1 3/4/1
f 3/4/2 4/3/2 6/5/2 5/6/2
f 5/6/3 6/5/3 8/7/3 7/8/3
f 7/8/4 8/7/4 10/9/4 9/10/4
f 9/10/5 10/9/5 12/11/5 11/12/5
f 11/12/6 12/11/6 14/13/6 13/14/6
f 13/14/7 14/13/7 16/15/7 15/16/7
f 15/16/8 16/15/8 18/17/8 17/18/8
f 4/19/9 2/20/9 20/21/9 18/22/9 16/23/9 14/24/9 12/25/9 10/26/9 8/27/9 6/28/9
f 17/18/10 18/17/10 20/29/10 19/30/10
f 19/30/11 20/29/11 2/31/11 1/32/11
f 1/33/12 3/34/12 5/35/12 7/36/12 9/37/12 11/38/12 13/39/12 15/40/12 17/41/12 19/42/12
usemtl pole
f 21/1/13 22/2/13 24/43/13 23/44/13
f 23/44/3 24/43/3 26/45/3 25/46/3
f 25/46/14 26/45/14 28/47/14 27/48/14
f 27/48/15 28/47/15 30/49/15 29/50/15
f 24/51/9 22/20/9 32/52/9 30/53/9 28/25/9 26/54/9
f 29/50/8 30/49/8 32/55/8 31/56/8
f 31/56/16 32/55/16 22/57/16 21/58/16
f 21/33/12 23/59/12 25/60/12 27/38/12 29/61/12 31/62/12
usemtl leaf_dark
f 33/63/17 34/64/17 35/65/17
f 34/64/18 33/66/18 38/67/18
f 33/68/19 35/69/19 36/70/19
f 33/71/20 36/70/20 37/72/20
f 33/73/21 37/72/21 38/67/21
f 34/64/22 38/67/22 43/74/22
f 35/65/23 34/64/23 39/75/23
f 36/70/24 35/69/24 40/76/24
f 37/72/25 36/70/25 41/77/25
f 38/67/26 37/72/26 42/78/26
f 34/64/27 43/74/27 39/75/27
f 35/65/28 39/75/28 40/79/28
f 36/70/29 40/76/29 41/77/29
f 37/72/30 41/77/30 42/78/30
f 38/67/31 42/78/31 43/74/31
f 39/75/32 43/74/32 44/80/32
f 40/79/33 39/75/33 44/81/33
f 41/77/34 40/76/34 44/82/34
f 42/78/35 41/77/35 44/83/35
f 43/74/36 42/78/36 44/84/36
f 57/63/57 58/64/57 59/65/57
f 58/64/58 57/66/58 62/67/58
f 57/68/59 59/69/59 60/70/59
f 57/71/60 60/70/60 61/72/60
f 57/73/61 61/72/61 62/67/61
f 58/64/62 62/67/62 67/74/62
f 59/65/63 58/64/63 63/75/63
f 60/70/64 59/69/64 64/76/64
f 61/72/65 60/70/65 65/77/65
f 62/67/66 61/72/66 66/78/66
f 58/64/67 67/74/67 63/75/67
f 59/65/68 63/75/68 64/79/68
f 60/70/69 64/76/69 65/77/69
f 61/72/70 65/77/70 66/78/70
f 62/67/71 66/78/71 67/74/71
f 63/75/72 67/74/72 68/80/72
f 64/79/73 63/75/73 68/81/73
f 65/77/74 64/76/74 68/82/74
f 66/78/75 65/77/75 68/83/75
f 67/74/76 66/78/76 68/84/76
f 81/63/97 82/64/97 83/65/97
f 82/64/98 81/66/98 86/67/98
f 81/68/99 83/69/99 84/70/99
f 81/71/100 84/70/100 85/72/100
f 81/73/101 85/72/101 86/67/101
f 82/64/102 86/67/102 91/74/102
f 83/65/103 82/64/103 87/75/103
f 84/70/104 83/69/104 88/76/104
f 85/72/105 84/70/105 89/77/105
f 86/67/106 85/72/106 90/78/106
f 82/64/107 91/74/107 87/75/107
f 83/65/108 87/75/108 88/79/108
f 84/70/109 88/76/109 89/77/109
f 85/72/110 89/77/110 90/78/110
f 86/67/111 90/78/111 91/74/111
f 87/75/112 91/74/112 92/80/112
f 88/79/113 87/75/113 92/81/113
f 89/77/114 88/76/114 92/82/114
f 90/78/115 89/77/115 92/83/115
f 91/74/116 90/78/116 92/84/116
f 93/63/117 94/64/117 95/65/117
f 94/64/118 93/66/118 98/67/118
f 93/68/119 95/69/119 96/70/119
f 93/71/120 96/70/120 97/72/120
f 93/73/121 97/72/121 98/67/121
f 94/64/122 98/67/122 103/74/122
f 95/65/123 94/64/123 99/75/123
f 96/70/124 95/69/124 100/76/124
f 97/72/125 96/70/125 101/77/125
f 98/67/126 97/72/126 102/78/126
f 94/64/127 103/74/127 99/75/127
f 95/65/128 99/75/128 100/79/128
f 96/70/129 100/76/129 101/77/129
f 97/72/130 101/77/130 102/78/130
f 98/67/131 102/78/131 103/74/131
f 99/75/132 103/74/132 104/80/132
f 100/79/133 99/75/133 104/81/133
f 101/77/134 100/76/134 104/82/134
f 102/78/135 101/77/135 104/83/135
f 103/74/136 102/78/136 104/84/136
f 117/63/157 118/64/157 119/65/157
f 118/64/158 117/66/158 122/67/158
f 117/68/159 119/69/159 120/70/159
f 117/71/160 120/70/160 121/72/160
f 117/73/161 121/72/161 122/67/161
f 118/64/162 122/67/162 127/74/162
f 119/65/163 118/64/163 123/75/163
f 120/70/164 119/69/164 124/76/164
f 121/72/165 120/70/165 125/77/165
f 122/67/166 121/72/166 126/78/166
f 118/64/167 127/74/167 123/75/167
f 119/65/168 123/75/168 124/79/168
f 120/70/169 124/76/169 125/77/169
f 121/72/170 125/77/170 126/78/170
f 122/67/171 126/78/171 127/74/171
f 123/75/172 127/74/172 128/80/172
f 124/79/173 123/75/173 128/81/173
f 125/77/174 124/76/174 128/82/174
f 126/78/175 125/77/175 128/83/175
f 127/74/176 126/78/176 128/84/176
f 141/63/197 142/64/197 143/65/197
f 142/64/198 141/66/198 146/67/198
f 141/68/199 143/69/199 144/70/199
f 141/71/200 144/70/200 145/72/200
f 141/73/201 145/72/201 146/67/201
f 142/64/202 146/67/202 151/74/202
f 143/65/203 142/64/203 147/75/203
f 144/70/204 143/69/204 148/76/204
f 145/72/205 144/70/205 149/77/205
f 146/67/206 145/72/206 150/78/206
f 142/64/207 151/74/207 147/75/207
f 143/65/208 147/75/208 148/79/208
f 144/70/209 148/76/209 149/77/209
f 145/72/210 149/77/210 150/78/210
f 146/67/211 150/78/211 151/74/211
f 147/75/212 151/74/212 152/80/212
f 148/79/213 147/75/213 152/81/213
f 149/77/214 148/76/214 152/82/214
f 150/78/215 149/77/215 152/83/215
f 151/74/216 150/78/216 152/84/216
usemtl leaf_light
f 45/63/37 46/64/37 47/65/37
f 46/64/38 45/66/38 50/67/38
f 45/68/39 47/69/39 48/70/39
f 45/71/40 48/70/40 49/72/40
f 45/73/41 49/72/41 50/67/41
f 46/64/42 50/67/42 55/74/42
f 47/65/43 46/64/43 51/75/43
f 48/70/44 47/69/44 52/76/44
f 49/72/45 48/70/45 53/77/45
f 50/67/46 49/72/46 54/78/46
f 46/64/47 55/74/47 51/75/47
f 47/65/48 51/75/48 52/79/48
f 48/70/49 52/76/49 53/77/49
f 49/72/50 53/77/50 54/78/50
f 50/67/51 54/78/51 55/74/51
f 51/75/52 55/74/52 56/80/52
f 52/79/53 51/75/53 56/81/53
f 53/77/54 52/76/54 56/82/54
f 54/78/55 53/77/55 56/83/55
f 55/74/56 54/78/56 56/84/56
f 69/63/77 70/64/77 71/65/77
f 70/64/78 69/66/78 74/67/78
f 69/68/79 71/69/79 72/70/79
f 69/71/80 72/70/80 73/72/80
f 69/73/81 73/72/81 74/67/81
f 70/64/82 74/67/82 79/74/82
f 71/65/83 70/64/83 75/75/83
f 72/70/84 71/69/84 76/76/84
f 73/72/85 72/70/85 77/77/85
f 74/67/86 73/72/86 78/78/86
f 70/64/87 79/74/87 75/75/87
f 71/65/88 75/75/88 76/79/88
f 72/70/89 76/76/89 77/77/89
f 73/72/90 77/77/90 78/78/90
f 74/67/91 78/78/91 79/74/91
f 75/75/92 79/74/92 80/80/92
f 76/79/93 75/75/93 80/81/93
f 77/77/94 76/76/94 80/82/94
f 78/78/95 77/77/95 80/83/95
f 79/74/96 78/78/96 80/84/96
f 105/63/137 106/64/137 107/65/137
f 106/64/138 105/66/138 110/67/138
f 105/68/139 107/69/139 108/70/139
f 105/71/140 108/70/140 109/72/140
f 105/73/141 109/72/141 110/67/141
f 106/64/142 110/67/142 115/74/142
f 107/65/143 106/64/143 111/75/143
f 108/70/144 107/69/144 112/76/144
f 109/72/145 108/70/145 113/77/145
f 110/67/146 109/72/146 114/78/146
f 106/64/147 115/74/147 111/75/147
f 107/65/148 111/75/148 112/79/148
f 108/70/149 112/76/149 113/77/149
f 109/72/150 113/77/150 114/78/150
f 110/67/151 114/78/151 115/74/151
f 111/75/152 115/74/152 116/80/152
f 112/79/153 111/75/153 116/81/153
f 113/77/154 112/76/154 116/82/154
f 114/78/155 113/77/155 116/83/155
f 115/74/156 114/78/156 116/84/156
f 129/63/177 130/64/177 131/65/177
f 130/64/178 129/66/178 134/67/178
f 129/68/179 131/69/179 132/70/179
f 129/71/180 132/70/180 133/72/180
f 129/73/181 133/72/181 134/67/181
f 130/64/182 134/67/182 139/74/182
f 131/65/183 130/64/183 135/75/183
f 132/70/184 131/69/184 136/76/184
f 133/72/185 132/70/185 137/77/185
f 134/67/186 133/72/186 138/78/186
f 130/64/187 139/74/187 135/75/187
f 131/65/188 135/75/188 136/79/188
f 132/70/189 136/76/189 137/77/189
f 133/72/190 137/77/190 138/78/190
f 134/67/191 138/78/191 139/74/191
f 135/75/192 139/74/192 140/80/192
f 136/79/193 135/75/193 140/81/193
f 137/77/194 136/76/194 140/82/194
f 138/78/195 137/77/195 140/83/195
f 139/74/196 138/78/196 140/84/196
