# Blender 4.0.2
# www.blender.org
mtllib stage_1.mtl
o corn_stage1
v 0.035000 0.040000 0.130000
v 0.037500 0.047500 0.130000
v 0.022500 0.050000 0.157500
v 0.020000 0.035000 0.157500
v -0.002500 0.035000 0.130000
v -0.012500 0.025000 0.127500
v 0.030000 0.025000 0.157500
v 0.042500 0.035000 0.130000
v 0.002500 0.022500 0.130000
v 0.045000 0.042500 0.130000
v 0.027500 0.072500 0.185000
v 0.037500 0.067500 0.177500
v -0.042500 -0.002500 0.272500
v -0.047500 0.000000 0.270000
v -0.057500 0.000000 0.292500
v -0.052500 -0.002500 0.295000
v -0.040000 0.005000 0.272500
v -0.052500 0.005000 0.297500
v -0.047500 0.007500 0.270000
v -0.057500 0.007500 0.292500
v 0.042500 0.035000 0.287500
v 0.037500 0.040000 0.287500
v 0.045000 0.045000 0.310000
v 0.050000 0.042500 0.307500
v 0.045000 0.042500 0.285000
v 0.052500 0.047500 0.305000
v 0.040000 0.045000 0.285000
v 0.047500 0.052500 0.307500
v 0.012500 -0.040000 0.335000
v 0.007500 -0.042500 0.332500
v -0.000000 -0.050000 0.355000
v 0.005000 -0.047500 0.357500
v -0.002500 -0.045000 0.355000
v 0.002500 -0.042500 0.357500
v 0.010000 -0.035000 0.335000
v 0.005000 -0.037500 0.332500
v -0.050000 0.002500 0.300000
v -0.042500 0.010000 0.300000
v -0.042500 0.010000 0.337500
v -0.050000 0.002500 0.337500
v -0.042500 -0.002500 0.300000
v -0.042500 -0.002500 0.337500
v -0.042500 0.017500 0.350000
v -0.057500 0.005000 0.350000
v -0.042500 -0.007500 0.350000
v -0.045000 -0.015000 0.422500
v -0.057500 -0.005000 0.397500
v -0.052500 0.015000 0.415000
v -0.040000 0.022500 0.430000
v -0.042500 -0.002500 0.250000
v -0.050000 0.002500 0.250000
v -0.042500 0.010000 0.250000
v -0.050000 0.002500 0.187500
v -0.042500 0.010000 0.185000
v -0.042500 -0.002500 0.187500
v -0.057500 -0.010000 0.362500
v -0.045000 -0.017500 0.377500
v -0.040000 0.025000 0.375000
v -0.057500 0.017500 0.352500
v -0.057500 -0.012500 0.277500
v -0.045000 -0.020000 0.277500
v -0.052500 -0.037500 0.250000
v -0.047500 -0.052500 0.250000
v -0.040000 0.022500 0.292500
v -0.055000 0.017500 0.295000
v -0.037500 0.060000 0.282500
v -0.047500 0.042500 0.285000
v -0.042500 -0.002500 -0.002500
v -0.050000 0.002500 0.000000
v -0.042500 0.010000 -0.002500
v -0.047500 -0.002500 0.235000
v -0.042500 -0.007500 0.252500
v -0.035000 0.002500 0.300000
v -0.035000 0.002500 0.337500
v -0.027500 0.002500 0.350000
v -0.030000 -0.007500 0.397500
v -0.030000 0.012500 0.415000
v -0.035000 0.002500 0.250000
v -0.035000 0.002500 0.187500
v -0.030000 -0.012500 0.362500
v -0.025000 0.015000 0.352500
v -0.032500 -0.012500 0.277500
v -0.040000 -0.040000 0.250000
v -0.030000 0.015000 0.295000
v -0.030000 0.040000 0.285000
v -0.037500 0.002500 0.000000
v -0.037500 -0.002500 0.235000
v -0.075000 0.002500 0.307500
v -0.067500 0.010000 0.297500
v -0.070000 -0.007500 0.297500
v 0.012500 -0.042500 0.350000
v 0.005000 -0.040000 0.350000
v 0.002500 -0.040000 0.387500
v 0.012500 -0.042500 0.387500
v 0.015000 -0.032500 0.350000
v 0.015000 -0.032500 0.387500
v -0.002500 -0.042500 0.397500
v 0.015000 -0.050000 0.397500
v 0.017500 -0.030000 0.397500
v 0.025000 -0.027500 0.470000
v 0.025000 -0.045000 0.447500
v 0.007500 -0.050000 0.462500
v -0.007500 -0.045000 0.480000
v 0.015000 -0.032500 0.300000
v 0.012500 -0.042500 0.300000
v 0.005000 -0.040000 0.297500
v 0.012500 -0.042500 0.235000
v 0.005000 -0.040000 0.235000
v 0.015000 -0.032500 0.235000
v 0.027500 -0.040000 0.410000
v 0.027500 -0.025000 0.427500
v -0.010000 -0.047500 0.425000
v 0.005000 -0.055000 0.402500
v 0.030000 -0.040000 0.327500
v 0.027500 -0.025000 0.327500
v 0.047500 -0.022500 0.300000
v 0.057500 -0.010000 0.297500
v -0.007500 -0.045000 0.342500
v 0.005000 -0.052500 0.342500
v -0.040000 -0.062500 0.332500
v -0.020000 -0.062500 0.335000
v 0.015000 -0.032500 0.000000
v 0.012500 -0.042500 0.002500
v 0.005000 -0.040000 0.000000
v 0.040000 -0.042500 0.265000
v 0.052500 -0.030000 0.270000
v 0.005000 -0.030000 0.350000
v 0.005000 -0.030000 0.387500
v -0.000000 -0.025000 0.397500
v 0.010000 -0.020000 0.447500
v -0.005000 -0.030000 0.462500
v 0.005000 -0.030000 0.300000
v 0.005000 -0.030000 0.235000
v 0.015000 -0.017500 0.410000
v -0.010000 -0.030000 0.402500
v 0.017500 -0.017500 0.327500
v 0.042500 -0.010000 0.300000
v -0.007500 -0.032500 0.342500
v -0.027500 -0.047500 0.335000
v 0.005000 -0.030000 0.002500
v 0.035000 -0.025000 0.265000
v 0.047500 0.045000 0.325000
v 0.045000 0.035000 0.325000
v 0.045000 0.035000 0.362500
v 0.047500 0.045000 0.362500
v 0.037500 0.045000 0.325000
v 0.037500 0.045000 0.362500
v 0.047500 0.030000 0.375000
v 0.055000 0.047500 0.375000
v 0.035000 0.050000 0.375000
v 0.032500 0.055000 0.447500
v 0.047500 0.055000 0.422500
v 0.055000 0.037500 0.437500
v 0.050000 0.025000 0.455000
v 0.037500 0.045000 0.275000
v 0.047500 0.045000 0.275000
v 0.045000 0.035000 0.275000
v 0.047500 0.045000 0.212500
v 0.045000 0.035000 0.210000
v 0.037500 0.045000 0.210000
v 0.045000 0.060000 0.385000
v 0.030000 0.057500 0.402500
v 0.052500 0.022500 0.400000
v 0.060000 0.037500 0.377500
v 0.042500 0.060000 0.302500
v 0.030000 0.060000 0.302500
v 0.025000 0.080000 0.275000
v 0.012500 0.087500 0.275000
v 0.050000 0.025000 0.317500
v 0.057500 0.035000 0.317500
v 0.070000 -0.007500 0.307500
v 0.067500 0.012500 0.310000
v 0.037500 0.047500 -0.010000
v 0.045000 0.042500 -0.007500
v 0.047500 0.042500 0.172500
v 0.037500 0.047500 0.177500
v 0.042500 0.035000 -0.010000
v 0.045000 0.035000 0.180000
v 0.042500 0.047500 0.260000
v 0.035000 0.050000 0.277500
v 0.035000 0.037500 0.325000
v 0.035000 0.037500 0.362500
v 0.030000 0.032500 0.375000
v 0.025000 0.040000 0.422500
v 0.035000 0.025000 0.437500
v 0.035000 0.037500 0.275000
v 0.035000 0.037500 0.212500
v 0.022500 0.045000 0.385000
v 0.035000 0.022500 0.377500
v 0.022500 0.047500 0.302500
v 0.012500 0.072500 0.275000
v 0.037500 0.022500 0.317500
v 0.052500 0.002500 0.310000
v 0.035000 0.037500 -0.007500
v 0.035000 0.042500 0.260000
v 0.050000 0.052500 0.217500
v 0.057500 0.050000 0.227500
v 0.055000 0.040000 0.220000
v 0.012500 -0.040000 0.182500
v 0.007500 -0.045000 0.180000
v 0.002500 -0.055000 0.205000
v 0.007500 -0.052500 0.207500
v -0.002500 -0.052500 0.205000
v 0.002500 -0.047500 0.207500
v 0.005000 -0.037500 0.185000
v 0.002500 -0.042500 0.182500
v 0.012500 -0.042500 0.162500
v 0.002500 -0.045000 0.162500
v 0.015000 -0.057500 0.190000
v 0.025000 -0.050000 0.190000
v 0.040000 -0.065000 0.162500
v 0.055000 -0.065000 0.160000
v 0.025000 -0.035000 0.190000
v 0.010000 -0.032500 0.162500
v 0.045000 -0.052500 0.162500
v -0.000000 -0.037500 0.162500
v -0.007500 -0.070000 0.217500
v -0.010000 -0.060000 0.210000
v 0.005000 -0.067500 0.210000
v -0.047500 0.000000 0.145000
v -0.045000 0.007500 0.142500
v -0.047500 0.017500 0.165000
v -0.047500 0.012500 0.167500
v -0.040000 0.017500 0.167500
v -0.040000 0.010000 0.170000
v -0.040000 0.000000 0.145000
v -0.037500 0.005000 0.142500
v -0.047500 0.002500 0.125000
v -0.042500 0.010000 0.125000
v -0.057500 0.015000 0.152500
v -0.062500 0.000000 0.152500
v -0.082500 0.007500 0.125000
v -0.097500 0.000000 0.122500
v -0.057500 -0.010000 0.152500
v -0.042500 -0.005000 0.125000
v -0.082500 -0.005000 0.125000
v -0.035000 0.002500 0.122500
v -0.045000 0.035000 0.180000
v -0.035000 0.027500 0.172500
v -0.052500 0.027500 0.172500
vn 0.8652 -0.1923 0.4632
vn -0.7364 0.3079 0.6025
vn 0.5744 0.6702 0.4700
vn -0.4098 -0.7035 0.5806
vn 0.3390 0.8671 -0.3651
vn 0.3734 0.9127 0.1659
vn -0.8823 0.2167 -0.4179
vn 0.9138 -0.0000 0.4061
vn -0.2945 -0.9454 -0.1395
vn 0.6350 0.1270 -0.7620
vn 0.4839 0.7785 -0.3998
vn -0.8810 0.4307 0.1958
vn 0.8872 -0.4259 -0.1774
vn -0.4839 -0.7785 0.3998
vn -0.5197 -0.1299 -0.8444
vn -0.4924 0.8616 0.1231
vn 0.3651 0.1826 -0.9129
vn -0.8165 -0.4082 -0.4082
vn 0.8165 0.4082 0.4082
vn 0.4924 -0.8616 -0.1231
vn -0.0304 -0.9959 -0.0858
vn 0.5547 0.8321 -0.0000
vn 0.7071 -0.7071 -0.0000
vn 0.4042 0.8916 0.2040
vn 0.3419 -0.9117 0.2279
vn 0.4550 0.7280 0.5129
vn -0.6751 -0.5251 0.5182
vn 0.4901 -0.8274 0.2741
vn -0.0970 0.3174 0.9433
vn 0.5709 0.8188 0.0601
vn -0.9003 0.4235 -0.1004
vn -0.5547 0.8321 -0.0000
vn -0.7071 -0.7071 -0.0000
vn -0.2795 0.9378 0.2059
vn -0.4434 -0.8662 0.2303
vn -0.4738 0.7581 0.4480
vn 0.5948 -0.5948 0.5407
vn -0.6496 -0.7145 0.2598
vn 0.1914 0.2922 0.9370
vn -0.6252 0.7805 0.0041
vn -0.7691 -0.6392 0.0051
vn -0.5709 0.8188 0.0601
vn -0.7686 0.5246 -0.3660
vn -0.8142 -0.3946 -0.4259
vn 0.9206 -0.2762 0.2762
vn -0.9701 0.2425 -0.0000
vn 0.3162 0.9487 -0.0000
vn -0.9792 -0.0413 0.1988
vn 0.5746 0.7869 0.2248
vn -0.8779 -0.0000 0.4789
vn 0.8045 -0.1676 0.5698
vn 0.4091 0.8792 0.2442
vn -0.1423 -0.3023 0.9425
vn -0.6794 0.3045 0.6676
vn 0.1654 0.9099 0.3805
vn -0.2425 -0.9701 -0.0000
vn 1.0000 -0.0000 -0.0000
vn -0.5268 -0.8246 0.2061
vn 0.9526 0.1927 0.2355
vn -0.3954 -0.7908 0.4673
vn 0.2873 0.7663 0.5747
vn 0.9618 -0.0302 0.2722
vn -0.3586 0.0784 0.9302
vn -0.3090 -0.8536 0.4194
vn 0.9487 -0.3162 -0.0000
vn -0.0000 -1.0000 -0.0000
vn 0.2398 -0.9485 0.2071
vn -0.8269 0.5211 0.2114
vn -0.0000 -0.8779 0.4789
vn 0.2415 0.8052 0.5416
vn -0.8650 0.4325 0.2544
vn 0.3105 -0.1302 0.9416
vn -0.4958 -0.8684 0.0034
vn -0.9473 0.3200 0.0128
vn -0.0916 -0.9941 0.0589
vn 0.2425 0.9701 -0.0000
vn 0.7958 -0.5720 0.1989
vn -0.0874 0.9727 0.2149
vn 0.7908 -0.3954 0.4673
vn -0.7779 0.2122 0.5915
vn -0.0000 0.9594 0.2822
vn -0.0000 -0.3162 0.9487
vn 0.9690 -0.2472 -0.0014
vn 0.2695 0.9630 -0.0015
vn 0.9786 -0.2019 0.0388
vn -0.9622 0.2721 -0.0097
vn 0.4364 0.8729 -0.2182
vn 0.9485 -0.2710 -0.1640
vn -0.6499 0.7332 0.2000
vn 0.2308 0.3077 -0.9231
vn -0.5261 -0.7334 -0.4305
vn 0.4876 0.7632 0.4240
vn 0.8210 -0.5598 -0.1120
vn -0.3954 0.7908 0.4673
vn 0.2873 -0.7663 0.5747
vn -0.8972 -0.0897 0.4323
vn 0.7956 0.2387 0.5569
vn -0.8514 -0.3924 -0.3480
vn 0.0570 -0.9011 -0.4298
vn 0.9812 -0.1454 0.1272
vn 0.2403 -0.3605 -0.9013
vn 0.2167 0.8823 -0.4179
vn -0.2151 -0.8911 0.3995
vn -0.9818 0.1498 -0.1165
vn 0.8118 -0.3608 0.4592
vn -0.6323 0.4959 0.5951
vn 0.7636 0.4363 0.4760
vn -0.5530 -0.6506 0.5205
vn 0.4741 0.7993 -0.3693
vn -0.6056 0.6968 -0.3842
vn 0.5946 -0.6690 0.4460
vn 0.5937 0.7634 0.2545
vn -0.5534 -0.8225 -0.1315
vn -0.5672 0.8217 -0.0557
vn -0.6509 -0.6509 0.3906
vn -0.5263 0.7895 0.3158
vn 0.4288 -0.8963 -0.1128
vn 0.6822 0.7273 -0.0752
vn 0.2747 0.9615 0.0092
vn 0.3041 0.8363 0.4562
vn -0.9479 0.1580 0.2765
vn 0.9896 0.0196 -0.1426
vn -0.3809 -0.9234 -0.0479
vn 0.9917 -0.1240 0.0331
vn 0.8749 -0.1591 0.4574
vn -0.2499 -0.9165 0.3124
vn 0.4253 0.8976 -0.1157
vn -0.9909 0.1196 -0.0611
vn -0.8695 0.3162 0.3794
vn -0.0792 -0.9503 0.3009
vn -0.0031 0.9946 -0.1039
vn 0.9087 -0.4133 -0.0594
s 0
usemtl rsc_507030
f 1//1 2//1 3//1 4//1
f 4//2 3//2 5//2 6//2
f 1//3 4//3 7//3 8//3
f 4//4 6//4 9//4 7//4
f 10//5 2//5 11//5 12//5
f 13//6 14//6 15//6 16//6
f 17//7 13//7 16//7 18//7
f 19//8 20//8 15//8 14//8
f 17//9 18//9 20//9 19//9
f 15//10 20//10 18//10 16//10
f 21//11 22//11 23//11 24//11
f 25//12 21//12 24//12 26//12
f 27//13 28//13 23//13 22//13
f 25//14 26//14 28//14 27//14
f 23//15 28//15 26//15 24//15
f 29//16 30//16 31//16 32//16
f 31//17 33//17 34//17 32//17
f 35//18 29//18 32//18 34//18
f 36//19 33//19 31//19 30//19
f 35//20 34//20 33//20 36//20
f 50//22 51//22 37//22 41//22
f 51//23 52//23 38//23 37//23
f 53//23 54//23 52//23 51//23
f 55//22 53//22 51//22 50//22
f 41//24 37//24 56//24 57//24
f 37//25 38//25 58//25 59//25
f 50//26 51//26 60//26 61//26
f 61//27 60//27 62//27 63//27
f 51//28 52//28 64//28 65//28
f 65//29 64//29 66//29 67//29
f 68//22 69//22 53//22 55//22
f 69//23 70//23 54//23 53//23
f 55//30 53//30 71//30 72//30
f 50//32 41//32 73//32 78//32
f 78//33 73//33 38//33 52//33
f 79//33 78//33 52//33 54//33
f 55//32 50//32 78//32 79//32
f 41//34 57//34 80//34 73//34
f 73//35 81//35 58//35 38//35
f 50//36 61//36 82//36 78//36
f 61//37 63//37 83//37 82//37
f 78//38 84//38 64//38 52//38
f 84//39 85//39 66//39 64//39
f 68//40 55//40 79//40 86//40
f 86//41 79//41 54//41 70//41
f 55//42 72//42 87//42 79//42
f 52//43 51//43 88//43 89//43
f 51//44 50//44 90//44 88//44
f 104//46 105//46 91//46 95//46
f 105//47 106//47 92//47 91//47
f 107//47 108//47 106//47 105//47
f 109//46 107//46 105//46 104//46
f 95//48 91//48 110//48 111//48
f 91//49 92//49 112//49 113//49
f 104//50 105//50 114//50 115//50
f 115//51 114//51 116//51 117//51
f 105//52 106//52 118//52 119//52
f 119//53 118//53 120//53 121//53
f 122//46 123//46 107//46 109//46
f 123//47 124//47 108//47 107//47
f 109//54 107//54 125//54 126//54
f 104//56 95//56 127//56 132//56
f 132//57 127//57 92//57 106//57
f 133//57 132//57 106//57 108//57
f 109//56 104//56 132//56 133//56
f 95//58 111//58 134//58 127//58
f 127//59 135//59 112//59 92//59
f 104//60 115//60 136//60 132//60
f 115//61 117//61 137//61 136//61
f 132//62 138//62 118//62 106//62
f 138//63 139//63 120//63 118//63
f 122//56 109//56 133//56 140//56
f 140//57 133//57 108//57 124//57
f 109//64 126//64 141//64 133//64
f 155//66 156//66 142//66 146//66
f 156//46 157//46 143//46 142//46
f 158//46 159//46 157//46 156//46
f 160//66 158//66 156//66 155//66
f 146//67 142//67 161//67 162//67
f 142//68 143//68 163//68 164//68
f 155//69 156//69 165//69 166//69
f 166//70 165//70 167//70 168//70
f 156//71 157//71 169//71 170//71
f 170//72 169//72 171//72 172//72
f 173//73 174//73 175//73 176//73
f 174//74 177//74 178//74 175//74
f 160//75 158//75 179//75 180//75
f 155//65 146//65 181//65 186//65
f 186//76 181//76 143//76 157//76
f 187//76 186//76 157//76 159//76
f 160//65 155//65 186//65 187//65
f 146//77 162//77 188//77 181//77
f 181//78 189//78 163//78 143//78
f 155//79 166//79 190//79 186//79
f 166//80 168//80 191//80 190//80
f 186//81 192//81 169//81 157//81
f 192//82 193//82 171//82 169//82
f 173//83 176//83 160//83 187//83 194//83
f 194//84 187//84 159//84 178//84 177//84
f 160//85 180//85 195//85 187//85
f 175//86 178//86 159//86 158//86
f 176//56 175//56 158//56 160//56
f 175//87 176//87 196//87 197//87
f 178//88 175//88 197//88 198//88
f 199//89 200//89 201//89 202//89
f 201//90 203//90 204//90 202//90
f 205//91 199//91 202//91 204//91
f 206//92 203//92 201//92 200//92
f 205//93 204//93 203//93 206//93
f 207//94 208//94 209//94 210//94
f 210//95 209//95 211//95 212//95
f 207//96 210//96 213//96 214//96
f 210//97 212//97 215//97 213//97
f 216//98 208//98 217//98 218//98
f 208//99 207//99 219//99 217//99
f 220//100 221//100 222//100 223//100
f 222//101 224//101 225//101 223//101
f 226//102 220//102 223//102 225//102
f 227//103 224//103 222//103 221//103
f 226//104 225//104 224//104 227//104
f 228//105 229//105 230//105 231//105
f 231//106 230//106 232//106 233//106
f 228//107 231//107 234//107 235//107
f 231//108 233//108 236//108 234//108
f 237//109 229//109 238//109 239//109
f 229//110 228//110 240//110 238//110
usemtl rsc_c0a878
f 148//21 154//21 185//21 183//21
f 183//31 184//31 151//31 150//31
f 147//45 150//45 183//45 182//45
f 182//55 183//55 148//55 144//55
f 146//65 147//65 182//65 181//65
f 181//76 182//76 144//76 143//76
f 37//23 38//23 39//23 40//23
f 41//22 37//22 40//22 42//22
f 40//111 39//111 43//111 44//111
f 42//112 40//112 44//112 45//112
f 44//113 45//113 46//113 47//113
f 43//114 44//114 48//114 49//114
f 73//33 74//33 39//33 38//33
f 41//32 42//32 74//32 73//32
f 74//115 75//115 43//115 39//115
f 42//116 45//116 75//116 74//116
f 75//117 76//117 46//117 45//117
f 43//118 49//118 77//118 75//118
f 91//119 92//119 93//119 94//119
f 95//46 91//46 94//46 96//46
f 94//120 93//120 97//120 98//120
f 96//121 94//121 98//121 99//121
f 98//122 99//122 100//122 101//122
f 97//123 98//123 102//123 103//123
f 127//124 128//124 93//124 92//124
f 95//56 96//56 128//56 127//56
f 128//125 129//125 97//125 93//125
f 96//126 99//126 129//126 128//126
f 129//127 130//127 100//127 99//127
f 97//128 103//128 131//128 129//128
f 142//46 143//46 144//46 145//46
f 146//66 142//66 145//66 147//66
f 145//129 144//129 148//129 149//129
f 147//130 145//130 149//130 150//130
f 149//131 150//131 151//131 152//131
f 148//132 149//132 153//132 154//132
