# OGRS RSC model extracted from .ob3
# vertices: 480  faces: 415
mtllib stage_4.mtl

o cornplant
v 0.14 0.15 0.6
v 0.14 0.18 0.59
v 0.13 0.22 0.6900000000000001
v 0.13 0.19 0.7000000000000001
v 0.1 0.24 0.71
v 0.1 0.2 0.73
v 0.15 0.2 0.7000000000000001
v 0.16 0.21 0.74
v 0.17 0.16 0.61
v 0.08 0.24 0.84
v 0.08 0.29 0.8200000000000001
v 0.07 0.32 0.89
v 0.07 0.28 0.91
v 0.14 0.25 0.85
v 0.12 0.28 0.92
v 0.08 0.32 0.92
v 0.08 0.3 0.93
v 0.1 0.3 0.93
v 0.09 0.21 0.78
v 0.15 0.23 0.79
v 0.09 0.27 0.76
v 0.06 0.28 0.88
v 0.05 0.34 0.91
v 0.17 0.18 0.6
v 0.15 0.23 0.6900000000000001
v 0.15 0.25 0.71
v 0.13 0.3 0.8300000000000001
v 0.12 0.33 0.9
v 0.1 0.32 0.92
v 0.15 0.28 0.76
v 0.15 0.29 0.85
v 0.13 0.28 0.93
v 0.1 0.33 0.87
v 0.14 0.16 0.52
v 0.15 0.19 0.52
v 0.09 0.2 0.63
v 0.08 0.14 0.63
v -0.01 0.14 0.52
v -0.05 0.1 0.51
v 0.12 0.1 0.63
v 0.17 0.14 0.52
v 0.01 0.09 0.52
v 0.18 0.17 0.52
v 0.11 0.29 0.74
v 0.15 0.27 0.71
v 0.09 0.25 0.71
v 0.04 -0.16 0.96
v 0.03 -0.14 0.97
v 0.06 -0.16 1.04
v 0.07 -0.18 1.04
v 0.05 -0.17 1.07
v 0.07 -0.2 1.06
v 0.08 -0.17 1.04
v 0.1 -0.17 1.06
v 0.06 -0.15 0.96
v 0.1 -0.22 1.1500000000000001
v 0.08 -0.19 1.16
v 0.1 -0.2 1.21
v 0.11 -0.23 1.2
v 0.13 -0.2 1.1500000000000001
v 0.15 -0.21 1.2
v 0.12 -0.21 1.23
v 0.12 -0.22 1.22
v 0.14 -0.21 1.22
v 0.08 -0.21 1.1
v 0.11 -0.18 1.09
v 0.06 -0.17 1.11
v 0.09 -0.22 1.19
v 0.09 -0.2 1.24
v 0.05 -0.13 0.97
v 0.07 -0.15 1.04
v 0.08 -0.14 1.07
v 0.11 -0.16 1.16
v 0.13 -0.18 1.21
v 0.13 -0.2 1.22
v 0.09 -0.15 1.11
v 0.13 -0.17 1.16
v 0.16 -0.21 1.19
v 0.1 -0.17 1.2
v -0.17 -0.01 1.09
v -0.19 0.0 1.08
v -0.23 0.0 1.17
v -0.21 -0.01 1.18
v -0.26 -0.01 1.19
v -0.22 -0.03 1.21
v -0.21 0.02 1.19
v -0.21 0.02 1.22
v -0.16 0.02 1.09
v -0.27 -0.03 1.33
v -0.32 -0.01 1.31
v -0.35000000000000003 -0.01 1.37
v -0.31 -0.03 1.3900000000000001
v -0.26 0.02 1.34
v -0.3 0.02 1.4000000000000001
v -0.34 -0.01 1.4000000000000001
v -0.32 -0.01 1.41
v -0.32 0.01 1.41
v -0.24 -0.03 1.26
v -0.23 0.02 1.27
v -0.29 -0.01 1.24
v -0.32 -0.04 1.37
v -0.37 -0.02 1.3900000000000001
v -0.19 0.03 1.08
v -0.23 0.03 1.17
v -0.26 0.04 1.2
v -0.31 0.04 1.31
v -0.34 0.03 1.3800000000000001
v -0.34 0.02 1.41
v -0.28 0.04 1.25
v -0.29 0.05 1.33
v -0.28 0.03 1.41
v -0.35000000000000003 0.02 1.35
v 0.17 0.14 1.1500000000000001
v 0.15 0.16 1.1500000000000001
v 0.18 0.18 1.24
v 0.2 0.17 1.23
v 0.17 0.19 1.27
v 0.21 0.16 1.27
v 0.21 0.19 1.22
v 0.23 0.2 1.25
v 0.18 0.17 1.1400000000000001
v 0.25 0.19 1.37
v 0.21 0.22 1.3800000000000001
v 0.23 0.24 1.44
v 0.27 0.22 1.43
v 0.27 0.24 1.35
v 0.29 0.26 1.42
v 0.26 0.25 1.45
v 0.27 0.24 1.45
v 0.28 0.26 1.44
v 0.23 0.17 1.31
v 0.25 0.22 1.29
v 0.19 0.2 1.32
v 0.25 0.21 1.43
v 0.23 0.25 1.47
v 0.16 0.18 1.1400000000000001
v 0.19 0.21 1.23
v 0.19 0.23 1.25
v 0.23 0.27 1.36
v 0.25 0.28 1.42
v 0.26 0.27 1.45
v 0.2 0.25 1.3
v 0.25 0.27 1.36
v 0.31 0.26 1.41
v 0.23 0.27 1.42
v 0.05 -0.16 1.34
v 0.03 -0.17 1.33
v 0.0 -0.2 1.42
v 0.02 -0.19 1.43
v -0.01 -0.23 1.44
v 0.03 -0.21 1.46
v 0.01 -0.17 1.43
v 0.01 -0.17 1.47
v 0.04 -0.14 1.34
v 0.0 -0.25 1.57
v -0.04 -0.27 1.55
v -0.06 -0.29 1.61
v -0.02 -0.27 1.6300000000000001
v -0.03 -0.21 1.58
v -0.05 -0.23 1.6400000000000001
v -0.06 -0.28 1.6400000000000001
v -0.05 -0.27 1.6500000000000001
v -0.06 -0.26 1.6500000000000001
v 0.02 -0.23 1.5
v -0.01 -0.19 1.51
v -0.03 -0.25 1.48
v -0.03 -0.29 1.6
v -0.07 -0.31 1.6300000000000001
v 0.02 -0.15 1.33
v -0.01 -0.18 1.42
v -0.04 -0.19 1.44
v -0.07 -0.23 1.55
v -0.09 -0.25 1.62
v -0.08 -0.26 1.6400000000000001
v -0.06 -0.2 1.49
v -0.07 -0.21 1.57
v -0.04 -0.22 1.6500000000000001
v -0.09 -0.27 1.59
v -0.2 0.01 1.2
v -0.17 0.04 1.2
v -0.17 0.04 1.35
v -0.2 0.01 1.35
v -0.17 -0.01 1.2
v -0.17 -0.01 1.35
v -0.17 0.07 1.4000000000000001
v -0.23 0.02 1.4000000000000001
v -0.17 -0.03 1.4000000000000001
v -0.23 0.02 1.58
v -0.17 0.07 1.58
v -0.17 0.06 1.68
v -0.22 0.02 1.68
v -0.18 -0.04 1.58
v -0.17 -0.03 1.69
v -0.17 0.04 1.72
v -0.19 0.02 1.72
v -0.17 0.0 1.72
v -0.23 0.02 1.48
v -0.18 -0.04 1.48
v -0.17 0.07 1.48
v -0.18 -0.06 1.69
v -0.23 -0.02 1.59
v -0.21 0.06 1.6600000000000001
v -0.16 0.09 1.72
v -0.17 -0.01 1.0
v -0.2 0.01 1.0
v -0.17 0.04 1.0
v -0.2 0.01 0.75
v -0.17 0.04 0.74
v -0.17 -0.01 0.75
v -0.23 -0.04 1.45
v -0.18 -0.07 1.51
v -0.16 0.1 1.5
v -0.23 0.07 1.41
v -0.23 -0.05 1.11
v -0.18 -0.08 1.11
v -0.21 -0.15 1.0
v -0.19 -0.21 1.0
v -0.16 0.09 1.17
v -0.22 0.07 1.18
v -0.15 0.24 1.1300000000000001
v -0.19 0.17 1.1400000000000001
v -0.17 -0.01 -0.01
v -0.2 0.01 0.0
v -0.17 0.04 -0.01
v -0.19 -0.01 0.9400000000000001
v -0.17 -0.03 1.01
v -0.14 0.01 1.2
v -0.14 0.01 1.35
v -0.11 0.01 1.4000000000000001
v -0.11 0.01 1.58
v -0.12 0.01 1.68
v -0.15 0.01 1.72
v -0.11 0.01 1.48
v -0.12 -0.03 1.59
v -0.12 0.05 1.6600000000000001
v -0.14 0.01 1.0
v -0.14 0.01 0.75
v -0.12 -0.05 1.45
v -0.1 0.06 1.41
v -0.13 -0.05 1.11
v -0.16 -0.16 1.0
v -0.12 0.06 1.18
v -0.12 0.16 1.1400000000000001
v -0.15 0.01 0.0
v -0.15 -0.01 0.9400000000000001
v -0.3 0.01 1.23
v -0.27 0.04 1.19
v -0.28 -0.03 1.19
v 0.05 -0.17 1.4000000000000001
v 0.02 -0.16 1.4000000000000001
v 0.01 -0.16 1.55
v 0.05 -0.17 1.55
v 0.06 -0.13 1.4000000000000001
v 0.06 -0.13 1.55
v -0.01 -0.17 1.59
v 0.06 -0.2 1.59
v 0.07 -0.12 1.59
v 0.06 -0.2 1.77
v -0.01 -0.17 1.77
v -0.01 -0.17 1.8800000000000001
v 0.06 -0.19 1.8800000000000001
v 0.08 -0.12 1.78
v 0.08 -0.12 1.8800000000000001
v 0.02 -0.16 1.9100000000000001
v 0.05 -0.17 1.9100000000000001
v 0.05 -0.14 1.9100000000000001
v 0.06 -0.2 1.67
v 0.08 -0.12 1.67
v -0.01 -0.17 1.67
v 0.1 -0.11 1.8800000000000001
v 0.1 -0.18 1.79
v 0.03 -0.2 1.85
v -0.03 -0.18 1.92
v 0.06 -0.13 1.2
v 0.05 -0.17 1.2
v 0.02 -0.16 1.19
v 0.05 -0.17 0.9400000000000001
v 0.02 -0.16 0.9400000000000001
v 0.06 -0.13 0.9400000000000001
v 0.11 -0.16 1.6400000000000001
v 0.11 -0.1 1.71
v -0.04 -0.19 1.7
v 0.02 -0.22 1.61
v 0.12 -0.16 1.31
v 0.11 -0.1 1.31
v 0.19 -0.09 1.2
v 0.23 -0.04 1.19
v -0.03 -0.18 1.37
v 0.02 -0.21 1.37
v -0.16 -0.25 1.33
v -0.08 -0.25 1.34
v 0.06 -0.13 0.0
v 0.05 -0.17 0.01
v 0.02 -0.16 0.0
v 0.16 -0.17 1.06
v 0.21 -0.12 1.08
v 0.02 -0.12 1.4000000000000001
v 0.02 -0.12 1.55
v 0.0 -0.1 1.59
v 0.0 -0.1 1.77
v 0.01 -0.1 1.8800000000000001
v 0.02 -0.13 1.9100000000000001
v 0.0 -0.09 1.67
v 0.04 -0.08 1.79
v -0.02 -0.12 1.85
v 0.02 -0.12 1.2
v 0.02 -0.12 0.9400000000000001
v 0.06 -0.07 1.6400000000000001
v -0.04 -0.12 1.61
v 0.07 -0.07 1.31
v 0.17 -0.04 1.2
v -0.03 -0.13 1.37
v -0.11 -0.19 1.34
v 0.02 -0.12 0.01
v 0.14 -0.1 1.06
v 0.19 0.18 1.3
v 0.18 0.14 1.3
v 0.18 0.14 1.45
v 0.19 0.18 1.45
v 0.15 0.18 1.3
v 0.15 0.18 1.45
v 0.19 0.12 1.5
v 0.22 0.19 1.5
v 0.14 0.2 1.5
v 0.22 0.19 1.68
v 0.19 0.11 1.68
v 0.19 0.12 1.78
v 0.21 0.18 1.78
v 0.14 0.2 1.68
v 0.14 0.2 1.78
v 0.18 0.14 1.81
v 0.18 0.17 1.82
v 0.16 0.17 1.82
v 0.22 0.19 1.57
v 0.14 0.2 1.57
v 0.19 0.11 1.57
v 0.13 0.22 1.79
v 0.19 0.22 1.69
v 0.22 0.15 1.75
v 0.2 0.1 1.82
v 0.15 0.18 1.1
v 0.19 0.18 1.1
v 0.18 0.14 1.1
v 0.19 0.18 0.85
v 0.18 0.14 0.84
v 0.15 0.18 0.84
v 0.18 0.24 1.54
v 0.12 0.23 1.61
v 0.21 0.09 1.6
v 0.24 0.15 1.51
v 0.17 0.24 1.21
v 0.12 0.24 1.21
v 0.1 0.32 1.1
v 0.05 0.35000000000000003 1.1
v 0.2 0.1 1.27
v 0.23 0.14 1.27
v 0.28 -0.03 1.23
v 0.27 0.05 1.24
v 0.15 0.19 -0.04
v 0.18 0.17 -0.03
v 0.19 0.17 0.6900000000000001
v 0.15 0.19 0.71
v 0.17 0.14 -0.04
v 0.18 0.14 0.72
v 0.17 0.19 1.04
v 0.14 0.2 1.11
v 0.14 0.15 1.3
v 0.14 0.15 1.45
v 0.12 0.13 1.5
v 0.12 0.13 1.68
v 0.12 0.13 1.78
v 0.14 0.15 1.82
v 0.11 0.13 1.57
v 0.1 0.16 1.69
v 0.14 0.1 1.75
v 0.14 0.15 1.1
v 0.14 0.15 0.85
v 0.09 0.18 1.54
v 0.14 0.09 1.51
v 0.09 0.19 1.21
v 0.05 0.29 1.1
v 0.15 0.09 1.27
v 0.21 0.01 1.24
v 0.14 0.15 -0.03
v 0.14 0.17 1.04
v 0.2 0.21 0.87
v 0.23 0.2 0.91
v 0.22 0.16 0.88
v 0.05 -0.16 0.73
v 0.03 -0.18 0.72
v 0.01 -0.22 0.8200000000000001
v 0.03 -0.21 0.8300000000000001
v 0.01 -0.25 0.84
v 0.04 -0.22 0.86
v 0.01 -0.19 0.8300000000000001
v 0.0 -0.19 0.87
v 0.02 -0.15 0.74
v 0.03 -0.27 0.97
v -0.01 -0.31 0.9500000000000001
v -0.02 -0.33 1.02
v 0.01 -0.3 1.04
v -0.02 -0.24 0.98
v -0.03 -0.27 1.05
v -0.03 -0.33 1.05
v -0.01 -0.31 1.06
v -0.03 -0.3 1.06
v 0.04 -0.24 0.91
v -0.01 -0.21 0.92
v 0.0 -0.28 0.89
v 0.01 -0.32 1.01
v -0.02 -0.36 1.04
v 0.01 -0.17 0.73
v -0.01 -0.21 0.8200000000000001
v -0.03 -0.23 0.84
v -0.05 -0.28 0.96
v -0.06 -0.31 1.03
v -0.04 -0.31 1.05
v -0.05 -0.25 0.89
v -0.06 -0.26 0.98
v -0.03 -0.26 1.06
v -0.05 -0.32 1.0
v 0.05 -0.17 0.65
v 0.01 -0.18 0.65
v 0.06 -0.23 0.76
v 0.1 -0.2 0.76
v 0.16 -0.26 0.65
v 0.22 -0.26 0.64
v 0.1 -0.14 0.76
v 0.04 -0.13 0.65
v 0.18 -0.21 0.65
v 0.0 -0.15 0.65
v -0.03 -0.28 0.87
v -0.04 -0.24 0.84
v 0.02 -0.27 0.84
v -0.19 0.0 0.58
v -0.18 0.03 0.5700000000000001
v -0.19 0.07 0.66
v -0.19 0.05 0.67
v -0.2 0.1 0.6900000000000001
v -0.21 0.05 0.71
v -0.16 0.04 0.68
v -0.16 0.05 0.71
v -0.16 0.0 0.58
v -0.22 0.1 0.8200000000000001
v -0.21 0.15 0.8
v -0.21 0.18 0.87
v -0.22 0.14 0.89
v -0.16 0.1 0.8300000000000001
v -0.17 0.13 0.9
v -0.2 0.17 0.9
v -0.2 0.15 0.91
v -0.18 0.16 0.91
v -0.22 0.07 0.76
v -0.16 0.07 0.76
v -0.2 0.12 0.73
v -0.23 0.15 0.86
v -0.22 0.2 0.89
v -0.15 0.02 0.5700000000000001
v -0.16 0.07 0.67
v -0.15 0.1 0.6900000000000001
v -0.15 0.15 0.81
v -0.16 0.17 0.88
v -0.18 0.17 0.9
v -0.15 0.12 0.74
v -0.14 0.13 0.8300000000000001
v -0.16 0.12 0.9
v -0.18 0.18 0.85
v -0.19 0.01 0.5
v -0.17 0.04 0.5
v -0.23 0.06 0.61
v -0.25 0.0 0.61
v -0.33 0.03 0.5
v -0.39 0.0 0.49
v -0.23 -0.04 0.61
v -0.17 -0.02 0.5
v -0.33 -0.02 0.5
v -0.14 0.01 0.49
v -0.18 0.14 0.72
v -0.14 0.11 0.6900000000000001
v -0.21 0.11 0.6900000000000001

usemtl rsc_c0a878
f 1 2 3 4
f 7 4 6 8
f 9 1 4 7
f 5 6 22 23
f 24 25 3 2
f 9 7 25 24
f 7 8 26 25
f 26 31 32 8
f 5 23 33 26
f 47 48 49 50
f 55 47 50 53
f 51 52 68 69
f 55 53 71 70
f 72 77 78 54
f 51 69 79 72
f 80 81 82 83
f 83 82 84 85
f 86 83 85 87
f 88 80 83 86
f 84 85 101 102
f 103 104 82 81
f 88 86 104 103
f 104 105 84 82
f 86 87 105 104
f 105 110 111 87
f 84 102 112 105
f 119 116 118 120
f 121 113 116 119
f 117 118 134 135
f 136 137 115 114
f 121 119 137 136
f 119 120 138 137
f 138 143 144 120
f 117 135 145 138
f 146 147 148 149
f 154 146 149 152
f 150 151 167 168
f 169 170 148 147
f 154 152 170 169
f 171 176 177 153
f 150 168 178 171
f 179 180 181 182
f 183 179 182 184
f 182 181 185 186
f 184 182 186 187
f 186 187 200 201
f 185 186 202 203
f 204 205 179 183
f 205 206 180 179
f 183 179 210 211
f 179 180 212 213
f 227 228 181 180
f 183 184 228 227
f 228 229 185 181
f 184 187 229 228
f 229 234 200 187
f 185 203 235 229
f 204 183 227 236
f 236 227 180 206
f 183 211 238 227
f 227 239 212 180
f 249 250 251 252
f 253 249 252 254
f 256 257 270 271
f 255 256 272 273
f 253 249 280 281
f 249 250 282 283
f 297 298 251 250
f 253 254 298 297
f 299 304 270 257
f 255 273 305 299
f 253 281 308 297
f 297 309 282 250
f 316 317 318 319
f 320 316 319 321
f 323 324 337 338
f 322 323 339 340
f 320 316 347 348
f 316 317 349 350
f 367 368 318 317
f 320 321 368 367
f 369 374 337 324
f 322 340 375 369
f 320 348 378 367
f 367 379 349 317
f 389 390 391 392
f 397 389 392 395
f 393 394 410 411
f 412 413 391 390
f 397 395 413 412
f 414 419 420 396
f 393 411 421 414
f 435 436 437 438
f 443 435 438 441
f 439 440 456 457
f 458 459 437 436
f 443 441 459 458
f 460 465 466 442
f 439 457 467 460
usemtl rsc_d8b030
f 4 3 5 6
f 10 11 12 13
f 14 10 13 15
f 13 12 16 17
f 15 13 17 18
f 17 16 18
f 8 6 19 20
f 6 5 21 19
f 20 19 10 14
f 19 21 11 10
f 5 6 6 5
f 25 26 5 3
f 27 28 12 11
f 14 15 28 27
f 28 29 16 12
f 15 18 29 28
f 29 18 16
f 8 20 30 26
f 26 30 21 5
f 20 14 27 30
f 30 27 11 21
f 5 5 26 26
f 50 49 51 52
f 53 50 52 54
f 56 57 58 59
f 60 56 59 61
f 59 58 62 63
f 61 59 63 64
f 63 62 64
f 54 52 65 66
f 52 51 67 65
f 66 65 56 60
f 65 67 57 56
f 51 52 52 51
f 70 71 49 48
f 71 72 51 49
f 53 54 72 71
f 73 74 58 57
f 60 61 74 73
f 74 75 62 58
f 61 64 75 74
f 75 64 62
f 54 66 76 72
f 72 76 67 51
f 66 60 73 76
f 76 73 57 67
f 51 51 72 72
f 89 90 91 92
f 93 89 92 94
f 92 91 95 96
f 94 92 96 97
f 96 95 97
f 87 85 98 99
f 85 84 100 98
f 99 98 89 93
f 98 100 90 89
f 84 85 85 84
f 106 107 91 90
f 93 94 107 106
f 107 108 95 91
f 94 97 108 107
f 108 97 95
f 87 99 109 105
f 105 109 100 84
f 99 93 106 109
f 109 106 90 100
f 84 84 105 105
f 113 114 115 116
f 116 115 117 118
f 122 123 124 125
f 126 122 125 127
f 125 124 128 129
f 127 125 129 130
f 129 128 130
f 120 118 131 132
f 118 117 133 131
f 132 131 122 126
f 131 133 123 122
f 117 118 118 117
f 137 138 117 115
f 139 140 124 123
f 126 127 140 139
f 140 141 128 124
f 127 130 141 140
f 141 130 128
f 120 132 142 138
f 138 142 133 117
f 132 126 139 142
f 142 139 123 133
f 117 117 138 138
f 149 148 150 151
f 152 149 151 153
f 155 156 157 158
f 159 155 158 160
f 158 157 161 162
f 160 158 162 163
f 162 161 163
f 153 151 164 165
f 151 150 166 164
f 165 164 155 159
f 164 166 156 155
f 150 151 151 150
f 170 171 150 148
f 152 153 171 170
f 172 173 157 156
f 159 160 173 172
f 173 174 161 157
f 160 163 174 173
f 174 163 161
f 153 165 175 171
f 171 175 166 150
f 165 159 172 175
f 175 172 156 166
f 150 150 171 171
f 188 189 190 191
f 192 188 191 193
f 191 190 194 195
f 193 191 195 196
f 195 194 196
f 187 186 197 198
f 186 185 199 197
f 198 197 188 192
f 197 199 189 188
f 185 186 186 185
f 230 231 190 189
f 192 193 231 230
f 231 232 194 190
f 193 196 232 231
f 232 196 194
f 187 198 233 229
f 229 233 199 185
f 198 192 230 233
f 233 230 189 199
f 185 185 229 229
f 252 251 255 256
f 254 252 256 257
f 258 259 260 261
f 262 258 261 263
f 261 260 264 265
f 263 261 265 266
f 265 264 266
f 257 256 267 268
f 256 255 269 267
f 268 267 258 262
f 267 269 259 258
f 255 256 256 255
f 298 299 255 251
f 254 257 299 298
f 300 301 260 259
f 262 263 301 300
f 301 302 264 260
f 263 266 302 301
f 302 266 264
f 257 268 303 299
f 299 303 269 255
f 268 262 300 303
f 303 300 259 269
f 255 255 299 299
f 319 318 322 323
f 321 319 323 324
f 325 326 327 328
f 329 325 328 330
f 328 327 331 332
f 330 328 332 333
f 332 331 333
f 324 323 334 335
f 323 322 336 334
f 335 334 325 329
f 334 336 326 325
f 322 323 323 322
f 368 369 322 318
f 321 324 369 368
f 370 371 327 326
f 329 330 371 370
f 371 372 331 327
f 330 333 372 371
f 372 333 331
f 324 335 373 369
f 369 373 336 322
f 335 329 370 373
f 373 370 326 336
f 322 322 369 369
f 392 391 393 394
f 395 392 394 396
f 398 399 400 401
f 402 398 401 403
f 401 400 404 405
f 403 401 405 406
f 405 404 406
f 396 394 407 408
f 394 393 409 407
f 408 407 398 402
f 407 409 399 398
f 393 394 394 393
f 413 414 393 391
f 395 396 414 413
f 415 416 400 399
f 402 403 416 415
f 416 417 404 400
f 403 406 417 416
f 417 406 404
f 396 408 418 414
f 414 418 409 393
f 408 402 415 418
f 418 415 399 409
f 393 393 414 414
f 438 437 439 440
f 441 438 440 442
f 444 445 446 447
f 448 444 447 449
f 447 446 450 451
f 449 447 451 452
f 451 450 452
f 442 440 453 454
f 440 439 455 453
f 454 453 444 448
f 453 455 445 444
f 439 440 440 439
f 459 460 439 437
f 441 442 460 459
f 461 462 446 445
f 448 449 462 461
f 462 463 450 446
f 449 452 463 462
f 463 452 450
f 442 454 464 460
f 460 464 455 439
f 454 448 461 464
f 464 461 445 455
f 439 439 460 460
usemtl rsc_507030
f 34 35 36 37
f 37 36 38 39
f 34 37 40 41
f 37 39 42 40
f 43 35 44 45
f 35 34 46 44
f 207 208 206 205
f 209 207 205 204
f 204 205 214 215
f 215 214 216 217
f 205 206 218 219
f 219 218 220 221
f 222 223 207 209
f 223 224 208 207
f 209 207 225 226
f 237 236 206 208
f 209 204 236 237
f 204 215 240 236
f 215 217 241 240
f 236 242 218 206
f 242 243 220 218
f 222 209 237 244
f 244 237 208 224
f 209 226 245 237
f 206 205 246 247
f 205 204 248 246
f 274 275 249 253
f 275 276 250 249
f 277 278 276 275
f 279 277 275 274
f 274 275 284 285
f 285 284 286 287
f 275 276 288 289
f 289 288 290 291
f 292 293 277 279
f 293 294 278 277
f 279 277 295 296
f 274 253 297 306
f 306 297 250 276
f 307 306 276 278
f 279 274 306 307
f 274 285 310 306
f 285 287 311 310
f 306 312 288 276
f 312 313 290 288
f 292 279 307 314
f 314 307 278 294
f 279 296 315 307
f 341 342 316 320
f 342 343 317 316
f 344 345 343 342
f 346 344 342 341
f 341 342 351 352
f 352 351 353 354
f 342 343 355 356
f 356 355 357 358
f 359 360 361 362
f 360 363 364 361
f 346 344 365 366
f 341 320 367 376
f 376 367 317 343
f 377 376 343 345
f 346 341 376 377
f 341 352 380 376
f 352 354 381 380
f 376 382 355 343
f 382 383 357 355
f 359 362 346 377 384
f 384 377 345 364 363
f 346 366 385 377
f 361 364 345 344
f 362 361 344 346
f 361 362 386 387
f 364 361 387 388
f 422 423 424 425
f 425 424 426 427
f 422 425 428 429
f 425 427 430 428
f 431 423 432 433
f 423 422 434 432
f 468 469 470 471
f 471 470 472 473
f 468 471 474 475
f 471 473 476 474
f 477 469 478 479
f 469 468 480 478
