# Blender 4.0.2
# www.blender.org
mtllib stage_1.mtl
o onion_stage1
v -0.005000 0.010000 0.100000
v 0.000000 0.015000 0.122500
v 0.002500 0.010000 0.100000
v -0.005000 0.015000 0.122500
v -0.005000 0.000000 0.042500
v 0.002500 0.002500 0.042500
v -0.002500 0.022500 0.132500
v 0.000000 0.000000 0.002500
v -0.020000 -0.005000 0.065000
v -0.017500 0.005000 0.075000
v -0.020000 0.007500 0.065000
v -0.005000 -0.002500 0.020000
v -0.005000 0.005000 0.020000
v 0.000000 0.000000 0.000000
v 0.012500 -0.012500 0.042500
v 0.010000 -0.012500 0.052500
v 0.002500 -0.017500 0.042500
v 0.005000 -0.000000 0.020000
v -0.002500 -0.005000 0.020000
v 0.002500 0.022500 0.057500
v 0.002500 0.025000 0.072500
v 0.015000 0.015000 0.057500
v -0.002500 0.005000 0.020000
v 0.005000 0.002500 0.020000
v 0.007500 -0.000000 0.100000
v 0.012500 -0.007500 0.122500
v 0.005000 -0.007500 0.100000
v 0.015000 -0.002500 0.122500
v 0.000000 0.002500 0.042500
v -0.002500 -0.002500 0.042500
v 0.015000 -0.010000 0.135000
v -0.005000 -0.007500 0.100000
v -0.015000 -0.005000 0.122500
v -0.010000 0.000000 0.100000
v -0.012500 -0.010000 0.122500
v -0.000000 -0.002500 0.042500
v -0.002500 0.002500 0.042500
v -0.020000 -0.012500 0.140000
vn -0.0000 0.9762 -0.2169
vn -0.3138 0.9415 -0.1228
vn -0.0000 0.9852 -0.1713
vn -0.0000 0.8000 -0.6000
vn -0.3160 0.9479 -0.0395
vn -0.9701 -0.0000 0.2425
vn -0.9487 -0.0000 -0.3162
vn -0.9701 -0.0000 -0.2425
vn 0.4444 -0.8889 0.1111
vn 0.4787 -0.7180 -0.5053
vn 0.3757 -0.7513 -0.5426
vn 0.5494 -0.8242 -0.1374
vn 0.5093 0.8489 -0.1415
vn 0.2936 0.8807 -0.3718
vn 0.4659 0.7764 -0.4244
vn 0.3102 0.9307 -0.1939
vn 0.9045 -0.3015 -0.3015
vn 0.8448 -0.4224 -0.3285
vn 0.8838 -0.4419 -0.1537
vn 0.9398 -0.3133 -0.1362
vn 0.8639 -0.4319 -0.2592
vn 0.8941 -0.4470 0.0279
vn -0.7952 -0.5301 -0.2945
vn -0.8448 -0.4224 -0.3285
vn -0.8863 -0.4431 -0.1349
vn -0.8261 -0.5507 -0.1197
vn -0.8165 -0.4082 -0.4082
vn -0.8941 -0.4470 -0.0279
s 0
usemtl rsc_084008
f 1//1 2//1 3//1
f 1//1 4//1 2//1
f 5//2 3//2 6//2
f 5//3 1//3 3//3
f 4//4 7//4 2//4
f 8//5 5//5 6//5
f 9//6 10//6 11//6
f 12//7 11//7 13//7
f 12//7 9//7 11//7
f 14//8 12//8 13//8
f 15//9 16//9 17//9
f 18//10 17//10 19//10
f 18//11 15//11 17//11
f 14//12 18//12 19//12
f 20//13 21//13 22//13
f 23//14 22//14 24//14
f 23//15 20//15 22//15
f 14//16 23//16 24//16
f 25//17 26//17 27//17
f 25//18 28//18 26//18
f 29//19 27//19 30//19
f 29//20 25//20 27//20
f 28//21 31//21 26//21
f 8//22 29//22 30//22
f 32//23 33//23 34//23
f 32//24 35//24 33//24
f 36//25 34//25 37//25
f 36//26 32//26 34//26
f 35//27 38//27 33//27
f 8//28 36//28 37//28
