# OGRS RSC model extracted from .ob3
# vertices: 38  faces: 30
mtllib stage_4.mtl

o onionplant
v -0.02 0.04 0.4
v 0.0 0.06 0.49
v 0.01 0.04 0.4
v -0.02 0.06 0.49
v -0.02 0.0 0.17
v 0.01 0.01 0.17
v -0.01 0.09 0.53
v 0.0 0.0 0.01
v -0.08 -0.02 0.26
v -0.07 0.02 0.3
v -0.08 0.03 0.26
v -0.02 -0.01 0.08
v -0.02 0.02 0.08
v 0.0 0.0 0.0
v 0.05 -0.05 0.17
v 0.04 -0.05 0.21
v 0.01 -0.07 0.17
v 0.02 0.0 0.08
v -0.01 -0.02 0.08
v 0.01 0.09 0.23
v 0.01 0.1 0.29
v 0.06 0.06 0.23
v -0.01 0.02 0.08
v 0.02 0.01 0.08
v 0.03 0.0 0.4
v 0.05 -0.03 0.49
v 0.02 -0.03 0.4
v 0.06 -0.01 0.49
v 0.0 0.01 0.17
v -0.01 -0.01 0.17
v 0.06 -0.04 0.54
v -0.02 -0.03 0.4
v -0.06 -0.02 0.49
v -0.04 0.0 0.4
v -0.05 -0.04 0.49
v 0.0 -0.01 0.17
v -0.01 0.01 0.17
v -0.08 -0.05 0.56

usemtl rsc_084008
f 1 2 3
f 1 4 2
f 5 3 6
f 5 1 3
f 4 7 2
f 8 5 6
f 9 10 11
f 12 11 13
f 12 9 11
f 14 12 13
f 15 16 17
f 18 17 19
f 18 15 17
f 14 18 19
f 20 21 22
f 23 22 24
f 23 20 22
f 14 23 24
f 25 26 27
f 25 28 26
f 29 27 30
f 29 25 27
f 28 31 26
f 8 29 30
f 32 33 34
f 32 35 33
f 36 34 37
f 36 32 34
f 35 38 33
f 8 36 37
