# Blender 4.0.2
# www.blender.org
mtllib 2_sprouting.mtl
o cadantine_2_sprouting
v 0.000000 -0.060000 0.000000
v 0.000000 -0.060000 0.040000
v -0.042426 -0.042426 0.000000
v -0.042426 -0.042426 0.040000
v -0.060000 0.000000 0.000000
v -0.060000 0.000000 0.040000
v -0.042426 0.042426 0.000000
v -0.042426 0.042426 0.040000
v 0.000000 0.060000 0.000000
v 0.000000 0.060000 0.040000
v 0.042426 0.042426 0.000000
v 0.042426 0.042426 0.040000
v 0.060000 0.000000 0.000000
v 0.060000 0.000000 0.040000
v 0.042426 -0.042426 0.000000
v 0.042426 -0.042426 0.040000
v -0.031152 -0.038940 0.010987
v -0.049242 -0.014613 0.044379
v -0.024243 -0.012882 0.043317
v -0.008792 -0.017415 0.046096
v -0.024243 -0.021947 0.048875
v -0.049242 -0.020216 0.047813
v -0.038062 0.021947 0.100125
v -0.013062 0.020216 0.101187
v -0.013062 0.014613 0.104621
v -0.038062 0.012882 0.105683
v -0.053513 0.017415 0.102904
v -0.031152 0.038940 0.138013
v 0.019889 -0.050908 0.013436
v -0.011919 -0.053432 0.045309
v -0.000861 -0.030949 0.044146
v 0.010638 -0.019747 0.047191
v 0.006687 -0.035307 0.050237
v -0.007255 -0.056125 0.049074
v -0.040830 -0.023830 0.098763
v -0.026888 -0.003012 0.099926
v -0.022224 -0.005706 0.103691
v -0.033282 -0.028188 0.104854
v -0.044781 -0.039390 0.101809
v -0.054032 -0.008229 0.135564
v 0.058571 -0.008921 0.016105
v 0.043238 -0.038662 0.046345
v 0.029359 -0.017807 0.045084
v 0.025243 -0.002343 0.048385
v 0.036577 -0.013640 0.051686
v 0.047699 -0.036086 0.050425
v 0.000433 -0.050465 0.097314
v -0.010688 -0.028018 0.098575
v -0.006227 -0.025443 0.102655
v 0.007651 -0.046297 0.103916
v 0.011768 -0.061762 0.100615
v -0.021560 -0.055184 0.132895
v 0.031152 0.038940 0.010987
v 0.049242 0.014613 0.044379
v 0.024243 0.012882 0.043317
v 0.008792 0.017415 0.046096
v 0.024243 0.021947 0.048875
v 0.049242 0.020216 0.047813
v 0.038062 -0.021947 0.100125
v 0.013062 -0.020216 0.101187
v 0.013062 -0.014613 0.104621
v 0.038062 -0.012882 0.105683
v 0.053513 -0.017415 0.102904
v 0.031152 -0.038940 0.138013
v -0.019889 0.050908 0.013436
v 0.011919 0.053432 0.045309
v 0.000861 0.030949 0.044146
v -0.010638 0.019747 0.047191
v -0.006687 0.035307 0.050237
v 0.007255 0.056125 0.049074
v 0.040830 0.023830 0.098763
v 0.026888 0.003012 0.099926
v 0.022224 0.005706 0.103691
v 0.033282 0.028188 0.104854
v 0.044781 0.039390 0.101809
v 0.054032 0.008229 0.135564
v -0.058571 0.008921 0.016105
v -0.043238 0.038662 0.046345
v -0.029359 0.017807 0.045084
v -0.025243 0.002343 0.048385
v -0.036577 0.013640 0.051686
v -0.047699 0.036086 0.050425
v -0.000433 0.050465 0.097314
v 0.010688 0.028018 0.098575
v 0.006227 0.025443 0.102655
v -0.007651 0.046297 0.103916
v -0.011768 0.061762 0.100615
v 0.021560 0.055184 0.132895
vn -0.3827 -0.9239 -0.0000
vn -0.9239 -0.3827 -0.0000
vn -0.9239 0.3827 -0.0000
vn -0.3827 0.9239 -0.0000
vn 0.3827 0.9239 -0.0000
vn 0.9239 0.3827 -0.0000
vn -0.0000 -0.0000 1.0000
vn 0.9239 -0.3827 -0.0000
vn 0.3827 -0.9239 -0.0000
vn -0.0000 -0.0000 -1.0000
vn -0.0804 0.7844 -0.6150
vn -0.9156 -0.2102 -0.3429
vn 0.3204 0.7029 -0.6350
vn 0.3204 -0.8848 0.3384
vn -0.0804 -0.9039 0.4201
vn -0.9980 -0.0334 -0.0545
vn -0.0810 0.8408 -0.5352
vn 0.3253 0.7924 -0.5160
vn 0.3253 -0.8193 0.4721
vn -0.0810 -0.8584 0.5066
vn -0.3253 0.8193 -0.4721
vn 0.0810 0.8584 -0.5066
vn 0.9980 0.0334 0.0545
vn 0.0810 -0.8408 0.5352
vn -0.3253 -0.7924 0.5160
vn -0.3204 0.8848 -0.3384
vn 0.0804 0.9039 -0.4201
vn 0.9156 0.2102 0.3429
vn 0.0804 -0.7844 0.6150
vn -0.3204 -0.7029 0.6350
vn -0.6864 0.3034 -0.6610
vn -0.2583 -0.9081 -0.3296
vn -0.4145 0.6093 -0.6760
vn 0.9075 -0.1540 0.3908
vn 0.7194 -0.5082 0.4735
vn -0.4672 -0.8826 -0.0524
vn -0.7396 0.3335 -0.5847
vn -0.4956 0.6617 -0.5626
vn 0.8464 -0.1131 0.5204
vn 0.6753 -0.4833 0.5571
vn -0.8464 0.1131 -0.5204
vn -0.6753 0.4833 -0.5571
vn 0.4672 0.8826 0.0524
vn 0.7396 -0.3335 0.5847
vn 0.4956 -0.6617 0.5626
vn -0.9075 0.1540 -0.3908
vn -0.7194 0.5082 -0.4735
vn 0.2583 0.9081 0.3296
vn 0.6864 -0.3034 0.6610
vn 0.4145 -0.6093 0.6760
vn -0.5704 -0.4222 -0.7045
vn 0.6741 -0.6680 -0.3152
vn -0.6987 -0.0334 -0.7146
vn 0.5654 0.6964 0.4419
vn 0.7738 0.3539 0.5253
vn 0.5334 -0.8444 -0.0501
vn -0.6270 -0.4555 -0.6320
vn -0.7904 -0.0808 -0.6072
vn 0.4929 0.6601 0.5668
vn 0.7260 0.3257 0.6057
vn -0.4929 -0.6601 -0.5668
vn -0.7260 -0.3257 -0.6057
vn -0.5334 0.8444 0.0501
vn 0.6270 0.4555 0.6320
vn 0.7904 0.0808 0.6072
vn -0.5654 -0.6964 -0.4419
vn -0.7738 -0.3539 -0.5253
vn -0.6741 0.6680 0.3152
vn 0.5704 0.4222 0.7045
vn 0.6987 0.0334 0.7146
vn 0.0804 -0.7844 -0.6150
vn 0.9156 0.2102 -0.3429
vn -0.3204 -0.7029 -0.6350
vn -0.3204 0.8848 0.3384
vn 0.0804 0.9039 0.4201
vn 0.9980 0.0334 -0.0545
vn 0.0810 -0.8408 -0.5352
vn -0.3253 -0.7924 -0.5160
vn -0.3253 0.8193 0.4721
vn 0.0810 0.8584 0.5066
vn 0.3253 -0.8193 -0.4721
vn -0.0810 -0.8584 -0.5066
vn -0.9980 -0.0334 0.0545
vn -0.0810 0.8408 0.5352
vn 0.3253 0.7924 0.5160
vn 0.3204 -0.8848 -0.3384
vn -0.0804 -0.9039 -0.4201
vn -0.9156 -0.2102 0.3429
vn -0.0804 0.7844 0.6150
vn 0.3204 0.7029 0.6350
vn 0.6864 -0.3034 -0.6610
vn 0.2583 0.9081 -0.3296
vn 0.4145 -0.6093 -0.6760
vn -0.9075 0.1540 0.3908
vn -0.7194 0.5082 0.4735
vn 0.4672 0.8826 -0.0524
vn 0.7396 -0.3335 -0.5847
vn 0.4956 -0.6617 -0.5626
vn -0.8464 0.1131 0.5204
vn -0.6753 0.4833 0.5571
vn 0.8464 -0.1131 -0.5204
vn 0.6753 -0.4833 -0.5571
vn -0.4672 -0.8826 0.0524
vn -0.7396 0.3335 0.5847
vn -0.4956 0.6617 0.5626
vn 0.9075 -0.1540 -0.3908
vn 0.7194 -0.5082 -0.4735
vn -0.2583 -0.9081 0.3296
vn -0.6864 0.3034 0.6610
vn -0.4145 0.6093 0.6760
vn 0.5704 0.4222 -0.7045
vn -0.6741 0.6680 -0.3152
vn 0.6987 0.0334 -0.7146
vn -0.5654 -0.6964 0.4419
vn -0.7738 -0.3539 0.5253
vn -0.5334 0.8444 -0.0501
vn 0.6270 0.4555 -0.6320
vn 0.7904 0.0808 -0.6072
vn -0.4929 -0.6601 0.5668
vn -0.7260 -0.3257 0.6057
vn 0.4929 0.6601 -0.5668
vn 0.7260 0.3257 -0.6057
vn 0.5334 -0.8444 0.0501
vn -0.6270 -0.4555 0.6320
vn -0.7904 -0.0808 0.6072
vn 0.5654 0.6964 -0.4419
vn 0.7738 0.3539 -0.5253
vn 0.6741 -0.6680 0.3152
vn -0.5704 -0.4222 0.7045
vn -0.6987 -0.0334 0.7146
vt 1.000000 0.500000
vt 1.000000 1.000000
vt 0.875000 1.000000
vt 0.875000 0.500000
vt 0.750000 1.000000
vt 0.750000 0.500000
vt 0.625000 1.000000
vt 0.625000 0.500000
vt 0.500000 1.000000
vt 0.500000 0.500000
vt 0.375000 1.000000
vt 0.375000 0.500000
vt 0.250000 1.000000
vt 0.250000 0.500000
vt 0.419706 0.419706
vt 0.250000 0.490000
vt 0.080294 0.419706
vt 0.010000 0.250000
vt 0.080294 0.080294
vt 0.250000 0.010000
vt 0.419706 0.080294
vt 0.490000 0.250000
vt 0.125000 1.000000
vt 0.125000 0.500000
vt 0.000000 1.000000
vt 0.000000 0.500000
vt 0.750000 0.490000
vt 0.919706 0.419706
vt 0.990000 0.250000
vt 0.919706 0.080294
vt 0.750000 0.010000
vt 0.580294 0.080294
vt 0.510000 0.250000
vt 0.580294 0.419706
vt 0.181819 0.000000
vt 0.272728 0.157461
vt 0.090910 0.157461
vt 0.363637 0.000000
vt 0.454546 0.157461
vt 0.909091 0.000000
vt 1.000000 0.157461
vt 0.818182 0.157461
vt 0.727273 0.000000
vt 0.636364 0.157461
vt 0.545455 0.000000
vt 0.363637 0.314921
vt 0.181819 0.314921
vt 0.909091 0.314921
vt 0.727273 0.314921
vt 0.545455 0.314921
vt 0.000000 0.314921
vt 0.272728 0.472382
vt 0.090910 0.472382
vt 0.818182 0.472382
vt 0.636364 0.472382
vt 0.454546 0.472382
s 0
usemtl bark
f 1/1/1 2/2/1 4/3/1 3/4/1
f 3/4/2 4/3/2 6/5/2 5/6/2
f 5/6/3 6/5/3 8/7/3 7/8/3
f 7/8/4 8/7/4 10/9/4 9/10/4
f 9/10/5 10/9/5 12/11/5 11/12/5
f 11/12/6 12/11/6 14/13/6 13/14/6
f 4/15/7 2/16/7 16/17/7 14/18/7 12/19/7 10/20/7 8/21/7 6/22/7
f 13/14/8 14/13/8 16/23/8 15/24/8
f 15/24/9 16/23/9 2/25/9 1/26/9
f 1/27/10 3/28/10 5/29/10 7/30/10 9/31/10 11/32/10 13/33/10 15/34/10
usemtl leaf_light_cadantine
f 17/35/11 18/36/11 19/37/11
f 18/36/12 17/38/12 22/39/12
f 17/40/13 19/41/13 20/42/13
f 17/43/14 20/42/14 21/44/14
f 17/45/15 21/44/15 22/39/15
f 18/36/16 22/39/16 27/46/16
f 19/37/17 18/36/17 23/47/17
f 20/42/18 19/41/18 24/48/18
f 21/44/19 20/42/19 25/49/19
f 22/39/20 21/44/20 26/50/20
f 18/36/21 27/46/21 23/47/21
f 19/37/22 23/47/22 24/51/22
f 20/42/23 24/48/23 25/49/23
f 21/44/24 25/49/24 26/50/24
f 22/39/25 26/50/25 27/46/25
f 23/47/26 27/46/26 28/52/26
f 24/51/27 23/47/27 28/53/27
f 25/49/28 24/48/28 28/54/28
f 26/50/29 25/49/29 28/55/29
f 27/46/30 26/50/30 28/56/30
f 53/35/71 54/36/71 55/37/71
f 54/36/72 53/38/72 58/39/72
f 53/40/73 55/41/73 56/42/73
f 53/43/74 56/42/74 57/44/74
f 53/45/75 57/44/75 58/39/75
f 54/36/76 58/39/76 63/46/76
f 55/37/77 54/36/77 59/47/77
f 56/42/78 55/41/78 60/48/78
f 57/44/79 56/42/79 61/49/79
f 58/39/80 57/44/80 62/50/80
f 54/36/81 63/46/81 59/47/81
f 55/37/82 59/47/82 60/51/82
f 56/42/83 60/48/83 61/49/83
f 57/44/84 61/49/84 62/50/84
f 58/39/85 62/50/85 63/46/85
f 59/47/86 63/46/86 64/52/86
f 60/51/87 59/47/87 64/53/87
f 61/49/88 60/48/88 64/54/88
f 62/50/89 61/49/89 64/55/89
f 63/46/90 62/50/90 64/56/90
usemtl leaf_cadantine
f 29/35/31 30/36/31 31/37/31
f 30/36/32 29/38/32 34/39/32
f 29/40/33 31/41/33 32/42/33
f 29/43/34 32/42/34 33/44/34
f 29/45/35 33/44/35 34/39/35
f 30/36/36 34/39/36 39/46/36
f 31/37/37 30/36/37 35/47/37
f 32/42/38 31/41/38 36/48/38
f 33/44/39 32/42/39 37/49/39
f 34/39/40 33/44/40 38/50/40
f 30/36/41 39/46/41 35/47/41
f 31/37/42 35/47/42 36/51/42
f 32/42/43 36/48/43 37/49/43
f 33/44/44 37/49/44 38/50/44
f 34/39/45 38/50/45 39/46/45
f 35/47/46 39/46/46 40/52/46
f 36/51/47 35/47/47 40/53/47
f 37/49/48 36/48/48 40/54/48
f 38/50/49 37/49/49 40/55/49
f 39/46/50 38/50/50 40/56/50
f 41/35/51 42/36/51 43/37/51
f 42/36/52 41/38/52 46/39/52
f 41/40/53 43/41/53 44/42/53
f 41/43/54 44/42/54 45/44/54
f 41/45/55 45/44/55 46/39/55
f 42/36/56 46/39/56 51/46/56
f 43/37/57 42/36/57 47/47/57
f 44/42/58 43/41/58 48/48/58
f 45/44/59 44/42/59 49/49/59
f 46/39/60 45/44/60 50/50/60
f 42/36/61 51/46/61 47/47/61
f 43/37/62 47/47/62 48/51/62
f 44/42/63 48/48/63 49/49/63
f 45/44/64 49/49/64 50/50/64
f 46/39/65 50/50/65 51/46/65
f 47/47/66 51/46/66 52/52/66
f 48/51/67 47/47/67 52/53/67
f 49/49/68 48/48/68 52/54/68
f 50/50/69 49/49/69 52/55/69
f 51/46/70 50/50/70 52/56/70
f 65/35/91 66/36/91 67/37/91
f 66/36/92 65/38/92 70/39/92
f 65/40/93 67/41/93 68/42/93
f 65/43/94 68/42/94 69/44/94
f 65/45/95 69/44/95 70/39/95
f 66/36/96 70/39/96 75/46/96
f 67/37/97 66/36/97 71/47/97
f 68/42/98 67/41/98 72/48/98
f 69/44/99 68/42/99 73/49/99
f 70/39/100 69/44/100 74/50/100
f 66/36/101 75/46/101 71/47/101
f 67/37/102 71/47/102 72/51/102
f 68/42/103 72/48/103 73/49/103
f 69/44/104 73/49/104 74/50/104
f 70/39/105 74/50/105 75/46/105
f 71/47/106 75/46/106 76/52/106
f 72/51/107 71/47/107 76/53/107
f 73/49/108 72/48/108 76/54/108
f 74/50/109 73/49/109 76/55/109
f 75/46/110 74/50/110 76/56/110
f 77/35/111 78/36/111 79/37/111
f 78/36/112 77/38/112 82/39/112
f 77/40/113 79/41/113 80/42/113
f 77/43/114 80/42/114 81/44/114
f 77/45/115 81/44/115 82/39/115
f 78/36/116 82/39/116 87/46/116
f 79/37/117 78/36/117 83/47/117
f 80/42/118 79/41/118 84/48/118
f 81/44/119 80/42/119 85/49/119
f 82/39/120 81/44/120 86/50/120
f 78/36/121 87/46/121 83/47/121
f 79/37/122 83/47/122 84/51/122
f 80/42/123 84/48/123 85/49/123
f 81/44/124 85/49/124 86/50/124
f 82/39/125 86/50/125 87/46/125
f 83/47/126 87/46/126 88/52/126
f 84/51/127 83/47/127 88/53/127
f 85/49/128 84/48/128 88/54/128
f 86/50/129 85/49/129 88/55/129
f 87/46/130 86/50/130 88/56/130
