# Blender 4.0.2
# www.blender.org
mtllib 4_mature.mtl
o dwarfweed_4_mature
v 0.000000 -0.060000 0.000000
v 0.000000 -0.060000 0.040000
v -0.042426 -0.042426 0.000000
v -0.042426 -0.042426 0.040000
v -0.060000 0.000000 0.000000
v -0.060000 0.000000 0.040000
v -0.042426 0.042426 0.000000
v -0.042426 0.042426 0.040000
v 0.000000 0.060000 0.000000
v 0.000000 0.060000 0.040000
v 0.042426 0.042426 0.000000
v 0.042426 0.042426 0.040000
v 0.060000 0.000000 0.000000
v 0.060000 0.000000 0.040000
v 0.042426 -0.042426 0.000000
v 0.042426 -0.042426 0.040000
v -0.048087 -0.060109 0.016960
v -0.066177 -0.024080 0.069437
v -0.041178 -0.022349 0.068376
v -0.025727 -0.026882 0.071155
v -0.041178 -0.031414 0.073934
v -0.066177 -0.029683 0.072872
v -0.054997 0.031414 0.156066
v -0.029997 0.029683 0.157128
v -0.029997 0.024080 0.160563
v -0.054997 0.022349 0.161624
v -0.070448 0.026882 0.158845
v -0.048087 0.060109 0.213040
v -0.012703 -0.083405 0.020740
v -0.047925 -0.058580 0.070963
v -0.027107 -0.044638 0.069800
v -0.011547 -0.040687 0.072846
v -0.022749 -0.052186 0.075891
v -0.045231 -0.063244 0.074728
v -0.068537 -0.000518 0.154109
v -0.046054 0.010541 0.155272
v -0.043361 0.005876 0.159037
v -0.064179 -0.008065 0.160200
v -0.079739 -0.012017 0.157154
v -0.078583 0.030702 0.209260
v 0.033280 -0.085183 0.024861
v -0.012182 -0.079824 0.072648
v -0.001061 -0.057378 0.071387
v 0.010273 -0.046080 0.074688
v 0.006157 -0.061545 0.077990
v -0.007722 -0.082399 0.076729
v -0.063287 -0.037408 0.152010
v -0.049409 -0.016554 0.153271
v -0.044948 -0.019129 0.157352
v -0.056070 -0.041576 0.158613
v -0.067404 -0.052873 0.155312
v -0.090411 -0.013770 0.205139
v 0.060109 -0.048087 0.016960
v 0.024080 -0.066177 0.069437
v 0.022349 -0.041178 0.068376
v 0.026882 -0.025727 0.071155
v 0.031414 -0.041178 0.073934
v 0.029683 -0.066177 0.072872
v -0.031414 -0.054997 0.156066
v -0.029683 -0.029997 0.157128
v -0.024080 -0.029997 0.160563
v -0.022349 -0.054997 0.161624
v -0.026882 -0.070448 0.158845
v -0.060109 -0.048087 0.213040
v 0.083405 -0.012703 0.020740
v 0.058580 -0.047925 0.070963
v 0.044638 -0.027107 0.069800
v 0.040687 -0.011547 0.072846
v 0.052186 -0.022749 0.075891
v 0.063244 -0.045231 0.074728
v 0.000518 -0.068537 0.154109
v -0.010541 -0.046054 0.155272
v -0.005876 -0.043361 0.159037
v 0.008065 -0.064179 0.160200
v 0.012017 -0.079739 0.157154
v -0.030702 -0.078583 0.209260
v 0.085183 0.033280 0.024861
v 0.079824 -0.012182 0.072648
v 0.057378 -0.001061 0.071387
v 0.046080 0.010273 0.074688
v 0.061545 0.006157 0.077990
v 0.082399 -0.007722 0.076729
v 0.037408 -0.063287 0.152010
v 0.016554 -0.049409 0.153271
v 0.019129 -0.044948 0.157352
v 0.041576 -0.056070 0.158613
v 0.052873 -0.067404 0.155312
v 0.013770 -0.090411 0.205139
v 0.048087 0.060109 0.016960
v 0.066177 0.024080 0.069437
v 0.041178 0.022349 0.068376
v 0.025727 0.026882 0.071155
v 0.041178 0.031414 0.073934
v 0.066177 0.029683 0.072872
v 0.054997 -0.031414 0.156066
v 0.029997 -0.029683 0.157128
v 0.029997 -0.024080 0.160563
v 0.054997 -0.022349 0.161624
v 0.070448 -0.026882 0.158845
v 0.048087 -0.060109 0.213040
v 0.012703 0.083405 0.020740
v 0.047925 0.058580 0.070963
v 0.027107 0.044638 0.069800
v 0.011547 0.040687 0.072846
v 0.022749 0.052186 0.075891
v 0.045231 0.063244 0.074728
v 0.068537 0.000518 0.154109
v 0.046054 -0.010541 0.155272
v 0.043361 -0.005876 0.159037
v 0.064179 0.008065 0.160200
v 0.079739 0.012017 0.157154
v 0.078583 -0.030702 0.209260
v -0.033280 0.085183 0.024861
v 0.012182 0.079824 0.072648
v 0.001061 0.057378 0.071387
v -0.010273 0.046080 0.074688
v -0.006157 0.061545 0.077990
v 0.007722 0.082399 0.076729
v 0.063287 0.037408 0.152010
v 0.049409 0.016554 0.153271
v 0.044948 0.019129 0.157352
v 0.056070 0.041576 0.158613
v 0.067404 0.052873 0.155312
v 0.090411 0.013770 0.205139
v -0.060109 0.048087 0.016960
v -0.024080 0.066177 0.069437
v -0.022349 0.041178 0.068376
v -0.026882 0.025727 0.071155
v -0.031414 0.041178 0.073934
v -0.029683 0.066177 0.072872
v 0.031414 0.054997 0.156066
v 0.029683 0.029997 0.157128
v 0.024080 0.029997 0.160563
v 0.022349 0.054997 0.161624
v 0.026882 0.070448 0.158845
v 0.060109 0.048087 0.213040
v -0.083405 0.012703 0.020740
v -0.058580 0.047925 0.070963
v -0.044638 0.027107 0.069800
v -0.040687 0.011547 0.072846
v -0.052186 0.022749 0.075891
v -0.063244 0.045231 0.074728
v -0.000518 0.068537 0.154109
v 0.010541 0.046054 0.155272
v 0.005876 0.043361 0.159037
v -0.008065 0.064179 0.160200
v -0.012017 0.079739 0.157154
v 0.030702 0.078583 0.209260
v -0.085183 -0.033280 0.024861
v -0.079824 0.012182 0.072648
v -0.057378 0.001061 0.071387
v -0.046080 -0.010273 0.074688
v -0.061545 -0.006157 0.077990
v -0.082399 0.007722 0.076729
v -0.037408 0.063287 0.152010
v -0.016554 0.049409 0.153271
v -0.019129 0.044948 0.157352
v -0.041576 0.056070 0.158613
v -0.052873 0.067404 0.155312
v -0.013770 0.090411 0.205139
v 0.014093 0.027932 0.430547
v -0.001826 0.039498 0.442708
v 0.020174 0.046646 0.442708
v 0.033771 0.027932 0.442708
v 0.020174 0.009218 0.442708
v -0.001826 0.016366 0.442708
v 0.008013 0.046646 0.462385
v 0.030013 0.039498 0.462385
v 0.030013 0.016366 0.462385
v 0.008013 0.009218 0.462385
v -0.005584 0.027932 0.462385
v 0.014093 0.027932 0.474547
v 0.034205 -0.002871 0.416284
v 0.018286 0.008695 0.428446
v 0.040286 0.015844 0.428446
v 0.053882 -0.002871 0.428446
v 0.040286 -0.021585 0.428446
v 0.018286 -0.014436 0.428446
v 0.028125 0.015844 0.448123
v 0.050124 0.008695 0.448123
v 0.050124 -0.014436 0.448123
v 0.028125 -0.021585 0.448123
v 0.014528 -0.002871 0.448123
v 0.034205 -0.002871 0.460284
v 0.035360 -0.000595 0.399875
v 0.019441 0.010971 0.412036
v 0.041441 0.018119 0.412036
v 0.055037 -0.000595 0.412036
v 0.041441 -0.019309 0.412036
v 0.019441 -0.012161 0.412036
v 0.029280 0.018119 0.431714
v 0.051279 0.010971 0.431714
v 0.051279 -0.012161 0.431714
v 0.029280 -0.019309 0.431714
v 0.015683 -0.000595 0.431714
v 0.035360 -0.000595 0.443875
v 0.005308 0.034412 0.402536
v -0.010611 0.045977 0.414697
v 0.011389 0.053126 0.414697
v 0.024986 0.034412 0.414697
v 0.011389 0.015697 0.414697
v -0.010611 0.022846 0.414697
v -0.000772 0.053126 0.434374
v 0.021228 0.045977 0.434374
v 0.021228 0.022846 0.434374
v -0.000772 0.015697 0.434374
v -0.014369 0.034412 0.434374
v 0.005308 0.034412 0.446536
v 0.006038 -0.026148 0.404190
v -0.009881 -0.014582 0.416351
v 0.012119 -0.007434 0.416351
v 0.025716 -0.026148 0.416351
v 0.012119 -0.044862 0.416351
v -0.009881 -0.037714 0.416351
v -0.000042 -0.007434 0.436029
v 0.021958 -0.014582 0.436029
v 0.021958 -0.037714 0.436029
v -0.000042 -0.044862 0.436029
v -0.013639 -0.026148 0.436029
v 0.006038 -0.026148 0.448190
vn -0.3827 -0.9239 -0.0000
vn -0.9239 -0.3827 -0.0000
vn -0.9239 0.3827 -0.0000
vn -0.3827 0.9239 -0.0000
vn 0.3827 0.9239 -0.0000
vn 0.9239 0.3827 -0.0000
vn -0.0000 -0.0000 1.0000
vn 0.9239 -0.3827 -0.0000
vn 0.3827 -0.9239 -0.0000
vn -0.0000 -0.0000 -1.0000
vn -0.0807 0.8085 -0.5829
vn -0.9618 -0.1431 -0.2333
vn 0.3233 0.7415 -0.5880
vn 0.3233 -0.8603 0.3941
vn -0.0807 -0.8862 0.4561
vn -0.9991 -0.0217 -0.0354
vn -0.0810 0.8440 -0.5302
vn 0.3253 0.7973 -0.5084
vn 0.3253 -0.8148 0.4799
vn -0.0810 -0.8554 0.5117
vn -0.3253 0.8148 -0.4799
vn 0.0810 0.8554 -0.5117
vn 0.9991 0.0217 0.0354
vn 0.0810 -0.8440 0.5302
vn -0.3253 -0.7973 0.5084
vn -0.3233 0.8603 -0.3941
vn 0.0807 0.8862 -0.4561
vn 0.9618 0.1431 0.2333
vn 0.0807 -0.8085 0.5829
vn -0.3233 -0.7415 0.5880
vn -0.4560 0.6283 -0.6303
vn -0.7546 -0.6167 -0.2243
vn -0.0725 0.7721 -0.6314
vn 0.6975 -0.5616 0.4450
vn 0.3587 -0.7828 0.5085
vn -0.8534 -0.5202 -0.0340
vn -0.4755 0.6616 -0.5799
vn -0.1010 0.8255 -0.5553
vn 0.6740 -0.5167 0.5279
vn 0.3415 -0.7533 0.5620
vn -0.6740 0.5167 -0.5279
vn -0.3415 0.7533 -0.5620
vn 0.8534 0.5202 0.0340
vn 0.4755 -0.6616 0.5799
vn 0.1010 -0.8255 0.5553
vn -0.6975 0.5616 -0.4450
vn -0.3587 0.7828 -0.5085
vn 0.7546 0.6167 0.2243
vn 0.4560 -0.6283 0.6303
vn 0.0725 -0.7721 0.6314
vn -0.6751 0.2965 -0.6755
vn -0.3337 -0.9179 -0.2145
vn -0.4149 0.6128 -0.6725
vn 0.8605 -0.1235 0.4943
vn 0.6743 -0.4826 0.5590
vn -0.4773 -0.8782 -0.0325
vn -0.7112 0.3171 -0.6274
vn -0.4701 0.6471 -0.6002
vn 0.8134 -0.0940 0.5740
vn 0.6419 -0.4641 0.6104
vn -0.8134 0.0940 -0.5740
vn -0.6419 0.4641 -0.6104
vn 0.4773 0.8782 0.0325
vn 0.7112 -0.3171 0.6274
vn 0.4701 -0.6471 0.6002
vn -0.8605 0.1235 -0.4943
vn -0.6743 0.4826 -0.5590
vn 0.3337 0.9179 0.2145
vn 0.6751 -0.2965 0.6755
vn 0.4149 -0.6128 0.6725
vn -0.8085 -0.0807 -0.5829
vn 0.1431 -0.9618 -0.2333
vn -0.7415 0.3233 -0.5880
vn 0.8603 0.3233 0.3941
vn 0.8862 -0.0807 0.4561
vn 0.0217 -0.9991 -0.0354
vn -0.8440 -0.0810 -0.5302
vn -0.7973 0.3253 -0.5084
vn 0.8148 0.3253 0.4799
vn 0.8554 -0.0810 0.5117
vn -0.8148 -0.3253 -0.4799
vn -0.8554 0.0810 -0.5117
vn -0.0217 0.9991 0.0354
vn 0.8440 0.0810 0.5302
vn 0.7973 -0.3253 0.5084
vn -0.8603 -0.3233 -0.3941
vn -0.8862 0.0807 -0.4561
vn -0.1431 0.9618 0.2333
vn 0.8085 0.0807 0.5829
vn 0.7415 -0.3233 0.5880
vn -0.6283 -0.4560 -0.6303
vn 0.6167 -0.7546 -0.2243
vn -0.7721 -0.0725 -0.6314
vn 0.5616 0.6975 0.4450
vn 0.7828 0.3587 0.5085
vn 0.5201 -0.8534 -0.0340
vn -0.6616 -0.4755 -0.5799
vn -0.8255 -0.1010 -0.5553
vn 0.5167 0.6740 0.5279
vn 0.7533 0.3415 0.5620
vn -0.5167 -0.6740 -0.5279
vn -0.7533 -0.3415 -0.5620
vn -0.5202 0.8534 0.0340
vn 0.6616 0.4755 0.5799
vn 0.8255 0.1010 0.5553
vn -0.5616 -0.6975 -0.4450
vn -0.7828 -0.3587 -0.5085
vn -0.6167 0.7546 0.2243
vn 0.6283 0.4560 0.6303
vn 0.7721 0.0725 0.6314
vn -0.2965 -0.6751 -0.6755
vn 0.9179 -0.3337 -0.2145
vn -0.6128 -0.4149 -0.6725
vn 0.1235 0.8605 0.4943
vn 0.4826 0.6743 0.5590
vn 0.8782 -0.4773 -0.0325
vn -0.3171 -0.7112 -0.6274
vn -0.6471 -0.4701 -0.6002
vn 0.0940 0.8134 0.5740
vn 0.4641 0.6419 0.6104
vn -0.0940 -0.8134 -0.5740
vn -0.4641 -0.6419 -0.6104
vn -0.8782 0.4773 0.0325
vn 0.3171 0.7112 0.6274
vn 0.6471 0.4701 0.6002
vn -0.1235 -0.8605 -0.4943
vn -0.4826 -0.6743 -0.5590
vn -0.9179 0.3337 0.2145
vn 0.2965 0.6751 0.6755
vn 0.6128 0.4149 0.6725
vn 0.0807 -0.8085 -0.5829
vn 0.9618 0.1431 -0.2333
vn -0.3233 -0.7415 -0.5880
vn -0.3233 0.8603 0.3941
vn 0.0807 0.8862 0.4561
vn 0.9991 0.0217 -0.0354
vn 0.0810 -0.8440 -0.5302
vn -0.3253 -0.7973 -0.5084
vn -0.3253 0.8148 0.4799
vn 0.0810 0.8554 0.5117
vn 0.3253 -0.8148 -0.4799
vn -0.0810 -0.8554 -0.5117
vn -0.9991 -0.0217 0.0354
vn -0.0810 0.8440 0.5302
vn 0.3253 0.7973 0.5084
vn 0.3233 -0.8603 -0.3941
vn -0.0807 -0.8862 -0.4561
vn -0.9618 -0.1431 0.2333
vn -0.0807 0.8085 0.5829
vn 0.3233 0.7415 0.5880
vn 0.4560 -0.6283 -0.6303
vn 0.7546 0.6167 -0.2243
vn 0.0725 -0.7721 -0.6314
vn -0.6975 0.5616 0.4450
vn -0.3587 0.7828 0.5085
vn 0.8534 0.5202 -0.0340
vn 0.4755 -0.6616 -0.5799
vn 0.1010 -0.8255 -0.5553
vn -0.6740 0.5167 0.5279
vn -0.3415 0.7533 0.5620
vn 0.6740 -0.5167 -0.5279
vn 0.3415 -0.7533 -0.5620
vn -0.8534 -0.5202 0.0340
vn -0.4755 0.6616 0.5799
vn -0.1010 0.8255 0.5553
vn 0.6975 -0.5616 -0.4450
vn 0.3587 -0.7828 -0.5085
vn -0.7546 -0.6167 0.2243
vn -0.4560 0.6283 0.6303
vn -0.0725 0.7721 0.6314
vn 0.6751 -0.2965 -0.6755
vn 0.3337 0.9179 -0.2145
vn 0.4149 -0.6128 -0.6725
vn -0.8605 0.1235 0.4943
vn -0.6743 0.4826 0.5590
vn 0.4773 0.8782 -0.0325
vn 0.7112 -0.3171 -0.6274
vn 0.4701 -0.6471 -0.6002
vn -0.8134 0.0940 0.5740
vn -0.6419 0.4641 0.6104
vn 0.8134 -0.0940 -0.5740
vn 0.6419 -0.4641 -0.6104
vn -0.4773 -0.8782 0.0325
vn -0.7112 0.3171 0.6274
vn -0.4701 0.6471 0.6002
vn 0.8605 -0.1235 -0.4943
vn 0.6743 -0.4826 -0.5590
vn -0.3337 -0.9179 0.2145
vn -0.6751 0.2965 0.6755
vn -0.4149 0.6128 0.6725
vn 0.8085 0.0807 -0.5829
vn -0.1431 0.9618 -0.2333
vn 0.7415 -0.3233 -0.5880
vn -0.8603 -0.3233 0.3941
vn -0.8862 0.0807 0.4561
vn -0.0217 0.9991 -0.0354
vn 0.8440 0.0810 -0.5302
vn 0.7973 -0.3253 -0.5084
vn -0.8148 -0.3253 0.4799
vn -0.8554 0.0810 0.5117
vn 0.8148 0.3253 -0.4799
vn 0.8554 -0.0810 -0.5117
vn 0.0217 -0.9991 0.0354
vn -0.8440 -0.0810 0.5302
vn -0.7973 0.3253 0.5084
vn 0.8603 0.3233 -0.3941
vn 0.8862 -0.0807 -0.4561
vn 0.1431 -0.9618 0.2333
vn -0.8085 -0.0807 0.5829
vn -0.7415 0.3233 0.5880
vn 0.6283 0.4560 -0.6303
vn -0.6167 0.7546 -0.2243
vn 0.7721 0.0725 -0.6314
vn -0.5616 -0.6975 0.4450
vn -0.7828 -0.3587 0.5085
vn -0.5201 0.8534 -0.0340
vn 0.6616 0.4755 -0.5799
vn 0.8255 0.1010 -0.5553
vn -0.5167 -0.6740 0.5279
vn -0.7533 -0.3415 0.5620
vn 0.5167 0.6740 -0.5279
vn 0.7533 0.3415 -0.5620
vn 0.5202 -0.8534 0.0340
vn -0.6616 -0.4755 0.5799
vn -0.8255 -0.1010 0.5553
vn 0.5616 0.6975 -0.4450
vn 0.7828 0.3587 -0.5085
vn 0.6167 -0.7546 0.2243
vn -0.6283 -0.4560 0.6303
vn -0.7721 -0.0725 0.6314
vn 0.2965 0.6751 -0.6755
vn -0.9179 0.3337 -0.2145
vn 0.6128 0.4149 -0.6725
vn -0.1235 -0.8605 0.4943
vn -0.4826 -0.6743 0.5590
vn -0.8782 0.4773 -0.0325
vn 0.3171 0.7112 -0.6274
vn 0.6471 0.4701 -0.6002
vn -0.0940 -0.8134 0.5740
vn -0.4641 -0.6419 0.6104
vn 0.0940 0.8134 -0.5740
vn 0.4641 0.6419 -0.6104
vn 0.8782 -0.4773 0.0325
vn -0.3171 -0.7112 0.6274
vn -0.6471 -0.4701 0.6002
vn 0.1235 0.8605 -0.4943
vn 0.4826 0.6743 -0.5590
vn 0.9179 -0.3337 0.2145
vn -0.2965 -0.6751 0.6755
vn -0.6128 -0.4149 0.6725
vn -0.1876 0.5774 -0.7947
vn -0.6071 -0.0000 -0.7947
vn 0.4911 0.3568 -0.7947
vn 0.4911 -0.3568 -0.7947
vn -0.1876 -0.5774 -0.7947
vn -0.9822 -0.0000 -0.1876
vn -0.3035 0.9342 -0.1876
vn 0.7946 0.5774 -0.1876
vn 0.7946 -0.5774 -0.1876
vn -0.3035 -0.9342 -0.1876
vn -0.7947 0.5774 0.1876
vn 0.3035 0.9342 0.1876
vn 0.9822 -0.0000 0.1876
vn 0.3035 -0.9342 0.1876
vn -0.7947 -0.5774 0.1876
vn -0.4911 0.3568 0.7947
vn 0.1876 0.5774 0.7947
vn 0.6071 -0.0000 0.7947
vn 0.1876 -0.5774 0.7947
vn -0.4911 -0.3568 0.7947
vn -0.7946 0.5774 0.1876
vn -0.7946 -0.5774 0.1876
vn 0.7947 0.5774 -0.1876
vt 1.000000 0.500000
vt 1.000000 1.000000
vt 0.875000 1.000000
vt 0.875000 0.500000
vt 0.750000 1.000000
vt 0.750000 0.500000
vt 0.625000 1.000000
vt 0.625000 0.500000
vt 0.500000 1.000000
vt 0.500000 0.500000
vt 0.375000 1.000000
vt 0.375000 0.500000
vt 0.250000 1.000000
vt 0.250000 0.500000
vt 0.419706 0.419706
vt 0.250000 0.490000
vt 0.080294 0.419706
vt 0.010000 0.250000
vt 0.080294 0.080294
vt 0.250000 0.010000
vt 0.419706 0.080294
vt 0.490000 0.250000
vt 0.125000 1.000000
vt 0.125000 0.500000
vt 0.000000 1.000000
vt 0.000000 0.500000
vt 0.750000 0.490000
vt 0.919706 0.419706
vt 0.990000 0.250000
vt 0.919706 0.080294
vt 0.750000 0.010000
vt 0.580294 0.080294
vt 0.510000 0.250000
vt 0.580294 0.419706
vt 0.181819 0.000000
vt 0.272728 0.157461
vt 0.090910 0.157461
vt 0.363637 0.000000
vt 0.454546 0.157461
vt 0.909091 0.000000
vt 1.000000 0.157461
vt 0.818182 0.157461
vt 0.727273 0.000000
vt 0.636364 0.157461
vt 0.545455 0.000000
vt 0.363637 0.314921
vt 0.181819 0.314921
vt 0.909091 0.314921
vt 0.727273 0.314921
vt 0.545455 0.314921
vt 0.000000 0.314921
vt 0.272728 0.472382
vt 0.090910 0.472382
vt 0.818182 0.472382
vt 0.636364 0.472382
vt 0.454546 0.472382
s 0
usemtl bark
f 1/1/1 2/2/1 4/3/1 3/4/1
f 3/4/2 4/3/2 6/5/2 5/6/2
f 5/6/3 6/5/3 8/7/3 7/8/3
f 7/8/4 8/7/4 10/9/4 9/10/4
f 9/10/5 10/9/5 12/11/5 11/12/5
f 11/12/6 12/11/6 14/13/6 13/14/6
f 4/15/7 2/16/7 16/17/7 14/18/7 12/19/7 10/20/7 8/21/7 6/22/7
f 13/14/8 14/13/8 16/23/8 15/24/8
f 15/24/9 16/23/9 2/25/9 1/26/9
f 1/27/10 3/28/10 5/29/10 7/30/10 9/31/10 11/32/10 13/33/10 15/34/10
usemtl leaf_light_dwarfweed
f 17/35/11 18/36/11 19/37/11
f 18/36/12 17/38/12 22/39/12
f 17/40/13 19/41/13 20/42/13
f 17/43/14 20/42/14 21/44/14
f 17/45/15 21/44/15 22/39/15
f 18/36/16 22/39/16 27/46/16
f 19/37/17 18/36/17 23/47/17
f 20/42/18 19/41/18 24/48/18
f 21/44/19 20/42/19 25/49/19
f 22/39/20 21/44/20 26/50/20
f 18/36/21 27/46/21 23/47/21
f 19/37/22 23/47/22 24/51/22
f 20/42/23 24/48/23 25/49/23
f 21/44/24 25/49/24 26/50/24
f 22/39/25 26/50/25 27/46/25
f 23/47/26 27/46/26 28/52/26
f 24/51/27 23/47/27 28/53/27
f 25/49/28 24/48/28 28/54/28
f 26/50/29 25/49/29 28/55/29
f 27/46/30 26/50/30 28/56/30
f 53/35/71 54/36/71 55/37/71
f 54/36/72 53/38/72 58/39/72
f 53/40/73 55/41/73 56/42/73
f 53/43/74 56/42/74 57/44/74
f 53/45/75 57/44/75 58/39/75
f 54/36/76 58/39/76 63/46/76
f 55/37/77 54/36/77 59/47/77
f 56/42/78 55/41/78 60/48/78
f 57/44/79 56/42/79 61/49/79
f 58/39/80 57/44/80 62/50/80
f 54/36/81 63/46/81 59/47/81
f 55/37/82 59/47/82 60/51/82
f 56/42/83 60/48/83 61/49/83
f 57/44/84 61/49/84 62/50/84
f 58/39/85 62/50/85 63/46/85
f 59/47/86 63/46/86 64/52/86
f 60/51/87 59/47/87 64/53/87
f 61/49/88 60/48/88 64/54/88
f 62/50/89 61/49/89 64/55/89
f 63/46/90 62/50/90 64/56/90
f 89/35/131 90/36/131 91/37/131
f 90/36/132 89/38/132 94/39/132
f 89/40/133 91/41/133 92/42/133
f 89/43/134 92/42/134 93/44/134
f 89/45/135 93/44/135 94/39/135
f 90/36/136 94/39/136 99/46/136
f 91/37/137 90/36/137 95/47/137
f 92/42/138 91/41/138 96/48/138
f 93/44/139 92/42/139 97/49/139
f 94/39/140 93/44/140 98/50/140
f 90/36/141 99/46/141 95/47/141
f 91/37/142 95/47/142 96/51/142
f 92/42/143 96/48/143 97/49/143
f 93/44/144 97/49/144 98/50/144
f 94/39/145 98/50/145 99/46/145
f 95/47/146 99/46/146 100/52/146
f 96/51/147 95/47/147 100/53/147
f 97/49/148 96/48/148 100/54/148
f 98/50/149 97/49/149 100/55/149
f 99/46/150 98/50/150 100/56/150
f 125/35/191 126/36/191 127/37/191
f 126/36/192 125/38/192 130/39/192
f 125/40/193 127/41/193 128/42/193
f 125/43/194 128/42/194 129/44/194
f 125/45/195 129/44/195 130/39/195
f 126/36/196 130/39/196 135/46/196
f 127/37/197 126/36/197 131/47/197
f 128/42/198 127/41/198 132/48/198
f 129/44/199 128/42/199 133/49/199
f 130/39/200 129/44/200 134/50/200
f 126/36/201 135/46/201 131/47/201
f 127/37/202 131/47/202 132/51/202
f 128/42/203 132/48/203 133/49/203
f 129/44/204 133/49/204 134/50/204
f 130/39/205 134/50/205 135/46/205
f 131/47/206 135/46/206 136/52/206
f 132/51/207 131/47/207 136/53/207
f 133/49/208 132/48/208 136/54/208
f 134/50/209 133/49/209 136/55/209
f 135/46/210 134/50/210 136/56/210
usemtl leaf_dwarfweed
f 29/35/31 30/36/31 31/37/31
f 30/36/32 29/38/32 34/39/32
f 29/40/33 31/41/33 32/42/33
f 29/43/34 32/42/34 33/44/34
f 29/45/35 33/44/35 34/39/35
f 30/36/36 34/39/36 39/46/36
f 31/37/37 30/36/37 35/47/37
f 32/42/38 31/41/38 36/48/38
f 33/44/39 32/42/39 37/49/39
f 34/39/40 33/44/40 38/50/40
f 30/36/41 39/46/41 35/47/41
f 31/37/42 35/47/42 36/51/42
f 32/42/43 36/48/43 37/49/43
f 33/44/44 37/49/44 38/50/44
f 34/39/45 38/50/45 39/46/45
f 35/47/46 39/46/46 40/52/46
f 36/51/47 35/47/47 40/53/47
f 37/49/48 36/48/48 40/54/48
f 38/50/49 37/49/49 40/55/49
f 39/46/50 38/50/50 40/56/50
f 41/35/51 42/36/51 43/37/51
f 42/36/52 41/38/52 46/39/52
f 41/40/53 43/41/53 44/42/53
f 41/43/54 44/42/54 45/44/54
f 41/45/55 45/44/55 46/39/55
f 42/36/56 46/39/56 51/46/56
f 43/37/57 42/36/57 47/47/57
f 44/42/58 43/41/58 48/48/58
f 45/44/59 44/42/59 49/49/59
f 46/39/60 45/44/60 50/50/60
f 42/36/61 51/46/61 47/47/61
f 43/37/62 47/47/62 48/51/62
f 44/42/63 48/48/63 49/49/63
f 45/44/64 49/49/64 50/50/64
f 46/39/65 50/50/65 51/46/65
f 47/47/66 51/46/66 52/52/66
f 48/51/67 47/47/67 52/53/67
f 49/49/68 48/48/68 52/54/68
f 50/50/69 49/49/69 52/55/69
f 51/46/70 50/50/70 52/56/70
f 65/35/91 66/36/91 67/37/91
f 66/36/92 65/38/92 70/39/92
f 65/40/93 67/41/93 68/42/93
f 65/43/94 68/42/94 69/44/94
f 65/45/95 69/44/95 70/39/95
f 66/36/96 70/39/96 75/46/96
f 67/37/97 66/36/97 71/47/97
f 68/42/98 67/41/98 72/48/98
f 69/44/99 68/42/99 73/49/99
f 70/39/100 69/44/100 74/50/100
f 66/36/101 75/46/101 71/47/101
f 67/37/102 71/47/102 72/51/102
f 68/42/103 72/48/103 73/49/103
f 69/44/104 73/49/104 74/50/104
f 70/39/105 74/50/105 75/46/105
f 71/47/106 75/46/106 76/52/106
f 72/51/107 71/47/107 76/53/107
f 73/49/108 72/48/108 76/54/108
f 74/50/109 73/49/109 76/55/109
f 75/46/110 74/50/110 76/56/110
f 77/35/111 78/36/111 79/37/111
f 78/36/112 77/38/112 82/39/112
f 77/40/113 79/41/113 80/42/113
f 77/43/114 80/42/114 81/44/114
f 77/45/115 81/44/115 82/39/115
f 78/36/116 82/39/116 87/46/116
f 79/37/117 78/36/117 83/47/117
f 80/42/118 79/41/118 84/48/118
f 81/44/119 80/42/119 85/49/119
f 82/39/120 81/44/120 86/50/120
f 78/36/121 87/46/121 83/47/121
f 79/37/122 83/47/122 84/51/122
f 80/42/123 84/48/123 85/49/123
f 81/44/124 85/49/124 86/50/124
f 82/39/125 86/50/125 87/46/125
f 83/47/126 87/46/126 88/52/126
f 84/51/127 83/47/127 88/53/127
f 85/49/128 84/48/128 88/54/128
f 86/50/129 85/49/129 88/55/129
f 87/46/130 86/50/130 88/56/130
f 101/35/151 102/36/151 103/37/151
f 102/36/152 101/38/152 106/39/152
f 101/40/153 103/41/153 104/42/153
f 101/43/154 104/42/154 105/44/154
f 101/45/155 105/44/155 106/39/155
f 102/36/156 106/39/156 111/46/156
f 103/37/157 102/36/157 107/47/157
f 104/42/158 103/41/158 108/48/158
f 105/44/159 104/42/159 109/49/159
f 106/39/160 105/44/160 110/50/160
f 102/36/161 111/46/161 107/47/161
f 103/37/162 107/47/162 108/51/162
f 104/42/163 108/48/163 109/49/163
f 105/44/164 109/49/164 110/50/164
f 106/39/165 110/50/165 111/46/165
f 107/47/166 111/46/166 112/52/166
f 108/51/167 107/47/167 112/53/167
f 109/49/168 108/48/168 112/54/168
f 110/50/169 109/49/169 112/55/169
f 111/46/170 110/50/170 112/56/170
f 113/35/171 114/36/171 115/37/171
f 114/36/172 113/38/172 118/39/172
f 113/40/173 115/41/173 116/42/173
f 113/43/174 116/42/174 117/44/174
f 113/45/175 117/44/175 118/39/175
f 114/36/176 118/39/176 123/46/176
f 115/37/177 114/36/177 119/47/177
f 116/42/178 115/41/178 120/48/178
f 117/44/179 116/42/179 121/49/179
f 118/39/180 117/44/180 122/50/180
f 114/36/181 123/46/181 119/47/181
f 115/37/182 119/47/182 120/51/182
f 116/42/183 120/48/183 121/49/183
f 117/44/184 121/49/184 122/50/184
f 118/39/185 122/50/185 123/46/185
f 119/47/186 123/46/186 124/52/186
f 120/51/187 119/47/187 124/53/187
f 121/49/188 120/48/188 124/54/188
f 122/50/189 121/49/189 124/55/189
f 123/46/190 122/50/190 124/56/190
f 137/35/211 138/36/211 139/37/211
f 138/36/212 137/38/212 142/39/212
f 137/40/213 139/41/213 140/42/213
f 137/43/214 140/42/214 141/44/214
f 137/45/215 141/44/215 142/39/215
f 138/36/216 142/39/216 147/46/216
f 139/37/217 138/36/217 143/47/217
f 140/42/218 139/41/218 144/48/218
f 141/44/219 140/42/219 145/49/219
f 142/39/220 141/44/220 146/50/220
f 138/36/221 147/46/221 143/47/221
f 139/37/222 143/47/222 144/51/222
f 140/42/223 144/48/223 145/49/223
f 141/44/224 145/49/224 146/50/224
f 142/39/225 146/50/225 147/46/225
f 143/47/226 147/46/226 148/52/226
f 144/51/227 143/47/227 148/53/227
f 145/49/228 144/48/228 148/54/228
f 146/50/229 145/49/229 148/55/229
f 147/46/230 146/50/230 148/56/230
f 149/35/231 150/36/231 151/37/231
f 150/36/232 149/38/232 154/39/232
f 149/40/233 151/41/233 152/42/233
f 149/43/234 152/42/234 153/44/234
f 149/45/235 153/44/235 154/39/235
f 150/36/236 154/39/236 159/46/236
f 151/37/237 150/36/237 155/47/237
f 152/42/238 151/41/238 156/48/238
f 153/44/239 152/42/239 157/49/239
f 154/39/240 153/44/240 158/50/240
f 150/36/241 159/46/241 155/47/241
f 151/37/242 155/47/242 156/51/242
f 152/42/243 156/48/243 157/49/243
f 153/44/244 157/49/244 158/50/244
f 154/39/245 158/50/245 159/46/245
f 155/47/246 159/46/246 160/52/246
f 156/51/247 155/47/247 160/53/247
f 157/49/248 156/48/248 160/54/248
f 158/50/249 157/49/249 160/55/249
f 159/46/250 158/50/250 160/56/250
usemtl flower_dwarfweed
f 161/35/251 162/36/251 163/37/251
f 162/36/252 161/38/252 166/39/252
f 161/40/253 163/41/253 164/42/253
f 161/43/254 164/42/254 165/44/254
f 161/45/255 165/44/255 166/39/255
f 162/36/256 166/39/256 171/46/256
f 163/37/257 162/36/257 167/47/257
f 164/42/258 163/41/258 168/48/258
f 165/44/259 164/42/259 169/49/259
f 166/39/260 165/44/260 170/50/260
f 162/36/261 171/46/261 167/47/261
f 163/37/262 167/47/262 168/51/262
f 164/42/263 168/48/263 169/49/263
f 165/44/264 169/49/264 170/50/264
f 166/39/265 170/50/265 171/46/265
f 167/47/266 171/46/266 172/52/266
f 168/51/267 167/47/267 172/53/267
f 169/49/268 168/48/268 172/54/268
f 170/50/269 169/49/269 172/55/269
f 171/46/270 170/50/270 172/56/270
f 173/35/251 174/36/251 175/37/251
f 174/36/252 173/38/252 178/39/252
f 173/40/253 175/41/253 176/42/253
f 173/43/254 176/42/254 177/44/254
f 173/45/255 177/44/255 178/39/255
f 174/36/256 178/39/256 183/46/256
f 175/37/257 174/36/257 179/47/257
f 176/42/258 175/41/258 180/48/258
f 177/44/259 176/42/259 181/49/259
f 178/39/260 177/44/260 182/50/260
f 174/36/271 183/46/271 179/47/271
f 175/37/262 179/47/262 180/51/262
f 176/42/263 180/48/263 181/49/263
f 177/44/264 181/49/264 182/50/264
f 178/39/272 182/50/272 183/46/272
f 179/47/266 183/46/266 184/52/266
f 180/51/267 179/47/267 184/53/267
f 181/49/268 180/48/268 184/54/268
f 182/50/269 181/49/269 184/55/269
f 183/46/270 182/50/270 184/56/270
f 185/35/251 186/36/251 187/37/251
f 186/36/252 185/38/252 190/39/252
f 185/40/253 187/41/253 188/42/253
f 185/43/254 188/42/254 189/44/254
f 185/45/255 189/44/255 190/39/255
f 186/36/256 190/39/256 195/46/256
f 187/37/257 186/36/257 191/47/257
f 188/42/273 187/41/273 192/48/273
f 189/44/259 188/42/259 193/49/259
f 190/39/260 189/44/260 194/50/260
f 186/36/271 195/46/271 191/47/271
f 187/37/262 191/47/262 192/51/262
f 188/42/263 192/48/263 193/49/263
f 189/44/264 193/49/264 194/50/264
f 190/39/272 194/50/272 195/46/272
f 191/47/266 195/46/266 196/52/266
f 192/51/267 191/47/267 196/53/267
f 193/49/268 192/48/268 196/54/268
f 194/50/269 193/49/269 196/55/269
f 195/46/270 194/50/270 196/56/270
f 197/35/251 198/36/251 199/37/251
f 198/36/252 197/38/252 202/39/252
f 197/40/253 199/41/253 200/42/253
f 197/43/254 200/42/254 201/44/254
f 197/45/255 201/44/255 202/39/255
f 198/36/256 202/39/256 207/46/256
f 199/37/257 198/36/257 203/47/257
f 200/42/258 199/41/258 204/48/258
f 201/44/259 200/42/259 205/49/259
f 202/39/260 201/44/260 206/50/260
f 198/36/261 207/46/261 203/47/261
f 199/37/262 203/47/262 204/51/262
f 200/42/263 204/48/263 205/49/263
f 201/44/264 205/49/264 206/50/264
f 202/39/272 206/50/272 207/46/272
f 203/47/266 207/46/266 208/52/266
f 204/51/267 203/47/267 208/53/267
f 205/49/268 204/48/268 208/54/268
f 206/50/269 205/49/269 208/55/269
f 207/46/270 206/50/270 208/56/270
f 209/35/251 210/36/251 211/37/251
f 210/36/252 209/38/252 214/39/252
f 209/40/253 211/41/253 212/42/253
f 209/43/254 212/42/254 213/44/254
f 209/45/255 213/44/255 214/39/255
f 210/36/256 214/39/256 219/46/256
f 211/37/257 210/36/257 215/47/257
f 212/42/258 211/41/258 216/48/258
f 213/44/259 212/42/259 217/49/259
f 214/39/260 213/44/260 218/50/260
f 210/36/271 219/46/271 215/47/271
f 211/37/262 215/47/262 216/51/262
f 212/42/263 216/48/263 217/49/263
f 213/44/264 217/49/264 218/50/264
f 214/39/272 218/50/272 219/46/272
f 215/47/266 219/46/266 220/52/266
f 216/51/267 215/47/267 220/53/267
f 217/49/268 216/48/268 220/54/268
f 218/50/269 217/49/269 220/55/269
f 219/46/270 218/50/270 220/56/270
