# Blender 4.0.2
# www.blender.org
mtllib 6_dead.mtl
o 6_dead
v 0.000000 -0.180000 0.000000
v 0.000000 -0.180000 0.020000
v -0.105801 -0.145623 0.000000
v -0.105801 -0.145623 0.020000
v -0.171190 -0.055623 0.000000
v -0.171190 -0.055623 0.020000
v -0.171190 0.055623 0.000000
v -0.171190 0.055623 0.020000
v -0.105801 0.145623 0.000000
v -0.105801 0.145623 0.020000
v 0.000000 0.180000 0.000000
v 0.000000 0.180000 0.020000
v 0.105801 0.145623 0.000000
v 0.105801 0.145623 0.020000
v 0.171190 0.055623 0.000000
v 0.171190 0.055623 0.020000
v 0.171190 -0.055623 0.000000
v 0.171190 -0.055623 0.020000
v 0.105801 -0.145623 0.000000
v 0.105801 -0.145623 0.020000
v 0.000615 -0.011658 0.037224
v -0.179385 -0.111658 0.417224
v -0.010169 -0.003017 0.034389
v -0.190169 -0.103017 0.414389
v -0.006900 0.009793 0.039309
v -0.186900 -0.090207 0.419309
v 0.005905 0.009070 0.045184
v -0.174095 -0.090930 0.425184
v 0.010549 -0.004188 0.043895
v -0.169451 -0.104188 0.423895
v -0.000813 -0.011378 0.036275
v 0.169187 -0.141378 0.396275
v -0.010653 -0.004289 0.043482
v 0.159347 -0.134289 0.403481
v -0.005771 0.008727 0.045877
v 0.164229 -0.121273 0.405877
v 0.007086 0.009683 0.040150
v 0.177086 -0.120317 0.400150
v 0.010150 -0.002743 0.034216
v 0.180150 -0.132743 0.394216
v -0.000947 -0.011116 0.044420
v -0.150947 0.128884 0.364420
v -0.010740 -0.004336 0.036862
v -0.160740 0.135664 0.356862
v -0.005691 0.008437 0.033641
v -0.155691 0.148437 0.353641
v 0.007223 0.009550 0.039208
v -0.142777 0.149550 0.359208
v 0.010155 -0.002535 0.045869
v -0.139845 0.137465 0.365869
v 0.000764 -0.011598 0.042984
v 0.190764 0.088402 0.382984
v -0.009796 -0.002857 0.046315
v 0.180204 0.097143 0.386315
v -0.006818 0.009832 0.040918
v 0.183182 0.109832 0.380918
v 0.005582 0.008934 0.034253
v 0.195582 0.108934 0.374253
v 0.010268 -0.004311 0.035530
v 0.200268 0.095689 0.375530
v 0.000289 -0.010844 0.034870
v -0.049711 -0.210845 0.454870
v -0.011255 -0.003076 0.037195
v -0.061255 -0.203076 0.457195
v -0.007245 0.008943 0.043396
v -0.057245 -0.191057 0.463396
v 0.006777 0.008604 0.044904
v -0.043223 -0.191396 0.464904
v 0.011433 -0.003626 0.039635
v -0.038567 -0.203626 0.459634
v -0.000403 -0.010963 0.044863
v -0.070403 0.169037 0.444863
v -0.011388 -0.003771 0.039704
v -0.081388 0.176229 0.439704
v -0.006635 0.008632 0.034954
v -0.076635 0.188632 0.434954
v 0.007287 0.009106 0.037177
v -0.062713 0.189106 0.437177
v 0.011139 -0.003004 0.043301
v -0.058861 0.176996 0.443301
v -0.000223 -0.011978 0.040696
v -0.200223 0.008022 0.320696
v -0.009361 -0.003913 0.033593
v -0.209361 0.016087 0.313593
v -0.005563 0.009559 0.035344
v -0.205563 0.029559 0.315344
v 0.005923 0.009821 0.043530
v -0.194077 0.029821 0.323529
v 0.009224 -0.003489 0.046838
v -0.190776 0.016511 0.326837
v -0.000206 -0.011980 0.039346
v 0.209794 -0.031980 0.339346
v -0.009418 -0.003898 0.046333
v 0.200582 -0.023898 0.346333
v -0.005615 0.009571 0.044568
v 0.204385 -0.010429 0.344568
v 0.005948 0.009813 0.036491
v 0.215948 -0.010187 0.336491
v 0.009291 -0.003506 0.033263
v 0.219291 -0.023506 0.333263
v 0.003510 -0.010085 0.034526
v -0.216490 -0.130085 0.114526
v -0.004207 0.000222 0.028764
v -0.224207 -0.119778 0.108764
v -0.006111 0.010222 0.038530
v -0.226111 -0.109778 0.118530
v 0.000431 0.006096 0.050328
v -0.219569 -0.113904 0.130327
v 0.006377 -0.006455 0.047853
v -0.213623 -0.126455 0.127853
v -0.004390 -0.008864 0.033206
v 0.205610 -0.158864 0.093206
v -0.006924 -0.006915 0.046946
v 0.203076 -0.156915 0.106946
v 0.000111 0.004591 0.051087
v 0.210111 -0.145409 0.111087
v 0.006992 0.009752 0.039906
v 0.216992 -0.140248 0.099906
v 0.004210 0.001436 0.028855
v 0.214210 -0.148564 0.088855
v -0.005035 -0.006669 0.048612
v -0.175035 0.173331 0.088612
v -0.008446 -0.006849 0.034926
v -0.178446 0.173151 0.074925
v -0.000185 0.002436 0.028251
v -0.170185 0.182436 0.068251
v 0.008332 0.008355 0.037813
v -0.161668 0.188355 0.077813
v 0.005334 0.002728 0.050397
v -0.164666 0.182728 0.090397
v 0.004310 -0.008552 0.047231
v 0.204310 0.151448 0.117231
v -0.004956 0.001457 0.050831
v 0.195044 0.161457 0.120831
v -0.007374 0.009452 0.039463
v 0.192626 0.169452 0.109463
v 0.000399 0.004385 0.028837
v 0.200399 0.164385 0.098837
v 0.007620 -0.006742 0.033638
v 0.207620 0.153258 0.103638
v 0.002792 -0.005857 0.029906
v -0.097208 -0.225857 0.129906
v -0.009343 0.000845 0.032517
v -0.109343 -0.219155 0.132517
v -0.008566 0.006380 0.045470
v -0.108566 -0.213620 0.145470
v 0.004049 0.003098 0.050863
v -0.095951 -0.216902 0.150863
v 0.011068 -0.004465 0.041244
v -0.088932 -0.224465 0.141244
v -0.002471 -0.005205 0.050526
v -0.082471 0.214795 0.140526
v -0.011322 -0.003958 0.039612
v -0.091322 0.216042 0.129612
v -0.004526 0.002758 0.029234
v -0.084526 0.222758 0.119234
v 0.008524 0.005663 0.033734
v -0.071476 0.225663 0.123734
v 0.009795 0.000742 0.046893
v -0.070205 0.220742 0.136893
v 0.000000 -0.022000 0.000000
v 0.000000 -0.022000 0.060000
v -0.020923 -0.006798 0.000000
v -0.020923 -0.006798 0.060000
v -0.012931 0.017798 0.000000
v -0.012931 0.017798 0.060000
v 0.012931 0.017798 0.000000
v 0.012931 0.017798 0.060000
v 0.020923 -0.006798 0.000000
v 0.020923 -0.006798 0.060000
vn -0.3090 -0.9511 -0.0000
vn -0.8090 -0.5878 -0.0000
vn -1.0000 -0.0000 -0.0000
vn -0.8090 0.5878 -0.0000
vn -0.3090 0.9511 -0.0000
vn 0.3090 0.9511 -0.0000
vn 0.8090 0.5878 -0.0000
vn 1.0000 -0.0000 -0.0000
vn -0.0000 -0.0000 1.0000
vn 0.8090 -0.5878 -0.0000
vn 0.3090 -0.9511 -0.0000
vn -0.0000 -0.0000 -1.0000
vn -0.4920 -0.7558 -0.4320
vn -0.8791 0.3490 -0.3246
vn -0.0513 0.9715 0.2314
vn -0.4165 -0.2314 0.8792
vn 0.8474 0.2514 0.4676
vn 0.5750 -0.8161 0.0576
vn 0.4165 0.2314 -0.8792
vn -0.5905 -0.8069 -0.0125
vn -0.8459 0.2286 0.4820
vn 0.0678 0.9482 0.3104
vn 0.4059 -0.3104 0.8596
vn 0.8877 0.3574 -0.2901
vn 0.4809 -0.7273 -0.4897
vn -0.4059 0.3104 -0.8596
vn -0.6019 -0.7958 0.0660
vn -0.8463 0.2112 -0.4891
vn 0.0789 0.9264 -0.3683
vn -0.3946 0.3683 0.8418
vn 0.8950 0.3613 0.2615
vn 0.4743 -0.7031 0.5299
vn 0.3946 -0.3683 -0.8418
vn -0.4652 -0.7445 0.4789
vn -0.8557 0.3592 0.3725
vn -0.0637 0.9665 -0.2487
vn 0.4725 0.2487 0.8455
vn 0.8163 0.2381 -0.5262
vn 0.5682 -0.8193 -0.0765
vn -0.4725 -0.2487 -0.8455
vn -0.5648 -0.7170 -0.4086
vn -0.9528 0.3022 0.0305
vn -0.0241 0.9037 0.4275
vn -0.1069 -0.4275 0.8977
vn 0.9379 0.2564 0.2337
vn 0.6037 -0.7453 -0.2830
vn 0.1069 0.4275 -0.8977
vn -0.6073 -0.7589 0.2352
vn -0.9282 0.2504 -0.2751
vn 0.0336 0.9136 -0.4052
vn -0.1576 0.4052 0.9005
vn 0.9490 0.3143 0.0247
vn 0.5529 -0.7194 0.4205
vn 0.1576 -0.4052 -0.9005
vn -0.4936 -0.8184 -0.2941
vn -0.7686 0.2908 -0.5698
vn 0.0186 0.9981 -0.0580
vn -0.5803 0.0580 0.8124
vn 0.7801 0.3261 0.5339
vn 0.4636 -0.7966 0.3880
vn 0.5803 -0.0580 -0.8124
vn -0.4957 -0.8178 0.2925
vn -0.7742 0.2922 0.5614
vn 0.0172 0.9984 0.0545
vn 0.5726 -0.0545 0.8180
vn 0.7848 0.3248 -0.5277
vn 0.4679 -0.7976 -0.3807
vn -0.5726 0.0545 -0.8180
vn -0.0359 -0.5080 -0.8606
vn -0.5314 0.5379 -0.6544
vn -0.2925 0.8404 0.4562
vn -0.8363 -0.4562 0.3041
vn 0.3506 -0.0185 0.9363
vn 0.5092 -0.8519 0.1225
vn 0.8363 0.4562 -0.3041
vn -0.5827 -0.8126 0.0079
vn -0.3509 -0.1197 0.9287
vn 0.3659 0.7387 0.5661
vn 0.7926 -0.5661 0.2265
vn 0.5770 0.5762 -0.5789
vn -0.0093 -0.3825 -0.9239
vn -0.7926 0.5661 -0.2265
vn -0.6943 -0.6962 0.1822
vn -0.4445 -0.2273 -0.8664
vn 0.4196 0.5558 -0.7177
vn -0.6778 0.7177 0.1595
vn 0.7038 0.5708 0.4229
vn 0.0154 -0.2030 0.9791
vn 0.6778 -0.7177 -0.1595
vn -0.0333 -0.3654 0.9303
vn -0.6350 0.5618 0.5302
vn -0.3592 0.7126 -0.6026
vn 0.7532 0.6026 0.2636
vn 0.4130 -0.1214 -0.9026
vn 0.6145 -0.7877 0.0448
vn -0.7532 -0.6026 -0.2636
vn -0.3374 -0.2581 -0.9053
vn -0.9224 0.3721 -0.1037
vn -0.2327 0.4881 0.8412
vn -0.3824 -0.8412 0.3824
vn 0.7786 -0.0704 0.6236
vn 0.7139 -0.5317 -0.4558
vn 0.3824 0.8412 -0.3824
vn -0.7104 -0.4719 0.5222
vn -0.8162 -0.0618 -0.5744
vn 0.2059 0.4337 -0.8772
vn -0.3190 0.8772 0.3589
vn 0.9435 0.3299 0.0323
vn 0.3772 -0.2299 0.8972
vn 0.3190 -0.8772 -0.3589
vn -0.5878 -0.8090 -0.0000
vn -0.9511 0.3090 -0.0000
vn -0.0000 1.0000 -0.0000
vn 0.9511 0.3090 -0.0000
vn 0.5878 -0.8090 -0.0000
vt 1.000000 0.500000
vt 1.000000 1.000000
vt 0.900000 1.000000
vt 0.900000 0.500000
vt 0.800000 1.000000
vt 0.800000 0.500000
vt 0.700000 1.000000
vt 0.700000 0.500000
vt 0.600000 1.000000
vt 0.600000 0.500000
vt 0.500000 1.000000
vt 0.500000 0.500000
vt 0.400000 1.000000
vt 0.400000 0.500000
vt 0.300000 1.000000
vt 0.300000 0.500000
vt 0.200000 1.000000
vt 0.200000 0.500000
vt 0.391068 0.444164
vt 0.250000 0.490000
vt 0.108932 0.444164
vt 0.021746 0.324164
vt 0.021746 0.175836
vt 0.108932 0.055836
vt 0.250000 0.010000
vt 0.391068 0.055836
vt 0.478254 0.175836
vt 0.478254 0.324164
vt 0.100000 1.000000
vt 0.100000 0.500000
vt -0.000000 1.000000
vt -0.000000 0.500000
vt 0.750000 0.490000
vt 0.891068 0.444164
vt 0.978254 0.324164
vt 0.978254 0.175836
vt 0.891068 0.055836
vt 0.750000 0.010000
vt 0.608932 0.055836
vt 0.521746 0.175836
vt 0.521746 0.324164
vt 0.608932 0.444164
vt 0.800000 1.000000
vt 0.800000 0.500000
vt 0.600000 1.000000
vt 0.600000 0.500000
vt 0.400000 1.000000
vt 0.400000 0.500000
vt 0.200000 1.000000
vt 0.200000 0.500000
vt 0.000000 1.000000
vt 0.000000 0.500000
s 0
usemtl soil
f 1/1/1 2/2/1 4/3/1 3/4/1
f 3/4/2 4/3/2 6/5/2 5/6/2
f 5/6/3 6/5/3 8/7/3 7/8/3
f 7/8/4 8/7/4 10/9/4 9/10/4
f 9/10/5 10/9/5 12/11/5 11/12/5
f 11/12/6 12/11/6 14/13/6 13/14/6
f 13/14/7 14/13/7 16/15/7 15/16/7
f 15/16/8 16/15/8 18/17/8 17/18/8
f 4/19/9 2/20/9 20/21/9 18/22/9 16/23/9 14/24/9 12/25/9 10/26/9 8/27/9 6/28/9
f 17/18/10 18/17/10 20/29/10 19/30/10
f 19/30/11 20/29/11 2/31/11 1/32/11
f 1/33/12 3/34/12 5/35/12 7/36/12 9/37/12 11/38/12 13/39/12 15/40/12 17/41/12 19/42/12
usemtl bark
f 21/1/13 22/2/13 24/43/13 23/44/13
f 23/44/14 24/43/14 26/45/14 25/46/14
f 25/46/15 26/45/15 28/47/15 27/48/15
f 24/28/16 22/20/16 30/22/16 28/24/16 26/26/16
f 27/48/17 28/47/17 30/49/17 29/50/17
f 29/50/18 30/49/18 22/51/18 21/52/18
f 21/33/19 23/35/19 25/37/19 27/39/19 29/41/19
f 31/1/20 32/2/20 34/43/20 33/44/20
f 33/44/21 34/43/21 36/45/21 35/46/21
f 35/46/22 36/45/22 38/47/22 37/48/22
f 34/28/23 32/20/23 40/22/23 38/24/23 36/26/23
f 37/48/24 38/47/24 40/49/24 39/50/24
f 39/50/25 40/49/25 32/51/25 31/52/25
f 31/33/26 33/35/26 35/37/26 37/39/26 39/41/26
f 41/1/27 42/2/27 44/43/27 43/44/27
f 43/44/28 44/43/28 46/45/28 45/46/28
f 45/46/29 46/45/29 48/47/29 47/48/29
f 44/28/30 42/20/30 50/22/30 48/24/30 46/26/30
f 47/48/31 48/47/31 50/49/31 49/50/31
f 49/50/32 50/49/32 42/51/32 41/52/32
f 41/33/33 43/35/33 45/37/33 47/39/33 49/41/33
f 51/1/34 52/2/34 54/43/34 53/44/34
f 53/44/35 54/43/35 56/45/35 55/46/35
f 55/46/36 56/45/36 58/47/36 57/48/36
f 54/28/37 52/20/37 60/22/37 58/24/37 56/26/37
f 57/48/38 58/47/38 60/49/38 59/50/38
f 59/50/39 60/49/39 52/51/39 51/52/39
f 51/33/40 53/35/40 55/37/40 57/39/40 59/41/40
f 61/1/41 62/2/41 64/43/41 63/44/41
f 63/44/42 64/43/42 66/45/42 65/46/42
f 65/46/43 66/45/43 68/47/43 67/48/43
f 64/28/44 62/20/44 70/22/44 68/24/44 66/26/44
f 67/48/45 68/47/45 70/49/45 69/50/45
f 69/50/46 70/49/46 62/51/46 61/52/46
f 61/33/47 63/35/47 65/37/47 67/39/47 69/41/47
f 71/1/48 72/2/48 74/43/48 73/44/48
f 73/44/49 74/43/49 76/45/49 75/46/49
f 75/46/50 76/45/50 78/47/50 77/48/50
f 74/28/51 72/20/51 80/22/51 78/24/51 76/26/51
f 77/48/52 78/47/52 80/49/52 79/50/52
f 79/50/53 80/49/53 72/51/53 71/52/53
f 71/33/54 73/35/54 75/37/54 77/39/54 79/41/54
f 81/1/55 82/2/55 84/43/55 83/44/55
f 83/44/56 84/43/56 86/45/56 85/46/56
f 85/46/57 86/45/57 88/47/57 87/48/57
f 84/28/58 82/20/58 90/22/58 88/24/58 86/26/58
f 87/48/59 88/47/59 90/49/59 89/50/59
f 89/50/60 90/49/60 82/51/60 81/52/60
f 81/33/61 83/35/61 85/37/61 87/39/61 89/41/61
f 91/1/62 92/2/62 94/43/62 93/44/62
f 93/44/63 94/43/63 96/45/63 95/46/63
f 95/46/64 96/45/64 98/47/64 97/48/64
f 94/28/65 92/20/65 100/22/65 98/24/65 96/26/65
f 97/48/66 98/47/66 100/49/66 99/50/66
f 99/50/67 100/49/67 92/51/67 91/52/67
f 91/33/68 93/35/68 95/37/68 97/39/68 99/41/68
f 101/1/69 102/2/69 104/43/69 103/44/69
f 103/44/70 104/43/70 106/45/70 105/46/70
f 105/46/71 106/45/71 108/47/71 107/48/71
f 104/28/72 102/20/72 110/22/72 108/24/72 106/26/72
f 107/48/73 108/47/73 110/49/73 109/50/73
f 109/50/74 110/49/74 102/51/74 101/52/74
f 101/33/75 103/35/75 105/37/75 107/39/75 109/41/75
f 111/1/76 112/2/76 114/43/76 113/44/76
f 113/44/77 114/43/77 116/45/77 115/46/77
f 115/46/78 116/45/78 118/47/78 117/48/78
f 114/28/79 112/20/79 120/22/79 118/24/79 116/26/79
f 117/48/80 118/47/80 120/49/80 119/50/80
f 119/50/81 120/49/81 112/51/81 111/52/81
f 111/33/82 113/35/82 115/37/82 117/39/82 119/41/82
f 121/1/83 122/2/83 124/43/83 123/44/83
f 123/44/84 124/43/84 126/45/84 125/46/84
f 125/46/85 126/45/85 128/47/85 127/48/85
f 124/28/86 122/20/86 130/22/86 128/24/86 126/26/86
f 127/48/87 128/47/87 130/49/87 129/50/87
f 129/50/88 130/49/88 122/51/88 121/52/88
f 121/33/89 123/35/89 125/37/89 127/39/89 129/41/89
f 131/1/90 132/2/90 134/43/90 133/44/90
f 133/44/91 134/43/91 136/45/91 135/46/91
f 135/46/92 136/45/92 138/47/92 137/48/92
f 134/28/93 132/20/93 140/22/93 138/24/93 136/26/93
f 137/48/94 138/47/94 140/49/94 139/50/94
f 139/50/95 140/49/95 132/51/95 131/52/95
f 131/33/96 133/35/96 135/37/96 137/39/96 139/41/96
f 141/1/97 142/2/97 144/43/97 143/44/97
f 143/44/98 144/43/98 146/45/98 145/46/98
f 145/46/99 146/45/99 148/47/99 147/48/99
f 144/28/100 142/20/100 150/22/100 148/24/100 146/26/100
f 147/48/101 148/47/101 150/49/101 149/50/101
f 149/50/102 150/49/102 142/51/102 141/52/102
f 141/33/103 143/35/103 145/37/103 147/39/103 149/41/103
f 151/1/104 152/2/104 154/43/104 153/44/104
f 153/44/105 154/43/105 156/45/105 155/46/105
f 155/46/106 156/45/106 158/47/106 157/48/106
f 154/28/107 152/20/107 160/22/107 158/24/107 156/26/107
f 157/48/108 158/47/108 160/49/108 159/50/108
f 159/50/109 160/49/109 152/51/109 151/52/109
f 151/33/110 153/35/110 155/37/110 157/39/110 159/41/110
f 161/1/111 162/2/111 164/43/111 163/44/111
f 163/44/112 164/43/112 166/45/112 165/46/112
f 165/46/113 166/45/113 168/47/113 167/48/113
f 164/28/9 162/20/9 170/22/9 168/24/9 166/26/9
f 167/48/114 168/47/114 170/49/114 169/50/114
f 169/50/115 170/49/115 162/51/115 161/52/115
f 161/33/12 163/35/12 165/37/12 167/39/12 169/41/12
