# Blender 4.0.2
# www.blender.org
mtllib stage_3.mtl
o potato_stage3
v -0.042500 0.068000 0.484500
v 0.017000 0.068000 0.484500
v 0.008500 0.119000 0.586500
v -0.034000 0.119000 0.586500
v -0.034000 0.008500 0.204000
v 0.017000 0.017000 0.204000
v -0.017000 0.170000 0.510000
v 0.000000 0.000000 0.017000
v -0.136000 -0.042500 0.204000
v -0.136000 0.051000 0.204000
v -0.212500 0.034000 0.204000
v -0.212500 -0.025500 0.204000
v -0.034000 -0.025500 0.102000
v -0.034000 0.034000 0.102000
v -0.272000 0.000000 0.102000
v 0.000000 0.000000 0.000000
v 0.093500 -0.093500 0.204000
v 0.017000 -0.136000 0.204000
v 0.068000 -0.195500 0.204000
v 0.119000 -0.170000 0.204000
v 0.034000 -0.008500 0.102000
v -0.025500 -0.034000 0.102000
v 0.119000 -0.229500 0.102000
v 0.025500 0.136000 0.204000
v 0.102000 0.093500 0.204000
v 0.127500 0.161500 0.204000
v 0.085000 0.195500 0.204000
v -0.017000 0.042500 0.102000
v 0.034000 0.017000 0.102000
v 0.136000 0.229500 0.102000
v 0.059500 0.008500 0.484500
v 0.034000 -0.051000 0.484500
v 0.085000 -0.059500 0.586500
v 0.102000 -0.025500 0.586500
v 0.008500 0.017000 0.204000
v -0.008500 -0.017000 0.204000
v 0.136000 -0.068000 0.510000
v -0.042500 -0.059500 0.484500
v -0.076500 -0.008500 0.484500
v -0.110500 -0.042500 0.586500
v -0.085000 -0.076500 0.586500
v -0.000000 -0.017000 0.204000
v -0.025500 0.017000 0.204000
v -0.136000 -0.093500 0.510000
vn -0.0000 -0.8944 0.4472
vn 0.0752 -0.9782 0.1938
vn -0.0000 0.8321 0.5547
vn 0.1639 -0.9837 0.0745
vn -0.0000 -0.0000 1.0000
vn 0.7071 -0.0000 0.7071
vn -0.8638 -0.0000 0.5039
vn 0.9487 -0.0000 0.3162
vn -0.3094 0.6189 0.7220
vn 0.3965 -0.7930 0.4626
vn -0.3857 0.8999 0.2035
vn -0.3344 -0.6270 0.7036
vn 0.5421 0.6776 0.4969
vn -0.4286 -0.8571 0.2857
vn -0.8131 0.3696 0.4497
vn -0.8955 0.4070 0.1801
vn 0.7513 -0.3757 0.5426
vn -0.8944 0.4472 -0.0000
vn 0.7469 0.5228 0.4108
vn 0.8024 0.5617 0.2018
vn -0.6656 -0.4992 0.5547
vn 0.7988 0.5991 0.0545
s 0
usemtl rsc_808838
f 1//1 2//1 3//1 4//1
f 5//2 6//2 2//2 1//2
f 4//3 3//3 7//3
f 8//4 6//4 5//4
f 9//5 10//5 11//5 12//5
f 13//6 14//6 10//6 9//6
f 12//7 11//7 15//7
f 16//8 14//8 13//8
f 17//5 18//5 19//5 20//5
f 21//9 22//9 18//9 17//9
f 20//10 19//10 23//10
f 16//11 22//11 21//11
f 24//5 25//5 26//5 27//5
f 28//12 29//12 25//12 24//12
f 27//13 26//13 30//13
f 16//14 29//14 28//14
f 31//15 32//15 33//15 34//15
f 35//16 36//16 32//16 31//16
f 34//17 33//17 37//17
f 8//18 36//18 35//18
f 38//19 39//19 40//19 41//19
f 42//20 43//20 39//20 38//20
f 41//21 40//21 44//21
f 8//22 43//22 42//22
