# OGRS RSC model extracted from .ob3
# vertices: 44  faces: 24
mtllib stage_4.mtl

o potatoplant
v -0.05 0.08 0.5700000000000001
v 0.02 0.08 0.5700000000000001
v 0.01 0.14 0.6900000000000001
v -0.04 0.14 0.6900000000000001
v -0.04 0.01 0.24
v 0.02 0.02 0.24
v -0.02 0.2 0.6
v 0.0 0.0 0.02
v -0.16 -0.05 0.24
v -0.16 0.06 0.24
v -0.25 0.04 0.24
v -0.25 -0.03 0.24
v -0.04 -0.03 0.12
v -0.04 0.04 0.12
v -0.32 0.0 0.12
v 0.0 0.0 0.0
v 0.11 -0.11 0.24
v 0.02 -0.16 0.24
v 0.08 -0.23 0.24
v 0.14 -0.2 0.24
v 0.04 -0.01 0.12
v -0.03 -0.04 0.12
v 0.14 -0.27 0.12
v 0.03 0.16 0.24
v 0.12 0.11 0.24
v 0.15 0.19 0.24
v 0.1 0.23 0.24
v -0.02 0.05 0.12
v 0.04 0.02 0.12
v 0.16 0.27 0.12
v 0.07 0.01 0.5700000000000001
v 0.04 -0.06 0.5700000000000001
v 0.1 -0.07 0.6900000000000001
v 0.12 -0.03 0.6900000000000001
v 0.01 0.02 0.24
v -0.01 -0.02 0.24
v 0.16 -0.08 0.6
v -0.05 -0.07 0.5700000000000001
v -0.09 -0.01 0.5700000000000001
v -0.13 -0.05 0.6900000000000001
v -0.1 -0.09 0.6900000000000001
v 0.0 -0.02 0.24
v -0.03 0.02 0.24
v -0.16 -0.11 0.6

usemtl rsc_808838
f 1 2 3 4
f 5 6 2 1
f 4 3 7
f 8 6 5
f 9 10 11 12
f 13 14 10 9
f 12 11 15
f 16 14 13
f 17 18 19 20
f 21 22 18 17
f 20 19 23
f 16 22 21
f 24 25 26 27
f 28 29 25 24
f 27 26 30
f 16 29 28
f 31 32 33 34
f 35 36 32 31
f 34 33 37
f 8 36 35
f 38 39 40 41
f 42 43 39 38
f 41 40 44
f 8 43 42
